<?xml version="1.0" encoding="UTF-8" standalone="no"?><svg xmlns="http://www.w3.org/2000/svg" xmlns:xlink="http://www.w3.org/1999/xlink" contentScriptType="application/ecmascript" contentStyleType="text/css" height="173px" preserveAspectRatio="none" style="width:305px;height:173px;" version="1.1" viewBox="0 0 305 173" width="305px" zoomAndPan="magnify"><defs><filter height="300%" id="faxz83b43j1z1" width="300%" x="-1" y="-1"><feGaussianBlur result="blurOut" stdDeviation="2.0"/><feColorMatrix in="blurOut" result="blurOut2" type="matrix" values="0 0 0 0 0 0 0 0 0 0 0 0 0 0 0 0 0 0 .4 0"/><feOffset dx="4.0" dy="4.0" in="blurOut2" result="blurOut3"/><feBlend in="SourceGraphic" in2="blurOut3" mode="normal"/></filter></defs><g><!--class Iterable--><rect fill="#FEFECE" filter="url(#faxz83b43j1z1)" height="48" id="Iterable" style="stroke: #A80036; stroke-width: 1.5;" width="93" x="95.5" y="8"/><ellipse cx="110.5" cy="24" fill="#B4A7E5" rx="11" ry="11" style="stroke: #A80036; stroke-width: 1.0;"/><path d="M106.4219,19.7656 L106.4219,17.6094 L113.8125,17.6094 L113.8125,19.7656 L111.3438,19.7656 L111.3438,27.8438 L113.8125,27.8438 L113.8125,30 L106.4219,30 L106.4219,27.8438 L108.8906,27.8438 L108.8906,19.7656 L106.4219,19.7656 Z "/><text fill="#000000" font-family="sans-serif" font-size="12" font-style="italic" lengthAdjust="spacingAndGlyphs" textLength="49" x="124.5" y="28.1543">Iterable</text><rect fill="#FFFFFF" height="15.9688" style="stroke: #000000; stroke-width: 1.0; stroke-dasharray: 2.0,2.0;" width="10" x="181.5" y="5"/><text fill="#000000" font-family="sans-serif" font-size="12" font-style="italic" lengthAdjust="spacingAndGlyphs" textLength="8" x="182.5" y="17.1387">A</text><line style="stroke: #A80036; stroke-width: 1.5;" x1="96.5" x2="187.5" y1="40" y2="40"/><line style="stroke: #A80036; stroke-width: 1.5;" x1="96.5" x2="187.5" y1="48" y2="48"/><!--class Seq--><rect fill="#FEFECE" filter="url(#faxz83b43j1z1)" height="48" id="Seq" style="stroke: #A80036; stroke-width: 1.5;" width="68" x="6" y="116"/><ellipse cx="21" cy="132" fill="#B4A7E5" rx="11" ry="11" style="stroke: #A80036; stroke-width: 1.0;"/><path d="M16.9219,127.7656 L16.9219,125.6094 L24.3125,125.6094 L24.3125,127.7656 L21.8438,127.7656 L21.8438,135.8438 L24.3125,135.8438 L24.3125,138 L16.9219,138 L16.9219,135.8438 L19.3906,135.8438 L19.3906,127.7656 L16.9219,127.7656 Z "/><text fill="#000000" font-family="sans-serif" font-size="12" font-style="italic" lengthAdjust="spacingAndGlyphs" textLength="24" x="35" y="136.1543">Seq</text><rect fill="#FFFFFF" height="15.9688" style="stroke: #000000; stroke-width: 1.0; stroke-dasharray: 2.0,2.0;" width="10" x="67" y="113"/><text fill="#000000" font-family="sans-serif" font-size="12" font-style="italic" lengthAdjust="spacingAndGlyphs" textLength="8" x="68" y="125.1387">A</text><line style="stroke: #A80036; stroke-width: 1.5;" x1="7" x2="73" y1="148" y2="148"/><line style="stroke: #A80036; stroke-width: 1.5;" x1="7" x2="73" y1="156" y2="156"/><!--class Set--><rect fill="#FEFECE" filter="url(#faxz83b43j1z1)" height="48" id="Set" style="stroke: #A80036; stroke-width: 1.5;" width="65" x="109.5" y="116"/><ellipse cx="124.5" cy="132" fill="#B4A7E5" rx="11" ry="11" style="stroke: #A80036; stroke-width: 1.0;"/><path d="M120.4219,127.7656 L120.4219,125.6094 L127.8125,125.6094 L127.8125,127.7656 L125.3438,127.7656 L125.3438,135.8438 L127.8125,135.8438 L127.8125,138 L120.4219,138 L120.4219,135.8438 L122.8906,135.8438 L122.8906,127.7656 L120.4219,127.7656 Z "/><text fill="#000000" font-family="sans-serif" font-size="12" font-style="italic" lengthAdjust="spacingAndGlyphs" textLength="21" x="138.5" y="136.1543">Set</text><rect fill="#FFFFFF" height="15.9688" style="stroke: #000000; stroke-width: 1.0; stroke-dasharray: 2.0,2.0;" width="10" x="167.5" y="113"/><text fill="#000000" font-family="sans-serif" font-size="12" font-style="italic" lengthAdjust="spacingAndGlyphs" textLength="8" x="168.5" y="125.1387">A</text><line style="stroke: #A80036; stroke-width: 1.5;" x1="110.5" x2="173.5" y1="148" y2="148"/><line style="stroke: #A80036; stroke-width: 1.5;" x1="110.5" x2="173.5" y1="156" y2="156"/><!--class Map--><rect fill="#FEFECE" filter="url(#faxz83b43j1z1)" height="48" id="Map" style="stroke: #A80036; stroke-width: 1.5;" width="86" x="210" y="116"/><ellipse cx="225" cy="132" fill="#B4A7E5" rx="11" ry="11" style="stroke: #A80036; stroke-width: 1.0;"/><path d="M220.9219,127.7656 L220.9219,125.6094 L228.3125,125.6094 L228.3125,127.7656 L225.8438,127.7656 L225.8438,135.8438 L228.3125,135.8438 L228.3125,138 L220.9219,138 L220.9219,135.8438 L223.3906,135.8438 L223.3906,127.7656 L220.9219,127.7656 Z "/><text fill="#000000" font-family="sans-serif" font-size="12" font-style="italic" lengthAdjust="spacingAndGlyphs" textLength="26" x="239" y="136.1543">Map</text><rect fill="#FFFFFF" height="15.9688" style="stroke: #000000; stroke-width: 1.0; stroke-dasharray: 2.0,2.0;" width="26" x="273" y="113"/><text fill="#000000" font-family="sans-serif" font-size="12" font-style="italic" lengthAdjust="spacingAndGlyphs" textLength="24" x="274" y="125.1387">K, V</text><line style="stroke: #A80036; stroke-width: 1.5;" x1="211" x2="295" y1="148" y2="148"/><line style="stroke: #A80036; stroke-width: 1.5;" x1="211" x2="295" y1="156" y2="156"/><!--link Iterable to Seq--><path d="M105.6716,70.753 C91.2463,85.744 75.1094,102.5138 62.4415,115.6784 " fill="none" id="Iterable-Seq" style="stroke: #A80036; stroke-width: 1.0;"/><polygon fill="none" points="100.9559,65.5582,119.868,56,111.044,75.2656,100.9559,65.5582" style="stroke: #A80036; stroke-width: 1.0;"/><!--link Iterable to Set--><path d="M142,76.0236 C142,89.5792 142,104.0381 142,115.6784 " fill="none" id="Iterable-Set" style="stroke: #A80036; stroke-width: 1.0;"/><polygon fill="none" points="135,76.0005,142,56,149,76.0004,135,76.0005" style="stroke: #A80036; stroke-width: 1.0;"/><!--link Iterable to Map--><path d="M181.039,70.2802 C196.862,85.3905 214.648,102.3752 228.578,115.6784 " fill="none" id="Iterable-Map" style="stroke: #A80036; stroke-width: 1.0;"/><polygon fill="none" points="175.715,74.8755,166.085,56,185.384,64.7506,175.715,74.8755" style="stroke: #A80036; stroke-width: 1.0;"/><!--
@startuml
interface Iterable<A>
interface Seq<A>
interface Set<A>
interface Map<K, V>
Iterable <|- - Seq
Iterable <|- - Set
Iterable <|- - Map
@enduml

PlantUML version 1.2017.12(Wed Apr 26 18:06:36 CEST 2017)
(GPL source distribution)
Java Runtime: OpenJDK Runtime Environment
JVM: OpenJDK 64-Bit Server VM
Java Version: 1.8.0_131-8u131-b11-0ubuntu1.16.04.2-b11
Operating System: Linux
OS Version: 4.4.0-78-generic
Default Encoding: UTF-8
Language: en
Country: US
--></g></svg>