<svg version="1.1" viewBox="0.0 0.0 847.0 295.0" fill="none" stroke="none" stroke-linecap="square" stroke-miterlimit="10" width="847" height="295" xmlns:xlink="http://www.w3.org/1999/xlink" xmlns="http://www.w3.org/2000/svg"><path fill="#ffffff" d="M0 0L847.0 0L847.0 295.0L0 295.0L0 0Z" fill-rule="nonzero"/><path stroke="#333333" stroke-width="1.0" stroke-linecap="butt" d="M78.5 223.5L832.5 223.5" fill-rule="nonzero"/><path stroke="#cccccc" stroke-width="1.0" stroke-linecap="butt" d="M78.5 194.5L832.5 194.5" fill-rule="nonzero"/><path stroke="#cccccc" stroke-width="1.0" stroke-linecap="butt" d="M78.5 165.5L832.5 165.5" fill-rule="nonzero"/><path stroke="#cccccc" stroke-width="1.0" stroke-linecap="butt" d="M78.5 136.5L832.5 136.5" fill-rule="nonzero"/><path stroke="#cccccc" stroke-width="1.0" stroke-linecap="butt" d="M78.5 108.5L832.5 108.5" fill-rule="nonzero"/><path stroke="#cccccc" stroke-width="1.0" stroke-linecap="butt" d="M78.5 79.5L832.5 79.5" fill-rule="nonzero"/><clipPath id="id_0"><path d="M78.75 79.416664L832.25 79.416664L832.25 223.25L78.75 223.25L78.75 79.416664Z" clip-rule="nonzero"/></clipPath><path stroke="#000000" stroke-width="2.0" stroke-linecap="butt" stroke-opacity="0.0" clip-path="url(#id_0)" d="M98.0 223.0L90.0 223.0L90.0 162.0C90.0 160.89543 90.89543 160.0 92.0 160.0L96.0 160.0C97.10457 160.0 98.0 160.89543 98.0 162.0Z" fill-rule="nonzero"/><path fill="#ff9900" clip-path="url(#id_0)" d="M98.0 223.0L90.0 223.0L90.0 162.0C90.0 160.89543 90.89543 160.0 92.0 160.0L96.0 160.0C97.10457 160.0 98.0 160.89543 98.0 162.0Z" fill-rule="nonzero"/><path stroke="#000000" stroke-width="2.0" stroke-linecap="butt" stroke-opacity="0.0" clip-path="url(#id_0)" d="M128.0 223.0L120.0 223.0L120.0 162.0C120.0 160.89543 120.89543 160.0 122.0 160.0L126.0 160.0C127.10457 160.0 128.0 160.89543 128.0 162.0Z" fill-rule="nonzero"/><path fill="#ff9900" clip-path="url(#id_0)" d="M128.0 223.0L120.0 223.0L120.0 162.0C120.0 160.89543 120.89543 160.0 122.0 160.0L126.0 160.0C127.10457 160.0 128.0 160.89543 128.0 162.0Z" fill-rule="nonzero"/><path stroke="#000000" stroke-width="2.0" stroke-linecap="butt" stroke-opacity="0.0" clip-path="url(#id_0)" d="M157.0 223.0L149.0 223.0L149.0 168.0C149.0 166.89543 149.89543 166.0 151.0 166.0L155.0 166.0C156.10457 166.0 157.0 166.89543 157.0 168.0Z" fill-rule="nonzero"/><path fill="#ff9900" clip-path="url(#id_0)" d="M157.0 223.0L149.0 223.0L149.0 168.0C149.0 166.89543 149.89543 166.0 151.0 166.0L155.0 166.0C156.10457 166.0 157.0 166.89543 157.0 168.0Z" fill-rule="nonzero"/><path stroke="#000000" stroke-width="2.0" stroke-linecap="butt" stroke-opacity="0.0" clip-path="url(#id_0)" d="M187.0 223.0L179.0 223.0L179.0 168.0C179.0 166.89543 179.89543 166.0 181.0 166.0L185.0 166.0C186.10457 166.0 187.0 166.89543 187.0 168.0Z" fill-rule="nonzero"/><path fill="#ff9900" clip-path="url(#id_0)" d="M187.0 223.0L179.0 223.0L179.0 168.0C179.0 166.89543 179.89543 166.0 181.0 166.0L185.0 166.0C186.10457 166.0 187.0 166.89543 187.0 168.0Z" fill-rule="nonzero"/><path stroke="#000000" stroke-width="2.0" stroke-linecap="butt" stroke-opacity="0.0" clip-path="url(#id_0)" d="M217.0 223.0L209.0 223.0L209.0 162.0C209.0 160.89543 209.89543 160.0 211.0 160.0L215.0 160.0C216.10457 160.0 217.0 160.89543 217.0 162.0Z" fill-rule="nonzero"/><path fill="#ff9900" clip-path="url(#id_0)" d="M217.0 223.0L209.0 223.0L209.0 162.0C209.0 160.89543 209.89543 160.0 211.0 160.0L215.0 160.0C216.10457 160.0 217.0 160.89543 217.0 162.0Z" fill-rule="nonzero"/><path stroke="#000000" stroke-width="2.0" stroke-linecap="butt" stroke-opacity="0.0" clip-path="url(#id_0)" d="M246.0 223.0L238.0 223.0L238.0 162.0C238.0 160.89543 238.89543 160.0 240.0 160.0L244.0 160.0C245.10457 160.0 246.0 160.89543 246.0 162.0Z" fill-rule="nonzero"/><path fill="#ff9900" clip-path="url(#id_0)" d="M246.0 223.0L238.0 223.0L238.0 162.0C238.0 160.89543 238.89543 160.0 240.0 160.0L244.0 160.0C245.10457 160.0 246.0 160.89543 246.0 162.0Z" fill-rule="nonzero"/><path stroke="#000000" stroke-width="2.0" stroke-linecap="butt" stroke-opacity="0.0" clip-path="url(#id_0)" d="M276.0 223.0L268.0 223.0L268.0 168.0C268.0 166.89543 268.89542 166.0 270.0 166.0L274.0 166.0C275.10458 166.0 276.0 166.89543 276.0 168.0Z" fill-rule="nonzero"/><path fill="#ff9900" clip-path="url(#id_0)" d="M276.0 223.0L268.0 223.0L268.0 168.0C268.0 166.89543 268.89542 166.0 270.0 166.0L274.0 166.0C275.10458 166.0 276.0 166.89543 276.0 168.0Z" fill-rule="nonzero"/><path stroke="#000000" stroke-width="2.0" stroke-linecap="butt" stroke-opacity="0.0" clip-path="url(#id_0)" d="M306.0 223.0L298.0 223.0L298.0 179.0C298.0 177.89543 298.89542 177.0 300.0 177.0L304.0 177.0C305.10458 177.0 306.0 177.89543 306.0 179.0Z" fill-rule="nonzero"/><path fill="#ff9900" clip-path="url(#id_0)" d="M306.0 223.0L298.0 223.0L298.0 179.0C298.0 177.89543 298.89542 177.0 300.0 177.0L304.0 177.0C305.10458 177.0 306.0 177.89543 306.0 179.0Z" fill-rule="nonzero"/><path stroke="#000000" stroke-width="2.0" stroke-linecap="butt" stroke-opacity="0.0" clip-path="url(#id_0)" d="M336.0 223.0L328.0 223.0L328.0 156.0C328.0 154.89543 328.89542 154.0 330.0 154.0L334.0 154.0C335.10458 154.0 336.0 154.89543 336.0 156.0Z" fill-rule="nonzero"/><path fill="#ff9900" clip-path="url(#id_0)" d="M336.0 223.0L328.0 223.0L328.0 156.0C328.0 154.89543 328.89542 154.0 330.0 154.0L334.0 154.0C335.10458 154.0 336.0 154.89543 336.0 156.0Z" fill-rule="nonzero"/><path stroke="#000000" stroke-width="2.0" stroke-linecap="butt" stroke-opacity="0.0" clip-path="url(#id_0)" d="M365.0 223.0L357.0 223.0L357.0 173.0C357.0 171.89543 357.89542 171.0 359.0 171.0L363.0 171.0C364.10458 171.0 365.0 171.89543 365.0 173.0Z" fill-rule="nonzero"/><path fill="#ff9900" clip-path="url(#id_0)" d="M365.0 223.0L357.0 223.0L357.0 173.0C357.0 171.89543 357.89542 171.0 359.0 171.0L363.0 171.0C364.10458 171.0 365.0 171.89543 365.0 173.0Z" fill-rule="nonzero"/><path stroke="#000000" stroke-width="2.0" stroke-linecap="butt" stroke-opacity="0.0" clip-path="url(#id_0)" d="M395.0 223.0L387.0 223.0L387.0 173.0C387.0 171.89543 387.89542 171.0 389.0 171.0L393.0 171.0C394.10458 171.0 395.0 171.89543 395.0 173.0Z" fill-rule="nonzero"/><path fill="#ff9900" clip-path="url(#id_0)" d="M395.0 223.0L387.0 223.0L387.0 173.0C387.0 171.89543 387.89542 171.0 389.0 171.0L393.0 171.0C394.10458 171.0 395.0 171.89543 395.0 173.0Z" fill-rule="nonzero"/><path stroke="#000000" stroke-width="2.0" stroke-linecap="butt" stroke-opacity="0.0" clip-path="url(#id_0)" d="M425.0 223.0L417.0 223.0L417.0 191.0C417.0 189.89543 417.89542 189.0 419.0 189.0L423.0 189.0C424.10458 189.0 425.0 189.89543 425.0 191.0Z" fill-rule="nonzero"/><path fill="#ff9900" clip-path="url(#id_0)" d="M425.0 223.0L417.0 223.0L417.0 191.0C417.0 189.89543 417.89542 189.0 419.0 189.0L423.0 189.0C424.10458 189.0 425.0 189.89543 425.0 191.0Z" fill-rule="nonzero"/><path stroke="#000000" stroke-width="2.0" stroke-linecap="butt" stroke-opacity="0.0" clip-path="url(#id_0)" d="M455.0 223.0L447.0 223.0L447.0 196.0C447.0 194.89543 447.89542 194.0 449.0 194.0L453.0 194.0C454.10458 194.0 455.0 194.89543 455.0 196.0Z" fill-rule="nonzero"/><path fill="#ff9900" clip-path="url(#id_0)" d="M455.0 223.0L447.0 223.0L447.0 196.0C447.0 194.89543 447.89542 194.0 449.0 194.0L453.0 194.0C454.10458 194.0 455.0 194.89543 455.0 196.0Z" fill-rule="nonzero"/><path stroke="#000000" stroke-width="2.0" stroke-linecap="butt" stroke-opacity="0.0" clip-path="url(#id_0)" d="M484.0 223.0L476.0 223.0L476.0 202.0C476.0 200.89543 476.89542 200.0 478.0 200.0L482.0 200.0C483.10458 200.0 484.0 200.89543 484.0 202.0Z" fill-rule="nonzero"/><path fill="#ff9900" clip-path="url(#id_0)" d="M484.0 223.0L476.0 223.0L476.0 202.0C476.0 200.89543 476.89542 200.0 478.0 200.0L482.0 200.0C483.10458 200.0 484.0 200.89543 484.0 202.0Z" fill-rule="nonzero"/><path stroke="#000000" stroke-width="2.0" stroke-linecap="butt" stroke-opacity="0.0" clip-path="url(#id_0)" d="M514.0 223.0L506.0 223.0L506.0 202.0C506.0 200.89543 506.89542 200.0 508.0 200.0L512.0 200.0C513.10455 200.0 514.0 200.89543 514.0 202.0Z" fill-rule="nonzero"/><path fill="#ff9900" clip-path="url(#id_0)" d="M514.0 223.0L506.0 223.0L506.0 202.0C506.0 200.89543 506.89542 200.0 508.0 200.0L512.0 200.0C513.10455 200.0 514.0 200.89543 514.0 202.0Z" fill-rule="nonzero"/><path stroke="#000000" stroke-width="2.0" stroke-linecap="butt" stroke-opacity="0.0" clip-path="url(#id_0)" d="M544.0 223.0L536.0 223.0L536.0 202.0C536.0 200.89543 536.89545 200.0 538.0 200.0L542.0 200.0C543.10455 200.0 544.0 200.89543 544.0 202.0Z" fill-rule="nonzero"/><path fill="#ff9900" clip-path="url(#id_0)" d="M544.0 223.0L536.0 223.0L536.0 202.0C536.0 200.89543 536.89545 200.0 538.0 200.0L542.0 200.0C543.10455 200.0 544.0 200.89543 544.0 202.0Z" fill-rule="nonzero"/><path stroke="#000000" stroke-width="2.0" stroke-linecap="butt" stroke-opacity="0.0" clip-path="url(#id_0)" d="M573.0 223.0L565.0 223.0L565.0 208.0C565.0 206.89543 565.89545 206.0 567.0 206.0L571.0 206.0C572.10455 206.0 573.0 206.89543 573.0 208.0Z" fill-rule="nonzero"/><path fill="#ff9900" clip-path="url(#id_0)" d="M573.0 223.0L565.0 223.0L565.0 208.0C565.0 206.89543 565.89545 206.0 567.0 206.0L571.0 206.0C572.10455 206.0 573.0 206.89543 573.0 208.0Z" fill-rule="nonzero"/><path stroke="#000000" stroke-width="2.0" stroke-linecap="butt" stroke-opacity="0.0" clip-path="url(#id_0)" d="M603.0 223.0L595.0 223.0L595.0 208.0C595.0 206.89543 595.89545 206.0 597.0 206.0L601.0 206.0C602.10455 206.0 603.0 206.89543 603.0 208.0Z" fill-rule="nonzero"/><path fill="#ff9900" clip-path="url(#id_0)" d="M603.0 223.0L595.0 223.0L595.0 208.0C595.0 206.89543 595.89545 206.0 597.0 206.0L601.0 206.0C602.10455 206.0 603.0 206.89543 603.0 208.0Z" fill-rule="nonzero"/><path stroke="#000000" stroke-width="2.0" stroke-linecap="butt" stroke-opacity="0.0" clip-path="url(#id_0)" d="M633.0 223.0L625.0 223.0L625.0 208.0C625.0 206.89543 625.89545 206.0 627.0 206.0L631.0 206.0C632.10455 206.0 633.0 206.89543 633.0 208.0Z" fill-rule="nonzero"/><path fill="#ff9900" clip-path="url(#id_0)" d="M633.0 223.0L625.0 223.0L625.0 208.0C625.0 206.89543 625.89545 206.0 627.0 206.0L631.0 206.0C632.10455 206.0 633.0 206.89543 633.0 208.0Z" fill-rule="nonzero"/><path stroke="#000000" stroke-width="2.0" stroke-linecap="butt" stroke-opacity="0.0" clip-path="url(#id_0)" d="M663.0 223.0L655.0 223.0L655.0 208.0C655.0 206.89543 655.89545 206.0 657.0 206.0L661.0 206.0C662.10455 206.0 663.0 206.89543 663.0 208.0Z" fill-rule="nonzero"/><path fill="#ff9900" clip-path="url(#id_0)" d="M663.0 223.0L655.0 223.0L655.0 208.0C655.0 206.89543 655.89545 206.0 657.0 206.0L661.0 206.0C662.10455 206.0 663.0 206.89543 663.0 208.0Z" fill-rule="nonzero"/><path stroke="#000000" stroke-width="2.0" stroke-linecap="butt" stroke-opacity="0.0" clip-path="url(#id_0)" d="M692.0 223.0L684.0 223.0L684.0 202.0C684.0 200.89543 684.89545 200.0 686.0 200.0L690.0 200.0C691.10455 200.0 692.0 200.89543 692.0 202.0Z" fill-rule="nonzero"/><path fill="#ff9900" clip-path="url(#id_0)" d="M692.0 223.0L684.0 223.0L684.0 202.0C684.0 200.89543 684.89545 200.0 686.0 200.0L690.0 200.0C691.10455 200.0 692.0 200.89543 692.0 202.0Z" fill-rule="nonzero"/><path stroke="#000000" stroke-width="2.0" stroke-linecap="butt" stroke-opacity="0.0" clip-path="url(#id_0)" d="M722.0 223.0L714.0 223.0L714.0 208.0C714.0 206.89543 714.89545 206.0 716.0 206.0L720.0 206.0C721.10455 206.0 722.0 206.89543 722.0 208.0Z" fill-rule="nonzero"/><path fill="#ff9900" clip-path="url(#id_0)" d="M722.0 223.0L714.0 223.0L714.0 208.0C714.0 206.89543 714.89545 206.0 716.0 206.0L720.0 206.0C721.10455 206.0 722.0 206.89543 722.0 208.0Z" fill-rule="nonzero"/><path stroke="#000000" stroke-width="2.0" stroke-linecap="butt" stroke-opacity="0.0" clip-path="url(#id_0)" d="M752.0 223.0L744.0 223.0L744.0 208.0C744.0 206.89543 744.89545 206.0 746.0 206.0L750.0 206.0C751.10455 206.0 752.0 206.89543 752.0 208.0Z" fill-rule="nonzero"/><path fill="#ff9900" clip-path="url(#id_0)" d="M752.0 223.0L744.0 223.0L744.0 208.0C744.0 206.89543 744.89545 206.0 746.0 206.0L750.0 206.0C751.10455 206.0 752.0 206.89543 752.0 208.0Z" fill-rule="nonzero"/><path stroke="#000000" stroke-width="2.0" stroke-linecap="butt" stroke-opacity="0.0" clip-path="url(#id_0)" d="M781.0 223.0L773.0 223.0L773.0 202.0C773.0 200.89543 773.89545 200.0 775.0 200.0L779.0 200.0C780.10455 200.0 781.0 200.89543 781.0 202.0Z" fill-rule="nonzero"/><path fill="#ff9900" clip-path="url(#id_0)" d="M781.0 223.0L773.0 223.0L773.0 202.0C773.0 200.89543 773.89545 200.0 775.0 200.0L779.0 200.0C780.10455 200.0 781.0 200.89543 781.0 202.0Z" fill-rule="nonzero"/><path stroke="#000000" stroke-width="2.0" stroke-linecap="butt" stroke-opacity="0.0" clip-path="url(#id_0)" d="M811.0 223.0L803.0 223.0L803.0 208.0C803.0 206.89543 803.89545 206.0 805.0 206.0L809.0 206.0C810.10455 206.0 811.0 206.89543 811.0 208.0Z" fill-rule="nonzero"/><path fill="#ff9900" clip-path="url(#id_0)" d="M811.0 223.0L803.0 223.0L803.0 208.0C803.0 206.89543 803.89545 206.0 805.0 206.0L809.0 206.0C810.10455 206.0 811.0 206.89543 811.0 208.0Z" fill-rule="nonzero"/><path stroke="#000000" stroke-width="2.0" stroke-linecap="butt" stroke-opacity="0.0" clip-path="url(#id_0)" d="M108.0 223.0L100.0 223.0L100.0 104.0C100.0 102.89543 100.89543 102.0 102.0 102.0L106.0 102.0C107.10457 102.0 108.0 102.89543 108.0 104.0Z" fill-rule="nonzero"/><path fill="#6fa8dc" clip-path="url(#id_0)" d="M108.0 223.0L100.0 223.0L100.0 104.0C100.0 102.89543 100.89543 102.0 102.0 102.0L106.0 102.0C107.10457 102.0 108.0 102.89543 108.0 104.0Z" fill-rule="nonzero"/><path stroke="#000000" stroke-width="2.0" stroke-linecap="butt" stroke-opacity="0.0" clip-path="url(#id_0)" d="M138.0 223.0L130.0 223.0L130.0 99.0C130.0 97.89543 130.89543 97.0 132.0 97.0L136.0 97.0C137.10457 97.0 138.0 97.89543 138.0 99.0Z" fill-rule="nonzero"/><path fill="#6fa8dc" clip-path="url(#id_0)" d="M138.0 223.0L130.0 223.0L130.0 99.0C130.0 97.89543 130.89543 97.0 132.0 97.0L136.0 97.0C137.10457 97.0 138.0 97.89543 138.0 99.0Z" fill-rule="nonzero"/><path stroke="#000000" stroke-width="2.0" stroke-linecap="butt" stroke-opacity="0.0" clip-path="url(#id_0)" d="M167.0 223.0L159.0 223.0L159.0 99.0C159.0 97.89543 159.89543 97.0 161.0 97.0L165.0 97.0C166.10457 97.0 167.0 97.89543 167.0 99.0Z" fill-rule="nonzero"/><path fill="#6fa8dc" clip-path="url(#id_0)" d="M167.0 223.0L159.0 223.0L159.0 99.0C159.0 97.89543 159.89543 97.0 161.0 97.0L165.0 97.0C166.10457 97.0 167.0 97.89543 167.0 99.0Z" fill-rule="nonzero"/><path stroke="#000000" stroke-width="2.0" stroke-linecap="butt" stroke-opacity="0.0" clip-path="url(#id_0)" d="M197.0 223.0L189.0 223.0L189.0 93.0C189.0 91.89543 189.89543 91.0 191.0 91.0L195.0 91.0C196.10457 91.0 197.0 91.89543 197.0 93.0Z" fill-rule="nonzero"/><path fill="#6fa8dc" clip-path="url(#id_0)" d="M197.0 223.0L189.0 223.0L189.0 93.0C189.0 91.89543 189.89543 91.0 191.0 91.0L195.0 91.0C196.10457 91.0 197.0 91.89543 197.0 93.0Z" fill-rule="nonzero"/><path stroke="#000000" stroke-width="2.0" stroke-linecap="butt" stroke-opacity="0.0" clip-path="url(#id_0)" d="M227.0 223.0L219.0 223.0L219.0 133.0C219.0 131.89543 219.89543 131.0 221.0 131.0L225.0 131.0C226.10457 131.0 227.0 131.89543 227.0 133.0Z" fill-rule="nonzero"/><path fill="#6fa8dc" clip-path="url(#id_0)" d="M227.0 223.0L219.0 223.0L219.0 133.0C219.0 131.89543 219.89543 131.0 221.0 131.0L225.0 131.0C226.10457 131.0 227.0 131.89543 227.0 133.0Z" fill-rule="nonzero"/><path stroke="#000000" stroke-width="2.0" stroke-linecap="butt" stroke-opacity="0.0" clip-path="url(#id_0)" d="M256.0 223.0L248.0 223.0L248.0 150.0C248.0 148.89543 248.89543 148.0 250.0 148.0L254.0 148.0C255.10457 148.0 256.0 148.89543 256.0 150.0Z" fill-rule="nonzero"/><path fill="#6fa8dc" clip-path="url(#id_0)" d="M256.0 223.0L248.0 223.0L248.0 150.0C248.0 148.89543 248.89543 148.0 250.0 148.0L254.0 148.0C255.10457 148.0 256.0 148.89543 256.0 150.0Z" fill-rule="nonzero"/><path stroke="#000000" stroke-width="2.0" stroke-linecap="butt" stroke-opacity="0.0" clip-path="url(#id_0)" d="M286.0 223.0L278.0 223.0L278.0 139.0C278.0 137.89543 278.89542 137.0 280.0 137.0L284.0 137.0C285.10458 137.0 286.0 137.89543 286.0 139.0Z" fill-rule="nonzero"/><path fill="#6fa8dc" clip-path="url(#id_0)" d="M286.0 223.0L278.0 223.0L278.0 139.0C278.0 137.89543 278.89542 137.0 280.0 137.0L284.0 137.0C285.10458 137.0 286.0 137.89543 286.0 139.0Z" fill-rule="nonzero"/><path stroke="#000000" stroke-width="2.0" stroke-linecap="butt" stroke-opacity="0.0" clip-path="url(#id_0)" d="M316.0 223.0L308.0 223.0L308.0 156.0C308.0 154.89543 308.89542 154.0 310.0 154.0L314.0 154.0C315.10458 154.0 316.0 154.89543 316.0 156.0Z" fill-rule="nonzero"/><path fill="#6fa8dc" clip-path="url(#id_0)" d="M316.0 223.0L308.0 223.0L308.0 156.0C308.0 154.89543 308.89542 154.0 310.0 154.0L314.0 154.0C315.10458 154.0 316.0 154.89543 316.0 156.0Z" fill-rule="nonzero"/><path stroke="#000000" stroke-width="2.0" stroke-linecap="butt" stroke-opacity="0.0" clip-path="url(#id_0)" d="M346.0 223.0L338.0 223.0L338.0 156.0C338.0 154.89543 338.89542 154.0 340.0 154.0L344.0 154.0C345.10458 154.0 346.0 154.89543 346.0 156.0Z" fill-rule="nonzero"/><path fill="#6fa8dc" clip-path="url(#id_0)" d="M346.0 223.0L338.0 223.0L338.0 156.0C338.0 154.89543 338.89542 154.0 340.0 154.0L344.0 154.0C345.10458 154.0 346.0 154.89543 346.0 156.0Z" fill-rule="nonzero"/><path stroke="#000000" stroke-width="2.0" stroke-linecap="butt" stroke-opacity="0.0" clip-path="url(#id_0)" d="M375.0 223.0L367.0 223.0L367.0 173.0C367.0 171.89543 367.89542 171.0 369.0 171.0L373.0 171.0C374.10458 171.0 375.0 171.89543 375.0 173.0Z" fill-rule="nonzero"/><path fill="#6fa8dc" clip-path="url(#id_0)" d="M375.0 223.0L367.0 223.0L367.0 173.0C367.0 171.89543 367.89542 171.0 369.0 171.0L373.0 171.0C374.10458 171.0 375.0 171.89543 375.0 173.0Z" fill-rule="nonzero"/><path stroke="#000000" stroke-width="2.0" stroke-linecap="butt" stroke-opacity="0.0" clip-path="url(#id_0)" d="M405.0 223.0L397.0 223.0L397.0 156.0C397.0 154.89543 397.89542 154.0 399.0 154.0L403.0 154.0C404.10458 154.0 405.0 154.89543 405.0 156.0Z" fill-rule="nonzero"/><path fill="#6fa8dc" clip-path="url(#id_0)" d="M405.0 223.0L397.0 223.0L397.0 156.0C397.0 154.89543 397.89542 154.0 399.0 154.0L403.0 154.0C404.10458 154.0 405.0 154.89543 405.0 156.0Z" fill-rule="nonzero"/><path stroke="#000000" stroke-width="2.0" stroke-linecap="butt" stroke-opacity="0.0" clip-path="url(#id_0)" d="M435.0 223.0L427.0 223.0L427.0 179.0C427.0 177.89543 427.89542 177.0 429.0 177.0L433.0 177.0C434.10458 177.0 435.0 177.89543 435.0 179.0Z" fill-rule="nonzero"/><path fill="#6fa8dc" clip-path="url(#id_0)" d="M435.0 223.0L427.0 223.0L427.0 179.0C427.0 177.89543 427.89542 177.0 429.0 177.0L433.0 177.0C434.10458 177.0 435.0 177.89543 435.0 179.0Z" fill-rule="nonzero"/><path stroke="#000000" stroke-width="2.0" stroke-linecap="butt" stroke-opacity="0.0" clip-path="url(#id_0)" d="M465.0 223.0L457.0 223.0L457.0 191.0C457.0 189.89543 457.89542 189.0 459.0 189.0L463.0 189.0C464.10458 189.0 465.0 189.89543 465.0 191.0Z" fill-rule="nonzero"/><path fill="#6fa8dc" clip-path="url(#id_0)" d="M465.0 223.0L457.0 223.0L457.0 191.0C457.0 189.89543 457.89542 189.0 459.0 189.0L463.0 189.0C464.10458 189.0 465.0 189.89543 465.0 191.0Z" fill-rule="nonzero"/><path stroke="#000000" stroke-width="2.0" stroke-linecap="butt" stroke-opacity="0.0" clip-path="url(#id_0)" d="M494.0 223.0L486.0 223.0L486.0 185.0C486.0 183.89543 486.89542 183.0 488.0 183.0L492.0 183.0C493.10458 183.0 494.0 183.89543 494.0 185.0Z" fill-rule="nonzero"/><path fill="#6fa8dc" clip-path="url(#id_0)" d="M494.0 223.0L486.0 223.0L486.0 185.0C486.0 183.89543 486.89542 183.0 488.0 183.0L492.0 183.0C493.10458 183.0 494.0 183.89543 494.0 185.0Z" fill-rule="nonzero"/><path stroke="#000000" stroke-width="2.0" stroke-linecap="butt" stroke-opacity="0.0" clip-path="url(#id_0)" d="M524.0 223.0L516.0 223.0L516.0 185.0C516.0 183.89543 516.89545 183.0 518.0 183.0L522.0 183.0C523.10455 183.0 524.0 183.89543 524.0 185.0Z" fill-rule="nonzero"/><path fill="#6fa8dc" clip-path="url(#id_0)" d="M524.0 223.0L516.0 223.0L516.0 185.0C516.0 183.89543 516.89545 183.0 518.0 183.0L522.0 183.0C523.10455 183.0 524.0 183.89543 524.0 185.0Z" fill-rule="nonzero"/><path stroke="#000000" stroke-width="2.0" stroke-linecap="butt" stroke-opacity="0.0" clip-path="url(#id_0)" d="M554.0 223.0L546.0 223.0L546.0 185.0C546.0 183.89543 546.89545 183.0 548.0 183.0L552.0 183.0C553.10455 183.0 554.0 183.89543 554.0 185.0Z" fill-rule="nonzero"/><path fill="#6fa8dc" clip-path="url(#id_0)" d="M554.0 223.0L546.0 223.0L546.0 185.0C546.0 183.89543 546.89545 183.0 548.0 183.0L552.0 183.0C553.10455 183.0 554.0 183.89543 554.0 185.0Z" fill-rule="nonzero"/><path stroke="#000000" stroke-width="2.0" stroke-linecap="butt" stroke-opacity="0.0" clip-path="url(#id_0)" d="M583.0 223.0L575.0 223.0L575.0 202.0C575.0 200.89543 575.89545 200.0 577.0 200.0L581.0 200.0C582.10455 200.0 583.0 200.89543 583.0 202.0Z" fill-rule="nonzero"/><path fill="#6fa8dc" clip-path="url(#id_0)" d="M583.0 223.0L575.0 223.0L575.0 202.0C575.0 200.89543 575.89545 200.0 577.0 200.0L581.0 200.0C582.10455 200.0 583.0 200.89543 583.0 202.0Z" fill-rule="nonzero"/><path stroke="#000000" stroke-width="2.0" stroke-linecap="butt" stroke-opacity="0.0" clip-path="url(#id_0)" d="M613.0 223.0L605.0 223.0L605.0 196.0C605.0 194.89543 605.89545 194.0 607.0 194.0L611.0 194.0C612.10455 194.0 613.0 194.89543 613.0 196.0Z" fill-rule="nonzero"/><path fill="#6fa8dc" clip-path="url(#id_0)" d="M613.0 223.0L605.0 223.0L605.0 196.0C605.0 194.89543 605.89545 194.0 607.0 194.0L611.0 194.0C612.10455 194.0 613.0 194.89543 613.0 196.0Z" fill-rule="nonzero"/><path stroke="#000000" stroke-width="2.0" stroke-linecap="butt" stroke-opacity="0.0" clip-path="url(#id_0)" d="M643.0 223.0L635.0 223.0L635.0 185.0C635.0 183.89543 635.89545 183.0 637.0 183.0L641.0 183.0C642.10455 183.0 643.0 183.89543 643.0 185.0Z" fill-rule="nonzero"/><path fill="#6fa8dc" clip-path="url(#id_0)" d="M643.0 223.0L635.0 223.0L635.0 185.0C635.0 183.89543 635.89545 183.0 637.0 183.0L641.0 183.0C642.10455 183.0 643.0 183.89543 643.0 185.0Z" fill-rule="nonzero"/><path stroke="#000000" stroke-width="2.0" stroke-linecap="butt" stroke-opacity="0.0" clip-path="url(#id_0)" d="M673.0 223.0L665.0 223.0L665.0 214.0C665.0 212.89543 665.89545 212.0 667.0 212.0L671.0 212.0C672.10455 212.0 673.0 212.89543 673.0 214.0Z" fill-rule="nonzero"/><path fill="#6fa8dc" clip-path="url(#id_0)" d="M673.0 223.0L665.0 223.0L665.0 214.0C665.0 212.89543 665.89545 212.0 667.0 212.0L671.0 212.0C672.10455 212.0 673.0 212.89543 673.0 214.0Z" fill-rule="nonzero"/><path stroke="#000000" stroke-width="2.0" stroke-linecap="butt" stroke-opacity="0.0" clip-path="url(#id_0)" d="M702.0 223.0L694.0 223.0L694.0 219.0C694.0 217.89543 694.89545 217.0 696.0 217.0L700.0 217.0C701.10455 217.0 702.0 217.89543 702.0 219.0Z" fill-rule="nonzero"/><path fill="#6fa8dc" clip-path="url(#id_0)" d="M702.0 223.0L694.0 223.0L694.0 219.0C694.0 217.89543 694.89545 217.0 696.0 217.0L700.0 217.0C701.10455 217.0 702.0 217.89543 702.0 219.0Z" fill-rule="nonzero"/><path stroke="#000000" stroke-width="2.0" stroke-linecap="butt" stroke-opacity="0.0" clip-path="url(#id_0)" d="M732.0 223.0L724.0 223.0L724.0 214.0C724.0 212.89543 724.89545 212.0 726.0 212.0L730.0 212.0C731.10455 212.0 732.0 212.89543 732.0 214.0Z" fill-rule="nonzero"/><path fill="#6fa8dc" clip-path="url(#id_0)" d="M732.0 223.0L724.0 223.0L724.0 214.0C724.0 212.89543 724.89545 212.0 726.0 212.0L730.0 212.0C731.10455 212.0 732.0 212.89543 732.0 214.0Z" fill-rule="nonzero"/><path stroke="#000000" stroke-width="2.0" stroke-linecap="butt" stroke-opacity="0.0" clip-path="url(#id_0)" d="M762.0 223.0L754.0 223.0L754.0 219.0C754.0 217.89543 754.89545 217.0 756.0 217.0L760.0 217.0C761.10455 217.0 762.0 217.89543 762.0 219.0Z" fill-rule="nonzero"/><path fill="#6fa8dc" clip-path="url(#id_0)" d="M762.0 223.0L754.0 223.0L754.0 219.0C754.0 217.89543 754.89545 217.0 756.0 217.0L760.0 217.0C761.10455 217.0 762.0 217.89543 762.0 219.0Z" fill-rule="nonzero"/><path stroke="#000000" stroke-width="2.0" stroke-linecap="butt" stroke-opacity="0.0" clip-path="url(#id_0)" d="M791.0 223.0L783.0 223.0L783.0 219.0C783.0 217.89543 783.89545 217.0 785.0 217.0L789.0 217.0C790.10455 217.0 791.0 217.89543 791.0 219.0Z" fill-rule="nonzero"/><path fill="#6fa8dc" clip-path="url(#id_0)" d="M791.0 223.0L783.0 223.0L783.0 219.0C783.0 217.89543 783.89545 217.0 785.0 217.0L789.0 217.0C790.10455 217.0 791.0 217.89543 791.0 219.0Z" fill-rule="nonzero"/><path stroke="#000000" stroke-width="2.0" stroke-linecap="butt" stroke-opacity="0.0" clip-path="url(#id_0)" d="M821.0 223.0L813.0 223.0L813.0 214.0C813.0 212.89543 813.89545 212.0 815.0 212.0L819.0 212.0C820.10455 212.0 821.0 212.89543 821.0 214.0Z" fill-rule="nonzero"/><path fill="#6fa8dc" clip-path="url(#id_0)" d="M821.0 223.0L813.0 223.0L813.0 214.0C813.0 212.89543 813.89545 212.0 815.0 212.0L819.0 212.0C820.10455 212.0 821.0 212.89543 821.0 214.0Z" fill-rule="nonzero"/><path fill="#000000" d="M414.57812 277.25L414.57812 267.23438L418.03125 267.23438Q419.20312 267.23438 419.8125 267.375Q420.67188 267.5625 421.28125 268.09375Q422.07812 268.76562 422.46875 269.8125Q422.85938 270.84375 422.85938 272.1875Q422.85938 273.32812 422.59375 274.21875Q422.32812 275.09375 421.90625 275.67188Q421.5 276.25 421.0 276.57812Q420.5 276.90625 419.79688 277.07812Q419.10938 277.25 418.20312 277.25L414.57812 277.25ZM415.90625 276.0625L418.04688 276.0625Q419.03125 276.0625 419.59375 275.89062Q420.17188 275.70312 420.5 275.35938Q420.96875 274.89062 421.23438 274.09375Q421.5 273.29688 421.5 272.15625Q421.5 270.59375 420.98438 269.75Q420.46875 268.90625 419.73438 268.60938Q419.1875 268.40625 418.01562 268.40625L415.90625 268.40625L415.90625 276.0625ZM429.15625 276.35938Q428.48438 276.9375 427.84375 277.1875Q427.21875 277.42188 426.48438 277.42188Q425.29688 277.42188 424.64062 276.84375Q424.0 276.25 424.0 275.32812Q424.0 274.79688 424.23438 274.35938Q424.48438 273.92188 424.875 273.65625Q425.28125 273.39062 425.76562 273.25Q426.125 273.15625 426.85938 273.0625Q428.35938 272.89062 429.0625 272.64062Q429.0625 272.39062 429.0625 272.32812Q429.0625 271.5625 428.71875 271.26562Q428.25 270.84375 427.3125 270.84375Q426.45312 270.84375 426.03125 271.15625Q425.625 271.45312 425.42188 272.21875L424.21875 272.0625Q424.375 271.28125 424.75 270.8125Q425.14062 270.34375 425.84375 270.09375Q426.5625 269.82812 427.5 269.82812Q428.42188 269.82812 429.0 270.04688Q429.57812 270.26562 429.84375 270.59375Q430.125 270.92188 430.23438 271.4375Q430.29688 271.75 430.29688 272.5625L430.29688 274.20312Q430.29688 275.92188 430.375 276.375Q430.45312 276.82812 430.6875 277.25L429.40625 277.25Q429.21875 276.85938 429.15625 276.35938ZM429.0625 273.60938Q428.39062 273.875 427.04688 274.07812Q426.29688 274.1875 425.96875 274.32812Q425.65625 274.45312 425.48438 274.71875Q425.3125 274.98438 425.3125 275.29688Q425.3125 275.79688 425.6875 276.125Q426.0625 276.45312 426.78125 276.45312Q427.5 276.45312 428.04688 276.14062Q428.59375 275.82812 428.85938 275.28125Q429.0625 274.875 429.0625 274.0625L429.0625 273.60938ZM432.375 280.04688L432.23438 278.89062Q432.64062 279.0 432.9375 279.0Q433.34375 279.0 433.59375 278.85938Q433.84375 278.73438 434.0 278.48438Q434.10938 278.29688 434.375 277.5625Q434.40625 277.46875 434.48438 277.26562L431.71875 269.98438L433.04688 269.98438L434.5625 274.1875Q434.85938 275.0 435.09375 275.875Q435.29688 275.03125 435.59375 274.21875L437.14062 269.98438L438.375 269.98438L435.60938 277.375Q435.17188 278.5625 434.92188 279.01562Q434.59375 279.625 434.17188 279.90625Q433.75 280.20312 433.15625 280.20312Q432.8125 280.20312 432.375 280.04688ZM442.96875 273.625Q442.96875 271.60938 444.09375 270.625Q445.01562 269.82812 446.375 269.82812Q447.85938 269.82812 448.8125 270.8125Q449.76562 271.78125 449.76562 273.51562Q449.76562 274.92188 449.34375 275.73438Q448.92188 276.53125 448.10938 276.98438Q447.3125 277.42188 446.375 277.42188Q444.84375 277.42188 443.90625 276.4375Q442.96875 275.45312 442.96875 273.625ZM444.23438 273.625Q444.23438 275.01562 444.84375 275.71875Q445.45312 276.40625 446.375 276.40625Q447.28125 276.40625 447.89062 275.70312Q448.5 275.0 448.5 273.57812Q448.5 272.23438 447.89062 271.54688Q447.28125 270.84375 446.375 270.84375Q445.45312 270.84375 444.84375 271.53125Q444.23438 272.21875 444.23438 273.625ZM451.71875 277.25L451.71875 270.95312L450.625 270.95312L450.625 269.98438L451.71875 269.98438L451.71875 269.21875Q451.71875 268.48438 451.84375 268.125Q452.03125 267.65625 452.46875 267.35938Q452.92188 267.0625 453.73438 267.0625Q454.25 267.0625 454.875 267.1875L454.6875 268.25Q454.3125 268.1875 453.96875 268.1875Q453.40625 268.1875 453.17188 268.42188Q452.9375 268.65625 452.9375 269.3125L452.9375 269.98438L454.35938 269.98438L454.35938 270.95312L452.9375 270.95312L452.9375 277.25L451.71875 277.25ZM459.42188 277.25L459.42188 269.98438L460.53125 269.98438L460.53125 271.01562Q460.85938 270.46875 461.42188 270.15625Q462.0 269.82812 462.71875 269.82812Q463.53125 269.82812 464.04688 270.17188Q464.5625 270.5 464.78125 271.09375Q465.64062 269.82812 467.01562 269.82812Q468.09375 269.82812 468.67188 270.42188Q469.26562 271.01562 469.26562 272.26562L469.26562 277.25L468.03125 277.25L468.03125 272.67188Q468.03125 271.9375 467.90625 271.60938Q467.79688 271.28125 467.48438 271.09375Q467.17188 270.89062 466.75 270.89062Q465.98438 270.89062 465.46875 271.40625Q464.96875 271.90625 464.96875 273.03125L464.96875 277.25L463.73438 277.25L463.73438 272.53125Q463.73438 271.71875 463.4375 271.3125Q463.14062 270.89062 462.45312 270.89062Q461.9375 270.89062 461.48438 271.17188Q461.04688 271.4375 460.84375 271.96875Q460.65625 272.48438 460.65625 273.48438L460.65625 277.25L459.42188 277.25ZM469.96875 273.625Q469.96875 271.60938 471.09375 270.625Q472.01562 269.82812 473.375 269.82812Q474.85938 269.82812 475.8125 270.8125Q476.76562 271.78125 476.76562 273.51562Q476.76562 274.92188 476.34375 275.73438Q475.92188 276.53125 475.10938 276.98438Q474.3125 277.42188 473.375 277.42188Q471.84375 277.42188 470.90625 276.4375Q469.96875 275.45312 469.96875 273.625ZM471.23438 273.625Q471.23438 275.01562 471.84375 275.71875Q472.45312 276.40625 473.375 276.40625Q474.28125 276.40625 474.89062 275.70312Q475.5 275.0 475.5 273.57812Q475.5 272.23438 474.89062 271.54688Q474.28125 270.84375 473.375 270.84375Q472.45312 270.84375 471.84375 271.53125Q471.23438 272.21875 471.23438 273.625ZM478.42188 277.25L478.42188 269.98438L479.53125 269.98438L479.53125 271.01562Q480.32812 269.82812 481.84375 269.82812Q482.5 269.82812 483.04688 270.0625Q483.59375 270.29688 483.85938 270.6875Q484.14062 271.0625 484.25 271.59375Q484.32812 271.9375 484.32812 272.78125L484.32812 277.25L483.09375 277.25L483.09375 272.82812Q483.09375 272.07812 482.95312 271.71875Q482.8125 271.34375 482.4375 271.125Q482.07812 270.89062 481.57812 270.89062Q480.79688 270.89062 480.21875 271.39062Q479.65625 271.89062 479.65625 273.28125L479.65625 277.25L478.42188 277.25ZM489.10938 276.15625L489.28125 277.23438Q488.76562 277.34375 488.35938 277.34375Q487.6875 277.34375 487.3125 277.14062Q486.95312 276.92188 486.79688 276.57812Q486.65625 276.23438 486.65625 275.125L486.65625 270.95312L485.75 270.95312L485.75 269.98438L486.65625 269.98438L486.65625 268.1875L487.875 267.45312L487.875 269.98438L489.10938 269.98438L489.10938 270.95312L487.875 270.95312L487.875 275.1875Q487.875 275.71875 487.9375 275.875Q488.0 276.01562 488.14062 276.10938Q488.29688 276.20312 488.5625 276.20312Q488.78125 276.20312 489.10938 276.15625ZM490.42188 277.25L490.42188 267.23438L491.65625 267.23438L491.65625 270.82812Q492.51562 269.82812 493.82812 269.82812Q494.64062 269.82812 495.23438 270.15625Q495.82812 270.46875 496.07812 271.03125Q496.34375 271.57812 496.34375 272.65625L496.34375 277.25L495.10938 277.25L495.10938 272.65625Q495.10938 271.71875 494.70312 271.3125Q494.3125 270.89062 493.57812 270.89062Q493.03125 270.89062 492.54688 271.17188Q492.0625 271.45312 491.85938 271.9375Q491.65625 272.42188 491.65625 273.28125L491.65625 277.25L490.42188 277.25Z" fill-rule="nonzero"/><path fill="#000000" d="M24.53125 202.20833L24.421875 200.95833Q25.171875 200.86458 25.65625 200.53645Q26.140625 200.20833 26.4375 199.53645Q26.734375 198.84895 26.734375 197.98958Q26.734375 197.23958 26.515625 196.66145Q26.28125 196.0677 25.890625 195.78645Q25.5 195.5052 25.03125 195.5052Q24.5625 195.5052 24.21875 195.78645Q23.859375 196.05208 23.609375 196.67708Q23.453125 197.08333 23.125 198.47395Q22.796875 199.84895 22.5 200.39583Q22.125 201.11458 21.578125 201.47395Q21.015625 201.8177 20.3125 201.8177Q19.5625 201.8177 18.90625 201.39583Q18.234375 200.95833 17.90625 200.1302Q17.5625 199.30208 17.5625 198.28645Q17.5625 197.17708 17.921875 196.33333Q18.28125 195.47395 18.984375 195.02083Q19.671875 194.5677 20.546875 194.52083L20.640625 195.80208Q19.703125 195.89583 19.21875 196.48958Q18.71875 197.08333 18.71875 198.23958Q18.71875 199.4427 19.171875 199.98958Q19.609375 200.53645 20.234375 200.53645Q20.765625 200.53645 21.125 200.14583Q21.46875 199.77083 21.84375 198.16145Q22.203125 196.53645 22.46875 195.9427Q22.875 195.0677 23.5 194.64583Q24.109375 194.22395 24.921875 194.22395Q25.71875 194.22395 26.4375 194.6927Q27.140625 195.14583 27.53125 196.0052Q27.921875 196.86458 27.921875 197.92708Q27.921875 199.28645 27.53125 200.20833Q27.125 201.1302 26.328125 201.66145Q25.53125 202.17708 24.53125 202.20833ZM24.125 193.36458Q22.109375 193.36458 21.125 192.23958Q20.328125 191.3177 20.328125 189.95833Q20.328125 188.47395 21.3125 187.52083Q22.28125 186.5677 24.015625 186.5677Q25.421875 186.5677 26.234375 186.98958Q27.03125 187.41145 27.484375 188.22395Q27.921875 189.02083 27.921875 189.95833Q27.921875 191.48958 26.9375 192.42708Q25.953125 193.36458 24.125 193.36458ZM24.125 192.09895Q25.515625 192.09895 26.21875 191.48958Q26.90625 190.8802 26.90625 189.95833Q26.90625 189.05208 26.203125 188.4427Q25.5 187.83333 24.078125 187.83333Q22.734375 187.83333 22.046875 188.4427Q21.34375 189.05208 21.34375 189.95833Q21.34375 190.8802 22.03125 191.48958Q22.71875 192.09895 24.125 192.09895ZM27.75 184.9427L17.734375 184.9427L17.734375 183.70833L27.75 183.70833L27.75 184.9427ZM27.75 177.14583L26.6875 177.14583Q27.921875 178.0052 27.921875 179.45833Q27.921875 180.09895 27.671875 180.66145Q27.421875 181.20833 27.046875 181.48958Q26.671875 181.7552 26.140625 181.86458Q25.78125 181.9427 24.984375 181.9427L20.484375 181.9427L20.484375 180.70833L24.515625 180.70833Q25.484375 180.70833 25.8125 180.6302Q26.296875 180.52083 26.578125 180.14583Q26.859375 179.77083 26.859375 179.20833Q26.859375 178.66145 26.578125 178.17708Q26.28125 177.6927 25.796875 177.48958Q25.3125 177.28645 24.375 177.28645L20.484375 177.28645L20.484375 176.05208L27.75 176.05208L27.75 177.14583ZM26.65625 171.22395L27.734375 171.05208Q27.84375 171.5677 27.84375 171.97395Q27.84375 172.64583 27.640625 173.02083Q27.421875 173.3802 27.078125 173.53645Q26.734375 173.67708 25.625 173.67708L21.453125 173.67708L21.453125 174.58333L20.484375 174.58333L20.484375 173.67708L18.6875 173.67708L17.953125 172.45833L20.484375 172.45833L20.484375 171.22395L21.453125 171.22395L21.453125 172.45833L25.6875 172.45833Q26.21875 172.45833 26.375 172.39583Q26.515625 172.33333 26.609375 172.1927Q26.703125 172.03645 26.703125 171.77083Q26.703125 171.55208 26.65625 171.22395ZM19.140625 169.89583L17.734375 169.89583L17.734375 168.67708L19.140625 168.67708L19.140625 169.89583ZM27.75 169.89583L20.484375 169.89583L20.484375 168.67708L27.75 168.67708L27.75 169.89583ZM24.125 167.36458Q22.109375 167.36458 21.125 166.23958Q20.328125 165.3177 20.328125 163.95833Q20.328125 162.47395 21.3125 161.52083Q22.28125 160.5677 24.015625 160.5677Q25.421875 160.5677 26.234375 160.98958Q27.03125 161.41145 27.484375 162.22395Q27.921875 163.02083 27.921875 163.95833Q27.921875 165.48958 26.9375 166.42708Q25.953125 167.36458 24.125 167.36458ZM24.125 166.09895Q25.515625 166.09895 26.21875 165.48958Q26.90625 164.8802 26.90625 163.95833Q26.90625 163.05208 26.203125 162.4427Q25.5 161.83333 24.078125 161.83333Q22.734375 161.83333 22.046875 162.4427Q21.34375 163.05208 21.34375 163.95833Q21.34375 164.8802 22.03125 165.48958Q22.71875 166.09895 24.125 166.09895ZM27.75 158.91145L20.484375 158.91145L20.484375 157.80208L21.515625 157.80208Q20.328125 157.0052 20.328125 155.48958Q20.328125 154.83333 20.5625 154.28645Q20.796875 153.73958 21.1875 153.47395Q21.5625 153.1927 22.09375 153.08333Q22.4375 153.0052 23.28125 153.0052L27.75 153.0052L27.75 154.23958L23.328125 154.23958Q22.578125 154.23958 22.21875 154.3802Q21.84375 154.52083 21.625 154.89583Q21.390625 155.2552 21.390625 155.7552Q21.390625 156.53645 21.890625 157.11458Q22.390625 157.67708 23.78125 157.67708L27.75 157.67708L27.75 158.91145ZM25.09375 142.17708L25.25 140.95833Q26.5 141.16145 27.21875 141.98958Q27.921875 142.80208 27.921875 143.98958Q27.921875 145.47395 26.953125 146.3802Q25.96875 147.28645 24.140625 147.28645Q22.96875 147.28645 22.09375 146.89583Q21.203125 146.5052 20.765625 145.70833Q20.328125 144.91145 20.328125 143.97395Q20.328125 142.80208 20.921875 142.05208Q21.515625 141.28645 22.625 141.08333L22.8125 142.27083Q22.078125 142.4427 21.71875 142.8802Q21.34375 143.3177 21.34375 143.92708Q21.34375 144.86458 22.015625 145.4427Q22.671875 146.02083 24.109375 146.02083Q25.578125 146.02083 26.25 145.45833Q26.90625 144.89583 26.90625 144.0052Q26.90625 143.27083 26.46875 142.78645Q26.015625 142.30208 25.09375 142.17708ZM24.125 140.36458Q22.109375 140.36458 21.125 139.23958Q20.328125 138.3177 20.328125 136.95833Q20.328125 135.47395 21.3125 134.52083Q22.28125 133.5677 24.015625 133.5677Q25.421875 133.5677 26.234375 133.98958Q27.03125 134.41145 27.484375 135.22395Q27.921875 136.02083 27.921875 136.95833Q27.921875 138.48958 26.9375 139.42708Q25.953125 140.36458 24.125 140.36458ZM24.125 139.09895Q25.515625 139.09895 26.21875 138.48958Q26.90625 137.8802 26.90625 136.95833Q26.90625 136.05208 26.203125 135.4427Q25.5 134.83333 24.078125 134.83333Q22.734375 134.83333 22.046875 135.4427Q21.34375 136.05208 21.34375 136.95833Q21.34375 137.8802 22.03125 138.48958Q22.71875 139.09895 24.125 139.09895ZM27.75 127.14583L26.6875 127.14583Q27.921875 128.0052 27.921875 129.45833Q27.921875 130.09895 27.671875 130.66145Q27.421875 131.20833 27.046875 131.48958Q26.671875 131.7552 26.140625 131.86458Q25.78125 131.9427 24.984375 131.9427L20.484375 131.9427L20.484375 130.70833L24.515625 130.70833Q25.484375 130.70833 25.8125 130.6302Q26.296875 130.52083 26.578125 130.14583Q26.859375 129.77083 26.859375 129.20833Q26.859375 128.66145 26.578125 128.17708Q26.28125 127.6927 25.796875 127.48958Q25.3125 127.28645 24.375 127.28645L20.484375 127.28645L20.484375 126.05208L27.75 126.05208L27.75 127.14583ZM27.75 123.91145L20.484375 123.91145L20.484375 122.80208L21.515625 122.80208Q20.328125 122.0052 20.328125 120.48958Q20.328125 119.83333 20.5625 119.28645Q20.796875 118.73958 21.1875 118.47395Q21.5625 118.1927 22.09375 118.08333Q22.4375 118.0052 23.28125 118.0052L27.75 118.0052L27.75 119.23958L23.328125 119.23958Q22.578125 119.23958 22.21875 119.3802Q21.84375 119.52083 21.625 119.89583Q21.390625 120.2552 21.390625 120.7552Q21.390625 121.53645 21.890625 122.11458Q22.390625 122.67708 23.78125 122.67708L27.75 122.67708L27.75 123.91145ZM26.65625 113.22395L27.734375 113.05208Q27.84375 113.5677 27.84375 113.97395Q27.84375 114.64583 27.640625 115.02083Q27.421875 115.3802 27.078125 115.53645Q26.734375 115.67708 25.625 115.67708L21.453125 115.67708L21.453125 116.58333L20.484375 116.58333L20.484375 115.67708L18.6875 115.67708L17.953125 114.45833L20.484375 114.45833L20.484375 113.22395L21.453125 113.22395L21.453125 114.45833L25.6875 114.45833Q26.21875 114.45833 26.375 114.39583Q26.515625 114.33333 26.609375 114.1927Q26.703125 114.03645 26.703125 113.77083Q26.703125 113.55208 26.65625 113.22395Z" fill-rule="nonzero"/><path fill="#000000" d="M66.25 223.01562Q66.25 221.48438 66.5625 220.5625Q66.875 219.625 67.484375 219.125Q68.109375 218.625 69.046875 218.625Q69.734375 218.625 70.25 218.90625Q70.78125 219.1875 71.125 219.71875Q71.46875 220.23438 71.65625 220.98438Q71.84375 221.73438 71.84375 223.01562Q71.84375 224.53125 71.53125 225.45312Q71.234375 226.375 70.609375 226.89062Q70.0 227.39062 69.046875 227.39062Q67.8125 227.39062 67.09375 226.5Q66.25 225.4375 66.25 223.01562ZM67.328125 223.01562Q67.328125 225.125 67.828125 225.82812Q68.328125 226.53125 69.046875 226.53125Q69.78125 226.53125 70.265625 225.82812Q70.765625 225.125 70.765625 223.01562Q70.765625 220.89062 70.265625 220.20312Q69.78125 219.5 69.03125 219.5Q68.3125 219.5 67.875 220.10938Q67.328125 220.89062 67.328125 223.01562Z" fill-rule="nonzero"/><path fill="#000000" d="M66.25 196.23334L67.359375 196.13959Q67.484375 196.95209 67.921875 197.35834Q68.375 197.76459 69.015625 197.76459Q69.765625 197.76459 70.296875 197.18646Q70.828125 196.60834 70.828125 195.67084Q70.828125 194.76459 70.3125 194.24896Q69.8125 193.71771 68.984375 193.71771Q68.484375 193.71771 68.0625 193.95209Q67.65625 194.18646 67.421875 194.54584L66.4375 194.42084L67.265625 190.01459L71.546875 190.01459L71.546875 191.01459L68.109375 191.01459L67.65625 193.32709Q68.421875 192.78021 69.265625 192.78021Q70.390625 192.78021 71.15625 193.56146Q71.9375 194.34271 71.9375 195.57709Q71.9375 196.73334 71.265625 197.59271Q70.4375 198.62396 69.015625 198.62396Q67.84375 198.62396 67.09375 197.96771Q66.359375 197.31146 66.25 196.23334Z" fill-rule="nonzero"/><path fill="#000000" d="M63.21875 169.71666L62.171875 169.71666L62.171875 162.99791Q61.78125 163.35728 61.15625 163.73228Q60.546875 164.09166 60.0625 164.26353L60.0625 163.24791Q60.9375 162.82603 61.59375 162.24791Q62.265625 161.65416 62.546875 161.09166L63.21875 161.09166L63.21875 169.71666ZM66.25 165.48228Q66.25 163.95103 66.5625 163.02916Q66.875 162.09166 67.484375 161.59166Q68.109375 161.09166 69.046875 161.09166Q69.734375 161.09166 70.25 161.37291Q70.78125 161.65416 71.125 162.18541Q71.46875 162.70103 71.65625 163.45103Q71.84375 164.20103 71.84375 165.48228Q71.84375 166.99791 71.53125 167.91978Q71.234375 168.84166 70.609375 169.35728Q70.0 169.85728 69.046875 169.85728Q67.8125 169.85728 67.09375 168.96666Q66.25 167.90416 66.25 165.48228ZM67.328125 165.48228Q67.328125 167.59166 67.828125 168.29478Q68.328125 168.99791 69.046875 168.99791Q69.78125 168.99791 70.265625 168.29478Q70.765625 167.59166 70.765625 165.48228Q70.765625 163.35728 70.265625 162.66978Q69.78125 161.96666 69.03125 161.96666Q68.3125 161.96666 67.875 162.57603Q67.328125 163.35728 67.328125 165.48228Z" fill-rule="nonzero"/><path fill="#000000" d="M63.21875 140.95L62.171875 140.95L62.171875 134.23125Q61.78125 134.59062 61.15625 134.96562Q60.546875 135.325 60.0625 135.49687L60.0625 134.48125Q60.9375 134.05937 61.59375 133.48125Q62.265625 132.8875 62.546875 132.325L63.21875 132.325L63.21875 140.95ZM66.25 138.7L67.359375 138.60625Q67.484375 139.41875 67.921875 139.825Q68.375 140.23125 69.015625 140.23125Q69.765625 140.23125 70.296875 139.65312Q70.828125 139.075 70.828125 138.1375Q70.828125 137.23125 70.3125 136.71562Q69.8125 136.18437 68.984375 136.18437Q68.484375 136.18437 68.0625 136.41875Q67.65625 136.65312 67.421875 137.0125L66.4375 136.8875L67.265625 132.48125L71.546875 132.48125L71.546875 133.48125L68.109375 133.48125L67.65625 135.79375Q68.421875 135.24687 69.265625 135.24687Q70.390625 135.24687 71.15625 136.02812Q71.9375 136.80937 71.9375 138.04375Q71.9375 139.2 71.265625 140.05937Q70.4375 141.09062 69.015625 141.09062Q67.84375 141.09062 67.09375 140.43437Q66.359375 139.77812 66.25 138.7Z" fill-rule="nonzero"/><path fill="#000000" d="M64.796875 111.16771L64.796875 112.183334L59.109375 112.183334Q59.109375 111.808334 59.234375 111.44896Q59.453125 110.870834 59.921875 110.308334Q60.40625 109.745834 61.3125 109.01146Q62.71875 107.85521 63.203125 107.183334Q63.703125 106.51146 63.703125 105.91771Q63.703125 105.29271 63.25 104.870834Q62.796875 104.433334 62.078125 104.433334Q61.3125 104.433334 60.859375 104.88646Q60.40625 105.339584 60.390625 106.152084L59.3125 106.04271Q59.421875 104.82396 60.140625 104.19896Q60.875 103.558334 62.109375 103.558334Q63.34375 103.558334 64.0625 104.245834Q64.78125 104.933334 64.78125 105.94896Q64.78125 106.464584 64.5625 106.964584Q64.359375 107.44896 63.859375 108.01146Q63.375 108.558334 62.25 109.51146Q61.296875 110.308334 61.015625 110.60521Q60.75 110.88646 60.578125 111.16771L64.796875 111.16771ZM66.25 107.94896Q66.25 106.41771 66.5625 105.495834Q66.875 104.558334 67.484375 104.058334Q68.109375 103.558334 69.046875 103.558334Q69.734375 103.558334 70.25 103.839584Q70.78125 104.120834 71.125 104.652084Q71.46875 105.16771 71.65625 105.91771Q71.84375 106.66771 71.84375 107.94896Q71.84375 109.464584 71.53125 110.38646Q71.234375 111.308334 70.609375 111.82396Q70.0 112.32396 69.046875 112.32396Q67.8125 112.32396 67.09375 111.433334Q66.25 110.370834 66.25 107.94896ZM67.328125 107.94896Q67.328125 110.058334 67.828125 110.76146Q68.328125 111.464584 69.046875 111.464584Q69.78125 111.464584 70.265625 110.76146Q70.765625 110.058334 70.765625 107.94896Q70.765625 105.82396 70.265625 105.13646Q69.78125 104.433334 69.03125 104.433334Q68.3125 104.433334 67.875 105.04271Q67.328125 105.82396 67.328125 107.94896Z" fill-rule="nonzero"/><path fill="#000000" d="M64.796875 82.40104L64.796875 83.416664L59.109375 83.416664Q59.109375 83.041664 59.234375 82.68229Q59.453125 82.104164 59.921875 81.541664Q60.40625 80.979164 61.3125 80.24479Q62.71875 79.08854 63.203125 78.416664Q63.703125 77.74479 63.703125 77.15104Q63.703125 76.52604 63.25 76.104164Q62.796875 75.666664 62.078125 75.666664Q61.3125 75.666664 60.859375 76.11979Q60.40625 76.572914 60.390625 77.385414L59.3125 77.27604Q59.421875 76.05729 60.140625 75.43229Q60.875 74.791664 62.109375 74.791664Q63.34375 74.791664 64.0625 75.479164Q64.78125 76.166664 64.78125 77.18229Q64.78125 77.697914 64.5625 78.197914Q64.359375 78.68229 63.859375 79.24479Q63.375 79.791664 62.25 80.74479Q61.296875 81.541664 61.015625 81.83854Q60.75 82.11979 60.578125 82.40104L64.796875 82.40104ZM66.25 81.166664L67.359375 81.072914Q67.484375 81.885414 67.921875 82.291664Q68.375 82.697914 69.015625 82.697914Q69.765625 82.697914 70.296875 82.11979Q70.828125 81.541664 70.828125 80.604164Q70.828125 79.697914 70.3125 79.18229Q69.8125 78.65104 68.984375 78.65104Q68.484375 78.65104 68.0625 78.885414Q67.65625 79.11979 67.421875 79.479164L66.4375 79.354164L67.265625 74.947914L71.546875 74.947914L71.546875 75.947914L68.109375 75.947914L67.65625 78.260414Q68.421875 77.71354 69.265625 77.71354Q70.390625 77.71354 71.15625 78.49479Q71.9375 79.27604 71.9375 80.510414Q71.9375 81.666664 71.265625 82.52604Q70.4375 83.55729 69.015625 83.55729Q67.84375 83.55729 67.09375 82.90104Q66.359375 82.24479 66.25 81.166664Z" fill-rule="nonzero"/><path fill="#000000" d="M99.78236 240.25L98.73548 240.25L98.73548 233.53125Q98.34486 233.89062 97.71986 234.26562Q97.11048 234.625 96.62611 234.79688L96.62611 233.78125Q97.50111 233.35938 98.15736 232.78125Q98.82923 232.1875 99.11048 231.625L99.78236 231.625L99.78236 240.25Z" fill-rule="nonzero"/><path fill="#000000" d="M131.08435 239.23438L131.08435 240.25L125.39685 240.25Q125.39685 239.875 125.52185 239.51562Q125.7406 238.9375 126.20935 238.375Q126.693726 237.8125 127.599976 237.07812Q129.00623 235.92188 129.4906 235.25Q129.9906 234.57812 129.9906 233.98438Q129.9906 233.35938 129.53748 232.9375Q129.08435 232.5 128.3656 232.5Q127.599976 232.5 127.14685 232.95312Q126.693726 233.40625 126.6781 234.21875L125.599976 234.10938Q125.70935 232.89062 126.4281 232.26562Q127.162476 231.625 128.39685 231.625Q129.63123 231.625 130.34998 232.3125Q131.06873 233.0 131.06873 234.01562Q131.06873 234.53125 130.84998 235.03125Q130.64685 235.51562 130.14685 236.07812Q129.66248 236.625 128.53748 237.57812Q127.58435 238.375 127.3031 238.67188Q127.037476 238.95312 126.8656 239.23438L131.08435 239.23438Z" fill-rule="nonzero"/><path fill="#000000" d="M155.26134 237.98438L156.32384 237.84375Q156.49571 238.73438 156.93321 239.14062Q157.37071 239.53125 157.99571 239.53125Q158.74571 239.53125 159.26134 239.01562Q159.77696 238.5 159.77696 237.73438Q159.77696 237.01562 159.29259 236.54688Q158.82384 236.0625 158.08946 236.0625Q157.79259 236.0625 157.33946 236.1875L157.46446 235.25Q157.57384 235.26562 157.63634 235.26562Q158.30821 235.26562 158.83946 234.92188Q159.38634 234.5625 159.38634 233.82812Q159.38634 233.25 158.99571 232.875Q158.60509 232.48438 157.98009 232.48438Q157.37071 232.48438 156.94884 232.875Q156.54259 233.26562 156.43321 234.03125L155.37071 233.84375Q155.55821 232.79688 156.24571 232.21875Q156.93321 231.625 157.94884 231.625Q158.65196 231.625 159.24571 231.9375Q159.83946 232.23438 160.15196 232.75Q160.46446 233.26562 160.46446 233.85938Q160.46446 234.40625 160.16759 234.875Q159.87071 235.32812 159.29259 235.59375Q160.04259 235.76562 160.46446 236.32812Q160.88634 236.875 160.88634 237.71875Q160.88634 238.84375 160.05821 239.625Q159.24571 240.40625 157.99571 240.40625Q156.87071 240.40625 156.12071 239.73438Q155.37071 239.04688 155.26134 237.98438Z" fill-rule="nonzero"/><path fill="#000000" d="M188.36021 240.25L188.36021 238.1875L184.64146 238.1875L184.64146 237.21875L188.56334 231.65625L189.42271 231.65625L189.42271 237.21875L190.57896 237.21875L190.57896 238.1875L189.42271 238.1875L189.42271 240.25L188.36021 240.25ZM188.36021 237.21875L188.36021 233.35938L185.67271 237.21875L188.36021 237.21875Z" fill-rule="nonzero"/><path fill="#000000" d="M214.70908 238.0L215.81845 237.90625Q215.94345 238.71875 216.38095 239.125Q216.83408 239.53125 217.4747 239.53125Q218.2247 239.53125 218.75595 238.95312Q219.2872 238.375 219.2872 237.4375Q219.2872 236.53125 218.77158 236.01562Q218.27158 235.48438 217.44345 235.48438Q216.94345 235.48438 216.52158 235.71875Q216.11533 235.95312 215.88095 236.3125L214.89658 236.1875L215.7247 231.78125L220.00595 231.78125L220.00595 232.78125L216.56845 232.78125L216.11533 235.09375Q216.88095 234.54688 217.7247 234.54688Q218.8497 234.54688 219.61533 235.32812Q220.39658 236.10938 220.39658 237.34375Q220.39658 238.5 219.7247 239.35938Q218.89658 240.39062 217.4747 240.39062Q216.30283 240.39062 215.55283 239.73438Q214.81845 239.07812 214.70908 238.0Z" fill-rule="nonzero"/><path fill="#000000" d="M249.90169 233.76562L248.85481 233.84375Q248.71419 233.21875 248.46419 232.9375Q248.02669 232.48438 247.40169 232.48438Q246.90169 232.48438 246.51106 232.76562Q246.02669 233.14062 245.72981 233.84375Q245.44856 234.53125 245.43294 235.8125Q245.80794 235.23438 246.35481 234.95312Q246.91731 234.67188 247.52669 234.67188Q248.57356 234.67188 249.30794 235.45312Q250.05794 236.23438 250.05794 237.45312Q250.05794 238.26562 249.69856 238.96875Q249.35481 239.65625 248.74544 240.03125Q248.13606 240.39062 247.37044 240.39062Q246.04231 240.39062 245.21419 239.42188Q244.38606 238.45312 244.38606 236.23438Q244.38606 233.73438 245.30794 232.60938Q246.10481 231.625 247.46419 231.625Q248.47981 231.625 249.12044 232.20312Q249.77669 232.76562 249.90169 233.76562ZM245.60481 237.46875Q245.60481 238.01562 245.82356 238.51562Q246.05794 239.0 246.46419 239.26562Q246.88606 239.53125 247.35481 239.53125Q248.01106 239.53125 248.49544 239.0Q248.97981 238.45312 248.97981 237.53125Q248.97981 236.64062 248.49544 236.125Q248.02669 235.60938 247.30794 235.60938Q246.58919 235.60938 246.08919 236.125Q245.60481 236.64062 245.60481 237.46875Z" fill-rule="nonzero"/><path fill="#000000" d="M274.2193 232.78125L274.2193 231.76562L279.7818 231.76562L279.7818 232.59375Q278.9693 233.46875 278.1568 234.92188Q277.35992 236.35938 276.92242 237.89062Q276.5943 238.96875 276.51617 240.25L275.42242 240.25Q275.43805 239.23438 275.81305 237.79688Q276.20367 236.35938 276.9068 235.03125Q277.62555 233.70312 278.43805 232.78125L274.2193 232.78125Z" fill-rule="nonzero"/><path fill="#000000" d="M305.50568 235.59375Q304.84943 235.34375 304.5213 234.90625Q304.2088 234.45312 304.2088 233.84375Q304.2088 232.90625 304.88068 232.26562Q305.56818 231.625 306.67755 231.625Q307.80255 231.625 308.49005 232.28125Q309.17755 232.9375 309.17755 233.875Q309.17755 234.46875 308.86505 234.90625Q308.55255 235.34375 307.91193 235.59375Q308.7088 235.84375 309.11505 236.42188Q309.5213 237.0 309.5213 237.79688Q309.5213 238.89062 308.74005 239.64062Q307.97443 240.39062 306.69318 240.39062Q305.42755 240.39062 304.6463 239.64062Q303.86505 238.89062 303.86505 237.76562Q303.86505 236.92188 304.28693 236.35938Q304.72443 235.79688 305.50568 235.59375ZM305.28693 233.79688Q305.28693 234.40625 305.67755 234.79688Q306.0838 235.1875 306.7088 235.1875Q307.31818 235.1875 307.7088 234.8125Q308.09943 234.42188 308.09943 233.85938Q308.09943 233.28125 307.69318 232.89062Q307.28693 232.48438 306.69318 232.48438Q306.0838 232.48438 305.67755 232.875Q305.28693 233.26562 305.28693 233.79688ZM304.9588 237.76562Q304.9588 238.21875 305.16193 238.64062Q305.38068 239.0625 305.80255 239.29688Q306.22443 239.53125 306.7088 239.53125Q307.4588 239.53125 307.94318 239.04688Q308.44318 238.5625 308.44318 237.8125Q308.44318 237.04688 307.94318 236.54688Q307.44318 236.04688 306.67755 236.04688Q305.92755 236.04688 305.44318 236.54688Q304.9588 237.03125 304.9588 237.76562Z" fill-rule="nonzero"/><path fill="#000000" d="M333.76077 238.26562L334.7764 238.17188Q334.9014 238.89062 335.26077 239.21875Q335.63577 239.53125 336.19827 239.53125Q336.68265 239.53125 337.04202 239.3125Q337.41702 239.07812 337.6514 238.71875Q337.88577 238.34375 338.04202 237.71875Q338.19827 237.07812 338.19827 236.42188Q338.19827 236.34375 338.19827 236.20312Q337.88577 236.70312 337.3389 237.03125Q336.79202 237.34375 336.1514 237.34375Q335.07327 237.34375 334.3389 236.57812Q333.60452 235.79688 333.60452 234.53125Q333.60452 233.21875 334.37015 232.42188Q335.1514 231.625 336.30765 231.625Q337.13577 231.625 337.82327 232.07812Q338.5264 232.53125 338.88577 233.375Q339.24515 234.20312 339.24515 235.78125Q339.24515 237.42188 338.88577 238.40625Q338.54202 239.375 337.82327 239.89062Q337.12015 240.39062 336.18265 240.39062Q335.16702 240.39062 334.5264 239.84375Q333.88577 239.28125 333.76077 238.26562ZM338.07327 234.46875Q338.07327 233.5625 337.5889 233.03125Q337.12015 232.5 336.43265 232.5Q335.72952 232.5 335.19827 233.07812Q334.68265 233.64062 334.68265 234.5625Q334.68265 235.375 335.18265 235.89062Q335.68265 236.40625 336.4014 236.40625Q337.13577 236.40625 337.60452 235.89062Q338.07327 235.375 338.07327 234.46875Z" fill-rule="nonzero"/><path fill="#000000" d="M363.79715 240.25L362.75027 240.25L362.75027 233.53125Q362.35965 233.89062 361.73465 234.26562Q361.12527 234.625 360.6409 234.79688L360.6409 233.78125Q361.5159 233.35938 362.17215 232.78125Q362.84402 232.1875 363.12527 231.625L363.79715 231.625L363.79715 240.25ZM366.8284 236.01562Q366.8284 234.48438 367.1409 233.5625Q367.4534 232.625 368.06277 232.125Q368.68777 231.625 369.62527 231.625Q370.31277 231.625 370.8284 231.90625Q371.35965 232.1875 371.7034 232.71875Q372.04715 233.23438 372.23465 233.98438Q372.42215 234.73438 372.42215 236.01562Q372.42215 237.53125 372.10965 238.45312Q371.81277 239.375 371.18777 239.89062Q370.5784 240.39062 369.62527 240.39062Q368.3909 240.39062 367.67215 239.5Q366.8284 238.4375 366.8284 236.01562ZM367.90652 236.01562Q367.90652 238.125 368.40652 238.82812Q368.90652 239.53125 369.62527 239.53125Q370.35965 239.53125 370.84402 238.82812Q371.34402 238.125 371.34402 236.01562Q371.34402 233.89062 370.84402 233.20312Q370.35965 232.5 369.60965 232.5Q368.8909 232.5 368.4534 233.10938Q367.90652 233.89062 367.90652 236.01562Z" fill-rule="nonzero"/><path fill="#000000" d="M393.52103 240.25L392.47415 240.25L392.47415 233.53125Q392.08353 233.89062 391.45853 234.26562Q390.84915 234.625 390.36478 234.79688L390.36478 233.78125Q391.23978 233.35938 391.89603 232.78125Q392.5679 232.1875 392.84915 231.625L393.52103 231.625L393.52103 240.25ZM400.52103 240.25L399.47415 240.25L399.47415 233.53125Q399.08353 233.89062 398.45853 234.26562Q397.84915 234.625 397.36478 234.79688L397.36478 233.78125Q398.23978 233.35938 398.89603 232.78125Q399.5679 232.1875 399.84915 231.625L400.52103 231.625L400.52103 240.25Z" fill-rule="nonzero"/><path fill="#000000" d="M423.24487 240.25L422.198 240.25L422.198 233.53125Q421.80737 233.89062 421.18237 234.26562Q420.573 234.625 420.08862 234.79688L420.08862 233.78125Q420.96362 233.35938 421.61987 232.78125Q422.29175 232.1875 422.573 231.625L423.24487 231.625L423.24487 240.25ZM431.823 239.23438L431.823 240.25L426.1355 240.25Q426.1355 239.875 426.2605 239.51562Q426.47925 238.9375 426.948 238.375Q427.43237 237.8125 428.33862 237.07812Q429.74487 235.92188 430.22925 235.25Q430.72925 234.57812 430.72925 233.98438Q430.72925 233.35938 430.27612 232.9375Q429.823 232.5 429.10425 232.5Q428.33862 232.5 427.8855 232.95312Q427.43237 233.40625 427.41675 234.21875L426.33862 234.10938Q426.448 232.89062 427.16675 232.26562Q427.90112 231.625 429.1355 231.625Q430.36987 231.625 431.08862 232.3125Q431.80737 233.0 431.80737 234.01562Q431.80737 234.53125 431.58862 235.03125Q431.3855 235.51562 430.8855 236.07812Q430.40112 236.625 429.27612 237.57812Q428.323 238.375 428.04175 238.67188Q427.77612 238.95312 427.60425 239.23438L431.823 239.23438Z" fill-rule="nonzero"/><path fill="#000000" d="M452.96875 240.25L451.92188 240.25L451.92188 233.53125Q451.53125 233.89062 450.90625 234.26562Q450.29688 234.625 449.8125 234.79688L449.8125 233.78125Q450.6875 233.35938 451.34375 232.78125Q452.01562 232.1875 452.29688 231.625L452.96875 231.625L452.96875 240.25ZM456.0 237.98438L457.0625 237.84375Q457.23438 238.73438 457.67188 239.14062Q458.10938 239.53125 458.73438 239.53125Q459.48438 239.53125 460.0 239.01562Q460.51562 238.5 460.51562 237.73438Q460.51562 237.01562 460.03125 236.54688Q459.5625 236.0625 458.82812 236.0625Q458.53125 236.0625 458.07812 236.1875L458.20312 235.25Q458.3125 235.26562 458.375 235.26562Q459.04688 235.26562 459.57812 234.92188Q460.125 234.5625 460.125 233.82812Q460.125 233.25 459.73438 232.875Q459.34375 232.48438 458.71875 232.48438Q458.10938 232.48438 457.6875 232.875Q457.28125 233.26562 457.17188 234.03125L456.10938 233.84375Q456.29688 232.79688 456.98438 232.21875Q457.67188 231.625 458.6875 231.625Q459.39062 231.625 459.98438 231.9375Q460.57812 232.23438 460.89062 232.75Q461.20312 233.26562 461.20312 233.85938Q461.20312 234.40625 460.90625 234.875Q460.60938 235.32812 460.03125 235.59375Q460.78125 235.76562 461.20312 236.32812Q461.625 236.875 461.625 237.71875Q461.625 238.84375 460.79688 239.625Q459.98438 240.40625 458.73438 240.40625Q457.60938 240.40625 456.85938 239.73438Q456.10938 239.04688 456.0 237.98438Z" fill-rule="nonzero"/><path fill="#000000" d="M482.69263 240.25L481.64575 240.25L481.64575 233.53125Q481.25513 233.89062 480.63013 234.26562Q480.02075 234.625 479.53638 234.79688L479.53638 233.78125Q480.41138 233.35938 481.06763 232.78125Q481.7395 232.1875 482.02075 231.625L482.69263 231.625L482.69263 240.25ZM489.09888 240.25L489.09888 238.1875L485.38013 238.1875L485.38013 237.21875L489.302 231.65625L490.16138 231.65625L490.16138 237.21875L491.31763 237.21875L491.31763 238.1875L490.16138 238.1875L490.16138 240.25L489.09888 240.25ZM489.09888 237.21875L489.09888 233.35938L486.41138 237.21875L489.09888 237.21875Z" fill-rule="nonzero"/><path fill="#000000" d="M512.4165 240.25L511.3696 240.25L511.3696 233.53125Q510.97897 233.89062 510.35397 234.26562Q509.7446 234.625 509.26022 234.79688L509.26022 233.78125Q510.13522 233.35938 510.79147 232.78125Q511.46335 232.1875 511.7446 231.625L512.4165 231.625L512.4165 240.25ZM515.44775 238.0L516.5571 237.90625Q516.6821 238.71875 517.1196 239.125Q517.57275 239.53125 518.2134 239.53125Q518.9634 239.53125 519.4946 238.95312Q520.0259 238.375 520.0259 237.4375Q520.0259 236.53125 519.51025 236.01562Q519.01025 235.48438 518.1821 235.48438Q517.6821 235.48438 517.26025 235.71875Q516.854 235.95312 516.6196 236.3125L515.63525 236.1875L516.4634 231.78125L520.7446 231.78125L520.7446 232.78125L517.3071 232.78125L516.854 235.09375Q517.6196 234.54688 518.4634 234.54688Q519.5884 234.54688 520.354 235.32812Q521.13525 236.10938 521.13525 237.34375Q521.13525 238.5 520.4634 239.35938Q519.63525 240.39062 518.2134 240.39062Q517.0415 240.39062 516.2915 239.73438Q515.5571 239.07812 515.44775 238.0Z" fill-rule="nonzero"/><path fill="#000000" d="M542.1403 240.25L541.09344 240.25L541.09344 233.53125Q540.7028 233.89062 540.0778 234.26562Q539.46844 234.625 538.9841 234.79688L538.9841 233.78125Q539.8591 233.35938 540.5153 232.78125Q541.1872 232.1875 541.46844 231.625L542.1403 231.625L542.1403 240.25ZM550.6403 233.76562L549.59344 233.84375Q549.4528 233.21875 549.2028 232.9375Q548.7653 232.48438 548.1403 232.48438Q547.6403 232.48438 547.2497 232.76562Q546.7653 233.14062 546.46844 233.84375Q546.1872 234.53125 546.1716 235.8125Q546.5466 235.23438 547.09344 234.95312Q547.65594 234.67188 548.2653 234.67188Q549.3122 234.67188 550.0466 235.45312Q550.7966 236.23438 550.7966 237.45312Q550.7966 238.26562 550.4372 238.96875Q550.09344 239.65625 549.4841 240.03125Q548.8747 240.39062 548.1091 240.39062Q546.78094 240.39062 545.9528 239.42188Q545.1247 238.45312 545.1247 236.23438Q545.1247 233.73438 546.0466 232.60938Q546.84344 231.625 548.2028 231.625Q549.21844 231.625 549.8591 232.20312Q550.5153 232.76562 550.6403 233.76562ZM546.34344 237.46875Q546.34344 238.01562 546.5622 238.51562Q546.7966 239.0 547.2028 239.26562Q547.6247 239.53125 548.09344 239.53125Q548.7497 239.53125 549.2341 239.0Q549.71844 238.45312 549.71844 237.53125Q549.71844 236.64062 549.2341 236.125Q548.7653 235.60938 548.0466 235.60938Q547.3278 235.60938 546.8278 236.125Q546.34344 236.64062 546.34344 237.46875Z" fill-rule="nonzero"/><path fill="#000000" d="M571.8642 240.25L570.8173 240.25L570.8173 233.53125Q570.4267 233.89062 569.8017 234.26562Q569.1923 234.625 568.70795 234.79688L568.70795 233.78125Q569.58295 233.35938 570.2392 232.78125Q570.9111 232.1875 571.1923 231.625L571.8642 231.625L571.8642 240.25ZM574.95795 232.78125L574.95795 231.76562L580.52045 231.76562L580.52045 232.59375Q579.70795 233.46875 578.89545 234.92188Q578.0986 236.35938 577.6611 237.89062Q577.33295 238.96875 577.2548 240.25L576.1611 240.25Q576.1767 239.23438 576.5517 237.79688Q576.9423 236.35938 577.64545 235.03125Q578.3642 233.70312 579.1767 232.78125L574.95795 232.78125Z" fill-rule="nonzero"/><path fill="#000000" d="M601.5881 240.25L600.5412 240.25L600.5412 233.53125Q600.1506 233.89062 599.5256 234.26562Q598.9162 234.625 598.4318 234.79688L598.4318 233.78125Q599.3068 233.35938 599.9631 232.78125Q600.63495 232.1875 600.9162 231.625L601.5881 231.625L601.5881 240.25ZM606.2443 235.59375Q605.5881 235.34375 605.25995 234.90625Q604.94745 234.45312 604.94745 233.84375Q604.94745 232.90625 605.6193 232.26562Q606.3068 231.625 607.4162 231.625Q608.5412 231.625 609.2287 232.28125Q609.9162 232.9375 609.9162 233.875Q609.9162 234.46875 609.6037 234.90625Q609.2912 235.34375 608.6506 235.59375Q609.44745 235.84375 609.8537 236.42188Q610.25995 237.0 610.25995 237.79688Q610.25995 238.89062 609.4787 239.64062Q608.7131 240.39062 607.4318 240.39062Q606.1662 240.39062 605.38495 239.64062Q604.6037 238.89062 604.6037 237.76562Q604.6037 236.92188 605.0256 236.35938Q605.4631 235.79688 606.2443 235.59375ZM606.0256 233.79688Q606.0256 234.40625 606.4162 234.79688Q606.82245 235.1875 607.44745 235.1875Q608.0568 235.1875 608.44745 234.8125Q608.8381 234.42188 608.8381 233.85938Q608.8381 233.28125 608.4318 232.89062Q608.0256 232.48438 607.4318 232.48438Q606.82245 232.48438 606.4162 232.875Q606.0256 233.26562 606.0256 233.79688ZM605.69745 237.76562Q605.69745 238.21875 605.9006 238.64062Q606.1193 239.0625 606.5412 239.29688Q606.9631 239.53125 607.44745 239.53125Q608.19745 239.53125 608.6818 239.04688Q609.1818 238.5625 609.1818 237.8125Q609.1818 237.04688 608.6818 236.54688Q608.1818 236.04688 607.4162 236.04688Q606.6662 236.04688 606.1818 236.54688Q605.69745 237.03125 605.69745 237.76562Z" fill-rule="nonzero"/><path fill="#000000" d="M631.31195 240.25L630.2651 240.25L630.2651 233.53125Q629.87445 233.89062 629.24945 234.26562Q628.6401 234.625 628.1557 234.79688L628.1557 233.78125Q629.0307 233.35938 629.68695 232.78125Q630.3588 232.1875 630.6401 231.625L631.31195 231.625L631.31195 240.25ZM634.49945 238.26562L635.5151 238.17188Q635.6401 238.89062 635.99945 239.21875Q636.37445 239.53125 636.93695 239.53125Q637.4213 239.53125 637.7807 239.3125Q638.1557 239.07812 638.3901 238.71875Q638.62445 238.34375 638.7807 237.71875Q638.93695 237.07812 638.93695 236.42188Q638.93695 236.34375 638.93695 236.20312Q638.62445 236.70312 638.0776 237.03125Q637.5307 237.34375 636.8901 237.34375Q635.81195 237.34375 635.0776 236.57812Q634.3432 235.79688 634.3432 234.53125Q634.3432 233.21875 635.1088 232.42188Q635.8901 231.625 637.0463 231.625Q637.87445 231.625 638.56195 232.07812Q639.2651 232.53125 639.62445 233.375Q639.9838 234.20312 639.9838 235.78125Q639.9838 237.42188 639.62445 238.40625Q639.2807 239.375 638.56195 239.89062Q637.8588 240.39062 636.9213 240.39062Q635.9057 240.39062 635.2651 239.84375Q634.62445 239.28125 634.49945 238.26562ZM638.81195 234.46875Q638.81195 233.5625 638.3276 233.03125Q637.8588 232.5 637.1713 232.5Q636.4682 232.5 635.93695 233.07812Q635.4213 233.64062 635.4213 234.5625Q635.4213 235.375 635.9213 235.89062Q636.4213 236.40625 637.1401 236.40625Q637.87445 236.40625 638.3432 235.89062Q638.81195 235.375 638.81195 234.46875Z" fill-rule="nonzero"/><path fill="#000000" d="M662.61395 239.23438L662.61395 240.25L656.92645 240.25Q656.92645 239.875 657.05145 239.51562Q657.2702 238.9375 657.73895 238.375Q658.2233 237.8125 659.1296 237.07812Q660.5358 235.92188 661.0202 235.25Q661.5202 234.57812 661.5202 233.98438Q661.5202 233.35938 661.0671 232.9375Q660.61395 232.5 659.8952 232.5Q659.1296 232.5 658.67645 232.95312Q658.2233 233.40625 658.2077 234.21875L657.1296 234.10938Q657.23895 232.89062 657.9577 232.26562Q658.6921 231.625 659.92645 231.625Q661.1608 231.625 661.8796 232.3125Q662.5983 233.0 662.5983 234.01562Q662.5983 234.53125 662.3796 235.03125Q662.17645 235.51562 661.67645 236.07812Q661.1921 236.625 660.0671 237.57812Q659.11395 238.375 658.8327 238.67188Q658.5671 238.95312 658.3952 239.23438L662.61395 239.23438ZM664.0671 236.01562Q664.0671 234.48438 664.3796 233.5625Q664.6921 232.625 665.30145 232.125Q665.92645 231.625 666.86395 231.625Q667.55145 231.625 668.0671 231.90625Q668.5983 232.1875 668.9421 232.71875Q669.2858 233.23438 669.4733 233.98438Q669.6608 234.73438 669.6608 236.01562Q669.6608 237.53125 669.3483 238.45312Q669.05145 239.375 668.42645 239.89062Q667.8171 240.39062 666.86395 240.39062Q665.6296 240.39062 664.9108 239.5Q664.0671 238.4375 664.0671 236.01562ZM665.1452 236.01562Q665.1452 238.125 665.6452 238.82812Q666.1452 239.53125 666.86395 239.53125Q667.5983 239.53125 668.0827 238.82812Q668.5827 238.125 668.5827 236.01562Q668.5827 233.89062 668.0827 233.20312Q667.5983 232.5 666.8483 232.5Q666.1296 232.5 665.6921 233.10938Q665.1452 233.89062 665.1452 236.01562Z" fill-rule="nonzero"/><path fill="#000000" d="M692.3378 239.23438L692.3378 240.25L686.6503 240.25Q686.6503 239.875 686.7753 239.51562Q686.9941 238.9375 687.4628 238.375Q687.9472 237.8125 688.85345 237.07812Q690.2597 235.92188 690.7441 235.25Q691.2441 234.57812 691.2441 233.98438Q691.2441 233.35938 690.79095 232.9375Q690.3378 232.5 689.6191 232.5Q688.85345 232.5 688.4003 232.95312Q687.9472 233.40625 687.9316 234.21875L686.85345 234.10938Q686.9628 232.89062 687.6816 232.26562Q688.41595 231.625 689.6503 231.625Q690.8847 231.625 691.60345 232.3125Q692.3222 233.0 692.3222 234.01562Q692.3222 234.53125 692.10345 235.03125Q691.9003 235.51562 691.4003 236.07812Q690.91595 236.625 689.79095 237.57812Q688.8378 238.375 688.5566 238.67188Q688.29095 238.95312 688.1191 239.23438L692.3378 239.23438ZM697.7597 240.25L696.7128 240.25L696.7128 233.53125Q696.3222 233.89062 695.6972 234.26562Q695.0878 234.625 694.60345 234.79688L694.60345 233.78125Q695.47845 233.35938 696.1347 232.78125Q696.8066 232.1875 697.0878 231.625L697.7597 231.625L697.7597 240.25Z" fill-rule="nonzero"/><path fill="#000000" d="M722.06165 239.23438L722.06165 240.25L716.37415 240.25Q716.37415 239.875 716.49915 239.51562Q716.7179 238.9375 717.18665 238.375Q717.671 237.8125 718.5773 237.07812Q719.9835 235.92188 720.4679 235.25Q720.9679 234.57812 720.9679 233.98438Q720.9679 233.35938 720.5148 232.9375Q720.06165 232.5 719.3429 232.5Q718.5773 232.5 718.12415 232.95312Q717.671 233.40625 717.6554 234.21875L716.5773 234.10938Q716.68665 232.89062 717.4054 232.26562Q718.1398 231.625 719.37415 231.625Q720.6085 231.625 721.3273 232.3125Q722.046 233.0 722.046 234.01562Q722.046 234.53125 721.8273 235.03125Q721.62415 235.51562 721.12415 236.07812Q720.6398 236.625 719.5148 237.57812Q718.56165 238.375 718.2804 238.67188Q718.0148 238.95312 717.8429 239.23438L722.06165 239.23438ZM729.06165 239.23438L729.06165 240.25L723.37415 240.25Q723.37415 239.875 723.49915 239.51562Q723.7179 238.9375 724.18665 238.375Q724.671 237.8125 725.5773 237.07812Q726.9835 235.92188 727.4679 235.25Q727.9679 234.57812 727.9679 233.98438Q727.9679 233.35938 727.5148 232.9375Q727.06165 232.5 726.3429 232.5Q725.5773 232.5 725.12415 232.95312Q724.671 233.40625 724.6554 234.21875L723.5773 234.10938Q723.68665 232.89062 724.4054 232.26562Q725.1398 231.625 726.37415 231.625Q727.6085 231.625 728.3273 232.3125Q729.046 233.0 729.046 234.01562Q729.046 234.53125 728.8273 235.03125Q728.62415 235.51562 728.12415 236.07812Q727.6398 236.625 726.5148 237.57812Q725.56165 238.375 725.2804 238.67188Q725.0148 238.95312 724.8429 239.23438L729.06165 239.23438Z" fill-rule="nonzero"/><path fill="#000000" d="M751.7855 239.23438L751.7855 240.25L746.098 240.25Q746.098 239.875 746.223 239.51562Q746.4418 238.9375 746.9105 238.375Q747.3949 237.8125 748.30115 237.07812Q749.7074 235.92188 750.1918 235.25Q750.6918 234.57812 750.6918 233.98438Q750.6918 233.35938 750.23865 232.9375Q749.7855 232.5 749.0668 232.5Q748.30115 232.5 747.848 232.95312Q747.3949 233.40625 747.3793 234.21875L746.30115 234.10938Q746.4105 232.89062 747.1293 232.26562Q747.86365 231.625 749.098 231.625Q750.3324 231.625 751.05115 232.3125Q751.7699 233.0 751.7699 234.01562Q751.7699 234.53125 751.55115 235.03125Q751.348 235.51562 750.848 236.07812Q750.36365 236.625 749.23865 237.57812Q748.2855 238.375 748.0043 238.67188Q747.73865 238.95312 747.5668 239.23438L751.7855 239.23438ZM753.23865 237.98438L754.30115 237.84375Q754.473 238.73438 754.9105 239.14062Q755.348 239.53125 755.973 239.53125Q756.723 239.53125 757.23865 239.01562Q757.7543 238.5 757.7543 237.73438Q757.7543 237.01562 757.2699 236.54688Q756.80115 236.0625 756.0668 236.0625Q755.7699 236.0625 755.3168 236.1875L755.4418 235.25Q755.55115 235.26562 755.61365 235.26562Q756.2855 235.26562 756.8168 234.92188Q757.36365 234.5625 757.36365 233.82812Q757.36365 233.25 756.973 232.875Q756.5824 232.48438 755.9574 232.48438Q755.348 232.48438 754.92615 232.875Q754.5199 233.26562 754.4105 234.03125L753.348 233.84375Q753.5355 232.79688 754.223 232.21875Q754.9105 231.625 755.92615 231.625Q756.6293 231.625 757.223 231.9375Q757.8168 232.23438 758.1293 232.75Q758.4418 233.26562 758.4418 233.85938Q758.4418 234.40625 758.1449 234.875Q757.848 235.32812 757.2699 235.59375Q758.0199 235.76562 758.4418 236.32812Q758.86365 236.875 758.86365 237.71875Q758.86365 238.84375 758.0355 239.625Q757.223 240.40625 755.973 240.40625Q754.848 240.40625 754.098 239.73438Q753.348 239.04688 753.23865 237.98438Z" fill-rule="nonzero"/><path fill="#000000" d="M781.5094 239.23438L781.5094 240.25L775.8219 240.25Q775.8219 239.875 775.9469 239.51562Q776.16565 238.9375 776.6344 238.375Q777.1188 237.8125 778.025 237.07812Q779.4313 235.92188 779.91565 235.25Q780.41565 234.57812 780.41565 233.98438Q780.41565 233.35938 779.9625 232.9375Q779.5094 232.5 778.79065 232.5Q778.025 232.5 777.5719 232.95312Q777.1188 233.40625 777.10315 234.21875L776.025 234.10938Q776.1344 232.89062 776.85315 232.26562Q777.5875 231.625 778.8219 231.625Q780.0563 231.625 780.775 232.3125Q781.4938 233.0 781.4938 234.01562Q781.4938 234.53125 781.275 235.03125Q781.0719 235.51562 780.5719 236.07812Q780.0875 236.625 778.9625 237.57812Q778.0094 238.375 777.72815 238.67188Q777.4625 238.95312 777.29065 239.23438L781.5094 239.23438ZM786.3375 240.25L786.3375 238.1875L782.6188 238.1875L782.6188 237.21875L786.54065 231.65625L787.4 231.65625L787.4 237.21875L788.5563 237.21875L788.5563 238.1875L787.4 238.1875L787.4 240.25L786.3375 240.25ZM786.3375 237.21875L786.3375 233.35938L783.65 237.21875L786.3375 237.21875Z" fill-rule="nonzero"/><path fill="#000000" d="M811.2333 239.23438L811.2333 240.25L805.5458 240.25Q805.5458 239.875 805.6708 239.51562Q805.8895 238.9375 806.3583 238.375Q806.84265 237.8125 807.7489 237.07812Q809.15515 235.92188 809.6395 235.25Q810.1395 234.57812 810.1395 233.98438Q810.1395 233.35938 809.6864 232.9375Q809.2333 232.5 808.5145 232.5Q807.7489 232.5 807.2958 232.95312Q806.84265 233.40625 806.827 234.21875L805.7489 234.10938Q805.8583 232.89062 806.577 232.26562Q807.3114 231.625 808.5458 231.625Q809.78015 231.625 810.4989 232.3125Q811.21765 233.0 811.21765 234.01562Q811.21765 234.53125 810.9989 235.03125Q810.7958 235.51562 810.2958 236.07812Q809.8114 236.625 808.6864 237.57812Q807.7333 238.375 807.452 238.67188Q807.1864 238.95312 807.0145 239.23438L811.2333 239.23438ZM812.6864 238.0L813.7958 237.90625Q813.9208 238.71875 814.3583 239.125Q814.8114 239.53125 815.452 239.53125Q816.202 239.53125 816.7333 238.95312Q817.2645 238.375 817.2645 237.4375Q817.2645 236.53125 816.7489 236.01562Q816.2489 235.48438 815.4208 235.48438Q814.9208 235.48438 814.4989 235.71875Q814.09265 235.95312 813.8583 236.3125L812.8739 236.1875L813.702 231.78125L817.9833 231.78125L817.9833 232.78125L814.5458 232.78125L814.09265 235.09375Q814.8583 234.54688 815.702 234.54688Q816.827 234.54688 817.59265 235.32812Q818.3739 236.10938 818.3739 237.34375Q818.3739 238.5 817.702 239.35938Q816.8739 240.39062 815.452 240.39062Q814.28015 240.39062 813.53015 239.73438Q812.7958 239.07812 812.6864 238.0Z" fill-rule="nonzero"/><path fill="#ff9900" d="M367.5 50.583332C367.5 50.031048 367.94772 49.583332 368.5 49.583332L378.5 49.583332C379.05228 49.583332 379.5 50.031048 379.5 50.583332L379.5 60.583332C379.5 61.135616 379.05228 61.583332 378.5 61.583332L368.5 61.583332C367.94772 61.583332 367.5 61.135616 367.5 60.583332Z" fill-rule="nonzero"/><path fill="#1a1a1a" d="M393.54688 58.567707L393.54688 59.583332L387.85938 59.583332Q387.85938 59.208332 387.98438 58.848957Q388.20312 58.270832 388.67188 57.708332Q389.15625 57.145832 390.0625 56.411457Q391.46875 55.255207 391.95312 54.583332Q392.45312 53.911457 392.45312 53.317707Q392.45312 52.692707 392.0 52.270832Q391.54688 51.833332 390.82812 51.833332Q390.0625 51.833332 389.60938 52.286457Q389.15625 52.739582 389.14062 53.552082L388.0625 53.442707Q388.17188 52.223957 388.89062 51.598957Q389.625 50.958332 390.85938 50.958332Q392.09375 50.958332 392.8125 51.645832Q393.53125 52.333332 393.53125 53.348957Q393.53125 53.864582 393.3125 54.364582Q393.10938 54.848957 392.60938 55.411457Q392.125 55.958332 391.0 56.911457Q390.04688 57.708332 389.76562 58.005207Q389.5 58.286457 389.32812 58.567707L393.54688 58.567707ZM395.0 55.348957Q395.0 53.817707 395.3125 52.895832Q395.625 51.958332 396.23438 51.458332Q396.85938 50.958332 397.79688 50.958332Q398.48438 50.958332 399.0 51.239582Q399.53125 51.520832 399.875 52.052082Q400.21875 52.567707 400.40625 53.317707Q400.59375 54.067707 400.59375 55.348957Q400.59375 56.864582 400.28125 57.786457Q399.98438 58.708332 399.35938 59.223957Q398.75 59.723957 397.79688 59.723957Q396.5625 59.723957 395.84375 58.833332Q395.0 57.770832 395.0 55.348957ZM396.07812 55.348957Q396.07812 57.458332 396.57812 58.161457Q397.07812 58.864582 397.79688 58.864582Q398.53125 58.864582 399.01562 58.161457Q399.51562 57.458332 399.51562 55.348957Q399.51562 53.223957 399.01562 52.536457Q398.53125 51.833332 397.78125 51.833332Q397.0625 51.833332 396.625 52.442707Q396.07812 53.223957 396.07812 55.348957ZM407.54688 58.567707L407.54688 59.583332L401.85938 59.583332Q401.85938 59.208332 401.98438 58.848957Q402.20312 58.270832 402.67188 57.708332Q403.15625 57.145832 404.0625 56.411457Q405.46875 55.255207 405.95312 54.583332Q406.45312 53.911457 406.45312 53.317707Q406.45312 52.692707 406.0 52.270832Q405.54688 51.833332 404.82812 51.833332Q404.0625 51.833332 403.60938 52.286457Q403.15625 52.739582 403.14062 53.552082L402.0625 53.442707Q402.17188 52.223957 402.89062 51.598957Q403.625 50.958332 404.85938 50.958332Q406.09375 50.958332 406.8125 51.645832Q407.53125 52.333332 407.53125 53.348957Q407.53125 53.864582 407.3125 54.364582Q407.10938 54.848957 406.60938 55.411457Q406.125 55.958332 405.0 56.911457Q404.04688 57.708332 403.76562 58.005207Q403.5 58.286457 403.32812 58.567707L407.54688 58.567707ZM414.54688 58.567707L414.54688 59.583332L408.85938 59.583332Q408.85938 59.208332 408.98438 58.848957Q409.20312 58.270832 409.67188 57.708332Q410.15625 57.145832 411.0625 56.411457Q412.46875 55.255207 412.95312 54.583332Q413.45312 53.911457 413.45312 53.317707Q413.45312 52.692707 413.0 52.270832Q412.54688 51.833332 411.82812 51.833332Q411.0625 51.833332 410.60938 52.286457Q410.15625 52.739582 410.14062 53.552082L409.0625 53.442707Q409.17188 52.223957 409.89062 51.598957Q410.625 50.958332 411.85938 50.958332Q413.09375 50.958332 413.8125 51.645832Q414.53125 52.333332 414.53125 53.348957Q414.53125 53.864582 414.3125 54.364582Q414.10938 54.848957 413.60938 55.411457Q413.125 55.958332 412.0 56.911457Q411.04688 57.708332 410.76562 58.005207Q410.5 58.286457 410.32812 58.567707L414.54688 58.567707Z" fill-rule="nonzero"/><path fill="#6fa8dc" d="M431.5 50.583332C431.5 50.031048 431.94772 49.583332 432.5 49.583332L442.5 49.583332C443.05228 49.583332 443.5 50.031048 443.5 50.583332L443.5 60.583332C443.5 61.135616 443.05228 61.583332 442.5 61.583332L432.5 61.583332C431.94772 61.583332 431.5 61.135616 431.5 60.583332Z" fill-rule="nonzero"/><path fill="#1a1a1a" d="M457.54688 58.567707L457.54688 59.583332L451.85938 59.583332Q451.85938 59.208332 451.98438 58.848957Q452.20312 58.270832 452.67188 57.708332Q453.15625 57.145832 454.0625 56.411457Q455.46875 55.255207 455.95312 54.583332Q456.45312 53.911457 456.45312 53.317707Q456.45312 52.692707 456.0 52.270832Q455.54688 51.833332 454.82812 51.833332Q454.0625 51.833332 453.60938 52.286457Q453.15625 52.739582 453.14062 53.552082L452.0625 53.442707Q452.17188 52.223957 452.89062 51.598957Q453.625 50.958332 454.85938 50.958332Q456.09375 50.958332 456.8125 51.645832Q457.53125 52.333332 457.53125 53.348957Q457.53125 53.864582 457.3125 54.364582Q457.10938 54.848957 456.60938 55.411457Q456.125 55.958332 455.0 56.911457Q454.04688 57.708332 453.76562 58.005207Q453.5 58.286457 453.32812 58.567707L457.54688 58.567707ZM459.0 55.348957Q459.0 53.817707 459.3125 52.895832Q459.625 51.958332 460.23438 51.458332Q460.85938 50.958332 461.79688 50.958332Q462.48438 50.958332 463.0 51.239582Q463.53125 51.520832 463.875 52.052082Q464.21875 52.567707 464.40625 53.317707Q464.59375 54.067707 464.59375 55.348957Q464.59375 56.864582 464.28125 57.786457Q463.98438 58.708332 463.35938 59.223957Q462.75 59.723957 461.79688 59.723957Q460.5625 59.723957 459.84375 58.833332Q459.0 57.770832 459.0 55.348957ZM460.07812 55.348957Q460.07812 57.458332 460.57812 58.161457Q461.07812 58.864582 461.79688 58.864582Q462.53125 58.864582 463.01562 58.161457Q463.51562 57.458332 463.51562 55.348957Q463.51562 53.223957 463.01562 52.536457Q462.53125 51.833332 461.78125 51.833332Q461.0625 51.833332 460.625 52.442707Q460.07812 53.223957 460.07812 55.348957ZM471.54688 58.567707L471.54688 59.583332L465.85938 59.583332Q465.85938 59.208332 465.98438 58.848957Q466.20312 58.270832 466.67188 57.708332Q467.15625 57.145832 468.0625 56.411457Q469.46875 55.255207 469.95312 54.583332Q470.45312 53.911457 470.45312 53.317707Q470.45312 52.692707 470.0 52.270832Q469.54688 51.833332 468.82812 51.833332Q468.0625 51.833332 467.60938 52.286457Q467.15625 52.739582 467.14062 53.552082L466.0625 53.442707Q466.17188 52.223957 466.89062 51.598957Q467.625 50.958332 468.85938 50.958332Q470.09375 50.958332 470.8125 51.645832Q471.53125 52.333332 471.53125 53.348957Q471.53125 53.864582 471.3125 54.364582Q471.10938 54.848957 470.60938 55.411457Q470.125 55.958332 469.0 56.911457Q468.04688 57.708332 467.76562 58.005207Q467.5 58.286457 467.32812 58.567707L471.54688 58.567707ZM473.0 57.317707L474.0625 57.177082Q474.23438 58.067707 474.67188 58.473957Q475.10938 58.864582 475.73438 58.864582Q476.48438 58.864582 477.0 58.348957Q477.51562 57.833332 477.51562 57.067707Q477.51562 56.348957 477.03125 55.880207Q476.5625 55.395832 475.82812 55.395832Q475.53125 55.395832 475.07812 55.520832L475.20312 54.583332Q475.3125 54.598957 475.375 54.598957Q476.04688 54.598957 476.57812 54.255207Q477.125 53.895832 477.125 53.161457Q477.125 52.583332 476.73438 52.208332Q476.34375 51.817707 475.71875 51.817707Q475.10938 51.817707 474.6875 52.208332Q474.28125 52.598957 474.17188 53.364582L473.10938 53.177082Q473.29688 52.130207 473.98438 51.552082Q474.67188 50.958332 475.6875 50.958332Q476.39062 50.958332 476.98438 51.270832Q477.57812 51.567707 477.89062 52.083332Q478.20312 52.598957 478.20312 53.192707Q478.20312 53.739582 477.90625 54.208332Q477.60938 54.661457 477.03125 54.927082Q477.78125 55.098957 478.20312 55.661457Q478.625 56.208332 478.625 57.052082Q478.625 58.177082 477.79688 58.958332Q476.98438 59.739582 475.73438 59.739582Q474.60938 59.739582 473.85938 59.067707Q473.10938 58.380207 473.0 57.317707Z" fill-rule="nonzero"/><path fill="#757575" d="M311.04688 33.75L311.04688 19.4375L315.96875 19.4375Q317.64062 19.4375 318.53125 19.640625Q319.75 19.921875 320.625 20.65625Q321.75 21.625 322.3125 23.109375Q322.875 24.59375 322.875 26.515625Q322.875 28.140625 322.5 29.40625Q322.125 30.65625 321.51562 31.484375Q320.92188 32.3125 320.21875 32.796875Q319.51562 33.265625 318.51562 33.515625Q317.51562 33.75 316.20312 33.75L311.04688 33.75ZM312.9375 32.0625L316.0 32.0625Q317.40625 32.0625 318.20312 31.796875Q319.01562 31.53125 319.5 31.046875Q320.17188 30.375 320.54688 29.25Q320.92188 28.109375 320.92188 26.484375Q320.92188 24.234375 320.1875 23.03125Q319.45312 21.828125 318.39062 21.421875Q317.64062 21.125 315.95312 21.125L312.9375 21.125L312.9375 32.0625ZM331.59375 32.46875Q330.60938 33.296875 329.70312 33.640625Q328.79688 33.984375 327.76562 33.984375Q326.0625 33.984375 325.14062 33.15625Q324.21875 32.3125 324.21875 31.015625Q324.21875 30.25 324.5625 29.625Q324.92188 29.0 325.48438 28.625Q326.04688 28.234375 326.75 28.03125Q327.26562 27.90625 328.3125 27.765625Q330.4375 27.515625 331.4375 27.171875Q331.45312 26.8125 331.45312 26.703125Q331.45312 25.640625 330.95312 25.1875Q330.28125 24.59375 328.95312 24.59375Q327.70312 24.59375 327.10938 25.03125Q326.53125 25.46875 326.25 26.578125L324.53125 26.34375Q324.76562 25.234375 325.29688 24.5625Q325.82812 23.875 326.84375 23.515625Q327.85938 23.140625 329.20312 23.140625Q330.53125 23.140625 331.35938 23.453125Q332.1875 23.765625 332.57812 24.25Q332.96875 24.71875 333.125 25.4375Q333.21875 25.890625 333.21875 27.0625L333.21875 29.40625Q333.21875 31.859375 333.32812 32.515625Q333.4375 33.15625 333.78125 33.75L331.9375 33.75Q331.67188 33.203125 331.59375 32.46875ZM331.4375 28.546875Q330.48438 28.9375 328.5625 29.203125Q327.48438 29.359375 327.03125 29.5625Q326.59375 29.75 326.34375 30.125Q326.09375 30.5 326.09375 30.96875Q326.09375 31.671875 326.625 32.140625Q327.15625 32.609375 328.1875 32.609375Q329.20312 32.609375 329.98438 32.171875Q330.78125 31.71875 331.15625 30.953125Q331.4375 30.34375 331.4375 29.1875L331.4375 28.546875ZM335.82812 21.453125L335.82812 19.4375L337.59375 19.4375L337.59375 21.453125L335.82812 21.453125ZM335.82812 33.75L335.82812 23.375L337.59375 23.375L337.59375 33.75L335.82812 33.75ZM339.78125 33.75L339.78125 19.4375L341.53125 19.4375L341.53125 33.75L339.78125 33.75ZM343.73438 37.75L343.54688 36.09375Q344.125 36.25 344.54688 36.25Q345.14062 36.25 345.48438 36.046875Q345.84375 35.859375 346.0625 35.515625Q346.23438 35.25 346.60938 34.203125Q346.65625 34.046875 346.76562 33.765625L342.82812 23.375L344.71875 23.375L346.875 29.390625Q347.29688 30.53125 347.625 31.78125Q347.9375 30.578125 348.34375 29.421875L350.5625 23.375L352.32812 23.375L348.375 33.921875Q347.75 35.640625 347.39062 36.28125Q346.92188 37.15625 346.3125 37.546875Q345.71875 37.953125 344.875 37.953125Q344.35938 37.953125 343.73438 37.75ZM366.59375 29.953125L368.3125 30.171875Q368.03125 31.96875 366.85938 32.984375Q365.70312 33.984375 364.0 33.984375Q361.875 33.984375 360.57812 32.59375Q359.28125 31.203125 359.28125 28.609375Q359.28125 26.921875 359.82812 25.671875Q360.39062 24.40625 361.53125 23.78125Q362.67188 23.140625 364.01562 23.140625Q365.70312 23.140625 366.76562 24.0Q367.84375 24.859375 368.15625 26.421875L366.4375 26.6875Q366.20312 25.640625 365.57812 25.125Q364.95312 24.59375 364.07812 24.59375Q362.75 24.59375 361.92188 25.546875Q361.09375 26.5 361.09375 28.546875Q361.09375 30.640625 361.89062 31.59375Q362.6875 32.53125 363.98438 32.53125Q365.01562 32.53125 365.70312 31.90625Q366.40625 31.265625 366.59375 29.953125ZM369.17188 28.5625Q369.17188 25.6875 370.76562 24.296875Q372.10938 23.140625 374.03125 23.140625Q376.17188 23.140625 377.51562 24.546875Q378.875 25.953125 378.875 28.421875Q378.875 30.421875 378.28125 31.578125Q377.6875 32.71875 376.53125 33.359375Q375.39062 33.984375 374.03125 33.984375Q371.84375 33.984375 370.5 32.59375Q369.17188 31.1875 369.17188 28.5625ZM370.96875 28.5625Q370.96875 30.5625 371.82812 31.546875Q372.70312 32.53125 374.03125 32.53125Q375.34375 32.53125 376.20312 31.546875Q377.07812 30.546875 377.07812 28.5Q377.07812 26.578125 376.20312 25.59375Q375.32812 24.59375 374.03125 24.59375Q372.70312 24.59375 371.82812 25.59375Q370.96875 26.578125 370.96875 28.5625ZM380.8125 33.75L380.8125 23.375L382.40625 23.375L382.40625 24.859375Q383.54688 23.140625 385.70312 23.140625Q386.64062 23.140625 387.42188 23.484375Q388.21875 23.8125 388.60938 24.359375Q389.0 24.90625 389.15625 25.65625Q389.25 26.15625 389.25 27.375L389.25 33.75L387.48438 33.75L387.48438 27.4375Q387.48438 26.359375 387.28125 25.828125Q387.07812 25.296875 386.54688 24.984375Q386.03125 24.671875 385.32812 24.671875Q384.20312 24.671875 383.39062 25.390625Q382.57812 26.09375 382.57812 28.078125L382.57812 33.75L380.8125 33.75ZM394.65625 32.171875L394.90625 33.734375Q394.17188 33.890625 393.57812 33.890625Q392.625 33.890625 392.09375 33.59375Q391.57812 33.28125 391.35938 32.796875Q391.14062 32.296875 391.14062 30.71875L391.14062 24.75L389.85938 24.75L389.85938 23.375L391.14062 23.375L391.14062 20.8125L392.89062 19.75L392.89062 23.375L394.65625 23.375L394.65625 24.75L392.89062 24.75L392.89062 30.8125Q392.89062 31.5625 392.98438 31.78125Q393.07812 31.984375 393.28125 32.125Q393.5 32.25 393.89062 32.25Q394.17188 32.25 394.65625 32.171875ZM396.79688 33.75L396.79688 23.375L398.375 23.375L398.375 24.953125Q398.98438 23.84375 399.5 23.5Q400.01562 23.140625 400.625 23.140625Q401.51562 23.140625 402.4375 23.703125L401.82812 25.34375Q401.1875 24.953125 400.54688 24.953125Q399.96875 24.953125 399.5 25.3125Q399.04688 25.65625 398.84375 26.265625Q398.5625 27.203125 398.5625 28.3125L398.5625 33.75L396.79688 33.75ZM403.82812 21.453125L403.82812 19.4375L405.59375 19.4375L405.59375 21.453125L403.82812 21.453125ZM403.82812 33.75L403.82812 23.375L405.59375 23.375L405.59375 33.75L403.82812 33.75ZM409.4375 33.75L407.8125 33.75L407.8125 19.4375L409.5625 19.4375L409.5625 24.546875Q410.6875 23.140625 412.40625 23.140625Q413.35938 23.140625 414.21875 23.53125Q415.07812 23.921875 415.625 24.625Q416.17188 25.3125 416.48438 26.296875Q416.79688 27.28125 416.79688 28.40625Q416.79688 31.078125 415.48438 32.53125Q414.17188 33.984375 412.32812 33.984375Q410.48438 33.984375 409.4375 32.453125L409.4375 33.75ZM409.42188 28.484375Q409.42188 30.34375 409.92188 31.1875Q410.76562 32.53125 412.17188 32.53125Q413.32812 32.53125 414.15625 31.53125Q415.0 30.53125 415.0 28.546875Q415.0 26.515625 414.1875 25.5625Q413.39062 24.59375 412.25 24.59375Q411.09375 24.59375 410.25 25.59375Q409.42188 26.59375 409.42188 28.484375ZM425.60938 33.75L425.60938 32.21875Q424.40625 33.984375 422.32812 33.984375Q421.40625 33.984375 420.60938 33.640625Q419.8125 33.28125 419.42188 32.75Q419.04688 32.21875 418.89062 31.4375Q418.78125 30.921875 418.78125 29.796875L418.78125 23.375L420.53125 23.375L420.53125 29.125Q420.53125 30.5 420.64062 30.984375Q420.8125 31.671875 421.34375 32.078125Q421.89062 32.46875 422.67188 32.46875Q423.46875 32.46875 424.15625 32.0625Q424.85938 31.65625 425.14062 30.96875Q425.4375 30.265625 425.4375 28.9375L425.4375 23.375L427.1875 23.375L427.1875 33.75L425.60938 33.75ZM432.65625 32.171875L432.90625 33.734375Q432.17188 33.890625 431.57812 33.890625Q430.625 33.890625 430.09375 33.59375Q429.57812 33.28125 429.35938 32.796875Q429.14062 32.296875 429.14062 30.71875L429.14062 24.75L427.85938 24.75L427.85938 23.375L429.14062 23.375L429.14062 20.8125L430.89062 19.75L430.89062 23.375L432.65625 23.375L432.65625 24.75L430.89062 24.75L430.89062 30.8125Q430.89062 31.5625 430.98438 31.78125Q431.07812 31.984375 431.28125 32.125Q431.5 32.25 431.89062 32.25Q432.17188 32.25 432.65625 32.171875ZM441.92188 30.40625L443.73438 30.640625Q443.3125 32.21875 442.14062 33.109375Q440.98438 33.984375 439.17188 33.984375Q436.90625 33.984375 435.5625 32.59375Q434.23438 31.1875 434.23438 28.65625Q434.23438 26.03125 435.57812 24.59375Q436.92188 23.140625 439.07812 23.140625Q441.15625 23.140625 442.46875 24.5625Q443.79688 25.96875 443.79688 28.546875Q443.79688 28.703125 443.78125 29.015625L436.04688 29.015625Q436.14062 30.71875 437.01562 31.625Q437.89062 32.53125 439.1875 32.53125Q440.15625 32.53125 440.82812 32.03125Q441.51562 31.515625 441.92188 30.40625ZM436.14062 27.5625L441.9375 27.5625Q441.82812 26.265625 441.28125 25.609375Q440.4375 24.59375 439.09375 24.59375Q437.89062 24.59375 437.0625 25.40625Q436.23438 26.203125 436.14062 27.5625ZM452.54688 33.75L452.54688 32.4375Q451.5625 33.984375 449.64062 33.984375Q448.40625 33.984375 447.35938 33.296875Q446.32812 32.609375 445.75 31.390625Q445.1875 30.171875 445.1875 28.578125Q445.1875 27.015625 445.70312 25.75Q446.21875 24.484375 447.25 23.8125Q448.29688 23.140625 449.5625 23.140625Q450.5 23.140625 451.23438 23.546875Q451.96875 23.9375 452.4375 24.5625L452.4375 19.4375L454.17188 19.4375L454.17188 33.75L452.54688 33.75ZM446.98438 28.578125Q446.98438 30.5625 447.82812 31.546875Q448.67188 32.53125 449.8125 32.53125Q450.96875 32.53125 451.76562 31.59375Q452.57812 30.65625 452.57812 28.71875Q452.57812 26.59375 451.75 25.59375Q450.9375 24.59375 449.73438 24.59375Q448.5625 24.59375 447.76562 25.5625Q446.98438 26.515625 446.98438 28.578125ZM462.10938 30.65625L463.85938 30.375Q464.0 31.421875 464.67188 31.984375Q465.34375 32.53125 466.54688 32.53125Q467.75 32.53125 468.32812 32.046875Q468.92188 31.546875 468.92188 30.890625Q468.92188 30.296875 468.40625 29.953125Q468.04688 29.71875 466.60938 29.359375Q464.67188 28.859375 463.92188 28.515625Q463.1875 28.15625 462.79688 27.53125Q462.40625 26.890625 462.40625 26.125Q462.40625 25.4375 462.71875 24.84375Q463.04688 24.25 463.59375 23.859375Q464.0 23.5625 464.70312 23.359375Q465.42188 23.140625 466.23438 23.140625Q467.45312 23.140625 468.375 23.5Q469.29688 23.84375 469.73438 24.453125Q470.17188 25.046875 470.34375 26.046875L468.625 26.28125Q468.5 25.484375 467.9375 25.046875Q467.375 24.59375 466.35938 24.59375Q465.14062 24.59375 464.625 25.0Q464.10938 25.390625 464.10938 25.921875Q464.10938 26.265625 464.32812 26.546875Q464.53125 26.828125 465.0 27.015625Q465.26562 27.109375 466.54688 27.453125Q468.42188 27.953125 469.15625 28.28125Q469.89062 28.59375 470.3125 29.203125Q470.73438 29.796875 470.73438 30.703125Q470.73438 31.578125 470.21875 32.359375Q469.70312 33.140625 468.73438 33.5625Q467.76562 33.984375 466.54688 33.984375Q464.53125 33.984375 463.46875 33.140625Q462.40625 32.296875 462.10938 30.65625ZM472.17188 28.5625Q472.17188 25.6875 473.76562 24.296875Q475.10938 23.140625 477.03125 23.140625Q479.17188 23.140625 480.51562 24.546875Q481.875 25.953125 481.875 28.421875Q481.875 30.421875 481.28125 31.578125Q480.6875 32.71875 479.53125 33.359375Q478.39062 33.984375 477.03125 33.984375Q474.84375 33.984375 473.5 32.59375Q472.17188 31.1875 472.17188 28.5625ZM473.96875 28.5625Q473.96875 30.5625 474.82812 31.546875Q475.70312 32.53125 477.03125 32.53125Q478.34375 32.53125 479.20312 31.546875Q480.07812 30.546875 480.07812 28.5Q480.07812 26.578125 479.20312 25.59375Q478.32812 24.59375 477.03125 24.59375Q475.70312 24.59375 474.82812 25.59375Q473.96875 26.578125 473.96875 28.5625ZM483.78125 33.75L483.78125 19.4375L485.53125 19.4375L485.53125 33.75L483.78125 33.75ZM494.60938 33.75L494.60938 32.21875Q493.40625 33.984375 491.32812 33.984375Q490.40625 33.984375 489.60938 33.640625Q488.8125 33.28125 488.42188 32.75Q488.04688 32.21875 487.89062 31.4375Q487.78125 30.921875 487.78125 29.796875L487.78125 23.375L489.53125 23.375L489.53125 29.125Q489.53125 30.5 489.64062 30.984375Q489.8125 31.671875 490.34375 32.078125Q490.89062 32.46875 491.67188 32.46875Q492.46875 32.46875 493.15625 32.0625Q493.85938 31.65625 494.14062 30.96875Q494.4375 30.265625 494.4375 28.9375L494.4375 23.375L496.1875 23.375L496.1875 33.75L494.60938 33.75ZM501.65625 32.171875L501.90625 33.734375Q501.17188 33.890625 500.57812 33.890625Q499.625 33.890625 499.09375 33.59375Q498.57812 33.28125 498.35938 32.796875Q498.14062 32.296875 498.14062 30.71875L498.14062 24.75L496.85938 24.75L496.85938 23.375L498.14062 23.375L498.14062 20.8125L499.89062 19.75L499.89062 23.375L501.65625 23.375L501.65625 24.75L499.89062 24.75L499.89062 30.8125Q499.89062 31.5625 499.98438 31.78125Q500.07812 31.984375 500.28125 32.125Q500.5 32.25 500.89062 32.25Q501.17188 32.25 501.65625 32.171875ZM503.82812 21.453125L503.82812 19.4375L505.59375 19.4375L505.59375 21.453125L503.82812 21.453125ZM503.82812 33.75L503.82812 23.375L505.59375 23.375L505.59375 33.75L503.82812 33.75ZM507.17188 28.5625Q507.17188 25.6875 508.76562 24.296875Q510.10938 23.140625 512.03125 23.140625Q514.1719 23.140625 515.5156 24.546875Q516.875 25.953125 516.875 28.421875Q516.875 30.421875 516.28125 31.578125Q515.6875 32.71875 514.53125 33.359375Q513.3906 33.984375 512.03125 33.984375Q509.84375 33.984375 508.5 32.59375Q507.17188 31.1875 507.17188 28.5625ZM508.96875 28.5625Q508.96875 30.5625 509.82812 31.546875Q510.70312 32.53125 512.03125 32.53125Q513.34375 32.53125 514.2031 31.546875Q515.0781 30.546875 515.0781 28.5Q515.0781 26.578125 514.2031 25.59375Q513.3281 24.59375 512.03125 24.59375Q510.70312 24.59375 509.82812 25.59375Q508.96875 26.578125 508.96875 28.5625ZM518.8125 33.75L518.8125 23.375L520.40625 23.375L520.40625 24.859375Q521.5469 23.140625 523.7031 23.140625Q524.6406 23.140625 525.4219 23.484375Q526.21875 23.8125 526.6094 24.359375Q527.0 24.90625 527.15625 25.65625Q527.25 26.15625 527.25 27.375L527.25 33.75L525.4844 33.75L525.4844 27.4375Q525.4844 26.359375 525.28125 25.828125Q525.0781 25.296875 524.5469 24.984375Q524.03125 24.671875 523.3281 24.671875Q522.2031 24.671875 521.3906 25.390625Q520.5781 26.09375 520.5781 28.078125L520.5781 33.75L518.8125 33.75ZM528.1094 30.65625L529.8594 30.375Q530.0 31.421875 530.6719 31.984375Q531.34375 32.53125 532.5469 32.53125Q533.75 32.53125 534.3281 32.046875Q534.9219 31.546875 534.9219 30.890625Q534.9219 30.296875 534.40625 29.953125Q534.0469 29.71875 532.6094 29.359375Q530.6719 28.859375 529.9219 28.515625Q529.1875 28.15625 528.7969 27.53125Q528.40625 26.890625 528.40625 26.125Q528.40625 25.4375 528.71875 24.84375Q529.0469 24.25 529.59375 23.859375Q530.0 23.5625 530.7031 23.359375Q531.4219 23.140625 532.2344 23.140625Q533.4531 23.140625 534.375 23.5Q535.2969 23.84375 535.7344 24.453125Q536.1719 25.046875 536.34375 26.046875L534.625 26.28125Q534.5 25.484375 533.9375 25.046875Q533.375 24.59375 532.3594 24.59375Q531.1406 24.59375 530.625 25.0Q530.1094 25.390625 530.1094 25.921875Q530.1094 26.265625 530.3281 26.546875Q530.53125 26.828125 531.0 27.015625Q531.2656 27.109375 532.5469 27.453125Q534.4219 27.953125 535.15625 28.28125Q535.8906 28.59375 536.3125 29.203125Q536.7344 29.796875 536.7344 30.703125Q536.7344 31.578125 536.21875 32.359375Q535.7031 33.140625 534.7344 33.5625Q533.7656 33.984375 532.5469 33.984375Q530.53125 33.984375 529.46875 33.140625Q528.40625 32.296875 528.1094 30.65625Z" fill-rule="nonzero"/></svg>