<svg version="1.1" viewBox="0.0 0.0 681.0 244.0" fill="none" stroke="none" stroke-linecap="square" stroke-miterlimit="10" width="681" height="244" xmlns:xlink="http://www.w3.org/1999/xlink" xmlns="http://www.w3.org/2000/svg"><path fill="#ffffff" d="M0 0L681.0 0L681.0 244.0L0 244.0L0 0Z" fill-rule="nonzero"/><path stroke="#cccccc" stroke-width="1.0" stroke-linecap="butt" d="M91.5 51.5L91.5 187.5" fill-rule="nonzero"/><path stroke="#cccccc" stroke-width="1.0" stroke-linecap="butt" d="M275.5 51.5L275.5 187.5" fill-rule="nonzero"/><path stroke="#cccccc" stroke-width="1.0" stroke-linecap="butt" d="M458.5 51.5L458.5 187.5" fill-rule="nonzero"/><path stroke="#cccccc" stroke-width="1.0" stroke-linecap="butt" d="M642.5 51.5L642.5 187.5" fill-rule="nonzero"/><path stroke="#333333" stroke-width="1.0" stroke-linecap="butt" d="M39.5 187.5L668.5 187.5" fill-rule="nonzero"/><path stroke="#cccccc" stroke-width="1.0" stroke-linecap="butt" d="M39.5 153.5L668.5 153.5" fill-rule="nonzero"/><path stroke="#cccccc" stroke-width="1.0" stroke-linecap="butt" d="M39.5 119.5L668.5 119.5" fill-rule="nonzero"/><path stroke="#cccccc" stroke-width="1.0" stroke-linecap="butt" d="M39.5 85.5L668.5 85.5" fill-rule="nonzero"/><path stroke="#cccccc" stroke-width="1.0" stroke-linecap="butt" d="M39.5 51.5L668.5 51.5" fill-rule="nonzero"/><clipPath id="id_0"><path d="M39.2 51.333332L668.8 51.333332L668.8 187.73782L39.2 187.73782L39.2 51.333332Z" clip-rule="nonzero"/></clipPath><path stroke="#4285f4" stroke-width="2.0" stroke-linecap="butt" clip-path="url(#id_0)" d="M39.2 56.4485L65.433334 57.471535L91.666664 91.572655L117.9 88.84457L144.13333 107.60018L170.36667 116.46648L196.6 127.71985L222.83333 127.03783L249.06667 142.04231L275.3 143.06535L301.53333 130.10692L327.76666 143.74738L354.0 151.24962L380.23334 154.31873L406.46667 157.38782L432.7 156.02377L458.93332 148.18053L485.16666 139.99625L511.4 157.38782L537.63336 158.41086L563.86664 153.29568L590.1 162.84401L616.3333 166.93614L642.56665 167.27715L668.8 169.66423" fill-rule="nonzero"/><path fill="#000000" fill-opacity="0.0" clip-path="url(#id_0)" d="M42.2 56.4485C42.2 58.105354 40.856853 59.4485 39.2 59.4485C37.543144 59.4485 36.2 58.105354 36.2 56.4485C36.2 54.79165 37.543144 53.4485 39.2 53.4485C40.856853 53.4485 42.2 54.79165 42.2 56.4485Z" fill-rule="nonzero"/><path fill="#000000" fill-opacity="0.0" clip-path="url(#id_0)" d="M68.433334 57.471535C68.433334 59.12839 67.09019 60.471535 65.433334 60.471535C63.776478 60.471535 62.433334 59.12839 62.433334 57.471535C62.433334 55.814682 63.776478 54.471535 65.433334 54.471535C67.09019 54.471535 68.433334 55.814682 68.433334 57.471535Z" fill-rule="nonzero"/><path fill="#000000" fill-opacity="0.0" clip-path="url(#id_0)" d="M94.666664 91.572655C94.666664 93.229515 93.323524 94.572655 91.666664 94.572655C90.00981 94.572655 88.666664 93.229515 88.666664 91.572655C88.666664 89.9158 90.00981 88.572655 91.666664 88.572655C93.323524 88.572655 94.666664 89.9158 94.666664 91.572655Z" fill-rule="nonzero"/><path fill="#000000" fill-opacity="0.0" clip-path="url(#id_0)" d="M120.9 88.84457C120.9 90.50142 119.556854 91.84457 117.9 91.84457C116.24315 91.84457 114.9 90.50142 114.9 88.84457C114.9 87.18771 116.24315 85.84457 117.9 85.84457C119.556854 85.84457 120.9 87.18771 120.9 88.84457Z" fill-rule="nonzero"/><path fill="#000000" fill-opacity="0.0" clip-path="url(#id_0)" d="M147.13333 107.60018C147.13333 109.25704 145.79019 110.60018 144.13333 110.60018C142.47649 110.60018 141.13333 109.25704 141.13333 107.60018C141.13333 105.94333 142.47649 104.60018 144.13333 104.60018C145.79019 104.60018 147.13333 105.94333 147.13333 107.60018Z" fill-rule="nonzero"/><path fill="#000000" fill-opacity="0.0" clip-path="url(#id_0)" d="M173.36667 116.46648C173.36667 118.12333 172.02351 119.46648 170.36667 119.46648C168.70981 119.46648 167.36667 118.12333 167.36667 116.46648C167.36667 114.80962 168.70981 113.46648 170.36667 113.46648C172.02351 113.46648 173.36667 114.80962 173.36667 116.46648Z" fill-rule="nonzero"/><path fill="#000000" fill-opacity="0.0" clip-path="url(#id_0)" d="M199.6 127.71985C199.6 129.3767 198.25685 130.71985 196.6 130.71985C194.94315 130.71985 193.6 129.3767 193.6 127.71985C193.6 126.062996 194.94315 124.71985 196.6 124.71985C198.25685 124.71985 199.6 126.062996 199.6 127.71985Z" fill-rule="nonzero"/><path fill="#000000" fill-opacity="0.0" clip-path="url(#id_0)" d="M225.83333 127.03783C225.83333 128.69467 224.49019 130.03783 222.83333 130.03783C221.17648 130.03783 219.83333 128.69467 219.83333 127.03783C219.83333 125.380974 221.17648 124.03783 222.83333 124.03783C224.49019 124.03783 225.83333 125.380974 225.83333 127.03783Z" fill-rule="nonzero"/><path fill="#000000" fill-opacity="0.0" clip-path="url(#id_0)" d="M252.06667 142.04231C252.06667 143.69917 250.72353 145.04231 249.06667 145.04231C247.4098 145.04231 246.06667 143.69917 246.06667 142.04231C246.06667 140.38547 247.4098 139.04231 249.06667 139.04231C250.72353 139.04231 252.06667 140.38547 252.06667 142.04231Z" fill-rule="nonzero"/><path fill="#000000" fill-opacity="0.0" clip-path="url(#id_0)" d="M278.3 143.06535C278.3 144.72221 276.95685 146.06535 275.3 146.06535C273.64316 146.06535 272.3 144.72221 272.3 143.06535C272.3 141.4085 273.64316 140.06535 275.3 140.06535C276.95685 140.06535 278.3 141.4085 278.3 143.06535Z" fill-rule="nonzero"/><path fill="#000000" fill-opacity="0.0" clip-path="url(#id_0)" d="M304.53333 130.10692C304.53333 131.76378 303.1902 133.10692 301.53333 133.10692C299.87646 133.10692 298.53333 131.76378 298.53333 130.10692C298.53333 128.45007 299.87646 127.106926 301.53333 127.106926C303.1902 127.106926 304.53333 128.45007 304.53333 130.10692Z" fill-rule="nonzero"/><path fill="#000000" fill-opacity="0.0" clip-path="url(#id_0)" d="M330.76666 143.74738C330.76666 145.40424 329.42352 146.74738 327.76666 146.74738C326.1098 146.74738 324.76666 145.40424 324.76666 143.74738C324.76666 142.09052 326.1098 140.74738 327.76666 140.74738C329.42352 140.74738 330.76666 142.09052 330.76666 143.74738Z" fill-rule="nonzero"/><path fill="#000000" fill-opacity="0.0" clip-path="url(#id_0)" d="M357.0 151.24962C357.0 152.90648 355.65686 154.24962 354.0 154.24962C352.34314 154.24962 351.0 152.90648 351.0 151.24962C351.0 149.59277 352.34314 148.24962 354.0 148.24962C355.65686 148.24962 357.0 149.59277 357.0 151.24962Z" fill-rule="nonzero"/><path fill="#000000" fill-opacity="0.0" clip-path="url(#id_0)" d="M383.23334 154.31873C383.23334 155.97557 381.8902 157.31873 380.23334 157.31873C378.57648 157.31873 377.23334 155.97557 377.23334 154.31873C377.23334 152.66187 378.57648 151.31873 380.23334 151.31873C381.8902 151.31873 383.23334 152.66187 383.23334 154.31873Z" fill-rule="nonzero"/><path fill="#000000" fill-opacity="0.0" clip-path="url(#id_0)" d="M409.46667 157.38782C409.46667 159.04468 408.12354 160.38782 406.46667 160.38782C404.8098 160.38782 403.46667 159.04468 403.46667 157.38782C403.46667 155.73097 404.8098 154.38782 406.46667 154.38782C408.12354 154.38782 409.46667 155.73097 409.46667 157.38782Z" fill-rule="nonzero"/><path fill="#000000" fill-opacity="0.0" clip-path="url(#id_0)" d="M435.7 156.02377C435.7 157.68063 434.35684 159.02377 432.7 159.02377C431.04315 159.02377 429.7 157.68063 429.7 156.02377C429.7 154.36693 431.04315 153.02377 432.7 153.02377C434.35684 153.02377 435.7 154.36693 435.7 156.02377Z" fill-rule="nonzero"/><path fill="#000000" fill-opacity="0.0" clip-path="url(#id_0)" d="M461.93332 148.18053C461.93332 149.83737 460.59018 151.18053 458.93332 151.18053C457.2765 151.18053 455.93332 149.83737 455.93332 148.18053C455.93332 146.52367 457.2765 145.18053 458.93332 145.18053C460.59018 145.18053 461.93332 146.52367 461.93332 148.18053Z" fill-rule="nonzero"/><path fill="#000000" fill-opacity="0.0" clip-path="url(#id_0)" d="M488.16666 139.99625C488.16666 141.6531 486.82352 142.99625 485.16666 142.99625C483.50983 142.99625 482.16666 141.6531 482.16666 139.99625C482.16666 138.3394 483.50983 136.99625 485.16666 136.99625C486.82352 136.99625 488.16666 138.3394 488.16666 139.99625Z" fill-rule="nonzero"/><path fill="#000000" fill-opacity="0.0" clip-path="url(#id_0)" d="M514.4 157.38782C514.4 159.04468 513.0569 160.38782 511.4 160.38782C509.74313 160.38782 508.4 159.04468 508.4 157.38782C508.4 155.73097 509.74313 154.38782 511.4 154.38782C513.0569 154.38782 514.4 155.73097 514.4 157.38782Z" fill-rule="nonzero"/><path fill="#000000" fill-opacity="0.0" clip-path="url(#id_0)" d="M540.63336 158.41086C540.63336 160.06772 539.29016 161.41086 537.63336 161.41086C535.9765 161.41086 534.63336 160.06772 534.63336 158.41086C534.63336 156.754 535.9765 155.41086 537.63336 155.41086C539.29016 155.41086 540.63336 156.754 540.63336 158.41086Z" fill-rule="nonzero"/><path fill="#000000" fill-opacity="0.0" clip-path="url(#id_0)" d="M566.86664 153.29568C566.86664 154.95255 565.5235 156.29568 563.86664 156.29568C562.20984 156.29568 560.86664 154.95255 560.86664 153.29568C560.86664 151.63884 562.20984 150.29568 563.86664 150.29568C565.5235 150.29568 566.86664 151.63884 566.86664 153.29568Z" fill-rule="nonzero"/><path fill="#000000" fill-opacity="0.0" clip-path="url(#id_0)" d="M593.1 162.84401C593.1 164.50085 591.75684 165.84401 590.1 165.84401C588.4431 165.84401 587.1 164.50085 587.1 162.84401C587.1 161.18715 588.4431 159.84401 590.1 159.84401C591.75684 159.84401 593.1 161.18715 593.1 162.84401Z" fill-rule="nonzero"/><path fill="#000000" fill-opacity="0.0" clip-path="url(#id_0)" d="M619.3333 166.93614C619.3333 168.59299 617.9902 169.93614 616.3333 169.93614C614.67645 169.93614 613.3333 168.59299 613.3333 166.93614C613.3333 165.27928 614.67645 163.93614 616.3333 163.93614C617.9902 163.93614 619.3333 165.27928 619.3333 166.93614Z" fill-rule="nonzero"/><path fill="#000000" fill-opacity="0.0" clip-path="url(#id_0)" d="M645.56665 167.27715C645.56665 168.934 644.2235 170.27715 642.56665 170.27715C640.9098 170.27715 639.56665 168.934 639.56665 167.27715C639.56665 165.6203 640.9098 164.27715 642.56665 164.27715C644.2235 164.27715 645.56665 165.6203 645.56665 167.27715Z" fill-rule="nonzero"/><path fill="#000000" fill-opacity="0.0" clip-path="url(#id_0)" d="M671.8 169.66423C671.8 171.32108 670.45685 172.66423 668.8 172.66423C667.1431 172.66423 665.8 171.32108 665.8 169.66423C665.8 168.00737 667.1431 166.66423 668.8 166.66423C670.45685 166.66423 671.8 168.00737 671.8 169.66423Z" fill-rule="nonzero"/><path fill="#000000" d="M26.7 187.50345Q26.7 185.9722 27.0125 185.05032Q27.325 184.11282 27.934376 183.61282Q28.559376 183.11282 29.496876 183.11282Q30.184376 183.11282 30.7 183.39407Q31.23125 183.67532 31.575 184.20657Q31.91875 184.7222 32.10625 185.4722Q32.29375 186.2222 32.29375 187.50345Q32.29375 189.01907 31.98125 189.94095Q31.684376 190.86282 31.059376 191.37845Q30.45 191.87845 29.496876 191.87845Q28.2625 191.87845 27.54375 190.98782Q26.7 189.92532 26.7 187.50345ZM27.778126 187.50345Q27.778126 189.61282 28.278126 190.31595Q28.778126 191.01907 29.496876 191.01907Q30.23125 191.01907 30.715626 190.31595Q31.215626 189.61282 31.215626 187.50345Q31.215626 185.37845 30.715626 184.69095Q30.23125 183.98782 29.48125 183.98782Q28.7625 183.98782 28.325 184.5972Q27.778126 185.37845 27.778126 187.50345Z" fill-rule="nonzero"/><path fill="#000000" d="M16.66875 157.6367L15.621875 157.6367L15.621875 150.91795Q15.23125 151.27733 14.60625 151.65233Q13.996875 152.0117 13.5125 152.18358L13.5125 151.16795Q14.3875 150.74608 15.04375 150.16795Q15.715625 149.5742 15.996875 149.0117L16.66875 149.0117L16.66875 157.6367ZM19.7 153.40233Q19.7 151.87108 20.0125 150.9492Q20.325 150.0117 20.934376 149.5117Q21.559376 149.0117 22.496876 149.0117Q23.184376 149.0117 23.7 149.29295Q24.23125 149.5742 24.575 150.10545Q24.91875 150.62108 25.10625 151.37108Q25.29375 152.12108 25.29375 153.40233Q25.29375 154.91795 24.98125 155.83983Q24.684376 156.7617 24.059376 157.27733Q23.45 157.77733 22.496876 157.77733Q21.2625 157.77733 20.54375 156.8867Q19.7 155.8242 19.7 153.40233ZM20.778126 153.40233Q20.778126 155.5117 21.278126 156.21483Q21.778126 156.91795 22.496876 156.91795Q23.23125 156.91795 23.715626 156.21483Q24.215626 155.5117 24.215626 153.40233Q24.215626 151.27733 23.715626 150.58983Q23.23125 149.8867 22.48125 149.8867Q21.7625 149.8867 21.325 150.49608Q20.778126 151.27733 20.778126 153.40233ZM26.7 153.40233Q26.7 151.87108 27.0125 150.9492Q27.325 150.0117 27.934376 149.5117Q28.559376 149.0117 29.496876 149.0117Q30.184376 149.0117 30.7 149.29295Q31.23125 149.5742 31.575 150.10545Q31.91875 150.62108 32.10625 151.37108Q32.29375 152.12108 32.29375 153.40233Q32.29375 154.91795 31.98125 155.83983Q31.684376 156.7617 31.059376 157.27733Q30.45 157.77733 29.496876 157.77733Q28.2625 157.77733 27.54375 156.8867Q26.7 155.8242 26.7 153.40233ZM27.778126 153.40233Q27.778126 155.5117 28.278126 156.21483Q28.778126 156.91795 29.496876 156.91795Q30.23125 156.91795 30.715626 156.21483Q31.215626 155.5117 31.215626 153.40233Q31.215626 151.27733 30.715626 150.58983Q30.23125 149.8867 29.48125 149.8867Q28.7625 149.8867 28.325 150.49608Q27.778126 151.27733 27.778126 153.40233Z" fill-rule="nonzero"/><path fill="#000000" d="M18.246876 122.51995L18.246876 123.535576L12.559375 123.535576Q12.559375 123.160576 12.684375 122.8012Q12.903125 122.223076 13.371875 121.660576Q13.85625 121.098076 14.7625 120.3637Q16.16875 119.20745 16.653126 118.535576Q17.153126 117.8637 17.153126 117.26995Q17.153126 116.64495 16.7 116.223076Q16.246876 115.785576 15.528125 115.785576Q14.7625 115.785576 14.309375 116.2387Q13.85625 116.691826 13.840625 117.504326L12.7625 117.39495Q12.871875 116.1762 13.590625 115.5512Q14.325 114.910576 15.559375 114.910576Q16.79375 114.910576 17.5125 115.598076Q18.23125 116.285576 18.23125 117.3012Q18.23125 117.816826 18.0125 118.316826Q17.809376 118.8012 17.309376 119.3637Q16.825 119.910576 15.7 120.8637Q14.746875 121.660576 14.465625 121.95745Q14.2 122.2387 14.028125 122.51995L18.246876 122.51995ZM19.7 119.3012Q19.7 117.76995 20.0125 116.848076Q20.325 115.910576 20.934376 115.410576Q21.559376 114.910576 22.496876 114.910576Q23.184376 114.910576 23.7 115.191826Q24.23125 115.473076 24.575 116.004326Q24.91875 116.51995 25.10625 117.26995Q25.29375 118.01995 25.29375 119.3012Q25.29375 120.816826 24.98125 121.7387Q24.684376 122.660576 24.059376 123.1762Q23.45 123.6762 22.496876 123.6762Q21.2625 123.6762 20.54375 122.785576Q19.7 121.723076 19.7 119.3012ZM20.778126 119.3012Q20.778126 121.410576 21.278126 122.1137Q21.778126 122.816826 22.496876 122.816826Q23.23125 122.816826 23.715626 122.1137Q24.215626 121.410576 24.215626 119.3012Q24.215626 117.1762 23.715626 116.4887Q23.23125 115.785576 22.48125 115.785576Q21.7625 115.785576 21.325 116.39495Q20.778126 117.1762 20.778126 119.3012ZM26.7 119.3012Q26.7 117.76995 27.0125 116.848076Q27.325 115.910576 27.934376 115.410576Q28.559376 114.910576 29.496876 114.910576Q30.184376 114.910576 30.7 115.191826Q31.23125 115.473076 31.575 116.004326Q31.91875 116.51995 32.10625 117.26995Q32.29375 118.01995 32.29375 119.3012Q32.29375 120.816826 31.98125 121.7387Q31.684376 122.660576 31.059376 123.1762Q30.45 123.6762 29.496876 123.6762Q28.2625 123.6762 27.54375 122.785576Q26.7 121.723076 26.7 119.3012ZM27.778126 119.3012Q27.778126 121.410576 28.278126 122.1137Q28.778126 122.816826 29.496876 122.816826Q30.23125 122.816826 30.715626 122.1137Q31.215626 121.410576 31.215626 119.3012Q31.215626 117.1762 30.715626 116.4887Q30.23125 115.785576 29.48125 115.785576Q28.7625 115.785576 28.325 116.39495Q27.778126 117.1762 27.778126 119.3012Z" fill-rule="nonzero"/><path fill="#000000" d="M12.7 87.16883L13.7625 87.028206Q13.934375 87.91883 14.371875 88.32508Q14.809375 88.715706 15.434375 88.715706Q16.184376 88.715706 16.7 88.20008Q17.215626 87.684456 17.215626 86.91883Q17.215626 86.20008 16.73125 85.73133Q16.2625 85.246956 15.528125 85.246956Q15.23125 85.246956 14.778125 85.371956L14.903125 84.434456Q15.0125 84.45008 15.075 84.45008Q15.746875 84.45008 16.278126 84.10633Q16.825 83.746956 16.825 83.01258Q16.825 82.434456 16.434376 82.059456Q16.04375 81.66883 15.41875 81.66883Q14.809375 81.66883 14.3875 82.059456Q13.98125 82.45008 13.871875 83.215706L12.809375 83.028206Q12.996875 81.98133 13.684375 81.403206Q14.371875 80.809456 15.3875 80.809456Q16.090626 80.809456 16.684376 81.121956Q17.278126 81.41883 17.590626 81.934456Q17.903126 82.45008 17.903126 83.04383Q17.903126 83.590706 17.60625 84.059456Q17.309376 84.51258 16.73125 84.778206Q17.48125 84.95008 17.903126 85.51258Q18.325 86.059456 18.325 86.903206Q18.325 88.028206 17.496876 88.809456Q16.684376 89.590706 15.434375 89.590706Q14.309375 89.590706 13.559375 88.91883Q12.809375 88.23133 12.7 87.16883ZM19.7 85.20008Q19.7 83.66883 20.0125 82.746956Q20.325 81.809456 20.934376 81.309456Q21.559376 80.809456 22.496876 80.809456Q23.184376 80.809456 23.7 81.090706Q24.23125 81.371956 24.575 81.903206Q24.91875 82.41883 25.10625 83.16883Q25.29375 83.91883 25.29375 85.20008Q25.29375 86.715706 24.98125 87.63758Q24.684376 88.559456 24.059376 89.07508Q23.45 89.57508 22.496876 89.57508Q21.2625 89.57508 20.54375 88.684456Q19.7 87.621956 19.7 85.20008ZM20.778126 85.20008Q20.778126 87.309456 21.278126 88.01258Q21.778126 88.715706 22.496876 88.715706Q23.23125 88.715706 23.715626 88.01258Q24.215626 87.309456 24.215626 85.20008Q24.215626 83.07508 23.715626 82.38758Q23.23125 81.684456 22.48125 81.684456Q21.7625 81.684456 21.325 82.29383Q20.778126 83.07508 20.778126 85.20008ZM26.7 85.20008Q26.7 83.66883 27.0125 82.746956Q27.325 81.809456 27.934376 81.309456Q28.559376 80.809456 29.496876 80.809456Q30.184376 80.809456 30.7 81.090706Q31.23125 81.371956 31.575 81.903206Q31.91875 82.41883 32.10625 83.16883Q32.29375 83.91883 32.29375 85.20008Q32.29375 86.715706 31.98125 87.63758Q31.684376 88.559456 31.059376 89.07508Q30.45 89.57508 29.496876 89.57508Q28.2625 89.57508 27.54375 88.684456Q26.7 87.621956 26.7 85.20008ZM27.778126 85.20008Q27.778126 87.309456 28.278126 88.01258Q28.778126 88.715706 29.496876 88.715706Q30.23125 88.715706 30.715626 88.01258Q31.215626 87.309456 31.215626 85.20008Q31.215626 83.07508 30.715626 82.38758Q30.23125 81.684456 29.48125 81.684456Q28.7625 81.684456 28.325 82.29383Q27.778126 83.07508 27.778126 85.20008Z" fill-rule="nonzero"/><path fill="#000000" d="M16.075 55.333332L16.075 53.270832L12.35625 53.270832L12.35625 52.302082L16.278126 46.739582L17.1375 46.739582L17.1375 52.302082L18.29375 52.302082L18.29375 53.270832L17.1375 53.270832L17.1375 55.333332L16.075 55.333332ZM16.075 52.302082L16.075 48.442707L13.3875 52.302082L16.075 52.302082ZM19.7 51.098957Q19.7 49.567707 20.0125 48.645832Q20.325 47.708332 20.934376 47.208332Q21.559376 46.708332 22.496876 46.708332Q23.184376 46.708332 23.7 46.989582Q24.23125 47.270832 24.575 47.802082Q24.91875 48.317707 25.10625 49.067707Q25.29375 49.817707 25.29375 51.098957Q25.29375 52.614582 24.98125 53.536457Q24.684376 54.458332 24.059376 54.973957Q23.45 55.473957 22.496876 55.473957Q21.2625 55.473957 20.54375 54.583332Q19.7 53.520832 19.7 51.098957ZM20.778126 51.098957Q20.778126 53.208332 21.278126 53.911457Q21.778126 54.614582 22.496876 54.614582Q23.23125 54.614582 23.715626 53.911457Q24.215626 53.208332 24.215626 51.098957Q24.215626 48.973957 23.715626 48.286457Q23.23125 47.583332 22.48125 47.583332Q21.7625 47.583332 21.325 48.192707Q20.778126 48.973957 20.778126 51.098957ZM26.7 51.098957Q26.7 49.567707 27.0125 48.645832Q27.325 47.708332 27.934376 47.208332Q28.559376 46.708332 29.496876 46.708332Q30.184376 46.708332 30.7 46.989582Q31.23125 47.270832 31.575 47.802082Q31.91875 48.317707 32.10625 49.067707Q32.29375 49.817707 32.29375 51.098957Q32.29375 52.614582 31.98125 53.536457Q31.684376 54.458332 31.059376 54.973957Q30.45 55.473957 29.496876 55.473957Q28.2625 55.473957 27.54375 54.583332Q26.7 53.520832 26.7 51.098957ZM27.778126 51.098957Q27.778126 53.208332 28.278126 53.911457Q28.778126 54.614582 29.496876 54.614582Q30.23125 54.614582 30.715626 53.911457Q31.215626 53.208332 31.215626 51.098957Q31.215626 48.973957 30.715626 48.286457Q30.23125 47.583332 29.48125 47.583332Q28.7625 47.583332 28.325 48.192707Q27.778126 48.973957 27.778126 51.098957Z" fill-rule="nonzero"/><path fill="#000000" d="M49.032154 231.36111L49.539967 232.24066L44.614445 235.08441Q44.426945 234.75966 44.35551 234.38593Q44.255894 233.77588 44.380592 233.05437Q44.51882 232.32504 44.93647 231.23593Q45.576195 229.53146 45.659737 228.70741Q45.756813 227.87555 45.459938 227.36134Q45.147438 226.82008 44.544083 226.68129Q43.932915 226.52898 43.31046 226.88835Q42.647408 227.27116 42.481552 227.89014Q42.315697 228.50912 42.708416 229.22058L41.720043 229.66492Q41.20539 228.55476 41.515347 227.65411Q41.83102 226.73213 42.90002 226.11494Q43.96902 225.49776 44.935226 225.73378Q45.901432 225.96979 46.409245 226.84935Q46.667057 227.2959 46.727615 227.83829Q46.79389 228.35933 46.642128 229.09647Q46.496086 229.81226 45.99837 231.2002Q45.571377 232.36687 45.476246 232.7646Q45.38683 233.14098 45.37861 233.47049L49.032154 231.36111ZM48.68122 227.84703Q47.915596 226.52092 47.725292 225.56631Q47.527176 224.59816 47.80491 223.86046Q48.096176 223.11494 48.908073 222.6462Q49.503468 222.30244 50.090633 222.28821Q50.691338 222.26614 51.254658 222.55435Q51.810165 222.82903 52.347546 223.38478Q52.884926 223.94055 53.52555 225.05016Q54.283363 226.36272 54.473667 227.31734Q54.677505 228.26414 54.39405 229.0232Q54.116318 229.7609 53.290886 230.23746Q52.221886 230.85464 51.154118 230.4427Q49.89216 229.94443 48.68122 227.84703ZM49.614906 227.30797Q50.669594 229.13474 51.454166 229.49367Q52.238743 229.85258 52.8612 229.49321Q53.497185 229.12602 53.565105 228.27492Q53.646553 227.41599 52.591866 225.58922Q51.529366 223.74892 50.752605 223.40352Q49.98156 223.03679 49.332043 223.41179Q48.709587 223.77116 48.635387 224.51764Q48.552406 225.46767 49.614906 227.30797ZM61.15651 224.36111L61.66432 225.24066L56.7388 228.08441Q56.5513 227.75966 56.479866 227.38593Q56.38025 226.77588 56.504948 226.05437Q56.643177 225.32504 57.060825 224.23593Q57.70055 222.53146 57.784092 221.70741Q57.88117 220.87555 57.584293 220.36134Q57.271793 219.82008 56.668438 219.68129Q56.05727 219.52898 55.434814 219.88835Q54.771763 220.27116 54.605907 220.89014Q54.440052 221.50912 54.83277 222.22058L53.8444 222.66492Q53.329746 221.55476 53.6397 220.65411Q53.95538 219.73213 55.024376 219.11494Q56.093376 218.49776 57.05958 218.73378Q58.02579 218.96979 58.533604 219.84935Q58.791416 220.2959 58.85197 220.83829Q58.918247 221.35933 58.766483 222.09647Q58.62044 222.81226 58.122726 224.2002Q57.695732 225.36687 57.6006 225.7646Q57.51119 226.14098 57.502964 226.47049L61.15651 224.36111ZM61.78995 222.55202L62.63979 221.89899Q63.23395 222.58435 63.81596 222.71742Q64.39016 222.83696 64.93143 222.52446Q65.58094 222.14946 65.76968 221.4451Q65.958405 220.74075 65.57559 220.0777Q65.21622 219.45525 64.56236 219.29147Q63.914227 219.10637 63.27824 219.47356Q63.021137 219.622 62.69122 219.95682L62.330723 219.08241Q62.433258 219.04126 62.487385 219.01001Q63.069244 218.67407 63.357445 218.11075Q63.651367 217.5261 63.28418 216.8901Q62.995117 216.38943 62.469326 216.25998Q61.935722 216.117 61.394455 216.4295Q60.866722 216.73419 60.69668 217.28342Q60.540173 217.82483 60.828262 218.54257L59.81436 218.91144Q59.453304 217.91107 59.759632 217.06665Q60.058147 216.2087 60.937706 215.70088Q61.546627 215.34932 62.21708 215.32309Q62.879723 215.28331 63.408165 215.57361Q63.93661 215.86389 64.23349 216.3781Q64.50693 216.8517 64.4842 217.4061Q64.45366 217.94695 64.0858 218.46605Q64.82126 218.2399 65.467865 218.5161Q66.10665 218.77876 66.52853 219.50948Q67.09103 220.48376 66.76447 221.5744Q66.451454 222.65724 65.36893 223.28224Q64.394646 223.84474 63.40919 223.63788Q62.415924 223.41748 61.78995 222.55202ZM67.58762 218.84389L67.05637 217.92374L69.87096 216.29874L70.40221 217.21889L67.58762 218.84389ZM75.88608 217.02972L74.97946 217.55316L71.62009 211.73456Q71.46148 212.2411 71.10771 212.87836Q70.75967 213.49428 70.426125 213.88531L69.91831 213.00575Q70.46515 212.2029 70.744415 211.3741Q71.029396 210.52396 70.991714 209.8962L71.57358 209.56026L75.88608 217.02972ZM82.80714 211.86111L83.31495 212.74066L78.389435 215.58441Q78.201935 215.25966 78.1305 214.88593Q78.030876 214.27588 78.15558 213.55437Q78.29381 212.82504 78.71146 211.73593Q79.35118 210.03146 79.43472 209.20741Q79.5318 208.37555 79.234924 207.86136Q78.922424 207.32008 78.31907 207.18129Q77.7079 207.02898 77.08545 207.38835Q76.42239 207.77116 76.25654 208.39014Q76.09068 209.00912 76.483406 209.72058L75.49503 210.16492Q74.98038 209.05476 75.29034 208.15413Q75.60601 207.23213 76.67501 206.61494Q77.74401 205.99776 78.71021 206.23378Q79.67642 206.4698 80.184235 207.34935Q80.44205 207.7959 80.5026 208.33829Q80.56888 208.85933 80.417114 209.59647Q80.27107 210.31227 79.77335 211.7002Q79.34637 212.86687 79.25123 213.2646Q79.16182 213.64098 79.153595 213.97049L82.80714 211.86111ZM83.17608 209.84389L82.64483 208.92374L85.45941 207.29874L85.99066 208.21889L83.17608 209.84389ZM85.92031 206.34703Q85.154686 205.02094 84.96438 204.06631Q84.766266 203.09816 85.044 202.36046Q85.335266 201.61494 86.14716 201.1462Q86.74255 200.80244 87.32973 200.78821Q87.93043 200.76614 88.493744 201.05435Q89.049255 201.32903 89.58663 201.8848Q90.124016 202.44057 90.76464 203.55016Q91.52245 204.86272 91.71275 205.81734Q91.916595 206.76414 91.63314 207.5232Q91.35541 208.2609 90.529976 208.73746Q89.460976 209.35464 88.3932 208.94272Q87.13125 208.44443 85.92031 206.34703ZM86.854 205.80797Q87.90868 207.63474 88.69326 207.99367Q89.47783 208.35258 90.10029 207.99321Q90.736275 207.62602 90.80419 206.77492Q90.88564 205.91599 89.830956 204.08922Q88.768456 202.24892 87.99169 201.90352Q87.22065 201.53679 86.57113 201.91179Q85.94868 202.27116 85.87447 203.01764Q85.7915 203.96767 86.854 205.80797ZM92.966866 204.55202L93.8167 203.89899Q94.410866 204.58435 94.992874 204.71742Q95.56707 204.83696 96.10834 204.52446Q96.75786 204.14946 96.94659 203.4451Q97.13532 202.74075 96.75251 202.0777Q96.393135 201.45525 95.73928 201.29147Q95.09114 201.10637 94.455154 201.47356Q94.19805 201.622 93.86813 201.95682L93.50764 201.08241Q93.61017 201.04126 93.6643 201.01001Q94.24616 200.67407 94.53436 200.11075Q94.82828 199.5261 94.46109 198.8901Q94.17203 198.38943 93.64624 198.25998Q93.11263 198.117 92.57137 198.4295Q92.04363 198.73419 91.8736 199.28342Q91.71708 199.82483 92.00517 200.54257L90.99127 200.91144Q90.63021 199.91107 90.93655 199.06665Q91.23506 198.2087 92.11462 197.70088Q92.72354 197.34932 93.394 197.32309Q94.05663 197.28331 94.58508 197.57361Q95.113525 197.86389 95.4104 198.3781Q95.68384 198.8517 95.66111 199.4061Q95.63058 199.94695 95.26272 200.46605Q95.99817 200.2399 96.644775 200.5161Q97.28357 200.77876 97.705444 201.50948Q98.267944 202.48376 97.94139 203.5744Q97.62837 204.65724 96.54584 205.28224Q95.57156 205.84474 94.586105 205.63788Q93.592834 205.41748 92.966866 204.55202Z" fill-rule="nonzero"/><path fill="#000000" d="M232.66548 231.36111L233.1733 232.24068L228.24777 235.08443Q228.06027 234.75966 227.98885 234.38593Q227.88922 233.77588 228.01392 233.05437Q228.15215 232.32504 228.5698 231.23593Q229.20952 229.53146 229.29306 228.70741Q229.39014 227.87555 229.09326 227.36136Q228.78076 226.82008 228.17741 226.68129Q227.56624 226.52898 226.94379 226.88835Q226.28073 227.27116 226.11488 227.89014Q225.94902 228.50912 226.34175 229.22058L225.35338 229.66492Q224.83871 228.55476 225.14868 227.65413Q225.46436 226.73213 226.53336 226.11494Q227.60236 225.49776 228.56856 225.73378Q229.53476 225.9698 230.04257 226.84935Q230.30038 227.2959 230.36095 227.83829Q230.42722 228.35933 230.27545 229.09647Q230.12941 229.81227 229.6317 231.2002Q229.20471 232.36687 229.10957 232.7646Q229.02016 233.14098 229.01193 233.47049L232.66548 231.36111ZM232.31454 227.84703Q231.54892 226.52094 231.35861 225.56631Q231.1605 224.59816 231.43823 223.86046Q231.7295 223.11494 232.5414 222.6462Q233.1368 222.30244 233.72397 222.28821Q234.32466 222.26616 234.88799 222.55435Q235.4435 222.82903 235.98088 223.3848Q236.51825 223.94057 237.15887 225.05016Q237.91669 226.36273 238.107 227.31734Q238.31084 228.26414 238.02737 229.0232Q237.74965 229.7609 236.92421 230.23746Q235.85521 230.85464 234.78745 230.44272Q233.52548 229.94444 232.31454 227.84703ZM233.24823 227.30797Q234.30292 229.13474 235.0875 229.49367Q235.87207 229.85258 236.49452 229.49321Q237.13051 229.12602 237.19843 228.27492Q237.27988 227.41599 236.22519 225.58922Q235.16269 223.74892 234.38593 223.40352Q233.61488 223.03679 232.96536 223.41179Q232.34291 223.77116 232.26872 224.51764Q232.18573 225.46767 233.24823 227.30797ZM244.78984 224.36111L245.29765 225.24068L240.37213 228.08443Q240.18463 227.75966 240.11319 227.38593Q240.01358 226.77588 240.13828 226.05437Q240.2765 225.32504 240.69415 224.23593Q241.33388 222.53146 241.41742 221.70741Q241.5145 220.87555 241.21762 220.36136Q240.90512 219.82008 240.30177 219.68129Q239.6906 219.52898 239.06815 219.88835Q238.40509 220.27116 238.23924 220.89014Q238.07338 221.50912 238.4661 222.22058L237.47772 222.66492Q236.96307 221.55476 237.27303 220.65413Q237.5887 219.73213 238.6577 219.11494Q239.7267 218.49776 240.69292 218.73378Q241.65912 218.9698 242.16693 219.84935Q242.42474 220.2959 242.4853 220.83829Q242.55157 221.35933 242.39981 222.09647Q242.25377 222.81227 241.75606 224.2002Q241.32906 225.36687 241.23393 225.7646Q241.14452 226.14098 241.13629 226.47049L244.78984 224.36111ZM245.42328 222.55202L246.27312 221.89899Q246.86728 222.58435 247.4493 222.71742Q248.02348 222.83696 248.56476 222.52446Q249.21428 222.14946 249.403 221.44511Q249.59174 220.74075 249.20892 220.0777Q248.84955 219.45525 248.1957 219.29149Q247.54756 219.10637 246.91158 219.47356Q246.65446 219.622 246.32455 219.95682L245.96405 219.08241Q246.06659 219.04126 246.12071 219.01001Q246.70258 218.67407 246.99078 218.11075Q247.2847 217.5261 246.91751 216.8901Q246.62845 216.38943 246.10266 216.25998Q245.56905 216.117 245.02779 216.4295Q244.50005 216.73419 244.33002 217.28342Q244.1735 217.82483 244.4616 218.54257L243.4477 218.91144Q243.08662 217.91107 243.39296 217.06665Q243.69148 216.2087 244.57103 215.70088Q245.17996 215.34932 245.85042 215.32309Q246.51305 215.28331 247.0415 215.57361Q247.56995 215.86389 247.86682 216.3781Q248.14026 216.85172 248.11752 217.4061Q248.08699 217.94695 247.71913 218.46605Q248.45459 218.2399 249.1012 218.5161Q249.73999 218.77878 250.16187 219.50948Q250.72437 220.48376 250.39781 221.5744Q250.0848 222.65724 249.00226 223.28224Q248.02798 223.84474 247.04253 223.63788Q246.04926 223.41748 245.42328 222.55202ZM251.22095 218.84389L250.6897 217.92374L253.5043 216.29872L254.03555 217.21887L251.22095 218.84389ZM259.5194 217.02972L258.6128 217.55316L255.25343 211.73456Q255.09482 212.24109 254.74106 212.87836Q254.393 213.49426 254.05946 213.8853L253.55165 213.00575Q254.0985 212.2029 254.37776 211.3741Q254.66275 210.52396 254.62506 209.8962L255.20692 209.56026L259.5194 217.02972ZM266.4405 211.8611L266.9483 212.74066L262.02277 215.58441Q261.83527 215.25966 261.76385 214.88593Q261.6642 214.27588 261.7889 213.55437Q261.92715 212.82504 262.3448 211.73593Q262.98453 210.03146 263.06808 209.20741Q263.16513 208.37555 262.86826 207.86134Q262.55576 207.32008 261.95242 207.18129Q261.34125 207.02896 260.71878 207.38834Q260.05573 207.77115 259.8899 208.39014Q259.72403 209.00911 260.11676 209.72057L259.1284 210.16492Q258.6137 209.05475 258.92368 208.15411Q259.23935 207.23213 260.30835 206.61494Q261.37735 205.99776 262.34357 206.23378Q263.30975 206.46979 263.81757 207.34935Q264.07538 207.7959 264.13596 208.33827Q264.2022 208.85933 264.05048 209.59647Q263.90442 210.31226 263.4067 211.70018Q262.9797 212.86687 262.88458 213.26459Q262.79517 213.64098 262.78693 213.97047L266.4405 211.8611ZM266.80942 209.84387L266.27817 208.92372L269.09274 207.29872L269.624 208.21887L266.80942 209.84387ZM275.10788 208.02972L274.20126 208.55316L270.8419 202.73456Q270.6833 203.24109 270.32953 203.87836Q269.98148 204.49426 269.64792 204.8853L269.1401 204.00575Q269.68695 203.2029 269.96622 202.3741Q270.2512 201.52396 270.21353 200.8962L270.79538 200.56026L275.10788 208.02972ZM275.61584 202.84702Q274.85022 201.52092 274.6599 200.5663Q274.4618 199.59816 274.73953 198.86046Q275.0308 198.11494 275.84268 197.6462Q276.43808 197.30244 277.02524 197.2882Q277.62595 197.26614 278.18927 197.55435Q278.74478 197.82901 279.28217 198.38478Q279.81955 198.94055 280.46017 200.05014Q281.218 201.36272 281.40826 202.31734Q281.61212 203.26414 281.32867 204.02318Q281.05093 204.76088 280.2255 205.23744Q279.1565 205.85463 278.0887 205.4427Q276.82678 204.94443 275.61584 202.84702ZM276.54953 202.30795Q277.60422 204.13474 278.3888 204.49365Q279.17334 204.85258 279.7958 204.49321Q280.4318 204.12602 280.49973 203.2749Q280.58118 202.41599 279.5265 200.5892Q278.464 198.7489 277.68723 198.40352Q276.91617 198.03677 276.26666 198.41177Q275.6442 198.77115 275.57 199.51764Q275.48703 200.46765 276.54953 202.30795Z" fill-rule="nonzero"/><path fill="#000000" d="M416.29883 231.3611L416.80664 232.24066L411.88113 235.08441Q411.69363 234.75966 411.6222 234.38593Q411.52255 233.77588 411.64728 233.05437Q411.7855 232.32504 412.20316 231.23593Q412.84286 229.53146 412.92642 228.70741Q413.0235 227.87555 412.72662 227.36134Q412.41412 226.82008 411.81076 226.68129Q411.1996 226.52896 410.57712 226.88834Q409.9141 227.27115 409.74823 227.89014Q409.58237 228.50911 409.9751 229.22057L408.98672 229.66492Q408.47208 228.55476 408.782 227.65411Q409.0977 226.73213 410.1667 226.11494Q411.2357 225.49776 412.2019 225.73378Q413.16812 225.96979 413.67593 226.84935Q413.93375 227.2959 413.9943 227.83829Q414.06058 228.35933 413.9088 229.09647Q413.76276 229.81226 413.26505 231.2002Q412.83804 232.36687 412.74292 232.76459Q412.6535 233.14098 412.6453 233.47047L416.29883 231.3611ZM415.9479 227.84703Q415.18228 226.52092 414.99197 225.5663Q414.79385 224.59816 415.0716 223.86046Q415.36285 223.11494 416.17474 222.6462Q416.77014 222.30244 417.3573 222.28821Q417.958 222.26614 418.52133 222.55435Q419.07684 222.82901 419.61423 223.38478Q420.1516 223.94055 420.79224 225.05016Q421.55005 226.36272 421.74033 227.31734Q421.94418 228.26414 421.66074 229.02318Q421.383 229.76088 420.55756 230.23744Q419.48856 230.85463 418.42078 230.4427Q417.15884 229.94443 415.9479 227.84703ZM416.8816 227.30797Q417.93628 229.13474 418.72083 229.49365Q419.5054 229.85258 420.12787 229.49321Q420.76385 229.12602 420.8318 228.2749Q420.91324 227.41599 419.85855 225.58922Q418.79605 223.7489 418.0193 223.40352Q417.24823 223.03677 416.59872 223.41177Q415.97626 223.77115 415.90207 224.51764Q415.8191 225.46765 416.8816 227.30797ZM428.4232 224.3611L428.931 225.24066L424.00546 228.08441Q423.81796 227.75966 423.74655 227.38593Q423.6469 226.77588 423.7716 226.05437Q423.90985 225.32504 424.32748 224.23593Q424.96722 222.53146 425.05078 221.70741Q425.14783 220.87555 424.85095 220.36134Q424.53845 219.82008 423.93512 219.68129Q423.32394 219.52896 422.70148 219.88834Q422.03842 220.27115 421.8726 220.89014Q421.70673 221.50911 422.09946 222.22057L421.11108 222.66492Q420.5964 221.55476 420.90637 220.65411Q421.22205 219.73213 422.29105 219.11494Q423.36005 218.49776 424.32626 218.73378Q425.29245 218.96979 425.80026 219.84935Q426.05807 220.2959 426.11865 220.83829Q426.1849 221.35933 426.03317 222.09647Q425.88712 222.81226 425.3894 224.2002Q424.9624 225.36687 424.86728 225.76459Q424.77786 226.14098 424.76962 226.47047L428.4232 224.3611ZM429.0566 222.55202L429.90646 221.89897Q430.5006 222.58434 431.08264 222.71742Q431.65683 222.83696 432.1981 222.52446Q432.84763 222.14946 433.03635 221.4451Q433.2251 220.74074 432.8423 220.0777Q432.4829 219.45523 431.82904 219.29147Q431.1809 219.10637 430.54492 219.47356Q430.2878 219.622 429.9579 219.9568L429.5974 219.08241Q429.69992 219.04126 429.75406 219.01001Q430.3359 218.67407 430.6241 218.11075Q430.91803 217.52608 430.55084 216.89009Q430.26178 216.38942 429.736 216.25998Q429.2024 216.11699 428.66113 216.42949Q428.1334 216.73418 427.96335 217.28342Q427.80685 217.82483 428.09494 218.54257L427.08102 218.91144Q426.71997 217.91107 427.0263 217.06665Q427.32483 216.2087 428.20438 215.70088Q428.8133 215.34932 429.48376 215.32307Q430.1464 215.28331 430.67484 215.5736Q431.20328 215.86389 431.50015 216.3781Q431.7736 216.8517 431.7509 217.40608Q431.72034 217.94695 431.35248 218.46605Q432.08792 218.2399 432.73453 218.5161Q433.37332 218.77876 433.7952 219.50948Q434.3577 220.48375 434.03116 221.5744Q433.71814 222.65723 432.6356 223.28223Q431.66132 223.84473 430.67587 223.63786Q429.6826 223.41748 429.0566 222.55202ZM434.8543 218.84387L434.32306 217.92372L437.13763 216.29872L437.66888 217.21887L434.8543 218.84387ZM443.15274 217.02972L442.24612 217.55316L438.88675 211.73456Q438.72815 212.24109 438.3744 212.87836Q438.02634 213.49426 437.6928 213.8853L437.185 213.00575Q437.7318 212.2029 438.01108 211.3741Q438.29608 210.52396 438.2584 209.8962L438.84024 209.56026L443.15274 217.02972ZM450.07382 211.8611L450.58163 212.74066L445.6561 215.58441Q445.4686 215.25966 445.3972 214.88593Q445.29755 214.27588 445.42224 213.55437Q445.5605 212.82504 445.97815 211.73593Q446.61786 210.03146 446.70142 209.20741Q446.79846 208.37555 446.5016 207.86134Q446.1891 207.32008 445.58575 207.18129Q444.97458 207.02896 444.3521 207.38834Q443.6891 207.77115 443.52322 208.39014Q443.35736 209.00911 443.7501 209.72057L442.76172 210.16492Q442.24707 209.05476 442.557 208.15411Q442.87268 207.23213 443.94168 206.61494Q445.01068 205.99776 445.9769 206.23378Q446.94308 206.46979 447.4509 207.34935Q447.7087 207.7959 447.7693 208.33829Q447.83554 208.85933 447.6838 209.59647Q447.53775 210.31226 447.04004 211.7002Q446.61304 212.86687 446.5179 213.26459Q446.4285 213.64098 446.42026 213.97047L450.07382 211.8611ZM450.44275 209.84387L449.9115 208.92372L452.72607 207.29872L453.25732 208.21887L450.44275 209.84387ZM458.7412 208.02972L457.8346 208.55316L454.47522 202.73456Q454.31662 203.24109 453.96286 203.87836Q453.6148 204.49426 453.28125 204.8853L452.77344 204.00575Q453.32028 203.2029 453.59955 202.3741Q453.88452 201.52396 453.84686 200.8962L454.4287 200.56026L458.7412 208.02972ZM457.6861 200.01472L457.17828 199.13516L461.99554 196.35391L462.4096 197.07109Q462.14346 198.23512 462.16638 199.89981Q462.19504 201.54315 462.58176 203.08801Q462.83667 204.18576 463.40964 205.33441L462.4624 205.88129Q461.96814 204.99391 461.57416 203.56151Q461.1937 202.12128 461.13855 200.61954Q461.09695 199.10997 461.33966 197.90535L457.6861 200.01472Z" fill-rule="nonzero"/><path fill="#000000" d="M599.9321 231.3611L600.43994 232.24066L595.51447 235.08441Q595.32697 234.75966 595.2555 234.38593Q595.1559 233.77588 595.2806 233.05437Q595.4188 232.32504 595.8365 231.23593Q596.4762 229.53146 596.55975 228.70741Q596.6568 227.87555 596.3599 227.36134Q596.0474 226.82008 595.4441 226.68129Q594.83295 226.52896 594.21045 226.88834Q593.5474 227.27115 593.38153 227.89014Q593.2157 228.50911 593.6084 229.22057L592.62006 229.66492Q592.1054 228.55476 592.41534 227.65411Q592.731 226.73213 593.80005 226.11494Q594.869 225.49776 595.8352 225.73378Q596.80145 225.96979 597.30927 226.84935Q597.5671 227.2959 597.6276 227.83829Q597.6939 228.35933 597.5421 229.09647Q597.3961 229.81226 596.8984 231.2002Q596.4714 232.36687 596.3762 232.76459Q596.28687 233.14098 596.2786 233.47047L599.9321 231.3611ZM599.58124 227.84703Q598.8156 226.52092 598.6253 225.5663Q598.4272 224.59816 598.7049 223.86046Q598.99615 223.11494 599.8081 222.6462Q600.40344 222.30244 600.99066 222.28821Q601.5914 222.26614 602.15466 222.55435Q602.71014 222.82901 603.24756 223.38478Q603.7849 223.94055 604.42554 225.05016Q605.18335 226.36272 605.37366 227.31734Q605.5775 228.26414 605.29407 229.0232Q605.0163 229.76088 604.1909 230.23744Q603.1219 230.85463 602.05414 230.4427Q600.7922 229.94443 599.58124 227.84703ZM600.5149 227.30797Q601.5696 229.13474 602.3542 229.49365Q603.13873 229.85258 603.7612 229.49321Q604.3972 229.12602 604.4651 228.2749Q604.5466 227.41599 603.4919 225.58922Q602.4294 223.7489 601.6526 223.40352Q600.8816 223.03677 600.23206 223.41177Q599.6096 223.77115 599.5354 224.51764Q599.4524 225.46765 600.5149 227.30797ZM612.0565 224.3611L612.56433 225.24066L607.6388 228.08441Q607.4513 227.75966 607.3799 227.38593Q607.2803 226.77588 607.40497 226.05437Q607.5432 225.32504 607.9608 224.23593Q608.6005 222.53146 608.6841 221.70741Q608.7812 220.87555 608.4843 220.36134Q608.1718 219.82008 607.5684 219.68129Q606.9573 219.52896 606.33484 219.88834Q605.67175 220.27115 605.5059 220.89014Q605.3401 221.50911 605.7328 222.22057L604.7444 222.66492Q604.22974 221.55476 604.53973 220.65411Q604.8554 219.73213 605.9244 219.11494Q606.9934 218.49776 607.9596 218.73378Q608.9258 218.96979 609.4336 219.84935Q609.6914 220.2959 609.75195 220.83829Q609.81824 221.35933 609.6665 222.09647Q609.52045 222.81226 609.0227 224.2002Q608.59576 225.36687 608.5006 225.76459Q608.4112 226.14098 608.40295 226.47047L612.0565 224.3611ZM612.68994 222.55202L613.5398 221.89897Q614.134 222.58435 614.71594 222.71742Q615.29016 222.83696 615.8314 222.52446Q616.48096 222.14946 616.6697 221.4451Q616.8584 220.74074 616.4756 220.0777Q616.1162 219.45523 615.46234 219.29147Q614.8142 219.10637 614.1782 219.47356Q613.92114 219.622 613.59125 219.95682L613.2307 219.08241Q613.33325 219.04126 613.3874 219.01001Q613.96924 218.67407 614.25745 218.11075Q614.5514 217.52608 614.1842 216.89009Q613.89514 216.38942 613.3693 216.25998Q612.83575 216.117 612.29443 216.4295Q611.7667 216.73419 611.5967 217.28342Q611.4402 217.82483 611.7283 218.54257L610.71436 218.91144Q610.35333 217.91107 610.65967 217.06665Q610.9581 216.2087 611.8377 215.70088Q612.44666 215.34932 613.11707 215.32307Q613.7797 215.28331 614.30817 215.5736Q614.8366 215.86389 615.1335 216.3781Q615.4069 216.8517 615.3842 217.40608Q615.35364 217.94695 614.9858 218.46605Q615.72125 218.2399 616.36786 218.5161Q617.00665 218.77876 617.4285 219.50948Q617.991 220.48375 617.6645 221.5744Q617.35144 222.65723 616.2689 223.28223Q615.2947 223.84473 614.3092 223.63786Q613.3159 223.41748 612.68994 222.55202ZM618.4876 218.84387L617.95636 217.92372L620.77094 216.29872L621.3022 217.21887L618.4876 218.84387ZM626.7861 217.02972L625.87946 217.55316L622.5201 211.73456Q622.3615 212.24109 622.00775 212.87836Q621.65967 213.49428 621.3261 213.8853L620.8183 213.00575Q621.3652 212.2029 621.6444 211.3741Q621.9294 210.52396 621.8917 209.8962L622.4736 209.56026L626.7861 217.02972ZM633.70715 211.8611L634.21497 212.74066L629.2894 215.58441Q629.1019 215.25966 629.0305 214.88593Q628.9309 214.27588 629.0556 213.55437Q629.19385 212.82504 629.61145 211.73593Q630.25116 210.03146 630.3347 209.20741Q630.4318 208.37555 630.13495 207.86134Q629.82245 207.32008 629.21906 207.18129Q628.6079 207.02896 627.9855 207.38834Q627.3224 207.77115 627.15656 208.39014Q626.9907 209.00911 627.3834 209.72057L626.395 210.16492Q625.8804 209.05476 626.19037 208.15411Q626.50604 207.23213 627.575 206.61494Q628.64404 205.99776 629.6102 206.23378Q630.5764 206.46979 631.0842 207.34935Q631.34204 207.7959 631.4026 208.33829Q631.4689 208.85933 631.31714 209.59647Q631.1711 210.31226 630.67334 211.7002Q630.2464 212.86687 630.15125 213.26459Q630.0618 213.64098 630.0536 213.97047L633.70715 211.8611ZM634.0761 209.84387L633.54486 208.92372L636.35944 207.29872L636.8907 208.21887L634.0761 209.84387ZM643.2334 206.3611L643.7412 207.24066L638.81573 210.08441Q638.62823 209.75966 638.55676 209.38593Q638.45715 208.77588 638.58185 208.05437Q638.7201 207.32504 639.13776 206.23593Q639.77747 204.53146 639.861 203.70741Q639.95807 202.87555 639.6612 202.36134Q639.3487 201.82008 638.74536 201.68129Q638.1342 201.52896 637.5117 201.88834Q636.8487 202.27115 636.6828 202.89014Q636.51697 203.50911 636.90967 204.22057L635.9213 204.66492Q635.4067 203.55476 635.7166 202.65411Q636.0323 201.73213 637.1013 201.11494Q638.1703 200.49776 639.1365 200.73378Q640.1027 200.96979 640.61053 201.84935Q640.86835 202.2959 640.9289 202.83829Q640.9952 203.35933 640.8434 204.09647Q640.6974 204.81226 640.19965 206.2002Q639.77264 207.36687 639.6775 207.76459Q639.58813 208.14098 639.5799 208.47047L643.2334 206.3611ZM647.92255 204.8266L646.8913 203.04042L643.6707 204.8998L643.18634 204.06084L643.8016 197.28264L644.5458 196.85295L647.327 201.67021L648.32837 201.09209L648.81274 201.93105L647.8114 202.50917L648.84265 204.29535L647.92255 204.8266ZM646.4069 202.20146L644.47723 198.85915L644.07947 203.54521L646.4069 202.20146Z" fill-rule="nonzero"/><path fill="#757575" d="M137.76613 31.2L137.76613 16.8875L142.688 16.8875Q144.35988 16.8875 145.2505 17.090626Q146.46925 17.371876 147.34425 18.10625Q148.46925 19.075 149.03175 20.559376Q149.59425 22.04375 149.59425 23.965626Q149.59425 25.590626 149.21925 26.85625Q148.84425 28.10625 148.23488 28.934376Q147.64113 29.7625 146.938 30.246876Q146.23488 30.715626 145.23488 30.965626Q144.23488 31.2 142.92238 31.2L137.76613 31.2ZM139.65675 29.5125L142.71925 29.5125Q144.1255 29.5125 144.92238 29.246876Q145.73488 28.98125 146.21925 28.496876Q146.89113 27.825 147.26613 26.7Q147.64113 25.559376 147.64113 23.934376Q147.64113 21.684376 146.90675 20.48125Q146.17238 19.278126 145.10988 18.871876Q144.35988 18.575 142.67238 18.575L139.65675 18.575L139.65675 29.5125ZM158.313 29.91875Q157.32863 30.746876 156.42238 31.090626Q155.51613 31.434376 154.48488 31.434376Q152.78175 31.434376 151.85988 30.60625Q150.938 29.7625 150.938 28.465626Q150.938 27.7 151.28175 27.075Q151.64113 26.45 152.20363 26.075Q152.76613 25.684376 153.46925 25.48125Q153.98488 25.35625 155.03175 25.215626Q157.15675 24.965626 158.15675 24.621876Q158.17238 24.2625 158.17238 24.153126Q158.17238 23.090626 157.67238 22.6375Q157.0005 22.04375 155.67238 22.04375Q154.42238 22.04375 153.82863 22.48125Q153.2505 22.91875 152.96925 24.028126L151.2505 23.79375Q151.48488 22.684376 152.01613 22.0125Q152.54738 21.325 153.563 20.965626Q154.57863 20.590626 155.92238 20.590626Q157.2505 20.590626 158.07863 20.903126Q158.90675 21.215626 159.29738 21.7Q159.688 22.16875 159.84425 22.8875Q159.938 23.340626 159.938 24.5125L159.938 26.85625Q159.938 29.309376 160.04738 29.965626Q160.15675 30.60625 160.5005 31.2L158.65675 31.2Q158.39113 30.653126 158.313 29.91875ZM158.15675 25.996876Q157.20363 26.3875 155.28175 26.653126Q154.20363 26.809376 153.7505 27.0125Q153.313 27.2 153.063 27.575Q152.813 27.95 152.813 28.41875Q152.813 29.121876 153.34425 29.590626Q153.8755 30.059376 154.90675 30.059376Q155.92238 30.059376 156.70363 29.621876Q157.5005 29.16875 157.8755 28.403126Q158.15675 27.79375 158.15675 26.6375L158.15675 25.996876ZM162.54738 18.903126L162.54738 16.8875L164.313 16.8875L164.313 18.903126L162.54738 18.903126ZM162.54738 31.2L162.54738 20.825L164.313 20.825L164.313 31.2L162.54738 31.2ZM166.5005 31.2L166.5005 16.8875L168.2505 16.8875L168.2505 31.2L166.5005 31.2ZM170.45363 35.2L170.26613 33.54375Q170.84425 33.7 171.26613 33.7Q171.85988 33.7 172.20363 33.496876Q172.563 33.309376 172.78175 32.965626Q172.95363 32.7 173.32863 31.653126Q173.3755 31.496876 173.48488 31.215626L169.54738 20.825L171.438 20.825L173.59425 26.840626Q174.01613 27.98125 174.34425 29.23125Q174.65675 28.028126 175.063 26.871876L177.28175 20.825L179.04738 20.825L175.09425 31.371876Q174.46925 33.090626 174.10988 33.73125Q173.64113 34.60625 173.03175 34.996876Q172.438 35.403126 171.59425 35.403126Q171.07863 35.403126 170.45363 35.2ZM186.1255 26.60625L187.90675 26.45Q188.03175 27.5125 188.48488 28.2Q188.95363 28.8875 189.92238 29.325Q190.90675 29.746876 192.14113 29.746876Q193.21925 29.746876 194.04738 29.434376Q194.8755 29.10625 195.28175 28.54375Q195.688 27.98125 195.688 27.309376Q195.688 26.6375 195.29738 26.1375Q194.90675 25.6375 194.01613 25.29375Q193.438 25.059376 191.45363 24.590626Q189.48488 24.121876 188.70363 23.7Q187.67238 23.16875 187.17238 22.371876Q186.67238 21.575 186.67238 20.590626Q186.67238 19.496876 187.28175 18.559376Q187.89113 17.621876 189.07863 17.1375Q190.26613 16.6375 191.70363 16.6375Q193.29738 16.6375 194.51613 17.153126Q195.73488 17.66875 196.3755 18.66875Q197.03175 19.653126 197.07863 20.91875L195.26613 21.059376Q195.1255 19.7 194.28175 19.0125Q193.438 18.309376 191.78175 18.309376Q190.063 18.309376 189.26613 18.95Q188.48488 19.575 188.48488 20.45Q188.48488 21.23125 189.04738 21.73125Q189.59425 22.23125 191.90675 22.746876Q194.21925 23.2625 195.07863 23.653126Q196.32863 24.23125 196.92238 25.121876Q197.51613 25.996876 197.51613 27.153126Q197.51613 28.29375 196.85988 29.309376Q196.20363 30.325 194.96925 30.8875Q193.7505 31.45 192.21925 31.45Q190.28175 31.45 188.96925 30.8875Q187.65675 30.309376 186.90675 29.16875Q186.15675 28.028126 186.1255 26.60625ZM206.313 27.403126L208.03175 27.621876Q207.7505 29.41875 206.57863 30.434376Q205.42238 31.434376 203.71925 31.434376Q201.59425 31.434376 200.29738 30.04375Q199.0005 28.653126 199.0005 26.059376Q199.0005 24.371876 199.54738 23.121876Q200.10988 21.85625 201.2505 21.23125Q202.39113 20.590626 203.73488 20.590626Q205.42238 20.590626 206.48488 21.45Q207.563 22.309376 207.8755 23.871876L206.15675 24.1375Q205.92238 23.090626 205.29738 22.575Q204.67238 22.04375 203.79738 22.04375Q202.46925 22.04375 201.64113 22.996876Q200.813 23.95 200.813 25.996876Q200.813 28.090626 201.60988 29.04375Q202.40675 29.98125 203.70363 29.98125Q204.73488 29.98125 205.42238 29.35625Q206.1255 28.715626 206.313 27.403126ZM216.313 29.91875Q215.32863 30.746876 214.42238 31.090626Q213.51613 31.434376 212.48488 31.434376Q210.78175 31.434376 209.85988 30.60625Q208.938 29.7625 208.938 28.465626Q208.938 27.7 209.28175 27.075Q209.64113 26.45 210.20363 26.075Q210.76613 25.684376 211.46925 25.48125Q211.98488 25.35625 213.03175 25.215626Q215.15675 24.965626 216.15675 24.621876Q216.17238 24.2625 216.17238 24.153126Q216.17238 23.090626 215.67238 22.6375Q215.0005 22.04375 213.67238 22.04375Q212.42238 22.04375 211.82863 22.48125Q211.2505 22.91875 210.96925 24.028126L209.2505 23.79375Q209.48488 22.684376 210.01613 22.0125Q210.54738 21.325 211.563 20.965626Q212.57863 20.590626 213.92238 20.590626Q215.2505 20.590626 216.07863 20.903126Q216.90675 21.215626 217.29738 21.7Q217.688 22.16875 217.84425 22.8875Q217.938 23.340626 217.938 24.5125L217.938 26.85625Q217.938 29.309376 218.04738 29.965626Q218.15675 30.60625 218.5005 31.2L216.65675 31.2Q216.39113 30.653126 216.313 29.91875ZM216.15675 25.996876Q215.20363 26.3875 213.28175 26.653126Q212.20363 26.809376 211.7505 27.0125Q211.313 27.2 211.063 27.575Q210.813 27.95 210.813 28.41875Q210.813 29.121876 211.34425 29.590626Q211.8755 30.059376 212.90675 30.059376Q213.92238 30.059376 214.70363 29.621876Q215.5005 29.16875 215.8755 28.403126Q216.15675 27.79375 216.15675 26.6375L216.15675 25.996876ZM220.5005 31.2L220.5005 16.8875L222.2505 16.8875L222.2505 31.2L220.5005 31.2ZM231.313 29.91875Q230.32863 30.746876 229.42238 31.090626Q228.51613 31.434376 227.48488 31.434376Q225.78175 31.434376 224.85988 30.60625Q223.938 29.7625 223.938 28.465626Q223.938 27.7 224.28175 27.075Q224.64113 26.45 225.20363 26.075Q225.76613 25.684376 226.46925 25.48125Q226.98488 25.35625 228.03175 25.215626Q230.15675 24.965626 231.15675 24.621876Q231.17238 24.2625 231.17238 24.153126Q231.17238 23.090626 230.67238 22.6375Q230.0005 22.04375 228.67238 22.04375Q227.42238 22.04375 226.82863 22.48125Q226.2505 22.91875 225.96925 24.028126L224.2505 23.79375Q224.48488 22.684376 225.01613 22.0125Q225.54738 21.325 226.563 20.965626Q227.57863 20.590626 228.92238 20.590626Q230.2505 20.590626 231.07863 20.903126Q231.90675 21.215626 232.29738 21.7Q232.688 22.16875 232.84425 22.8875Q232.938 23.340626 232.938 24.5125L232.938 26.85625Q232.938 29.309376 233.04738 29.965626Q233.15675 30.60625 233.5005 31.2L231.65675 31.2Q231.39113 30.653126 231.313 29.91875ZM231.15675 25.996876Q230.20363 26.3875 228.28175 26.653126Q227.20363 26.809376 226.7505 27.0125Q226.313 27.2 226.063 27.575Q225.813 27.95 225.813 28.41875Q225.813 29.121876 226.34425 29.590626Q226.8755 30.059376 227.90675 30.059376Q228.92238 30.059376 229.70363 29.621876Q230.5005 29.16875 230.8755 28.403126Q231.15675 27.79375 231.15675 26.6375L231.15675 25.996876ZM240.188 31.2L245.688 16.8875L247.73488 16.8875L253.59425 31.2L251.438 31.2L249.76613 26.85625L243.78175 26.85625L242.20363 31.2L240.188 31.2ZM244.32863 25.325L249.17238 25.325L247.688 21.35625Q247.0005 19.54375 246.67238 18.3875Q246.39113 19.7625 245.89113 21.121876L244.32863 25.325ZM261.2661 31.2L261.2661 29.8875Q260.28174 31.434376 258.35986 31.434376Q257.1255 31.434376 256.0786 30.746876Q255.04738 30.059376 254.46925 28.840626Q253.90675 27.621876 253.90675 26.028126Q253.90675 24.465626 254.42238 23.2Q254.938 21.934376 255.96925 21.2625Q257.0161 20.590626 258.28174 20.590626Q259.21924 20.590626 259.9536 20.996876Q260.688 21.3875 261.15674 22.0125L261.15674 16.8875L262.8911 16.8875L262.8911 31.2L261.2661 31.2ZM255.70363 26.028126Q255.70363 28.0125 256.54736 28.996876Q257.3911 29.98125 258.53174 29.98125Q259.688 29.98125 260.48486 29.04375Q261.29736 28.10625 261.29736 26.16875Q261.29736 24.04375 260.46924 23.04375Q259.65674 22.04375 258.4536 22.04375Q257.28174 22.04375 256.48486 23.0125Q255.70363 23.965626 255.70363 26.028126ZM268.42236 31.2L264.46924 20.825L266.3286 20.825L268.563 27.04375Q268.92236 28.04375 269.21924 29.121876Q269.4536 28.309376 269.8755 27.153126L272.17236 20.825L273.98486 20.825L270.063 31.2L268.42236 31.2ZM281.6411 27.85625L283.4536 28.090626Q283.03174 29.66875 281.85986 30.559376Q280.7036 31.434376 278.8911 31.434376Q276.6255 31.434376 275.28174 30.04375Q273.9536 28.6375 273.9536 26.10625Q273.9536 23.48125 275.29736 22.04375Q276.6411 20.590626 278.79736 20.590626Q280.8755 20.590626 282.188 22.0125Q283.5161 23.41875 283.5161 25.996876Q283.5161 26.153126 283.5005 26.465626L275.7661 26.465626Q275.85986 28.16875 276.73486 29.075Q277.60986 29.98125 278.90674 29.98125Q279.8755 29.98125 280.54736 29.48125Q281.23486 28.965626 281.6411 27.85625ZM275.85986 25.0125L281.65674 25.0125Q281.54736 23.715626 281.0005 23.059376Q280.15674 22.04375 278.813 22.04375Q277.60986 22.04375 276.78174 22.85625Q275.9536 23.653126 275.85986 25.0125ZM285.53174 31.2L285.53174 20.825L287.1255 20.825L287.1255 22.309376Q288.2661 20.590626 290.42236 20.590626Q291.35986 20.590626 292.1411 20.934376Q292.938 21.2625 293.3286 21.809376Q293.71924 22.35625 293.8755 23.10625Q293.96924 23.60625 293.96924 24.825L293.96924 31.2L292.2036 31.2L292.2036 24.8875Q292.2036 23.809376 292.0005 23.278126Q291.79736 22.746876 291.2661 22.434376Q290.7505 22.121876 290.04736 22.121876Q288.92236 22.121876 288.10986 22.840626Q287.29736 23.54375 287.29736 25.528126L287.29736 31.2L285.53174 31.2ZM299.3755 29.621876L299.6255 31.184376Q298.8911 31.340626 298.29736 31.340626Q297.34424 31.340626 296.813 31.04375Q296.29736 30.73125 296.0786 30.246876Q295.85986 29.746876 295.85986 28.16875L295.85986 22.2L294.5786 22.2L294.5786 20.825L295.85986 20.825L295.85986 18.2625L297.60986 17.2L297.60986 20.825L299.3755 20.825L299.3755 22.2L297.60986 22.2L297.60986 28.2625Q297.60986 29.0125 297.7036 29.23125Q297.79736 29.434376 298.0005 29.575Q298.21924 29.7 298.60986 29.7Q298.8911 29.7 299.3755 29.621876ZM306.8911 26.0125Q306.8911 23.1375 308.48486 21.746876Q309.8286 20.590626 311.7505 20.590626Q313.8911 20.590626 315.23486 21.996876Q316.59424 23.403126 316.59424 25.871876Q316.59424 27.871876 316.0005 29.028126Q315.40674 30.16875 314.2505 30.809376Q313.10986 31.434376 311.7505 31.434376Q309.563 31.434376 308.21924 30.04375Q306.8911 28.6375 306.8911 26.0125ZM308.688 26.0125Q308.688 28.0125 309.54736 28.996876Q310.42236 29.98125 311.7505 29.98125Q313.063 29.98125 313.92236 28.996876Q314.79736 27.996876 314.79736 25.95Q314.79736 24.028126 313.92236 23.04375Q313.04736 22.04375 311.7505 22.04375Q310.42236 22.04375 309.54736 23.04375Q308.688 24.028126 308.688 26.0125ZM318.9536 31.2L318.9536 22.2L317.40674 22.2L317.40674 20.825L318.9536 20.825L318.9536 19.73125Q318.9536 18.684376 319.1411 18.16875Q319.3911 17.48125 320.03174 17.059376Q320.67236 16.6375 321.8286 16.6375Q322.5786 16.6375 323.46924 16.809376L323.2036 18.340626Q322.65674 18.246876 322.17236 18.246876Q321.3755 18.246876 321.03174 18.590626Q320.7036 18.934376 320.7036 19.871876L320.7036 20.825L322.73486 20.825L322.73486 22.2L320.7036 22.2L320.7036 31.2L318.9536 31.2ZM340.98486 26.184376L342.8755 26.653126Q342.28174 28.996876 340.73486 30.23125Q339.188 31.45 336.938 31.45Q334.6255 31.45 333.17236 30.5125Q331.73486 29.559376 330.96924 27.778126Q330.21924 25.98125 330.21924 23.934376Q330.21924 21.7 331.063 20.04375Q331.92236 18.371876 333.5005 17.5125Q335.0786 16.6375 336.96924 16.6375Q339.1255 16.6375 340.5786 17.73125Q342.04736 18.825 342.6255 20.809376L340.7661 21.246876Q340.2661 19.684376 339.313 18.98125Q338.3755 18.2625 336.938 18.2625Q335.28174 18.2625 334.17236 19.059376Q333.063 19.840626 332.60986 21.184376Q332.17236 22.5125 332.17236 23.91875Q332.17236 25.746876 332.7036 27.121876Q333.23486 28.48125 334.35986 29.153126Q335.48486 29.825 336.78174 29.825Q338.3755 29.825 339.48486 28.903126Q340.59424 27.98125 340.98486 26.184376ZM343.8911 26.0125Q343.8911 23.1375 345.48486 21.746876Q346.8286 20.590626 348.7505 20.590626Q350.8911 20.590626 352.23486 21.996876Q353.59424 23.403126 353.59424 25.871876Q353.59424 27.871876 353.0005 29.028126Q352.40674 30.16875 351.2505 30.809376Q350.10986 31.434376 348.7505 31.434376Q346.563 31.434376 345.21924 30.04375Q343.8911 28.6375 343.8911 26.0125ZM345.688 26.0125Q345.688 28.0125 346.54736 28.996876Q347.42236 29.98125 348.7505 29.98125Q350.063 29.98125 350.92236 28.996876Q351.79736 27.996876 351.79736 25.95Q351.79736 24.028126 350.92236 23.04375Q350.04736 22.04375 348.7505 22.04375Q347.42236 22.04375 346.54736 23.04375Q345.688 24.028126 345.688 26.0125ZM362.2661 31.2L362.2661 29.8875Q361.28174 31.434376 359.35986 31.434376Q358.1255 31.434376 357.0786 30.746876Q356.04736 30.059376 355.46924 28.840626Q354.90674 27.621876 354.90674 26.028126Q354.90674 24.465626 355.42236 23.2Q355.938 21.934376 356.96924 21.2625Q358.0161 20.590626 359.28174 20.590626Q360.21924 20.590626 360.9536 20.996876Q361.688 21.3875 362.15674 22.0125L362.15674 16.8875L363.8911 16.8875L363.8911 31.2L362.2661 31.2ZM356.7036 26.028126Q356.7036 28.0125 357.54736 28.996876Q358.3911 29.98125 359.53174 29.98125Q360.688 29.98125 361.48486 29.04375Q362.29736 28.10625 362.29736 26.16875Q362.29736 24.04375 361.46924 23.04375Q360.65674 22.04375 359.4536 22.04375Q358.28174 22.04375 357.48486 23.0125Q356.7036 23.965626 356.7036 26.028126ZM373.6411 27.85625L375.4536 28.090626Q375.03174 29.66875 373.85986 30.559376Q372.7036 31.434376 370.8911 31.434376Q368.6255 31.434376 367.28174 30.04375Q365.9536 28.6375 365.9536 26.10625Q365.9536 23.48125 367.29736 22.04375Q368.6411 20.590626 370.79736 20.590626Q372.8755 20.590626 374.188 22.0125Q375.5161 23.41875 375.5161 25.996876Q375.5161 26.153126 375.5005 26.465626L367.7661 26.465626Q367.85986 28.16875 368.73486 29.075Q369.60986 29.98125 370.90674 29.98125Q371.8755 29.98125 372.54736 29.48125Q373.23486 28.965626 373.6411 27.85625ZM367.85986 25.0125L373.65674 25.0125Q373.54736 23.715626 373.0005 23.059376Q372.15674 22.04375 370.813 22.04375Q369.60986 22.04375 368.78174 22.85625Q367.9536 23.653126 367.85986 25.0125ZM386.42236 31.2L382.46924 20.825L384.3286 20.825L386.563 27.04375Q386.92236 28.04375 387.21924 29.121876Q387.4536 28.309376 387.8755 27.153126L390.17236 20.825L391.98486 20.825L388.063 31.2L386.42236 31.2ZM392.54736 18.903126L392.54736 16.8875L394.313 16.8875L394.313 18.903126L392.54736 18.903126ZM392.54736 31.2L392.54736 20.825L394.313 20.825L394.313 31.2L392.54736 31.2ZM395.8286 28.10625L397.5786 27.825Q397.71924 28.871876 398.3911 29.434376Q399.063 29.98125 400.2661 29.98125Q401.46924 29.98125 402.04736 29.496876Q402.6411 28.996876 402.6411 28.340626Q402.6411 27.746876 402.1255 27.403126Q401.7661 27.16875 400.3286 26.809376Q398.3911 26.309376 397.6411 25.965626Q396.90674 25.60625 396.5161 24.98125Q396.1255 24.340626 396.1255 23.575Q396.1255 22.8875 396.438 22.29375Q396.7661 21.7 397.313 21.309376Q397.71924 21.0125 398.42236 20.809376Q399.1411 20.590626 399.9536 20.590626Q401.17236 20.590626 402.09424 20.95Q403.0161 21.29375 403.4536 21.903126Q403.8911 22.496876 404.063 23.496876L402.34424 23.73125Q402.21924 22.934376 401.65674 22.496876Q401.09424 22.04375 400.0786 22.04375Q398.85986 22.04375 398.34424 22.45Q397.8286 22.840626 397.8286 23.371876Q397.8286 23.715626 398.04736 23.996876Q398.2505 24.278126 398.71924 24.465626Q398.98486 24.559376 400.2661 24.903126Q402.1411 25.403126 402.8755 25.73125Q403.60986 26.04375 404.03174 26.653126Q404.4536 27.246876 404.4536 28.153126Q404.4536 29.028126 403.938 29.809376Q403.42236 30.590626 402.4536 31.0125Q401.48486 31.434376 400.2661 31.434376Q398.2505 31.434376 397.188 30.590626Q396.1255 29.746876 395.8286 28.10625ZM406.54736 18.903126L406.54736 16.8875L408.313 16.8875L408.313 18.903126L406.54736 18.903126ZM406.54736 31.2L406.54736 20.825L408.313 20.825L408.313 31.2L406.54736 31.2ZM414.3755 29.621876L414.6255 31.184376Q413.8911 31.340626 413.29736 31.340626Q412.34424 31.340626 411.813 31.04375Q411.29736 30.73125 411.0786 30.246876Q410.85986 29.746876 410.85986 28.16875L410.85986 22.2L409.5786 22.2L409.5786 20.825L410.85986 20.825L410.85986 18.2625L412.60986 17.2L412.60986 20.825L414.3755 20.825L414.3755 22.2L412.60986 22.2L412.60986 28.2625Q412.60986 29.0125 412.7036 29.23125Q412.79736 29.434376 413.0005 29.575Q413.21924 29.7 413.60986 29.7Q413.8911 29.7 414.3755 29.621876ZM415.8911 26.0125Q415.8911 23.1375 417.48486 21.746876Q418.8286 20.590626 420.7505 20.590626Q422.8911 20.590626 424.23486 21.996876Q425.59424 23.403126 425.59424 25.871876Q425.59424 27.871876 425.0005 29.028126Q424.40674 30.16875 423.2505 30.809376Q422.10986 31.434376 420.7505 31.434376Q418.563 31.434376 417.21924 30.04375Q415.8911 28.6375 415.8911 26.0125ZM417.688 26.0125Q417.688 28.0125 418.54736 28.996876Q419.42236 29.98125 420.7505 29.98125Q422.063 29.98125 422.92236 28.996876Q423.79736 27.996876 423.79736 25.95Q423.79736 24.028126 422.92236 23.04375Q422.04736 22.04375 420.7505 22.04375Q419.42236 22.04375 418.54736 23.04375Q417.688 24.028126 417.688 26.0125ZM427.5161 31.2L427.5161 20.825L429.09424 20.825L429.09424 22.403126Q429.7036 21.29375 430.21924 20.95Q430.73486 20.590626 431.34424 20.590626Q432.23486 20.590626 433.15674 21.153126L432.54736 22.79375Q431.90674 22.403126 431.2661 22.403126Q430.688 22.403126 430.21924 22.7625Q429.7661 23.10625 429.563 23.715626Q429.28174 24.653126 429.28174 25.7625L429.28174 31.2L427.5161 31.2ZM433.8286 28.10625L435.5786 27.825Q435.71924 28.871876 436.3911 29.434376Q437.063 29.98125 438.2661 29.98125Q439.46924 29.98125 440.04736 29.496876Q440.6411 28.996876 440.6411 28.340626Q440.6411 27.746876 440.1255 27.403126Q439.7661 27.16875 438.3286 26.809376Q436.3911 26.309376 435.6411 25.965626Q434.90674 25.60625 434.5161 24.98125Q434.1255 24.340626 434.1255 23.575Q434.1255 22.8875 434.438 22.29375Q434.7661 21.7 435.313 21.309376Q435.71924 21.0125 436.42236 20.809376Q437.1411 20.590626 437.9536 20.590626Q439.17236 20.590626 440.09424 20.95Q441.0161 21.29375 441.4536 21.903126Q441.8911 22.496876 442.063 23.496876L440.34424 23.73125Q440.21924 22.934376 439.65674 22.496876Q439.09424 22.04375 438.0786 22.04375Q436.85986 22.04375 436.34424 22.45Q435.8286 22.840626 435.8286 23.371876Q435.8286 23.715626 436.04736 23.996876Q436.2505 24.278126 436.71924 24.465626Q436.98486 24.559376 438.2661 24.903126Q440.1411 25.403126 440.8755 25.73125Q441.60986 26.04375 442.03174 26.653126Q442.4536 27.246876 442.4536 28.153126Q442.4536 29.028126 441.938 29.809376Q441.42236 30.590626 440.4536 31.0125Q439.48486 31.434376 438.2661 31.434376Q436.2505 31.434376 435.188 30.590626Q434.1255 29.746876 433.8286 28.10625ZM450.54736 18.903126L450.54736 16.8875L452.313 16.8875L452.313 18.903126L450.54736 18.903126ZM450.54736 31.2L450.54736 20.825L452.313 20.825L452.313 31.2L450.54736 31.2ZM454.53174 31.2L454.53174 20.825L456.1255 20.825L456.1255 22.309376Q457.2661 20.590626 459.42236 20.590626Q460.35986 20.590626 461.1411 20.934376Q461.938 21.2625 462.3286 21.809376Q462.71924 22.35625 462.8755 23.10625Q462.96924 23.60625 462.96924 24.825L462.96924 31.2L461.2036 31.2L461.2036 24.8875Q461.2036 23.809376 461.0005 23.278126Q460.79736 22.746876 460.2661 22.434376Q459.7505 22.121876 459.04736 22.121876Q457.92236 22.121876 457.10986 22.840626Q456.29736 23.54375 456.29736 25.528126L456.29736 31.2L454.53174 31.2ZM470.7661 31.2L470.7661 16.8875L475.688 16.8875Q477.35986 16.8875 478.2505 17.090626Q479.46924 17.371876 480.34424 18.10625Q481.46924 19.075 482.03174 20.559376Q482.59424 22.04375 482.59424 23.965626Q482.59424 25.590626 482.21924 26.85625Q481.84424 28.10625 481.23486 28.934376Q480.6411 29.7625 479.938 30.246876Q479.23486 30.715626 478.23486 30.965626Q477.23486 31.2 475.92236 31.2L470.7661 31.2ZM472.65674 29.5125L475.71924 29.5125Q477.1255 29.5125 477.92236 29.246876Q478.73486 28.98125 479.21924 28.496876Q479.8911 27.825 480.2661 26.7Q480.6411 25.559376 480.6411 23.934376Q480.6411 21.684376 479.90674 20.48125Q479.17236 19.278126 478.10986 18.871876Q477.35986 18.575 475.67236 18.575L472.65674 18.575L472.65674 29.5125ZM491.6411 27.85625L493.4536 28.090626Q493.03174 29.66875 491.85986 30.559376Q490.7036 31.434376 488.8911 31.434376Q486.6255 31.434376 485.28174 30.04375Q483.9536 28.6375 483.9536 26.10625Q483.9536 23.48125 485.29736 22.04375Q486.6411 20.590626 488.79736 20.590626Q490.8755 20.590626 492.188 22.0125Q493.5161 23.41875 493.5161 25.996876Q493.5161 26.153126 493.5005 26.465626L485.7661 26.465626Q485.85986 28.16875 486.73486 29.075Q487.60986 29.98125 488.90674 29.98125Q489.8755 29.98125 490.54736 29.48125Q491.23486 28.965626 491.6411 27.85625ZM485.85986 25.0125L491.65674 25.0125Q491.54736 23.715626 491.0005 23.059376Q490.15674 22.04375 488.813 22.04375Q487.60986 22.04375 486.78174 22.85625Q485.9536 23.653126 485.85986 25.0125ZM502.313 27.403126L504.03174 27.621876Q503.7505 29.41875 502.5786 30.434376Q501.42236 31.434376 499.71924 31.434376Q497.59424 31.434376 496.29736 30.04375Q495.0005 28.653126 495.0005 26.059376Q495.0005 24.371876 495.54736 23.121876Q496.10986 21.85625 497.2505 21.23125Q498.3911 20.590626 499.73486 20.590626Q501.42236 20.590626 502.48486 21.45Q503.563 22.309376 503.8755 23.871876L502.15674 24.1375Q501.92236 23.090626 501.29736 22.575Q500.67236 22.04375 499.79736 22.04375Q498.46924 22.04375 497.6411 22.996876Q496.813 23.95 496.813 25.996876Q496.813 28.090626 497.60986 29.04375Q498.40674 29.98125 499.7036 29.98125Q500.73486 29.98125 501.42236 29.35625Q502.1255 28.715626 502.313 27.403126ZM512.6411 27.85625L514.4536 28.090626Q514.03174 29.66875 512.85986 30.559376Q511.7036 31.434376 509.8911 31.434376Q507.6255 31.434376 506.28174 30.04375Q504.9536 28.6375 504.9536 26.10625Q504.9536 23.48125 506.29736 22.04375Q507.6411 20.590626 509.79736 20.590626Q511.8755 20.590626 513.188 22.0125Q514.5161 23.41875 514.5161 25.996876Q514.5161 26.153126 514.5005 26.465626L506.7661 26.465626Q506.85986 28.16875 507.73486 29.075Q508.60986 29.98125 509.90674 29.98125Q510.8755 29.98125 511.54736 29.48125Q512.23486 28.965626 512.6411 27.85625ZM506.85986 25.0125L512.65674 25.0125Q512.54736 23.715626 512.0005 23.059376Q511.15674 22.04375 509.813 22.04375Q508.60986 22.04375 507.78174 22.85625Q506.9536 23.653126 506.85986 25.0125ZM516.53174 31.2L516.53174 20.825L518.10986 20.825L518.10986 22.278126Q518.59424 21.528126 519.40674 21.059376Q520.21924 20.590626 521.2505 20.590626Q522.40674 20.590626 523.1411 21.075Q523.8755 21.54375 524.188 22.403126Q525.42236 20.590626 527.3911 20.590626Q528.938 20.590626 529.7661 21.45Q530.59424 22.309376 530.59424 24.075L530.59424 31.2L528.84424 31.2L528.84424 24.66875Q528.84424 23.60625 528.67236 23.153126Q528.5005 22.684376 528.04736 22.403126Q527.60986 22.121876 527.0005 22.121876Q525.90674 22.121876 525.17236 22.85625Q524.4536 23.575 524.4536 25.16875L524.4536 31.2L522.7036 31.2L522.7036 24.465626Q522.7036 23.29375 522.2661 22.715626Q521.84424 22.121876 520.85986 22.121876Q520.1255 22.121876 519.48486 22.5125Q518.85986 22.903126 518.5786 23.653126Q518.29736 24.403126 518.29736 25.825L518.29736 31.2L516.53174 31.2ZM534.15674 31.2L532.53174 31.2L532.53174 16.8875L534.28174 16.8875L534.28174 21.996876Q535.40674 20.590626 537.1255 20.590626Q538.0786 20.590626 538.938 20.98125Q539.79736 21.371876 540.34424 22.075Q540.8911 22.7625 541.2036 23.746876Q541.5161 24.73125 541.5161 25.85625Q541.5161 28.528126 540.2036 29.98125Q538.8911 31.434376 537.04736 31.434376Q535.2036 31.434376 534.15674 29.903126L534.15674 31.2ZM534.1411 25.934376Q534.1411 27.79375 534.6411 28.6375Q535.48486 29.98125 536.8911 29.98125Q538.04736 29.98125 538.8755 28.98125Q539.71924 27.98125 539.71924 25.996876Q539.71924 23.965626 538.90674 23.0125Q538.10986 22.04375 536.96924 22.04375Q535.813 22.04375 534.96924 23.04375Q534.1411 24.04375 534.1411 25.934376ZM550.6411 27.85625L552.4536 28.090626Q552.03174 29.66875 550.85986 30.559376Q549.7036 31.434376 547.8911 31.434376Q545.6255 31.434376 544.28174 30.04375Q542.9536 28.6375 542.9536 26.10625Q542.9536 23.48125 544.29736 22.04375Q545.6411 20.590626 547.79736 20.590626Q549.8755 20.590626 551.188 22.0125Q552.5161 23.41875 552.5161 25.996876Q552.5161 26.153126 552.5005 26.465626L544.7661 26.465626Q544.85986 28.16875 545.73486 29.075Q546.60986 29.98125 547.90674 29.98125Q548.8755 29.98125 549.54736 29.48125Q550.23486 28.965626 550.6411 27.85625ZM544.85986 25.0125L550.65674 25.0125Q550.54736 23.715626 550.0005 23.059376Q549.15674 22.04375 547.813 22.04375Q546.60986 22.04375 545.78174 22.85625Q544.9536 23.653126 544.85986 25.0125ZM554.5161 31.2L554.5161 20.825L556.09424 20.825L556.09424 22.403126Q556.7036 21.29375 557.21924 20.95Q557.73486 20.590626 558.34424 20.590626Q559.23486 20.590626 560.15674 21.153126L559.54736 22.79375Q558.90674 22.403126 558.2661 22.403126Q557.688 22.403126 557.21924 22.7625Q556.7661 23.10625 556.563 23.715626Q556.28174 24.653126 556.28174 25.7625L556.28174 31.2L554.5161 31.2Z" fill-rule="nonzero"/></svg>