<?xml version="1.0" standalone="no"?><!DOCTYPE svg PUBLIC "-//W3C//DTD SVG 1.1//EN" "http://www.w3.org/Graphics/SVG/1.1/DTD/svg11.dtd"><svg xmlns:xlink="http://www.w3.org/1999/xlink" version="1.1" style="font-family:'lucida grande', 'lucida sans unicode', arial, helvetica, sans-serif;font-size:12px;" xmlns="http://www.w3.org/2000/svg" width="600" height="400"><desc>Created with Highcharts 4.2.7</desc><defs><clipPath id="highcharts-44"><rect x="1" y="1" width="271" height="410"></rect></clipPath></defs><rect x="178" y="36" width="412" height="273" fill="#ffffff"></rect><path fill="rgb(255, 255, 255)" fill-opacity=" .5" d="M 177.5 36 L 177.5 309 229.5 309 229.5 36"></path><path fill="rgb(255, 255, 255)" fill-opacity=" .5" d="M 280.5 36 L 280.5 309 332.5 309 332.5 36"></path><path fill="rgb(255, 255, 255)" fill-opacity=" .5" d="M 383.5 36 L 383.5 309 435.5 309 435.5 36"></path><path fill="rgb(255, 255, 255)" fill-opacity=" .5" d="M 486.5 36 L 486.5 309 538.5 309 538.5 36"></path><g class="highcharts-grid"></g><g class="highcharts-grid"><path fill="none" d="M 177.5 36 L 177.5 309" stroke="#C0C0C0" stroke-width="1" opacity="1"></path><path fill="none" d="M 229.5 36 L 229.5 309" stroke="#C0C0C0" stroke-width="1" opacity="1"></path><path fill="none" d="M 280.5 36 L 280.5 309" stroke="#C0C0C0" stroke-width="1" opacity="1"></path><path fill="none" d="M 332.5 36 L 332.5 309" stroke="#C0C0C0" stroke-width="1" opacity="1"></path><path fill="none" d="M 383.5 36 L 383.5 309" stroke="#C0C0C0" stroke-width="1" opacity="1"></path><path fill="none" d="M 435.5 36 L 435.5 309" stroke="#C0C0C0" stroke-width="1" opacity="1"></path><path fill="none" d="M 486.5 36 L 486.5 309" stroke="#C0C0C0" stroke-width="1" opacity="1"></path><path fill="none" d="M 538.5 36 L 538.5 309" stroke="#C0C0C0" stroke-width="1" opacity="1"></path><path fill="none" d="M 590.5 36 L 590.5 309" stroke="#C0C0C0" stroke-width="1" opacity="1"></path></g><rect x="178" y="36" width="412" height="273" stroke="#026FC1" stroke-width="2" fill="none"></rect><g class="highcharts-axis"><path fill="none" d="M 178 66.5 L 168 66.5" stroke="#C0D0E0" stroke-width="1" opacity="1"></path><path fill="none" d="M 178 97.5 L 168 97.5" stroke="#C0D0E0" stroke-width="1" opacity="1"></path><path fill="none" d="M 178 127.5 L 168 127.5" stroke="#C0D0E0" stroke-width="1" opacity="1"></path><path fill="none" d="M 178 157.5 L 168 157.5" stroke="#C0D0E0" stroke-width="1" opacity="1"></path><path fill="none" d="M 178 188.5 L 168 188.5" stroke="#C0D0E0" stroke-width="1" opacity="1"></path><path fill="none" d="M 178 218.5 L 168 218.5" stroke="#C0D0E0" stroke-width="1" opacity="1"></path><path fill="none" d="M 178 248.5 L 168 248.5" stroke="#C0D0E0" stroke-width="1" opacity="1"></path><path fill="none" d="M 178 279.5 L 168 279.5" stroke="#C0D0E0" stroke-width="1" opacity="1"></path><path fill="none" d="M 178 309.5 L 168 309.5" stroke="#C0D0E0" stroke-width="1" opacity="1"></path><path fill="none" d="M 178 35.5 L 168 35.5" stroke="#C0D0E0" stroke-width="1" opacity="1"></path><path fill="none" d="M 177.5 36 L 177.5 309" stroke="#C0D0E0" stroke-width="1"></path></g><g class="highcharts-axis"><path fill="none" d="M 177.5 309 L 177.5 319" stroke="#C0D0E0" stroke-width="1" opacity="1"></path><path fill="none" d="M 229.5 309 L 229.5 319" stroke="#C0D0E0" stroke-width="1" opacity="1"></path><path fill="none" d="M 280.5 309 L 280.5 319" stroke="#C0D0E0" stroke-width="1" opacity="1"></path><path fill="none" d="M 332.5 309 L 332.5 319" stroke="#C0D0E0" stroke-width="1" opacity="1"></path><path fill="none" d="M 383.5 309 L 383.5 319" stroke="#C0D0E0" stroke-width="1" opacity="1"></path><path fill="none" d="M 435.5 309 L 435.5 319" stroke="#C0D0E0" stroke-width="1" opacity="1"></path><path fill="none" d="M 486.5 309 L 486.5 319" stroke="#C0D0E0" stroke-width="1" opacity="1"></path><path fill="none" d="M 538.5 309 L 538.5 319" stroke="#C0D0E0" stroke-width="1" opacity="1"></path><path fill="none" d="M 590.5 309 L 590.5 319" stroke="#C0D0E0" stroke-width="1" opacity="1"></path><text x="384" text-anchor="middle" transform="translate(0,0)" class=" highcharts-yaxis-title" style="color:#000000;font-size:10px;font-family:'arial', sans-serif;text-transform:none;font-weight:normal;fill:#000000;" y="343"><tspan>Lines of code</tspan></text></g><g class="highcharts-series-group"><g class="highcharts-series highcharts-series-0" transform="translate(590,309) rotate(90) scale(-1,1) scale(1 1)" width="412" height="273" clip-path="url(#highcharts-44)"><rect x="250.5" y="62.5" width="15" height="350" stroke="#FFFFFF" stroke-width="1" fill="#50B432" rx="0" ry="0"></rect><rect x="219.5" y="371.5" width="15" height="41" stroke="#FFFFFF" stroke-width="1" fill="#ED561B" rx="0" ry="0"></rect><rect x="189.5" y="283.5" width="15" height="129" stroke="#FFFFFF" stroke-width="1" fill="#DDDF00" rx="0" ry="0"></rect><rect x="159.5" y="180.5" width="15" height="232" stroke="#FFFFFF" stroke-width="1" fill="#24CBE5" rx="0" ry="0"></rect><rect x="128.5" y="278.5" width="15" height="134" stroke="#FFFFFF" stroke-width="1" fill="#64E572" rx="0" ry="0"></rect><rect x="98.5" y="386.5" width="15" height="26" stroke="#FFFFFF" stroke-width="1" fill="#FF9655" rx="0" ry="0"></rect><rect x="68.5" y="402.5" width="15" height="10" stroke="#FFFFFF" stroke-width="1" fill="#FFF263" rx="0" ry="0"></rect><rect x="37.5" y="402.5" width="15" height="10" stroke="#FFFFFF" stroke-width="1" fill="#6AF9C4" rx="0" ry="0"></rect><rect x="7.5" y="407.5" width="15" height="5" stroke="#FFFFFF" stroke-width="1" fill="#2F7ED8" rx="0" ry="0"></rect></g><g class="highcharts-markers highcharts-series-0" transform="translate(590,309) rotate(90) scale(-1,1) scale(1 1)" width="412" height="273" clip-path="none"></g><g class="highcharts-series highcharts-series-1" transform="translate(590,309) rotate(90) scale(-1,1) scale(1 1)" width="412" height="273" clip-path="url(#highcharts-44)"></g><g class="highcharts-markers highcharts-series-1" transform="translate(590,309) rotate(90) scale(-1,1) scale(1 1)" width="412" height="273" clip-path="none"></g></g><text x="300" text-anchor="middle" class="highcharts-title" style="color:#000000;font-size:10px;font-family:'arial', sans-serif;text-transform:none;fill:#000000;width:536px;" y="17"><tspan>Sizes of the components of Scala.js</tspan></text><g class="highcharts-data-labels highcharts-series-0" transform="translate(178,36) scale(1 1)" opacity="1"><g style="cursor:pointer;" transform="translate(350,4)"><text x="5" style="font-size: 10px; font-weight: bold; font-family: 'arial', sans-serif; color: rgb(0, 0, 0); fill: rgb(0, 0, 0); text-rendering: geometricprecision; text-shadow: none;" y="15"><tspan>68</tspan></text></g><g style="cursor:pointer;" transform="translate(41,35)"><text x="5" style="font-size: 10px; font-weight: bold; font-family: 'arial', sans-serif; color: rgb(0, 0, 0); fill: rgb(0, 0, 0); text-rendering: geometricprecision; text-shadow: none;" y="15"><tspan>8</tspan></text></g><g style="cursor:pointer;" transform="translate(129,65)"><text x="5" style="font-size:10px;font-weight:bold;font-family:'arial', sans-serif;color:#000000;text-shadow:none;fill:#000000;text-rendering:geometricprecision;" y="15"><tspan>25</tspan></text></g><g style="cursor:pointer;" transform="translate(232,95)"><text x="5" style="font-size:10px;font-weight:bold;font-family:'arial', sans-serif;color:#000000;text-shadow:none;fill:#000000;text-rendering:geometricprecision;" y="15"><tspan>45</tspan></text></g><g style="cursor:pointer;" transform="translate(134,126)"><text x="5" style="font-size:10px;font-weight:bold;font-family:'arial', sans-serif;color:#000000;text-shadow:none;fill:#000000;text-rendering:geometricprecision;" y="15"><tspan>26</tspan></text></g><g style="cursor:pointer;" transform="translate(26,156)"><text x="5" style="font-size:10px;font-weight:bold;font-family:'arial', sans-serif;color:#000000;text-shadow:none;fill:#000000;text-rendering:geometricprecision;" y="15"><tspan>5</tspan></text></g><g style="cursor:pointer;" transform="translate(10,186)"><text x="5" style="font-size:10px;font-weight:bold;font-family:'arial', sans-serif;color:#000000;text-shadow:none;fill:#000000;text-rendering:geometricprecision;" y="15"><tspan>2</tspan></text></g><g style="cursor:pointer;" transform="translate(10,217)"><text x="5" style="font-size:10px;font-weight:bold;font-family:'arial', sans-serif;color:#000000;text-shadow:none;fill:#000000;text-rendering:geometricprecision;" y="15"><tspan>2</tspan></text></g><g style="cursor:pointer;" transform="translate(5,247)"><text x="5" style="font-size:10px;font-weight:bold;font-family:'arial', sans-serif;color:#000000;text-shadow:none;fill:#000000;text-rendering:geometricprecision;" y="15"><tspan>1</tspan></text></g></g><g class="highcharts-data-labels highcharts-series-1" transform="translate(178,36) scale(1 1)" opacity="1"></g><g class="highcharts-legend" transform="translate(259,356)"><g><g><g class="highcharts-legend-item" transform="translate(8,3)"><text x="21" style="color:#333;font-size:9pt;font-weight:normal;cursor:pointer;font-family:'lucida grande','lucida sans unicode',arial,helvetica,sans-serif;text-transform:none;fill:#333;" text-anchor="start" y="15"><tspan>Series 1</tspan></text><rect x="0" y="4" width="16" height="12" fill="#CCC"></rect></g></g></g></g><g class="highcharts-axis-labels highcharts-xaxis-labels"><text x="163" style="color:#000000;cursor:default;font-size:10px;font-family:'arial', sans-serif;text-transform:none;font-weight:normal;fill:#000000;width:188px;text-overflow:clip;" text-anchor="end" transform="translate(0,0)" y="56" opacity="1"><tspan>scalac compiler</tspan></text><text x="163" style="color:#000000;cursor:default;font-size:10px;font-family:'arial', sans-serif;text-transform:none;font-weight:normal;fill:#000000;width:188px;text-overflow:clip;" text-anchor="end" transform="translate(0,0)" y="86" opacity="1"><tspan>Scala.js compiler plugin</tspan></text><text x="163" style="color:#000000;cursor:default;font-size:10px;font-family:'arial', sans-serif;text-transform:none;font-weight:normal;fill:#000000;width:188px;text-overflow:clip;" text-anchor="end" transform="translate(0,0)" y="116" opacity="1"><tspan>Scala.js linker and optimizer</tspan></text><text x="163" style="color:#000000;cursor:default;font-size:10px;font-family:'arial', sans-serif;text-transform:none;font-weight:normal;fill:#000000;width:188px;text-overflow:clip;" text-anchor="end" transform="translate(0,0)" y="147" opacity="1"><tspan>Scala standard library</tspan></text><text x="163" style="color:#000000;cursor:default;font-size:10px;font-family:'arial', sans-serif;text-transform:none;font-weight:normal;fill:#000000;width:188px;text-overflow:clip;" text-anchor="end" transform="translate(0,0)" y="177" opacity="1"><tspan>Subset of the JDK in Scala.js</tspan></text><text x="163" style="color:#000000;cursor:default;font-size:10px;font-family:'arial', sans-serif;text-transform:none;font-weight:normal;fill:#000000;width:188px;text-overflow:clip;" text-anchor="end" transform="translate(0,0)" y="207" opacity="1"><tspan>Scala.js-specific standard library</tspan></text><text x="163" style="color:#000000;cursor:default;font-size:10px;font-family:'arial', sans-serif;text-transform:none;font-weight:normal;fill:#000000;width:188px;text-overflow:clip;" text-anchor="end" transform="translate(0,0)" y="238" opacity="1"><tspan>Test adapter infrastructure</tspan></text><text x="163" style="color:#000000;cursor:default;font-size:10px;font-family:'arial', sans-serif;text-transform:none;font-weight:normal;fill:#000000;width:188px;text-overflow:clip;" text-anchor="end" transform="translate(0,0)" y="268" opacity="1"><tspan>Implementation of JUnit</tspan></text><text x="163" style="color:#000000;cursor:default;font-size:10px;font-family:'arial', sans-serif;text-transform:none;font-weight:normal;fill:#000000;width:188px;text-overflow:clip;" text-anchor="end" transform="translate(0,0)" y="298" opacity="1"><tspan>sbt plugin</tspan></text></g><g class="highcharts-axis-labels highcharts-yaxis-labels"><text x="178" style="color:#000000;cursor:default;font-size:10px;font-family:'arial', sans-serif;text-transform:none;font-weight:normal;fill:#000000;width:51.5;text-overflow:ellipsis;" text-anchor="middle" transform="translate(0,0)" y="327" opacity="1"><tspan>0 kLoC</tspan></text><text x="229.5" style="color:#000000;cursor:default;font-size:10px;font-family:'arial', sans-serif;text-transform:none;font-weight:normal;fill:#000000;width:51.5;text-overflow:ellipsis;" text-anchor="middle" transform="translate(0,0)" y="327" opacity="1"><tspan>10 kLoC</tspan></text><text x="281" style="color:#000000;cursor:default;font-size:10px;font-family:'arial', sans-serif;text-transform:none;font-weight:normal;fill:#000000;width:51.5;text-overflow:ellipsis;" text-anchor="middle" transform="translate(0,0)" y="327" opacity="1"><tspan>20 kLoC</tspan></text><text x="332.5" style="color:#000000;cursor:default;font-size:10px;font-family:'arial', sans-serif;text-transform:none;font-weight:normal;fill:#000000;width:51.5;text-overflow:ellipsis;" text-anchor="middle" transform="translate(0,0)" y="327" opacity="1"><tspan>30 kLoC</tspan></text><text x="384" style="color:#000000;cursor:default;font-size:10px;font-family:'arial', sans-serif;text-transform:none;font-weight:normal;fill:#000000;width:51.5;text-overflow:ellipsis;" text-anchor="middle" transform="translate(0,0)" y="327" opacity="1"><tspan>40 kLoC</tspan></text><text x="435.5" style="color:#000000;cursor:default;font-size:10px;font-family:'arial', sans-serif;text-transform:none;font-weight:normal;fill:#000000;width:51.5;text-overflow:ellipsis;" text-anchor="middle" transform="translate(0,0)" y="327" opacity="1"><tspan>50 kLoC</tspan></text><text x="487" style="color:#000000;cursor:default;font-size:10px;font-family:'arial', sans-serif;text-transform:none;font-weight:normal;fill:#000000;width:51.5;text-overflow:ellipsis;" text-anchor="middle" transform="translate(0,0)" y="327" opacity="1"><tspan>60 kLoC</tspan></text><text x="538.5" style="color:#000000;cursor:default;font-size:10px;font-family:'arial', sans-serif;text-transform:none;font-weight:normal;fill:#000000;width:51.5;text-overflow:ellipsis;" text-anchor="middle" transform="translate(0,0)" y="327" opacity="1"><tspan>70 kLoC</tspan></text><text x="577.125" style="color:#000000;cursor:default;font-size:10px;font-family:'arial', sans-serif;text-transform:none;font-weight:normal;fill:#000000;width:25.75;text-overflow:ellipsis;" text-anchor="middle" transform="translate(0,0)" y="327" opacity="1"><tspan>80…</tspan><title>80 kLoC</title></text></g><g class="highcharts-tooltip" display="none" style="cursor:default;padding:0;pointer-events:none;white-space:nowrap;" transform="translate(0,0)"><path fill="none" d="M 3.5 0.5 L 13.5 0.5 C 16.5 0.5 16.5 0.5 16.5 3.5 L 16.5 13.5 C 16.5 16.5 16.5 16.5 13.5 16.5 L 3.5 16.5 C 0.5 16.5 0.5 16.5 0.5 13.5 L 0.5 3.5 C 0.5 0.5 0.5 0.5 3.5 0.5"  stroke="black" stroke-opacity="0.049999999999999996" stroke-width="5" transform="translate(1, 1)"></path><path fill="none" d="M 3.5 0.5 L 13.5 0.5 C 16.5 0.5 16.5 0.5 16.5 3.5 L 16.5 13.5 C 16.5 16.5 16.5 16.5 13.5 16.5 L 3.5 16.5 C 0.5 16.5 0.5 16.5 0.5 13.5 L 0.5 3.5 C 0.5 0.5 0.5 0.5 3.5 0.5"  stroke="black" stroke-opacity="0.09999999999999999" stroke-width="3" transform="translate(1, 1)"></path><path fill="none" d="M 3.5 0.5 L 13.5 0.5 C 16.5 0.5 16.5 0.5 16.5 3.5 L 16.5 13.5 C 16.5 16.5 16.5 16.5 13.5 16.5 L 3.5 16.5 C 0.5 16.5 0.5 16.5 0.5 13.5 L 0.5 3.5 C 0.5 0.5 0.5 0.5 3.5 0.5"  stroke="black" stroke-opacity="0.15" stroke-width="1" transform="translate(1, 1)"></path><path fill="rgb(255, 255, 255)" fill-opacity=" 0.85" d="M 3.5 0.5 L 13.5 0.5 C 16.5 0.5 16.5 0.5 16.5 3.5 L 16.5 13.5 C 16.5 16.5 16.5 16.5 13.5 16.5 L 3.5 16.5 C 0.5 16.5 0.5 16.5 0.5 13.5 L 0.5 3.5 C 0.5 0.5 0.5 0.5 3.5 0.5"></path><text x="8" style="font-size:12px;color:#000000;fill:#000000;" y="20"></text></g><text x="590" text-anchor="end" style="cursor:pointer;color:#909090;font-size:9px;fill:#909090;" y="395">meta-chart.com</text></svg>