<?xml version="1.0" standalone="no"?><!DOCTYPE svg PUBLIC "-//W3C//DTD SVG 1.1//EN" "http://www.w3.org/Graphics/SVG/1.1/DTD/svg11.dtd"><svg xmlns:xlink="http://www.w3.org/1999/xlink" version="1.1" style="font-family:'lucida grande', 'lucida sans unicode', arial, helvetica, sans-serif;font-size:12px;" xmlns="http://www.w3.org/2000/svg" width="600" height="400"><desc>Created with Highcharts 4.2.7</desc><defs><clipPath id="highcharts-6"><rect x="1" y="1" width="271" height="523"></rect></clipPath></defs><rect x="65" y="36" width="525" height="273" fill="#ffffff"></rect><path fill="rgb(255, 255, 255)" fill-opacity=" .5" d="M 64.5 36 L 64.5 309 130.5 309 130.5 36"></path><path fill="rgb(255, 255, 255)" fill-opacity=" .5" d="M 195.5 36 L 195.5 309 261.5 309 261.5 36"></path><path fill="rgb(255, 255, 255)" fill-opacity=" .5" d="M 327.5 36 L 327.5 309 392.5 309 392.5 36"></path><path fill="rgb(255, 255, 255)" fill-opacity=" .5" d="M 458.5 36 L 458.5 309 523.5 309 523.5 36"></path><g class="highcharts-grid"></g><g class="highcharts-grid"><path fill="none" d="M 64.5 36 L 64.5 309" stroke="#C0C0C0" stroke-width="1" opacity="1"></path><path fill="none" d="M 130.5 36 L 130.5 309" stroke="#C0C0C0" stroke-width="1" opacity="1"></path><path fill="none" d="M 195.5 36 L 195.5 309" stroke="#C0C0C0" stroke-width="1" opacity="1"></path><path fill="none" d="M 261.5 36 L 261.5 309" stroke="#C0C0C0" stroke-width="1" opacity="1"></path><path fill="none" d="M 327.5 36 L 327.5 309" stroke="#C0C0C0" stroke-width="1" opacity="1"></path><path fill="none" d="M 392.5 36 L 392.5 309" stroke="#C0C0C0" stroke-width="1" opacity="1"></path><path fill="none" d="M 458.5 36 L 458.5 309" stroke="#C0C0C0" stroke-width="1" opacity="1"></path><path fill="none" d="M 523.5 36 L 523.5 309" stroke="#C0C0C0" stroke-width="1" opacity="1"></path><path fill="none" d="M 590.5 36 L 590.5 309" stroke="#C0C0C0" stroke-width="1" opacity="1"></path></g><rect x="65" y="36" width="525" height="273" stroke="#026FC1" stroke-width="2" fill="none"></rect><g class="highcharts-axis"><path fill="none" d="M 65 127.5 L 55 127.5" stroke="#C0D0E0" stroke-width="1" opacity="1"></path><path fill="none" d="M 65 218.5 L 55 218.5" stroke="#C0D0E0" stroke-width="1" opacity="1"></path><path fill="none" d="M 65 309.5 L 55 309.5" stroke="#C0D0E0" stroke-width="1" opacity="1"></path><path fill="none" d="M 65 35.5 L 55 35.5" stroke="#C0D0E0" stroke-width="1" opacity="1"></path><path fill="none" d="M 64.5 36 L 64.5 309" stroke="#C0D0E0" stroke-width="1"></path></g><g class="highcharts-axis"><path fill="none" d="M 64.5 309 L 64.5 319" stroke="#C0D0E0" stroke-width="1" opacity="1"></path><path fill="none" d="M 130.5 309 L 130.5 319" stroke="#C0D0E0" stroke-width="1" opacity="1"></path><path fill="none" d="M 195.5 309 L 195.5 319" stroke="#C0D0E0" stroke-width="1" opacity="1"></path><path fill="none" d="M 261.5 309 L 261.5 319" stroke="#C0D0E0" stroke-width="1" opacity="1"></path><path fill="none" d="M 327.5 309 L 327.5 319" stroke="#C0D0E0" stroke-width="1" opacity="1"></path><path fill="none" d="M 392.5 309 L 392.5 319" stroke="#C0D0E0" stroke-width="1" opacity="1"></path><path fill="none" d="M 458.5 309 L 458.5 319" stroke="#C0D0E0" stroke-width="1" opacity="1"></path><path fill="none" d="M 523.5 309 L 523.5 319" stroke="#C0D0E0" stroke-width="1" opacity="1"></path><path fill="none" d="M 590.5 309 L 590.5 319" stroke="#C0D0E0" stroke-width="1" opacity="1"></path><text x="327.5" text-anchor="middle" transform="translate(0,0)" class=" highcharts-yaxis-title" style="color:#000000;font-size:10px;font-family:'arial', sans-serif;text-transform:none;font-weight:normal;fill:#000000;" y="343"><tspan>Lines of code</tspan></text></g><g class="highcharts-series-group"><g class="highcharts-series highcharts-series-0" transform="translate(590,309) rotate(90) scale(-1,1) scale(1 1)" width="525" height="273" clip-path="url(#highcharts-6)"><rect x="205.5" y="341.5" width="44" height="184" stroke="#FFFFFF" stroke-width="1" fill="#50B432" rx="0" ry="0"></rect><rect x="114.5" y="75.5" width="44" height="450" stroke="#FFFFFF" stroke-width="1" fill="#ED561B" rx="0" ry="0"></rect><rect x="23.5" y="125.5" width="44" height="400" stroke="#FFFFFF" stroke-width="1" fill="#DDDF00" rx="0" ry="0"></rect></g><g class="highcharts-markers highcharts-series-0" transform="translate(590,309) rotate(90) scale(-1,1) scale(1 1)" width="525" height="273" clip-path="none"></g><g class="highcharts-series highcharts-series-1" transform="translate(590,309) rotate(90) scale(-1,1) scale(1 1)" width="525" height="273" clip-path="url(#highcharts-6)"></g><g class="highcharts-markers highcharts-series-1" transform="translate(590,309) rotate(90) scale(-1,1) scale(1 1)" width="525" height="273" clip-path="none"></g></g><text x="300" text-anchor="middle" class="highcharts-title" style="color:#000000;font-size:10px;font-family:'arial', sans-serif;text-transform:none;fill:#000000;width:536px;" y="17"><tspan>Sizes of the core Scala repositories</tspan></text><g class="highcharts-data-labels highcharts-series-0" transform="translate(65,36) scale(1 1)" opacity="1"><g style="cursor:pointer;" transform="translate(184,35)"><text x="5" style="font-size: 10px; font-weight: bold; font-family: 'arial', sans-serif; color: rgb(0, 0, 0); fill: rgb(0, 0, 0); text-rendering: geometricprecision; text-shadow: none;" y="15"><tspan>140</tspan></text></g><g style="cursor:pointer;" transform="translate(450,126)"><text x="5" style="font-size:10px;font-weight:bold;font-family:'arial', sans-serif;color:#000000;text-shadow:none;fill:#000000;text-rendering:geometricprecision;" y="15"><tspan>343</tspan></text></g><g style="cursor:pointer;" transform="translate(400,217)"><text x="5" style="font-size:10px;font-weight:bold;font-family:'arial', sans-serif;color:#000000;text-shadow:none;fill:#000000;text-rendering:geometricprecision;" y="15"><tspan>305</tspan></text></g></g><g class="highcharts-data-labels highcharts-series-1" transform="translate(65,36) scale(1 1)" opacity="1"></g><g class="highcharts-legend" transform="translate(259,356)"><g><g><g class="highcharts-legend-item" transform="translate(8,3)"><text x="21" style="color:#333;font-size:9pt;font-weight:normal;cursor:pointer;font-family:'lucida grande','lucida sans unicode',arial,helvetica,sans-serif;text-transform:none;fill:#333;" text-anchor="start" y="15"><tspan>Series 1</tspan></text><rect x="0" y="4" width="16" height="12" fill="#CCC"></rect></g></g></g></g><g class="highcharts-axis-labels highcharts-xaxis-labels"><text x="50" style="color:#000000;cursor:default;font-size:10px;font-family:'arial', sans-serif;text-transform:none;font-weight:normal;fill:#000000;width:188px;text-overflow:clip;" text-anchor="end" transform="translate(0,0)" y="86" opacity="1"><tspan>Scala.js</tspan></text><text x="50" style="color:#000000;cursor:default;font-size:10px;font-family:'arial', sans-serif;text-transform:none;font-weight:normal;fill:#000000;width:188px;text-overflow:clip;" text-anchor="end" transform="translate(0,0)" y="177" opacity="1"><tspan>Scala 2</tspan></text><text x="50" style="color:#000000;cursor:default;font-size:10px;font-family:'arial', sans-serif;text-transform:none;font-weight:normal;fill:#000000;width:188px;text-overflow:clip;" text-anchor="end" transform="translate(0,0)" y="268" opacity="1"><tspan>Scala 3</tspan></text></g><g class="highcharts-axis-labels highcharts-yaxis-labels"><text x="65" style="color:#000000;cursor:default;font-size:10px;font-family:'arial', sans-serif;text-transform:none;font-weight:normal;fill:#000000;width:65.625;text-overflow:ellipsis;" text-anchor="middle" transform="translate(0,0)" y="327" opacity="1"><tspan>0 kLoC</tspan></text><text x="130.625" style="color:#000000;cursor:default;font-size:10px;font-family:'arial', sans-serif;text-transform:none;font-weight:normal;fill:#000000;width:65.625;text-overflow:ellipsis;" text-anchor="middle" transform="translate(0,0)" y="327" opacity="1"><tspan>50 kLoC</tspan></text><text x="196.25" style="color:#000000;cursor:default;font-size:10px;font-family:'arial', sans-serif;text-transform:none;font-weight:normal;fill:#000000;width:65.625;text-overflow:ellipsis;" text-anchor="middle" transform="translate(0,0)" y="327" opacity="1"><tspan>100 kLoC</tspan></text><text x="261.875" style="color:#000000;cursor:default;font-size:10px;font-family:'arial', sans-serif;text-transform:none;font-weight:normal;fill:#000000;width:65.625;text-overflow:ellipsis;" text-anchor="middle" transform="translate(0,0)" y="327" opacity="1"><tspan>150 kLoC</tspan></text><text x="327.5" style="color:#000000;cursor:default;font-size:10px;font-family:'arial', sans-serif;text-transform:none;font-weight:normal;fill:#000000;width:65.625;text-overflow:ellipsis;" text-anchor="middle" transform="translate(0,0)" y="327" opacity="1"><tspan>200 kLoC</tspan></text><text x="393.125" style="color:#000000;cursor:default;font-size:10px;font-family:'arial', sans-serif;text-transform:none;font-weight:normal;fill:#000000;width:65.625;text-overflow:ellipsis;" text-anchor="middle" transform="translate(0,0)" y="327" opacity="1"><tspan>250 kLoC</tspan></text><text x="458.75" style="color:#000000;cursor:default;font-size:10px;font-family:'arial', sans-serif;text-transform:none;font-weight:normal;fill:#000000;width:65.625;text-overflow:ellipsis;" text-anchor="middle" transform="translate(0,0)" y="327" opacity="1"><tspan>300 kLoC</tspan></text><text x="524.375" style="color:#000000;cursor:default;font-size:10px;font-family:'arial', sans-serif;text-transform:none;font-weight:normal;fill:#000000;width:65.625;text-overflow:ellipsis;" text-anchor="middle" transform="translate(0,0)" y="327" opacity="1"><tspan>350 kLoC</tspan></text><text x="573.59375" style="color:#000000;cursor:default;font-size:10px;font-family:'arial', sans-serif;text-transform:none;font-weight:normal;fill:#000000;width:32.8125;text-overflow:ellipsis;" text-anchor="middle" transform="translate(0,0)" y="327" opacity="1"><tspan>400…</tspan><title>400 kLoC</title></text></g><g class="highcharts-tooltip" display="none" style="cursor:default;padding:0;pointer-events:none;white-space:nowrap;" transform="translate(0,0)"><path fill="none" d="M 3.5 0.5 L 13.5 0.5 C 16.5 0.5 16.5 0.5 16.5 3.5 L 16.5 13.5 C 16.5 16.5 16.5 16.5 13.5 16.5 L 3.5 16.5 C 0.5 16.5 0.5 16.5 0.5 13.5 L 0.5 3.5 C 0.5 0.5 0.5 0.5 3.5 0.5"  stroke="black" stroke-opacity="0.049999999999999996" stroke-width="5" transform="translate(1, 1)"></path><path fill="none" d="M 3.5 0.5 L 13.5 0.5 C 16.5 0.5 16.5 0.5 16.5 3.5 L 16.5 13.5 C 16.5 16.5 16.5 16.5 13.5 16.5 L 3.5 16.5 C 0.5 16.5 0.5 16.5 0.5 13.5 L 0.5 3.5 C 0.5 0.5 0.5 0.5 3.5 0.5"  stroke="black" stroke-opacity="0.09999999999999999" stroke-width="3" transform="translate(1, 1)"></path><path fill="none" d="M 3.5 0.5 L 13.5 0.5 C 16.5 0.5 16.5 0.5 16.5 3.5 L 16.5 13.5 C 16.5 16.5 16.5 16.5 13.5 16.5 L 3.5 16.5 C 0.5 16.5 0.5 16.5 0.5 13.5 L 0.5 3.5 C 0.5 0.5 0.5 0.5 3.5 0.5"  stroke="black" stroke-opacity="0.15" stroke-width="1" transform="translate(1, 1)"></path><path fill="rgb(255, 255, 255)" fill-opacity=" 0.85" d="M 3.5 0.5 L 13.5 0.5 C 16.5 0.5 16.5 0.5 16.5 3.5 L 16.5 13.5 C 16.5 16.5 16.5 16.5 13.5 16.5 L 3.5 16.5 C 0.5 16.5 0.5 16.5 0.5 13.5 L 0.5 3.5 C 0.5 0.5 0.5 0.5 3.5 0.5"></path><text x="8" style="font-size:12px;color:#000000;fill:#000000;" y="20"></text></g><text x="590" text-anchor="end" style="cursor:pointer;color:#909090;font-size:9px;fill:#909090;" y="395">meta-chart.com</text></svg>