<?xml version="1.0" encoding="UTF-8" standalone="no"?>
<svg
   id="Calque_2"
   viewBox="0 0 96.3 118.84"
   version="1.1"
   sodipodi:docname="icon15.svg"
   inkscape:version="1.1.2 (b8e25be8, 2022-02-05)"
   xmlns:inkscape="http://www.inkscape.org/namespaces/inkscape"
   xmlns:sodipodi="http://sodipodi.sourceforge.net/DTD/sodipodi-0.dtd"
   xmlns="http://www.w3.org/2000/svg"
   xmlns:svg="http://www.w3.org/2000/svg">
  <sodipodi:namedview
     id="namedview7910"
     pagecolor="#ffffff"
     bordercolor="#666666"
     borderopacity="1.0"
     inkscape:pageshadow="2"
     inkscape:pageopacity="0.0"
     inkscape:pagecheckerboard="0"
     showgrid="false"
     inkscape:zoom="6.8747898"
     inkscape:cx="48.146926"
     inkscape:cy="59.419998"
     inkscape:window-width="1296"
     inkscape:window-height="997"
     inkscape:window-x="0"
     inkscape:window-y="25"
     inkscape:window-maximized="0"
     inkscape:current-layer="Calque_2" />
  <defs
     id="defs7891">
    <style
       id="style7889">.cls-1{fill:#f05a2c;}.cls-2{stroke-miterlimit:10;stroke-width:5.3px;}.cls-2,.cls-3{fill:none;stroke:#3c616a;stroke-linecap:round;}.cls-3{stroke-linejoin:round;stroke-width:8.84px;}</style>
  </defs>
  <g
     id="Content">
    <g
       id="Icons">
      <g
         id="g7905">
        <path
           class="cls-1"
           d="M48.15,43.31c-2.17,0-4.3-.87-5.84-2.42-1.53-1.54-2.42-3.67-2.42-5.84s.89-4.3,2.42-5.84c1.54-1.53,3.67-2.42,5.84-2.42s4.31,.89,5.84,2.42c1.53,1.54,2.42,3.67,2.42,5.84s-.89,4.31-2.42,5.84c-1.54,1.54-3.67,2.42-5.84,2.42Z"
           id="path7893" />
        <polygon
           class="cls-3"
           points="75.01 95.74 21.29 95.74 16.73 114.42 79.58 114.42 75.01 95.74"
           id="polygon7895" />
        <path
           class="cls-3"
           d="M16.73,4.42V40.92c0,17.35,14.07,31.42,31.42,31.42s31.42-14.07,31.42-31.42h0V4.42H16.73Z"
           id="path7897" />
        <path
           class="cls-2"
           d="M16.73,44.67c-7.77,0-14.08-6.3-14.08-14.08s6.3-14.08,14.08-14.08"
           id="path7899" />
        <path
           class="cls-2"
           d="M79.58,16.52c7.77,0,14.08,6.3,14.08,14.08,0,7.77-6.3,14.08-14.08,14.08"
           id="path7901" />
        <line
           class="cls-3"
           x1="48.15"
           y1="72.34"
           x2="48.15"
           y2="95.74"
           id="line7903" />
      </g>
    </g>
  </g>
  <path
     style="fill:#de3423;stroke-width:0.145459"
     d="m 46.037771,42.924618 c -2.401402,-0.704325 -4.076064,-2.077745 -5.165854,-4.236607 -1.34195,-2.658388 -1.119474,-5.775517 0.591465,-8.287082 1.432079,-2.102211 3.631538,-3.318435 6.247267,-3.45452 2.461336,-0.128053 4.45545,0.633584 6.183676,2.36181 1.725609,1.725609 2.487605,3.717991 2.364976,6.183675 -0.218103,4.38537 -3.77475,7.73007 -8.185104,7.697337 -0.65722,-0.0049 -1.543511,-0.120042 -2.036426,-0.264613 z"
     id="path7949" />
</svg>
