<?xml version="1.0" encoding="UTF-8" standalone="no"?>
<svg
   id="Calque_2"
   viewBox="0 0 114.79 110.03"
   version="1.1"
   sodipodi:docname="icon13.svg"
   inkscape:version="1.1.2 (b8e25be8, 2022-02-05)"
   xmlns:inkscape="http://www.inkscape.org/namespaces/inkscape"
   xmlns:sodipodi="http://sodipodi.sourceforge.net/DTD/sodipodi-0.dtd"
   xmlns="http://www.w3.org/2000/svg"
   xmlns:svg="http://www.w3.org/2000/svg">
  <sodipodi:namedview
     id="namedview7126"
     pagecolor="#ffffff"
     bordercolor="#666666"
     borderopacity="1.0"
     inkscape:pageshadow="2"
     inkscape:pageopacity="0.0"
     inkscape:pagecheckerboard="0"
     showgrid="false"
     inkscape:zoom="7.4252477"
     inkscape:cx="57.371823"
     inkscape:cy="55.014999"
     inkscape:window-width="1296"
     inkscape:window-height="997"
     inkscape:window-x="0"
     inkscape:window-y="25"
     inkscape:window-maximized="0"
     inkscape:current-layer="Calque_2" />
  <defs
     id="defs7111">
    <style
       id="style7109">.cls-1{fill:#f05a2c;}.cls-2{stroke-width:7.98px;}.cls-2,.cls-3{fill:none;stroke:#3c616a;stroke-linecap:round;stroke-linejoin:round;}.cls-3{stroke-width:4.79px;}</style>
  </defs>
  <g
     id="Content">
    <g
       id="Icons">
      <g
         id="g7121">
        <path
           class="cls-3"
           d="M39.47,55.64l9.48,9.48c1.54,1.54,2.41,3.64,2.41,5.82v36.7H29.71L2.39,76.71V34.62c0-3.53,2.86-6.39,6.39-6.39h1.63c3.53,0,6.39,2.86,6.39,6.39v28.55l11.93,11.93c1.68,1.68,4.39,1.68,6.07,0h0c1.68-1.68,1.68-4.39,0-6.07l-4.35-4.35c-2.51-2.51-2.49-6.6,.05-9.08h0c2.5-2.44,6.5-2.42,8.98,.05Z"
           id="path7113" />
        <path
           class="cls-3"
           d="M75.32,55.64l-9.48,9.48c-1.54,1.54-2.41,3.64-2.41,5.82v36.7s21.65,0,21.65,0l27.32-30.93V34.62c0-3.53-2.86-6.39-6.39-6.39h-1.63c-3.53,0-6.39,2.86-6.39,6.39v28.55s-11.93,11.93-11.93,11.93c-1.68,1.68-4.39,1.68-6.07,0h0c-1.68-1.68-1.68-4.39,0-6.07l4.35-4.35c2.51-2.51,2.49-6.6-.05-9.08h0c-2.5-2.44-6.5-2.42-8.98,.05Z"
           id="path7115" />
        <path
           class="cls-2"
           d="M71.63,3.99c-7.95,0-14.4,6.45-14.4,14.4h0c0-7.95-6.45-14.4-14.4-14.4s-14.4,6.45-14.4,14.4c0,5.33,4.18,9.46,7.19,12.47l21.61,21.61,21.61-21.61c3.01-3,7.19-7.14,7.19-12.47,0-7.95-6.45-14.4-14.4-14.4Z"
           id="path7117" />
        <path
           class="cls-1"
           d="M57.23,35.68c-1.96,0-3.88-.79-5.27-2.18-1.38-1.39-2.18-3.31-2.18-5.27s.8-3.88,2.18-5.27c1.39-1.38,3.31-2.18,5.27-2.18s3.89,.8,5.27,2.18c1.38,1.39,2.18,3.31,2.18,5.27s-.8,3.89-2.18,5.27c-1.39,1.39-3.31,2.18-5.27,2.18Z"
           id="path7119" />
      </g>
    </g>
  </g>
  <path
     style="fill:#de3423;stroke-width:0.134676"
     d="m 54.969693,35.21093 c -5.260742,-1.791949 -6.822347,-8.253388 -2.928722,-12.118151 1.490986,-1.479934 3.192772,-2.211384 5.155879,-2.216064 3.467924,-0.0083 6.528329,2.48514 7.254388,5.910375 0.23944,1.12957 0.237274,1.734369 -0.01041,2.908889 -0.562911,2.669277 -2.616294,4.852001 -5.308992,5.643401 -1.147308,0.337201 -2.959268,0.281281 -4.162139,-0.12845 z"
     id="path7165" />
</svg>
