<?xml version="1.0" encoding="UTF-8" standalone="no"?>
<svg
   id="Calque_2"
   viewBox="0 0 118.25 116.47"
   version="1.1"
   sodipodi:docname="icon14.svg"
   inkscape:version="1.1.2 (b8e25be8, 2022-02-05)"
   xmlns:inkscape="http://www.inkscape.org/namespaces/inkscape"
   xmlns:sodipodi="http://sodipodi.sourceforge.net/DTD/sodipodi-0.dtd"
   xmlns="http://www.w3.org/2000/svg"
   xmlns:svg="http://www.w3.org/2000/svg">
  <sodipodi:namedview
     id="namedview7610"
     pagecolor="#ffffff"
     bordercolor="#666666"
     borderopacity="1.0"
     inkscape:pageshadow="2"
     inkscape:pageopacity="0.0"
     inkscape:pagecheckerboard="0"
     showgrid="false"
     inkscape:zoom="7.0146818"
     inkscape:cx="59.161629"
     inkscape:cy="58.235001"
     inkscape:window-width="1296"
     inkscape:window-height="997"
     inkscape:window-x="0"
     inkscape:window-y="25"
     inkscape:window-maximized="0"
     inkscape:current-layer="Calque_2" />
  <defs
     id="defs7565">
    <style
       id="style7563">.cls-1{fill:#f05a2c;}.cls-2{fill:#3c616a;}.cls-3{stroke-width:8.8px;}.cls-3,.cls-4{fill:none;stroke:#3c616a;stroke-linecap:round;stroke-miterlimit:10;}.cls-4{stroke-width:5.28px;}</style>
  </defs>
  <g
     id="Content">
    <g
       id="Icons">
      <g
         id="g7605">
        <path
           class="cls-2"
           d="M21.94,57.44c-1.44,0-2.85-.58-3.87-1.6-1.01-1.02-1.6-2.43-1.6-3.87s.59-2.85,1.6-3.87c1.02-1.01,2.43-1.6,3.87-1.6s2.86,.59,3.87,1.6c1.01,1.02,1.6,2.43,1.6,3.87s-.59,2.86-1.6,3.87-2.43,1.6-3.87,1.6Z"
           id="path7567" />
        <path
           class="cls-2"
           d="M40.54,57.44c-1.44,0-2.85-.58-3.87-1.6-1.01-1.02-1.6-2.43-1.6-3.87s.59-2.85,1.6-3.87c1.02-1.01,2.43-1.6,3.87-1.6s2.86,.59,3.87,1.6c1.01,1.02,1.6,2.43,1.6,3.87s-.59,2.86-1.6,3.87-2.43,1.6-3.87,1.6Z"
           id="path7569" />
        <path
           class="cls-2"
           d="M59.14,57.44c-1.44,0-2.85-.58-3.87-1.6-1.01-1.02-1.6-2.43-1.6-3.87s.59-2.85,1.6-3.87c1.02-1.01,2.43-1.6,3.87-1.6s2.86,.59,3.87,1.6c1.01,1.02,1.6,2.43,1.6,3.87s-.59,2.86-1.6,3.87-2.43,1.6-3.87,1.6Z"
           id="path7571" />
        <path
           class="cls-2"
           d="M77.74,57.44c-1.44,0-2.85-.58-3.87-1.6-1.01-1.02-1.6-2.43-1.6-3.87s.59-2.85,1.6-3.87c1.02-1.01,2.43-1.6,3.87-1.6s2.86,.59,3.87,1.6c1.01,1.02,1.6,2.43,1.6,3.87s-.59,2.86-1.6,3.87-2.43,1.6-3.87,1.6Z"
           id="path7573" />
        <path
           class="cls-2"
           d="M96.34,57.44c-1.44,0-2.85-.58-3.87-1.6-1.01-1.02-1.6-2.43-1.6-3.87s.59-2.85,1.6-3.87c1.02-1.01,2.43-1.6,3.87-1.6s2.86,.59,3.87,1.6c1.01,1.02,1.6,2.43,1.6,3.87s-.59,2.86-1.6,3.87-2.43,1.6-3.87,1.6Z"
           id="path7575" />
        <path
           class="cls-2"
           d="M21.94,77.02c-1.44,0-2.85-.58-3.87-1.6-1.01-1.02-1.6-2.43-1.6-3.87s.59-2.85,1.6-3.87c1.02-1.01,2.43-1.6,3.87-1.6s2.86,.59,3.87,1.6c1.01,1.02,1.6,2.43,1.6,3.87s-.59,2.86-1.6,3.87-2.43,1.6-3.87,1.6Z"
           id="path7577" />
        <path
           class="cls-1"
           d="M40.54,77.02c-1.44,0-2.85-.58-3.87-1.6-1.01-1.02-1.6-2.43-1.6-3.87s.59-2.85,1.6-3.87c1.02-1.01,2.43-1.6,3.87-1.6s2.86,.59,3.87,1.6c1.01,1.02,1.6,2.43,1.6,3.87s-.59,2.86-1.6,3.87-2.43,1.6-3.87,1.6Z"
           id="path7579" />
        <path
           class="cls-2"
           d="M59.14,77.02c-1.44,0-2.85-.58-3.87-1.6-1.01-1.02-1.6-2.43-1.6-3.87s.59-2.85,1.6-3.87c1.02-1.01,2.43-1.6,3.87-1.6s2.86,.59,3.87,1.6c1.01,1.02,1.6,2.43,1.6,3.87s-.59,2.86-1.6,3.87-2.43,1.6-3.87,1.6Z"
           id="path7581" />
        <path
           class="cls-2"
           d="M77.74,77.02c-1.44,0-2.85-.58-3.87-1.6-1.01-1.02-1.6-2.43-1.6-3.87s.59-2.85,1.6-3.87c1.02-1.01,2.43-1.6,3.87-1.6s2.86,.59,3.87,1.6c1.01,1.02,1.6,2.43,1.6,3.87s-.59,2.86-1.6,3.87c-1.02,1.02-2.43,1.6-3.87,1.6Z"
           id="path7583" />
        <path
           class="cls-2"
           d="M96.34,77.02c-1.44,0-2.85-.58-3.87-1.6-1.01-1.02-1.6-2.43-1.6-3.87s.59-2.85,1.6-3.87c1.02-1.01,2.43-1.6,3.87-1.6s2.86,.59,3.87,1.6c1.01,1.02,1.6,2.43,1.6,3.87s-.59,2.86-1.6,3.87c-1.02,1.02-2.43,1.6-3.87,1.6Z"
           id="path7585" />
        <path
           class="cls-2"
           d="M21.94,96.59c-1.44,0-2.85-.58-3.87-1.6-1.01-1.02-1.6-2.43-1.6-3.87s.59-2.85,1.6-3.87c1.02-1.01,2.43-1.6,3.87-1.6s2.86,.59,3.87,1.6c1.01,1.02,1.6,2.43,1.6,3.87s-.59,2.86-1.6,3.87-2.43,1.6-3.87,1.6Z"
           id="path7587" />
        <path
           class="cls-2"
           d="M40.54,96.59c-1.44,0-2.85-.58-3.87-1.6-1.01-1.02-1.6-2.43-1.6-3.87s.59-2.85,1.6-3.87c1.02-1.01,2.43-1.6,3.87-1.6s2.86,.59,3.87,1.6c1.01,1.02,1.6,2.43,1.6,3.87s-.59,2.86-1.6,3.87c-1.02,1.02-2.43,1.6-3.87,1.6Z"
           id="path7589" />
        <path
           class="cls-2"
           d="M59.14,96.59c-1.44,0-2.85-.58-3.87-1.6-1.01-1.02-1.6-2.43-1.6-3.87s.59-2.85,1.6-3.87c1.02-1.01,2.43-1.6,3.87-1.6s2.86,.59,3.87,1.6c1.01,1.02,1.6,2.43,1.6,3.87s-.59,2.86-1.6,3.87-2.43,1.6-3.87,1.6Z"
           id="path7591" />
        <path
           class="cls-2"
           d="M77.74,96.59c-1.44,0-2.85-.58-3.87-1.6-1.01-1.02-1.6-2.43-1.6-3.87s.59-2.85,1.6-3.87c1.02-1.01,2.43-1.6,3.87-1.6s2.86,.59,3.87,1.6c1.01,1.02,1.6,2.43,1.6,3.87s-.59,2.86-1.6,3.87c-1.02,1.02-2.43,1.6-3.87,1.6Z"
           id="path7593" />
        <path
           class="cls-2"
           d="M96.34,96.59c-1.44,0-2.85-.58-3.87-1.6-1.01-1.02-1.6-2.43-1.6-3.87s.59-2.85,1.6-3.87c1.02-1.01,2.43-1.6,3.87-1.6s2.86,.59,3.87,1.6c1.01,1.02,1.6,2.43,1.6,3.87s-.59,2.86-1.6,3.87c-1.02,1.02-2.43,1.6-3.87,1.6Z"
           id="path7595" />
        <rect
           class="cls-3"
           x="4.4"
           y="14.68"
           width="109.46"
           height="97.4"
           rx="10"
           ry="10"
           id="rect7597" />
        <line
           class="cls-4"
           x1="4.14"
           y1="33.03"
           x2="114.14"
           y2="33.03"
           id="line7599" />
        <line
           class="cls-4"
           x1="32.41"
           y1="24.08"
           x2="32.41"
           y2="2.64"
           id="line7601" />
        <line
           class="cls-4"
           x1="85.86"
           y1="24.08"
           x2="85.86"
           y2="2.64"
           id="line7603" />
      </g>
    </g>
  </g>
  <path
     style="fill:#de3423;stroke-width:0.142558"
     d="m 39.206945,76.752862 c -1.507755,-0.40517 -2.777914,-1.453697 -3.52237,-2.907745 -0.364938,-0.712784 -0.401435,-0.92016 -0.401435,-2.28093 0,-1.353164 0.03857,-1.575407 0.401783,-2.315063 0.533684,-1.086812 1.527277,-2.053543 2.662809,-2.59082 0.821286,-0.388592 1.073736,-0.438709 2.213057,-0.439338 1.16286,-6.42e-4 1.375909,0.04354 2.22462,0.461361 1.130388,0.556489 2.131463,1.576132 2.66497,2.714401 0.330364,0.704852 0.382063,0.998416 0.382063,2.169459 0,1.165386 -0.0524,1.466061 -0.375664,2.15548 -0.708686,1.511414 -2.038501,2.631026 -3.611685,3.040788 -1.031229,0.268601 -1.616623,0.266916 -2.638148,-0.0076 z"
     id="path7649" />
</svg>
