<?xml version="1.0" encoding="UTF-8" standalone="no"?>
<svg
   id="Calque_2"
   viewBox="0 0 117.96 117.96"
   version="1.1"
   sodipodi:docname="icon10.svg"
   inkscape:version="1.1.2 (b8e25be8, 2022-02-05)"
   xmlns:inkscape="http://www.inkscape.org/namespaces/inkscape"
   xmlns:sodipodi="http://sodipodi.sourceforge.net/DTD/sodipodi-0.dtd"
   xmlns="http://www.w3.org/2000/svg"
   xmlns:svg="http://www.w3.org/2000/svg">
  <sodipodi:namedview
     id="namedview5881"
     pagecolor="#ffffff"
     bordercolor="#666666"
     borderopacity="1.0"
     inkscape:pageshadow="2"
     inkscape:pageopacity="0.0"
     inkscape:pagecheckerboard="0"
     showgrid="false"
     inkscape:zoom="6.9260767"
     inkscape:cx="59.05219"
     inkscape:cy="58.98"
     inkscape:window-width="1296"
     inkscape:window-height="997"
     inkscape:window-x="0"
     inkscape:window-y="25"
     inkscape:window-maximized="0"
     inkscape:current-layer="Calque_2" />
  <defs
     id="defs5860">
    <style
       id="style5858">.cls-1{fill:#f05a2c;}.cls-2,.cls-3{stroke-miterlimit:10;stroke-width:4.78px;}.cls-2,.cls-3,.cls-4{fill:none;stroke:#3c616a;stroke-linecap:round;}.cls-3{stroke-dasharray:0 0 .34 10.11;}.cls-4{stroke-linejoin:round;stroke-width:7.96px;}</style>
  </defs>
  <g
     id="Content">
    <g
       id="Icons">
      <g
         id="g5876">
        <path
           class="cls-1"
           d="M27.36,20.36c-1.95,0-3.87-.79-5.26-2.18-1.38-1.39-2.18-3.3-2.18-5.26s.8-3.87,2.18-5.26c1.39-1.38,3.3-2.18,5.26-2.18s3.88,.8,5.26,2.18c1.38,1.39,2.18,3.3,2.18,5.26s-.8,3.88-2.18,5.26c-1.39,1.39-3.3,2.18-5.26,2.18Z"
           id="path5862" />
        <path
           class="cls-1"
           d="M90.6,112.47c-1.95,0-3.87-.79-5.26-2.18-1.38-1.39-2.18-3.3-2.18-5.26s.8-3.87,2.18-5.26c1.39-1.38,3.3-2.18,5.26-2.18s3.88,.8,5.26,2.18c1.38,1.39,2.18,3.3,2.18,5.26s-.8,3.88-2.18,5.26-3.3,2.18-5.26,2.18Z"
           id="path5864" />
        <path
           class="cls-4"
           d="M111.15,37.45l-6.35-6.35c-2.29,2.29-5.46,3.71-8.96,3.71-7,0-12.68-5.68-12.68-12.68,0-3.5,1.42-6.67,3.71-8.96l-6.37-6.37c-3.77-3.77-9.88-3.77-13.65,0L6.81,66.86c-3.77,3.77-3.77,9.88,0,13.65l6.36,6.36c2.29-2.29,5.46-3.7,8.95-3.7,7,0,12.68,5.68,12.68,12.68,0,3.5-1.41,6.66-3.7,8.95l6.36,6.36c3.77,3.77,9.88,3.77,13.65,0l60.06-60.06c3.77-3.77,3.77-9.88,0-13.65Z"
           id="path5866" />
        <g
           id="g5874">
          <line
             class="cls-2"
             x1="44.05"
             y1="29.62"
             x2="44.17"
             y2="29.73"
             id="line5868" />
          <line
             class="cls-3"
             x1="51.31"
             y1="36.87"
             x2="84.66"
             y2="70.22"
             id="line5870" />
          <line
             class="cls-2"
             x1="88.23"
             y1="73.79"
             x2="88.34"
             y2="73.91"
             id="line5872" />
        </g>
      </g>
    </g>
  </g>
  <path
     style="fill:#de3423;stroke-width:0.144382"
     d="m 26.494076,20.192091 c -2.911915,-0.331953 -5.33767,-2.413764 -6.199819,-5.320757 -0.13092,-0.441437 -0.23626,-1.307065 -0.237196,-1.949155 -0.006,-4.0849673 3.282381,-7.3395221 7.397551,-7.3215522 3.968959,0.017331 7.214904,3.313927 7.209061,7.3215522 -0.0064,4.404145 -3.78813,7.769389 -8.169597,7.269912 z"
     id="path5920" />
  <path
     style="fill:#de3423;stroke-width:0.144382"
     d="m 88.498157,112.05691 c -1.274722,-0.40792 -2.233989,-1.0039 -3.148122,-1.95588 -1.413966,-1.47249 -2.052423,-3.07365 -2.053056,-5.14875 -8.48e-4,-2.78097 1.553774,-5.227346 4.126252,-6.493118 2.134493,-1.050264 4.218922,-1.048727 6.365704,0.0047 2.57386,1.262989 4.112319,3.722368 4.112319,6.573958 0,3.28947 -2.142419,6.12097 -5.342576,7.06094 -1.053724,0.30951 -3.026102,0.28918 -4.060521,-0.0418 z"
     id="path5959" />
</svg>
