<?xml version="1.0" encoding="UTF-8" standalone="no"?>
<svg
   id="Calque_2"
   viewBox="0 0 108.3 108.3"
   version="1.1"
   sodipodi:docname="icon3.svg"
   inkscape:version="1.1.2 (b8e25be8, 2022-02-05)"
   xmlns:inkscape="http://www.inkscape.org/namespaces/inkscape"
   xmlns:sodipodi="http://sodipodi.sourceforge.net/DTD/sodipodi-0.dtd"
   xmlns="http://www.w3.org/2000/svg"
   xmlns:svg="http://www.w3.org/2000/svg">
  <sodipodi:namedview
     id="namedview4893"
     pagecolor="#ffffff"
     bordercolor="#666666"
     borderopacity="1.0"
     inkscape:pageshadow="2"
     inkscape:pageopacity="0.0"
     inkscape:pagecheckerboard="0"
     showgrid="false"
     inkscape:zoom="7.5438594"
     inkscape:cx="54.216281"
     inkscape:cy="54.150002"
     inkscape:window-width="1296"
     inkscape:window-height="997"
     inkscape:window-x="0"
     inkscape:window-y="25"
     inkscape:window-maximized="0"
     inkscape:current-layer="Calque_2" />
  <defs
     id="defs4876">
    <style
       id="style4874">.cls-1{stroke-width:4.38px;}.cls-1,.cls-2{fill:none;stroke:#3c616a;stroke-linecap:round;stroke-miterlimit:10;}.cls-3{fill:#f05a2c;}.cls-2{stroke-width:7.3px;}</style>
  </defs>
  <g
     id="Content">
    <g
       id="Icons">
      <g
         id="g4888">
        <g
           id="g4884">
          <line
             class="cls-1"
             x1="34.19"
             y1="27.4"
             x2="61.84"
             y2="64.46"
             id="line4878" />
          <circle
             class="cls-2"
             cx="54.15"
             cy="54.15"
             r="50.5"
             id="circle4880" />
          <line
             class="cls-2"
             x1="46.61"
             y1="61.69"
             x2="70.93"
             y2="37.37"
             id="line4882" />
        </g>
        <path
           class="cls-3"
           d="M54.15,60.97c-1.79,0-3.55-.72-4.83-2-1.26-1.28-2-3.03-2-4.82s.73-3.55,2-4.83c1.28-1.26,3.03-2,4.83-2s3.56,.73,4.82,2c1.26,1.28,2,3.03,2,4.83s-.73,3.56-2,4.82c-1.28,1.28-3.03,2-4.82,2Z"
           id="path4886" />
      </g>
    </g>
  </g>
  <path
     style="fill:#de3423;stroke-width:0.132558"
     d="m 52.09535,60.542509 c -2.227646,-0.76226 -3.768148,-2.361902 -4.432799,-4.602973 -0.278448,-0.93887 -0.278448,-2.640199 0,-3.579069 0.889206,-2.998225 3.455694,-4.919913 6.566356,-4.916635 3.674579,0.0039 6.615281,2.980488 6.615281,6.696073 0,3.045943 -1.9456,5.626316 -4.895571,6.492802 -1.067932,0.31368 -2.790825,0.273351 -3.853267,-0.0902 z"
     id="path4932" />
</svg>
