<?xml version="1.0" encoding="UTF-8" standalone="no"?>
<svg
   id="Calque_2"
   viewBox="0 0 117.95 117.2"
   version="1.1"
   sodipodi:docname="icon11.svg"
   inkscape:version="1.1.2 (b8e25be8, 2022-02-05)"
   xmlns:inkscape="http://www.inkscape.org/namespaces/inkscape"
   xmlns:sodipodi="http://sodipodi.sourceforge.net/DTD/sodipodi-0.dtd"
   xmlns="http://www.w3.org/2000/svg"
   xmlns:svg="http://www.w3.org/2000/svg">
  <sodipodi:namedview
     id="namedview4092"
     pagecolor="#ffffff"
     bordercolor="#666666"
     borderopacity="1.0"
     inkscape:pageshadow="2"
     inkscape:pageopacity="0.0"
     inkscape:pagecheckerboard="0"
     showgrid="false"
     inkscape:zoom="6.9709899"
     inkscape:cx="58.958628"
     inkscape:cy="58.599998"
     inkscape:window-width="1296"
     inkscape:window-height="997"
     inkscape:window-x="0"
     inkscape:window-y="25"
     inkscape:window-maximized="0"
     inkscape:current-layer="Calque_2" />
  <defs
     id="defs4075">
    <style
       id="style4073">.cls-1{fill:#f05a2c;}.cls-2{fill:none;stroke-miterlimit:10;stroke-width:4.77px;}.cls-2,.cls-3{stroke:#3c616a;stroke-linecap:round;}.cls-3{fill:#0d2c34;stroke-linejoin:round;stroke-width:7.95px;}</style>
  </defs>
  <g
     id="Content">
    <g
       id="Icons">
      <g
         id="g4087">
        <path
           class="cls-1"
           d="M58.97,66.36c-1.95,0-3.87-.78-5.26-2.17-1.38-1.39-2.17-3.3-2.17-5.25s.8-3.87,2.17-5.26c1.39-1.38,3.3-2.17,5.26-2.17s3.88,.8,5.25,2.17c1.38,1.39,2.17,3.3,2.17,5.26s-.8,3.88-2.17,5.25-3.3,2.17-5.25,2.17Z"
           id="path4077" />
        <circle
           class="cls-2"
           cx="58.97"
           cy="58.93"
           r="45.14"
           id="circle4079" />
        <rect
           class="cls-3"
           x="34.81"
           y="81.84"
           width="31.38"
           height="31.38"
           id="rect4081" />
        <polygon
           class="cls-3"
           points="94.87 10.49 113.98 48.7 75.76 48.7 94.87 10.49"
           id="polygon4083" />
        <circle
           class="cls-3"
           cx="22.4"
           cy="22.4"
           r="18.42"
           id="circle4085" />
      </g>
    </g>
  </g>
  <path
     style="fill:#de3423;stroke-width:0.143452"
     d="m 57.184715,66.047081 c -3.175632,-0.768653 -5.542121,-3.795427 -5.542121,-7.088453 0,-2.714465 1.636709,-5.384362 4.017867,-6.554185 1.193389,-0.586292 1.943225,-0.753998 3.390645,-0.758343 4.016651,-0.01206 7.215438,3.231246 7.221853,7.322354 0.0074,4.708148 -4.470961,8.196229 -9.088244,7.078627 z"
     id="path4131" />
</svg>
