<?xml version="1.0" encoding="UTF-8" standalone="no"?>
<svg
   id="Calque_2"
   viewBox="0 0 121.51 104.93"
   version="1.1"
   sodipodi:docname="icon7.svg"
   inkscape:version="1.1.2 (b8e25be8, 2022-02-05)"
   xmlns:inkscape="http://www.inkscape.org/namespaces/inkscape"
   xmlns:sodipodi="http://sodipodi.sourceforge.net/DTD/sodipodi-0.dtd"
   xmlns="http://www.w3.org/2000/svg"
   xmlns:svg="http://www.w3.org/2000/svg">
  <sodipodi:namedview
     id="namedview2948"
     pagecolor="#ffffff"
     bordercolor="#666666"
     borderopacity="1.0"
     inkscape:pageshadow="2"
     inkscape:pageopacity="0.0"
     inkscape:pagecheckerboard="0"
     showgrid="false"
     inkscape:zoom="7.7861431"
     inkscape:cx="60.748948"
     inkscape:cy="52.465"
     inkscape:window-width="1296"
     inkscape:window-height="997"
     inkscape:window-x="0"
     inkscape:window-y="25"
     inkscape:window-maximized="0"
     inkscape:current-layer="Calque_2" />
  <defs
     id="defs2929">
    <style
       id="style2927">.cls-1{fill:#f05a2c;}.cls-2{fill:#3c616a;}.cls-3{fill:none;stroke:#3c616a;stroke-linecap:round;stroke-linejoin:round;stroke-width:7.87px;}</style>
  </defs>
  <g
     id="Content">
    <g
       id="Icons">
      <g
         id="g2943">
        <circle
           class="cls-2"
           cx="19.12"
           cy="18.98"
           r="6.98"
           id="circle2931" />
        <circle
           class="cls-1"
           cx="60.77"
           cy="6.98"
           r="6.98"
           id="circle2933" />
        <circle
           class="cls-2"
           cx="102.39"
           cy="18.98"
           r="6.98"
           id="circle2935" />
        <path
           class="cls-3"
           d="M31.46,34.27H6.79c-1.58,0-2.86,1.28-2.86,2.86v27.39c0,3,2.74,5.42,6.12,5.42v30.09c0,.53,.43,.97,.97,.97H27.23c.53,0,.97-.43,.97-.97v-30.09c3.38,0,6.12-2.43,6.12-5.42v-27.39c0-1.58-1.28-2.86-2.86-2.86Z"
           id="path2937" />
        <path
           class="cls-3"
           d="M73.11,22.55h-24.67c-1.58,0-2.86,1.28-2.86,2.86v27.39c0,3,2.74,5.42,6.12,5.42v30.09c0,.53,.43,.97,.97,.97h16.21c.53,0,.97-.43,.97-.97v-30.09c3.38,0,6.12-2.43,6.12-5.42V25.41c0-1.58-1.28-2.86-2.86-2.86Z"
           id="path2939" />
        <path
           class="cls-3"
           d="M114.72,34.27h-24.67c-1.58,0-2.86,1.28-2.86,2.86v27.39c0,3,2.74,5.42,6.12,5.42v30.09c0,.53,.43,.97,.97,.97h16.21c.53,0,.97-.43,.97-.97v-30.09c3.38,0,6.12-2.43,6.12-5.42v-27.39c0-1.58-1.28-2.86-2.86-2.86Z"
           id="path2941" />
      </g>
    </g>
  </g>
  <path
     style="fill:#de3423;stroke-width:0.128433"
     d="M 59.093305,13.667689 C 56.630802,13.00546 54.857228,11.266203 54.123263,8.7938152 53.854359,7.8880024 53.823704,6.1157886 54.062295,5.2691621 54.91586,2.2403417 57.632548,0.12696516 60.687021,0.11562914 c 2.015623,-0.007481 3.501085,0.59852137 4.882079,1.99166966 1.533091,1.5465828 2.208732,3.2678924 2.07291,5.2810909 -0.249861,3.7035303 -3.254961,6.4990453 -6.957279,6.4720553 -0.494468,-0.0036 -1.21061,-0.09035 -1.591426,-0.192756 z"
     id="path2987" />
</svg>
