<?xml version="1.0" encoding="utf-8"?>
<!-- Generator: Adobe Illustrator 25.4.1, SVG Export Plug-In . SVG Version: 6.00 Build 0)  -->
<svg version="1.1" id="layer" xmlns="http://www.w3.org/2000/svg" xmlns:xlink="http://www.w3.org/1999/xlink" x="0px" y="0px"
	 viewBox="0 0 525 350" style="enable-background:new 0 0 525 350;" xml:space="preserve">
<style type="text/css">
	.st0{fill:#9E62DD;}
</style>
<path class="st0" d="M427.1,160.1L357.3,39.2c-5.5-8.6-14.9-13.9-25.1-14.3h-52c-0.5-0.1-1-0.1-1.4,0h-86.1
	c-10.2,0.4-19.5,5.8-25,14.4L97.9,160.1c-4.7,9.1-4.7,19.8,0,28.9l69.8,120.9c5.5,8.6,14.8,14,25,14.4h139.6
	c10.2-0.5,19.5-5.8,25-14.4l69.8-120.9C431.8,179.9,431.8,169.1,427.1,160.1 M348.7,44.3l25.5,44.1l-44.6,76.4l-29.2-50
	c-0.9-1.5-2.5-2.5-4.3-2.5h-58l44.4-77.4h49.9C338.9,35.4,344.9,38.8,348.7,44.3 M265.7,169.9l-27.8-47.6h55.3l27.8,47.6
	L265.7,169.9z M256.6,174.7l-27.5,47.1l-27.6-47.3l27.5-47.1L256.6,174.7z M265.4,180h55l-27.3,46.8h-55.2L265.4,180z M176.4,44.3
	c3.7-5.4,9.7-8.8,16.3-9.2h78.1l-44.4,77.2h-89.3L176.4,44.3z M106.6,165.1l24.7-42.8h89l-29,49.7c-0.9,1.6-0.9,3.5,0,5.1l29,49.7
	h-89L106.6,184C103.7,178,103.7,171.1,106.6,165.1 M192.7,314.2c-6.6-0.5-12.6-3.9-16.3-9.4l-39.3-68h89l44.8,77.4H192.7z
	 M348.6,304.8c-3.7,5.5-9.7,9-16.3,9.4h-49.8l-44.8-77.5h58.2c1.8,0,3.4-0.9,4.3-2.5l29-49.6l44.6,76.5L348.6,304.8z M418.4,183.9
	l-38.8,67.3l-44.4-76.3l44.8-76.5l38.5,66.7C421.3,171,421.3,178,418.4,183.9"/>
</svg>
