<?xml version="1.0" encoding="utf-8"?>
<!-- Generator: Adobe Illustrator 25.4.1, SVG Export Plug-In . SVG Version: 6.00 Build 0)  -->
<svg version="1.1" id="Layer_1" xmlns="http://www.w3.org/2000/svg" xmlns:xlink="http://www.w3.org/1999/xlink" x="0px" y="0px"
	 viewBox="0 0 196.7 29.2" style="enable-background:new 0 0 196.7 29.2;" xml:space="preserve">
<style type="text/css">
	.st0{clip-path:url(#SVGID_00000110437321028591672570000010528067797868481467_);}
	.st1{fill:#9E62DD;}
</style>
<g>
	<defs>
		<rect id="SVGID_1_" width="196.7" height="29.2"/>
	</defs>
	<clipPath id="SVGID_00000149383846264727758340000013575819852527085741_">
		<use xlink:href="#SVGID_1_"  style="overflow:visible;"/>
	</clipPath>
	<g style="clip-path:url(#SVGID_00000149383846264727758340000013575819852527085741_);">
		<path class="st1" d="M89,4.7c-3.6,0-6.8,2.4-7.7,5.9c-0.2,0.7-0.3,1.4-0.3,2.1v3.6c0,0.7,0.1,1.4,0.3,2c1.1,4.3,5.5,6.8,9.8,5.6
			c2.7-0.7,4.9-2.9,5.6-5.6c0.2-0.7,0.3-1.4,0.3-2v-3.6c0-0.7-0.1-1.4-0.3-2.1C95.7,7.1,92.5,4.7,89,4.7 M92,16.3
			c0,0.7-0.3,1.4-0.7,1.9c-0.6,0.7-1.4,1.1-2.3,1.1c-0.9,0-1.8-0.4-2.4-1.1c-0.5-0.5-0.8-1.2-0.8-1.9v-3.5c0-0.8,0.4-1.6,1-2.1
			c0.6-0.6,1.4-0.9,2.2-0.9c0.8,0,1.6,0.3,2.1,0.9c0.6,0.6,0.9,1.3,0.9,2.1C92,13.5,92,15.7,92,16.3"/>
		<path class="st1" d="M163.4,4.7c-3.6,0-6.8,2.4-7.7,5.9c-0.2,0.7-0.3,1.4-0.3,2.1v3.6c0,0.7,0.1,1.4,0.3,2
			c1.1,4.3,5.5,6.8,9.8,5.6c2.7-0.7,4.9-2.9,5.6-5.6c0.2-0.7,0.3-1.4,0.3-2v-3.6c0-0.7-0.1-1.4-0.3-2.1C170.2,7.1,167,4.7,163.4,4.7
			 M166.5,16.3c0,0.7-0.3,1.4-0.7,1.9c-0.6,0.7-1.4,1.1-2.3,1.1c-0.9,0-1.8-0.4-2.4-1.1c-0.5-0.5-0.8-1.2-0.8-1.9v-3.5
			c0-0.8,0.4-1.6,1-2.1c0.6-0.6,1.4-0.9,2.2-0.9c0.8,0,1.6,0.3,2.1,0.9c0.6,0.6,0.9,1.3,0.9,2.1C166.5,13.5,166.5,15.7,166.5,16.3"
			/>
		<path class="st1" d="M78.5,5.2h-4.7v8.7l-4.4-7.7c-0.3-0.5-0.9-0.9-1.6-0.9h-4.7v18.6h2.9c1,0,1.8-0.8,1.8-1.8c0,0,0-0.1,0-0.1
			v-8.6l6.1,10.4h2.9c1,0,1.8-0.8,1.8-1.8c0,0,0-0.1,0-0.1L78.5,5.2z"/>
		<path class="st1" d="M147.2,19.2v-14h-4.6v18.6h8.9c1,0,1.8-0.8,1.7-1.8c0,0,0-0.1,0-0.1v-2.7H147.2z"/>
		<path class="st1" d="M133.7,5.2h-9v18.6h2.9c1,0,1.8-0.8,1.8-1.8c0,0,0-0.1,0-0.1v-3.6h4.4c3.6,0,6.5-3,6.5-6.7
			C140.2,8.1,137.3,5.2,133.7,5.2 M133.7,13.6h-4.4V9.9h4.3c1,0,1.9,0.8,1.9,1.8C135.6,12.8,134.7,13.6,133.7,13.6"/>
		<path class="st1" d="M105.3,23.8c0.9,0,1.7-0.5,1.9-1.4c0.1-0.2,1.4-4.6,2.6-8.9l2.5,8.4l0.6,1.9h2.4c0.7,0,1.4-0.5,1.7-1.1
			c0.1-0.1,0.1-0.3,0.2-0.4c0.1-0.3,5-17.1,5-17.1h-5l-2.5,8.4c-1-3.4-2-6.7-2.1-7.1c-0.2-0.8-0.9-1.3-1.7-1.4h-3.7l-2.5,8.4
			c-1-3.4-2-6.6-2.1-7c-0.2-0.8-1-1.4-1.8-1.4h-3.5l5.6,18.6L105.3,23.8z"/>
		<path class="st1" d="M179.8,23.8c0.9,0,1.7-0.5,1.9-1.4c0.1-0.2,1.4-4.6,2.6-8.9l2.5,8.4l0.6,1.9h2.4c0.7,0,1.4-0.5,1.7-1.1
			c0.1-0.1,0.1-0.3,0.2-0.4c0.1-0.3,5-17.1,5-17.1h-5l-2.5,8.4c-1-3.4-2-6.7-2.1-7.1c-0.2-0.8-0.9-1.3-1.7-1.4h-3.7l-2.5,8.4
			c-1-3.4-2-6.6-2.1-7c-0.2-0.8-1-1.4-1.8-1.4h-3.5l5.6,18.6L179.8,23.8z"/>
		<path class="st1" d="M60,15.4c-0.6-0.8-1.4-1.4-2.3-1.8c-1.1-0.5-2.3-0.9-3.6-1.2c-0.9-0.2-1.8-0.5-2.6-0.9
			c-0.6-0.2-1.1-0.4-1.1-0.9c0-0.3,0.1-0.6,0.4-0.8c0.6-0.3,1.3-0.4,1.9-0.4c0.6,0,1.3,0.1,1.9,0.5c0.2,0.1,0.5,0.3,0.6,0.6h5.1
			v-0.3c-0.1-1-0.4-1.9-1-2.7c-0.7-0.9-1.6-1.6-2.6-2.1c-1.2-0.5-2.6-0.8-3.9-0.8c-1.3,0-2.6,0.2-3.8,0.7c-1.1,0.4-2,1.1-2.7,2
			c-0.6,0.9-1,1.9-1,3c0,1,0.2,2,0.8,2.9c0.6,0.8,1.3,1.5,2.2,1.9c1.1,0.5,2.2,0.9,3.3,1.2c1.3,0.4,2.3,0.7,2.9,0.9
			c0.4,0.1,0.7,0.3,1,0.6c0.1,0.1,0.1,0.2,0.1,0.4c0,0.4-0.2,0.7-0.5,0.9c-1.5,0.7-3.1,0.7-4.6,0c-0.3-0.2-0.6-0.5-0.7-0.8h-5.1
			c0,0,0,0.1,0,0.1v0c0.1,1,0.4,2.1,1.1,2.9c0.8,0.9,1.7,1.6,2.9,2c1.3,0.5,2.7,0.7,4.1,0.7c2,0.1,4-0.4,5.6-1.5
			c1.5-1,2.4-2.7,2.3-4.5C60.9,17.3,60.6,16.2,60,15.4"/>
		<path class="st1" d="M32.4,13.2L25.6,1.4C25.1,0.6,24.2,0,23.2,0h-5.1c0,0-0.1,0-0.1,0H9.6c-1,0-1.9,0.6-2.4,1.4L0.3,13.2
			c-0.5,0.9-0.5,1.9,0,2.8l6.8,11.8c0.5,0.8,1.4,1.4,2.4,1.4h13.6c1,0,1.9-0.6,2.4-1.4L32.4,16C32.9,15.1,32.9,14.1,32.4,13.2
			 M24.8,1.9l2.5,4.3l-4.3,7.4l-2.8-4.9c-0.1-0.1-0.2-0.2-0.4-0.2H14L18.3,1h4.9C23.8,1,24.4,1.4,24.8,1.9 M16.7,14.1L14,9.5h5.4
			l2.7,4.6L16.7,14.1z M15.8,14.6l-2.7,4.6l-2.7-4.6l2.7-4.6L15.8,14.6z M16.7,15.1H22l-2.7,4.6H14L16.7,15.1z M8,1.9
			C8.4,1.4,8.9,1,9.6,1h7.6l-4.3,7.5H4.2L8,1.9z M1.2,13.7l2.4-4.2h8.7l-2.8,4.8c-0.1,0.2-0.1,0.3,0,0.5l2.8,4.8H3.6l-2.4-4.2
			C0.9,14.9,0.9,14.2,1.2,13.7 M9.6,28.2c-0.6,0-1.2-0.4-1.6-0.9l-3.8-6.6h8.7l4.4,7.5H9.6z M24.8,27.3c-0.4,0.5-0.9,0.9-1.6,0.9
			h-4.8L14,20.6h5.7c0.2,0,0.3-0.1,0.4-0.2l2.8-4.8l4.3,7.5L24.8,27.3z M31.6,15.5L27.8,22l-4.3-7.4l4.4-7.5l3.8,6.5
			C31.9,14.2,31.9,14.9,31.6,15.5"/>
	</g>
</g>
</svg>
