<svg xmlns="http://www.w3.org/2000/svg" width="200" height="36" viewBox="0 0 200 36">
  <g fill="none" fill-rule="evenodd">
    <path fill="#01C38D" d="M21.6724252,0 L18.8012949,1.6291718 L18.8012949,15.4699389 L20.3692245,16.3608429 L20.3692245,5.82017504 L25.7514677,8.87535465 L25.7566652,8.87289843 L26.8017206,9.46519695 L27.6742171,8.97325233 L27.6742171,8.14129748 L20.3692245,4.00047119 L20.3692245,2.55937522 L21.6724252,1.82005474 L29.2376422,6.11492075 L29.2376422,9.93749185 L25.6059361,11.9873781 L25.4832738,11.9266745 C25.2622044,11.8178993 25.0331654,11.762459 24.8030869,11.762459 C23.9389064,11.762459 23.2355038,12.4747611 23.2355038,13.3498752 C23.2355038,14.2249892 23.9389064,14.9376422 24.8030869,14.9376422 C25.6048966,14.9376422 26.2715699,14.3246413 26.3536913,13.5119853 L26.3675514,13.3751391 L30.0328684,11.306305 L33.4320704,13.2361876 L33.4320704,21.77469 L30.0290568,23.7045726 L16.1983586,15.8506521 L16.1983586,1.63022447 L13.3272283,0 L4.19477472,5.18471733 L4.19477472,9.9160877 L0,12.2944048 L0,22.6940159 L4.19477472,25.075491 L4.19477472,29.8152827 L13.3272283,35 L16.1983586,33.3701264 L16.1983586,19.4995338 L14.630429,18.6096825 L14.630429,29.1801758 L8.19827936,25.5348031 L7.32543635,26.0267477 L7.32543635,26.8590534 L14.630429,31.0002306 L14.630429,32.439923 L13.3272283,33.1799453 L5.76235781,28.8850793 L5.76235781,25.0618064 L9.3940639,23.0129728 L9.51603322,23.0733255 C9.73814215,23.1821007 9.96648813,23.237541 10.1962201,23.237541 C11.0607471,23.237541 11.7641497,22.5255897 11.7641497,21.6501248 C11.7641497,20.774309 11.0607471,20.0627087 10.1962201,20.0627087 C9.39510341,20.0627087 8.72912315,20.6753587 8.64596224,21.4883656 L8.6327951,21.6248609 L4.96678514,23.6940459 L1.56758309,21.7638124 L1.56758309,13.22531 L4.97094318,11.2957783 L18.8012949,19.1486461 L18.8012949,33.3701264 L21.6724252,35 L30.8052253,29.8152827 L30.8052253,25.0839123 L35,22.705946 L35,12.3059841 L30.8052253,9.92521078 L30.8052253,5.18471733 L21.6724252,0 Z M5.76235781,6.11492075 L13.3272283,1.82005474 L14.630429,2.55972611 L14.630429,3.99976942 L5.76235781,9.02693815 L5.76235781,6.11492075 Z M6.57560217,10.3866282 L14.630429,5.81947327 L14.630429,14.9600991 L6.57560217,10.3866282 Z M20.3692245,20.0391992 L28.4247443,24.6137227 L20.3692245,29.1808776 L20.3692245,20.0391992 Z M20.3692245,32.439923 L20.3692245,31.0005815 L29.2376422,25.972711 L29.2376422,28.8850793 L21.6724252,33.1799453 L20.3692245,32.439923 Z"/>
    <path fill="#191E29" d="M140.6564,25.4089206 C141.757311,25.4089206 142.655172,25.0693411 143.34963,24.3887745 C144.043737,23.7085599 144.391671,22.8713997 144.391671,21.876942 C144.391671,20.8828363 144.043737,20.046028 143.34963,19.3651095 C142.655172,18.6852468 141.757311,18.3449635 140.6564,18.3449635 L135.152552,18.3449635 L135.152552,25.4089206 L140.6564,25.4089206 Z M135.152552,14.8126331 L140.263344,14.8126331 C141.154154,14.8126331 141.900785,14.5184481 142.504295,13.9297264 C143.106746,13.3410047 143.408853,12.6544559 143.408853,11.8690244 C143.408853,11.0842966 143.106746,10.3977479 142.504295,9.80902613 C141.900785,9.21995249 141.154154,8.92576757 140.263344,8.92576757 L135.152552,8.92576757 L135.152552,14.8126331 Z M145.177784,16.3827923 C145.911019,16.7227237 146.567053,17.1671681 147.143419,17.7168294 C147.641173,18.1876661 148.0931,18.8158001 148.499904,19.6005278 C148.906004,20.3856075 149.109406,21.3410047 149.109406,22.4656638 C149.109406,23.4076889 148.912702,24.3039676 148.519645,25.1537961 C148.126236,26.0043283 147.568907,26.7503475 146.848715,27.3907979 C146.127817,28.032304 145.275784,28.5488871 144.292966,28.941251 C143.310149,29.3336149 142.229331,29.5299727 141.049457,29.5299727 L130.434464,29.5299727 L130.434464,4.8050673 L140.6564,4.8050673 C141.730872,4.8050673 142.726733,4.98840503 143.644687,5.3547286 C144.561584,5.72140406 145.354747,6.21792909 146.02312,6.84571127 C146.691492,7.47384534 147.208634,8.20015835 147.575957,9.02359462 C147.942927,9.84808657 148.126236,10.7309932 148.126236,11.6730184 C148.126236,12.5108824 147.969014,13.2301575 147.654569,13.8315475 C147.340123,14.4339931 146.999239,14.917498 146.632269,15.2838216 C146.186688,15.7289698 145.701977,16.0949415 145.177784,16.3827923 Z M75.6651956,18.6342571 L72.3420175,29.3656726 L68.4326035,29.3656726 L62.5688351,11.414762 L67.0648374,11.414762 L70.5829574,22.9263306 L74.2967244,11.414762 L77.0333142,11.414762 L80.7470812,22.9263306 L84.2655538,11.414762 L88.7612036,11.414762 L82.8970827,29.3656726 L78.9880212,29.3656726 L75.6651956,18.6342571 Z M90.5201226,29.3657781 L90.5201226,11.4148676 L95.0157724,11.4148676 L95.0157724,29.3657781 L90.5201226,29.3657781 Z M168.921181,20.3902877 C168.921181,21.6648544 168.679707,22.8556699 168.197816,23.9606229 C167.71522,25.0666315 167.064121,26.0357526 166.243109,26.8679863 C165.422097,27.7009237 164.470654,28.3579133 163.389131,28.838603 C162.307609,29.3203484 161.154526,29.5606932 159.929882,29.5606932 C158.70418,29.5606932 157.551097,29.3203484 156.469574,28.838603 C155.388052,28.3579133 154.436961,27.7009237 153.616301,26.8679863 C152.795289,26.0357526 152.143485,25.0666315 151.661594,23.9606229 C151.178999,22.8556699 150.93823,21.6648544 150.93823,20.3902877 C150.93823,19.1153691 151.178999,17.9252573 151.661594,16.8196006 C152.143485,15.7142958 152.795289,14.7451746 153.616301,13.9122372 C154.436961,13.0800035 155.388052,12.423014 156.469574,11.9412686 C157.551097,11.460227 158.70418,11.2191783 159.929882,11.2191783 C161.154526,11.2191783 162.307609,11.460227 163.389131,11.9412686 C164.470654,12.423014 165.422097,13.0800035 166.243109,13.9122372 C167.064121,14.7451746 167.71522,15.7142958 168.197816,16.8196006 C168.679707,17.9252573 168.921181,19.1153691 168.921181,20.3902877 Z M155.433879,20.3902877 C155.433879,21.8728248 155.86395,23.0569543 156.723739,23.9412686 C157.584233,24.8259347 158.65236,25.2679159 159.929882,25.2679159 C161.206346,25.2679159 162.275178,24.8259347 163.135319,23.9412686 C163.995108,23.0569543 164.425531,21.8728248 164.425531,20.3902877 C164.425531,18.9070467 163.995108,17.7239729 163.135319,16.8389549 C162.275178,15.9546406 161.206346,15.5123076 159.929882,15.5123076 C158.65236,15.5123076 157.584233,15.9546406 156.723739,16.8389549 C155.86395,17.7239729 155.433879,18.9070467 155.433879,20.3902877 Z M179.664596,11.2193543 C179.872581,11.2193543 180.055185,11.2330782 180.211703,11.2584147 C180.367868,11.2848069 180.510637,11.3108472 180.641421,11.3361837 C180.771852,11.3625759 180.901931,11.3886162 181.032715,11.4150084 L181.032715,16.0973344 C180.901931,16.0719979 180.758809,16.0456057 180.602644,16.0195654 C180.47186,15.9935251 180.30935,15.9678367 180.113703,15.9414445 C179.918761,15.9157561 179.703373,15.902736 179.468949,15.902736 C178.374384,15.902736 177.481458,16.2602622 176.79123,16.9756664 C176.100297,17.6914225 175.75483,18.6341515 175.75483,19.8042052 L175.75483,29.365567 L171.25918,29.365567 L171.25918,11.4150084 L174.582358,11.4150084 L175.364241,13.3659189 C175.676924,12.9753145 176.054469,12.6241225 176.497936,12.3119909 C176.862438,12.0262514 177.311898,11.7725345 177.846666,11.5508402 C178.380377,11.3302015 178.986354,11.2193543 179.664596,11.2193543 Z M60.4191861,9.28769244 C60.6934444,9.95453506 60.8661778,10.6650128 60.9479617,11.4149028 L56.4054271,11.4149028 C56.2637153,10.7741005 55.9753563,10.2388669 55.5325949,9.81448051 C54.8807909,9.19056919 53.9688294,8.87808569 52.7960052,8.87808569 C51.623181,8.87808569 50.7105144,9.1645289 50.0594154,9.73635964 C49.4079639,10.3088942 49.0822382,10.9335093 49.0822382,11.6098531 C49.0822382,12.3382775 49.3949208,12.89744 50.020286,13.2876924 C50.6456512,13.6782968 51.4278865,14.029137 52.3659344,14.3412686 C53.3039822,14.6537521 54.3266342,14.9792557 55.4345952,15.3167238 C56.5422037,15.6555995 57.5652082,16.1109528 58.503256,16.6827835 C59.4420089,17.255318 60.2235392,18.0034486 60.8492569,18.9268233 C61.4746222,19.8505498 61.7873048,21.0536817 61.7873048,22.5365708 C61.7873048,23.420885 61.5722694,24.2798628 61.1425511,25.1117445 C60.7121278,25.9450339 60.1065035,26.6921087 59.3246207,27.3561362 C58.5427379,28.018756 57.5976398,28.552582 56.4900312,28.9562066 C55.3820702,29.3594792 54.1510807,29.5604117 52.7960052,29.5604117 C51.4141384,29.5604117 50.1831489,29.3658133 49.1019791,28.9752089 C48.0201043,28.5849565 47.1014449,28.0328319 46.3456484,27.3167238 C45.5894993,26.6016715 45.0096088,25.7557139 44.6063293,24.7799067 C44.2016397,23.8048034 44,22.7315211 44,21.5607636 L48.6909442,21.5607636 C48.6909442,22.6534002 49.0557994,23.5451042 49.7858622,24.2341163 C50.5148674,24.9234802 51.5188359,25.2679863 52.7960052,25.2679863 C54.1771669,25.2679863 55.2061642,24.9755608 55.884407,24.3900062 C56.5619447,23.8048034 56.9010661,23.1217736 56.9010661,22.3412686 C56.9010661,21.5868039 56.588031,21.0016011 55.9623132,20.5849565 C55.336948,20.1693675 54.5550652,19.7988211 53.6166648,19.4729656 C52.678617,19.1481657 51.6556125,18.8289962 50.5483565,18.5172165 C49.4396904,18.204733 48.417391,17.7754201 47.4793432,17.2292777 C46.5412953,16.6827835 45.75906,15.9744172 45.1336948,15.1020674 C44.5079771,14.2307733 44.195647,13.079722 44.195647,11.6485616 C44.195647,10.7121668 44.3972867,9.81448051 44.8016237,8.95620656 C45.2052558,8.09722882 45.778801,7.34980206 46.5215544,6.7121668 C47.2646603,6.07488343 48.1632262,5.56076361 49.2193673,5.17051113 C50.2744508,4.78061054 51.4666634,4.58530835 52.7960052,4.58530835 C54.0210019,4.58530835 55.1349557,4.78061054 56.1382192,5.17051113 C57.1414827,5.56076361 58.0083221,6.10760975 58.7380324,6.80964195 C59.4677427,7.51202604 60.0282447,8.33862937 60.4191861,9.28769244 Z M126.97398,21.5023137 C127.429432,22.1656374 127.657863,23.0313011 127.657863,24.0971936 C127.657863,24.8259699 127.501698,25.521668 127.188663,26.1849916 C126.87598,26.8483153 126.432514,27.4278877 125.859674,27.9215976 C125.286129,28.4163632 124.58885,28.8129498 123.76819,29.1120612 C122.947178,29.4108208 122.028519,29.5603765 121.012212,29.5603765 C118.666564,29.5603765 116.888115,29.0279581 115.675809,27.9610099 C114.991926,27.3585643 114.477604,26.6403449 114.121209,25.8140934 L117.885033,23.7076449 C117.989026,24.3062198 118.275622,24.8129498 118.744822,25.2292425 C119.21367,25.6451834 119.839388,25.8531539 120.621271,25.8531539 C121.402801,25.8531539 122.021821,25.6522213 122.477978,25.2485968 C122.933782,24.8453242 123.162213,24.3970089 123.162213,23.9022433 C123.162213,23.4863025 122.933782,23.1607988 122.477978,22.9264362 C122.021821,22.6924254 121.454973,22.477769 120.777788,22.2831706 C120.099545,22.0875165 119.36349,21.886584 118.568916,21.6779097 C117.773285,21.4699393 117.037582,21.1644937 116.360397,20.7608692 C115.682154,20.3575966 115.114954,19.8378464 114.659502,19.1998592 C114.202993,18.5625759 113.975619,17.7240081 113.975619,16.6827483 C113.975619,15.9543239 114.125087,15.2586258 114.424726,14.5949503 C114.724366,13.9316266 115.160782,13.3531099 115.734679,12.8586962 C116.30752,12.3642826 116.985762,11.9673441 117.767645,11.6685845 C118.549528,11.369473 119.434698,11.2192135 120.425976,11.2192135 C122.588668,11.2192135 124.250081,11.7403713 125.409862,12.7805753 C126.015839,13.3242544 126.488564,13.9407759 126.834736,14.6266209 L123.162213,16.6823964 C123.057516,16.2924958 122.777265,15.9022433 122.322165,15.5123427 C121.865656,15.1217384 121.298456,14.9264362 120.621271,14.9264362 C119.94338,14.9264362 119.415662,15.09605 119.038117,15.4342219 C118.659866,15.7723938 118.471269,16.1886865 118.471269,16.6827483 C118.471269,17.0990411 118.698995,17.4241928 119.155152,17.6585555 C119.610604,17.8922143 120.177804,18.1072227 120.856047,18.3025249 C121.53288,18.4974751 122.268935,18.7061494 123.064566,18.9267881 C123.85914,19.1481306 124.595548,19.4669482 125.273438,19.8828891 C125.950976,20.2991818 126.517471,20.8386382 126.97398,21.5023137 Z M111.141347,21.5023137 C111.596799,22.1656374 111.82523,23.0313011 111.82523,24.0971936 C111.82523,24.8259699 111.669065,25.521668 111.356383,26.1849916 C111.0437,26.8483153 110.600233,27.4278877 110.027041,27.9215976 C109.453496,28.4163632 108.756569,28.8129498 107.935557,29.1120612 C107.114545,29.4108208 106.195886,29.5603765 105.179579,29.5603765 C102.834283,29.5603765 101.055482,29.0279581 99.843176,27.9610099 C99.159293,27.3585643 98.6449706,26.6403449 98.2885759,25.8140934 L102.0524,23.7076449 C102.156393,24.3062198 102.442989,24.8129498 102.912189,25.2292425 C103.38139,25.6451834 104.006755,25.8531539 104.788638,25.8531539 C105.570168,25.8531539 106.189188,25.6522213 106.645345,25.2485968 C107.101149,24.8453242 107.32958,24.3970089 107.32958,23.9022433 C107.32958,23.4863025 107.101149,23.1607988 106.645345,22.9264362 C106.189188,22.6924254 105.62234,22.477769 104.945155,22.2831706 C104.266912,22.0875165 103.530857,21.886584 102.736283,21.6779097 C101.941005,21.4699393 101.204949,21.1644937 100.527764,20.7608692 C99.8495213,20.3575966 99.2823214,19.8378464 98.8268694,19.1998592 C98.3703598,18.5625759 98.1429863,17.7240081 98.1429863,16.6827483 C98.1429863,15.9543239 98.2924536,15.2586258 98.592093,14.5949503 C98.8917325,13.9316266 99.3285011,13.3531099 99.9020464,12.8586962 C100.474887,12.3642826 101.153129,11.9673441 101.935012,11.6685845 C102.716895,11.369473 103.602065,11.2192135 104.593343,11.2192135 C106.756035,11.2192135 108.417448,11.7403713 109.577582,12.7805753 C110.183206,13.3242544 110.655931,13.9407759 111.002103,14.6266209 L107.32958,16.6823964 C107.224883,16.2924958 106.944632,15.9022433 106.489532,15.5123427 C106.033023,15.1217384 105.465823,14.9264362 104.788638,14.9264362 C104.110747,14.9264362 103.583029,15.09605 103.205484,15.4342219 C102.827233,15.7723938 102.638636,16.1886865 102.638636,16.6827483 C102.638636,17.0990411 102.866362,17.4241928 103.322519,17.6585555 C103.777971,17.8922143 104.345171,18.1072227 105.023414,18.3025249 C105.700247,18.4974751 106.436655,18.7061494 107.231933,18.9267881 C108.026507,19.1481306 108.762915,19.4669482 109.440805,19.8828891 C110.118343,20.2991818 110.684838,20.8386382 111.141347,21.5023137 Z M196.677174,11.4147972 L200,11.4147972 L200,28.1949503 C200,30.5364652 199.250196,32.422275 197.751646,33.8534354 C196.253096,35.283892 194.135879,36 191.399289,36 C189.731179,36 188.382448,35.7001847 187.353099,35.1023137 C186.323396,34.503387 185.509435,33.8270432 184.910156,33.0725785 C184.680667,32.7826163 184.478675,32.4743556 184.288316,32.1576493 L187.881169,30.1465646 C188.063068,30.4840327 188.310887,30.7831442 188.62357,31.043899 C188.910166,31.2511657 189.274669,31.4468197 189.718136,31.6291018 C190.161249,31.81068 190.721399,31.902173 191.399289,31.902173 C192.676106,31.902173 193.680075,31.557315 194.409432,30.868303 C195.13879,30.178939 195.503998,29.2875869 195.503998,28.1949503 L195.503998,26.8288906 C195.13879,27.1938066 194.722467,27.5189584 194.253267,27.8043459 C193.835887,28.0651007 193.340601,28.2924254 192.76776,28.4877276 C192.194215,28.6830298 191.542059,28.780505 190.813053,28.780505 C189.692049,28.780505 188.629563,28.5595144 187.627004,28.1168294 C186.623388,27.6748482 185.750204,27.0632533 185.00745,26.2827483 C184.265049,25.5022433 183.678461,24.5788687 183.24839,23.5119205 C182.818319,22.4453242 182.603637,21.2752705 182.603637,20 C182.603637,18.7257852 182.818319,17.5550277 183.24839,16.4877276 C183.678461,15.4211313 184.265049,14.4970529 185.00745,13.7168998 C185.750204,12.9367467 186.623388,12.3255037 187.627004,11.8828187 C188.629563,11.4408375 189.692049,11.219495 190.813053,11.219495 C191.594936,11.219495 192.29856,11.3236562 192.923925,11.5316266 C193.549291,11.7403009 194.083354,11.9609396 194.52682,12.1949503 C195.021402,12.4820973 195.477911,12.8061934 195.894939,13.1704056 L196.677174,11.4147972 Z M92.7677713,9.07293041 C92.089881,9.07293041 91.4972999,8.81921351 90.9889703,8.31213161 C90.4809932,7.80469781 90.2268284,7.2135128 90.2268284,6.5368171 C90.2268284,5.8604733 90.4809932,5.26788071 90.9889703,4.7607988 C91.4972999,4.2537169 92.089881,4 92.7677713,4 C93.445309,4 94.0382427,4.2537169 94.5465722,4.7607988 C95.0549018,5.26788071 95.3090666,5.8604733 95.3090666,6.5368171 C95.3090666,7.2135128 95.0549018,7.80469781 94.5465722,8.31213161 C94.0382427,8.81921351 93.445309,9.07293041 92.7677713,9.07293041 Z M195.347833,21.7559602 C195.582256,21.2098179 195.699645,20.6239113 195.699645,20 C195.699645,19.375033 195.582256,18.7898302 195.347833,18.2440398 C195.113056,17.6975455 194.800374,17.2231899 194.409432,16.8192135 C194.018491,16.4162928 193.562334,16.0974751 193.040961,15.8634644 C192.519941,15.6291018 191.972482,15.5122724 191.399289,15.5122724 C190.799658,15.5122724 190.239508,15.6291018 189.718136,15.8634644 C189.196763,16.0974751 188.741311,16.4162928 188.350017,16.8192135 C187.959075,17.2231899 187.652738,17.6975455 187.431357,18.2440398 C187.209624,18.7898302 187.099286,19.375033 187.099286,20 C187.099286,20.6239113 187.209624,21.2098179 187.431357,21.7559602 C187.652738,22.3024545 187.959075,22.7768101 188.350017,23.1804346 C188.741311,23.5837072 189.196763,23.9025249 189.718136,24.1365356 C190.239508,24.3708982 190.799658,24.4877276 191.399289,24.4877276 C191.972482,24.4877276 192.519941,24.3708982 193.040961,24.1365356 C193.562334,23.9025249 194.018491,23.5837072 194.409432,23.1804346 C194.800374,22.7768101 195.113056,22.3024545 195.347833,21.7559602 Z"/>
  </g>
</svg>
