<svg xmlns="http://www.w3.org/2000/svg" viewBox="0 0 612 202.4">
  <g>
    <g>
      <path d="M296.5,92.8H239.4A28.91,28.91,0,0,1,267,71.4c15.4,0,25.6,7.6,29.5,21.4m-57.4,19.6h83.8v-5.3c0-13.8-3.2-24.9-9.7-34.3-11.1-14.7-27.6-23.7-45.4-23.7-14.3,0-28.1,6.2-38.7,17.3-9.7,10.3-14.7,23.2-14.7,37.8A57,57,0,0,0,230,142.6c10.8,10.8,23.7,16.1,39.3,16.1,23.2,0,41.6-12.9,50.4-35.7H293.4c-5,8.5-14.3,12.9-24.9,12.9-17.1.6-28.2-8.8-29.4-23.5" style="fill: #6c1d5f"/>
      <path d="M360.7,105.2c0-17.9,12.9-31.3,29.9-31.3S421,88.2,421,104.7c0,17.3-12.9,30.8-31.7,30.8-15.1.1-28.6-13.3-28.6-30.3m-.9-44.6V18.7h-24V157h24v-8.5a50.45,50.45,0,0,0,32.5,11.1,53.38,53.38,0,0,0,34.3-12,56,56,0,0,0,19.6-42.8c0-15.2-6.2-30.4-17.9-40.7-9.7-9.4-22.3-13.8-36.1-13.8-12.7-.3-23,2.7-32.4,10.3" style="fill: #6c1d5f"/>
      <path d="M462.9,52.7h23.2V157H462.9Zm0-34h23.2V41.9H462.9Z" style="fill: #6c1d5f"/>
      <path d="M526.8,103.4a29.6,29.6,0,0,1,29.9-29.9c15.2,0,29.4,13.4,29.4,31.3,0,16.1-13.8,29.9-29,29.9-16.5,0-30.3-12.9-30.3-31.3m62,53.6H612V52.7H588.8V65.2C581.7,54.9,570.9,50,555.7,50c-15.6,0-28.1,5-38.7,16.1-9.7,10.3-14.7,23.7-14.7,38.4,0,31.3,23.2,54.8,53.9,54.8,16.1,0,26.7-4.4,32.5-15.2l.1,12.9Z" style="fill: #6c1d5f"/>
    </g>
    <polygon points="0.9 202.4 64.5 202.4 133.3 133.8 201.9 202.4 266.3 202.4 165.5 101.6 267.2 0 202.8 0 133.3 69.6 64.2 0 0 0 101.1 101.6 0.9 202.4" style="fill: #6c1d5f"/>
  </g>
</svg>
