<?xml version="1.0" encoding="UTF-8" standalone="no"?>
<!DOCTYPE svg PUBLIC "-//W3C//DTD SVG 20010904//EN"
              "http://www.w3.org/TR/2001/REC-SVG-20010904/DTD/svg10.dtd">

<svg xmlns="http://www.w3.org/2000/svg"
     width="5.27778in" height="0.972222in"
     viewBox="0 0 380 70">
  <path id="youmoni"
        fill="#FF5a40" stroke="none" stroke-width="1"
        d="M 66.87,28.71
           C 66.87,37.27 72.63,43.46 81.20,43.46
             89.77,43.46 95.52,37.27 95.52,28.71
             95.52,20.14 89.75,13.95 81.20,13.95
             72.64,13.95 66.87,20.14 66.87,28.71M 55.73,28.71
           C 55.73,14.34 66.47,3.53 81.20,3.53
             95.92,3.53 106.66,14.34 106.66,28.71
             106.66,43.07 95.92,53.88 81.20,53.88
             66.48,53.88 55.73,43.07 55.73,28.71 Z
           M 171.70,9.97
           C 171.70,9.97 182.74,9.97 182.74,9.97
             182.74,9.97 182.74,9.79 182.74,9.79
             185.44,6.11 190.25,3.53 195.76,3.53
             201.85,3.53 206.16,6.01 208.86,10.39
             212.67,6.41 216.78,3.53 223.99,3.53
             234.21,3.53 240.42,9.00 240.42,21.24
             240.42,21.24 240.42,53.88 240.42,53.88
             240.42,53.88 229.40,53.88 229.40,53.88
             229.40,53.88 229.40,24.03 229.40,24.03
             229.40,17.56 226.40,13.87 220.49,13.87
             215.38,13.87 211.57,17.56 211.57,24.03
             211.57,24.03 211.57,53.88 211.57,53.88
             211.57,53.88 200.55,53.88 200.55,53.88
             200.55,53.88 200.55,24.03 200.55,24.03
             200.55,17.56 197.44,13.87 191.64,13.87
             186.53,13.87 182.72,17.56 182.72,24.03
             182.72,24.03 182.72,53.88 182.72,53.88
             182.72,53.88 171.70,53.88 171.70,53.88
             171.70,53.88 171.70,9.97 171.70,9.97 Z
           M 262.50,28.71
           C 262.50,37.27 268.25,43.46 276.83,43.46
             285.40,43.46 291.15,37.27 291.15,28.71
             291.15,20.14 285.38,13.95 276.83,13.95
             268.27,13.95 262.50,20.14 262.50,28.71M 251.36,28.71
           C 251.36,14.34 262.10,3.53 276.83,3.53
             291.55,3.53 302.29,14.34 302.29,28.71
             302.29,43.07 291.54,53.88 276.83,53.88
             262.11,53.88 251.36,43.07 251.36,28.71M 312.37,9.97
           C 312.37,9.97 323.39,9.97 323.39,9.97
             323.39,9.97 323.39,9.79 323.39,9.79
             325.69,6.81 330.18,3.53 337.08,3.53
             349.44,3.53 356.24,10.79 356.24,24.03
             356.24,24.03 356.24,53.88 356.24,53.88
             356.24,53.88 345.24,53.88 345.24,53.88
             345.24,53.88 345.24,26.41 345.24,26.41
             345.24,17.66 341.55,13.87 334.35,13.87
             327.16,13.87 323.36,19.05 323.36,26.41
             323.36,26.41 323.36,53.88 323.36,53.88
             323.36,53.88 312.37,53.88 312.37,53.88
             312.37,53.88 312.37,9.97 312.37,9.97 Z
           M 366.32,3.53
           C 366.32,3.53 366.32,53.88 366.32,53.88
             366.32,53.88 377.41,53.88 377.41,53.88
             377.41,53.88 377.41,3.53 377.41,3.53
             377.41,3.53 366.32,3.53 366.32,3.53 Z
           M 54.22,3.53
           C 54.22,3.53 34.45,48.06 34.45,48.06
             34.45,48.06 34.45,66.29 34.45,66.29
             34.45,66.29 22.57,68.49 22.57,68.49
             22.57,68.49 22.57,48.06 22.57,48.06
             22.57,48.06 2.79,3.53 2.79,3.53
             2.79,3.53 15.11,3.53 15.11,3.53
             15.11,3.53 28.51,34.98 28.51,34.98
             28.51,34.98 41.90,3.53 41.90,3.53
             41.90,3.53 54.22,3.53 54.22,3.53 Z
           M 160.10,3.53
           C 160.10,3.53 149.26,3.53 149.26,3.53
             149.26,3.53 149.26,30.99 149.26,30.99
             149.26,38.36 145.51,43.54 138.40,43.54
             131.29,43.54 127.63,39.75 127.63,30.99
             127.63,30.99 127.63,3.53 127.63,3.53
             127.63,3.53 116.77,3.53 116.77,3.53
             116.77,3.53 116.77,33.38 116.77,33.38
             116.77,46.62 123.48,53.88 135.73,53.88
             142.55,53.88 146.99,50.60 149.26,47.62
             149.26,47.62 149.26,47.75 149.26,47.75
             149.26,47.75 160.10,47.75 160.10,47.75
             160.10,47.75 160.10,3.53 160.10,3.53 Z" />
</svg>
