<?xml version="1.0" encoding="utf-8"?>
<!-- Generator: Adobe Illustrator 16.0.0, SVG Export Plug-In . SVG Version: 6.00 Build 0)  -->
<!DOCTYPE svg PUBLIC "-//W3C//DTD SVG 1.1//EN" "http://www.w3.org/Graphics/SVG/1.1/DTD/svg11.dtd">
<svg version="1.1"
	 id="svg4768" xmlns:dc="http://purl.org/dc/elements/1.1/" xmlns:cc="http://creativecommons.org/ns#" xmlns:rdf="http://www.w3.org/1999/02/22-rdf-syntax-ns#" xmlns:svg="http://www.w3.org/2000/svg"
	 xmlns="http://www.w3.org/2000/svg" xmlns:xlink="http://www.w3.org/1999/xlink" x="0px" y="0px" width="48px" height="48px"
	 viewBox="0 0 48 48" enable-background="new 0 0 48 48" xml:space="preserve">
<path fill="#FFFFFF" d="M24,2.188c-12.07,0-21.854,9.885-21.854,22.078c0,12.193,9.785,22.078,21.854,22.078
	s21.855-9.885,21.855-22.078C45.854,12.073,36.069,2.188,24,2.188z M36.543,35.178c-0.458,0.828-1.474,1.412-3.341,2.101
	c-1.785,0.657-5.122,1.372-5.122,1.372c-2.737,0.6-6.397,0.959-7.361,1.045c-2.381,0.209-4.231,0.078-4.231,0.078
	c0.032-0.007,6.468-1.437,8.922-2.145c0.966-0.278,4.499-1.18,4.456-1.543c-0.031-0.258-0.527-0.359-3.67-0.189
	c-5.335,0.48-7.109-0.077-10.686-1.262c-6.056-2.007-7.363-5.266-4.407-8c2.613-2.183,7.068-4.08,13.245-3.74
	c0,0-2.102-0.643-2.818-0.983c-1.904-0.904-4.861-2.132-6.909-4.409c-0.484-0.627-1.59-1.628-1.055-2.761
	c0.819-1.733,3.549-1.749,7.425-1.979c0,0,4.041-0.382,5.984-0.7c1.785-0.292,2.215-0.858,1.92-1.271
	c-0.501-0.7-1.621-0.812-8.316-0.753c0,0,5.416-1.573,7.664-1.983c2.386-0.435,4.896,0.821,5.373,2.96
	c0.529,2.095-0.742,3.418-2.676,3.739c0,0-0.229,0.09-1.629,0.112c-2.788,0.044-5.852,0.433-8.021,1.059
	c-0.674,0.193-1.88,0.866-1.521,1.646c0.317,0.813,1.776,1.486,2.689,1.933c1.04,0.509,6.1,2.867,8.813,4.208
	c0,0-8.057,1.835-10.113,2.83c-4.081,1.868-4.559,3.988-3.607,4.755c0.993,0.756,2.857,1.693,8.461,1.886
	c5.055,0.107,7.607-0.06,9.811,0.864C36.685,34.407,36.523,35.008,36.543,35.178z"/>
</svg>
