<?xml version="1.0" encoding="UTF-8" standalone="no"?>
<!DOCTYPE svg PUBLIC "-//W3C//DTD SVG 1.1//EN" "http://www.w3.org/Graphics/SVG/1.1/DTD/svg11.dtd">
<svg width="100%" height="100%" viewBox="0 0 130 200" version="1.1" xmlns="http://www.w3.org/2000/svg" xmlns:xlink="http://www.w3.org/1999/xlink" xml:space="preserve" xmlns:serif="http://www.serif.com/" style="fill-rule:evenodd;clip-rule:evenodd;stroke-linejoin:round;stroke-miterlimit:2;">
    <g transform="matrix(0.942992,0,0,0.942992,-26.7299,-15.0959)">
        <path d="M30.55,94.83C32.4,97.38 48,102.19 71.27,107.2C94.54,111.66 118.74,129.27 137.56,123.84C150.29,120.16 164.1,87.37 164.1,82.5L164.1,82C164.1,78.6 161.55,75.87 157.22,73.6C139.47,64.53 136.11,61.19 129.53,63C95.37,72.43 35.06,67.61 30.55,94.83Z" style="fill:rgb(169,169,169);fill-opacity:0.75;"/>
    </g>
    <g transform="matrix(0.942992,0,0,0.942992,-26.7299,-15.0959)">
        <path d="M30.55,161.41C32.4,164 48,168.77 71.27,173.79C97.27,178.53 119.88,193.98 138.71,188.54C151.44,184.86 164.1,153.96 164.1,149.08L164.1,148.6C164.1,145.21 161.55,142.47 157.22,140.21C143.68,133.01 125.79,125.08 119.22,126.89C85,136.3 39.26,138.37 30.55,161.41Z" style="fill:rgb(169,169,169);fill-opacity:0.75;"/>
    </g>
    <g transform="matrix(0.942992,0,0,0.942992,-26.7299,-15.0959)">
        <path d="M138.66,28.78C107.2,37.87 57.29,43 30.4,43L30.4,94.35C30.409,94.527 30.475,94.695 30.59,94.83C48.94,94.83 105.59,88.83 139.77,79.43C145.731,77.913 151.576,75.971 157.26,73.62C161.44,71.74 164.14,69.76 164.14,67.7L164.14,15.91C164.1,20.79 151.39,25.11 138.66,28.78Z" style="fill:white;"/>
    </g>
    <g transform="matrix(0.942992,0,0,0.942992,-26.7299,-15.0959)">
        <path d="M138.66,95.37C119.83,100.8 94.42,104.84 71.27,107.2C55.73,108.79 41.21,109.62 30.4,109.62L30.4,160.93C30.409,161.107 30.475,161.275 30.59,161.41C48.94,161.41 105.59,155.41 139.77,146.02C145.73,144.498 151.574,142.557 157.26,140.21C161.44,138.32 164.14,136.35 164.14,134.29L164.14,82.5C164.1,87.37 151.39,91.69 138.66,95.37Z" style="fill:white;"/>
    </g>
    <g transform="matrix(0.942992,0,0,0.942992,-26.7299,-15.0959)">
        <path d="M138.66,162C119.83,167.43 94.42,171.46 71.27,173.83C55.71,175.42 41.17,176.25 30.36,176.25L30.36,228C48.52,228 105.46,222.05 139.73,212.61C152.36,209.13 164.1,205.17 164.1,200.87L164.1,149.08C164.1,154 151.39,158.28 138.66,162Z" style="fill:white;"/>
    </g>
</svg>
