<?xml version="1.0" encoding="utf-8"?>
<!-- Generator: Adobe Illustrator 16.0.0, SVG Export Plug-In . SVG Version: 6.00 Build 0)  -->
<!DOCTYPE svg PUBLIC "-//W3C//DTD SVG 1.1//EN" "http://www.w3.org/Graphics/SVG/1.1/DTD/svg11.dtd">
<svg version="1.1"
	 id="Layer_1" xmlns:dc="http://purl.org/dc/elements/1.1/" xmlns:cc="http://creativecommons.org/ns#" xmlns:rdf="http://www.w3.org/1999/02/22-rdf-syntax-ns#" xmlns:svg="http://www.w3.org/2000/svg"
	 xmlns="http://www.w3.org/2000/svg" xmlns:xlink="http://www.w3.org/1999/xlink" x="0px" y="0px" width="544.17px"
	 height="544.864px" viewBox="0 0 544.17 544.864" enable-background="new 0 0 544.17 544.864" xml:space="preserve">
<path fill="#FFFFFF" d="M493.403,363.799c-0.333-0.422-0.845-0.662-1.381-0.648h-30.69c-0.471-0.008-0.924,0.18-1.252,0.518
	l-9.669,10.633H433.49l-0.824-0.904l101.368-101.504L433.522,171.247l86.492-88.5V52.188l-0.171,0.099v-0.959l-8.371-8.383H343.339
	l-8.371,7.684v21.93l-62.344-62.428l-37.391,37.441l-4.092-4.098h-0.291l-1.227-1.229H63.582l-8.372,9.082v0.609l-0.059,0.059
	v32.231l9.435,9.447l0.549-1.153l-0.007,0.022h18.723v106.613l-73.715,73.814l73.715,73.814v118.551l9.277,5.363l2.902,2.896
	l0.535-1.021h1.318l-0.607,1.209h40.574l1.182-1.209h0.594l34.48-35.414l97.44,97.572l61.928-62.012h4.018
	c0.715-0.002,1.354-0.451,1.597-1.125l2.327-6.826l40.133-40.187l-14.316,45.933c-0.275,0.9,0.231,1.854,1.131,2.129
	c0.165,0.051,0.337,0.076,0.51,0.076h39.063c0.679-0.006,1.289-0.414,1.555-1.039l3.496-8.385c0.347-0.875-0.081-1.867-0.955-2.213
	c-0.19-0.076-0.394-0.117-0.599-0.121h-7.079l20.546-64.748h34.791l-23.396,74.301c-0.274,0.9,0.231,1.854,1.131,2.129
	c0.165,0.051,0.337,0.076,0.51,0.076h42.906c0.704,0.004,1.339-0.426,1.597-1.082l3.496-9.119c0.323-0.885-0.132-1.863-1.015-2.188
	c-0.187-0.068-0.384-0.104-0.582-0.104h-8.504l25.855-84.068c0.174-0.529,0.076-1.111-0.259-1.557L493.403,363.799z M83.852,319.913
	l-46.041-46.295l46.041-46.295V319.913z M367.864,93.243l-6.135,6.114l-6.105-6.114H367.864z M213.577,96.879l3.616-3.636h14.522
	l8.023-9.78v-12.89l32.951-33.133l75.246,75.663l-134.359,133.89V96.879z M241.686,367.752l-1.789,7.111
	c-0.228,0.914,0.328,1.84,1.241,2.067c0.13,0.032,0.265,0.05,0.399,0.051h13.338l-29.732,85.004l-38.001-38.212L241.686,367.752z
	 M272.689,509.797l-35.84-36.039h34.687c0.743,0.01,1.406-0.463,1.641-1.168l3.15-10.156c0.275-0.902-0.23-1.855-1.13-2.131
	c-0.165-0.051-0.337-0.076-0.51-0.074H263.81l32.719-95.522c0.299-0.894-0.182-1.86-1.072-2.159
	c-0.17-0.057-0.346-0.086-0.524-0.088h-48.092l25.339-26.025l3.415,3.42c0.324,0.312,0.759,0.482,1.208,0.475h22.662
	c0.45,0.008,0.885-0.163,1.209-0.475l5.913-5.965c0.204-0.205,0.353-0.457,0.432-0.735l6.302-21.655
	c0.175-0.598,0.01-1.244-0.432-1.686l-4.877-4.884c-0.324-0.312-0.759-0.483-1.209-0.476h-3.464l116.425-119.128l87.806,88.292
	l-88.696,89.188h-21.381c-0.115-0.012-0.23-0.012-0.346,0c-0.37,0.076-0.704,0.273-0.949,0.562l-10.015,11.324h-15.928
	l-10.618-11.022c-0.317-0.327-0.753-0.514-1.209-0.518h-38.028c-0.715,0.002-1.353,0.45-1.597,1.123l-3.496,10.461
	c-0.3,0.893,0.181,1.859,1.073,2.158c0.169,0.057,0.346,0.087,0.523,0.089h10.187l-31.683,93.491
	c-0.299,0.893,0.182,1.859,1.073,2.158c0.169,0.057,0.346,0.088,0.523,0.09h12.559L272.689,509.797z M338.926,443.194l14.796-46.633
	h31.58L338.926,443.194z"/>
</svg>
