<svg version="1.1" viewBox="0.0 0.0 600.0 303.0" fill="none" stroke="none" stroke-linecap="square" stroke-miterlimit="10" width="600" height="303" xmlns:xlink="http://www.w3.org/1999/xlink" xmlns="http://www.w3.org/2000/svg"><path fill="#ffffff" d="M0 0L600.0 0L600.0 303.0L0 303.0L0 0Z" fill-rule="nonzero"/><path stroke="#333333" stroke-width="1.0" stroke-linecap="butt" d="M74.5 235.5L584.5 235.5" fill-rule="nonzero"/><path stroke="#cccccc" stroke-width="1.0" stroke-linecap="butt" d="M74.5 205.5L584.5 205.5" fill-rule="nonzero"/><path stroke="#cccccc" stroke-width="1.0" stroke-linecap="butt" d="M74.5 175.5L584.5 175.5" fill-rule="nonzero"/><path stroke="#cccccc" stroke-width="1.0" stroke-linecap="butt" d="M74.5 146.5L584.5 146.5" fill-rule="nonzero"/><path stroke="#cccccc" stroke-width="1.0" stroke-linecap="butt" d="M74.5 116.5L584.5 116.5" fill-rule="nonzero"/><path stroke="#cccccc" stroke-width="1.0" stroke-linecap="butt" d="M74.5 86.5L584.5 86.5" fill-rule="nonzero"/><path stroke="#cccccc" stroke-width="1.0" stroke-linecap="butt" d="M74.5 56.5L584.5 56.5" fill-rule="nonzero"/><clipPath id="id_0"><path d="M74.15 56.25L584.85 56.25L584.85 235.85L74.15 235.85L74.15 56.25Z" clip-rule="nonzero"/></clipPath><path stroke="#000000" stroke-width="2.0" stroke-linecap="butt" stroke-opacity="0.0" clip-path="url(#id_0)" d="M95.0 236.0L82.0 236.0L82.0 73.0C82.0 71.89543 82.89543 71.0 84.0 71.0L93.0 71.0C94.10457 71.0 95.0 71.89543 95.0 73.0Z" fill-rule="nonzero"/><path fill="#ff9900" clip-path="url(#id_0)" d="M95.0 236.0L82.0 236.0L82.0 73.0C82.0 71.89543 82.89543 71.0 84.0 71.0L93.0 71.0C94.10457 71.0 95.0 71.89543 95.0 73.0Z" fill-rule="nonzero"/><path stroke="#000000" stroke-width="2.0" stroke-linecap="butt" stroke-opacity="0.0" clip-path="url(#id_0)" d="M115.0 236.0L102.0 236.0L102.0 73.0C102.0 71.89543 102.89543 71.0 104.0 71.0L113.0 71.0C114.10457 71.0 115.0 71.89543 115.0 73.0Z" fill-rule="nonzero"/><path fill="#ff9900" clip-path="url(#id_0)" d="M115.0 236.0L102.0 236.0L102.0 73.0C102.0 71.89543 102.89543 71.0 104.0 71.0L113.0 71.0C114.10457 71.0 115.0 71.89543 115.0 73.0Z" fill-rule="nonzero"/><path stroke="#000000" stroke-width="2.0" stroke-linecap="butt" stroke-opacity="0.0" clip-path="url(#id_0)" d="M135.0 236.0L122.0 236.0L122.0 88.0C122.0 86.89543 122.89543 86.0 124.0 86.0L133.0 86.0C134.10457 86.0 135.0 86.89543 135.0 88.0Z" fill-rule="nonzero"/><path fill="#ff9900" clip-path="url(#id_0)" d="M135.0 236.0L122.0 236.0L122.0 88.0C122.0 86.89543 122.89543 86.0 124.0 86.0L133.0 86.0C134.10457 86.0 135.0 86.89543 135.0 88.0Z" fill-rule="nonzero"/><path stroke="#000000" stroke-width="2.0" stroke-linecap="butt" stroke-opacity="0.0" clip-path="url(#id_0)" d="M155.0 236.0L142.0 236.0L142.0 88.0C142.0 86.89543 142.89543 86.0 144.0 86.0L153.0 86.0C154.10457 86.0 155.0 86.89543 155.0 88.0Z" fill-rule="nonzero"/><path fill="#ff9900" clip-path="url(#id_0)" d="M155.0 236.0L142.0 236.0L142.0 88.0C142.0 86.89543 142.89543 86.0 144.0 86.0L153.0 86.0C154.10457 86.0 155.0 86.89543 155.0 88.0Z" fill-rule="nonzero"/><path stroke="#000000" stroke-width="2.0" stroke-linecap="butt" stroke-opacity="0.0" clip-path="url(#id_0)" d="M175.0 236.0L162.0 236.0L162.0 73.0C162.0 71.89543 162.89543 71.0 164.0 71.0L173.0 71.0C174.10457 71.0 175.0 71.89543 175.0 73.0Z" fill-rule="nonzero"/><path fill="#ff9900" clip-path="url(#id_0)" d="M175.0 236.0L162.0 236.0L162.0 73.0C162.0 71.89543 162.89543 71.0 164.0 71.0L173.0 71.0C174.10457 71.0 175.0 71.89543 175.0 73.0Z" fill-rule="nonzero"/><path stroke="#000000" stroke-width="2.0" stroke-linecap="butt" stroke-opacity="0.0" clip-path="url(#id_0)" d="M195.0 236.0L182.0 236.0L182.0 73.0C182.0 71.89543 182.89543 71.0 184.0 71.0L193.0 71.0C194.10457 71.0 195.0 71.89543 195.0 73.0Z" fill-rule="nonzero"/><path fill="#ff9900" clip-path="url(#id_0)" d="M195.0 236.0L182.0 236.0L182.0 73.0C182.0 71.89543 182.89543 71.0 184.0 71.0L193.0 71.0C194.10457 71.0 195.0 71.89543 195.0 73.0Z" fill-rule="nonzero"/><path stroke="#000000" stroke-width="2.0" stroke-linecap="butt" stroke-opacity="0.0" clip-path="url(#id_0)" d="M216.0 236.0L203.0 236.0L203.0 88.0C203.0 86.89543 203.89543 86.0 205.0 86.0L214.0 86.0C215.10457 86.0 216.0 86.89543 216.0 88.0Z" fill-rule="nonzero"/><path fill="#ff9900" clip-path="url(#id_0)" d="M216.0 236.0L203.0 236.0L203.0 88.0C203.0 86.89543 203.89543 86.0 205.0 86.0L214.0 86.0C215.10457 86.0 216.0 86.89543 216.0 88.0Z" fill-rule="nonzero"/><path stroke="#000000" stroke-width="2.0" stroke-linecap="butt" stroke-opacity="0.0" clip-path="url(#id_0)" d="M236.0 236.0L223.0 236.0L223.0 118.0C223.0 116.89543 223.89543 116.0 225.0 116.0L234.0 116.0C235.10457 116.0 236.0 116.89543 236.0 118.0Z" fill-rule="nonzero"/><path fill="#ff9900" clip-path="url(#id_0)" d="M236.0 236.0L223.0 236.0L223.0 118.0C223.0 116.89543 223.89543 116.0 225.0 116.0L234.0 116.0C235.10457 116.0 236.0 116.89543 236.0 118.0Z" fill-rule="nonzero"/><path stroke="#000000" stroke-width="2.0" stroke-linecap="butt" stroke-opacity="0.0" clip-path="url(#id_0)" d="M256.0 236.0L243.0 236.0L243.0 58.0C243.0 56.89543 243.89543 56.0 245.0 56.0L254.0 56.0C255.10457 56.0 256.0 56.89543 256.0 58.0Z" fill-rule="nonzero"/><path fill="#ff9900" clip-path="url(#id_0)" d="M256.0 236.0L243.0 236.0L243.0 58.0C243.0 56.89543 243.89543 56.0 245.0 56.0L254.0 56.0C255.10457 56.0 256.0 56.89543 256.0 58.0Z" fill-rule="nonzero"/><path stroke="#000000" stroke-width="2.0" stroke-linecap="butt" stroke-opacity="0.0" clip-path="url(#id_0)" d="M276.0 236.0L263.0 236.0L263.0 103.0C263.0 101.89543 263.89542 101.0 265.0 101.0L274.0 101.0C275.10458 101.0 276.0 101.89543 276.0 103.0Z" fill-rule="nonzero"/><path fill="#ff9900" clip-path="url(#id_0)" d="M276.0 236.0L263.0 236.0L263.0 103.0C263.0 101.89543 263.89542 101.0 265.0 101.0L274.0 101.0C275.10458 101.0 276.0 101.89543 276.0 103.0Z" fill-rule="nonzero"/><path stroke="#000000" stroke-width="2.0" stroke-linecap="butt" stroke-opacity="0.0" clip-path="url(#id_0)" d="M296.0 236.0L283.0 236.0L283.0 103.0C283.0 101.89543 283.89542 101.0 285.0 101.0L294.0 101.0C295.10458 101.0 296.0 101.89543 296.0 103.0Z" fill-rule="nonzero"/><path fill="#ff9900" clip-path="url(#id_0)" d="M296.0 236.0L283.0 236.0L283.0 103.0C283.0 101.89543 283.89542 101.0 285.0 101.0L294.0 101.0C295.10458 101.0 296.0 101.89543 296.0 103.0Z" fill-rule="nonzero"/><path stroke="#000000" stroke-width="2.0" stroke-linecap="butt" stroke-opacity="0.0" clip-path="url(#id_0)" d="M316.0 236.0L303.0 236.0L303.0 148.0C303.0 146.89543 303.89542 146.0 305.0 146.0L314.0 146.0C315.10458 146.0 316.0 146.89543 316.0 148.0Z" fill-rule="nonzero"/><path fill="#ff9900" clip-path="url(#id_0)" d="M316.0 236.0L303.0 236.0L303.0 148.0C303.0 146.89543 303.89542 146.0 305.0 146.0L314.0 146.0C315.10458 146.0 316.0 146.89543 316.0 148.0Z" fill-rule="nonzero"/><path stroke="#000000" stroke-width="2.0" stroke-linecap="butt" stroke-opacity="0.0" clip-path="url(#id_0)" d="M337.0 236.0L324.0 236.0L324.0 163.0C324.0 161.89543 324.89542 161.0 326.0 161.0L335.0 161.0C336.10458 161.0 337.0 161.89543 337.0 163.0Z" fill-rule="nonzero"/><path fill="#ff9900" clip-path="url(#id_0)" d="M337.0 236.0L324.0 236.0L324.0 163.0C324.0 161.89543 324.89542 161.0 326.0 161.0L335.0 161.0C336.10458 161.0 337.0 161.89543 337.0 163.0Z" fill-rule="nonzero"/><path stroke="#000000" stroke-width="2.0" stroke-linecap="butt" stroke-opacity="0.0" clip-path="url(#id_0)" d="M357.0 236.0L344.0 236.0L344.0 178.0C344.0 176.89543 344.89542 176.0 346.0 176.0L355.0 176.0C356.10458 176.0 357.0 176.89543 357.0 178.0Z" fill-rule="nonzero"/><path fill="#ff9900" clip-path="url(#id_0)" d="M357.0 236.0L344.0 236.0L344.0 178.0C344.0 176.89543 344.89542 176.0 346.0 176.0L355.0 176.0C356.10458 176.0 357.0 176.89543 357.0 178.0Z" fill-rule="nonzero"/><path stroke="#000000" stroke-width="2.0" stroke-linecap="butt" stroke-opacity="0.0" clip-path="url(#id_0)" d="M377.0 236.0L364.0 236.0L364.0 178.0C364.0 176.89543 364.89542 176.0 366.0 176.0L375.0 176.0C376.10458 176.0 377.0 176.89543 377.0 178.0Z" fill-rule="nonzero"/><path fill="#ff9900" clip-path="url(#id_0)" d="M377.0 236.0L364.0 236.0L364.0 178.0C364.0 176.89543 364.89542 176.0 366.0 176.0L375.0 176.0C376.10458 176.0 377.0 176.89543 377.0 178.0Z" fill-rule="nonzero"/><path stroke="#000000" stroke-width="2.0" stroke-linecap="butt" stroke-opacity="0.0" clip-path="url(#id_0)" d="M397.0 236.0L384.0 236.0L384.0 178.0C384.0 176.89543 384.89542 176.0 386.0 176.0L395.0 176.0C396.10458 176.0 397.0 176.89543 397.0 178.0Z" fill-rule="nonzero"/><path fill="#ff9900" clip-path="url(#id_0)" d="M397.0 236.0L384.0 236.0L384.0 178.0C384.0 176.89543 384.89542 176.0 386.0 176.0L395.0 176.0C396.10458 176.0 397.0 176.89543 397.0 178.0Z" fill-rule="nonzero"/><path stroke="#000000" stroke-width="2.0" stroke-linecap="butt" stroke-opacity="0.0" clip-path="url(#id_0)" d="M417.0 236.0L404.0 236.0L404.0 193.0C404.0 191.89543 404.89542 191.0 406.0 191.0L415.0 191.0C416.10458 191.0 417.0 191.89543 417.0 193.0Z" fill-rule="nonzero"/><path fill="#ff9900" clip-path="url(#id_0)" d="M417.0 236.0L404.0 236.0L404.0 193.0C404.0 191.89543 404.89542 191.0 406.0 191.0L415.0 191.0C416.10458 191.0 417.0 191.89543 417.0 193.0Z" fill-rule="nonzero"/><path stroke="#000000" stroke-width="2.0" stroke-linecap="butt" stroke-opacity="0.0" clip-path="url(#id_0)" d="M437.0 236.0L424.0 236.0L424.0 193.0C424.0 191.89543 424.89542 191.0 426.0 191.0L435.0 191.0C436.10458 191.0 437.0 191.89543 437.0 193.0Z" fill-rule="nonzero"/><path fill="#ff9900" clip-path="url(#id_0)" d="M437.0 236.0L424.0 236.0L424.0 193.0C424.0 191.89543 424.89542 191.0 426.0 191.0L435.0 191.0C436.10458 191.0 437.0 191.89543 437.0 193.0Z" fill-rule="nonzero"/><path stroke="#000000" stroke-width="2.0" stroke-linecap="butt" stroke-opacity="0.0" clip-path="url(#id_0)" d="M457.0 236.0L444.0 236.0L444.0 193.0C444.0 191.89543 444.89542 191.0 446.0 191.0L455.0 191.0C456.10458 191.0 457.0 191.89543 457.0 193.0Z" fill-rule="nonzero"/><path fill="#ff9900" clip-path="url(#id_0)" d="M457.0 236.0L444.0 236.0L444.0 193.0C444.0 191.89543 444.89542 191.0 446.0 191.0L455.0 191.0C456.10458 191.0 457.0 191.89543 457.0 193.0Z" fill-rule="nonzero"/><path stroke="#000000" stroke-width="2.0" stroke-linecap="butt" stroke-opacity="0.0" clip-path="url(#id_0)" d="M478.0 236.0L465.0 236.0L465.0 193.0C465.0 191.89543 465.89542 191.0 467.0 191.0L476.0 191.0C477.10458 191.0 478.0 191.89543 478.0 193.0Z" fill-rule="nonzero"/><path fill="#ff9900" clip-path="url(#id_0)" d="M478.0 236.0L465.0 236.0L465.0 193.0C465.0 191.89543 465.89542 191.0 467.0 191.0L476.0 191.0C477.10458 191.0 478.0 191.89543 478.0 193.0Z" fill-rule="nonzero"/><path stroke="#000000" stroke-width="2.0" stroke-linecap="butt" stroke-opacity="0.0" clip-path="url(#id_0)" d="M498.0 236.0L485.0 236.0L485.0 178.0C485.0 176.89543 485.89542 176.0 487.0 176.0L496.0 176.0C497.10458 176.0 498.0 176.89543 498.0 178.0Z" fill-rule="nonzero"/><path fill="#ff9900" clip-path="url(#id_0)" d="M498.0 236.0L485.0 236.0L485.0 178.0C485.0 176.89543 485.89542 176.0 487.0 176.0L496.0 176.0C497.10458 176.0 498.0 176.89543 498.0 178.0Z" fill-rule="nonzero"/><path stroke="#000000" stroke-width="2.0" stroke-linecap="butt" stroke-opacity="0.0" clip-path="url(#id_0)" d="M518.0 236.0L505.0 236.0L505.0 193.0C505.0 191.89543 505.89542 191.0 507.0 191.0L516.0 191.0C517.10455 191.0 518.0 191.89543 518.0 193.0Z" fill-rule="nonzero"/><path fill="#ff9900" clip-path="url(#id_0)" d="M518.0 236.0L505.0 236.0L505.0 193.0C505.0 191.89543 505.89542 191.0 507.0 191.0L516.0 191.0C517.10455 191.0 518.0 191.89543 518.0 193.0Z" fill-rule="nonzero"/><path stroke="#000000" stroke-width="2.0" stroke-linecap="butt" stroke-opacity="0.0" clip-path="url(#id_0)" d="M538.0 236.0L525.0 236.0L525.0 193.0C525.0 191.89543 525.89545 191.0 527.0 191.0L536.0 191.0C537.10455 191.0 538.0 191.89543 538.0 193.0Z" fill-rule="nonzero"/><path fill="#ff9900" clip-path="url(#id_0)" d="M538.0 236.0L525.0 236.0L525.0 193.0C525.0 191.89543 525.89545 191.0 527.0 191.0L536.0 191.0C537.10455 191.0 538.0 191.89543 538.0 193.0Z" fill-rule="nonzero"/><path stroke="#000000" stroke-width="2.0" stroke-linecap="butt" stroke-opacity="0.0" clip-path="url(#id_0)" d="M558.0 236.0L545.0 236.0L545.0 178.0C545.0 176.89543 545.89545 176.0 547.0 176.0L556.0 176.0C557.10455 176.0 558.0 176.89543 558.0 178.0Z" fill-rule="nonzero"/><path fill="#ff9900" clip-path="url(#id_0)" d="M558.0 236.0L545.0 236.0L545.0 178.0C545.0 176.89543 545.89545 176.0 547.0 176.0L556.0 176.0C557.10455 176.0 558.0 176.89543 558.0 178.0Z" fill-rule="nonzero"/><path stroke="#000000" stroke-width="2.0" stroke-linecap="butt" stroke-opacity="0.0" clip-path="url(#id_0)" d="M578.0 236.0L565.0 236.0L565.0 193.0C565.0 191.89543 565.89545 191.0 567.0 191.0L576.0 191.0C577.10455 191.0 578.0 191.89543 578.0 193.0Z" fill-rule="nonzero"/><path fill="#ff9900" clip-path="url(#id_0)" d="M578.0 236.0L565.0 236.0L565.0 193.0C565.0 191.89543 565.89545 191.0 567.0 191.0L576.0 191.0C577.10455 191.0 578.0 191.89543 578.0 193.0Z" fill-rule="nonzero"/><path fill="#000000" d="M319.92188 284.85L319.92188 276.25626L322.89062 276.25626Q323.89062 276.25626 324.42188 276.38126Q325.15625 276.55313 325.67188 276.99063Q326.35938 277.56876 326.6875 278.475Q327.03125 279.36563 327.03125 280.50626Q327.03125 281.49063 326.79688 282.24063Q326.57812 282.99063 326.21875 283.49063Q325.85938 283.99063 325.42188 284.27188Q325.0 284.55313 324.40625 284.70938Q323.8125 284.85 323.03125 284.85L319.92188 284.85ZM321.0625 283.83438L322.89062 283.83438Q323.75 283.83438 324.23438 283.67813Q324.71875 283.52188 325.0 283.225Q325.40625 282.83438 325.625 282.14688Q325.85938 281.45938 325.85938 280.49063Q325.85938 279.14688 325.40625 278.42813Q324.96875 277.69376 324.34375 277.44376Q323.875 277.27188 322.875 277.27188L321.0625 277.27188L321.0625 283.83438ZM332.85938 284.08438Q332.26562 284.58438 331.71875 284.7875Q331.1875 284.99063 330.5625 284.99063Q329.53125 284.99063 328.98438 284.49063Q328.4375 283.99063 328.4375 283.20938Q328.4375 282.75626 328.64062 282.38126Q328.84375 281.99063 329.1875 281.77188Q329.53125 281.5375 329.95312 281.42813Q330.25 281.33438 330.89062 281.25626Q332.15625 281.11563 332.76562 280.89688Q332.76562 280.67813 332.76562 280.63126Q332.76562 279.975 332.46875 279.70938Q332.0625 279.36563 331.26562 279.36563Q330.53125 279.36563 330.17188 279.63126Q329.8125 279.88126 329.64062 280.5375L328.60938 280.39688Q328.75 279.74063 329.07812 279.33438Q329.40625 278.92813 330.01562 278.70938Q330.625 278.49063 331.42188 278.49063Q332.21875 278.49063 332.71875 278.67813Q333.21875 278.86563 333.45312 279.14688Q333.6875 279.42813 333.78125 279.86563Q333.82812 280.13126 333.82812 280.83438L333.82812 282.24063Q333.82812 283.70938 333.89062 284.1Q333.96875 284.49063 334.17188 284.85L333.0625 284.85Q332.90625 284.52188 332.85938 284.08438ZM332.76562 281.725Q332.1875 281.95938 331.04688 282.13126Q330.39062 282.225 330.125 282.35Q329.85938 282.45938 329.70312 282.67813Q329.5625 282.89688 329.5625 283.17813Q329.5625 283.6 329.875 283.88126Q330.20312 284.1625 330.8125 284.1625Q331.42188 284.1625 331.89062 283.89688Q332.375 283.63126 332.59375 283.1625Q332.76562 282.80313 332.76562 282.11563L332.76562 281.725ZM335.75 287.24063L335.625 286.25626Q335.96875 286.35 336.23438 286.35Q336.57812 286.35 336.78125 286.225Q337.0 286.11563 337.14062 285.9125Q337.23438 285.74063 337.46875 285.11563Q337.48438 285.0375 337.5625 284.86563L335.1875 278.63126L336.32812 278.63126L337.625 282.225Q337.875 282.9125 338.07812 283.67813Q338.26562 282.94376 338.51562 282.25626L339.84375 278.63126L340.89062 278.63126L338.53125 284.95938Q338.14062 285.975 337.9375 286.36563Q337.65625 286.89688 337.28125 287.13126Q336.92188 287.38126 336.42188 287.38126Q336.125 287.38126 335.75 287.24063Z" fill-rule="nonzero"/><path fill="#000000" d="M23.38438 192.50313L23.29063 191.44063Q23.94688 191.3625 24.35313 191.08125Q24.75938 190.8 25.025005 190.22188Q25.275005 189.62813 25.275005 188.89375Q25.275005 188.25313 25.087505 187.75313Q24.88438 187.25313 24.556255 187.01875Q24.212505 186.76875 23.82188 186.76875Q23.41563 186.76875 23.118755 187.00313Q22.806255 187.2375 22.60313 187.76875Q22.462505 188.12813 22.181255 189.31563Q21.900005 190.4875 21.650005 190.95625Q21.32188 191.58125 20.85313 191.87813Q20.368755 192.175 19.775005 192.175Q19.13438 192.175 18.57188 191.81563Q17.993755 191.44063 17.712505 190.7375Q17.41563 190.01875 17.41563 189.15938Q17.41563 188.20625 17.72813 187.47188Q18.025005 186.7375 18.63438 186.34688Q19.22813 185.95625 19.97813 185.925L20.056255 187.01875Q19.243755 187.1125 18.837505 187.62813Q18.41563 188.12813 18.41563 189.1125Q18.41563 190.14375 18.79063 190.6125Q19.16563 191.08125 19.69688 191.08125Q20.16563 191.08125 20.462505 190.75313Q20.75938 190.425 21.07188 189.05Q21.38438 187.65938 21.618755 187.14375Q21.97813 186.39375 22.50938 186.03438Q23.025005 185.675 23.72813 185.675Q24.41563 185.675 25.025005 186.06563Q25.618755 186.45625 25.962505 187.19063Q26.29063 187.925 26.29063 188.84688Q26.29063 190.01875 25.962505 190.81563Q25.618755 191.59688 24.931255 192.05Q24.243755 192.4875 23.38438 192.50313ZM23.04063 184.64375Q21.306255 184.64375 20.47813 183.69063Q19.79063 182.89375 19.79063 181.7375Q19.79063 180.45625 20.63438 179.64375Q21.462505 178.81563 22.94688 178.81563Q24.150005 178.81563 24.837505 179.175Q25.525005 179.53438 25.91563 180.2375Q26.29063 180.925 26.29063 181.7375Q26.29063 183.03438 25.462505 183.84688Q24.618755 184.64375 23.04063 184.64375ZM23.04063 183.56563Q24.22813 183.56563 24.82188 183.05Q25.41563 182.51875 25.41563 181.7375Q25.41563 180.94063 24.82188 180.425Q24.22813 179.90938 23.00938 179.90938Q21.85313 179.90938 21.25938 180.44063Q20.66563 180.95625 20.66563 181.7375Q20.66563 182.51875 21.25938 183.05Q21.837505 183.56563 23.04063 183.56563ZM26.150005 177.28438L17.556255 177.28438L17.556255 176.22188L26.150005 176.22188L26.150005 177.28438ZM26.150005 170.175L25.22813 170.175Q26.29063 170.90938 26.29063 172.15938Q26.29063 172.70625 26.087505 173.19063Q25.868755 173.65938 25.556255 173.89375Q25.22813 174.12813 24.75938 174.22188Q24.462505 174.28438 23.775005 174.28438L19.931255 174.28438L19.931255 173.22188L23.38438 173.22188Q24.19688 173.22188 24.493755 173.15938Q24.900005 173.06563 25.150005 172.75313Q25.38438 172.425 25.38438 171.94063Q25.38438 171.47188 25.150005 171.06563Q24.900005 170.64375 24.47813 170.47188Q24.056255 170.28438 23.25938 170.28438L19.931255 170.28438L19.931255 169.2375L26.150005 169.2375L26.150005 170.175ZM25.212505 164.95625L26.13438 164.8Q26.22813 165.25313 26.22813 165.59688Q26.22813 166.175 26.056255 166.4875Q25.868755 166.8 25.57188 166.94063Q25.275005 167.06563 24.32188 167.06563L20.743755 167.06563L20.743755 167.83125L19.931255 167.83125L19.931255 167.06563L18.38438 167.06563L17.75938 166.01875L19.931255 166.01875L19.931255 164.95625L20.743755 164.95625L20.743755 166.01875L24.38438 166.01875Q24.837505 166.01875 24.962505 165.97188Q25.087505 165.90938 25.16563 165.78438Q25.243755 165.65938 25.243755 165.425Q25.243755 165.2375 25.212505 164.95625ZM18.775005 164.25313L17.556255 164.25313L17.556255 163.19063L18.775005 163.19063L18.775005 164.25313ZM26.150005 164.25313L19.931255 164.25313L19.931255 163.19063L26.150005 163.19063L26.150005 164.25313ZM23.04063 161.64375Q21.306255 161.64375 20.47813 160.69063Q19.79063 159.89375 19.79063 158.7375Q19.79063 157.45625 20.63438 156.64375Q21.462505 155.81563 22.94688 155.81563Q24.150005 155.81563 24.837505 156.175Q25.525005 156.53438 25.91563 157.2375Q26.29063 157.925 26.29063 158.7375Q26.29063 160.03438 25.462505 160.84688Q24.618755 161.64375 23.04063 161.64375ZM23.04063 160.56563Q24.22813 160.56563 24.82188 160.05Q25.41563 159.51875 25.41563 158.7375Q25.41563 157.94063 24.82188 157.425Q24.22813 156.90938 23.00938 156.90938Q21.85313 156.90938 21.25938 157.44063Q20.66563 157.95625 20.66563 158.7375Q20.66563 159.51875 21.25938 160.05Q21.837505 160.56563 23.04063 160.56563ZM26.150005 154.25313L19.931255 154.25313L19.931255 153.31563L20.806255 153.31563Q19.79063 152.62813 19.79063 151.33125Q19.79063 150.76875 19.993755 150.3Q20.19688 149.81563 20.525005 149.58125Q20.85313 149.34688 21.29063 149.25313Q21.587505 149.20625 22.32188 149.20625L26.150005 149.20625L26.150005 150.25313L22.368755 150.25313Q21.712505 150.25313 21.400005 150.37813Q21.087505 150.50313 20.900005 150.81563Q20.69688 151.12813 20.69688 151.55Q20.69688 152.22188 21.13438 152.72188Q21.556255 153.20625 22.743755 153.20625L26.150005 153.20625L26.150005 154.25313ZM23.13438 137.9875L23.431255 136.8625Q24.82188 137.22188 25.556255 138.14375Q26.29063 139.06563 26.29063 140.40938Q26.29063 141.8 25.72813 142.675Q25.16563 143.55 24.10313 144.00313Q23.025005 144.45625 21.79063 144.45625Q20.44688 144.45625 19.44688 143.94063Q18.44688 143.425 17.931255 142.4875Q17.41563 141.53438 17.41563 140.39375Q17.41563 139.1125 18.07188 138.2375Q18.72813 137.34688 19.91563 137.00313L20.181255 138.12813Q19.243755 138.425 18.82188 139.00313Q18.38438 139.56563 18.38438 140.425Q18.38438 141.40938 18.868755 142.08125Q19.337505 142.7375 20.13438 143.01875Q20.931255 143.28438 21.79063 143.28438Q22.88438 143.28438 23.69688 142.97188Q24.50938 142.64375 24.91563 141.97188Q25.32188 141.3 25.32188 140.50313Q25.32188 139.55 24.775005 138.89375Q24.22813 138.22188 23.13438 137.9875ZM23.04063 135.64375Q21.306255 135.64375 20.47813 134.69063Q19.79063 133.89375 19.79063 132.7375Q19.79063 131.45625 20.63438 130.64375Q21.462505 129.81563 22.94688 129.81563Q24.150005 129.81563 24.837505 130.175Q25.525005 130.53438 25.91563 131.2375Q26.29063 131.925 26.29063 132.7375Q26.29063 134.03438 25.462505 134.84688Q24.618755 135.64375 23.04063 135.64375ZM23.04063 134.56563Q24.22813 134.56563 24.82188 134.05Q25.41563 133.51875 25.41563 132.7375Q25.41563 131.94063 24.82188 131.425Q24.22813 130.90938 23.00938 130.90938Q21.85313 130.90938 21.25938 131.44063Q20.66563 131.95625 20.66563 132.7375Q20.66563 133.51875 21.25938 134.05Q21.837505 134.56563 23.04063 134.56563ZM26.150005 124.175L25.22813 124.175Q26.29063 124.90938 26.29063 126.15938Q26.29063 126.70625 26.087505 127.19063Q25.868755 127.65938 25.556255 127.89375Q25.22813 128.12813 24.75938 128.22188Q24.462505 128.28438 23.775005 128.28438L19.931255 128.28438L19.931255 127.22188L23.38438 127.22188Q24.19688 127.22188 24.493755 127.15938Q24.900005 127.06563 25.150005 126.75313Q25.38438 126.425 25.38438 125.94063Q25.38438 125.47188 25.150005 125.06563Q24.900005 124.64375 24.47813 124.47188Q24.056255 124.28438 23.25938 124.28438L19.931255 124.28438L19.931255 123.2375L26.150005 123.2375L26.150005 124.175ZM26.150005 121.25313L19.931255 121.25313L19.931255 120.31563L20.806255 120.31563Q19.79063 119.62813 19.79063 118.33125Q19.79063 117.76875 19.993755 117.3Q20.19688 116.81563 20.525005 116.58125Q20.85313 116.34688 21.29063 116.25313Q21.587505 116.20625 22.32188 116.20625L26.150005 116.20625L26.150005 117.25313L22.368755 117.25313Q21.712505 117.25313 21.400005 117.37813Q21.087505 117.50313 20.900005 117.81563Q20.69688 118.12813 20.69688 118.55Q20.69688 119.22188 21.13438 119.72188Q21.556255 120.20625 22.743755 120.20625L26.150005 120.20625L26.150005 121.25313ZM25.212505 111.95625L26.13438 111.8Q26.22813 112.25313 26.22813 112.59688Q26.22813 113.175 26.056255 113.4875Q25.868755 113.8 25.57188 113.94063Q25.275005 114.06563 24.32188 114.06563L20.743755 114.06563L20.743755 114.83125L19.931255 114.83125L19.931255 114.06563L18.38438 114.06563L17.75938 113.01875L19.931255 113.01875L19.931255 111.95625L20.743755 111.95625L20.743755 113.01875L24.38438 113.01875Q24.837505 113.01875 24.962505 112.97188Q25.087505 112.90938 25.16563 112.78438Q25.243755 112.65938 25.243755 112.425Q25.243755 112.2375 25.212505 111.95625Z" fill-rule="nonzero"/><path fill="#000000" d="M61.65 235.61563Q61.65 234.08438 61.9625 233.1625Q62.275 232.225 62.884377 231.725Q63.509377 231.225 64.44688 231.225Q65.13438 231.225 65.65 231.50626Q66.18125 231.7875 66.525 232.31876Q66.86875 232.83438 67.05625 233.58438Q67.24375 234.33438 67.24375 235.61563Q67.24375 237.13126 66.93125 238.05313Q66.63438 238.975 66.00938 239.49063Q65.4 239.99063 64.44688 239.99063Q63.2125 239.99063 62.49375 239.1Q61.65 238.0375 61.65 235.61563ZM62.728127 235.61563Q62.728127 237.725 63.228127 238.42813Q63.728127 239.13126 64.44688 239.13126Q65.18125 239.13126 65.66563 238.42813Q66.16563 237.725 66.16563 235.61563Q66.16563 233.49063 65.66563 232.80313Q65.18125 232.1 64.43125 232.1Q63.7125 232.1 63.275 232.70938Q62.728127 233.49063 62.728127 235.61563Z" fill-rule="nonzero"/><path fill="#000000" d="M67.19688 208.90105L67.19688 209.91667L61.509377 209.91667Q61.509377 209.54167 61.634377 209.1823Q61.853127 208.60417 62.321877 208.04167Q62.80625 207.47917 63.7125 206.7448Q65.11875 205.58855 65.60313 204.91667Q66.10313 204.2448 66.10313 203.65105Q66.10313 203.02605 65.65 202.60417Q65.19688 202.16667 64.47813 202.16667Q63.7125 202.16667 63.259377 202.6198Q62.80625 203.07292 62.790627 203.88542L61.7125 203.77605Q61.821877 202.5573 62.540627 201.9323Q63.275 201.29167 64.50938 201.29167Q65.74375 201.29167 66.4625 201.97917Q67.18125 202.66667 67.18125 203.6823Q67.18125 204.19792 66.9625 204.69792Q66.75938 205.1823 66.25938 205.7448Q65.775 206.29167 64.65 207.2448Q63.696877 208.04167 63.415627 208.33855Q63.15 208.6198 62.978127 208.90105L67.19688 208.90105Z" fill-rule="nonzero"/><path fill="#000000" d="M65.025 179.98334L65.025 177.92084L61.30625 177.92084L61.30625 176.95209L65.22813 171.38959L66.0875 171.38959L66.0875 176.95209L67.24375 176.95209L67.24375 177.92084L66.0875 177.92084L66.0875 179.98334L65.025 179.98334ZM65.025 176.95209L65.025 173.09271L62.3375 176.95209L65.025 176.95209Z" fill-rule="nonzero"/><path fill="#000000" d="M67.11875 143.56563L66.07188 143.64375Q65.93125 143.01875 65.68125 142.7375Q65.24375 142.28438 64.61875 142.28438Q64.11875 142.28438 63.728127 142.56563Q63.24375 142.94063 62.946877 143.64375Q62.665627 144.33125 62.65 145.6125Q63.025 145.03438 63.571877 144.75313Q64.13438 144.47188 64.74375 144.47188Q65.79063 144.47188 66.525 145.25313Q67.275 146.03438 67.275 147.25313Q67.275 148.06563 66.91563 148.76875Q66.57188 149.45625 65.9625 149.83125Q65.35313 150.19063 64.5875 150.19063Q63.259377 150.19063 62.43125 149.22188Q61.603127 148.25313 61.603127 146.03438Q61.603127 143.53438 62.525 142.40938Q63.321877 141.425 64.68125 141.425Q65.69688 141.425 66.3375 142.00313Q66.99375 142.56563 67.11875 143.56563ZM62.821877 147.26875Q62.821877 147.81563 63.040627 148.31563Q63.275 148.8 63.68125 149.06563Q64.10313 149.33125 64.57188 149.33125Q65.22813 149.33125 65.7125 148.8Q66.19688 148.25313 66.19688 147.33125Q66.19688 146.44063 65.7125 145.925Q65.24375 145.40938 64.525 145.40938Q63.80625 145.40938 63.30625 145.925Q62.821877 146.44063 62.821877 147.26875Z" fill-rule="nonzero"/><path fill="#000000" d="M63.275 115.46042Q62.61875 115.21042 62.290627 114.77292Q61.978127 114.31979 61.978127 113.71042Q61.978127 112.77292 62.65 112.13229Q63.3375 111.49167 64.44688 111.49167Q65.57188 111.49167 66.25938 112.14792Q66.94688 112.80417 66.94688 113.74167Q66.94688 114.33542 66.63438 114.77292Q66.32188 115.21042 65.68125 115.46042Q66.47813 115.71042 66.88438 116.28854Q67.29063 116.86667 67.29063 117.66354Q67.29063 118.75729 66.50938 119.50729Q65.74375 120.25729 64.4625 120.25729Q63.196877 120.25729 62.415627 119.50729Q61.634377 118.75729 61.634377 117.63229Q61.634377 116.78854 62.05625 116.22604Q62.49375 115.66354 63.275 115.46042ZM63.05625 113.66354Q63.05625 114.27292 63.446877 114.66354Q63.853127 115.05417 64.47813 115.05417Q65.0875 115.05417 65.47813 114.67917Q65.86875 114.28854 65.86875 113.72604Q65.86875 113.14792 65.4625 112.75729Q65.05625 112.35104 64.4625 112.35104Q63.853127 112.35104 63.446877 112.74167Q63.05625 113.13229 63.05625 113.66354ZM62.728127 117.63229Q62.728127 118.08542 62.93125 118.50729Q63.15 118.92917 63.571877 119.16354Q63.99375 119.39792 64.47813 119.39792Q65.22813 119.39792 65.7125 118.91354Q66.2125 118.42917 66.2125 117.67917Q66.2125 116.91354 65.7125 116.41354Q65.2125 115.91354 64.44688 115.91354Q63.696877 115.91354 63.2125 116.41354Q62.728127 116.89792 62.728127 117.63229Z" fill-rule="nonzero"/><path fill="#000000" d="M58.61875 90.183334L57.571877 90.183334L57.571877 83.464584Q57.18125 83.82396 56.55625 84.19896Q55.946877 84.558334 55.4625 84.73021L55.4625 83.714584Q56.3375 83.29271 56.99375 82.714584Q57.665627 82.120834 57.946877 81.558334L58.61875 81.558334L58.61875 90.183334ZM61.65 85.94896Q61.65 84.41771 61.9625 83.495834Q62.275 82.558334 62.884377 82.058334Q63.509377 81.558334 64.44688 81.558334Q65.13438 81.558334 65.65 81.839584Q66.18125 82.120834 66.525 82.652084Q66.86875 83.16771 67.05625 83.91771Q67.24375 84.66771 67.24375 85.94896Q67.24375 87.464584 66.93125 88.38646Q66.63438 89.308334 66.00938 89.82396Q65.4 90.32396 64.44688 90.32396Q63.2125 90.32396 62.49375 89.433334Q61.65 88.370834 61.65 85.94896ZM62.728127 85.94896Q62.728127 88.058334 63.228127 88.76146Q63.728127 89.464584 64.44688 89.464584Q65.18125 89.464584 65.66563 88.76146Q66.16563 88.058334 66.16563 85.94896Q66.16563 83.82396 65.66563 83.13646Q65.18125 82.433334 64.43125 82.433334Q63.7125 82.433334 63.275 83.04271Q62.728127 83.82396 62.728127 85.94896Z" fill-rule="nonzero"/><path fill="#000000" d="M58.61875 60.25L57.571877 60.25L57.571877 53.53125Q57.18125 53.890625 56.55625 54.265625Q55.946877 54.625 55.4625 54.796875L55.4625 53.78125Q56.3375 53.359375 56.99375 52.78125Q57.665627 52.1875 57.946877 51.625L58.61875 51.625L58.61875 60.25ZM67.19688 59.234375L67.19688 60.25L61.509377 60.25Q61.509377 59.875 61.634377 59.515625Q61.853127 58.9375 62.321877 58.375Q62.80625 57.8125 63.7125 57.078125Q65.11875 55.921875 65.60313 55.25Q66.10313 54.578125 66.10313 53.984375Q66.10313 53.359375 65.65 52.9375Q65.19688 52.5 64.47813 52.5Q63.7125 52.5 63.259377 52.953125Q62.80625 53.40625 62.790627 54.21875L61.7125 54.109375Q61.821877 52.890625 62.540627 52.265625Q63.275 51.625 64.50938 51.625Q65.74375 51.625 66.4625 52.3125Q67.18125 53.0 67.18125 54.015625Q67.18125 54.53125 66.9625 55.03125Q66.75938 55.515625 66.25938 56.078125Q65.775 56.625 64.65 57.578125Q63.696877 58.375 63.415627 58.671875Q63.15 58.953125 62.978127 59.234375L67.19688 59.234375Z" fill-rule="nonzero"/><path fill="#000000" d="M88.71727 252.85L87.670395 252.85L87.670395 246.13126Q87.27977 246.49063 86.65477 246.86563Q86.045395 247.225 85.56102 247.39688L85.56102 246.38126Q86.43602 245.95938 87.09227 245.38126Q87.764145 244.7875 88.045395 244.225L88.71727 244.225L88.71727 252.85Z" fill-rule="nonzero"/><path fill="#000000" d="M110.44135 251.83438L110.44135 252.85L104.75385 252.85Q104.75385 252.475 104.87885 252.11563Q105.0976 251.5375 105.56635 250.975Q106.05073 250.4125 106.95698 249.67813Q108.36323 248.52188 108.8476 247.85Q109.3476 247.17813 109.3476 246.58438Q109.3476 245.95938 108.89448 245.5375Q108.44135 245.1 107.7226 245.1Q106.95698 245.1 106.50385 245.55313Q106.05073 246.00626 106.0351 246.81876L104.95698 246.70938Q105.06635 245.49063 105.7851 244.86563Q106.51948 244.225 107.75385 244.225Q108.98823 244.225 109.70698 244.9125Q110.42573 245.6 110.42573 246.61563Q110.42573 247.13126 110.20698 247.63126Q110.00385 248.11563 109.50385 248.67813Q109.01948 249.225 107.89448 250.17813Q106.94135 250.975 106.6601 251.27188Q106.39448 251.55313 106.2226 251.83438L110.44135 251.83438Z" fill-rule="nonzero"/><path fill="#000000" d="M125.040436 250.58438L126.102936 250.44376Q126.27481 251.33438 126.71231 251.74063Q127.14981 252.13126 127.77481 252.13126Q128.52481 252.13126 129.04044 251.61563Q129.55606 251.1 129.55606 250.33438Q129.55606 249.61563 129.07169 249.14688Q128.60294 248.6625 127.86856 248.6625Q127.571686 248.6625 127.11856 248.7875L127.24356 247.85Q127.352936 247.86563 127.415436 247.86563Q128.08731 247.86563 128.61856 247.52188Q129.16544 247.1625 129.16544 246.42813Q129.16544 245.85 128.77481 245.475Q128.38419 245.08438 127.759186 245.08438Q127.14981 245.08438 126.727936 245.475Q126.321686 245.86563 126.21231 246.63126L125.14981 246.44376Q125.33731 245.39688 126.02481 244.81876Q126.71231 244.225 127.727936 244.225Q128.43106 244.225 129.02481 244.5375Q129.61856 244.83438 129.93106 245.35Q130.24356 245.86563 130.24356 246.45938Q130.24356 247.00626 129.94669 247.475Q129.64981 247.92813 129.07169 248.19376Q129.82169 248.36563 130.24356 248.92813Q130.66544 249.475 130.66544 250.31876Q130.66544 251.44376 129.83731 252.225Q129.02481 253.00626 127.77481 253.00626Q126.64981 253.00626 125.89981 252.33438Q125.14981 251.64688 125.040436 250.58438Z" fill-rule="nonzero"/><path fill="#000000" d="M148.56139 252.85L148.56139 250.7875L144.84264 250.7875L144.84264 249.81876L148.76451 244.25626L149.62389 244.25626L149.62389 249.81876L150.78014 249.81876L150.78014 250.7875L149.62389 250.7875L149.62389 252.85L148.56139 252.85ZM148.56139 249.81876L148.56139 245.95938L145.87389 249.81876L148.56139 249.81876Z" fill-rule="nonzero"/><path fill="#000000" d="M165.33235 250.6L166.44173 250.50626Q166.56673 251.31876 167.00423 251.725Q167.45735 252.13126 168.09798 252.13126Q168.84798 252.13126 169.37923 251.55313Q169.91048 250.975 169.91048 250.0375Q169.91048 249.13126 169.39485 248.61563Q168.89485 248.08438 168.06673 248.08438Q167.56673 248.08438 167.14485 248.31876Q166.7386 248.55313 166.50423 248.9125L165.51985 248.7875L166.34798 244.38126L170.62923 244.38126L170.62923 245.38126L167.19173 245.38126L166.7386 247.69376Q167.50423 247.14688 168.34798 247.14688Q169.47298 247.14688 170.2386 247.92813Q171.01985 248.70938 171.01985 249.94376Q171.01985 251.1 170.34798 251.95938Q169.51985 252.99063 168.09798 252.99063Q166.9261 252.99063 166.1761 252.33438Q165.44173 251.67813 165.33235 250.6Z" fill-rule="nonzero"/><path fill="#000000" d="M190.94705 246.36563L189.90018 246.44376Q189.75955 245.81876 189.50955 245.5375Q189.07205 245.08438 188.44705 245.08438Q187.94705 245.08438 187.55643 245.36563Q187.07205 245.74063 186.77518 246.44376Q186.49393 247.13126 186.4783 248.4125Q186.8533 247.83438 187.40018 247.55313Q187.96268 247.27188 188.57205 247.27188Q189.61893 247.27188 190.3533 248.05313Q191.1033 248.83438 191.1033 250.05313Q191.1033 250.86563 190.74393 251.56876Q190.40018 252.25626 189.7908 252.63126Q189.18143 252.99063 188.4158 252.99063Q187.08768 252.99063 186.25955 252.02188Q185.43143 251.05313 185.43143 248.83438Q185.43143 246.33438 186.3533 245.20938Q187.15018 244.225 188.50955 244.225Q189.52518 244.225 190.1658 244.80313Q190.82205 245.36563 190.94705 246.36563ZM186.65018 250.06876Q186.65018 250.61563 186.86893 251.11563Q187.1033 251.6 187.50955 251.86563Q187.93143 252.13126 188.40018 252.13126Q189.05643 252.13126 189.5408 251.6Q190.02518 251.05313 190.02518 250.13126Q190.02518 249.24063 189.5408 248.725Q189.07205 248.20938 188.3533 248.20938Q187.63455 248.20938 187.13455 248.725Q186.65018 249.24063 186.65018 250.06876Z" fill-rule="nonzero"/><path fill="#000000" d="M205.68677 245.38126L205.68677 244.36563L211.24927 244.36563L211.24927 245.19376Q210.43677 246.06876 209.62427 247.52188Q208.8274 248.95938 208.3899 250.49063Q208.06177 251.56876 207.98364 252.85L206.8899 252.85Q206.90552 251.83438 207.28052 250.39688Q207.67114 248.95938 208.37427 247.63126Q209.09302 246.30313 209.90552 245.38126L205.68677 245.38126Z" fill-rule="nonzero"/><path fill="#000000" d="M227.39522 248.19376Q226.73897 247.94376 226.41084 247.50626Q226.09834 247.05313 226.09834 246.44376Q226.09834 245.50626 226.77022 244.86563Q227.45772 244.225 228.5671 244.225Q229.6921 244.225 230.3796 244.88126Q231.0671 245.5375 231.0671 246.475Q231.0671 247.06876 230.7546 247.50626Q230.4421 247.94376 229.80147 248.19376Q230.59834 248.44376 231.0046 249.02188Q231.41084 249.6 231.41084 250.39688Q231.41084 251.49063 230.6296 252.24063Q229.86397 252.99063 228.58272 252.99063Q227.3171 252.99063 226.53584 252.24063Q225.7546 251.49063 225.7546 250.36563Q225.7546 249.52188 226.17647 248.95938Q226.61397 248.39688 227.39522 248.19376ZM227.17647 246.39688Q227.17647 247.00626 227.5671 247.39688Q227.97334 247.7875 228.59834 247.7875Q229.20772 247.7875 229.59834 247.4125Q229.98897 247.02188 229.98897 246.45938Q229.98897 245.88126 229.58272 245.49063Q229.17647 245.08438 228.58272 245.08438Q227.97334 245.08438 227.5671 245.475Q227.17647 245.86563 227.17647 246.39688ZM226.84834 250.36563Q226.84834 250.81876 227.05147 251.24063Q227.27022 251.6625 227.6921 251.89688Q228.11397 252.13126 228.59834 252.13126Q229.34834 252.13126 229.83272 251.64688Q230.33272 251.1625 230.33272 250.4125Q230.33272 249.64688 229.83272 249.14688Q229.33272 248.64688 228.5671 248.64688Q227.8171 248.64688 227.33272 249.14688Q226.84834 249.63126 226.84834 250.36563Z" fill-rule="nonzero"/><path fill="#000000" d="M246.07242 250.86563L247.08804 250.77188Q247.21304 251.49063 247.57242 251.81876Q247.94742 252.13126 248.50992 252.13126Q248.9943 252.13126 249.35367 251.9125Q249.72867 251.67813 249.96304 251.31876Q250.19742 250.94376 250.35367 250.31876Q250.50992 249.67813 250.50992 249.02188Q250.50992 248.94376 250.50992 248.80313Q250.19742 249.30313 249.65054 249.63126Q249.10367 249.94376 248.46304 249.94376Q247.38492 249.94376 246.65054 249.17813Q245.91617 248.39688 245.91617 247.13126Q245.91617 245.81876 246.6818 245.02188Q247.46304 244.225 248.6193 244.225Q249.44742 244.225 250.13492 244.67813Q250.83804 245.13126 251.19742 245.975Q251.5568 246.80313 251.5568 248.38126Q251.5568 250.02188 251.19742 251.00626Q250.85367 251.975 250.13492 252.49063Q249.4318 252.99063 248.4943 252.99063Q247.47867 252.99063 246.83804 252.44376Q246.19742 251.88126 246.07242 250.86563ZM250.38492 247.06876Q250.38492 246.1625 249.90054 245.63126Q249.4318 245.1 248.7443 245.1Q248.04117 245.1 247.50992 245.67813Q246.9943 246.24063 246.9943 247.1625Q246.9943 247.975 247.4943 248.49063Q247.9943 249.00626 248.71304 249.00626Q249.44742 249.00626 249.91617 248.49063Q250.38492 247.975 250.38492 247.06876Z" fill-rule="nonzero"/><path fill="#000000" d="M266.53088 252.85L265.484 252.85L265.484 246.13126Q265.09338 246.49063 264.46838 246.86563Q263.859 247.225 263.37463 247.39688L263.37463 246.38126Q264.24963 245.95938 264.90588 245.38126Q265.57776 244.7875 265.859 244.225L266.53088 244.225L266.53088 252.85ZM269.56213 248.61563Q269.56213 247.08438 269.87463 246.1625Q270.18713 245.225 270.7965 244.725Q271.4215 244.225 272.359 244.225Q273.0465 244.225 273.56213 244.50626Q274.09338 244.7875 274.43713 245.31876Q274.78088 245.83438 274.96838 246.58438Q275.15588 247.33438 275.15588 248.61563Q275.15588 250.13126 274.84338 251.05313Q274.5465 251.975 273.9215 252.49063Q273.31213 252.99063 272.359 252.99063Q271.12463 252.99063 270.40588 252.1Q269.56213 251.0375 269.56213 248.61563ZM270.64026 248.61563Q270.64026 250.725 271.14026 251.42813Q271.64026 252.13126 272.359 252.13126Q273.09338 252.13126 273.57776 251.42813Q274.07776 250.725 274.07776 248.61563Q274.07776 246.49063 273.57776 245.80313Q273.09338 245.1 272.34338 245.1Q271.62463 245.1 271.18713 245.70938Q270.64026 246.49063 270.64026 248.61563Z" fill-rule="nonzero"/><path fill="#000000" d="M286.67685 252.85L285.62997 252.85L285.62997 246.13126Q285.23935 246.49063 284.61435 246.86563Q284.00497 247.225 283.5206 247.39688L283.5206 246.38126Q284.3956 245.95938 285.05185 245.38126Q285.72372 244.7875 286.00497 244.225L286.67685 244.225L286.67685 252.85ZM293.67685 252.85L292.62997 252.85L292.62997 246.13126Q292.23935 246.49063 291.61435 246.86563Q291.00497 247.225 290.5206 247.39688L290.5206 246.38126Q291.3956 245.95938 292.05185 245.38126Q292.72372 244.7875 293.00497 244.225L293.67685 244.225L293.67685 252.85Z" fill-rule="nonzero"/><path fill="#000000" d="M306.82278 252.85L305.7759 252.85L305.7759 246.13126Q305.38528 246.49063 304.76028 246.86563Q304.1509 247.225 303.66653 247.39688L303.66653 246.38126Q304.54153 245.95938 305.19778 245.38126Q305.86966 244.7875 306.1509 244.225L306.82278 244.225L306.82278 252.85ZM315.4009 251.83438L315.4009 252.85L309.7134 252.85Q309.7134 252.475 309.8384 252.11563Q310.05716 251.5375 310.5259 250.975Q311.01028 250.4125 311.91653 249.67813Q313.32278 248.52188 313.80716 247.85Q314.30716 247.17813 314.30716 246.58438Q314.30716 245.95938 313.85403 245.5375Q313.4009 245.1 312.68216 245.1Q311.91653 245.1 311.4634 245.55313Q311.01028 246.00626 310.99466 246.81876L309.91653 246.70938Q310.0259 245.49063 310.74466 244.86563Q311.47903 244.225 312.7134 244.225Q313.94778 244.225 314.66653 244.9125Q315.38528 245.6 315.38528 246.61563Q315.38528 247.13126 315.16653 247.63126Q314.9634 248.11563 314.4634 248.67813Q313.97903 249.225 312.85403 250.17813Q311.9009 250.975 311.61966 251.27188Q311.35403 251.55313 311.18216 251.83438L315.4009 251.83438Z" fill-rule="nonzero"/><path fill="#000000" d="M326.96875 252.85L325.92188 252.85L325.92188 246.13126Q325.53125 246.49063 324.90625 246.86563Q324.29688 247.225 323.8125 247.39688L323.8125 246.38126Q324.6875 245.95938 325.34375 245.38126Q326.01562 244.7875 326.29688 244.225L326.96875 244.225L326.96875 252.85ZM330.0 250.58438L331.0625 250.44376Q331.23438 251.33438 331.67188 251.74063Q332.10938 252.13126 332.73438 252.13126Q333.48438 252.13126 334.0 251.61563Q334.51562 251.1 334.51562 250.33438Q334.51562 249.61563 334.03125 249.14688Q333.5625 248.6625 332.82812 248.6625Q332.53125 248.6625 332.07812 248.7875L332.20312 247.85Q332.3125 247.86563 332.375 247.86563Q333.04688 247.86563 333.57812 247.52188Q334.125 247.1625 334.125 246.42813Q334.125 245.85 333.73438 245.475Q333.34375 245.08438 332.71875 245.08438Q332.10938 245.08438 331.6875 245.475Q331.28125 245.86563 331.17188 246.63126L330.10938 246.44376Q330.29688 245.39688 330.98438 244.81876Q331.67188 244.225 332.6875 244.225Q333.39062 244.225 333.98438 244.5375Q334.57812 244.83438 334.89062 245.35Q335.20312 245.86563 335.20312 246.45938Q335.20312 247.00626 334.90625 247.475Q334.60938 247.92813 334.03125 248.19376Q334.78125 248.36563 335.20312 248.92813Q335.625 249.475 335.625 250.31876Q335.625 251.44376 334.79688 252.225Q333.98438 253.00626 332.73438 253.00626Q331.60938 253.00626 330.85938 252.33438Q330.10938 251.64688 330.0 250.58438Z" fill-rule="nonzero"/><path fill="#000000" d="M347.11472 252.85L346.06784 252.85L346.06784 246.13126Q345.67722 246.49063 345.05222 246.86563Q344.44284 247.225 343.95847 247.39688L343.95847 246.38126Q344.83347 245.95938 345.48972 245.38126Q346.1616 244.7875 346.44284 244.225L347.11472 244.225L347.11472 252.85ZM353.52097 252.85L353.52097 250.7875L349.80222 250.7875L349.80222 249.81876L353.7241 244.25626L354.58347 244.25626L354.58347 249.81876L355.73972 249.81876L355.73972 250.7875L354.58347 250.7875L354.58347 252.85L353.52097 252.85ZM353.52097 249.81876L353.52097 245.95938L350.83347 249.81876L353.52097 249.81876Z" fill-rule="nonzero"/><path fill="#000000" d="M367.26065 252.85L366.21378 252.85L366.21378 246.13126Q365.82315 246.49063 365.19815 246.86563Q364.58878 247.225 364.1044 247.39688L364.1044 246.38126Q364.9794 245.95938 365.63565 245.38126Q366.30753 244.7875 366.58878 244.225L367.26065 244.225L367.26065 252.85ZM370.2919 250.6L371.40128 250.50626Q371.52628 251.31876 371.96378 251.725Q372.4169 252.13126 373.05753 252.13126Q373.80753 252.13126 374.33878 251.55313Q374.87003 250.975 374.87003 250.0375Q374.87003 249.13126 374.3544 248.61563Q373.8544 248.08438 373.02628 248.08438Q372.52628 248.08438 372.1044 248.31876Q371.69815 248.55313 371.46378 248.9125L370.4794 248.7875L371.30753 244.38126L375.58878 244.38126L375.58878 245.38126L372.15128 245.38126L371.69815 247.69376Q372.46378 247.14688 373.30753 247.14688Q374.43253 247.14688 375.19815 247.92813Q375.9794 248.70938 375.9794 249.94376Q375.9794 251.1 375.30753 251.95938Q374.4794 252.99063 373.05753 252.99063Q371.88565 252.99063 371.13565 252.33438Q370.40128 251.67813 370.2919 250.6Z" fill-rule="nonzero"/><path fill="#000000" d="M387.40662 252.85L386.35974 252.85L386.35974 246.13126Q385.96912 246.49063 385.34412 246.86563Q384.73474 247.225 384.25037 247.39688L384.25037 246.38126Q385.12537 245.95938 385.78162 245.38126Q386.4535 244.7875 386.73474 244.225L387.40662 244.225L387.40662 252.85ZM395.90662 246.36563L394.85974 246.44376Q394.71912 245.81876 394.46912 245.5375Q394.03162 245.08438 393.40662 245.08438Q392.90662 245.08438 392.516 245.36563Q392.03162 245.74063 391.73474 246.44376Q391.4535 247.13126 391.43787 248.4125Q391.81287 247.83438 392.35974 247.55313Q392.92224 247.27188 393.53162 247.27188Q394.5785 247.27188 395.31287 248.05313Q396.06287 248.83438 396.06287 250.05313Q396.06287 250.86563 395.7035 251.56876Q395.35974 252.25626 394.75037 252.63126Q394.141 252.99063 393.37537 252.99063Q392.04724 252.99063 391.21912 252.02188Q390.391 251.05313 390.391 248.83438Q390.391 246.33438 391.31287 245.20938Q392.10974 244.225 393.46912 244.225Q394.48474 244.225 395.12537 244.80313Q395.78162 245.36563 395.90662 246.36563ZM391.60974 250.06876Q391.60974 250.61563 391.8285 251.11563Q392.06287 251.6 392.46912 251.86563Q392.891 252.13126 393.35974 252.13126Q394.016 252.13126 394.50037 251.6Q394.98474 251.05313 394.98474 250.13126Q394.98474 249.24063 394.50037 248.725Q394.03162 248.20938 393.31287 248.20938Q392.59412 248.20938 392.09412 248.725Q391.60974 249.24063 391.60974 250.06876Z" fill-rule="nonzero"/><path fill="#000000" d="M407.55258 252.85L406.5057 252.85L406.5057 246.13126Q406.11508 246.49063 405.49008 246.86563Q404.8807 247.225 404.39633 247.39688L404.39633 246.38126Q405.27133 245.95938 405.92758 245.38126Q406.59946 244.7875 406.8807 244.225L407.55258 244.225L407.55258 252.85ZM410.64633 245.38126L410.64633 244.36563L416.20883 244.36563L416.20883 245.19376Q415.39633 246.06876 414.58383 247.52188Q413.78696 248.95938 413.34946 250.49063Q413.02133 251.56876 412.9432 252.85L411.84946 252.85Q411.86508 251.83438 412.24008 250.39688Q412.6307 248.95938 413.33383 247.63126Q414.05258 246.30313 414.86508 245.38126L410.64633 245.38126Z" fill-rule="nonzero"/><path fill="#000000" d="M427.69855 252.85L426.65167 252.85L426.65167 246.13126Q426.26105 246.49063 425.63605 246.86563Q425.02667 247.225 424.5423 247.39688L424.5423 246.38126Q425.4173 245.95938 426.07355 245.38126Q426.74542 244.7875 427.02667 244.225L427.69855 244.225L427.69855 252.85ZM432.3548 248.19376Q431.69855 247.94376 431.37042 247.50626Q431.05792 247.05313 431.05792 246.44376Q431.05792 245.50626 431.7298 244.86563Q432.4173 244.225 433.52667 244.225Q434.65167 244.225 435.33917 244.88126Q436.02667 245.5375 436.02667 246.475Q436.02667 247.06876 435.71417 247.50626Q435.40167 247.94376 434.76105 248.19376Q435.55792 248.44376 435.96417 249.02188Q436.37042 249.6 436.37042 250.39688Q436.37042 251.49063 435.58917 252.24063Q434.82355 252.99063 433.5423 252.99063Q432.27667 252.99063 431.49542 252.24063Q430.71417 251.49063 430.71417 250.36563Q430.71417 249.52188 431.13605 248.95938Q431.57355 248.39688 432.3548 248.19376ZM432.13605 246.39688Q432.13605 247.00626 432.52667 247.39688Q432.93292 247.7875 433.55792 247.7875Q434.1673 247.7875 434.55792 247.4125Q434.94855 247.02188 434.94855 246.45938Q434.94855 245.88126 434.5423 245.49063Q434.13605 245.08438 433.5423 245.08438Q432.93292 245.08438 432.52667 245.475Q432.13605 245.86563 432.13605 246.39688ZM431.80792 250.36563Q431.80792 250.81876 432.01105 251.24063Q432.2298 251.6625 432.65167 251.89688Q433.07355 252.13126 433.55792 252.13126Q434.30792 252.13126 434.7923 251.64688Q435.2923 251.1625 435.2923 250.4125Q435.2923 249.64688 434.7923 249.14688Q434.2923 248.64688 433.52667 248.64688Q432.77667 248.64688 432.2923 249.14688Q431.80792 249.63126 431.80792 250.36563Z" fill-rule="nonzero"/><path fill="#000000" d="M447.84448 252.85L446.7976 252.85L446.7976 246.13126Q446.40698 246.49063 445.78198 246.86563Q445.1726 247.225 444.68823 247.39688L444.68823 246.38126Q445.56323 245.95938 446.21948 245.38126Q446.89136 244.7875 447.1726 244.225L447.84448 244.225L447.84448 252.85ZM451.03198 250.86563L452.0476 250.77188Q452.1726 251.49063 452.53198 251.81876Q452.90698 252.13126 453.46948 252.13126Q453.95386 252.13126 454.31323 251.9125Q454.68823 251.67813 454.9226 251.31876Q455.15698 250.94376 455.31323 250.31876Q455.46948 249.67813 455.46948 249.02188Q455.46948 248.94376 455.46948 248.80313Q455.15698 249.30313 454.6101 249.63126Q454.06323 249.94376 453.4226 249.94376Q452.34448 249.94376 451.6101 249.17813Q450.87573 248.39688 450.87573 247.13126Q450.87573 245.81876 451.64136 245.02188Q452.4226 244.225 453.57886 244.225Q454.40698 244.225 455.09448 244.67813Q455.7976 245.13126 456.15698 245.975Q456.51636 246.80313 456.51636 248.38126Q456.51636 250.02188 456.15698 251.00626Q455.81323 251.975 455.09448 252.49063Q454.39136 252.99063 453.45386 252.99063Q452.43823 252.99063 451.7976 252.44376Q451.15698 251.88126 451.03198 250.86563ZM455.34448 247.06876Q455.34448 246.1625 454.8601 245.63126Q454.39136 245.1 453.70386 245.1Q453.00073 245.1 452.46948 245.67813Q451.95386 246.24063 451.95386 247.1625Q451.95386 247.975 452.45386 248.49063Q452.95386 249.00626 453.6726 249.00626Q454.40698 249.00626 454.87573 248.49063Q455.34448 247.975 455.34448 247.06876Z" fill-rule="nonzero"/><path fill="#000000" d="M469.56857 251.83438L469.56857 252.85L463.88107 252.85Q463.88107 252.475 464.00607 252.11563Q464.22482 251.5375 464.69357 250.975Q465.17795 250.4125 466.0842 249.67813Q467.49045 248.52188 467.97482 247.85Q468.47482 247.17813 468.47482 246.58438Q468.47482 245.95938 468.0217 245.5375Q467.56857 245.1 466.84982 245.1Q466.0842 245.1 465.63107 245.55313Q465.17795 246.00626 465.16232 246.81876L464.0842 246.70938Q464.19357 245.49063 464.91232 244.86563Q465.6467 244.225 466.88107 244.225Q468.11545 244.225 468.8342 244.9125Q469.55295 245.6 469.55295 246.61563Q469.55295 247.13126 469.3342 247.63126Q469.13107 248.11563 468.63107 248.67813Q468.1467 249.225 467.0217 250.17813Q466.06857 250.975 465.78732 251.27188Q465.5217 251.55313 465.34982 251.83438L469.56857 251.83438ZM471.0217 248.61563Q471.0217 247.08438 471.3342 246.1625Q471.6467 245.225 472.25607 244.725Q472.88107 244.225 473.81857 244.225Q474.50607 244.225 475.0217 244.50626Q475.55295 244.7875 475.8967 245.31876Q476.24045 245.83438 476.42795 246.58438Q476.61545 247.33438 476.61545 248.61563Q476.61545 250.13126 476.30295 251.05313Q476.00607 251.975 475.38107 252.49063Q474.7717 252.99063 473.81857 252.99063Q472.5842 252.99063 471.86545 252.1Q471.0217 251.0375 471.0217 248.61563ZM472.09982 248.61563Q472.09982 250.725 472.59982 251.42813Q473.09982 252.13126 473.81857 252.13126Q474.55295 252.13126 475.03732 251.42813Q475.53732 250.725 475.53732 248.61563Q475.53732 246.49063 475.03732 245.80313Q474.55295 245.1 473.80295 245.1Q473.0842 245.1 472.6467 245.70938Q472.09982 246.49063 472.09982 248.61563Z" fill-rule="nonzero"/><path fill="#000000" d="M489.71454 251.83438L489.71454 252.85L484.02704 252.85Q484.02704 252.475 484.15204 252.11563Q484.3708 251.5375 484.83954 250.975Q485.3239 250.4125 486.23016 249.67813Q487.6364 248.52188 488.1208 247.85Q488.6208 247.17813 488.6208 246.58438Q488.6208 245.95938 488.16766 245.5375Q487.71454 245.1 486.9958 245.1Q486.23016 245.1 485.77704 245.55313Q485.3239 246.00626 485.3083 246.81876L484.23016 246.70938Q484.33954 245.49063 485.0583 244.86563Q485.79266 244.225 487.02704 244.225Q488.2614 244.225 488.98016 244.9125Q489.6989 245.6 489.6989 246.61563Q489.6989 247.13126 489.48016 247.63126Q489.27704 248.11563 488.77704 248.67813Q488.29266 249.225 487.16766 250.17813Q486.21454 250.975 485.9333 251.27188Q485.66766 251.55313 485.4958 251.83438L489.71454 251.83438ZM495.1364 252.85L494.08954 252.85L494.08954 246.13126Q493.6989 246.49063 493.0739 246.86563Q492.46454 247.225 491.98016 247.39688L491.98016 246.38126Q492.85516 245.95938 493.5114 245.38126Q494.1833 244.7875 494.46454 244.225L495.1364 244.225L495.1364 252.85Z" fill-rule="nonzero"/><path fill="#000000" d="M509.86047 251.83438L509.86047 252.85L504.17297 252.85Q504.17297 252.475 504.29797 252.11563Q504.51672 251.5375 504.98547 250.975Q505.46985 250.4125 506.3761 249.67813Q507.78235 248.52188 508.26672 247.85Q508.76672 247.17813 508.76672 246.58438Q508.76672 245.95938 508.3136 245.5375Q507.86047 245.1 507.14172 245.1Q506.3761 245.1 505.92297 245.55313Q505.46985 246.00626 505.45422 246.81876L504.3761 246.70938Q504.48547 245.49063 505.20422 244.86563Q505.9386 244.225 507.17297 244.225Q508.40735 244.225 509.1261 244.9125Q509.84485 245.6 509.84485 246.61563Q509.84485 247.13126 509.6261 247.63126Q509.42297 248.11563 508.92297 248.67813Q508.4386 249.225 507.3136 250.17813Q506.36047 250.975 506.07922 251.27188Q505.8136 251.55313 505.64172 251.83438L509.86047 251.83438ZM516.8605 251.83438L516.8605 252.85L511.17297 252.85Q511.17297 252.475 511.29797 252.11563Q511.51672 251.5375 511.98547 250.975Q512.46985 250.4125 513.3761 249.67813Q514.78235 248.52188 515.2667 247.85Q515.7667 247.17813 515.7667 246.58438Q515.7667 245.95938 515.3136 245.5375Q514.8605 245.1 514.1417 245.1Q513.3761 245.1 512.923 245.55313Q512.46985 246.00626 512.4542 246.81876L511.3761 246.70938Q511.48547 245.49063 512.2042 244.86563Q512.9386 244.225 514.173 244.225Q515.40735 244.225 516.1261 244.9125Q516.84485 245.6 516.84485 246.61563Q516.84485 247.13126 516.6261 247.63126Q516.423 248.11563 515.923 248.67813Q515.4386 249.225 514.3136 250.17813Q513.3605 250.975 513.0792 251.27188Q512.8136 251.55313 512.6417 251.83438L516.8605 251.83438Z" fill-rule="nonzero"/><path fill="#000000" d="M530.0065 251.83438L530.0065 252.85L524.319 252.85Q524.319 252.475 524.444 252.11563Q524.6627 251.5375 525.1315 250.975Q525.61584 250.4125 526.5221 249.67813Q527.92834 248.52188 528.4127 247.85Q528.9127 247.17813 528.9127 246.58438Q528.9127 245.95938 528.4596 245.5375Q528.0065 245.1 527.2877 245.1Q526.5221 245.1 526.069 245.55313Q525.61584 246.00626 525.6002 246.81876L524.5221 246.70938Q524.6315 245.49063 525.3502 244.86563Q526.0846 244.225 527.319 244.225Q528.55334 244.225 529.2721 244.9125Q529.99084 245.6 529.99084 246.61563Q529.99084 247.13126 529.7721 247.63126Q529.569 248.11563 529.069 248.67813Q528.5846 249.225 527.4596 250.17813Q526.5065 250.975 526.2252 251.27188Q525.9596 251.55313 525.7877 251.83438L530.0065 251.83438ZM531.4596 250.58438L532.5221 250.44376Q532.694 251.33438 533.1315 251.74063Q533.569 252.13126 534.194 252.13126Q534.944 252.13126 535.4596 251.61563Q535.9752 251.1 535.9752 250.33438Q535.9752 249.61563 535.49084 249.14688Q535.0221 248.6625 534.2877 248.6625Q533.99084 248.6625 533.5377 248.7875L533.6627 247.85Q533.7721 247.86563 533.8346 247.86563Q534.5065 247.86563 535.0377 247.52188Q535.5846 247.1625 535.5846 246.42813Q535.5846 245.85 535.194 245.475Q534.80334 245.08438 534.17834 245.08438Q533.569 245.08438 533.1471 245.475Q532.74084 245.86563 532.6315 246.63126L531.569 246.44376Q531.7565 245.39688 532.444 244.81876Q533.1315 244.225 534.1471 244.225Q534.8502 244.225 535.444 244.5375Q536.0377 244.83438 536.3502 245.35Q536.6627 245.86563 536.6627 246.45938Q536.6627 247.00626 536.36584 247.475Q536.069 247.92813 535.49084 248.19376Q536.24084 248.36563 536.6627 248.92813Q537.0846 249.475 537.0846 250.31876Q537.0846 251.44376 536.2565 252.225Q535.444 253.00626 534.194 253.00626Q533.069 253.00626 532.319 252.33438Q531.569 251.64688 531.4596 250.58438Z" fill-rule="nonzero"/><path fill="#000000" d="M550.1524 251.83438L550.1524 252.85L544.4649 252.85Q544.4649 252.475 544.5899 252.11563Q544.80865 251.5375 545.2774 250.975Q545.7618 250.4125 546.668 249.67813Q548.0743 248.52188 548.55865 247.85Q549.05865 247.17813 549.05865 246.58438Q549.05865 245.95938 548.6055 245.5375Q548.1524 245.1 547.43365 245.1Q546.668 245.1 546.2149 245.55313Q545.7618 246.00626 545.74615 246.81876L544.668 246.70938Q544.7774 245.49063 545.49615 244.86563Q546.2305 244.225 547.4649 244.225Q548.6993 244.225 549.418 244.9125Q550.1368 245.6 550.1368 246.61563Q550.1368 247.13126 549.918 247.63126Q549.7149 248.11563 549.2149 248.67813Q548.7305 249.225 547.6055 250.17813Q546.6524 250.975 546.37115 251.27188Q546.1055 251.55313 545.93365 251.83438L550.1524 251.83438ZM554.9805 252.85L554.9805 250.7875L551.2618 250.7875L551.2618 249.81876L555.18365 244.25626L556.043 244.25626L556.043 249.81876L557.1993 249.81876L557.1993 250.7875L556.043 250.7875L556.043 252.85L554.9805 252.85ZM554.9805 249.81876L554.9805 245.95938L552.293 249.81876L554.9805 249.81876Z" fill-rule="nonzero"/><path fill="#000000" d="M570.29834 251.83438L570.29834 252.85L564.61084 252.85Q564.61084 252.475 564.73584 252.11563Q564.9546 251.5375 565.42334 250.975Q565.9077 250.4125 566.81396 249.67813Q568.2202 248.52188 568.7046 247.85Q569.2046 247.17813 569.2046 246.58438Q569.2046 245.95938 568.75146 245.5375Q568.29834 245.1 567.5796 245.1Q566.81396 245.1 566.36084 245.55313Q565.9077 246.00626 565.8921 246.81876L564.81396 246.70938Q564.92334 245.49063 565.6421 244.86563Q566.37646 244.225 567.61084 244.225Q568.8452 244.225 569.56396 244.9125Q570.2827 245.6 570.2827 246.61563Q570.2827 247.13126 570.06396 247.63126Q569.86084 248.11563 569.36084 248.67813Q568.87646 249.225 567.75146 250.17813Q566.79834 250.975 566.5171 251.27188Q566.25146 251.55313 566.0796 251.83438L570.29834 251.83438ZM571.75146 250.6L572.86084 250.50626Q572.98584 251.31876 573.42334 251.725Q573.87646 252.13126 574.5171 252.13126Q575.2671 252.13126 575.79834 251.55313Q576.3296 250.975 576.3296 250.0375Q576.3296 249.13126 575.81396 248.61563Q575.31396 248.08438 574.48584 248.08438Q573.98584 248.08438 573.56396 248.31876Q573.1577 248.55313 572.92334 248.9125L571.93896 248.7875L572.7671 244.38126L577.04834 244.38126L577.04834 245.38126L573.61084 245.38126L573.1577 247.69376Q573.92334 247.14688 574.7671 247.14688Q575.8921 247.14688 576.6577 247.92813Q577.43896 248.70938 577.43896 249.94376Q577.43896 251.1 576.7671 251.95938Q575.93896 252.99063 574.5171 252.99063Q573.3452 252.99063 572.5952 252.33438Q571.86084 251.67813 571.75146 250.6Z" fill-rule="nonzero"/><path fill="#757575" d="M107.546875 34.15L107.546875 19.837502L112.46875 19.837502Q114.140625 19.837502 115.03125 20.040627Q116.25 20.321877 117.125 21.056252Q118.25 22.025002 118.8125 23.509377Q119.375 24.993752 119.375 26.915627Q119.375 28.540627 119.0 29.806252Q118.625 31.056252 118.015625 31.884377Q117.421875 32.7125 116.71875 33.196877Q116.015625 33.665627 115.015625 33.915627Q114.015625 34.15 112.703125 34.15L107.546875 34.15ZM109.4375 32.4625L112.5 32.4625Q113.90625 32.4625 114.703125 32.196877Q115.515625 31.931252 116.0 31.446877Q116.671875 30.775002 117.046875 29.650002Q117.421875 28.509377 117.421875 26.884377Q117.421875 24.634377 116.6875 23.431252Q115.953125 22.228127 114.890625 21.821877Q114.140625 21.525002 112.453125 21.525002L109.4375 21.525002L109.4375 32.4625ZM128.09375 32.86875Q127.109375 33.696877 126.203125 34.040627Q125.296875 34.384377 124.265625 34.384377Q122.5625 34.384377 121.640625 33.55625Q120.71875 32.7125 120.71875 31.415627Q120.71875 30.650002 121.0625 30.025002Q121.421875 29.400002 121.984375 29.025002Q122.546875 28.634377 123.25 28.431252Q123.765625 28.306252 124.8125 28.165627Q126.9375 27.915627 127.9375 27.571877Q127.953125 27.212502 127.953125 27.103127Q127.953125 26.040627 127.453125 25.587502Q126.78125 24.993752 125.453125 24.993752Q124.203125 24.993752 123.609375 25.431252Q123.03125 25.868752 122.75 26.978127L121.03125 26.743752Q121.265625 25.634377 121.796875 24.962502Q122.328125 24.275002 123.34375 23.915627Q124.359375 23.540627 125.703125 23.540627Q127.03125 23.540627 127.859375 23.853127Q128.6875 24.165627 129.07812 24.650002Q129.46875 25.118752 129.625 25.837502Q129.71875 26.290627 129.71875 27.462502L129.71875 29.806252Q129.71875 32.259377 129.82812 32.915627Q129.9375 33.55625 130.28125 34.15L128.4375 34.15Q128.17188 33.603127 128.09375 32.86875ZM127.9375 28.946877Q126.984375 29.337502 125.0625 29.603127Q123.984375 29.759377 123.53125 29.962502Q123.09375 30.150002 122.84375 30.525002Q122.59375 30.900002 122.59375 31.368752Q122.59375 32.071877 123.125 32.540627Q123.65625 33.009377 124.6875 33.009377Q125.703125 33.009377 126.484375 32.571877Q127.28125 32.11875 127.65625 31.353127Q127.9375 30.743752 127.9375 29.587502L127.9375 28.946877ZM132.32812 21.853127L132.32812 19.837502L134.09375 19.837502L134.09375 21.853127L132.32812 21.853127ZM132.32812 34.15L132.32812 23.775002L134.09375 23.775002L134.09375 34.15L132.32812 34.15ZM136.28125 34.15L136.28125 19.837502L138.03125 19.837502L138.03125 34.15L136.28125 34.15ZM140.23438 38.15L140.04688 36.49375Q140.625 36.65 141.04688 36.65Q141.64062 36.65 141.98438 36.446877Q142.34375 36.259377 142.5625 35.915627Q142.73438 35.65 143.10938 34.603127Q143.15625 34.446877 143.26562 34.165627L139.32812 23.775002L141.21875 23.775002L143.375 29.790627Q143.79688 30.931252 144.125 32.18125Q144.4375 30.978127 144.84375 29.821877L147.0625 23.775002L148.82812 23.775002L144.875 34.321877Q144.25 36.040627 143.89062 36.68125Q143.42188 37.55625 142.8125 37.946877Q142.21875 38.353127 141.375 38.353127Q140.85938 38.353127 140.23438 38.15ZM166.76562 29.134377L168.65625 29.603127Q168.0625 31.946877 166.51562 33.18125Q164.96875 34.4 162.71875 34.4Q160.40625 34.4 158.95312 33.4625Q157.51562 32.509377 156.75 30.728127Q156.0 28.931252 156.0 26.884377Q156.0 24.650002 156.84375 22.993752Q157.70312 21.321877 159.28125 20.462502Q160.85938 19.587502 162.75 19.587502Q164.90625 19.587502 166.35938 20.681252Q167.82812 21.775002 168.40625 23.759377L166.54688 24.196877Q166.04688 22.634377 165.09375 21.931252Q164.15625 21.212502 162.71875 21.212502Q161.0625 21.212502 159.95312 22.009377Q158.84375 22.790627 158.39062 24.134377Q157.95312 25.462502 157.95312 26.868752Q157.95312 28.696877 158.48438 30.071877Q159.01562 31.431252 160.14062 32.103127Q161.26562 32.775 162.5625 32.775Q164.15625 32.775 165.26562 31.853127Q166.375 30.931252 166.76562 29.134377ZM169.67188 28.962502Q169.67188 26.087502 171.26562 24.696877Q172.60938 23.540627 174.53125 23.540627Q176.67188 23.540627 178.01562 24.946877Q179.375 26.353127 179.375 28.821877Q179.375 30.821877 178.78125 31.978127Q178.1875 33.11875 177.03125 33.759377Q175.89062 34.384377 174.53125 34.384377Q172.34375 34.384377 171.0 32.99375Q169.67188 31.587502 169.67188 28.962502ZM171.46875 28.962502Q171.46875 30.962502 172.32812 31.946877Q173.20312 32.93125 174.53125 32.93125Q175.84375 32.93125 176.70312 31.946877Q177.57812 30.946877 177.57812 28.900002Q177.57812 26.978127 176.70312 25.993752Q175.82812 24.993752 174.53125 24.993752Q173.20312 24.993752 172.32812 25.993752Q171.46875 26.978127 171.46875 28.962502ZM181.3125 34.15L181.3125 23.775002L182.89062 23.775002L182.89062 25.228127Q183.375 24.478127 184.1875 24.009377Q185.0 23.540627 186.03125 23.540627Q187.1875 23.540627 187.92188 24.025002Q188.65625 24.493752 188.96875 25.353127Q190.20312 23.540627 192.17188 23.540627Q193.71875 23.540627 194.54688 24.400002Q195.375 25.259377 195.375 27.025002L195.375 34.15L193.625 34.15L193.625 27.618752Q193.625 26.556252 193.45312 26.103127Q193.28125 25.634377 192.82812 25.353127Q192.39062 25.071877 191.78125 25.071877Q190.6875 25.071877 189.95312 25.806252Q189.23438 26.525002 189.23438 28.118752L189.23438 34.15L187.48438 34.15L187.48438 27.415627Q187.48438 26.243752 187.04688 25.665627Q186.625 25.071877 185.64062 25.071877Q184.90625 25.071877 184.26562 25.462502Q183.64062 25.853127 183.35938 26.603127Q183.07812 27.353127 183.07812 28.775002L183.07812 34.15L181.3125 34.15ZM197.3125 34.15L197.3125 23.775002L198.89062 23.775002L198.89062 25.228127Q199.375 24.478127 200.1875 24.009377Q201.0 23.540627 202.03125 23.540627Q203.1875 23.540627 203.92188 24.025002Q204.65625 24.493752 204.96875 25.353127Q206.20312 23.540627 208.17188 23.540627Q209.71875 23.540627 210.54688 24.400002Q211.375 25.259377 211.375 27.025002L211.375 34.15L209.625 34.15L209.625 27.618752Q209.625 26.556252 209.45312 26.103127Q209.28125 25.634377 208.82812 25.353127Q208.39062 25.071877 207.78125 25.071877Q206.6875 25.071877 205.95312 25.806252Q205.23438 26.525002 205.23438 28.118752L205.23438 34.15L203.48438 34.15L203.48438 27.415627Q203.48438 26.243752 203.04688 25.665627Q202.625 25.071877 201.64062 25.071877Q200.90625 25.071877 200.26562 25.462502Q199.64062 25.853127 199.35938 26.603127Q199.07812 27.353127 199.07812 28.775002L199.07812 34.15L197.3125 34.15ZM220.10938 34.15L220.10938 32.61875Q218.90625 34.384377 216.82812 34.384377Q215.90625 34.384377 215.10938 34.040627Q214.3125 33.68125 213.92188 33.15Q213.54688 32.61875 213.39062 31.837502Q213.28125 31.321877 213.28125 30.196877L213.28125 23.775002L215.03125 23.775002L215.03125 29.525002Q215.03125 30.900002 215.14062 31.384377Q215.3125 32.071877 215.84375 32.478127Q216.39062 32.86875 217.17188 32.86875Q217.96875 32.86875 218.65625 32.4625Q219.35938 32.05625 219.64062 31.368752Q219.9375 30.665627 219.9375 29.337502L219.9375 23.775002L221.6875 23.775002L221.6875 34.15L220.10938 34.15ZM223.3125 34.15L223.3125 23.775002L224.90625 23.775002L224.90625 25.259377Q226.04688 23.540627 228.20312 23.540627Q229.14062 23.540627 229.92188 23.884377Q230.71875 24.212502 231.10938 24.759377Q231.5 25.306252 231.65625 26.056252Q231.75 26.556252 231.75 27.775002L231.75 34.15L229.98438 34.15L229.98438 27.837502Q229.98438 26.759377 229.78125 26.228127Q229.57812 25.696877 229.04688 25.384377Q228.53125 25.071877 227.82812 25.071877Q226.70312 25.071877 225.89062 25.790627Q225.07812 26.493752 225.07812 28.478127L225.07812 34.15L223.3125 34.15ZM233.32812 21.853127L233.32812 19.837502L235.09375 19.837502L235.09375 21.853127L233.32812 21.853127ZM233.32812 34.15L233.32812 23.775002L235.09375 23.775002L235.09375 34.15L233.32812 34.15ZM241.15625 32.571877L241.40625 34.134377Q240.67188 34.290627 240.07812 34.290627Q239.125 34.290627 238.59375 33.99375Q238.07812 33.68125 237.85938 33.196877Q237.64062 32.696877 237.64062 31.118752L237.64062 25.150002L236.35938 25.150002L236.35938 23.775002L237.64062 23.775002L237.64062 21.212502L239.39062 20.150002L239.39062 23.775002L241.15625 23.775002L241.15625 25.150002L239.39062 25.150002L239.39062 31.212502Q239.39062 31.962502 239.48438 32.18125Q239.57812 32.384377 239.78125 32.525Q240.0 32.65 240.39062 32.65Q240.67188 32.65 241.15625 32.571877ZM243.23438 38.15L243.04688 36.49375Q243.625 36.65 244.04688 36.65Q244.64062 36.65 244.98438 36.446877Q245.34375 36.259377 245.5625 35.915627Q245.73438 35.65 246.10938 34.603127Q246.15625 34.446877 246.26562 34.165627L242.32812 23.775002L244.21875 23.775002L246.375 29.790627Q246.79688 30.931252 247.125 32.18125Q247.4375 30.978127 247.84375 29.821877L250.0625 23.775002L251.82812 23.775002L247.875 34.321877Q247.25 36.040627 246.89062 36.68125Q246.42188 37.55625 245.8125 37.946877Q245.21875 38.353127 244.375 38.353127Q243.85938 38.353127 243.23438 38.15ZM269.76562 29.134377L271.65625 29.603127Q271.0625 31.946877 269.51562 33.18125Q267.96875 34.4 265.71875 34.4Q263.40625 34.4 261.95312 33.4625Q260.51562 32.509377 259.75 30.728127Q259.0 28.931252 259.0 26.884377Q259.0 24.650002 259.84375 22.993752Q260.70312 21.321877 262.28125 20.462502Q263.85938 19.587502 265.75 19.587502Q267.90625 19.587502 269.35938 20.681252Q270.82812 21.775002 271.40625 23.759377L269.54688 24.196877Q269.04688 22.634377 268.09375 21.931252Q267.15625 21.212502 265.71875 21.212502Q264.0625 21.212502 262.95312 22.009377Q261.84375 22.790627 261.39062 24.134377Q260.95312 25.462502 260.95312 26.868752Q260.95312 28.696877 261.48438 30.071877Q262.01562 31.431252 263.14062 32.103127Q264.26562 32.775 265.5625 32.775Q267.15625 32.775 268.26562 31.853127Q269.375 30.931252 269.76562 29.134377ZM272.67188 28.962502Q272.67188 26.087502 274.26562 24.696877Q275.60938 23.540627 277.53125 23.540627Q279.67188 23.540627 281.01562 24.946877Q282.375 26.353127 282.375 28.821877Q282.375 30.821877 281.78125 31.978127Q281.1875 33.11875 280.03125 33.759377Q278.89062 34.384377 277.53125 34.384377Q275.34375 34.384377 274.0 32.99375Q272.67188 31.587502 272.67188 28.962502ZM274.46875 28.962502Q274.46875 30.962502 275.32812 31.946877Q276.20312 32.93125 277.53125 32.93125Q278.84375 32.93125 279.70312 31.946877Q280.57812 30.946877 280.57812 28.900002Q280.57812 26.978127 279.70312 25.993752Q278.82812 24.993752 277.53125 24.993752Q276.20312 24.993752 275.32812 25.993752Q274.46875 26.978127 274.46875 28.962502ZM284.3125 34.15L284.3125 23.775002L285.90625 23.775002L285.90625 25.259377Q287.04688 23.540627 289.20312 23.540627Q290.14062 23.540627 290.92188 23.884377Q291.71875 24.212502 292.10938 24.759377Q292.5 25.306252 292.65625 26.056252Q292.75 26.556252 292.75 27.775002L292.75 34.15L290.98438 34.15L290.98438 27.837502Q290.98438 26.759377 290.78125 26.228127Q290.57812 25.696877 290.04688 25.384377Q289.53125 25.071877 288.82812 25.071877Q287.70312 25.071877 286.89062 25.790627Q286.07812 26.493752 286.07812 28.478127L286.07812 34.15L284.3125 34.15ZM298.15625 32.571877L298.40625 34.134377Q297.67188 34.290627 297.07812 34.290627Q296.125 34.290627 295.59375 33.99375Q295.07812 33.68125 294.85938 33.196877Q294.64062 32.696877 294.64062 31.118752L294.64062 25.150002L293.35938 25.150002L293.35938 23.775002L294.64062 23.775002L294.64062 21.212502L296.39062 20.150002L296.39062 23.775002L298.15625 23.775002L298.15625 25.150002L296.39062 25.150002L296.39062 31.212502Q296.39062 31.962502 296.48438 32.18125Q296.57812 32.384377 296.78125 32.525Q297.0 32.65 297.39062 32.65Q297.67188 32.65 298.15625 32.571877ZM300.29688 34.15L300.29688 23.775002L301.875 23.775002L301.875 25.353127Q302.48438 24.243752 303.0 23.900002Q303.51562 23.540627 304.125 23.540627Q305.01562 23.540627 305.9375 24.103127L305.32812 25.743752Q304.6875 25.353127 304.04688 25.353127Q303.46875 25.353127 303.0 25.712502Q302.54688 26.056252 302.34375 26.665627Q302.0625 27.603127 302.0625 28.712502L302.0625 34.15L300.29688 34.15ZM307.32812 21.853127L307.32812 19.837502L309.09375 19.837502L309.09375 21.853127L307.32812 21.853127ZM307.32812 34.15L307.32812 23.775002L309.09375 23.775002L309.09375 34.15L307.32812 34.15ZM312.9375 34.15L311.3125 34.15L311.3125 19.837502L313.0625 19.837502L313.0625 24.946877Q314.1875 23.540627 315.90625 23.540627Q316.85938 23.540627 317.71875 23.931252Q318.57812 24.321877 319.125 25.025002Q319.67188 25.712502 319.98438 26.696877Q320.29688 27.681252 320.29688 28.806252Q320.29688 31.478127 318.98438 32.93125Q317.67188 34.384377 315.82812 34.384377Q313.98438 34.384377 312.9375 32.853127L312.9375 34.15ZM312.92188 28.884377Q312.92188 30.743752 313.42188 31.587502Q314.26562 32.93125 315.67188 32.93125Q316.82812 32.93125 317.65625 31.931252Q318.5 30.931252 318.5 28.946877Q318.5 26.915627 317.6875 25.962502Q316.89062 24.993752 315.75 24.993752Q314.59375 24.993752 313.75 25.993752Q312.92188 26.993752 312.92188 28.884377ZM329.10938 34.15L329.10938 32.61875Q327.90625 34.384377 325.82812 34.384377Q324.90625 34.384377 324.10938 34.040627Q323.3125 33.68125 322.92188 33.15Q322.54688 32.61875 322.39062 31.837502Q322.28125 31.321877 322.28125 30.196877L322.28125 23.775002L324.03125 23.775002L324.03125 29.525002Q324.03125 30.900002 324.14062 31.384377Q324.3125 32.071877 324.84375 32.478127Q325.39062 32.86875 326.17188 32.86875Q326.96875 32.86875 327.65625 32.4625Q328.35938 32.05625 328.64062 31.368752Q328.9375 30.665627 328.9375 29.337502L328.9375 23.775002L330.6875 23.775002L330.6875 34.15L329.10938 34.15ZM336.15625 32.571877L336.40625 34.134377Q335.67188 34.290627 335.07812 34.290627Q334.125 34.290627 333.59375 33.99375Q333.07812 33.68125 332.85938 33.196877Q332.64062 32.696877 332.64062 31.118752L332.64062 25.150002L331.35938 25.150002L331.35938 23.775002L332.64062 23.775002L332.64062 21.212502L334.39062 20.150002L334.39062 23.775002L336.15625 23.775002L336.15625 25.150002L334.39062 25.150002L334.39062 31.212502Q334.39062 31.962502 334.48438 32.18125Q334.57812 32.384377 334.78125 32.525Q335.0 32.65 335.39062 32.65Q335.67188 32.65 336.15625 32.571877ZM345.42188 30.806252L347.23438 31.040627Q346.8125 32.61875 345.64062 33.509377Q344.48438 34.384377 342.67188 34.384377Q340.40625 34.384377 339.0625 32.99375Q337.73438 31.587502 337.73438 29.056252Q337.73438 26.431252 339.07812 24.993752Q340.42188 23.540627 342.57812 23.540627Q344.65625 23.540627 345.96875 24.962502Q347.29688 26.368752 347.29688 28.946877Q347.29688 29.103127 347.28125 29.415627L339.54688 29.415627Q339.64062 31.118752 340.51562 32.025Q341.39062 32.93125 342.6875 32.93125Q343.65625 32.93125 344.32812 32.43125Q345.01562 31.915627 345.42188 30.806252ZM339.64062 27.962502L345.4375 27.962502Q345.32812 26.665627 344.78125 26.009377Q343.9375 24.993752 342.59375 24.993752Q341.39062 24.993752 340.5625 25.806252Q339.73438 26.603127 339.64062 27.962502ZM356.04688 34.15L356.04688 32.8375Q355.0625 34.384377 353.14062 34.384377Q351.90625 34.384377 350.85938 33.696877Q349.82812 33.009377 349.25 31.790627Q348.6875 30.571877 348.6875 28.978127Q348.6875 27.415627 349.20312 26.150002Q349.71875 24.884377 350.75 24.212502Q351.79688 23.540627 353.0625 23.540627Q354.0 23.540627 354.73438 23.946877Q355.46875 24.337502 355.9375 24.962502L355.9375 19.837502L357.67188 19.837502L357.67188 34.15L356.04688 34.15ZM350.48438 28.978127Q350.48438 30.962502 351.32812 31.946877Q352.17188 32.93125 353.3125 32.93125Q354.46875 32.93125 355.26562 31.993752Q356.07812 31.056252 356.07812 29.118752Q356.07812 26.993752 355.25 25.993752Q354.4375 24.993752 353.23438 24.993752Q352.0625 24.993752 351.26562 25.962502Q350.48438 26.915627 350.48438 28.978127ZM365.90625 29.556252L367.6875 29.400002Q367.8125 30.462502 368.26562 31.150002Q368.73438 31.837502 369.70312 32.275Q370.6875 32.696877 371.92188 32.696877Q373.0 32.696877 373.82812 32.384377Q374.65625 32.05625 375.0625 31.493752Q375.46875 30.931252 375.46875 30.259377Q375.46875 29.587502 375.07812 29.087502Q374.6875 28.587502 373.79688 28.243752Q373.21875 28.009377 371.23438 27.540627Q369.26562 27.071877 368.48438 26.650002Q367.45312 26.118752 366.95312 25.321877Q366.45312 24.525002 366.45312 23.540627Q366.45312 22.446877 367.0625 21.509377Q367.67188 20.571877 368.85938 20.087502Q370.04688 19.587502 371.48438 19.587502Q373.07812 19.587502 374.29688 20.103127Q375.51562 20.618752 376.15625 21.618752Q376.8125 22.603127 376.85938 23.868752L375.04688 24.009377Q374.90625 22.650002 374.0625 21.962502Q373.21875 21.259377 371.5625 21.259377Q369.84375 21.259377 369.04688 21.900002Q368.26562 22.525002 368.26562 23.400002Q368.26562 24.181252 368.82812 24.681252Q369.375 25.181252 371.6875 25.696877Q374.0 26.212502 374.85938 26.603127Q376.10938 27.181252 376.70312 28.071877Q377.29688 28.946877 377.29688 30.103127Q377.29688 31.243752 376.64062 32.259377Q375.98438 33.275 374.75 33.8375Q373.53125 34.4 372.0 34.4Q370.0625 34.4 368.75 33.8375Q367.4375 33.259377 366.6875 32.11875Q365.9375 30.978127 365.90625 29.556252ZM378.67188 28.962502Q378.67188 26.087502 380.26562 24.696877Q381.60938 23.540627 383.53125 23.540627Q385.67188 23.540627 387.01562 24.946877Q388.375 26.353127 388.375 28.821877Q388.375 30.821877 387.78125 31.978127Q387.1875 33.11875 386.03125 33.759377Q384.89062 34.384377 383.53125 34.384377Q381.34375 34.384377 380.0 32.99375Q378.67188 31.587502 378.67188 28.962502ZM380.46875 28.962502Q380.46875 30.962502 381.32812 31.946877Q382.20312 32.93125 383.53125 32.93125Q384.84375 32.93125 385.70312 31.946877Q386.57812 30.946877 386.57812 28.900002Q386.57812 26.978127 385.70312 25.993752Q384.82812 24.993752 383.53125 24.993752Q382.20312 24.993752 381.32812 25.993752Q380.46875 26.978127 380.46875 28.962502ZM390.28125 34.15L390.28125 19.837502L392.03125 19.837502L392.03125 34.15L390.28125 34.15ZM401.10938 34.15L401.10938 32.61875Q399.90625 34.384377 397.82812 34.384377Q396.90625 34.384377 396.10938 34.040627Q395.3125 33.68125 394.92188 33.15Q394.54688 32.61875 394.39062 31.837502Q394.28125 31.321877 394.28125 30.196877L394.28125 23.775002L396.03125 23.775002L396.03125 29.525002Q396.03125 30.900002 396.14062 31.384377Q396.3125 32.071877 396.84375 32.478127Q397.39062 32.86875 398.17188 32.86875Q398.96875 32.86875 399.65625 32.4625Q400.35938 32.05625 400.64062 31.368752Q400.9375 30.665627 400.9375 29.337502L400.9375 23.775002L402.6875 23.775002L402.6875 34.15L401.10938 34.15ZM408.15625 32.571877L408.40625 34.134377Q407.67188 34.290627 407.07812 34.290627Q406.125 34.290627 405.59375 33.99375Q405.07812 33.68125 404.85938 33.196877Q404.64062 32.696877 404.64062 31.118752L404.64062 25.150002L403.35938 25.150002L403.35938 23.775002L404.64062 23.775002L404.64062 21.212502L406.39062 20.150002L406.39062 23.775002L408.15625 23.775002L408.15625 25.150002L406.39062 25.150002L406.39062 31.212502Q406.39062 31.962502 406.48438 32.18125Q406.57812 32.384377 406.78125 32.525Q407.0 32.65 407.39062 32.65Q407.67188 32.65 408.15625 32.571877ZM410.32812 21.853127L410.32812 19.837502L412.09375 19.837502L412.09375 21.853127L410.32812 21.853127ZM410.32812 34.15L410.32812 23.775002L412.09375 23.775002L412.09375 34.15L410.32812 34.15ZM413.67188 28.962502Q413.67188 26.087502 415.26562 24.696877Q416.60938 23.540627 418.53125 23.540627Q420.67188 23.540627 422.01562 24.946877Q423.375 26.353127 423.375 28.821877Q423.375 30.821877 422.78125 31.978127Q422.1875 33.11875 421.03125 33.759377Q419.89062 34.384377 418.53125 34.384377Q416.34375 34.384377 415.0 32.99375Q413.67188 31.587502 413.67188 28.962502ZM415.46875 28.962502Q415.46875 30.962502 416.32812 31.946877Q417.20312 32.93125 418.53125 32.93125Q419.84375 32.93125 420.70312 31.946877Q421.57812 30.946877 421.57812 28.900002Q421.57812 26.978127 420.70312 25.993752Q419.82812 24.993752 418.53125 24.993752Q417.20312 24.993752 416.32812 25.993752Q415.46875 26.978127 415.46875 28.962502ZM425.3125 34.15L425.3125 23.775002L426.90625 23.775002L426.90625 25.259377Q428.04688 23.540627 430.20312 23.540627Q431.14062 23.540627 431.92188 23.884377Q432.71875 24.212502 433.10938 24.759377Q433.5 25.306252 433.65625 26.056252Q433.75 26.556252 433.75 27.775002L433.75 34.15L431.98438 34.15L431.98438 27.837502Q431.98438 26.759377 431.78125 26.228127Q431.57812 25.696877 431.04688 25.384377Q430.53125 25.071877 429.82812 25.071877Q428.70312 25.071877 427.89062 25.790627Q427.07812 26.493752 427.07812 28.478127L427.07812 34.15L425.3125 34.15ZM434.60938 31.056252L436.35938 30.775002Q436.5 31.821877 437.17188 32.384377Q437.84375 32.93125 439.04688 32.93125Q440.25 32.93125 440.82812 32.446877Q441.42188 31.946877 441.42188 31.290627Q441.42188 30.696877 440.90625 30.353127Q440.54688 30.118752 439.10938 29.759377Q437.17188 29.259377 436.42188 28.915627Q435.6875 28.556252 435.29688 27.931252Q434.90625 27.290627 434.90625 26.525002Q434.90625 25.837502 435.21875 25.243752Q435.54688 24.650002 436.09375 24.259377Q436.5 23.962502 437.20312 23.759377Q437.92188 23.540627 438.73438 23.540627Q439.95312 23.540627 440.875 23.900002Q441.79688 24.243752 442.23438 24.853127Q442.67188 25.446877 442.84375 26.446877L441.125 26.681252Q441.0 25.884377 440.4375 25.446877Q439.875 24.993752 438.85938 24.993752Q437.64062 24.993752 437.125 25.400002Q436.60938 25.790627 436.60938 26.321877Q436.60938 26.665627 436.82812 26.946877Q437.03125 27.228127 437.5 27.415627Q437.76562 27.509377 439.04688 27.853127Q440.92188 28.353127 441.65625 28.681252Q442.39062 28.993752 442.8125 29.603127Q443.23438 30.196877 443.23438 31.103127Q443.23438 31.978127 442.71875 32.759377Q442.20312 33.540627 441.23438 33.9625Q440.26562 34.384377 439.04688 34.384377Q437.03125 34.384377 435.96875 33.540627Q434.90625 32.696877 434.60938 31.056252ZM460.0625 32.4625L460.0625 34.15L450.60938 34.15Q450.59375 33.509377 450.8125 32.93125Q451.17188 31.962502 451.96875 31.025002Q452.76562 30.087502 454.26562 28.853127Q456.60938 26.946877 457.42188 25.837502Q458.25 24.712502 458.25 23.712502Q458.25 22.665627 457.5 21.946877Q456.75 21.228127 455.54688 21.228127Q454.28125 21.228127 453.51562 21.993752Q452.75 22.759377 452.75 24.103127L450.9375 23.915627Q451.125 21.900002 452.32812 20.837502Q453.54688 19.775002 455.59375 19.775002Q457.64062 19.775002 458.84375 20.915627Q460.04688 22.056252 460.04688 23.743752Q460.04688 24.603127 459.6875 25.446877Q459.34375 26.275002 458.53125 27.196877Q457.71875 28.103127 455.82812 29.712502Q454.23438 31.040627 453.78125 31.509377Q453.34375 31.978127 453.04688 32.4625L460.0625 32.4625ZM461.82812 27.087502Q461.82812 24.556252 462.34375 23.009377Q462.875 21.446877 463.90625 20.618752Q464.9375 19.775002 466.5 19.775002Q467.65625 19.775002 468.51562 20.243752Q469.39062 20.696877 469.95312 21.571877Q470.51562 22.446877 470.84375 23.712502Q471.17188 24.962502 471.17188 27.087502Q471.17188 29.603127 470.64062 31.150002Q470.125 32.696877 469.09375 33.55625Q468.07812 34.4 466.5 34.4Q464.42188 34.4 463.25 32.915627Q461.82812 31.118752 461.82812 27.087502ZM463.64062 27.087502Q463.64062 30.618752 464.45312 31.790627Q465.28125 32.946877 466.5 32.946877Q467.70312 32.946877 468.53125 31.775002Q469.35938 30.603127 469.35938 27.087502Q469.35938 23.556252 468.53125 22.400002Q467.70312 21.228127 466.48438 21.228127Q465.26562 21.228127 464.54688 22.259377Q463.64062 23.556252 463.64062 27.087502ZM482.0625 32.4625L482.0625 34.15L472.60938 34.15Q472.59375 33.509377 472.8125 32.93125Q473.17188 31.962502 473.96875 31.025002Q474.76562 30.087502 476.26562 28.853127Q478.60938 26.946877 479.42188 25.837502Q480.25 24.712502 480.25 23.712502Q480.25 22.665627 479.5 21.946877Q478.75 21.228127 477.54688 21.228127Q476.28125 21.228127 475.51562 21.993752Q474.75 22.759377 474.75 24.103127L472.9375 23.915627Q473.125 21.900002 474.32812 20.837502Q475.54688 19.775002 477.59375 19.775002Q479.64062 19.775002 480.84375 20.915627Q482.04688 22.056252 482.04688 23.743752Q482.04688 24.603127 481.6875 25.446877Q481.34375 26.275002 480.53125 27.196877Q479.71875 28.103127 477.82812 29.712502Q476.23438 31.040627 475.78125 31.509377Q475.34375 31.978127 475.04688 32.4625L482.0625 32.4625ZM493.0625 32.4625L493.0625 34.15L483.60938 34.15Q483.59375 33.509377 483.8125 32.93125Q484.17188 31.962502 484.96875 31.025002Q485.76562 30.087502 487.26562 28.853127Q489.60938 26.946877 490.42188 25.837502Q491.25 24.712502 491.25 23.712502Q491.25 22.665627 490.5 21.946877Q489.75 21.228127 488.54688 21.228127Q487.28125 21.228127 486.51562 21.993752Q485.75 22.759377 485.75 24.103127L483.9375 23.915627Q484.125 21.900002 485.32812 20.837502Q486.54688 19.775002 488.59375 19.775002Q490.64062 19.775002 491.84375 20.915627Q493.04688 22.056252 493.04688 23.743752Q493.04688 24.603127 492.6875 25.446877Q492.34375 26.275002 491.53125 27.196877Q490.71875 28.103127 488.82812 29.712502Q487.23438 31.040627 486.78125 31.509377Q486.34375 31.978127 486.04688 32.4625L493.0625 32.4625Z" fill-rule="nonzero"/></svg>