<svg version="1.1" viewBox="0.0 0.0 600.0 314.0" fill="none" stroke="none" stroke-linecap="square" stroke-miterlimit="10" width="600" height="314" xmlns:xlink="http://www.w3.org/1999/xlink" xmlns="http://www.w3.org/2000/svg"><path fill="#ffffff" d="M0 0L600.0 0L600.0 314.0L0 314.0L0 0Z" fill-rule="nonzero"/><path stroke="#cccccc" stroke-width="1.0" stroke-linecap="butt" d="M96.5 57.5L96.5 254.5" fill-rule="nonzero"/><path stroke="#cccccc" stroke-width="1.0" stroke-linecap="butt" d="M223.5 57.5L223.5 254.5" fill-rule="nonzero"/><path stroke="#cccccc" stroke-width="1.0" stroke-linecap="butt" d="M349.5 57.5L349.5 254.5" fill-rule="nonzero"/><path stroke="#cccccc" stroke-width="1.0" stroke-linecap="butt" d="M475.5 57.5L475.5 254.5" fill-rule="nonzero"/><path stroke="#000000" stroke-width="1.0" stroke-linecap="butt" stroke-opacity="0.0" d="M54.5 57.5L54.5 254.5" fill-rule="nonzero"/><path stroke="#000000" stroke-width="1.0" stroke-linecap="butt" stroke-opacity="0.0" d="M181.5 57.5L181.5 254.5" fill-rule="nonzero"/><path stroke="#000000" stroke-width="1.0" stroke-linecap="butt" stroke-opacity="0.0" d="M138.5 57.5L138.5 254.5" fill-rule="nonzero"/><path stroke="#000000" stroke-width="1.0" stroke-linecap="butt" stroke-opacity="0.0" d="M307.5 57.5L307.5 254.5" fill-rule="nonzero"/><path stroke="#000000" stroke-width="1.0" stroke-linecap="butt" stroke-opacity="0.0" d="M265.5 57.5L265.5 254.5" fill-rule="nonzero"/><path stroke="#000000" stroke-width="1.0" stroke-linecap="butt" stroke-opacity="0.0" d="M433.5 57.5L433.5 254.5" fill-rule="nonzero"/><path stroke="#000000" stroke-width="1.0" stroke-linecap="butt" stroke-opacity="0.0" d="M391.5 57.5L391.5 254.5" fill-rule="nonzero"/><path stroke="#000000" stroke-width="1.0" stroke-linecap="butt" stroke-opacity="0.0" d="M560.5 57.5L560.5 254.5" fill-rule="nonzero"/><path stroke="#000000" stroke-width="1.0" stroke-linecap="butt" stroke-opacity="0.0" d="M518.5 57.5L518.5 254.5" fill-rule="nonzero"/><path stroke="#333333" stroke-width="1.0" stroke-linecap="butt" d="M42.5 254.5L584.5 254.5" fill-rule="nonzero"/><path stroke="#cccccc" stroke-width="1.0" stroke-linecap="butt" d="M42.5 214.5L584.5 214.5" fill-rule="nonzero"/><path stroke="#cccccc" stroke-width="1.0" stroke-linecap="butt" d="M42.5 175.5L584.5 175.5" fill-rule="nonzero"/><path stroke="#cccccc" stroke-width="1.0" stroke-linecap="butt" d="M42.5 135.5L584.5 135.5" fill-rule="nonzero"/><path stroke="#cccccc" stroke-width="1.0" stroke-linecap="butt" d="M42.5 96.5L584.5 96.5" fill-rule="nonzero"/><path stroke="#cccccc" stroke-width="1.0" stroke-linecap="butt" d="M42.5 57.5L584.5 57.5" fill-rule="nonzero"/><path stroke="#000000" stroke-width="1.0" stroke-linecap="butt" stroke-opacity="0.0" d="M42.5 241.5L584.5 241.5" fill-rule="nonzero"/><path stroke="#000000" stroke-width="1.0" stroke-linecap="butt" stroke-opacity="0.0" d="M42.5 227.5L584.5 227.5" fill-rule="nonzero"/><path stroke="#000000" stroke-width="1.0" stroke-linecap="butt" stroke-opacity="0.0" d="M42.5 201.5L584.5 201.5" fill-rule="nonzero"/><path stroke="#000000" stroke-width="1.0" stroke-linecap="butt" stroke-opacity="0.0" d="M42.5 188.5L584.5 188.5" fill-rule="nonzero"/><path stroke="#000000" stroke-width="1.0" stroke-linecap="butt" stroke-opacity="0.0" d="M42.5 162.5L584.5 162.5" fill-rule="nonzero"/><path stroke="#000000" stroke-width="1.0" stroke-linecap="butt" stroke-opacity="0.0" d="M42.5 149.5L584.5 149.5" fill-rule="nonzero"/><path stroke="#000000" stroke-width="1.0" stroke-linecap="butt" stroke-opacity="0.0" d="M42.5 122.5L584.5 122.5" fill-rule="nonzero"/><path stroke="#000000" stroke-width="1.0" stroke-linecap="butt" stroke-opacity="0.0" d="M42.5 109.5L584.5 109.5" fill-rule="nonzero"/><path stroke="#000000" stroke-width="1.0" stroke-linecap="butt" stroke-opacity="0.0" d="M42.5 83.5L584.5 83.5" fill-rule="nonzero"/><path stroke="#000000" stroke-width="1.0" stroke-linecap="butt" stroke-opacity="0.0" d="M42.5 70.5L584.5 70.5" fill-rule="nonzero"/><clipPath id="id_0"><path d="M42.7 57.166668L584.3 57.166668L584.3 254.23782L42.7 254.23782L42.7 57.166668Z" clip-rule="nonzero"/></clipPath><path stroke="#4285f4" stroke-width="2.0" stroke-linecap="butt" clip-path="url(#id_0)" d="M42.7 204.97003L60.753334 194.72234L78.80666 225.46544L96.86 214.8236L114.91333 128.50642L132.96666 159.24953L151.02 188.41606L169.07333 184.86877L187.12666 169.10309L205.18 202.60518L223.23334 74.90307L241.28667 102.09889L259.34 122.59429L277.39334 186.05121L295.44666 192.35748L313.5 195.90475L331.55334 214.42944L349.60666 216.40016L367.66 197.08719L385.71335 197.87547L403.76666 207.72903L421.82 205.75832L439.87332 219.15915L457.92667 230.19514L475.98 223.88887L494.03333 223.88887L512.0867 225.46544L530.14 225.07129L548.19336 219.15915L566.24664 227.83029L584.3 239.26042" fill-rule="nonzero"/><path fill="#000000" fill-opacity="0.0" clip-path="url(#id_0)" d="M45.7 204.97003C45.7 206.62689 44.356853 207.97003 42.7 207.97003C41.043144 207.97003 39.7 206.62689 39.7 204.97003C39.7 203.31319 41.043144 201.97003 42.7 201.97003C44.356853 201.97003 45.7 203.31319 45.7 204.97003Z" fill-rule="nonzero"/><path fill="#000000" fill-opacity="0.0" clip-path="url(#id_0)" d="M63.753334 194.72234C63.753334 196.37918 62.410187 197.72234 60.753334 197.72234C59.096478 197.72234 57.753334 196.37918 57.753334 194.72234C57.753334 193.06548 59.096478 191.72234 60.753334 191.72234C62.410187 191.72234 63.753334 193.06548 63.753334 194.72234Z" fill-rule="nonzero"/><path fill="#000000" fill-opacity="0.0" clip-path="url(#id_0)" d="M81.80666 225.46544C81.80666 227.12228 80.463524 228.46544 78.80666 228.46544C77.14981 228.46544 75.80666 227.12228 75.80666 225.46544C75.80666 223.80858 77.14981 222.46544 78.80666 222.46544C80.463524 222.46544 81.80666 223.80858 81.80666 225.46544Z" fill-rule="nonzero"/><path fill="#000000" fill-opacity="0.0" clip-path="url(#id_0)" d="M99.86 214.8236C99.86 216.48044 98.51685 217.8236 96.86 217.8236C95.20315 217.8236 93.86 216.48044 93.86 214.8236C93.86 213.16673 95.20315 211.8236 96.86 211.8236C98.51685 211.8236 99.86 213.16673 99.86 214.8236Z" fill-rule="nonzero"/><path fill="#000000" fill-opacity="0.0" clip-path="url(#id_0)" d="M117.91333 128.50642C117.91333 130.16328 116.57019 131.50642 114.91333 131.50642C113.25648 131.50642 111.91333 130.16328 111.91333 128.50642C111.91333 126.84957 113.25648 125.506424 114.91333 125.506424C116.57019 125.506424 117.91333 126.84957 117.91333 128.50642Z" fill-rule="nonzero"/><path fill="#000000" fill-opacity="0.0" clip-path="url(#id_0)" d="M135.96666 159.24953C135.96666 160.90637 134.62352 162.24953 132.96666 162.24953C131.30981 162.24953 129.96666 160.90637 129.96666 159.24953C129.96666 157.59267 131.30981 156.24953 132.96666 156.24953C134.62352 156.24953 135.96666 157.59267 135.96666 159.24953Z" fill-rule="nonzero"/><path fill="#000000" fill-opacity="0.0" clip-path="url(#id_0)" d="M154.02 188.41606C154.02 190.0729 152.67685 191.41606 151.02 191.41606C149.36314 191.41606 148.02 190.0729 148.02 188.41606C148.02 186.7592 149.36314 185.41606 151.02 185.41606C152.67685 185.41606 154.02 186.7592 154.02 188.41606Z" fill-rule="nonzero"/><path fill="#000000" fill-opacity="0.0" clip-path="url(#id_0)" d="M172.07333 184.86877C172.07333 186.52563 170.7302 187.86877 169.07333 187.86877C167.41647 187.86877 166.07333 186.52563 166.07333 184.86877C166.07333 183.21191 167.41647 181.86877 169.07333 181.86877C170.7302 181.86877 172.07333 183.21191 172.07333 184.86877Z" fill-rule="nonzero"/><path fill="#000000" fill-opacity="0.0" clip-path="url(#id_0)" d="M190.12666 169.10309C190.12666 170.75993 188.78352 172.10309 187.12666 172.10309C185.46982 172.10309 184.12666 170.75993 184.12666 169.10309C184.12666 167.44623 185.46982 166.10309 187.12666 166.10309C188.78352 166.10309 190.12666 167.44623 190.12666 169.10309Z" fill-rule="nonzero"/><path fill="#000000" fill-opacity="0.0" clip-path="url(#id_0)" d="M208.18 202.60518C208.18 204.26204 206.83685 205.60518 205.18 205.60518C203.52315 205.60518 202.18 204.26204 202.18 202.60518C202.18 200.94832 203.52315 199.60518 205.18 199.60518C206.83685 199.60518 208.18 200.94832 208.18 202.60518Z" fill-rule="nonzero"/><path fill="#000000" fill-opacity="0.0" clip-path="url(#id_0)" d="M226.23334 74.90307C226.23334 76.55992 224.89018 77.90307 223.23334 77.90307C221.57648 77.90307 220.23334 76.55992 220.23334 74.90307C220.23334 73.246216 221.57648 71.90307 223.23334 71.90307C224.89018 71.90307 226.23334 73.246216 226.23334 74.90307Z" fill-rule="nonzero"/><path fill="#000000" fill-opacity="0.0" clip-path="url(#id_0)" d="M244.28667 102.09889C244.28667 103.755745 242.94353 105.09889 241.28667 105.09889C239.6298 105.09889 238.28667 103.755745 238.28667 102.09889C238.28667 100.44204 239.6298 99.09889 241.28667 99.09889C242.94353 99.09889 244.28667 100.44204 244.28667 102.09889Z" fill-rule="nonzero"/><path fill="#000000" fill-opacity="0.0" clip-path="url(#id_0)" d="M262.34 122.59429C262.34 124.251144 260.99686 125.59429 259.34 125.59429C257.68314 125.59429 256.34 124.251144 256.34 122.59429C256.34 120.93744 257.68314 119.59429 259.34 119.59429C260.99686 119.59429 262.34 120.93744 262.34 122.59429Z" fill-rule="nonzero"/><path fill="#000000" fill-opacity="0.0" clip-path="url(#id_0)" d="M280.39334 186.05121C280.39334 187.70805 279.0502 189.05121 277.39334 189.05121C275.73648 189.05121 274.39334 187.70805 274.39334 186.05121C274.39334 184.39435 275.73648 183.05121 277.39334 183.05121C279.0502 183.05121 280.39334 184.39435 280.39334 186.05121Z" fill-rule="nonzero"/><path fill="#000000" fill-opacity="0.0" clip-path="url(#id_0)" d="M298.44666 192.35748C298.44666 194.01433 297.10352 195.35748 295.44666 195.35748C293.78983 195.35748 292.44666 194.01433 292.44666 192.35748C292.44666 190.70062 293.78983 189.35748 295.44666 189.35748C297.10352 189.35748 298.44666 190.70062 298.44666 192.35748Z" fill-rule="nonzero"/><path fill="#000000" fill-opacity="0.0" clip-path="url(#id_0)" d="M316.5 195.90475C316.5 197.56161 315.15686 198.90475 313.5 198.90475C311.84314 198.90475 310.5 197.56161 310.5 195.90475C310.5 194.24791 311.84314 192.90475 313.5 192.90475C315.15686 192.90475 316.5 194.24791 316.5 195.90475Z" fill-rule="nonzero"/><path fill="#000000" fill-opacity="0.0" clip-path="url(#id_0)" d="M334.55334 214.42944C334.55334 216.0863 333.21017 217.42944 331.55334 217.42944C329.89648 217.42944 328.55334 216.0863 328.55334 214.42944C328.55334 212.7726 329.89648 211.42944 331.55334 211.42944C333.21017 211.42944 334.55334 212.7726 334.55334 214.42944Z" fill-rule="nonzero"/><path fill="#000000" fill-opacity="0.0" clip-path="url(#id_0)" d="M352.60666 216.40016C352.60666 218.05702 351.26352 219.40016 349.60666 219.40016C347.9498 219.40016 346.60666 218.05702 346.60666 216.40016C346.60666 214.7433 347.9498 213.40016 349.60666 213.40016C351.26352 213.40016 352.60666 214.7433 352.60666 216.40016Z" fill-rule="nonzero"/><path fill="#000000" fill-opacity="0.0" clip-path="url(#id_0)" d="M370.66 197.08719C370.66 198.74403 369.31686 200.08719 367.66 200.08719C366.00314 200.08719 364.66 198.74403 364.66 197.08719C364.66 195.43033 366.00314 194.08719 367.66 194.08719C369.31686 194.08719 370.66 195.43033 370.66 197.08719Z" fill-rule="nonzero"/><path fill="#000000" fill-opacity="0.0" clip-path="url(#id_0)" d="M388.71335 197.87547C388.71335 199.53233 387.37018 200.87547 385.71335 200.87547C384.0565 200.87547 382.71335 199.53233 382.71335 197.87547C382.71335 196.21861 384.0565 194.87547 385.71335 194.87547C387.37018 194.87547 388.71335 196.21861 388.71335 197.87547Z" fill-rule="nonzero"/><path fill="#000000" fill-opacity="0.0" clip-path="url(#id_0)" d="M406.76666 207.72903C406.76666 209.38588 405.42352 210.72903 403.76666 210.72903C402.1098 210.72903 400.76666 209.38588 400.76666 207.72903C400.76666 206.07217 402.1098 204.72903 403.76666 204.72903C405.42352 204.72903 406.76666 206.07217 406.76666 207.72903Z" fill-rule="nonzero"/><path fill="#000000" fill-opacity="0.0" clip-path="url(#id_0)" d="M424.82 205.75832C424.82 207.41518 423.47687 208.75832 421.82 208.75832C420.16315 208.75832 418.82 207.41518 418.82 205.75832C418.82 204.10147 420.16315 202.75832 421.82 202.75832C423.47687 202.75832 424.82 204.10147 424.82 205.75832Z" fill-rule="nonzero"/><path fill="#000000" fill-opacity="0.0" clip-path="url(#id_0)" d="M442.87332 219.15915C442.87332 220.81601 441.53018 222.15915 439.87332 222.15915C438.2165 222.15915 436.87332 220.81601 436.87332 219.15915C436.87332 217.5023 438.2165 216.15915 439.87332 216.15915C441.53018 216.15915 442.87332 217.5023 442.87332 219.15915Z" fill-rule="nonzero"/><path fill="#000000" fill-opacity="0.0" clip-path="url(#id_0)" d="M460.92667 230.19514C460.92667 231.85199 459.58353 233.19514 457.92667 233.19514C456.2698 233.19514 454.92667 231.85199 454.92667 230.19514C454.92667 228.53828 456.2698 227.19514 457.92667 227.19514C459.58353 227.19514 460.92667 228.53828 460.92667 230.19514Z" fill-rule="nonzero"/><path fill="#000000" fill-opacity="0.0" clip-path="url(#id_0)" d="M478.98 223.88887C478.98 225.54572 477.63684 226.88887 475.98 226.88887C474.32315 226.88887 472.98 225.54572 472.98 223.88887C472.98 222.23201 474.32315 220.88887 475.98 220.88887C477.63684 220.88887 478.98 222.23201 478.98 223.88887Z" fill-rule="nonzero"/><path fill="#000000" fill-opacity="0.0" clip-path="url(#id_0)" d="M497.03333 223.88887C497.03333 225.54572 495.6902 226.88887 494.03333 226.88887C492.37646 226.88887 491.03333 225.54572 491.03333 223.88887C491.03333 222.23201 492.37646 220.88887 494.03333 220.88887C495.6902 220.88887 497.03333 222.23201 497.03333 223.88887Z" fill-rule="nonzero"/><path fill="#000000" fill-opacity="0.0" clip-path="url(#id_0)" d="M515.0867 225.46544C515.0867 227.12228 513.7435 228.46544 512.0867 228.46544C510.4298 228.46544 509.08667 227.12228 509.08667 225.46544C509.08667 223.80858 510.4298 222.46544 512.0867 222.46544C513.7435 222.46544 515.0867 223.80858 515.0867 225.46544Z" fill-rule="nonzero"/><path fill="#000000" fill-opacity="0.0" clip-path="url(#id_0)" d="M533.14 225.07129C533.14 226.72815 531.7969 228.07129 530.14 228.07129C528.48315 228.07129 527.14 226.72815 527.14 225.07129C527.14 223.41444 528.48315 222.07129 530.14 222.07129C531.7969 222.07129 533.14 223.41444 533.14 225.07129Z" fill-rule="nonzero"/><path fill="#000000" fill-opacity="0.0" clip-path="url(#id_0)" d="M551.19336 219.15915C551.19336 220.81601 549.85016 222.15915 548.19336 222.15915C546.5365 222.15915 545.19336 220.81601 545.19336 219.15915C545.19336 217.5023 546.5365 216.15915 548.19336 216.15915C549.85016 216.15915 551.19336 217.5023 551.19336 219.15915Z" fill-rule="nonzero"/><path fill="#000000" fill-opacity="0.0" clip-path="url(#id_0)" d="M569.24664 227.83029C569.24664 229.48714 567.9035 230.83029 566.24664 230.83029C564.5898 230.83029 563.24664 229.48714 563.24664 227.83029C563.24664 226.17343 564.5898 224.83029 566.24664 224.83029C567.9035 224.83029 569.24664 226.17343 569.24664 227.83029Z" fill-rule="nonzero"/><path fill="#000000" fill-opacity="0.0" clip-path="url(#id_0)" d="M587.3 239.26042C587.3 240.91727 585.95685 242.26042 584.3 242.26042C582.6431 242.26042 581.3 240.91727 581.3 239.26042C581.3 237.60356 582.6431 236.26042 584.3 236.26042C585.95685 236.26042 587.3 237.60356 587.3 239.26042Z" fill-rule="nonzero"/><path fill="#000000" d="M30.2 254.00345Q30.2 252.4722 30.5125 251.55032Q30.825 250.61282 31.434376 250.11282Q32.059376 249.61282 32.996876 249.61282Q33.684376 249.61282 34.2 249.89407Q34.73125 250.17532 35.075 250.70657Q35.41875 251.2222 35.60625 251.9722Q35.79375 252.7222 35.79375 254.00345Q35.79375 255.51907 35.48125 256.44095Q35.184376 257.36282 34.559376 257.87845Q33.95 258.37845 32.996876 258.37845Q31.7625 258.37845 31.04375 257.48782Q30.2 256.42532 30.2 254.00345ZM31.278126 254.00345Q31.278126 256.11282 31.778126 256.81595Q32.278126 257.51907 32.996876 257.51907Q33.73125 257.51907 34.215626 256.81595Q34.715626 256.11282 34.715626 254.00345Q34.715626 251.87845 34.215626 251.19095Q33.73125 250.48782 32.98125 250.48782Q32.2625 250.48782 31.825 251.0972Q31.278126 251.87845 31.278126 254.00345Z" fill-rule="nonzero"/><path fill="#000000" d="M20.16875 218.8236L19.121876 218.8236L19.121876 212.10484Q18.73125 212.46422 18.10625 212.83922Q17.496876 213.1986 17.0125 213.37047L17.0125 212.35484Q17.8875 211.93297 18.54375 211.35484Q19.215626 210.7611 19.496876 210.1986L20.16875 210.1986L20.16875 218.8236ZM23.2 214.58922Q23.2 213.05797 23.5125 212.1361Q23.825 211.1986 24.434376 210.6986Q25.059376 210.1986 25.996876 210.1986Q26.684376 210.1986 27.2 210.47984Q27.73125 210.7611 28.075 211.29234Q28.41875 211.80797 28.60625 212.55797Q28.79375 213.30797 28.79375 214.58922Q28.79375 216.10484 28.48125 217.02672Q28.184376 217.9486 27.559376 218.46422Q26.95 218.96422 25.996876 218.96422Q24.7625 218.96422 24.04375 218.0736Q23.2 217.0111 23.2 214.58922ZM24.278126 214.58922Q24.278126 216.6986 24.778126 217.40172Q25.278126 218.10484 25.996876 218.10484Q26.73125 218.10484 27.215626 217.40172Q27.715626 216.6986 27.715626 214.58922Q27.715626 212.46422 27.215626 211.77672Q26.73125 211.0736 25.98125 211.0736Q25.2625 211.0736 24.825 211.68297Q24.278126 212.46422 24.278126 214.58922ZM30.2 214.58922Q30.2 213.05797 30.5125 212.1361Q30.825 211.1986 31.434376 210.6986Q32.059376 210.1986 32.996876 210.1986Q33.684376 210.1986 34.2 210.47984Q34.73125 210.7611 35.075 211.29234Q35.41875 211.80797 35.60625 212.55797Q35.79375 213.30797 35.79375 214.58922Q35.79375 216.10484 35.48125 217.02672Q35.184376 217.9486 34.559376 218.46422Q33.95 218.96422 32.996876 218.96422Q31.7625 218.96422 31.04375 218.0736Q30.2 217.0111 30.2 214.58922ZM31.278126 214.58922Q31.278126 216.6986 31.778126 217.40172Q32.278126 218.10484 32.996876 218.10484Q33.73125 218.10484 34.215626 217.40172Q34.715626 216.6986 34.715626 214.58922Q34.715626 212.46422 34.215626 211.77672Q33.73125 211.0736 32.98125 211.0736Q32.2625 211.0736 31.825 211.68297Q31.278126 212.46422 31.278126 214.58922Z" fill-rule="nonzero"/><path fill="#000000" d="M21.746876 178.39374L21.746876 179.40936L16.059376 179.40936Q16.059376 179.03436 16.184376 178.67499Q16.403126 178.09686 16.871876 177.53436Q17.35625 176.97186 18.2625 176.23749Q19.66875 175.08124 20.153126 174.40936Q20.653126 173.73749 20.653126 173.14374Q20.653126 172.51874 20.2 172.09686Q19.746876 171.65936 19.028126 171.65936Q18.2625 171.65936 17.809376 172.11249Q17.35625 172.56561 17.340626 173.37811L16.2625 173.26874Q16.371876 172.04999 17.090626 171.42499Q17.825 170.78436 19.059376 170.78436Q20.29375 170.78436 21.0125 171.47186Q21.73125 172.15936 21.73125 173.17499Q21.73125 173.69061 21.5125 174.19061Q21.309376 174.67499 20.809376 175.23749Q20.325 175.78436 19.2 176.73749Q18.246876 177.53436 17.965626 177.83124Q17.7 178.11249 17.528126 178.39374L21.746876 178.39374ZM23.2 175.17499Q23.2 173.64374 23.5125 172.72186Q23.825 171.78436 24.434376 171.28436Q25.059376 170.78436 25.996876 170.78436Q26.684376 170.78436 27.2 171.06561Q27.73125 171.34686 28.075 171.87811Q28.41875 172.39374 28.60625 173.14374Q28.79375 173.89374 28.79375 175.17499Q28.79375 176.69061 28.48125 177.61249Q28.184376 178.53436 27.559376 179.04999Q26.95 179.54999 25.996876 179.54999Q24.7625 179.54999 24.04375 178.65936Q23.2 177.59686 23.2 175.17499ZM24.278126 175.17499Q24.278126 177.28436 24.778126 177.98749Q25.278126 178.69061 25.996876 178.69061Q26.73125 178.69061 27.215626 177.98749Q27.715626 177.28436 27.715626 175.17499Q27.715626 173.04999 27.215626 172.36249Q26.73125 171.65936 25.98125 171.65936Q25.2625 171.65936 24.825 172.26874Q24.278126 173.04999 24.278126 175.17499ZM30.2 175.17499Q30.2 173.64374 30.5125 172.72186Q30.825 171.78436 31.434376 171.28436Q32.059376 170.78436 32.996876 170.78436Q33.684376 170.78436 34.2 171.06561Q34.73125 171.34686 35.075 171.87811Q35.41875 172.39374 35.60625 173.14374Q35.79375 173.89374 35.79375 175.17499Q35.79375 176.69061 35.48125 177.61249Q35.184376 178.53436 34.559376 179.04999Q33.95 179.54999 32.996876 179.54999Q31.7625 179.54999 31.04375 178.65936Q30.2 177.59686 30.2 175.17499ZM31.278126 175.17499Q31.278126 177.28436 31.778126 177.98749Q32.278126 178.69061 32.996876 178.69061Q33.73125 178.69061 34.215626 177.98749Q34.715626 177.28436 34.715626 175.17499Q34.715626 173.04999 34.215626 172.36249Q33.73125 171.65936 32.98125 171.65936Q32.2625 171.65936 31.825 172.26874Q31.278126 173.04999 31.278126 175.17499Z" fill-rule="nonzero"/><path fill="#000000" d="M16.2 137.7295L17.2625 137.58888Q17.434376 138.4795 17.871876 138.88576Q18.309376 139.27638 18.934376 139.27638Q19.684376 139.27638 20.2 138.76076Q20.715626 138.24513 20.715626 137.4795Q20.715626 136.76076 20.23125 136.292Q19.7625 135.80763 19.028126 135.80763Q18.73125 135.80763 18.278126 135.93263L18.403126 134.99513Q18.5125 135.01076 18.575 135.01076Q19.246876 135.01076 19.778126 134.667Q20.325 134.30763 20.325 133.57326Q20.325 132.99513 19.934376 132.62013Q19.54375 132.2295 18.91875 132.2295Q18.309376 132.2295 17.8875 132.62013Q17.48125 133.01076 17.371876 133.77638L16.309376 133.58888Q16.496876 132.542 17.184376 131.96388Q17.871876 131.37013 18.8875 131.37013Q19.590626 131.37013 20.184376 131.68263Q20.778126 131.9795 21.090626 132.49513Q21.403126 133.01076 21.403126 133.6045Q21.403126 134.15138 21.10625 134.62013Q20.809376 135.07326 20.23125 135.33888Q20.98125 135.51076 21.403126 136.07326Q21.825 136.62013 21.825 137.46388Q21.825 138.58888 20.996876 139.37013Q20.184376 140.15138 18.934376 140.15138Q17.809376 140.15138 17.059376 139.4795Q16.309376 138.792 16.2 137.7295ZM23.2 135.76076Q23.2 134.2295 23.5125 133.30763Q23.825 132.37013 24.434376 131.87013Q25.059376 131.37013 25.996876 131.37013Q26.684376 131.37013 27.2 131.65138Q27.73125 131.93263 28.075 132.46388Q28.41875 132.9795 28.60625 133.7295Q28.79375 134.4795 28.79375 135.76076Q28.79375 137.27638 28.48125 138.19826Q28.184376 139.12013 27.559376 139.63576Q26.95 140.13576 25.996876 140.13576Q24.7625 140.13576 24.04375 139.24513Q23.2 138.18263 23.2 135.76076ZM24.278126 135.76076Q24.278126 137.87013 24.778126 138.57326Q25.278126 139.27638 25.996876 139.27638Q26.73125 139.27638 27.215626 138.57326Q27.715626 137.87013 27.715626 135.76076Q27.715626 133.63576 27.215626 132.94826Q26.73125 132.24513 25.98125 132.24513Q25.2625 132.24513 24.825 132.8545Q24.278126 133.63576 24.278126 135.76076ZM30.2 135.76076Q30.2 134.2295 30.5125 133.30763Q30.825 132.37013 31.434376 131.87013Q32.059376 131.37013 32.996876 131.37013Q33.684376 131.37013 34.2 131.65138Q34.73125 131.93263 35.075 132.46388Q35.41875 132.9795 35.60625 133.7295Q35.79375 134.4795 35.79375 135.76076Q35.79375 137.27638 35.48125 138.19826Q35.184376 139.12013 34.559376 139.63576Q33.95 140.13576 32.996876 140.13576Q31.7625 140.13576 31.04375 139.24513Q30.2 138.18263 30.2 135.76076ZM31.278126 135.76076Q31.278126 137.87013 31.778126 138.57326Q32.278126 139.27638 32.996876 139.27638Q33.73125 139.27638 34.215626 138.57326Q34.715626 137.87013 34.715626 135.76076Q34.715626 133.63576 34.215626 132.94826Q33.73125 132.24513 32.98125 132.24513Q32.2625 132.24513 31.825 132.8545Q31.278126 133.63576 31.278126 135.76076Z" fill-rule="nonzero"/><path fill="#000000" d="M19.575 100.580894L19.575 98.518394L15.85625 98.518394L15.85625 97.549644L19.778126 91.987144L20.6375 91.987144L20.6375 97.549644L21.79375 97.549644L21.79375 98.518394L20.6375 98.518394L20.6375 100.580894L19.575 100.580894ZM19.575 97.549644L19.575 93.69027L16.8875 97.549644L19.575 97.549644ZM23.2 96.34652Q23.2 94.81527 23.5125 93.893394Q23.825 92.955894 24.434376 92.455894Q25.059376 91.955894 25.996876 91.955894Q26.684376 91.955894 27.2 92.237144Q27.73125 92.518394 28.075 93.049644Q28.41875 93.56527 28.60625 94.31527Q28.79375 95.06527 28.79375 96.34652Q28.79375 97.862144 28.48125 98.78402Q28.184376 99.705894 27.559376 100.22152Q26.95 100.72152 25.996876 100.72152Q24.7625 100.72152 24.04375 99.830894Q23.2 98.768394 23.2 96.34652ZM24.278126 96.34652Q24.278126 98.455894 24.778126 99.15902Q25.278126 99.862144 25.996876 99.862144Q26.73125 99.862144 27.215626 99.15902Q27.715626 98.455894 27.715626 96.34652Q27.715626 94.22152 27.215626 93.53402Q26.73125 92.830894 25.98125 92.830894Q25.2625 92.830894 24.825 93.44027Q24.278126 94.22152 24.278126 96.34652ZM30.2 96.34652Q30.2 94.81527 30.5125 93.893394Q30.825 92.955894 31.434376 92.455894Q32.059376 91.955894 32.996876 91.955894Q33.684376 91.955894 34.2 92.237144Q34.73125 92.518394 35.075 93.049644Q35.41875 93.56527 35.60625 94.31527Q35.79375 95.06527 35.79375 96.34652Q35.79375 97.862144 35.48125 98.78402Q35.184376 99.705894 34.559376 100.22152Q33.95 100.72152 32.996876 100.72152Q31.7625 100.72152 31.04375 99.830894Q30.2 98.768394 30.2 96.34652ZM31.278126 96.34652Q31.278126 98.455894 31.778126 99.15902Q32.278126 99.862144 32.996876 99.862144Q33.73125 99.862144 34.215626 99.15902Q34.715626 98.455894 34.715626 96.34652Q34.715626 94.22152 34.215626 93.53402Q33.73125 92.830894 32.98125 92.830894Q32.2625 92.830894 31.825 93.44027Q31.278126 94.22152 31.278126 96.34652Z" fill-rule="nonzero"/><path fill="#000000" d="M16.2 58.916668L17.309376 58.822918Q17.434376 59.635418 17.871876 60.041668Q18.325 60.447918 18.965626 60.447918Q19.715626 60.447918 20.246876 59.869793Q20.778126 59.291668 20.778126 58.354168Q20.778126 57.447918 20.2625 56.932293Q19.7625 56.401043 18.934376 56.401043Q18.434376 56.401043 18.0125 56.635418Q17.60625 56.869793 17.371876 57.229168L16.3875 57.104168L17.215626 52.697918L21.496876 52.697918L21.496876 53.697918L18.059376 53.697918L17.60625 56.010418Q18.371876 55.463543 19.215626 55.463543Q20.340626 55.463543 21.10625 56.244793Q21.8875 57.026043 21.8875 58.260418Q21.8875 59.416668 21.215626 60.276043Q20.3875 61.307293 18.965626 61.307293Q17.79375 61.307293 17.04375 60.651043Q16.309376 59.994793 16.2 58.916668ZM23.2 56.932293Q23.2 55.401043 23.5125 54.479168Q23.825 53.541668 24.434376 53.041668Q25.059376 52.541668 25.996876 52.541668Q26.684376 52.541668 27.2 52.822918Q27.73125 53.104168 28.075 53.635418Q28.41875 54.151043 28.60625 54.901043Q28.79375 55.651043 28.79375 56.932293Q28.79375 58.447918 28.48125 59.369793Q28.184376 60.291668 27.559376 60.807293Q26.95 61.307293 25.996876 61.307293Q24.7625 61.307293 24.04375 60.416668Q23.2 59.354168 23.2 56.932293ZM24.278126 56.932293Q24.278126 59.041668 24.778126 59.744793Q25.278126 60.447918 25.996876 60.447918Q26.73125 60.447918 27.215626 59.744793Q27.715626 59.041668 27.715626 56.932293Q27.715626 54.807293 27.215626 54.119793Q26.73125 53.416668 25.98125 53.416668Q25.2625 53.416668 24.825 54.026043Q24.278126 54.807293 24.278126 56.932293ZM30.2 56.932293Q30.2 55.401043 30.5125 54.479168Q30.825 53.541668 31.434376 53.041668Q32.059376 52.541668 32.996876 52.541668Q33.684376 52.541668 34.2 52.822918Q34.73125 53.104168 35.075 53.635418Q35.41875 54.151043 35.60625 54.901043Q35.79375 55.651043 35.79375 56.932293Q35.79375 58.447918 35.48125 59.369793Q35.184376 60.291668 34.559376 60.807293Q33.95 61.307293 32.996876 61.307293Q31.7625 61.307293 31.04375 60.416668Q30.2 59.354168 30.2 56.932293ZM31.278126 56.932293Q31.278126 59.041668 31.778126 59.744793Q32.278126 60.447918 32.996876 60.447918Q33.73125 60.447918 34.215626 59.744793Q34.715626 59.041668 34.715626 56.932293Q34.715626 54.807293 34.215626 54.119793Q33.73125 53.416668 32.98125 53.416668Q32.2625 53.416668 31.825 54.026043Q31.278126 54.807293 31.278126 56.932293Z" fill-rule="nonzero"/><path fill="#000000" d="M54.22549 297.8611L54.733303 298.74066L49.807785 301.5844Q49.620285 301.25967 49.54885 300.88593Q49.44923 300.27588 49.57393 299.55438Q49.712162 298.82504 50.12981 297.73593Q50.76953 296.03146 50.853077 295.20743Q50.95015 294.37555 50.653275 293.86136Q50.340775 293.3201 49.73742 293.1813Q49.126255 293.02896 48.503796 293.38834Q47.840748 293.77115 47.674892 294.39014Q47.509037 295.00912 47.901756 295.72058L46.913383 296.16492Q46.39873 295.05475 46.708687 294.1541Q47.02436 293.23215 48.09336 292.61496Q49.16236 291.99777 50.128567 292.2338Q51.094772 292.4698 51.602585 293.34937Q51.860397 293.7959 51.920956 294.3383Q51.987232 294.85934 51.83547 295.59647Q51.689423 296.31226 51.191708 297.7002Q50.764713 298.86688 50.669582 299.2646Q50.58017 299.641 50.571945 299.9705L54.22549 297.8611ZM53.87456 294.34702Q53.108936 293.02094 52.91863 292.0663Q52.720512 291.09818 52.99825 290.36047Q53.289513 289.61496 54.101414 289.1462Q54.696804 288.80246 55.283974 288.7882Q55.884674 288.76614 56.447994 289.05435Q57.003506 289.329 57.540886 289.8848Q58.078266 290.44055 58.71889 291.55014Q59.476704 292.86273 59.667007 293.81735Q59.870842 294.76416 59.58739 295.5232Q59.309654 296.2609 58.484226 296.73746Q57.415226 297.35464 56.347458 296.94272Q55.0855 296.44443 53.87456 294.34702ZM54.808243 293.80795Q55.86293 295.63474 56.647507 295.99365Q57.43208 296.3526 58.05454 295.99323Q58.690525 295.62604 58.758442 294.7749Q58.839893 293.916 57.785206 292.0892Q56.722706 290.2489 55.945942 289.90353Q55.1749 289.53677 54.52538 289.91177Q53.902924 290.27115 53.828728 291.01764Q53.745743 291.96765 54.808243 293.80795ZM66.349846 290.8611L66.85766 291.74066L61.932137 294.5844Q61.744637 294.25967 61.673203 293.88593Q61.57358 293.27588 61.698284 292.55438Q61.836514 291.82504 62.25416 290.73593Q62.893887 289.03146 62.97743 288.20743Q63.074505 287.37555 62.77763 286.86136Q62.46513 286.3201 61.861774 286.1813Q61.250607 286.02896 60.62815 286.38834Q59.9651 286.77115 59.799244 287.39014Q59.63339 288.00912 60.026108 288.72058L59.037735 289.16492Q58.523083 288.05478 58.83304 287.1541Q59.148712 286.23215 60.217712 285.61496Q61.286713 284.99777 62.25292 285.2338Q63.219124 285.4698 63.726936 286.34937Q63.98475 286.7959 64.0453 287.3383Q64.11158 287.85934 63.95982 288.59647Q63.813778 289.31226 63.31606 290.7002Q62.88907 291.86688 62.793934 292.2646Q62.70452 292.641 62.6963 292.9705L66.349846 290.8611ZM72.412025 287.3611L72.91984 288.24066L67.994316 291.0844Q67.806816 290.75967 67.73538 290.38593Q67.63576 289.77588 67.76046 289.05438Q67.89869 288.32504 68.31634 287.23593Q68.95606 285.53146 69.039604 284.70743Q69.13668 283.87555 68.839806 283.36136Q68.527306 282.8201 67.92395 282.6813Q67.31278 282.52896 66.69033 282.88834Q66.027275 283.27115 65.86142 283.89014Q65.695564 284.50912 66.08829 285.22058L65.099915 285.66492Q64.58526 284.55478 64.89522 283.6541Q65.21089 282.73215 66.27989 282.11496Q67.34889 281.49777 68.315094 281.7338Q69.2813 281.9698 69.789116 282.84937Q70.04693 283.2959 70.10748 283.8383Q70.17376 284.35934 70.021996 285.09647Q69.87595 285.81226 69.378235 287.2002Q68.95125 288.36688 68.85611 288.7646Q68.7667 289.141 68.75848 289.4705L72.412025 287.3611ZM72.78096 285.34387L72.24971 284.42374L75.06429 282.79874L75.59554 283.71887L72.78096 285.34387ZM81.079414 283.52972L80.1728 284.05316L76.81342 278.23456Q76.654816 278.7411 76.301056 279.37836Q75.953 279.9943 75.61946 280.3853L75.11165 279.50577Q75.658485 278.7029 75.93775 277.8741Q76.22274 277.02396 76.18506 276.3962L76.766914 276.06027L81.079414 283.52972ZM88.00048 278.3611L88.50829 279.24066L83.58277 282.0844Q83.39527 281.75967 83.32384 281.38593Q83.22422 280.77588 83.348915 280.05438Q83.48715 279.32504 83.9048 278.23593Q84.54452 276.53146 84.62807 275.70743Q84.725136 274.87555 84.42826 274.36136Q84.11576 273.8201 83.512405 273.6813Q82.90124 273.52896 82.278786 273.88834Q81.61574 274.27115 81.44988 274.89014Q81.28403 275.50912 81.67674 276.22058L80.68837 276.66492Q80.17371 275.55478 80.48367 274.6541Q80.79935 273.73215 81.86835 273.11496Q82.93735 272.49777 83.90356 272.7338Q84.86976 272.9698 85.37757 273.84937Q85.63538 274.2959 85.69594 274.8383Q85.762215 275.35934 85.61046 276.09647Q85.46441 276.81226 84.9667 278.2002Q84.5397 279.36688 84.44457 279.7646Q84.355156 280.141 84.34693 280.4705L88.00048 278.3611ZM88.369415 276.34387L87.838165 275.42374L90.65275 273.79874L91.184 274.71887L88.369415 276.34387ZM91.11365 272.84705Q90.34802 271.52094 90.15772 270.5663Q89.9596 269.59818 90.237335 268.86047Q90.5286 268.11496 91.3405 267.6462Q91.93589 267.30246 92.52306 267.2882Q93.123764 267.26614 93.68709 267.55435Q94.24259 267.829 94.779976 268.3848Q95.31735 268.94055 95.95798 270.05017Q96.71579 271.36273 96.9061 272.31735Q97.10993 273.26416 96.82648 274.0232Q96.548744 274.7609 95.72331 275.23746Q94.65431 275.85464 93.58655 275.44272Q92.324585 274.94443 91.11365 272.84705ZM92.04733 272.30798Q93.10202 274.13474 93.8866 274.49365Q94.67117 274.8526 95.293625 274.49323Q95.92961 274.12604 95.997536 273.2749Q96.07898 272.416 95.02429 270.58923Q93.96179 268.7489 93.185036 268.40353Q92.41399 268.03677 91.76447 268.41177Q91.14201 268.77115 91.06782 269.51764Q90.98483 270.46765 92.04733 272.30798ZM102.21585 271.3266L101.1846 269.54044L97.964066 271.3998L97.47969 270.56085L98.09489 263.78265L98.83913 263.35297L101.62038 268.17023L102.62172 267.5921L103.106094 268.43106L102.10475 269.0092L103.136 270.79535L102.21585 271.3266ZM100.700226 268.70148L98.77054 265.35916L98.37278 270.04523L100.700226 268.70148Z" fill-rule="nonzero"/><path fill="#000000" d="M180.59883 297.8611L181.10664 298.74066L176.18112 301.5844Q175.99362 301.25967 175.92218 300.88593Q175.82257 300.27588 175.94727 299.55438Q176.0855 298.82504 176.50314 297.73593Q177.14287 296.03146 177.22641 295.20743Q177.32349 294.37555 177.02661 293.86136Q176.71411 293.3201 176.11075 293.1813Q175.49959 293.02896 174.87714 293.38834Q174.21408 293.77115 174.04822 294.39014Q173.88237 295.00912 174.27509 295.72058L173.28671 296.16492Q172.77206 295.05475 173.08202 294.1541Q173.39769 293.23215 174.46669 292.61496Q175.53569 291.99777 176.50189 292.2338Q177.46811 292.4698 177.97592 293.34937Q178.23373 293.7959 178.29428 294.3383Q178.36057 294.85934 178.2088 295.59647Q178.06276 296.31226 177.56505 297.7002Q177.13805 298.86688 177.04292 299.2646Q176.9535 299.641 176.94528 299.9705L180.59883 297.8611ZM180.2479 294.34702Q179.48227 293.02094 179.29196 292.0663Q179.09384 291.09818 179.37158 290.36047Q179.66284 289.61496 180.47475 289.1462Q181.07014 288.80246 181.6573 288.7882Q182.25801 288.76614 182.82133 289.05435Q183.37683 289.329 183.91422 289.8848Q184.4516 290.44055 185.09222 291.55014Q185.85004 292.86273 186.04034 293.81735Q186.24417 294.76416 185.96072 295.5232Q185.68298 296.2609 184.85756 296.73746Q183.78856 297.35464 182.7208 296.94272Q181.45883 296.44443 180.2479 294.34702ZM181.18158 293.80795Q182.23627 295.63474 183.02084 295.99365Q183.80542 296.3526 184.42787 295.99323Q185.06386 295.62604 185.13177 294.7749Q185.21323 293.916 184.15854 292.0892Q183.09604 290.2489 182.31927 289.90353Q181.54823 289.53677 180.89871 289.91177Q180.27626 290.27115 180.20206 291.01764Q180.11908 291.96765 181.18158 293.80795ZM192.72318 290.8611L193.23099 291.74066L188.30547 294.5844Q188.11797 294.25967 188.04654 293.88593Q187.94691 293.27588 188.07162 292.55438Q188.20985 291.82504 188.6275 290.73593Q189.26723 289.03146 189.35077 288.20743Q189.44785 287.37555 189.15097 286.86136Q188.83847 286.3201 188.2351 286.1813Q187.62395 286.02896 187.00148 286.38834Q186.33844 286.77115 186.17258 287.39014Q186.00673 288.00912 186.39944 288.72058L185.41107 289.16492Q184.89642 288.05475 185.20638 287.1541Q185.52205 286.23215 186.59105 285.61496Q187.66005 284.99777 188.62625 285.2338Q189.59247 285.4698 190.10028 286.34937Q190.3581 286.7959 190.41864 287.3383Q190.48492 287.85934 190.33316 288.59647Q190.18712 289.31226 189.68939 290.7002Q189.2624 291.86688 189.16727 292.2646Q189.07787 292.641 189.06964 292.9705L192.72318 290.8611ZM198.78535 287.3611L199.29317 288.24066L194.36765 291.0844Q194.18015 290.75967 194.10872 290.38593Q194.0091 289.77588 194.13379 289.05438Q194.27203 288.32504 194.68968 287.23593Q195.32939 285.53146 195.41295 284.70743Q195.51003 283.87555 195.21315 283.36136Q194.90065 282.8201 194.29729 282.6813Q193.68613 282.52896 193.06366 282.88834Q192.40062 283.27115 192.23476 283.89014Q192.06891 284.50912 192.46162 285.22058L191.47325 285.66492Q190.9586 284.55475 191.26855 283.6541Q191.58423 282.73215 192.65323 282.11496Q193.72223 281.49777 194.68843 281.7338Q195.65463 281.9698 196.16245 282.84937Q196.42026 283.2959 196.48082 283.8383Q196.5471 284.35934 196.39534 285.09647Q196.2493 285.81226 195.75157 287.2002Q195.32458 288.36688 195.22945 288.7646Q195.14003 289.141 195.13182 289.4705L198.78535 287.3611ZM199.1543 285.34387L198.62305 284.42374L201.43764 282.79874L201.96889 283.71887L199.1543 285.34387ZM207.45276 283.52972L206.54613 284.05316L203.18675 278.23456Q203.02815 278.7411 202.6744 279.37836Q202.32634 279.99426 201.9928 280.3853L201.48499 279.50577Q202.03181 278.7029 202.31108 277.8741Q202.59607 277.02396 202.5584 276.3962L203.14026 276.06027L207.45276 283.52972ZM214.37381 278.3611L214.88162 279.24066L209.95612 282.0844Q209.76862 281.75967 209.69717 281.38593Q209.59755 280.77588 209.72226 280.05438Q209.86049 279.32504 210.27814 278.23593Q210.91786 276.53146 211.0014 275.70743Q211.09848 274.87555 210.8016 274.36136Q210.4891 273.8201 209.88574 273.6813Q209.27458 273.52896 208.65211 273.88834Q207.98907 274.27115 207.82321 274.89014Q207.65736 275.50912 208.05008 276.22058L207.0617 276.66492Q206.54706 275.55475 206.85701 274.6541Q207.17268 273.73215 208.24168 273.11496Q209.31068 272.49777 210.27689 272.7338Q211.2431 272.9698 211.75092 273.84937Q212.00873 274.2959 212.06927 274.8383Q212.13556 275.35934 211.9838 276.09647Q211.83775 276.81226 211.34003 278.2002Q210.91304 279.36688 210.8179 279.7646Q210.7285 280.141 210.72028 280.4705L214.37381 278.3611ZM214.74275 276.34387L214.2115 275.42374L217.0261 273.79874L217.55734 274.71887L214.74275 276.34387ZM223.04121 274.52972L222.1346 275.05316L218.77522 269.23456Q218.61661 269.7411 218.26285 270.37836Q217.9148 270.99426 217.58125 271.3853L217.07344 270.50577Q217.62029 269.7029 217.89955 268.8741Q218.18452 268.02396 218.14685 267.3962L218.72871 267.06027L223.04121 274.52972ZM229.1034 271.02972L228.19676 271.55316L224.83739 265.73456Q224.67879 266.2411 224.32503 266.87836Q223.97697 267.49426 223.64343 267.8853L223.13562 267.00577Q223.68245 266.2029 223.96172 265.3741Q224.2467 264.52396 224.20903 263.8962L224.7909 263.56027L229.1034 271.02972Z" fill-rule="nonzero"/><path fill="#000000" d="M306.97214 297.8611L307.47995 298.74066L302.55444 301.5844Q302.36694 301.25967 302.2955 300.88593Q302.1959 300.27588 302.3206 299.55438Q302.45883 298.82504 302.87646 297.73593Q303.51617 296.03146 303.59973 295.20743Q303.6968 294.37555 303.39993 293.86136Q303.08743 293.3201 302.48407 293.1813Q301.8729 293.029 301.25046 293.38837Q300.5874 293.77118 300.42154 294.39014Q300.2557 295.00912 300.6484 295.72058L299.66003 296.16492Q299.1454 295.05478 299.45535 294.1541Q299.77103 293.23215 300.84003 292.61496Q301.90903 291.99777 302.8752 292.2338Q303.84143 292.46982 304.34924 293.34937Q304.60706 293.7959 304.6676 294.3383Q304.7339 294.85934 304.58212 295.59647Q304.43607 296.31226 303.93835 297.7002Q303.51138 298.86688 303.41623 299.26462Q303.3268 299.641 303.3186 299.9705L306.97214 297.8611ZM306.62122 294.34705Q305.8556 293.02094 305.66528 292.0663Q305.46716 291.09818 305.7449 290.36047Q306.03616 289.61496 306.84805 289.1462Q307.44345 288.80246 308.03064 288.7882Q308.63132 288.76614 309.19464 289.05435Q309.75015 289.32904 310.28754 289.8848Q310.82492 290.44055 311.46555 291.55017Q312.22336 292.86273 312.41367 293.81735Q312.6175 294.76416 312.33405 295.5232Q312.0563 296.2609 311.23087 296.73746Q310.1619 297.35464 309.09412 296.94272Q307.83215 296.44443 306.62122 294.34705ZM307.5549 293.80798Q308.6096 295.63474 309.39417 295.99368Q310.17874 296.3526 310.80118 295.99323Q311.4372 295.62604 311.5051 294.77493Q311.58655 293.916 310.53186 292.08923Q309.46936 290.24893 308.6926 289.90353Q307.92157 289.5368 307.27203 289.9118Q306.64957 290.27118 306.57538 291.01764Q306.4924 291.96768 307.5549 293.80798ZM319.0965 290.8611L319.6043 291.74066L314.6788 294.5844Q314.4913 294.25967 314.41986 293.88593Q314.32025 293.27588 314.44495 292.55438Q314.58316 291.82504 315.00082 290.73593Q315.64053 289.03146 315.7241 288.20743Q315.82117 287.37555 315.5243 286.86136Q315.2118 286.3201 314.60843 286.1813Q313.99725 286.029 313.37482 286.38837Q312.71176 286.77118 312.5459 287.39014Q312.38004 288.00912 312.77277 288.72058L311.7844 289.16492Q311.26974 288.05478 311.5797 287.1541Q311.8954 286.23215 312.9644 285.61496Q314.0334 284.99777 314.99957 285.2338Q315.9658 285.46982 316.4736 286.34937Q316.7314 286.7959 316.79196 287.3383Q316.85825 287.85934 316.70648 288.59647Q316.56042 289.31226 316.0627 290.7002Q315.6357 291.86688 315.5406 292.26462Q315.45117 292.641 315.44296 292.9705L319.0965 290.8611ZM325.1587 287.3611L325.6665 288.24066L320.74097 291.0844Q320.55347 290.75967 320.48203 290.38593Q320.38242 289.77588 320.5071 289.05438Q320.64536 288.32504 321.063 287.23593Q321.70273 285.53146 321.78625 284.70743Q321.88333 283.87555 321.58646 283.36136Q321.27396 282.8201 320.67062 282.6813Q320.05945 282.529 319.43698 282.88837Q318.77393 283.27118 318.6081 283.89014Q318.44223 284.50912 318.83493 285.22058L317.8466 285.66492Q317.3319 284.55478 317.64188 283.6541Q317.95755 282.73215 319.02655 282.11496Q320.09555 281.49777 321.06177 281.7338Q322.02795 281.96982 322.53577 282.84937Q322.79358 283.2959 322.85416 283.8383Q322.9204 284.35934 322.76865 285.09647Q322.62262 285.81226 322.1249 287.2002Q321.6979 288.36688 321.60278 288.76462Q321.51337 289.141 321.50513 289.4705L325.1587 287.3611ZM325.52762 285.3439L324.99637 284.42374L327.81094 282.79874L328.3422 283.7189L325.52762 285.3439ZM333.82608 283.52972L332.91946 284.05316L329.5601 278.23456Q329.4015 278.74112 329.0477 279.37836Q328.69968 279.9943 328.36612 280.3853L327.8583 279.50577Q328.40515 278.7029 328.68442 277.8741Q328.9694 277.02396 328.9317 276.3962L329.51358 276.06027L333.82608 283.52972ZM340.74713 278.3611L341.25494 279.24066L336.32944 282.0844Q336.14194 281.75967 336.0705 281.38593Q335.9709 280.77588 336.09558 280.05438Q336.2338 279.32504 336.65146 278.23593Q337.29117 276.53146 337.37473 275.70743Q337.4718 274.87555 337.17493 274.36136Q336.86243 273.8201 336.25906 273.6813Q335.6479 273.529 335.02545 273.88837Q334.3624 274.27118 334.19653 274.89014Q334.03067 275.50912 334.4234 276.22058L333.43503 276.66492Q332.92038 275.55478 333.23035 274.6541Q333.54602 273.73215 334.61502 273.11496Q335.68402 272.49777 336.6502 272.7338Q337.61642 272.96982 338.12424 273.84937Q338.38205 274.2959 338.4426 274.8383Q338.50888 275.35934 338.35712 276.09647Q338.21106 276.81226 337.71335 278.2002Q337.28638 279.36688 337.19122 279.76462Q337.1018 280.141 337.0936 280.4705L340.74713 278.3611ZM341.1161 276.3439L340.58484 275.42374L343.3994 273.79874L343.93066 274.7189L341.1161 276.3439ZM349.41452 274.52972L348.5079 275.05316L345.14853 269.23456Q344.98993 269.74112 344.63617 270.37836Q344.28812 270.9943 343.9546 271.3853L343.44678 270.50577Q343.9936 269.7029 344.27286 268.8741Q344.55786 268.02396 344.52017 267.3962L345.10202 267.06027L349.41452 274.52972ZM351.11884 268.1692Q350.4255 268.2808 349.9226 268.06598Q349.4254 267.8298 349.12073 267.30206Q348.65198 266.49017 348.9135 265.59943Q349.1886 264.7009 350.14935 264.1462Q351.12363 263.5837 352.04712 263.8083Q352.97064 264.03287 353.4394 264.84476Q353.73627 265.35898 353.6844 265.8941Q353.6325 266.42923 353.20273 266.96606Q354.01782 266.78412 354.65872 267.08167Q355.2996 267.3792 355.69803 268.06934Q356.2449 269.01654 355.94333 270.0567Q355.65527 271.08902 354.5457 271.72964Q353.44962 272.36246 352.39804 272.10358Q351.34647 271.84467 350.78397 270.8704Q350.3621 270.13968 350.4462 269.44162Q350.54382 268.73572 351.11884 268.1692ZM350.03094 266.7224Q350.33563 267.25015 350.86926 267.39313Q351.41638 267.5283 351.95764 267.2158Q352.48538 266.9111 352.63617 266.39105Q352.77914 265.85742 352.4979 265.3703Q352.20883 264.86963 351.6617 264.73447Q351.10675 264.58575 350.59256 264.88263Q350.06482 265.18732 349.90833 265.72873Q349.76532 266.26233 350.03094 266.7224ZM351.73117 270.32352Q351.95773 270.71594 352.34457 270.97974Q352.74496 271.23572 353.2275 271.22775Q353.71005 271.2198 354.12952 270.9776Q354.77905 270.6026 354.95633 269.94092Q355.14716 269.27145 354.77216 268.62192Q354.38934 267.95886 353.70633 267.77585Q353.02332 267.59283 352.3603 267.97565Q351.71075 268.35065 351.5413 269.02585Q351.36398 269.68753 351.73117 270.32352Z" fill-rule="nonzero"/><path fill="#000000" d="M433.3455 297.8611L433.8533 298.74066L428.9278 301.5844Q428.7403 301.25964 428.66885 300.88593Q428.56924 300.27588 428.69394 299.55438Q428.83215 298.82504 429.24982 297.73593Q429.88953 296.03146 429.97308 295.20743Q430.07016 294.37555 429.7733 293.86136Q429.4608 293.3201 428.85742 293.1813Q428.24625 293.02896 427.6238 293.38834Q426.96075 293.77115 426.7949 294.39014Q426.62903 295.00912 427.02176 295.72058L426.0334 296.16492Q425.51874 295.05475 425.8287 294.1541Q426.14438 293.23215 427.21338 292.61496Q428.28238 291.99777 429.24857 292.23376Q430.21478 292.4698 430.7226 293.34937Q430.9804 293.7959 431.04095 294.3383Q431.10724 294.8593 430.95547 295.59647Q430.80942 296.31226 430.3117 297.7002Q429.88474 298.86688 429.78958 299.2646Q429.70016 299.641 429.69196 299.9705L433.3455 297.8611ZM432.99457 294.34702Q432.22894 293.02094 432.03864 292.0663Q431.8405 291.09814 432.11826 290.36047Q432.40952 289.61496 433.2214 289.1462Q433.8168 288.80246 434.404 288.7882Q435.00467 288.76614 435.568 289.05435Q436.1235 289.329 436.6609 289.8848Q437.19827 290.44055 437.8389 291.55014Q438.5967 292.86273 438.78702 293.81735Q438.99084 294.76413 438.7074 295.5232Q438.42966 296.2609 437.60422 296.73746Q436.53522 297.35464 435.46747 296.94272Q434.2055 296.44443 432.99457 294.34702ZM433.92825 293.80795Q434.98294 295.63474 435.76752 295.99365Q436.5521 296.3526 437.17453 295.99323Q437.81052 295.62604 437.87845 294.7749Q437.9599 293.916 436.9052 292.0892Q435.8427 290.2489 435.06595 289.9035Q434.2949 289.53677 433.6454 289.91177Q433.02292 290.27115 432.94873 291.01764Q432.86575 291.96765 433.92825 293.80795ZM445.46985 290.8611L445.97766 291.74066L441.05215 294.5844Q440.86465 294.25964 440.7932 293.88593Q440.6936 293.27588 440.8183 292.55438Q440.9565 291.82504 441.37418 290.73593Q442.0139 289.03146 442.09744 288.20743Q442.19452 287.37555 441.89764 286.86136Q441.58514 286.3201 440.98178 286.1813Q440.3706 286.02896 439.74817 286.38834Q439.0851 286.77115 438.91925 287.39014Q438.7534 288.00912 439.14612 288.72058L438.15775 289.16492Q437.6431 288.05475 437.95303 287.1541Q438.2687 286.23215 439.3377 285.61496Q440.4067 284.99777 441.37292 285.23376Q442.33914 285.4698 442.84695 286.34937Q443.10477 286.7959 443.1653 287.3383Q443.2316 287.8593 443.07983 288.59647Q442.93378 289.31226 442.43607 290.7002Q442.00906 291.86688 441.91394 292.2646Q441.82452 292.641 441.8163 292.9705L445.46985 290.8611ZM451.53204 287.3611L452.03986 288.24066L447.11432 291.0844Q446.92682 290.75964 446.85538 290.38593Q446.75577 289.77588 446.88046 289.05438Q447.0187 288.32504 447.43634 287.23593Q448.07608 285.53146 448.1596 284.70743Q448.25668 283.87555 447.9598 283.36136Q447.6473 282.8201 447.04395 282.6813Q446.4328 282.52896 445.81033 282.88834Q445.14728 283.27115 444.98145 283.89014Q444.81558 284.50912 445.20828 285.22058L444.2199 285.66492Q443.70526 284.55475 444.01523 283.6541Q444.3309 282.73215 445.3999 282.11496Q446.4689 281.49777 447.43512 281.73376Q448.4013 281.9698 448.90912 282.84937Q449.16693 283.2959 449.2275 283.8383Q449.29376 284.3593 449.142 285.09647Q448.99597 285.81226 448.49826 287.2002Q448.07126 288.36688 447.97614 288.7646Q447.88672 289.141 447.87848 289.4705L451.53204 287.3611ZM451.90097 285.34387L451.36972 284.42374L454.1843 282.79874L454.71555 283.71887L451.90097 285.34387ZM460.19943 283.52972L459.29282 284.05316L455.93344 278.23456Q455.77484 278.7411 455.42105 279.37836Q455.07303 279.99426 454.73947 280.3853L454.23166 279.50574Q454.7785 278.7029 455.05777 277.8741Q455.34274 277.02396 455.30505 276.3962L455.88693 276.06027L460.19943 283.52972ZM467.12048 278.3611L467.6283 279.24066L462.7028 282.0844Q462.5153 281.75964 462.44385 281.38593Q462.34424 280.77588 462.46893 280.05438Q462.60715 279.32504 463.0248 278.23593Q463.66452 276.53146 463.74808 275.70743Q463.84515 274.87555 463.54828 274.36136Q463.23578 273.8201 462.63242 273.6813Q462.02124 273.52896 461.3988 273.88834Q460.73575 274.27115 460.5699 274.89014Q460.40402 275.50912 460.79675 276.22058L459.80838 276.66492Q459.29373 275.55475 459.60367 274.6541Q459.91934 273.73215 460.98834 273.11496Q462.05734 272.49777 463.02356 272.73376Q463.98978 272.9698 464.4976 273.84937Q464.7554 274.2959 464.81595 274.8383Q464.88223 275.3593 464.73047 276.09647Q464.5844 276.81226 464.0867 278.2002Q463.6597 279.36688 463.56458 279.7646Q463.47516 280.141 463.46695 280.4705L467.12048 278.3611ZM467.48944 276.34387L466.9582 275.42374L469.77277 273.79874L470.30402 274.71887L467.48944 276.34387ZM476.64676 272.8611L477.15457 273.74066L472.22906 276.5844Q472.04156 276.25964 471.97012 275.88593Q471.8705 275.27588 471.9952 274.55438Q472.13342 273.82504 472.5511 272.73593Q473.1908 271.03146 473.27435 270.20743Q473.37143 269.37555 473.07455 268.86136Q472.76205 268.3201 472.1587 268.1813Q471.54752 268.02896 470.92508 268.38834Q470.26202 268.77115 470.09616 269.39014Q469.9303 270.00912 470.32303 270.72058L469.33466 271.16492Q468.82 270.05475 469.12997 269.1541Q469.44565 268.23215 470.51465 267.61496Q471.58365 266.99777 472.54984 267.23376Q473.51605 267.4698 474.02386 268.34937Q474.28168 268.7959 474.34222 269.3383Q474.4085 269.8593 474.25674 270.59647Q474.1107 271.31226 473.61298 272.7002Q473.186 273.86688 473.09085 274.2646Q473.00143 274.641 472.99323 274.9705L476.64676 272.8611ZM477.28802 271.06555L478.2019 270.42966Q478.7164 271.0708 479.2984 271.2039Q479.89395 271.32916 480.44876 271.00885Q481.09827 270.63385 481.2693 269.86755Q481.4403 269.10126 480.97156 268.28934Q480.51843 267.50452 479.81406 267.31577Q479.11542 267.1057 478.39825 267.51978Q477.96524 267.76978 477.71707 268.1837Q477.48242 268.58978 477.45914 269.0182L476.54416 269.40213L475.0582 265.17215L478.76587 263.03152L479.26587 263.89755L476.2889 265.6163L477.05273 267.84552Q477.44235 266.9891 478.17307 266.56723Q479.14734 266.00473 480.20102 266.29852Q481.26822 266.58447 481.8854 267.65347Q482.46353 268.65482 482.31137 269.735Q482.1098 271.04214 480.87845 271.75308Q479.86356 272.33902 478.88593 272.1457Q477.9218 271.94455 477.28802 271.06555Z" fill-rule="nonzero"/><path fill="#757575" d="M87.546875 34.7L87.546875 20.3875L92.46875 20.3875Q94.140625 20.3875 95.03125 20.590626Q96.25 20.871876 97.125 21.60625Q98.25 22.575 98.8125 24.059376Q99.375 25.54375 99.375 27.465626Q99.375 29.090626 99.0 30.35625Q98.625 31.60625 98.015625 32.434376Q97.421875 33.2625 96.71875 33.746876Q96.015625 34.215626 95.015625 34.465626Q94.015625 34.7 92.703125 34.7L87.546875 34.7ZM89.4375 33.0125L92.5 33.0125Q93.90625 33.0125 94.703125 32.746876Q95.515625 32.48125 96.0 31.996876Q96.671875 31.325 97.046875 30.2Q97.421875 29.059376 97.421875 27.434376Q97.421875 25.184376 96.6875 23.98125Q95.953125 22.778126 94.890625 22.371876Q94.140625 22.075 92.453125 22.075L89.4375 22.075L89.4375 33.0125ZM108.09375 33.41875Q107.109375 34.246876 106.203125 34.590626Q105.296875 34.934376 104.265625 34.934376Q102.5625 34.934376 101.640625 34.10625Q100.71875 33.2625 100.71875 31.965626Q100.71875 31.2 101.0625 30.575Q101.421875 29.95 101.984375 29.575Q102.546875 29.184376 103.25 28.98125Q103.765625 28.85625 104.8125 28.715626Q106.9375 28.465626 107.9375 28.121876Q107.953125 27.7625 107.953125 27.653126Q107.953125 26.590626 107.453125 26.1375Q106.78125 25.54375 105.453125 25.54375Q104.203125 25.54375 103.609375 25.98125Q103.03125 26.41875 102.75 27.528126L101.03125 27.29375Q101.265625 26.184376 101.796875 25.5125Q102.328125 24.825 103.34375 24.465626Q104.359375 24.090626 105.703125 24.090626Q107.03125 24.090626 107.859375 24.403126Q108.6875 24.715626 109.078125 25.2Q109.46875 25.66875 109.625 26.3875Q109.71875 26.840626 109.71875 28.0125L109.71875 30.35625Q109.71875 32.809376 109.828125 33.465626Q109.9375 34.10625 110.28125 34.7L108.4375 34.7Q108.171875 34.153126 108.09375 33.41875ZM107.9375 29.496876Q106.984375 29.8875 105.0625 30.153126Q103.984375 30.309376 103.53125 30.5125Q103.09375 30.7 102.84375 31.075Q102.59375 31.45 102.59375 31.91875Q102.59375 32.621876 103.125 33.090626Q103.65625 33.559376 104.6875 33.559376Q105.703125 33.559376 106.484375 33.121876Q107.28125 32.66875 107.65625 31.903126Q107.9375 31.29375 107.9375 30.1375L107.9375 29.496876ZM112.328125 22.403126L112.328125 20.3875L114.09375 20.3875L114.09375 22.403126L112.328125 22.403126ZM112.328125 34.7L112.328125 24.325L114.09375 24.325L114.09375 34.7L112.328125 34.7ZM116.28125 34.7L116.28125 20.3875L118.03125 20.3875L118.03125 34.7L116.28125 34.7ZM120.234375 38.7L120.046875 37.04375Q120.625 37.2 121.046875 37.2Q121.640625 37.2 121.984375 36.996876Q122.34375 36.809376 122.5625 36.465626Q122.734375 36.2 123.109375 35.153126Q123.15625 34.996876 123.265625 34.715626L119.328125 24.325L121.21875 24.325L123.375 30.340626Q123.796875 31.48125 124.125 32.73125Q124.4375 31.528126 124.84375 30.371876L127.0625 24.325L128.82812 24.325L124.875 34.871876Q124.25 36.590626 123.890625 37.23125Q123.421875 38.10625 122.8125 38.496876Q122.21875 38.903126 121.375 38.903126Q120.859375 38.903126 120.234375 38.7ZM135.90625 30.10625L137.6875 29.95Q137.8125 31.0125 138.26562 31.7Q138.73438 32.3875 139.70312 32.825Q140.6875 33.246876 141.92188 33.246876Q143.0 33.246876 143.82812 32.934376Q144.65625 32.60625 145.0625 32.04375Q145.46875 31.48125 145.46875 30.809376Q145.46875 30.1375 145.07812 29.6375Q144.6875 29.1375 143.79688 28.79375Q143.21875 28.559376 141.23438 28.090626Q139.26562 27.621876 138.48438 27.2Q137.45312 26.66875 136.95312 25.871876Q136.45312 25.075 136.45312 24.090626Q136.45312 22.996876 137.0625 22.059376Q137.67188 21.121876 138.85938 20.6375Q140.04688 20.1375 141.48438 20.1375Q143.07812 20.1375 144.29688 20.653126Q145.51562 21.16875 146.15625 22.16875Q146.8125 23.153126 146.85938 24.41875L145.04688 24.559376Q144.90625 23.2 144.0625 22.5125Q143.21875 21.809376 141.5625 21.809376Q139.84375 21.809376 139.04688 22.45Q138.26562 23.075 138.26562 23.95Q138.26562 24.73125 138.82812 25.23125Q139.375 25.73125 141.6875 26.246876Q144.0 26.7625 144.85938 27.153126Q146.10938 27.73125 146.70312 28.621876Q147.29688 29.496876 147.29688 30.653126Q147.29688 31.79375 146.64062 32.809376Q145.98438 33.825 144.75 34.3875Q143.53125 34.95 142.0 34.95Q140.0625 34.95 138.75 34.3875Q137.4375 33.809376 136.6875 32.66875Q135.9375 31.528126 135.90625 30.10625ZM156.09375 30.903126L157.8125 31.121876Q157.53125 32.91875 156.35938 33.934376Q155.20312 34.934376 153.5 34.934376Q151.375 34.934376 150.07812 33.54375Q148.78125 32.153126 148.78125 29.559376Q148.78125 27.871876 149.32812 26.621876Q149.89062 25.35625 151.03125 24.73125Q152.17188 24.090626 153.51562 24.090626Q155.20312 24.090626 156.26562 24.95Q157.34375 25.809376 157.65625 27.371876L155.9375 27.6375Q155.70312 26.590626 155.07812 26.075Q154.45312 25.54375 153.57812 25.54375Q152.25 25.54375 151.42188 26.496876Q150.59375 27.45 150.59375 29.496876Q150.59375 31.590626 151.39062 32.54375Q152.1875 33.48125 153.48438 33.48125Q154.51562 33.48125 155.20312 32.85625Q155.90625 32.215626 156.09375 30.903126ZM166.09375 33.41875Q165.10938 34.246876 164.20312 34.590626Q163.29688 34.934376 162.26562 34.934376Q160.5625 34.934376 159.64062 34.10625Q158.71875 33.2625 158.71875 31.965626Q158.71875 31.2 159.0625 30.575Q159.42188 29.95 159.98438 29.575Q160.54688 29.184376 161.25 28.98125Q161.76562 28.85625 162.8125 28.715626Q164.9375 28.465626 165.9375 28.121876Q165.95312 27.7625 165.95312 27.653126Q165.95312 26.590626 165.45312 26.1375Q164.78125 25.54375 163.45312 25.54375Q162.20312 25.54375 161.60938 25.98125Q161.03125 26.41875 160.75 27.528126L159.03125 27.29375Q159.26562 26.184376 159.79688 25.5125Q160.32812 24.825 161.34375 24.465626Q162.35938 24.090626 163.70312 24.090626Q165.03125 24.090626 165.85938 24.403126Q166.6875 24.715626 167.07812 25.2Q167.46875 25.66875 167.625 26.3875Q167.71875 26.840626 167.71875 28.0125L167.71875 30.35625Q167.71875 32.809376 167.82812 33.465626Q167.9375 34.10625 168.28125 34.7L166.4375 34.7Q166.17188 34.153126 166.09375 33.41875ZM165.9375 29.496876Q164.98438 29.8875 163.0625 30.153126Q161.98438 30.309376 161.53125 30.5125Q161.09375 30.7 160.84375 31.075Q160.59375 31.45 160.59375 31.91875Q160.59375 32.621876 161.125 33.090626Q161.65625 33.559376 162.6875 33.559376Q163.70312 33.559376 164.48438 33.121876Q165.28125 32.66875 165.65625 31.903126Q165.9375 31.29375 165.9375 30.1375L165.9375 29.496876ZM170.28125 34.7L170.28125 20.3875L172.03125 20.3875L172.03125 34.7L170.28125 34.7ZM181.09375 33.41875Q180.10938 34.246876 179.20312 34.590626Q178.29688 34.934376 177.26562 34.934376Q175.5625 34.934376 174.64062 34.10625Q173.71875 33.2625 173.71875 31.965626Q173.71875 31.2 174.0625 30.575Q174.42188 29.95 174.98438 29.575Q175.54688 29.184376 176.25 28.98125Q176.76562 28.85625 177.8125 28.715626Q179.9375 28.465626 180.9375 28.121876Q180.95312 27.7625 180.95312 27.653126Q180.95312 26.590626 180.45312 26.1375Q179.78125 25.54375 178.45312 25.54375Q177.20312 25.54375 176.60938 25.98125Q176.03125 26.41875 175.75 27.528126L174.03125 27.29375Q174.26562 26.184376 174.79688 25.5125Q175.32812 24.825 176.34375 24.465626Q177.35938 24.090626 178.70312 24.090626Q180.03125 24.090626 180.85938 24.403126Q181.6875 24.715626 182.07812 25.2Q182.46875 25.66875 182.625 26.3875Q182.71875 26.840626 182.71875 28.0125L182.71875 30.35625Q182.71875 32.809376 182.82812 33.465626Q182.9375 34.10625 183.28125 34.7L181.4375 34.7Q181.17188 34.153126 181.09375 33.41875ZM180.9375 29.496876Q179.98438 29.8875 178.0625 30.153126Q176.98438 30.309376 176.53125 30.5125Q176.09375 30.7 175.84375 31.075Q175.59375 31.45 175.59375 31.91875Q175.59375 32.621876 176.125 33.090626Q176.65625 33.559376 177.6875 33.559376Q178.70312 33.559376 179.48438 33.121876Q180.28125 32.66875 180.65625 31.903126Q180.9375 31.29375 180.9375 30.1375L180.9375 29.496876ZM189.96875 34.7L195.46875 20.3875L197.51562 20.3875L203.375 34.7L201.21875 34.7L199.54688 30.35625L193.5625 30.35625L191.98438 34.7L189.96875 34.7ZM194.10938 28.825L198.95312 28.825L197.46875 24.85625Q196.78125 23.04375 196.45312 21.8875Q196.17188 23.2625 195.67188 24.621876L194.10938 28.825ZM211.04688 34.7L211.04688 33.3875Q210.0625 34.934376 208.14062 34.934376Q206.90625 34.934376 205.85938 34.246876Q204.82812 33.559376 204.25 32.340626Q203.6875 31.121876 203.6875 29.528126Q203.6875 27.965626 204.20312 26.7Q204.71875 25.434376 205.75 24.7625Q206.79688 24.090626 208.0625 24.090626Q209.0 24.090626 209.73438 24.496876Q210.46875 24.8875 210.9375 25.5125L210.9375 20.3875L212.67188 20.3875L212.67188 34.7L211.04688 34.7ZM205.48438 29.528126Q205.48438 31.5125 206.32812 32.496876Q207.17188 33.48125 208.3125 33.48125Q209.46875 33.48125 210.26562 32.54375Q211.07812 31.60625 211.07812 29.66875Q211.07812 27.54375 210.25 26.54375Q209.4375 25.54375 208.23438 25.54375Q207.0625 25.54375 206.26562 26.5125Q205.48438 27.465626 205.48438 29.528126ZM218.20312 34.7L214.25 24.325L216.10938 24.325L218.34375 30.54375Q218.70312 31.54375 219.0 32.621876Q219.23438 31.809376 219.65625 30.653126L221.95312 24.325L223.76562 24.325L219.84375 34.7L218.20312 34.7ZM231.42188 31.35625L233.23438 31.590626Q232.8125 33.16875 231.64062 34.059376Q230.48438 34.934376 228.67188 34.934376Q226.40625 34.934376 225.0625 33.54375Q223.73438 32.1375 223.73438 29.60625Q223.73438 26.98125 225.07812 25.54375Q226.42188 24.090626 228.57812 24.090626Q230.65625 24.090626 231.96875 25.5125Q233.29688 26.91875 233.29688 29.496876Q233.29688 29.653126 233.28125 29.965626L225.54688 29.965626Q225.64062 31.66875 226.51562 32.575Q227.39062 33.48125 228.6875 33.48125Q229.65625 33.48125 230.32812 32.98125Q231.01562 32.465626 231.42188 31.35625ZM225.64062 28.5125L231.4375 28.5125Q231.32812 27.215626 230.78125 26.559376Q229.9375 25.54375 228.59375 25.54375Q227.39062 25.54375 226.5625 26.35625Q225.73438 27.153126 225.64062 28.5125ZM235.3125 34.7L235.3125 24.325L236.90625 24.325L236.90625 25.809376Q238.04688 24.090626 240.20312 24.090626Q241.14062 24.090626 241.92188 24.434376Q242.71875 24.7625 243.10938 25.309376Q243.5 25.85625 243.65625 26.60625Q243.75 27.10625 243.75 28.325L243.75 34.7L241.98438 34.7L241.98438 28.3875Q241.98438 27.309376 241.78125 26.778126Q241.57812 26.246876 241.04688 25.934376Q240.53125 25.621876 239.82812 25.621876Q238.70312 25.621876 237.89062 26.340626Q237.07812 27.04375 237.07812 29.028126L237.07812 34.7L235.3125 34.7ZM249.15625 33.121876L249.40625 34.684376Q248.67188 34.840626 248.07812 34.840626Q247.125 34.840626 246.59375 34.54375Q246.07812 34.23125 245.85938 33.746876Q245.64062 33.246876 245.64062 31.66875L245.64062 25.7L244.35938 25.7L244.35938 24.325L245.64062 24.325L245.64062 21.7625L247.39062 20.7L247.39062 24.325L249.15625 24.325L249.15625 25.7L247.39062 25.7L247.39062 31.7625Q247.39062 32.5125 247.48438 32.73125Q247.57812 32.934376 247.78125 33.075Q248.0 33.2 248.39062 33.2Q248.67188 33.2 249.15625 33.121876ZM256.67188 29.5125Q256.67188 26.6375 258.26562 25.246876Q259.60938 24.090626 261.53125 24.090626Q263.67188 24.090626 265.01562 25.496876Q266.375 26.903126 266.375 29.371876Q266.375 31.371876 265.78125 32.528126Q265.1875 33.66875 264.03125 34.309376Q262.89062 34.934376 261.53125 34.934376Q259.34375 34.934376 258.0 33.54375Q256.67188 32.1375 256.67188 29.5125ZM258.46875 29.5125Q258.46875 31.5125 259.32812 32.496876Q260.20312 33.48125 261.53125 33.48125Q262.84375 33.48125 263.70312 32.496876Q264.57812 31.496876 264.57812 29.45Q264.57812 27.528126 263.70312 26.54375Q262.82812 25.54375 261.53125 25.54375Q260.20312 25.54375 259.32812 26.54375Q258.46875 27.528126 258.46875 29.5125ZM268.73438 34.7L268.73438 25.7L267.1875 25.7L267.1875 24.325L268.73438 24.325L268.73438 23.23125Q268.73438 22.184376 268.92188 21.66875Q269.17188 20.98125 269.8125 20.559376Q270.45312 20.1375 271.60938 20.1375Q272.35938 20.1375 273.25 20.309376L272.98438 21.840626Q272.4375 21.746876 271.95312 21.746876Q271.15625 21.746876 270.8125 22.090626Q270.48438 22.434376 270.48438 23.371876L270.48438 24.325L272.51562 24.325L272.51562 25.7L270.48438 25.7L270.48438 34.7L268.73438 34.7ZM290.76562 29.684376L292.65625 30.153126Q292.0625 32.496876 290.51562 33.73125Q288.96875 34.95 286.71875 34.95Q284.40625 34.95 282.95312 34.0125Q281.51562 33.059376 280.75 31.278126Q280.0 29.48125 280.0 27.434376Q280.0 25.2 280.84375 23.54375Q281.70312 21.871876 283.28125 21.0125Q284.85938 20.1375 286.75 20.1375Q288.90625 20.1375 290.35938 21.23125Q291.82812 22.325 292.40625 24.309376L290.54688 24.746876Q290.04688 23.184376 289.09375 22.48125Q288.15625 21.7625 286.71875 21.7625Q285.0625 21.7625 283.95312 22.559376Q282.84375 23.340626 282.39062 24.684376Q281.95312 26.0125 281.95312 27.41875Q281.95312 29.246876 282.48438 30.621876Q283.01562 31.98125 284.14062 32.653126Q285.26562 33.325 286.5625 33.325Q288.15625 33.325 289.26562 32.403126Q290.375 31.48125 290.76562 29.684376ZM293.67188 29.5125Q293.67188 26.6375 295.26562 25.246876Q296.60938 24.090626 298.53125 24.090626Q300.67188 24.090626 302.01562 25.496876Q303.375 26.903126 303.375 29.371876Q303.375 31.371876 302.78125 32.528126Q302.1875 33.66875 301.03125 34.309376Q299.89062 34.934376 298.53125 34.934376Q296.34375 34.934376 295.0 33.54375Q293.67188 32.1375 293.67188 29.5125ZM295.46875 29.5125Q295.46875 31.5125 296.32812 32.496876Q297.20312 33.48125 298.53125 33.48125Q299.84375 33.48125 300.70312 32.496876Q301.57812 31.496876 301.57812 29.45Q301.57812 27.528126 300.70312 26.54375Q299.82812 25.54375 298.53125 25.54375Q297.20312 25.54375 296.32812 26.54375Q295.46875 27.528126 295.46875 29.5125ZM312.04688 34.7L312.04688 33.3875Q311.0625 34.934376 309.14062 34.934376Q307.90625 34.934376 306.85938 34.246876Q305.82812 33.559376 305.25 32.340626Q304.6875 31.121876 304.6875 29.528126Q304.6875 27.965626 305.20312 26.7Q305.71875 25.434376 306.75 24.7625Q307.79688 24.090626 309.0625 24.090626Q310.0 24.090626 310.73438 24.496876Q311.46875 24.8875 311.9375 25.5125L311.9375 20.3875L313.67188 20.3875L313.67188 34.7L312.04688 34.7ZM306.48438 29.528126Q306.48438 31.5125 307.32812 32.496876Q308.17188 33.48125 309.3125 33.48125Q310.46875 33.48125 311.26562 32.54375Q312.07812 31.60625 312.07812 29.66875Q312.07812 27.54375 311.25 26.54375Q310.4375 25.54375 309.23438 25.54375Q308.0625 25.54375 307.26562 26.5125Q306.48438 27.465626 306.48438 29.528126ZM323.42188 31.35625L325.23438 31.590626Q324.8125 33.16875 323.64062 34.059376Q322.48438 34.934376 320.67188 34.934376Q318.40625 34.934376 317.0625 33.54375Q315.73438 32.1375 315.73438 29.60625Q315.73438 26.98125 317.07812 25.54375Q318.42188 24.090626 320.57812 24.090626Q322.65625 24.090626 323.96875 25.5125Q325.29688 26.91875 325.29688 29.496876Q325.29688 29.653126 325.28125 29.965626L317.54688 29.965626Q317.64062 31.66875 318.51562 32.575Q319.39062 33.48125 320.6875 33.48125Q321.65625 33.48125 322.32812 32.98125Q323.01562 32.465626 323.42188 31.35625ZM317.64062 28.5125L323.4375 28.5125Q323.32812 27.215626 322.78125 26.559376Q321.9375 25.54375 320.59375 25.54375Q319.39062 25.54375 318.5625 26.35625Q317.73438 27.153126 317.64062 28.5125ZM337.64062 34.7L332.09375 20.3875L334.14062 20.3875L337.85938 30.778126Q338.3125 32.028126 338.60938 33.121876Q338.9375 31.95 339.39062 30.778126L343.25 20.3875L345.1875 20.3875L339.57812 34.7L337.64062 34.7ZM346.32812 22.403126L346.32812 20.3875L348.09375 20.3875L348.09375 22.403126L346.32812 22.403126ZM346.32812 34.7L346.32812 24.325L348.09375 24.325L348.09375 34.7L346.32812 34.7ZM349.60938 31.60625L351.35938 31.325Q351.5 32.371876 352.17188 32.934376Q352.84375 33.48125 354.04688 33.48125Q355.25 33.48125 355.82812 32.996876Q356.42188 32.496876 356.42188 31.840626Q356.42188 31.246876 355.90625 30.903126Q355.54688 30.66875 354.10938 30.309376Q352.17188 29.809376 351.42188 29.465626Q350.6875 29.10625 350.29688 28.48125Q349.90625 27.840626 349.90625 27.075Q349.90625 26.3875 350.21875 25.79375Q350.54688 25.2 351.09375 24.809376Q351.5 24.5125 352.20312 24.309376Q352.92188 24.090626 353.73438 24.090626Q354.95312 24.090626 355.875 24.45Q356.79688 24.79375 357.23438 25.403126Q357.67188 25.996876 357.84375 26.996876L356.125 27.23125Q356.0 26.434376 355.4375 25.996876Q354.875 25.54375 353.85938 25.54375Q352.64062 25.54375 352.125 25.95Q351.60938 26.340626 351.60938 26.871876Q351.60938 27.215626 351.82812 27.496876Q352.03125 27.778126 352.5 27.965626Q352.76562 28.059376 354.04688 28.403126Q355.92188 28.903126 356.65625 29.23125Q357.39062 29.54375 357.8125 30.153126Q358.23438 30.746876 358.23438 31.653126Q358.23438 32.528126 357.71875 33.309376Q357.20312 34.090626 356.23438 34.5125Q355.26562 34.934376 354.04688 34.934376Q352.03125 34.934376 350.96875 34.090626Q349.90625 33.246876 349.60938 31.60625ZM360.32812 22.403126L360.32812 20.3875L362.09375 20.3875L362.09375 22.403126L360.32812 22.403126ZM360.32812 34.7L360.32812 24.325L362.09375 24.325L362.09375 34.7L360.32812 34.7ZM368.15625 33.121876L368.40625 34.684376Q367.67188 34.840626 367.07812 34.840626Q366.125 34.840626 365.59375 34.54375Q365.07812 34.23125 364.85938 33.746876Q364.64062 33.246876 364.64062 31.66875L364.64062 25.7L363.35938 25.7L363.35938 24.325L364.64062 24.325L364.64062 21.7625L366.39062 20.7L366.39062 24.325L368.15625 24.325L368.15625 25.7L366.39062 25.7L366.39062 31.7625Q366.39062 32.5125 366.48438 32.73125Q366.57812 32.934376 366.78125 33.075Q367.0 33.2 367.39062 33.2Q367.67188 33.2 368.15625 33.121876ZM369.67188 29.5125Q369.67188 26.6375 371.26562 25.246876Q372.60938 24.090626 374.53125 24.090626Q376.67188 24.090626 378.01562 25.496876Q379.375 26.903126 379.375 29.371876Q379.375 31.371876 378.78125 32.528126Q378.1875 33.66875 377.03125 34.309376Q375.89062 34.934376 374.53125 34.934376Q372.34375 34.934376 371.0 33.54375Q369.67188 32.1375 369.67188 29.5125ZM371.46875 29.5125Q371.46875 31.5125 372.32812 32.496876Q373.20312 33.48125 374.53125 33.48125Q375.84375 33.48125 376.70312 32.496876Q377.57812 31.496876 377.57812 29.45Q377.57812 27.528126 376.70312 26.54375Q375.82812 25.54375 374.53125 25.54375Q373.20312 25.54375 372.32812 26.54375Q371.46875 27.528126 371.46875 29.5125ZM381.29688 34.7L381.29688 24.325L382.875 24.325L382.875 25.903126Q383.48438 24.79375 384.0 24.45Q384.51562 24.090626 385.125 24.090626Q386.01562 24.090626 386.9375 24.653126L386.32812 26.29375Q385.6875 25.903126 385.04688 25.903126Q384.46875 25.903126 384.0 26.2625Q383.54688 26.60625 383.34375 27.215626Q383.0625 28.153126 383.0625 29.2625L383.0625 34.7L381.29688 34.7ZM387.60938 31.60625L389.35938 31.325Q389.5 32.371876 390.17188 32.934376Q390.84375 33.48125 392.04688 33.48125Q393.25 33.48125 393.82812 32.996876Q394.42188 32.496876 394.42188 31.840626Q394.42188 31.246876 393.90625 30.903126Q393.54688 30.66875 392.10938 30.309376Q390.17188 29.809376 389.42188 29.465626Q388.6875 29.10625 388.29688 28.48125Q387.90625 27.840626 387.90625 27.075Q387.90625 26.3875 388.21875 25.79375Q388.54688 25.2 389.09375 24.809376Q389.5 24.5125 390.20312 24.309376Q390.92188 24.090626 391.73438 24.090626Q392.95312 24.090626 393.875 24.45Q394.79688 24.79375 395.23438 25.403126Q395.67188 25.996876 395.84375 26.996876L394.125 27.23125Q394.0 26.434376 393.4375 25.996876Q392.875 25.54375 391.85938 25.54375Q390.64062 25.54375 390.125 25.95Q389.60938 26.340626 389.60938 26.871876Q389.60938 27.215626 389.82812 27.496876Q390.03125 27.778126 390.5 27.965626Q390.76562 28.059376 392.04688 28.403126Q393.92188 28.903126 394.65625 29.23125Q395.39062 29.54375 395.8125 30.153126Q396.23438 30.746876 396.23438 31.653126Q396.23438 32.528126 395.71875 33.309376Q395.20312 34.090626 394.23438 34.5125Q393.26562 34.934376 392.04688 34.934376Q390.03125 34.934376 388.96875 34.090626Q387.90625 33.246876 387.60938 31.60625ZM404.32812 22.403126L404.32812 20.3875L406.09375 20.3875L406.09375 22.403126L404.32812 22.403126ZM404.32812 34.7L404.32812 24.325L406.09375 24.325L406.09375 34.7L404.32812 34.7ZM408.3125 34.7L408.3125 24.325L409.90625 24.325L409.90625 25.809376Q411.04688 24.090626 413.20312 24.090626Q414.14062 24.090626 414.92188 24.434376Q415.71875 24.7625 416.10938 25.309376Q416.5 25.85625 416.65625 26.60625Q416.75 27.10625 416.75 28.325L416.75 34.7L414.98438 34.7L414.98438 28.3875Q414.98438 27.309376 414.78125 26.778126Q414.57812 26.246876 414.04688 25.934376Q413.53125 25.621876 412.82812 25.621876Q411.70312 25.621876 410.89062 26.340626Q410.07812 27.04375 410.07812 29.028126L410.07812 34.7L408.3125 34.7ZM424.54688 34.7L424.54688 20.3875L429.46875 20.3875Q431.14062 20.3875 432.03125 20.590626Q433.25 20.871876 434.125 21.60625Q435.25 22.575 435.8125 24.059376Q436.375 25.54375 436.375 27.465626Q436.375 29.090626 436.0 30.35625Q435.625 31.60625 435.01562 32.434376Q434.42188 33.2625 433.71875 33.746876Q433.01562 34.215626 432.01562 34.465626Q431.01562 34.7 429.70312 34.7L424.54688 34.7ZM426.4375 33.0125L429.5 33.0125Q430.90625 33.0125 431.70312 32.746876Q432.51562 32.48125 433.0 31.996876Q433.67188 31.325 434.04688 30.2Q434.42188 29.059376 434.42188 27.434376Q434.42188 25.184376 433.6875 23.98125Q432.95312 22.778126 431.89062 22.371876Q431.14062 22.075 429.45312 22.075L426.4375 22.075L426.4375 33.0125ZM445.42188 31.35625L447.23438 31.590626Q446.8125 33.16875 445.64062 34.059376Q444.48438 34.934376 442.67188 34.934376Q440.40625 34.934376 439.0625 33.54375Q437.73438 32.1375 437.73438 29.60625Q437.73438 26.98125 439.07812 25.54375Q440.42188 24.090626 442.57812 24.090626Q444.65625 24.090626 445.96875 25.5125Q447.29688 26.91875 447.29688 29.496876Q447.29688 29.653126 447.28125 29.965626L439.54688 29.965626Q439.64062 31.66875 440.51562 32.575Q441.39062 33.48125 442.6875 33.48125Q443.65625 33.48125 444.32812 32.98125Q445.01562 32.465626 445.42188 31.35625ZM439.64062 28.5125L445.4375 28.5125Q445.32812 27.215626 444.78125 26.559376Q443.9375 25.54375 442.59375 25.54375Q441.39062 25.54375 440.5625 26.35625Q439.73438 27.153126 439.64062 28.5125ZM456.09375 30.903126L457.8125 31.121876Q457.53125 32.91875 456.35938 33.934376Q455.20312 34.934376 453.5 34.934376Q451.375 34.934376 450.07812 33.54375Q448.78125 32.153126 448.78125 29.559376Q448.78125 27.871876 449.32812 26.621876Q449.89062 25.35625 451.03125 24.73125Q452.17188 24.090626 453.51562 24.090626Q455.20312 24.090626 456.26562 24.95Q457.34375 25.809376 457.65625 27.371876L455.9375 27.6375Q455.70312 26.590626 455.07812 26.075Q454.45312 25.54375 453.57812 25.54375Q452.25 25.54375 451.42188 26.496876Q450.59375 27.45 450.59375 29.496876Q450.59375 31.590626 451.39062 32.54375Q452.1875 33.48125 453.48438 33.48125Q454.51562 33.48125 455.20312 32.85625Q455.90625 32.215626 456.09375 30.903126ZM466.42188 31.35625L468.23438 31.590626Q467.8125 33.16875 466.64062 34.059376Q465.48438 34.934376 463.67188 34.934376Q461.40625 34.934376 460.0625 33.54375Q458.73438 32.1375 458.73438 29.60625Q458.73438 26.98125 460.07812 25.54375Q461.42188 24.090626 463.57812 24.090626Q465.65625 24.090626 466.96875 25.5125Q468.29688 26.91875 468.29688 29.496876Q468.29688 29.653126 468.28125 29.965626L460.54688 29.965626Q460.64062 31.66875 461.51562 32.575Q462.39062 33.48125 463.6875 33.48125Q464.65625 33.48125 465.32812 32.98125Q466.01562 32.465626 466.42188 31.35625ZM460.64062 28.5125L466.4375 28.5125Q466.32812 27.215626 465.78125 26.559376Q464.9375 25.54375 463.59375 25.54375Q462.39062 25.54375 461.5625 26.35625Q460.73438 27.153126 460.64062 28.5125ZM470.3125 34.7L470.3125 24.325L471.89062 24.325L471.89062 25.778126Q472.375 25.028126 473.1875 24.559376Q474.0 24.090626 475.03125 24.090626Q476.1875 24.090626 476.92188 24.575Q477.65625 25.04375 477.96875 25.903126Q479.20312 24.090626 481.17188 24.090626Q482.71875 24.090626 483.54688 24.95Q484.375 25.809376 484.375 27.575L484.375 34.7L482.625 34.7L482.625 28.16875Q482.625 27.10625 482.45312 26.653126Q482.28125 26.184376 481.82812 25.903126Q481.39062 25.621876 480.78125 25.621876Q479.6875 25.621876 478.95312 26.35625Q478.23438 27.075 478.23438 28.66875L478.23438 34.7L476.48438 34.7L476.48438 27.965626Q476.48438 26.79375 476.04688 26.215626Q475.625 25.621876 474.64062 25.621876Q473.90625 25.621876 473.26562 26.0125Q472.64062 26.403126 472.35938 27.153126Q472.07812 27.903126 472.07812 29.325L472.07812 34.7L470.3125 34.7ZM487.9375 34.7L486.3125 34.7L486.3125 20.3875L488.0625 20.3875L488.0625 25.496876Q489.1875 24.090626 490.90625 24.090626Q491.85938 24.090626 492.71875 24.48125Q493.57812 24.871876 494.125 25.575Q494.67188 26.2625 494.98438 27.246876Q495.29688 28.23125 495.29688 29.35625Q495.29688 32.028126 493.98438 33.48125Q492.67188 34.934376 490.82812 34.934376Q488.98438 34.934376 487.9375 33.403126L487.9375 34.7ZM487.92188 29.434376Q487.92188 31.29375 488.42188 32.1375Q489.26562 33.48125 490.67188 33.48125Q491.82812 33.48125 492.65625 32.48125Q493.5 31.48125 493.5 29.496876Q493.5 27.465626 492.6875 26.5125Q491.89062 25.54375 490.75 25.54375Q489.59375 25.54375 488.75 26.54375Q487.92188 27.54375 487.92188 29.434376ZM504.42188 31.35625L506.23438 31.590626Q505.8125 33.16875 504.64062 34.059376Q503.48438 34.934376 501.67188 34.934376Q499.40625 34.934376 498.0625 33.54375Q496.73438 32.1375 496.73438 29.60625Q496.73438 26.98125 498.07812 25.54375Q499.42188 24.090626 501.57812 24.090626Q503.65625 24.090626 504.96875 25.5125Q506.29688 26.91875 506.29688 29.496876Q506.29688 29.653126 506.28125 29.965626L498.54688 29.965626Q498.64062 31.66875 499.51562 32.575Q500.39062 33.48125 501.6875 33.48125Q502.65625 33.48125 503.32812 32.98125Q504.01562 32.465626 504.42188 31.35625ZM498.64062 28.5125L504.4375 28.5125Q504.32812 27.215626 503.78125 26.559376Q502.9375 25.54375 501.59375 25.54375Q500.39062 25.54375 499.5625 26.35625Q498.73438 27.153126 498.64062 28.5125ZM508.29688 34.7L508.29688 24.325L509.875 24.325L509.875 25.903126Q510.48438 24.79375 511.0 24.45Q511.51562 24.090626 512.125 24.090626Q513.0156 24.090626 513.9375 24.653126L513.3281 26.29375Q512.6875 25.903126 512.0469 25.903126Q511.46875 25.903126 511.0 26.2625Q510.54688 26.60625 510.34375 27.215626Q510.0625 28.153126 510.0625 29.2625L510.0625 34.7L508.29688 34.7Z" fill-rule="nonzero"/></svg>