<svg version="1.1" viewBox="0.0 0.0 532.0 371.0" fill="none" stroke="none" stroke-linecap="square" stroke-miterlimit="10" width="532" height="371" xmlns:xlink="http://www.w3.org/1999/xlink" xmlns="http://www.w3.org/2000/svg"><path fill="#ffffff" d="M0 0L532.0 0L532.0 371.0L0 371.0L0 0Z" fill-rule="nonzero"/><path stroke="#333333" stroke-width="1.0" stroke-linecap="butt" d="M68.5 54.5L68.5 300.5" fill-rule="nonzero"/><path stroke="#cccccc" stroke-width="1.0" stroke-linecap="butt" d="M216.5 54.5L216.5 300.5" fill-rule="nonzero"/><path stroke="#cccccc" stroke-width="1.0" stroke-linecap="butt" d="M365.5 54.5L365.5 300.5" fill-rule="nonzero"/><path stroke="#cccccc" stroke-width="1.0" stroke-linecap="butt" d="M513.5 54.5L513.5 300.5" fill-rule="nonzero"/><clipPath id="id_0"><path d="M68.55 54.916668L513.45 54.916668L513.45 300.45L68.55 300.45L68.55 54.916668Z" clip-rule="nonzero"/></clipPath><path stroke="#000000" stroke-width="2.0" stroke-linecap="butt" stroke-opacity="0.0" clip-path="url(#id_0)" d="M69.0 94.0L69.0 69.0L482.0 69.0C483.10458 69.0 484.0 69.89543 484.0 71.0L484.0 92.0C484.0 93.10457 483.10458 94.0 482.0 94.0Z" fill-rule="nonzero"/><path fill="#5cc6e4" clip-path="url(#id_0)" d="M69.0 94.0L69.0 69.0L482.0 69.0C483.10458 69.0 484.0 69.89543 484.0 71.0L484.0 92.0C484.0 93.10457 483.10458 94.0 482.0 94.0Z" fill-rule="nonzero"/><path stroke="#000000" stroke-width="2.0" stroke-linecap="butt" stroke-opacity="0.0" clip-path="url(#id_0)" d="M69.0 133.0L69.0 108.0L378.0 108.0C379.10458 108.0 380.0 108.89543 380.0 110.0L380.0 131.0C380.0 132.10457 379.10458 133.0 378.0 133.0Z" fill-rule="nonzero"/><path fill="#5cc6e4" clip-path="url(#id_0)" d="M69.0 133.0L69.0 108.0L378.0 108.0C379.10458 108.0 380.0 108.89543 380.0 110.0L380.0 131.0C380.0 132.10457 379.10458 133.0 378.0 133.0Z" fill-rule="nonzero"/><path stroke="#000000" stroke-width="2.0" stroke-linecap="butt" stroke-opacity="0.0" clip-path="url(#id_0)" d="M69.0 171.0L69.0 146.0L215.0 146.0C216.10457 146.0 217.0 146.89543 217.0 148.0L217.0 169.0C217.0 170.10457 216.10457 171.0 215.0 171.0Z" fill-rule="nonzero"/><path fill="#5cc6e4" clip-path="url(#id_0)" d="M69.0 171.0L69.0 146.0L215.0 146.0C216.10457 146.0 217.0 146.89543 217.0 148.0L217.0 169.0C217.0 170.10457 216.10457 171.0 215.0 171.0Z" fill-rule="nonzero"/><path stroke="#000000" stroke-width="2.0" stroke-linecap="butt" stroke-opacity="0.0" clip-path="url(#id_0)" d="M69.0 210.0L69.0 185.0L215.0 185.0C216.10457 185.0 217.0 185.89543 217.0 187.0L217.0 208.0C217.0 209.10457 216.10457 210.0 215.0 210.0Z" fill-rule="nonzero"/><path fill="#5cc6e4" clip-path="url(#id_0)" d="M69.0 210.0L69.0 185.0L215.0 185.0C216.10457 185.0 217.0 185.89543 217.0 187.0L217.0 208.0C217.0 209.10457 216.10457 210.0 215.0 210.0Z" fill-rule="nonzero"/><path stroke="#000000" stroke-width="2.0" stroke-linecap="butt" stroke-opacity="0.0" clip-path="url(#id_0)" d="M69.0 249.0L69.0 224.0L126.0 224.0C127.10457 224.0 128.0 224.89543 128.0 226.0L128.0 247.0C128.0 248.10457 127.10457 249.0 126.0 249.0Z" fill-rule="nonzero"/><path fill="#5cc6e4" clip-path="url(#id_0)" d="M69.0 249.0L69.0 224.0L126.0 224.0C127.10457 224.0 128.0 224.89543 128.0 226.0L128.0 247.0C128.0 248.10457 127.10457 249.0 126.0 249.0Z" fill-rule="nonzero"/><path stroke="#000000" stroke-width="2.0" stroke-linecap="butt" stroke-opacity="0.0" clip-path="url(#id_0)" d="M69.0 287.0L69.0 262.0L96.0 262.0C97.10457 262.0 98.0 262.89542 98.0 264.0L98.0 285.0C98.0 286.10458 97.10457 287.0 96.0 287.0Z" fill-rule="nonzero"/><path fill="#5cc6e4" clip-path="url(#id_0)" d="M69.0 287.0L69.0 262.0L96.0 262.0C97.10457 262.0 98.0 262.89542 98.0 264.0L98.0 285.0C98.0 286.10458 97.10457 287.0 96.0 287.0Z" fill-rule="nonzero"/><path fill="#000000" d="M215.5625 346.4344L216.6875 346.73126Q216.32812 348.1219 215.40625 348.85626Q214.48438 349.59064 213.14062 349.59064Q211.75 349.59064 210.875 349.02814Q210.0 348.46564 209.54688 347.40314Q209.09375 346.325 209.09375 345.09064Q209.09375 343.7469 209.60938 342.7469Q210.125 341.7469 211.0625 341.23126Q212.01562 340.71564 213.15625 340.71564Q214.4375 340.71564 215.3125 341.3719Q216.20312 342.02814 216.54688 343.21564L215.42188 343.48126Q215.125 342.54376 214.54688 342.1219Q213.98438 341.6844 213.125 341.6844Q212.14062 341.6844 211.46875 342.16876Q210.8125 342.6375 210.53125 343.4344Q210.26562 344.23126 210.26562 345.09064Q210.26562 346.1844 210.57812 346.9969Q210.90625 347.8094 211.57812 348.21564Q212.25 348.6219 213.04688 348.6219Q214.0 348.6219 214.65625 348.075Q215.32812 347.52814 215.5625 346.4344ZM217.90625 346.34064Q217.90625 344.60626 218.85938 343.77814Q219.65625 343.09064 220.8125 343.09064Q222.09375 343.09064 222.90625 343.9344Q223.73438 344.7625 223.73438 346.2469Q223.73438 347.45 223.375 348.1375Q223.01562 348.825 222.3125 349.21564Q221.625 349.59064 220.8125 349.59064Q219.51562 349.59064 218.70312 348.7625Q217.90625 347.91876 217.90625 346.34064ZM218.98438 346.34064Q218.98438 347.52814 219.5 348.1219Q220.03125 348.71564 220.8125 348.71564Q221.60938 348.71564 222.125 348.1219Q222.64062 347.52814 222.64062 346.3094Q222.64062 345.15314 222.10938 344.5594Q221.59375 343.96564 220.8125 343.96564Q220.03125 343.96564 219.5 344.5594Q218.98438 345.1375 218.98438 346.34064ZM229.375 349.45L229.375 348.52814Q228.64062 349.59064 227.39062 349.59064Q226.84375 349.59064 226.35938 349.3875Q225.89062 349.16876 225.65625 348.85626Q225.42188 348.52814 225.32812 348.0594Q225.26562 347.7625 225.26562 347.075L225.26562 343.23126L226.32812 343.23126L226.32812 346.6844Q226.32812 347.4969 226.39062 347.79376Q226.48438 348.2 226.79688 348.45Q227.125 348.6844 227.60938 348.6844Q228.07812 348.6844 228.48438 348.45Q228.90625 348.2 229.07812 347.77814Q229.26562 347.35626 229.26562 346.5594L229.26562 343.23126L230.3125 343.23126L230.3125 349.45L229.375 349.45ZM232.29688 349.45L232.29688 343.23126L233.23438 343.23126L233.23438 344.10626Q233.92188 343.09064 235.21875 343.09064Q235.78125 343.09064 236.25 343.29376Q236.73438 343.4969 236.96875 343.825Q237.20312 344.15314 237.29688 344.59064Q237.34375 344.8875 237.34375 345.6219L237.34375 349.45L236.29688 349.45L236.29688 345.66876Q236.29688 345.0125 236.17188 344.7Q236.04688 344.3875 235.73438 344.2Q235.42188 343.9969 235.0 343.9969Q234.32812 343.9969 233.82812 344.4344Q233.34375 344.85626 233.34375 346.04376L233.34375 349.45L232.29688 349.45ZM241.59375 348.5125L241.75 349.4344Q241.29688 349.52814 240.95312 349.52814Q240.375 349.52814 240.0625 349.35626Q239.75 349.16876 239.60938 348.8719Q239.48438 348.575 239.48438 347.6219L239.48438 344.04376L238.71875 344.04376L238.71875 343.23126L239.48438 343.23126L239.48438 341.6844L240.53125 341.0594L240.53125 343.23126L241.59375 343.23126L241.59375 344.04376L240.53125 344.04376L240.53125 347.6844Q240.53125 348.1375 240.57812 348.2625Q240.64062 348.3875 240.76562 348.46564Q240.89062 348.54376 241.125 348.54376Q241.3125 348.54376 241.59375 348.5125ZM241.875 347.59064L242.90625 347.4344Q243.0 348.0594 243.39062 348.3875Q243.79688 348.71564 244.53125 348.71564Q245.25 348.71564 245.59375 348.4344Q245.95312 348.1375 245.95312 347.73126Q245.95312 347.3719 245.64062 347.16876Q245.42188 347.02814 244.5625 346.8094Q243.40625 346.5125 242.95312 346.3094Q242.51562 346.09064 242.28125 345.71564Q242.04688 345.34064 242.04688 344.8719Q242.04688 344.46564 242.23438 344.10626Q242.42188 343.7469 242.75 343.5125Q243.0 343.34064 243.42188 343.21564Q243.84375 343.09064 244.34375 343.09064Q245.0625 343.09064 245.60938 343.3094Q246.17188 343.5125 246.4375 343.8719Q246.70312 344.23126 246.79688 344.825L245.76562 344.96564Q245.70312 344.4969 245.35938 344.23126Q245.03125 343.95 244.40625 343.95Q243.6875 343.95 243.375 344.2Q243.0625 344.4344 243.0625 344.7625Q243.0625 344.96564 243.1875 345.1219Q243.32812 345.29376 243.59375 345.40314Q243.75 345.46564 244.53125 345.66876Q245.65625 345.98126 246.09375 346.16876Q246.53125 346.35626 246.78125 346.71564Q247.03125 347.075 247.03125 347.6219Q247.03125 348.15314 246.71875 348.6219Q246.42188 349.075 245.84375 349.34064Q245.26562 349.59064 244.53125 349.59064Q243.3125 349.59064 242.67188 349.09064Q242.04688 348.575 241.875 347.59064ZM250.90625 346.34064Q250.90625 344.60626 251.85938 343.77814Q252.65625 343.09064 253.8125 343.09064Q255.09375 343.09064 255.90625 343.9344Q256.73438 344.7625 256.73438 346.2469Q256.73438 347.45 256.375 348.1375Q256.01562 348.825 255.3125 349.21564Q254.625 349.59064 253.8125 349.59064Q252.51562 349.59064 251.70312 348.7625Q250.90625 347.91876 250.90625 346.34064ZM251.98438 346.34064Q251.98438 347.52814 252.5 348.1219Q253.03125 348.71564 253.8125 348.71564Q254.60938 348.71564 255.125 348.1219Q255.64062 347.52814 255.64062 346.3094Q255.64062 345.15314 255.10938 344.5594Q254.59375 343.96564 253.8125 343.96564Q253.03125 343.96564 252.5 344.5594Q251.98438 345.1375 251.98438 346.34064ZM258.54688 349.45L258.54688 344.04376L257.60938 344.04376L257.60938 343.23126L258.54688 343.23126L258.54688 342.5594Q258.54688 341.9344 258.65625 341.6375Q258.8125 341.21564 259.1875 340.96564Q259.57812 340.71564 260.26562 340.71564Q260.71875 340.71564 261.25 340.825L261.09375 341.73126Q260.76562 341.6844 260.46875 341.6844Q259.98438 341.6844 259.78125 341.8875Q259.59375 342.09064 259.59375 342.65314L259.59375 343.23126L260.8125 343.23126L260.8125 344.04376L259.59375 344.04376L259.59375 349.45L258.54688 349.45ZM264.48438 349.45L264.48438 340.85626L270.28125 340.85626L270.28125 341.8719L265.625 341.8719L265.625 344.52814L269.65625 344.52814L269.65625 345.54376L265.625 345.54376L265.625 349.45L264.48438 349.45ZM275.54688 347.45L276.64062 347.575Q276.39062 348.52814 275.6875 349.0594Q274.98438 349.59064 273.90625 349.59064Q272.54688 349.59064 271.73438 348.7469Q270.9375 347.90314 270.9375 346.3875Q270.9375 344.825 271.75 343.96564Q272.5625 343.09064 273.84375 343.09064Q275.09375 343.09064 275.875 343.9344Q276.67188 344.77814 276.67188 346.325Q276.67188 346.41876 276.67188 346.60626L272.03125 346.60626Q272.09375 347.6375 272.60938 348.1844Q273.125 348.71564 273.90625 348.71564Q274.48438 348.71564 274.89062 348.41876Q275.3125 348.10626 275.54688 347.45ZM272.09375 345.7469L275.5625 345.7469Q275.5 344.95 275.17188 344.5594Q274.65625 343.95 273.85938 343.95Q273.125 343.95 272.625 344.4344Q272.14062 344.91876 272.09375 345.7469ZM282.35938 348.6844Q281.76562 349.1844 281.21875 349.3875Q280.6875 349.59064 280.0625 349.59064Q279.03125 349.59064 278.48438 349.09064Q277.9375 348.59064 277.9375 347.8094Q277.9375 347.35626 278.14062 346.98126Q278.34375 346.59064 278.6875 346.3719Q279.03125 346.1375 279.45312 346.02814Q279.75 345.9344 280.39062 345.85626Q281.65625 345.71564 282.26562 345.4969Q282.26562 345.27814 282.26562 345.23126Q282.26562 344.575 281.96875 344.3094Q281.5625 343.96564 280.76562 343.96564Q280.03125 343.96564 279.67188 344.23126Q279.3125 344.48126 279.14062 345.1375L278.10938 344.9969Q278.25 344.34064 278.57812 343.9344Q278.90625 343.52814 279.51562 343.3094Q280.125 343.09064 280.92188 343.09064Q281.71875 343.09064 282.21875 343.27814Q282.71875 343.46564 282.95312 343.7469Q283.1875 344.02814 283.28125 344.46564Q283.32812 344.73126 283.32812 345.4344L283.32812 346.84064Q283.32812 348.3094 283.39062 348.7Q283.46875 349.09064 283.67188 349.45L282.5625 349.45Q282.40625 349.1219 282.35938 348.6844ZM282.26562 346.325Q281.6875 346.5594 280.54688 346.73126Q279.89062 346.825 279.625 346.95Q279.35938 347.0594 279.20312 347.27814Q279.0625 347.4969 279.0625 347.77814Q279.0625 348.2 279.375 348.48126Q279.70312 348.7625 280.3125 348.7625Q280.92188 348.7625 281.39062 348.4969Q281.875 348.23126 282.09375 347.7625Q282.26562 347.40314 282.26562 346.71564L282.26562 346.325ZM287.59375 348.5125L287.75 349.4344Q287.29688 349.52814 286.95312 349.52814Q286.375 349.52814 286.0625 349.35626Q285.75 349.16876 285.60938 348.8719Q285.48438 348.575 285.48438 347.6219L285.48438 344.04376L284.71875 344.04376L284.71875 343.23126L285.48438 343.23126L285.48438 341.6844L286.53125 341.0594L286.53125 343.23126L287.59375 343.23126L287.59375 344.04376L286.53125 344.04376L286.53125 347.6844Q286.53125 348.1375 286.57812 348.2625Q286.64062 348.3875 286.76562 348.46564Q286.89062 348.54376 287.125 348.54376Q287.3125 348.54376 287.59375 348.5125ZM292.375 349.45L292.375 348.52814Q291.64062 349.59064 290.39062 349.59064Q289.84375 349.59064 289.35938 349.3875Q288.89062 349.16876 288.65625 348.85626Q288.42188 348.52814 288.32812 348.0594Q288.26562 347.7625 288.26562 347.075L288.26562 343.23126L289.32812 343.23126L289.32812 346.6844Q289.32812 347.4969 289.39062 347.79376Q289.48438 348.2 289.79688 348.45Q290.125 348.6844 290.60938 348.6844Q291.07812 348.6844 291.48438 348.45Q291.90625 348.2 292.07812 347.77814Q292.26562 347.35626 292.26562 346.5594L292.26562 343.23126L293.3125 343.23126L293.3125 349.45L292.375 349.45ZM295.28125 349.45L295.28125 343.23126L296.23438 343.23126L296.23438 344.16876Q296.59375 343.5125 296.89062 343.3094Q297.20312 343.09064 297.57812 343.09064Q298.10938 343.09064 298.65625 343.41876L298.29688 344.40314Q297.90625 344.16876 297.53125 344.16876Q297.17188 344.16876 296.89062 344.3875Q296.625 344.59064 296.51562 344.96564Q296.32812 345.52814 296.32812 346.1844L296.32812 349.45L295.28125 349.45ZM303.54688 347.45L304.64062 347.575Q304.39062 348.52814 303.6875 349.0594Q302.98438 349.59064 301.90625 349.59064Q300.54688 349.59064 299.73438 348.7469Q298.9375 347.90314 298.9375 346.3875Q298.9375 344.825 299.75 343.96564Q300.5625 343.09064 301.84375 343.09064Q303.09375 343.09064 303.875 343.9344Q304.67188 344.77814 304.67188 346.325Q304.67188 346.41876 304.67188 346.60626L300.03125 346.60626Q300.09375 347.6375 300.60938 348.1844Q301.125 348.71564 301.90625 348.71564Q302.48438 348.71564 302.89062 348.41876Q303.3125 348.10626 303.54688 347.45ZM300.09375 345.7469L303.5625 345.7469Q303.5 344.95 303.17188 344.5594Q302.65625 343.95 301.85938 343.95Q301.125 343.95 300.625 344.4344Q300.14062 344.91876 300.09375 345.7469ZM305.875 347.59064L306.90625 347.4344Q307.0 348.0594 307.39062 348.3875Q307.79688 348.71564 308.53125 348.71564Q309.25 348.71564 309.59375 348.4344Q309.95312 348.1375 309.95312 347.73126Q309.95312 347.3719 309.64062 347.16876Q309.42188 347.02814 308.5625 346.8094Q307.40625 346.5125 306.95312 346.3094Q306.51562 346.09064 306.28125 345.71564Q306.04688 345.34064 306.04688 344.8719Q306.04688 344.46564 306.23438 344.10626Q306.42188 343.7469 306.75 343.5125Q307.0 343.34064 307.42188 343.21564Q307.84375 343.09064 308.34375 343.09064Q309.0625 343.09064 309.60938 343.3094Q310.17188 343.5125 310.4375 343.8719Q310.70312 344.23126 310.79688 344.825L309.76562 344.96564Q309.70312 344.4969 309.35938 344.23126Q309.03125 343.95 308.40625 343.95Q307.6875 343.95 307.375 344.2Q307.0625 344.4344 307.0625 344.7625Q307.0625 344.96564 307.1875 345.1219Q307.32812 345.29376 307.59375 345.40314Q307.75 345.46564 308.53125 345.66876Q309.65625 345.98126 310.09375 346.16876Q310.53125 346.35626 310.78125 346.71564Q311.03125 347.075 311.03125 347.6219Q311.03125 348.15314 310.71875 348.6219Q310.42188 349.075 309.84375 349.34064Q309.26562 349.59064 308.53125 349.59064Q307.3125 349.59064 306.67188 349.09064Q306.04688 348.575 305.875 347.59064ZM321.5625 346.4344L322.6875 346.73126Q322.32812 348.1219 321.40625 348.85626Q320.48438 349.59064 319.14062 349.59064Q317.75 349.59064 316.875 349.02814Q316.0 348.46564 315.54688 347.40314Q315.09375 346.325 315.09375 345.09064Q315.09375 343.7469 315.60938 342.7469Q316.125 341.7469 317.0625 341.23126Q318.01562 340.71564 319.15625 340.71564Q320.4375 340.71564 321.3125 341.3719Q322.20312 342.02814 322.54688 343.21564L321.42188 343.48126Q321.125 342.54376 320.54688 342.1219Q319.98438 341.6844 319.125 341.6844Q318.14062 341.6844 317.46875 342.16876Q316.8125 342.6375 316.53125 343.4344Q316.26562 344.23126 316.26562 345.09064Q316.26562 346.1844 316.57812 346.9969Q316.90625 347.8094 317.57812 348.21564Q318.25 348.6219 319.04688 348.6219Q320.0 348.6219 320.65625 348.075Q321.32812 347.52814 321.5625 346.4344ZM323.90625 346.34064Q323.90625 344.60626 324.85938 343.77814Q325.65625 343.09064 326.8125 343.09064Q328.09375 343.09064 328.90625 343.9344Q329.73438 344.7625 329.73438 346.2469Q329.73438 347.45 329.375 348.1375Q329.01562 348.825 328.3125 349.21564Q327.625 349.59064 326.8125 349.59064Q325.51562 349.59064 324.70312 348.7625Q323.90625 347.91876 323.90625 346.34064ZM324.98438 346.34064Q324.98438 347.52814 325.5 348.1219Q326.03125 348.71564 326.8125 348.71564Q327.60938 348.71564 328.125 348.1219Q328.64062 347.52814 328.64062 346.3094Q328.64062 345.15314 328.10938 344.5594Q327.59375 343.96564 326.8125 343.96564Q326.03125 343.96564 325.5 344.5594Q324.98438 345.1375 324.98438 346.34064ZM331.29688 349.45L331.29688 343.23126L332.23438 343.23126L332.23438 344.10626Q332.53125 343.6375 333.01562 343.3719Q333.5 343.09064 334.125 343.09064Q334.8125 343.09064 335.25 343.3719Q335.70312 343.65314 335.875 344.16876Q336.625 343.09064 337.79688 343.09064Q338.73438 343.09064 339.21875 343.60626Q339.71875 344.10626 339.71875 345.1844L339.71875 349.45L338.67188 349.45L338.67188 345.52814Q338.67188 344.90314 338.5625 344.6219Q338.46875 344.34064 338.20312 344.16876Q337.9375 343.9969 337.5625 343.9969Q336.90625 343.9969 336.46875 344.4344Q336.04688 344.8719 336.04688 345.84064L336.04688 349.45L334.98438 349.45L334.98438 345.40314Q334.98438 344.7 334.71875 344.35626Q334.46875 343.9969 333.89062 343.9969Q333.4375 343.9969 333.0625 344.23126Q332.6875 344.46564 332.51562 344.91876Q332.34375 345.3719 332.34375 346.21564L332.34375 349.45L331.29688 349.45ZM341.29688 349.45L341.29688 343.23126L342.23438 343.23126L342.23438 344.10626Q342.53125 343.6375 343.01562 343.3719Q343.5 343.09064 344.125 343.09064Q344.8125 343.09064 345.25 343.3719Q345.70312 343.65314 345.875 344.16876Q346.625 343.09064 347.79688 343.09064Q348.73438 343.09064 349.21875 343.60626Q349.71875 344.10626 349.71875 345.1844L349.71875 349.45L348.67188 349.45L348.67188 345.52814Q348.67188 344.90314 348.5625 344.6219Q348.46875 344.34064 348.20312 344.16876Q347.9375 343.9969 347.5625 343.9969Q346.90625 343.9969 346.46875 344.4344Q346.04688 344.8719 346.04688 345.84064L346.04688 349.45L344.98438 349.45L344.98438 345.40314Q344.98438 344.7 344.71875 344.35626Q344.46875 343.9969 343.89062 343.9969Q343.4375 343.9969 343.0625 344.23126Q342.6875 344.46564 342.51562 344.91876Q342.34375 345.3719 342.34375 346.21564L342.34375 349.45L341.29688 349.45ZM355.54688 347.45L356.64062 347.575Q356.39062 348.52814 355.6875 349.0594Q354.98438 349.59064 353.90625 349.59064Q352.54688 349.59064 351.73438 348.7469Q350.9375 347.90314 350.9375 346.3875Q350.9375 344.825 351.75 343.96564Q352.5625 343.09064 353.84375 343.09064Q355.09375 343.09064 355.875 343.9344Q356.67188 344.77814 356.67188 346.325Q356.67188 346.41876 356.67188 346.60626L352.03125 346.60626Q352.09375 347.6375 352.60938 348.1844Q353.125 348.71564 353.90625 348.71564Q354.48438 348.71564 354.89062 348.41876Q355.3125 348.10626 355.54688 347.45ZM352.09375 345.7469L355.5625 345.7469Q355.5 344.95 355.17188 344.5594Q354.65625 343.95 353.85938 343.95Q353.125 343.95 352.625 344.4344Q352.14062 344.91876 352.09375 345.7469ZM358.29688 349.45L358.29688 343.23126L359.23438 343.23126L359.23438 344.10626Q359.92188 343.09064 361.21875 343.09064Q361.78125 343.09064 362.25 343.29376Q362.73438 343.4969 362.96875 343.825Q363.20312 344.15314 363.29688 344.59064Q363.34375 344.8875 363.34375 345.6219L363.34375 349.45L362.29688 349.45L362.29688 345.66876Q362.29688 345.0125 362.17188 344.7Q362.04688 344.3875 361.73438 344.2Q361.42188 343.9969 361.0 343.9969Q360.32812 343.9969 359.82812 344.4344Q359.34375 344.85626 359.34375 346.04376L359.34375 349.45L358.29688 349.45ZM367.59375 348.5125L367.75 349.4344Q367.29688 349.52814 366.95312 349.52814Q366.375 349.52814 366.0625 349.35626Q365.75 349.16876 365.60938 348.8719Q365.48438 348.575 365.48438 347.6219L365.48438 344.04376L364.71875 344.04376L364.71875 343.23126L365.48438 343.23126L365.48438 341.6844L366.53125 341.0594L366.53125 343.23126L367.59375 343.23126L367.59375 344.04376L366.53125 344.04376L366.53125 347.6844Q366.53125 348.1375 366.57812 348.2625Q366.64062 348.3875 366.76562 348.46564Q366.89062 348.54376 367.125 348.54376Q367.3125 348.54376 367.59375 348.5125ZM367.875 347.59064L368.90625 347.4344Q369.0 348.0594 369.39062 348.3875Q369.79688 348.71564 370.53125 348.71564Q371.25 348.71564 371.59375 348.4344Q371.95312 348.1375 371.95312 347.73126Q371.95312 347.3719 371.64062 347.16876Q371.42188 347.02814 370.5625 346.8094Q369.40625 346.5125 368.95312 346.3094Q368.51562 346.09064 368.28125 345.71564Q368.04688 345.34064 368.04688 344.8719Q368.04688 344.46564 368.23438 344.10626Q368.42188 343.7469 368.75 343.5125Q369.0 343.34064 369.42188 343.21564Q369.84375 343.09064 370.34375 343.09064Q371.0625 343.09064 371.60938 343.3094Q372.17188 343.5125 372.4375 343.8719Q372.70312 344.23126 372.79688 344.825L371.76562 344.96564Q371.70312 344.4969 371.35938 344.23126Q371.03125 343.95 370.40625 343.95Q369.6875 343.95 369.375 344.2Q369.0625 344.4344 369.0625 344.7625Q369.0625 344.96564 369.1875 345.1219Q369.32812 345.29376 369.59375 345.40314Q369.75 345.46564 370.53125 345.66876Q371.65625 345.98126 372.09375 346.16876Q372.53125 346.35626 372.78125 346.71564Q373.03125 347.075 373.03125 347.6219Q373.03125 348.15314 372.71875 348.6219Q372.42188 349.075 371.84375 349.34064Q371.26562 349.59064 370.53125 349.59064Q369.3125 349.59064 368.67188 349.09064Q368.04688 348.575 367.875 347.59064Z" fill-rule="nonzero"/><path fill="#000000" d="M23.409374 82.73542L24.440624 82.876045Q24.26875 83.938545 23.565624 84.54792Q22.8625 85.157295 21.846874 85.157295Q20.565624 85.157295 19.784374 84.32917Q19.01875 83.48542 19.01875 81.92292Q19.01875 80.92292 19.346874 80.17292Q19.690624 79.407295 20.3625 79.032295Q21.05 78.657295 21.8625 78.657295Q22.8625 78.657295 23.503124 79.17292Q24.159374 79.67292 24.346874 80.626045L23.315624 80.782295Q23.175 80.157295 22.8 79.844795Q22.425 79.51667 21.89375 79.51667Q21.096874 79.51667 20.596874 80.094795Q20.096874 80.657295 20.096874 81.89167Q20.096874 83.157295 20.58125 83.719795Q21.065624 84.282295 21.83125 84.282295Q22.45625 84.282295 22.8625 83.907295Q23.284374 83.532295 23.409374 82.73542ZM24.95625 81.907295Q24.95625 80.17292 25.909374 79.344795Q26.70625 78.657295 27.8625 78.657295Q29.14375 78.657295 29.95625 79.501045Q30.784374 80.32917 30.784374 81.813545Q30.784374 83.01667 30.425 83.70417Q30.065624 84.39167 29.3625 84.782295Q28.675 85.157295 27.8625 85.157295Q26.565624 85.157295 25.753124 84.32917Q24.95625 83.48542 24.95625 81.907295ZM26.034374 81.907295Q26.034374 83.094795 26.55 83.688545Q27.08125 84.282295 27.8625 84.282295Q28.659374 84.282295 29.175 83.688545Q29.690624 83.094795 29.690624 81.876045Q29.690624 80.719795 29.159374 80.126045Q28.64375 79.532295 27.8625 79.532295Q27.08125 79.532295 26.55 80.126045Q26.034374 80.70417 26.034374 81.907295ZM32.346874 85.01667L32.346874 78.79792L33.284374 78.79792L33.284374 79.67292Q33.971874 78.657295 35.26875 78.657295Q35.83125 78.657295 36.3 78.86042Q36.784374 79.063545 37.01875 79.39167Q37.253124 79.719795 37.346874 80.157295Q37.39375 80.45417 37.39375 81.188545L37.39375 85.01667L36.346874 85.01667L36.346874 81.23542Q36.346874 80.57917 36.221874 80.26667Q36.096874 79.95417 35.784374 79.76667Q35.471874 79.563545 35.05 79.563545Q34.378124 79.563545 33.878124 80.001045Q33.39375 80.42292 33.39375 81.61042L33.39375 85.01667L32.346874 85.01667ZM43.409374 82.73542L44.440624 82.876045Q44.26875 83.938545 43.565624 84.54792Q42.8625 85.157295 41.846874 85.157295Q40.565624 85.157295 39.784374 84.32917Q39.01875 83.48542 39.01875 81.92292Q39.01875 80.92292 39.346874 80.17292Q39.690624 79.407295 40.3625 79.032295Q41.05 78.657295 41.8625 78.657295Q42.8625 78.657295 43.503124 79.17292Q44.159374 79.67292 44.346874 80.626045L43.315624 80.782295Q43.175 80.157295 42.8 79.844795Q42.425 79.51667 41.89375 79.51667Q41.096874 79.51667 40.596874 80.094795Q40.096874 80.657295 40.096874 81.89167Q40.096874 83.157295 40.58125 83.719795Q41.065624 84.282295 41.83125 84.282295Q42.45625 84.282295 42.8625 83.907295Q43.284374 83.532295 43.409374 82.73542ZM49.596874 83.01667L50.690624 83.14167Q50.440624 84.094795 49.7375 84.626045Q49.034374 85.157295 47.95625 85.157295Q46.596874 85.157295 45.784374 84.313545Q44.9875 83.469795 44.9875 81.95417Q44.9875 80.39167 45.8 79.532295Q46.6125 78.657295 47.89375 78.657295Q49.14375 78.657295 49.925 79.501045Q50.721874 80.344795 50.721874 81.89167Q50.721874 81.98542 50.721874 82.17292L46.08125 82.17292Q46.14375 83.20417 46.659374 83.751045Q47.175 84.282295 47.95625 84.282295Q48.534374 84.282295 48.940624 83.98542Q49.3625 83.67292 49.596874 83.01667ZM46.14375 81.313545L49.6125 81.313545Q49.55 80.51667 49.221874 80.126045Q48.70625 79.51667 47.909374 79.51667Q47.175 79.51667 46.675 80.001045Q46.190624 80.48542 46.14375 81.313545ZM52.33125 85.01667L52.33125 78.79792L53.284374 78.79792L53.284374 79.73542Q53.64375 79.07917 53.940624 78.876045Q54.253124 78.657295 54.628124 78.657295Q55.159374 78.657295 55.70625 78.98542L55.346874 79.969795Q54.95625 79.73542 54.58125 79.73542Q54.221874 79.73542 53.940624 79.95417Q53.675 80.157295 53.565624 80.532295Q53.378124 81.094795 53.378124 81.751045L53.378124 85.01667L52.33125 85.01667ZM56.346874 85.01667L56.346874 78.79792L57.284374 78.79792L57.284374 79.67292Q57.971874 78.657295 59.26875 78.657295Q59.83125 78.657295 60.3 78.86042Q60.784374 79.063545 61.01875 79.39167Q61.253124 79.719795 61.346874 80.157295Q61.39375 80.45417 61.39375 81.188545L61.39375 85.01667L60.346874 85.01667L60.346874 81.23542Q60.346874 80.57917 60.221874 80.26667Q60.096874 79.95417 59.784374 79.76667Q59.471874 79.563545 59.05 79.563545Q58.378124 79.563545 57.878124 80.001045Q57.39375 80.42292 57.39375 81.61042L57.39375 85.01667L56.346874 85.01667Z" fill-rule="nonzero"/><path fill="#000000" d="M29.346874 126.07396L29.346874 117.464584L30.3 117.464584L30.3 118.26146Q30.64375 117.79271 31.065624 117.558334Q31.503124 117.32396 32.1125 117.32396Q32.909374 117.32396 33.51875 117.73021Q34.128124 118.13646 34.425 118.88646Q34.7375 119.63646 34.7375 120.527084Q34.7375 121.48021 34.39375 122.245834Q34.065624 123.01146 33.409374 123.41771Q32.753124 123.82396 32.034374 123.82396Q31.503124 123.82396 31.08125 123.60521Q30.659374 123.370834 30.39375 123.04271L30.39375 126.07396L29.346874 126.07396ZM30.3 120.60521Q30.3 121.808334 30.784374 122.38646Q31.26875 122.94896 31.95625 122.94896Q32.659374 122.94896 33.159374 122.35521Q33.659374 121.76146 33.659374 120.51146Q33.659374 119.32396 33.175 118.745834Q32.690624 118.152084 32.003124 118.152084Q31.33125 118.152084 30.815624 118.777084Q30.3 119.402084 30.3 120.60521ZM36.33125 123.683334L36.33125 117.464584L37.284374 117.464584L37.284374 118.402084Q37.64375 117.745834 37.940624 117.54271Q38.253124 117.32396 38.628124 117.32396Q39.159374 117.32396 39.70625 117.652084L39.346874 118.63646Q38.95625 118.402084 38.58125 118.402084Q38.221874 118.402084 37.940624 118.620834Q37.675 118.82396 37.565624 119.19896Q37.378124 119.76146 37.378124 120.41771L37.378124 123.683334L36.33125 123.683334ZM44.409374 122.91771Q43.815624 123.41771 43.26875 123.620834Q42.7375 123.82396 42.1125 123.82396Q41.08125 123.82396 40.534374 123.32396Q39.9875 122.82396 39.9875 122.04271Q39.9875 121.589584 40.190624 121.214584Q40.39375 120.82396 40.7375 120.60521Q41.08125 120.370834 41.503124 120.26146Q41.8 120.16771 42.440624 120.089584Q43.70625 119.94896 44.315624 119.73021Q44.315624 119.51146 44.315624 119.464584Q44.315624 118.808334 44.01875 118.54271Q43.6125 118.19896 42.815624 118.19896Q42.08125 118.19896 41.721874 118.464584Q41.3625 118.714584 41.190624 119.370834L40.159374 119.23021Q40.3 118.57396 40.628124 118.16771Q40.95625 117.76146 41.565624 117.54271Q42.175 117.32396 42.971874 117.32396Q43.76875 117.32396 44.26875 117.51146Q44.76875 117.69896 45.003124 117.98021Q45.2375 118.26146 45.33125 118.69896Q45.378124 118.964584 45.378124 119.66771L45.378124 121.07396Q45.378124 122.54271 45.440624 122.933334Q45.51875 123.32396 45.721874 123.683334L44.6125 123.683334Q44.45625 123.35521 44.409374 122.91771ZM44.315624 120.558334Q43.7375 120.79271 42.596874 120.964584Q41.940624 121.058334 41.675 121.183334Q41.409374 121.29271 41.253124 121.51146Q41.1125 121.73021 41.1125 122.01146Q41.1125 122.433334 41.425 122.714584Q41.753124 122.995834 42.3625 122.995834Q42.971874 122.995834 43.440624 122.73021Q43.925 122.464584 44.14375 121.995834Q44.315624 121.63646 44.315624 120.94896L44.315624 120.558334ZM47.346874 116.308334L47.346874 115.089584L48.409374 115.089584L48.409374 116.308334L47.346874 116.308334ZM47.346874 123.683334L47.346874 117.464584L48.409374 117.464584L48.409374 123.683334L47.346874 123.683334ZM49.925 121.82396L50.95625 121.66771Q51.05 122.29271 51.440624 122.620834Q51.846874 122.94896 52.58125 122.94896Q53.3 122.94896 53.64375 122.66771Q54.003124 122.370834 54.003124 121.964584Q54.003124 121.60521 53.690624 121.402084Q53.471874 121.26146 52.6125 121.04271Q51.45625 120.745834 51.003124 120.54271Q50.565624 120.32396 50.33125 119.94896Q50.096874 119.57396 50.096874 119.10521Q50.096874 118.69896 50.284374 118.339584Q50.471874 117.98021 50.8 117.745834Q51.05 117.57396 51.471874 117.44896Q51.89375 117.32396 52.39375 117.32396Q53.1125 117.32396 53.659374 117.54271Q54.221874 117.745834 54.4875 118.10521Q54.753124 118.464584 54.846874 119.058334L53.815624 119.19896Q53.753124 118.73021 53.409374 118.464584Q53.08125 118.183334 52.45625 118.183334Q51.7375 118.183334 51.425 118.433334Q51.1125 118.66771 51.1125 118.995834Q51.1125 119.19896 51.2375 119.35521Q51.378124 119.527084 51.64375 119.63646Q51.8 119.69896 52.58125 119.902084Q53.70625 120.214584 54.14375 120.402084Q54.58125 120.589584 54.83125 120.94896Q55.08125 121.308334 55.08125 121.85521Q55.08125 122.38646 54.76875 122.85521Q54.471874 123.308334 53.89375 123.57396Q53.315624 123.82396 52.58125 123.82396Q51.3625 123.82396 50.721874 123.32396Q50.096874 122.808334 49.925 121.82396ZM60.596874 121.683334L61.690624 121.808334Q61.440624 122.76146 60.7375 123.29271Q60.034374 123.82396 58.95625 123.82396Q57.596874 123.82396 56.784374 122.98021Q55.9875 122.13646 55.9875 120.620834Q55.9875 119.058334 56.8 118.19896Q57.6125 117.32396 58.89375 117.32396Q60.14375 117.32396 60.925 118.16771Q61.721874 119.01146 61.721874 120.558334Q61.721874 120.652084 61.721874 120.839584L57.08125 120.839584Q57.14375 121.870834 57.659374 122.41771Q58.175 122.94896 58.95625 122.94896Q59.534374 122.94896 59.940624 122.652084Q60.3625 122.339584 60.596874 121.683334ZM57.14375 119.98021L60.6125 119.98021Q60.55 119.183334 60.221874 118.79271Q59.70625 118.183334 58.909374 118.183334Q58.175 118.183334 57.675 118.66771Q57.190624 119.152084 57.14375 119.98021Z" fill-rule="nonzero"/><path fill="#000000" d="M22.33125 162.35L22.33125 156.13126L23.284374 156.13126L23.284374 157.06876Q23.64375 156.4125 23.940624 156.20938Q24.253124 155.99063 24.628124 155.99063Q25.159374 155.99063 25.70625 156.31876L25.346874 157.30313Q24.95625 157.06876 24.58125 157.06876Q24.221874 157.06876 23.940624 157.2875Q23.675 157.49063 23.565624 157.86563Q23.378124 158.42813 23.378124 159.08438L23.378124 162.35L22.33125 162.35ZM30.596874 160.35L31.690624 160.475Q31.440624 161.42813 30.7375 161.95938Q30.034374 162.49063 28.95625 162.49063Q27.596874 162.49063 26.784374 161.64688Q25.9875 160.80313 25.9875 159.2875Q25.9875 157.725 26.8 156.86563Q27.6125 155.99063 28.89375 155.99063Q30.14375 155.99063 30.925 156.83438Q31.721874 157.67813 31.721874 159.225Q31.721874 159.31876 31.721874 159.50626L27.08125 159.50626Q27.14375 160.5375 27.659374 161.08438Q28.175 161.61563 28.95625 161.61563Q29.534374 161.61563 29.940624 161.31876Q30.3625 161.00626 30.596874 160.35ZM27.14375 158.64688L30.6125 158.64688Q30.55 157.85 30.221874 157.45938Q29.70625 156.85 28.909374 156.85Q28.175 156.85 27.675 157.33438Q27.190624 157.81876 27.14375 158.64688ZM37.315624 164.74063L37.315624 161.69376Q37.065624 162.0375 36.6125 162.27188Q36.175 162.49063 35.675 162.49063Q34.565624 162.49063 33.76875 161.61563Q32.971874 160.725 32.971874 159.17813Q32.971874 158.24063 33.3 157.50626Q33.628124 156.75626 34.2375 156.38126Q34.8625 155.99063 35.596874 155.99063Q36.753124 155.99063 37.409374 156.95938L37.409374 156.13126L38.3625 156.13126L38.3625 164.74063L37.315624 164.74063ZM34.05 159.225Q34.05 160.42813 34.55 161.02188Q35.065624 161.61563 35.76875 161.61563Q36.440624 161.61563 36.925 161.05313Q37.409374 160.475 37.409374 159.31876Q37.409374 158.06876 36.89375 157.44376Q36.39375 156.81876 35.690624 156.81876Q35.01875 156.81876 34.534374 157.4125Q34.05 157.99063 34.05 159.225ZM44.425 162.35L44.425 161.42813Q43.690624 162.49063 42.440624 162.49063Q41.89375 162.49063 41.409374 162.2875Q40.940624 162.06876 40.70625 161.75626Q40.471874 161.42813 40.378124 160.95938Q40.315624 160.6625 40.315624 159.975L40.315624 156.13126L41.378124 156.13126L41.378124 159.58438Q41.378124 160.39688 41.440624 160.69376Q41.534374 161.1 41.846874 161.35Q42.175 161.58438 42.659374 161.58438Q43.128124 161.58438 43.534374 161.35Q43.95625 161.1 44.128124 160.67813Q44.315624 160.25626 44.315624 159.45938L44.315624 156.13126L45.3625 156.13126L45.3625 162.35L44.425 162.35ZM51.596874 160.35L52.690624 160.475Q52.440624 161.42813 51.7375 161.95938Q51.034374 162.49063 49.95625 162.49063Q48.596874 162.49063 47.784374 161.64688Q46.9875 160.80313 46.9875 159.2875Q46.9875 157.725 47.8 156.86563Q48.6125 155.99063 49.89375 155.99063Q51.14375 155.99063 51.925 156.83438Q52.721874 157.67813 52.721874 159.225Q52.721874 159.31876 52.721874 159.50626L48.08125 159.50626Q48.14375 160.5375 48.659374 161.08438Q49.175 161.61563 49.95625 161.61563Q50.534374 161.61563 50.940624 161.31876Q51.3625 161.00626 51.596874 160.35ZM48.14375 158.64688L51.6125 158.64688Q51.55 157.85 51.221874 157.45938Q50.70625 156.85 49.909374 156.85Q49.175 156.85 48.675 157.33438Q48.190624 157.81876 48.14375 158.64688ZM53.925 160.49063L54.95625 160.33438Q55.05 160.95938 55.440624 161.2875Q55.846874 161.61563 56.58125 161.61563Q57.3 161.61563 57.64375 161.33438Q58.003124 161.0375 58.003124 160.63126Q58.003124 160.27188 57.690624 160.06876Q57.471874 159.92813 56.6125 159.70938Q55.45625 159.4125 55.003124 159.20938Q54.565624 158.99063 54.33125 158.61563Q54.096874 158.24063 54.096874 157.77188Q54.096874 157.36563 54.284374 157.00626Q54.471874 156.64688 54.8 156.4125Q55.05 156.24063 55.471874 156.11563Q55.89375 155.99063 56.39375 155.99063Q57.1125 155.99063 57.659374 156.20938Q58.221874 156.4125 58.4875 156.77188Q58.753124 157.13126 58.846874 157.725L57.815624 157.86563Q57.753124 157.39688 57.409374 157.13126Q57.08125 156.85 56.45625 156.85Q55.7375 156.85 55.425 157.1Q55.1125 157.33438 55.1125 157.6625Q55.1125 157.86563 55.2375 158.02188Q55.378124 158.19376 55.64375 158.30313Q55.8 158.36563 56.58125 158.56876Q57.70625 158.88126 58.14375 159.06876Q58.58125 159.25626 58.83125 159.61563Q59.08125 159.975 59.08125 160.52188Q59.08125 161.05313 58.76875 161.52188Q58.471874 161.975 57.89375 162.24063Q57.315624 162.49063 56.58125 162.49063Q55.3625 162.49063 54.721874 161.99063Q54.096874 161.475 53.925 160.49063ZM62.64375 161.4125L62.8 162.33438Q62.346874 162.42813 62.003124 162.42813Q61.425 162.42813 61.1125 162.25626Q60.8 162.06876 60.659374 161.77188Q60.534374 161.475 60.534374 160.52188L60.534374 156.94376L59.76875 156.94376L59.76875 156.13126L60.534374 156.13126L60.534374 154.58438L61.58125 153.95938L61.58125 156.13126L62.64375 156.13126L62.64375 156.94376L61.58125 156.94376L61.58125 160.58438Q61.58125 161.0375 61.628124 161.1625Q61.690624 161.2875 61.815624 161.36563Q61.940624 161.44376 62.175 161.44376Q62.3625 161.44376 62.64375 161.4125Z" fill-rule="nonzero"/><path fill="#000000" d="M46.346874 201.01666L46.346874 194.79791L47.284374 194.79791L47.284374 195.67291Q47.971874 194.65729 49.26875 194.65729Q49.83125 194.65729 50.3 194.86041Q50.784374 195.06354 51.01875 195.39166Q51.253124 195.71979 51.346874 196.15729Q51.39375 196.45416 51.39375 197.18854L51.39375 201.01666L50.346874 201.01666L50.346874 197.23541Q50.346874 196.57916 50.221874 196.26666Q50.096874 195.95416 49.784374 195.76666Q49.471874 195.56354 49.05 195.56354Q48.378124 195.56354 47.878124 196.00104Q47.39375 196.42291 47.39375 197.61041L47.39375 201.01666L46.346874 201.01666ZM52.55 201.15729L55.034374 192.28229L55.878124 192.28229L53.39375 201.15729L52.55 201.15729ZM60.409374 200.25104Q59.815624 200.75104 59.26875 200.95416Q58.7375 201.15729 58.1125 201.15729Q57.08125 201.15729 56.534374 200.65729Q55.9875 200.15729 55.9875 199.37604Q55.9875 198.92291 56.190624 198.54791Q56.39375 198.15729 56.7375 197.93854Q57.08125 197.70416 57.503124 197.59479Q57.8 197.50104 58.440624 197.42291Q59.70625 197.28229 60.315624 197.06354Q60.315624 196.84479 60.315624 196.79791Q60.315624 196.14166 60.01875 195.87604Q59.6125 195.53229 58.815624 195.53229Q58.08125 195.53229 57.721874 195.79791Q57.3625 196.04791 57.190624 196.70416L56.159374 196.56354Q56.3 195.90729 56.628124 195.50104Q56.95625 195.09479 57.565624 194.87604Q58.175 194.65729 58.971874 194.65729Q59.76875 194.65729 60.26875 194.84479Q60.76875 195.03229 61.003124 195.31354Q61.2375 195.59479 61.33125 196.03229Q61.378124 196.29791 61.378124 197.00104L61.378124 198.40729Q61.378124 199.87604 61.440624 200.26666Q61.51875 200.65729 61.721874 201.01666L60.6125 201.01666Q60.45625 200.68854 60.409374 200.25104ZM60.315624 197.89166Q59.7375 198.12604 58.596874 198.29791Q57.940624 198.39166 57.675 198.51666Q57.409374 198.62604 57.253124 198.84479Q57.1125 199.06354 57.1125 199.34479Q57.1125 199.76666 57.425 200.04791Q57.753124 200.32916 58.3625 200.32916Q58.971874 200.32916 59.440624 200.06354Q59.925 199.79791 60.14375 199.32916Q60.315624 198.96979 60.315624 198.28229L60.315624 197.89166Z" fill-rule="nonzero"/><path fill="#000000" d="M45.64375 238.74583L45.8 239.66771Q45.346874 239.76146 45.003124 239.76146Q44.425 239.76146 44.1125 239.58958Q43.8 239.40208 43.659374 239.10521Q43.534374 238.80833 43.534374 237.85521L43.534374 234.27708L42.76875 234.27708L42.76875 233.46458L43.534374 233.46458L43.534374 231.91771L44.58125 231.29271L44.58125 233.46458L45.64375 233.46458L45.64375 234.27708L44.58125 234.27708L44.58125 237.91771Q44.58125 238.37083 44.628124 238.49583Q44.690624 238.62083 44.815624 238.69896Q44.940624 238.77708 45.175 238.77708Q45.3625 238.77708 45.64375 238.74583ZM46.33125 239.68333L46.33125 233.46458L47.284374 233.46458L47.284374 234.40208Q47.64375 233.74583 47.940624 233.54271Q48.253124 233.32396 48.628124 233.32396Q49.159374 233.32396 49.70625 233.65208L49.346874 234.63646Q48.95625 234.40208 48.58125 234.40208Q48.221874 234.40208 47.940624 234.62083Q47.675 234.82396 47.565624 235.19896Q47.378124 235.76146 47.378124 236.41771L47.378124 239.68333L46.33125 239.68333ZM49.95625 236.57396Q49.95625 234.83958 50.909374 234.01146Q51.70625 233.32396 52.8625 233.32396Q54.14375 233.32396 54.95625 234.16771Q55.784374 234.99583 55.784374 236.48021Q55.784374 237.68333 55.425 238.37083Q55.065624 239.05833 54.3625 239.44896Q53.675 239.82396 52.8625 239.82396Q51.565624 239.82396 50.753124 238.99583Q49.95625 238.15208 49.95625 236.57396ZM51.034374 236.57396Q51.034374 237.76146 51.55 238.35521Q52.08125 238.94896 52.8625 238.94896Q53.659374 238.94896 54.175 238.35521Q54.690624 237.76146 54.690624 236.54271Q54.690624 235.38646 54.159374 234.79271Q53.64375 234.19896 52.8625 234.19896Q52.08125 234.19896 51.55 234.79271Q51.034374 235.37083 51.034374 236.57396ZM57.315624 239.68333L57.315624 231.08958L58.378124 231.08958L58.378124 239.68333L57.315624 239.68333ZM60.315624 239.68333L60.315624 231.08958L61.378124 231.08958L61.378124 239.68333L60.315624 239.68333Z" fill-rule="nonzero"/><path fill="#000000" d="M30.346874 278.35L30.346874 272.13126L31.284374 272.13126L31.284374 273.00626Q31.58125 272.5375 32.065624 272.27188Q32.55 271.99063 33.175 271.99063Q33.8625 271.99063 34.3 272.27188Q34.753124 272.55313 34.925 273.06876Q35.675 271.99063 36.846874 271.99063Q37.784374 271.99063 38.26875 272.50626Q38.76875 273.00626 38.76875 274.08438L38.76875 278.35L37.721874 278.35L37.721874 274.42813Q37.721874 273.80313 37.6125 273.52188Q37.51875 273.24063 37.253124 273.06876Q36.9875 272.89688 36.6125 272.89688Q35.95625 272.89688 35.51875 273.33438Q35.096874 273.77188 35.096874 274.74063L35.096874 278.35L34.034374 278.35L34.034374 274.30313Q34.034374 273.6 33.76875 273.25626Q33.51875 272.89688 32.940624 272.89688Q32.4875 272.89688 32.1125 273.13126Q31.7375 273.36563 31.565624 273.81876Q31.39375 274.27188 31.39375 275.11563L31.39375 278.35L30.346874 278.35ZM40.346874 270.975L40.346874 269.75626L41.409374 269.75626L41.409374 270.975L40.346874 270.975ZM40.346874 278.35L40.346874 272.13126L41.409374 272.13126L41.409374 278.35L40.346874 278.35ZM42.64375 278.35L44.909374 275.11563L42.815624 272.13126L44.128124 272.13126L45.08125 273.58438Q45.346874 274.00626 45.51875 274.2875Q45.76875 273.89688 45.9875 273.6L47.034374 272.13126L48.3 272.13126L46.14375 275.05313L48.45625 278.35L47.175 278.35L45.89375 276.4125L45.55 275.89688L43.909374 278.35L42.64375 278.35ZM53.596874 276.35L54.690624 276.475Q54.440624 277.42813 53.7375 277.95938Q53.034374 278.49063 51.95625 278.49063Q50.596874 278.49063 49.784374 277.64688Q48.9875 276.80313 48.9875 275.2875Q48.9875 273.725 49.8 272.86563Q50.6125 271.99063 51.89375 271.99063Q53.14375 271.99063 53.925 272.83438Q54.721874 273.67813 54.721874 275.225Q54.721874 275.31876 54.721874 275.50626L50.08125 275.50626Q50.14375 276.5375 50.659374 277.08438Q51.175 277.61563 51.95625 277.61563Q52.534374 277.61563 52.940624 277.31876Q53.3625 277.00626 53.596874 276.35ZM50.14375 274.64688L53.6125 274.64688Q53.55 273.85 53.221874 273.45938Q52.70625 272.85 51.909374 272.85Q51.175 272.85 50.675 273.33438Q50.190624 273.81876 50.14375 274.64688ZM60.378124 278.35L60.378124 277.56876Q59.784374 278.49063 58.64375 278.49063Q57.89375 278.49063 57.26875 278.08438Q56.64375 277.6625 56.3 276.92813Q55.95625 276.19376 55.95625 275.24063Q55.95625 274.31876 56.26875 273.55313Q56.58125 272.7875 57.20625 272.39688Q57.83125 271.99063 58.596874 271.99063Q59.159374 271.99063 59.596874 272.225Q60.034374 272.45938 60.315624 272.83438L60.315624 269.75626L61.3625 269.75626L61.3625 278.35L60.378124 278.35ZM57.05 275.24063Q57.05 276.44376 57.55 277.0375Q58.05 277.61563 58.7375 277.61563Q59.425 277.61563 59.909374 277.05313Q60.39375 276.49063 60.39375 275.33438Q60.39375 274.05313 59.89375 273.45938Q59.409374 272.86563 58.690624 272.86563Q57.9875 272.86563 57.51875 273.44376Q57.05 274.00626 57.05 275.24063Z" fill-rule="nonzero"/><path fill="#000000" d="M65.55 313.21564Q65.55 311.6844 65.8625 310.7625Q66.175 309.825 66.78438 309.325Q67.40938 308.825 68.34688 308.825Q69.03438 308.825 69.55 309.10626Q70.08125 309.3875 70.425 309.91876Q70.76875 310.4344 70.95625 311.1844Q71.14375 311.9344 71.14375 313.21564Q71.14375 314.73126 70.83125 315.65314Q70.53438 316.575 69.90938 317.09064Q69.3 317.59064 68.34688 317.59064Q67.1125 317.59064 66.39375 316.7Q65.55 315.6375 65.55 313.21564ZM66.62813 313.21564Q66.62813 315.325 67.12813 316.02814Q67.62813 316.73126 68.34688 316.73126Q69.08125 316.73126 69.56563 316.02814Q70.06563 315.325 70.06563 313.21564Q70.06563 311.09064 69.56563 310.40314Q69.08125 309.7 68.33125 309.7Q67.6125 309.7 67.175 310.3094Q66.62813 311.09064 66.62813 313.21564Z" fill-rule="nonzero"/><path fill="#000000" d="M214.31876 317.45L213.27188 317.45L213.27188 310.73126Q212.88126 311.09064 212.25626 311.46564Q211.64688 311.825 211.1625 311.9969L211.1625 310.98126Q212.0375 310.5594 212.69376 309.98126Q213.36563 309.3875 213.64688 308.825L214.31876 308.825L214.31876 317.45ZM217.35 313.21564Q217.35 311.6844 217.6625 310.7625Q217.975 309.825 218.58438 309.325Q219.20938 308.825 220.14688 308.825Q220.83438 308.825 221.35 309.10626Q221.88126 309.3875 222.225 309.91876Q222.56876 310.4344 222.75626 311.1844Q222.94376 311.9344 222.94376 313.21564Q222.94376 314.73126 222.63126 315.65314Q222.33438 316.575 221.70938 317.09064Q221.1 317.59064 220.14688 317.59064Q218.9125 317.59064 218.19376 316.7Q217.35 315.6375 217.35 313.21564ZM218.42813 313.21564Q218.42813 315.325 218.92813 316.02814Q219.42813 316.73126 220.14688 316.73126Q220.88126 316.73126 221.36563 316.02814Q221.86563 315.325 221.86563 313.21564Q221.86563 311.09064 221.36563 310.40314Q220.88126 309.7 220.13126 309.7Q219.4125 309.7 218.975 310.3094Q218.42813 311.09064 218.42813 313.21564Z" fill-rule="nonzero"/><path fill="#000000" d="M364.19687 316.4344L364.19687 317.45L358.50937 317.45Q358.50937 317.075 358.63437 316.71564Q358.85312 316.1375 359.32187 315.575Q359.80624 315.0125 360.7125 314.27814Q362.11874 313.1219 362.60312 312.45Q363.10312 311.77814 363.10312 311.1844Q363.10312 310.5594 362.65 310.1375Q362.19687 309.7 361.47812 309.7Q360.7125 309.7 360.25937 310.15314Q359.80624 310.60626 359.79062 311.41876L358.7125 311.3094Q358.82187 310.09064 359.54062 309.46564Q360.275 308.825 361.50937 308.825Q362.74374 308.825 363.4625 309.5125Q364.18124 310.2 364.18124 311.21564Q364.18124 311.73126 363.9625 312.23126Q363.75937 312.71564 363.25937 313.27814Q362.775 313.825 361.65 314.77814Q360.69687 315.575 360.41562 315.8719Q360.15 316.15314 359.97812 316.4344L364.19687 316.4344ZM365.65 313.21564Q365.65 311.6844 365.9625 310.7625Q366.275 309.825 366.88437 309.325Q367.50937 308.825 368.44687 308.825Q369.13437 308.825 369.65 309.10626Q370.18124 309.3875 370.525 309.91876Q370.86874 310.4344 371.05624 311.1844Q371.24374 311.9344 371.24374 313.21564Q371.24374 314.73126 370.93124 315.65314Q370.63437 316.575 370.00937 317.09064Q369.4 317.59064 368.44687 317.59064Q367.2125 317.59064 366.49374 316.7Q365.65 315.6375 365.65 313.21564ZM366.72812 313.21564Q366.72812 315.325 367.22812 316.02814Q367.72812 316.73126 368.44687 316.73126Q369.18124 316.73126 369.66562 316.02814Q370.16562 315.325 370.16562 313.21564Q370.16562 311.09064 369.66562 310.40314Q369.18124 309.7 368.43124 309.7Q367.7125 309.7 367.275 310.3094Q366.72812 311.09064 366.72812 313.21564Z" fill-rule="nonzero"/><path fill="#000000" d="M506.95 315.1844L508.0125 315.04376Q508.1844 315.9344 508.6219 316.34064Q509.0594 316.73126 509.6844 316.73126Q510.4344 316.73126 510.95 316.21564Q511.46564 315.7 511.46564 314.9344Q511.46564 314.21564 510.98126 313.7469Q510.5125 313.2625 509.77814 313.2625Q509.48126 313.2625 509.02814 313.3875L509.15314 312.45Q509.2625 312.46564 509.325 312.46564Q509.9969 312.46564 510.52814 312.1219Q511.075 311.7625 511.075 311.02814Q511.075 310.45 510.6844 310.075Q510.29376 309.6844 509.66876 309.6844Q509.0594 309.6844 508.6375 310.075Q508.23126 310.46564 508.1219 311.23126L507.0594 311.04376Q507.2469 309.9969 507.9344 309.41876Q508.6219 308.825 509.6375 308.825Q510.34064 308.825 510.9344 309.1375Q511.52814 309.4344 511.84064 309.95Q512.15314 310.46564 512.15314 311.0594Q512.15314 311.60626 511.85626 312.075Q511.5594 312.52814 510.98126 312.79376Q511.73126 312.96564 512.15314 313.52814Q512.575 314.075 512.575 314.91876Q512.575 316.04376 511.7469 316.825Q510.9344 317.60626 509.6844 317.60626Q508.5594 317.60626 507.8094 316.9344Q507.0594 316.2469 506.95 315.1844ZM513.95 313.21564Q513.95 311.6844 514.2625 310.7625Q514.575 309.825 515.1844 309.325Q515.8094 308.825 516.7469 308.825Q517.4344 308.825 517.95 309.10626Q518.48126 309.3875 518.825 309.91876Q519.16876 310.4344 519.35626 311.1844Q519.54376 311.9344 519.54376 313.21564Q519.54376 314.73126 519.23126 315.65314Q518.9344 316.575 518.3094 317.09064Q517.7 317.59064 516.7469 317.59064Q515.5125 317.59064 514.79376 316.7Q513.95 315.6375 513.95 313.21564ZM515.02814 313.21564Q515.02814 315.325 515.52814 316.02814Q516.02814 316.73126 516.7469 316.73126Q517.48126 316.73126 517.96564 316.02814Q518.46564 315.325 518.46564 313.21564Q518.46564 311.09064 517.96564 310.40314Q517.48126 309.7 516.73126 309.7Q516.0125 309.7 515.575 310.3094Q515.02814 311.09064 515.02814 313.21564Z" fill-rule="nonzero"/><path fill="#757575" d="M97.765625 32.534374L99.65625 33.003124Q99.0625 35.346874 97.515625 36.58125Q95.96875 37.8 93.71875 37.8Q91.40625 37.8 89.953125 36.8625Q88.515625 35.909374 87.75 34.128124Q87.0 32.33125 87.0 30.284374Q87.0 28.05 87.84375 26.39375Q88.703125 24.721874 90.28125 23.8625Q91.859375 22.9875 93.75 22.9875Q95.90625 22.9875 97.359375 24.08125Q98.828125 25.175 99.40625 27.159374L97.546875 27.596874Q97.046875 26.034374 96.09375 25.33125Q95.15625 24.6125 93.71875 24.6125Q92.0625 24.6125 90.953125 25.409374Q89.84375 26.190624 89.390625 27.534374Q88.953125 28.8625 88.953125 30.26875Q88.953125 32.096874 89.484375 33.471874Q90.015625 34.83125 91.140625 35.503124Q92.265625 36.175 93.5625 36.175Q95.15625 36.175 96.265625 35.253124Q97.375 34.33125 97.765625 32.534374ZM100.671875 32.3625Q100.671875 29.4875 102.265625 28.096874Q103.609375 26.940624 105.53125 26.940624Q107.671875 26.940624 109.015625 28.346874Q110.375 29.753124 110.375 32.221874Q110.375 34.221874 109.78125 35.378124Q109.1875 36.51875 108.03125 37.159374Q106.890625 37.784374 105.53125 37.784374Q103.34375 37.784374 102.0 36.39375Q100.671875 34.9875 100.671875 32.3625ZM102.46875 32.3625Q102.46875 34.3625 103.328125 35.346874Q104.203125 36.33125 105.53125 36.33125Q106.84375 36.33125 107.703125 35.346874Q108.578125 34.346874 108.578125 32.3Q108.578125 30.378124 107.703125 29.39375Q106.828125 28.39375 105.53125 28.39375Q104.203125 28.39375 103.328125 29.39375Q102.46875 30.378124 102.46875 32.3625ZM119.109375 37.55L119.109375 36.01875Q117.90625 37.784374 115.828125 37.784374Q114.90625 37.784374 114.109375 37.440624Q113.3125 37.08125 112.921875 36.55Q112.546875 36.01875 112.390625 35.2375Q112.28125 34.721874 112.28125 33.596874L112.28125 27.175L114.03125 27.175L114.03125 32.925Q114.03125 34.3 114.140625 34.784374Q114.3125 35.471874 114.84375 35.878124Q115.390625 36.26875 116.171875 36.26875Q116.96875 36.26875 117.65625 35.8625Q118.359375 35.45625 118.640625 34.76875Q118.9375 34.065624 118.9375 32.7375L118.9375 27.175L120.6875 27.175L120.6875 37.55L119.109375 37.55ZM123.3125 37.55L123.3125 27.175L124.90625 27.175L124.90625 28.659374Q126.046875 26.940624 128.20312 26.940624Q129.14062 26.940624 129.92188 27.284374Q130.71875 27.6125 131.10938 28.159374Q131.5 28.70625 131.65625 29.45625Q131.75 29.95625 131.75 31.175L131.75 37.55L129.98438 37.55L129.98438 31.2375Q129.98438 30.159374 129.78125 29.628124Q129.57812 29.096874 129.04688 28.784374Q128.53125 28.471874 127.828125 28.471874Q126.703125 28.471874 125.890625 29.190624Q125.078125 29.89375 125.078125 31.878124L125.078125 37.55L123.3125 37.55ZM138.15625 35.971874L138.40625 37.534374Q137.67188 37.690624 137.07812 37.690624Q136.125 37.690624 135.59375 37.39375Q135.07812 37.08125 134.85938 36.596874Q134.64062 36.096874 134.64062 34.51875L134.64062 28.55L133.35938 28.55L133.35938 27.175L134.64062 27.175L134.64062 24.6125L136.39062 23.55L136.39062 27.175L138.15625 27.175L138.15625 28.55L136.39062 28.55L136.39062 34.6125Q136.39062 35.3625 136.48438 35.58125Q136.57812 35.784374 136.78125 35.925Q137.0 36.05 137.39062 36.05Q137.67188 36.05 138.15625 35.971874ZM139.60938 34.45625L141.35938 34.175Q141.5 35.221874 142.17188 35.784374Q142.84375 36.33125 144.04688 36.33125Q145.25 36.33125 145.82812 35.846874Q146.42188 35.346874 146.42188 34.690624Q146.42188 34.096874 145.90625 33.753124Q145.54688 33.51875 144.10938 33.159374Q142.17188 32.659374 141.42188 32.315624Q140.6875 31.95625 140.29688 31.33125Q139.90625 30.690624 139.90625 29.925Q139.90625 29.2375 140.21875 28.64375Q140.54688 28.05 141.09375 27.659374Q141.5 27.3625 142.20312 27.159374Q142.92188 26.940624 143.73438 26.940624Q144.95312 26.940624 145.875 27.3Q146.79688 27.64375 147.23438 28.253124Q147.67188 28.846874 147.84375 29.846874L146.125 30.08125Q146.0 29.284374 145.4375 28.846874Q144.875 28.39375 143.85938 28.39375Q142.64062 28.39375 142.125 28.8Q141.60938 29.190624 141.60938 29.721874Q141.60938 30.065624 141.82812 30.346874Q142.03125 30.628124 142.5 30.815624Q142.76562 30.909374 144.04688 31.253124Q145.92188 31.753124 146.65625 32.08125Q147.39062 32.39375 147.8125 33.003124Q148.23438 33.596874 148.23438 34.503124Q148.23438 35.378124 147.71875 36.159374Q147.20312 36.940624 146.23438 37.3625Q145.26562 37.784374 144.04688 37.784374Q142.03125 37.784374 140.96875 36.940624Q139.90625 36.096874 139.60938 34.45625ZM155.67188 32.3625Q155.67188 29.4875 157.26562 28.096874Q158.60938 26.940624 160.53125 26.940624Q162.67188 26.940624 164.01562 28.346874Q165.375 29.753124 165.375 32.221874Q165.375 34.221874 164.78125 35.378124Q164.1875 36.51875 163.03125 37.159374Q161.89062 37.784374 160.53125 37.784374Q158.34375 37.784374 157.0 36.39375Q155.67188 34.9875 155.67188 32.3625ZM157.46875 32.3625Q157.46875 34.3625 158.32812 35.346874Q159.20312 36.33125 160.53125 36.33125Q161.84375 36.33125 162.70312 35.346874Q163.57812 34.346874 163.57812 32.3Q163.57812 30.378124 162.70312 29.39375Q161.82812 28.39375 160.53125 28.39375Q159.20312 28.39375 158.32812 29.39375Q157.46875 30.378124 157.46875 32.3625ZM167.73438 37.55L167.73438 28.55L166.1875 28.55L166.1875 27.175L167.73438 27.175L167.73438 26.08125Q167.73438 25.034374 167.92188 24.51875Q168.17188 23.83125 168.8125 23.409374Q169.45312 22.9875 170.60938 22.9875Q171.35938 22.9875 172.25 23.159374L171.98438 24.690624Q171.4375 24.596874 170.95312 24.596874Q170.15625 24.596874 169.8125 24.940624Q169.48438 25.284374 169.48438 26.221874L169.48438 27.175L171.51562 27.175L171.51562 28.55L169.48438 28.55L169.48438 37.55L167.73438 37.55ZM179.64062 37.55L179.64062 23.2375L189.29688 23.2375L189.29688 24.925L181.53125 24.925L181.53125 29.3625L188.25 29.3625L188.25 31.05L181.53125 31.05L181.53125 37.55L179.64062 37.55ZM198.42188 34.20625L200.23438 34.440624Q199.8125 36.01875 198.64062 36.909374Q197.48438 37.784374 195.67188 37.784374Q193.40625 37.784374 192.0625 36.39375Q190.73438 34.9875 190.73438 32.45625Q190.73438 29.83125 192.07812 28.39375Q193.42188 26.940624 195.57812 26.940624Q197.65625 26.940624 198.96875 28.3625Q200.29688 29.76875 200.29688 32.346874Q200.29688 32.503124 200.28125 32.815624L192.54688 32.815624Q192.64062 34.51875 193.51562 35.425Q194.39062 36.33125 195.6875 36.33125Q196.65625 36.33125 197.32812 35.83125Q198.01562 35.315624 198.42188 34.20625ZM192.64062 31.3625L198.4375 31.3625Q198.32812 30.065624 197.78125 29.409374Q196.9375 28.39375 195.59375 28.39375Q194.39062 28.39375 193.5625 29.20625Q192.73438 30.003124 192.64062 31.3625ZM209.09375 36.26875Q208.10938 37.096874 207.20312 37.440624Q206.29688 37.784374 205.26562 37.784374Q203.5625 37.784374 202.64062 36.95625Q201.71875 36.1125 201.71875 34.815624Q201.71875 34.05 202.0625 33.425Q202.42188 32.8 202.98438 32.425Q203.54688 32.034374 204.25 31.83125Q204.76562 31.70625 205.8125 31.565624Q207.9375 31.315624 208.9375 30.971874Q208.95312 30.6125 208.95312 30.503124Q208.95312 29.440624 208.45312 28.9875Q207.78125 28.39375 206.45312 28.39375Q205.20312 28.39375 204.60938 28.83125Q204.03125 29.26875 203.75 30.378124L202.03125 30.14375Q202.26562 29.034374 202.79688 28.3625Q203.32812 27.675 204.34375 27.315624Q205.35938 26.940624 206.70312 26.940624Q208.03125 26.940624 208.85938 27.253124Q209.6875 27.565624 210.07812 28.05Q210.46875 28.51875 210.625 29.2375Q210.71875 29.690624 210.71875 30.8625L210.71875 33.20625Q210.71875 35.659374 210.82812 36.315624Q210.9375 36.95625 211.28125 37.55L209.4375 37.55Q209.17188 37.003124 209.09375 36.26875ZM208.9375 32.346874Q207.98438 32.7375 206.0625 33.003124Q204.98438 33.159374 204.53125 33.3625Q204.09375 33.55 203.84375 33.925Q203.59375 34.3 203.59375 34.76875Q203.59375 35.471874 204.125 35.940624Q204.65625 36.409374 205.6875 36.409374Q206.70312 36.409374 207.48438 35.971874Q208.28125 35.51875 208.65625 34.753124Q208.9375 34.14375 208.9375 32.9875L208.9375 32.346874ZM217.15625 35.971874L217.40625 37.534374Q216.67188 37.690624 216.07812 37.690624Q215.125 37.690624 214.59375 37.39375Q214.07812 37.08125 213.85938 36.596874Q213.64062 36.096874 213.64062 34.51875L213.64062 28.55L212.35938 28.55L212.35938 27.175L213.64062 27.175L213.64062 24.6125L215.39062 23.55L215.39062 27.175L217.15625 27.175L217.15625 28.55L215.39062 28.55L215.39062 34.6125Q215.39062 35.3625 215.48438 35.58125Q215.57812 35.784374 215.78125 35.925Q216.0 36.05 216.39062 36.05Q216.67188 36.05 217.15625 35.971874ZM226.10938 37.55L226.10938 36.01875Q224.90625 37.784374 222.82812 37.784374Q221.90625 37.784374 221.10938 37.440624Q220.3125 37.08125 219.92188 36.55Q219.54688 36.01875 219.39062 35.2375Q219.28125 34.721874 219.28125 33.596874L219.28125 27.175L221.03125 27.175L221.03125 32.925Q221.03125 34.3 221.14062 34.784374Q221.3125 35.471874 221.84375 35.878124Q222.39062 36.26875 223.17188 36.26875Q223.96875 36.26875 224.65625 35.8625Q225.35938 35.45625 225.64062 34.76875Q225.9375 34.065624 225.9375 32.7375L225.9375 27.175L227.6875 27.175L227.6875 37.55L226.10938 37.55ZM230.29688 37.55L230.29688 27.175L231.875 27.175L231.875 28.753124Q232.48438 27.64375 233.0 27.3Q233.51562 26.940624 234.125 26.940624Q235.01562 26.940624 235.9375 27.503124L235.32812 29.14375Q234.6875 28.753124 234.04688 28.753124Q233.46875 28.753124 233.0 29.1125Q232.54688 29.45625 232.34375 30.065624Q232.0625 31.003124 232.0625 32.1125L232.0625 37.55L230.29688 37.55ZM244.42188 34.20625L246.23438 34.440624Q245.8125 36.01875 244.64062 36.909374Q243.48438 37.784374 241.67188 37.784374Q239.40625 37.784374 238.0625 36.39375Q236.73438 34.9875 236.73438 32.45625Q236.73438 29.83125 238.07812 28.39375Q239.42188 26.940624 241.57812 26.940624Q243.65625 26.940624 244.96875 28.3625Q246.29688 29.76875 246.29688 32.346874Q246.29688 32.503124 246.28125 32.815624L238.54688 32.815624Q238.64062 34.51875 239.51562 35.425Q240.39062 36.33125 241.6875 36.33125Q242.65625 36.33125 243.32812 35.83125Q244.01562 35.315624 244.42188 34.20625ZM238.64062 31.3625L244.4375 31.3625Q244.32812 30.065624 243.78125 29.409374Q242.9375 28.39375 241.59375 28.39375Q240.39062 28.39375 239.5625 29.20625Q238.73438 30.003124 238.64062 31.3625ZM247.60938 34.45625L249.35938 34.175Q249.5 35.221874 250.17188 35.784374Q250.84375 36.33125 252.04688 36.33125Q253.25 36.33125 253.82812 35.846874Q254.42188 35.346874 254.42188 34.690624Q254.42188 34.096874 253.90625 33.753124Q253.54688 33.51875 252.10938 33.159374Q250.17188 32.659374 249.42188 32.315624Q248.6875 31.95625 248.29688 31.33125Q247.90625 30.690624 247.90625 29.925Q247.90625 29.2375 248.21875 28.64375Q248.54688 28.05 249.09375 27.659374Q249.5 27.3625 250.20312 27.159374Q250.92188 26.940624 251.73438 26.940624Q252.95312 26.940624 253.875 27.3Q254.79688 27.64375 255.23438 28.253124Q255.67188 28.846874 255.84375 29.846874L254.125 30.08125Q254.0 29.284374 253.4375 28.846874Q252.875 28.39375 251.85938 28.39375Q250.64062 28.39375 250.125 28.8Q249.60938 29.190624 249.60938 29.721874Q249.60938 30.065624 249.82812 30.346874Q250.03125 30.628124 250.5 30.815624Q250.76562 30.909374 252.04688 31.253124Q253.92188 31.753124 254.65625 32.08125Q255.39062 32.39375 255.8125 33.003124Q256.23438 33.596874 256.23438 34.503124Q256.23438 35.378124 255.71875 36.159374Q255.20312 36.940624 254.23438 37.3625Q253.26562 37.784374 252.04688 37.784374Q250.03125 37.784374 248.96875 36.940624Q247.90625 36.096874 247.60938 34.45625ZM274.76562 32.534374L276.65625 33.003124Q276.0625 35.346874 274.51562 36.58125Q272.96875 37.8 270.71875 37.8Q268.40625 37.8 266.95312 36.8625Q265.51562 35.909374 264.75 34.128124Q264.0 32.33125 264.0 30.284374Q264.0 28.05 264.84375 26.39375Q265.70312 24.721874 267.28125 23.8625Q268.85938 22.9875 270.75 22.9875Q272.90625 22.9875 274.35938 24.08125Q275.82812 25.175 276.40625 27.159374L274.54688 27.596874Q274.04688 26.034374 273.09375 25.33125Q272.15625 24.6125 270.71875 24.6125Q269.0625 24.6125 267.95312 25.409374Q266.84375 26.190624 266.39062 27.534374Q265.95312 28.8625 265.95312 30.26875Q265.95312 32.096874 266.48438 33.471874Q267.01562 34.83125 268.14062 35.503124Q269.26562 36.175 270.5625 36.175Q272.15625 36.175 273.26562 35.253124Q274.375 34.33125 274.76562 32.534374ZM277.67188 32.3625Q277.67188 29.4875 279.26562 28.096874Q280.60938 26.940624 282.53125 26.940624Q284.67188 26.940624 286.01562 28.346874Q287.375 29.753124 287.375 32.221874Q287.375 34.221874 286.78125 35.378124Q286.1875 36.51875 285.03125 37.159374Q283.89062 37.784374 282.53125 37.784374Q280.34375 37.784374 279.0 36.39375Q277.67188 34.9875 277.67188 32.3625ZM279.46875 32.3625Q279.46875 34.3625 280.32812 35.346874Q281.20312 36.33125 282.53125 36.33125Q283.84375 36.33125 284.70312 35.346874Q285.57812 34.346874 285.57812 32.3Q285.57812 30.378124 284.70312 29.39375Q283.82812 28.39375 282.53125 28.39375Q281.20312 28.39375 280.32812 29.39375Q279.46875 30.378124 279.46875 32.3625ZM289.3125 37.55L289.3125 27.175L290.89062 27.175L290.89062 28.628124Q291.375 27.878124 292.1875 27.409374Q293.0 26.940624 294.03125 26.940624Q295.1875 26.940624 295.92188 27.425Q296.65625 27.89375 296.96875 28.753124Q298.20312 26.940624 300.17188 26.940624Q301.71875 26.940624 302.54688 27.8Q303.375 28.659374 303.375 30.425L303.375 37.55L301.625 37.55L301.625 31.01875Q301.625 29.95625 301.45312 29.503124Q301.28125 29.034374 300.82812 28.753124Q300.39062 28.471874 299.78125 28.471874Q298.6875 28.471874 297.95312 29.20625Q297.23438 29.925 297.23438 31.51875L297.23438 37.55L295.48438 37.55L295.48438 30.815624Q295.48438 29.64375 295.04688 29.065624Q294.625 28.471874 293.64062 28.471874Q292.90625 28.471874 292.26562 28.8625Q291.64062 29.253124 291.35938 30.003124Q291.07812 30.753124 291.07812 32.175L291.07812 37.55L289.3125 37.55ZM306.3125 37.55L306.3125 27.175L307.89062 27.175L307.89062 28.628124Q308.375 27.878124 309.1875 27.409374Q310.0 26.940624 311.03125 26.940624Q312.1875 26.940624 312.92188 27.425Q313.65625 27.89375 313.96875 28.753124Q315.20312 26.940624 317.17188 26.940624Q318.71875 26.940624 319.54688 27.8Q320.375 28.659374 320.375 30.425L320.375 37.55L318.625 37.55L318.625 31.01875Q318.625 29.95625 318.45312 29.503124Q318.28125 29.034374 317.82812 28.753124Q317.39062 28.471874 316.78125 28.471874Q315.6875 28.471874 314.95312 29.20625Q314.23438 29.925 314.23438 31.51875L314.23438 37.55L312.48438 37.55L312.48438 30.815624Q312.48438 29.64375 312.04688 29.065624Q311.625 28.471874 310.64062 28.471874Q309.90625 28.471874 309.26562 28.8625Q308.64062 29.253124 308.35938 30.003124Q308.07812 30.753124 308.07812 32.175L308.07812 37.55L306.3125 37.55ZM330.42188 34.20625L332.23438 34.440624Q331.8125 36.01875 330.64062 36.909374Q329.48438 37.784374 327.67188 37.784374Q325.40625 37.784374 324.0625 36.39375Q322.73438 34.9875 322.73438 32.45625Q322.73438 29.83125 324.07812 28.39375Q325.42188 26.940624 327.57812 26.940624Q329.65625 26.940624 330.96875 28.3625Q332.29688 29.76875 332.29688 32.346874Q332.29688 32.503124 332.28125 32.815624L324.54688 32.815624Q324.64062 34.51875 325.51562 35.425Q326.39062 36.33125 327.6875 36.33125Q328.65625 36.33125 329.32812 35.83125Q330.01562 35.315624 330.42188 34.20625ZM324.64062 31.3625L330.4375 31.3625Q330.32812 30.065624 329.78125 29.409374Q328.9375 28.39375 327.59375 28.39375Q326.39062 28.39375 325.5625 29.20625Q324.73438 30.003124 324.64062 31.3625ZM334.3125 37.55L334.3125 27.175L335.90625 27.175L335.90625 28.659374Q337.04688 26.940624 339.20312 26.940624Q340.14062 26.940624 340.92188 27.284374Q341.71875 27.6125 342.10938 28.159374Q342.5 28.70625 342.65625 29.45625Q342.75 29.95625 342.75 31.175L342.75 37.55L340.98438 37.55L340.98438 31.2375Q340.98438 30.159374 340.78125 29.628124Q340.57812 29.096874 340.04688 28.784374Q339.53125 28.471874 338.82812 28.471874Q337.70312 28.471874 336.89062 29.190624Q336.07812 29.89375 336.07812 31.878124L336.07812 37.55L334.3125 37.55ZM349.15625 35.971874L349.40625 37.534374Q348.67188 37.690624 348.07812 37.690624Q347.125 37.690624 346.59375 37.39375Q346.07812 37.08125 345.85938 36.596874Q345.64062 36.096874 345.64062 34.51875L345.64062 28.55L344.35938 28.55L344.35938 27.175L345.64062 27.175L345.64062 24.6125L347.39062 23.55L347.39062 27.175L349.15625 27.175L349.15625 28.55L347.39062 28.55L347.39062 34.6125Q347.39062 35.3625 347.48438 35.58125Q347.57812 35.784374 347.78125 35.925Q348.0 36.05 348.39062 36.05Q348.67188 36.05 349.15625 35.971874ZM350.60938 34.45625L352.35938 34.175Q352.5 35.221874 353.17188 35.784374Q353.84375 36.33125 355.04688 36.33125Q356.25 36.33125 356.82812 35.846874Q357.42188 35.346874 357.42188 34.690624Q357.42188 34.096874 356.90625 33.753124Q356.54688 33.51875 355.10938 33.159374Q353.17188 32.659374 352.42188 32.315624Q351.6875 31.95625 351.29688 31.33125Q350.90625 30.690624 350.90625 29.925Q350.90625 29.2375 351.21875 28.64375Q351.54688 28.05 352.09375 27.659374Q352.5 27.3625 353.20312 27.159374Q353.92188 26.940624 354.73438 26.940624Q355.95312 26.940624 356.875 27.3Q357.79688 27.64375 358.23438 28.253124Q358.67188 28.846874 358.84375 29.846874L357.125 30.08125Q357.0 29.284374 356.4375 28.846874Q355.875 28.39375 354.85938 28.39375Q353.64062 28.39375 353.125 28.8Q352.60938 29.190624 352.60938 29.721874Q352.60938 30.065624 352.82812 30.346874Q353.03125 30.628124 353.5 30.815624Q353.76562 30.909374 355.04688 31.253124Q356.92188 31.753124 357.65625 32.08125Q358.39062 32.39375 358.8125 33.003124Q359.23438 33.596874 359.23438 34.503124Q359.23438 35.378124 358.71875 36.159374Q358.20312 36.940624 357.23438 37.3625Q356.26562 37.784374 355.04688 37.784374Q353.03125 37.784374 351.96875 36.940624Q350.90625 36.096874 350.60938 34.45625ZM367.46875 37.55L367.46875 23.2375L372.84375 23.2375Q374.48438 23.2375 375.46875 23.675Q376.45312 24.096874 377.01562 25.003124Q377.57812 25.909374 377.57812 26.89375Q377.57812 27.815624 377.07812 28.628124Q376.59375 29.440624 375.57812 29.925Q376.875 30.315624 377.57812 31.2375Q378.28125 32.14375 378.28125 33.39375Q378.28125 34.409374 377.84375 35.26875Q377.42188 36.128124 376.79688 36.596874Q376.17188 37.065624 375.23438 37.315624Q374.29688 37.55 372.92188 37.55L367.46875 37.55ZM369.35938 29.253124L372.45312 29.253124Q373.71875 29.253124 374.26562 29.08125Q374.98438 28.8625 375.34375 28.378124Q375.71875 27.878124 375.71875 27.1125Q375.71875 26.409374 375.375 25.8625Q375.03125 25.315624 374.39062 25.128124Q373.76562 24.925 372.21875 24.925L369.35938 24.925L369.35938 29.253124ZM369.35938 35.8625L372.92188 35.8625Q373.84375 35.8625 374.21875 35.784374Q374.875 35.675 375.3125 35.409374Q375.75 35.128124 376.03125 34.6125Q376.3125 34.08125 376.3125 33.39375Q376.3125 32.596874 375.90625 32.003124Q375.5 31.409374 374.76562 31.175Q374.03125 30.940624 372.67188 30.940624L369.35938 30.940624L369.35938 35.8625ZM380.23438 41.55L380.04688 39.89375Q380.625 40.05 381.04688 40.05Q381.64062 40.05 381.98438 39.846874Q382.34375 39.659374 382.5625 39.315624Q382.73438 39.05 383.10938 38.003124Q383.15625 37.846874 383.26562 37.565624L379.32812 27.175L381.21875 27.175L383.375 33.190624Q383.79688 34.33125 384.125 35.58125Q384.4375 34.378124 384.84375 33.221874L387.0625 27.175L388.82812 27.175L384.875 37.721874Q384.25 39.440624 383.89062 40.08125Q383.42188 40.95625 382.8125 41.346874Q382.21875 41.753124 381.375 41.753124Q380.85938 41.753124 380.23438 41.55ZM396.85938 37.55L396.85938 23.2375L398.76562 23.2375L398.76562 37.55L396.85938 37.55ZM402.3125 37.55L402.3125 27.175L403.90625 27.175L403.90625 28.659374Q405.04688 26.940624 407.20312 26.940624Q408.14062 26.940624 408.92188 27.284374Q409.71875 27.6125 410.10938 28.159374Q410.5 28.70625 410.65625 29.45625Q410.75 29.95625 410.75 31.175L410.75 37.55L408.98438 37.55L408.98438 31.2375Q408.98438 30.159374 408.78125 29.628124Q408.57812 29.096874 408.04688 28.784374Q407.53125 28.471874 406.82812 28.471874Q405.70312 28.471874 404.89062 29.190624Q404.07812 29.89375 404.07812 31.878124L404.07812 37.55L402.3125 37.55ZM417.15625 35.971874L417.40625 37.534374Q416.67188 37.690624 416.07812 37.690624Q415.125 37.690624 414.59375 37.39375Q414.07812 37.08125 413.85938 36.596874Q413.64062 36.096874 413.64062 34.51875L413.64062 28.55L412.35938 28.55L412.35938 27.175L413.64062 27.175L413.64062 24.6125L415.39062 23.55L415.39062 27.175L417.15625 27.175L417.15625 28.55L415.39062 28.55L415.39062 34.6125Q415.39062 35.3625 415.48438 35.58125Q415.57812 35.784374 415.78125 35.925Q416.0 36.05 416.39062 36.05Q416.67188 36.05 417.15625 35.971874ZM426.42188 34.20625L428.23438 34.440624Q427.8125 36.01875 426.64062 36.909374Q425.48438 37.784374 423.67188 37.784374Q421.40625 37.784374 420.0625 36.39375Q418.73438 34.9875 418.73438 32.45625Q418.73438 29.83125 420.07812 28.39375Q421.42188 26.940624 423.57812 26.940624Q425.65625 26.940624 426.96875 28.3625Q428.29688 29.76875 428.29688 32.346874Q428.29688 32.503124 428.28125 32.815624L420.54688 32.815624Q420.64062 34.51875 421.51562 35.425Q422.39062 36.33125 423.6875 36.33125Q424.65625 36.33125 425.32812 35.83125Q426.01562 35.315624 426.42188 34.20625ZM420.64062 31.3625L426.4375 31.3625Q426.32812 30.065624 425.78125 29.409374Q424.9375 28.39375 423.59375 28.39375Q422.39062 28.39375 421.5625 29.20625Q420.73438 30.003124 420.64062 31.3625ZM430.3125 37.55L430.3125 27.175L431.90625 27.175L431.90625 28.659374Q433.04688 26.940624 435.20312 26.940624Q436.14062 26.940624 436.92188 27.284374Q437.71875 27.6125 438.10938 28.159374Q438.5 28.70625 438.65625 29.45625Q438.75 29.95625 438.75 31.175L438.75 37.55L436.98438 37.55L436.98438 31.2375Q436.98438 30.159374 436.78125 29.628124Q436.57812 29.096874 436.04688 28.784374Q435.53125 28.471874 434.82812 28.471874Q433.70312 28.471874 432.89062 29.190624Q432.07812 29.89375 432.07812 31.878124L432.07812 37.55L430.3125 37.55ZM445.15625 35.971874L445.40625 37.534374Q444.67188 37.690624 444.07812 37.690624Q443.125 37.690624 442.59375 37.39375Q442.07812 37.08125 441.85938 36.596874Q441.64062 36.096874 441.64062 34.51875L441.64062 28.55L440.35938 28.55L440.35938 27.175L441.64062 27.175L441.64062 24.6125L443.39062 23.55L443.39062 27.175L445.15625 27.175L445.15625 28.55L443.39062 28.55L443.39062 34.6125Q443.39062 35.3625 443.48438 35.58125Q443.57812 35.784374 443.78125 35.925Q444.0 36.05 444.39062 36.05Q444.67188 36.05 445.15625 35.971874Z" fill-rule="nonzero"/></svg>