<svg version="1.1" viewBox="0.0 0.0 536.0 414.0" fill="none" stroke="none" stroke-linecap="square" stroke-miterlimit="10" width="536" height="414" xmlns:xlink="http://www.w3.org/1999/xlink" xmlns="http://www.w3.org/2000/svg"><path fill="#ffffff" d="M0 0L536.0 0L536.0 414.0L0 414.0L0 0Z" fill-rule="nonzero"/><path fill="#5cc6e4" d="M268.0 58.5C342.13498 58.5 407.44022 107.2611 428.5021 178.3413C449.56403 249.42148 421.36554 325.88885 359.198 366.27695L268.0 225.9Z" fill-rule="nonzero"/><path fill="#244e58" d="M246.2251 59.92225C253.44473 58.975094 260.71848 58.5 268.0 58.5L268.0 225.9Z" fill-rule="nonzero"/><path fill="#fbbc04" d="M112.23514 287.2194C93.35694 239.26457 97.61981 185.28716 123.791504 140.89017C149.9632 96.49319 195.12607 66.62602 246.2251 59.92225L268.0 225.9Z" fill-rule="nonzero"/><path fill="#ca445e" d="M359.198 366.27695C317.05084 393.65848 264.8311 400.6537 216.9633 385.3303C169.09552 370.0069 130.64583 333.98666 112.23514 287.2194L268.0 225.9Z" fill-rule="nonzero"/><path fill="#1a1a1a" d="M27.2625 60.90625L28.403126 60.90625L28.403126 65.875Q28.403126 67.171875 28.10625 67.9375Q27.809376 68.6875 27.04375 69.171875Q26.278126 69.640625 25.04375 69.640625Q23.840626 69.640625 23.059376 69.234375Q22.29375 68.8125 21.965626 68.03125Q21.6375 67.234375 21.6375 65.875L21.6375 60.90625L22.778126 60.90625L22.778126 65.859375Q22.778126 66.984375 22.98125 67.515625Q23.2 68.046875 23.7 68.34375Q24.215626 68.625 24.95 68.625Q26.2 68.625 26.73125 68.0625Q27.2625 67.484375 27.2625 65.859375L27.2625 60.90625ZM30.496876 69.5L30.496876 63.28125L31.434376 63.28125L31.434376 64.15625Q32.121876 63.140625 33.41875 63.140625Q33.98125 63.140625 34.45 63.34375Q34.934376 63.546875 35.16875 63.875Q35.403126 64.203125 35.496876 64.640625Q35.54375 64.9375 35.54375 65.671875L35.54375 69.5L34.496876 69.5L34.496876 65.71875Q34.496876 65.0625 34.371876 64.75Q34.246876 64.4375 33.934376 64.25Q33.621876 64.046875 33.2 64.046875Q32.528126 64.046875 32.028126 64.484375Q31.54375 64.90625 31.54375 66.09375L31.54375 69.5L30.496876 69.5ZM41.559376 68.734375Q40.965626 69.234375 40.41875 69.4375Q39.8875 69.640625 39.2625 69.640625Q38.23125 69.640625 37.684376 69.140625Q37.1375 68.640625 37.1375 67.859375Q37.1375 67.40625 37.340626 67.03125Q37.54375 66.640625 37.8875 66.421875Q38.23125 66.1875 38.653126 66.078125Q38.95 65.984375 39.590626 65.90625Q40.85625 65.765625 41.465626 65.546875Q41.465626 65.328125 41.465626 65.28125Q41.465626 64.625 41.16875 64.359375Q40.7625 64.015625 39.965626 64.015625Q39.23125 64.015625 38.871876 64.28125Q38.5125 64.53125 38.340626 65.1875L37.309376 65.046875Q37.45 64.390625 37.778126 63.984375Q38.10625 63.578125 38.715626 63.359375Q39.325 63.140625 40.121876 63.140625Q40.91875 63.140625 41.41875 63.328125Q41.91875 63.515625 42.153126 63.796875Q42.3875 64.078125 42.48125 64.515625Q42.528126 64.78125 42.528126 65.484375L42.528126 66.890625Q42.528126 68.359375 42.590626 68.75Q42.66875 69.140625 42.871876 69.5L41.7625 69.5Q41.60625 69.171875 41.559376 68.734375ZM41.465626 66.375Q40.8875 66.609375 39.746876 66.78125Q39.090626 66.875 38.825 67.0Q38.559376 67.109375 38.403126 67.328125Q38.2625 67.546875 38.2625 67.828125Q38.2625 68.25 38.575 68.53125Q38.903126 68.8125 39.5125 68.8125Q40.121876 68.8125 40.590626 68.546875Q41.075 68.28125 41.29375 67.8125Q41.465626 67.453125 41.465626 66.765625L41.465626 66.375ZM44.496876 69.5L44.496876 63.28125L45.434376 63.28125L45.434376 64.15625Q46.121876 63.140625 47.41875 63.140625Q47.98125 63.140625 48.45 63.34375Q48.934376 63.546875 49.16875 63.875Q49.403126 64.203125 49.496876 64.640625Q49.54375 64.9375 49.54375 65.671875L49.54375 69.5L48.496876 69.5L48.496876 65.71875Q48.496876 65.0625 48.371876 64.75Q48.246876 64.4375 47.934376 64.25Q47.621876 64.046875 47.2 64.046875Q46.528126 64.046875 46.028126 64.484375Q45.54375 64.90625 45.54375 66.09375L45.54375 69.5L44.496876 69.5ZM51.075 67.640625L52.10625 67.484375Q52.2 68.109375 52.590626 68.4375Q52.996876 68.765625 53.73125 68.765625Q54.45 68.765625 54.79375 68.484375Q55.153126 68.1875 55.153126 67.78125Q55.153126 67.421875 54.840626 67.21875Q54.621876 67.078125 53.7625 66.859375Q52.60625 66.5625 52.153126 66.359375Q51.715626 66.140625 51.48125 65.765625Q51.246876 65.390625 51.246876 64.921875Q51.246876 64.515625 51.434376 64.15625Q51.621876 63.796875 51.95 63.5625Q52.2 63.390625 52.621876 63.265625Q53.04375 63.140625 53.54375 63.140625Q54.2625 63.140625 54.809376 63.359375Q55.371876 63.5625 55.6375 63.921875Q55.903126 64.28125 55.996876 64.875L54.965626 65.015625Q54.903126 64.546875 54.559376 64.28125Q54.23125 64.0 53.60625 64.0Q52.8875 64.0 52.575 64.25Q52.2625 64.484375 52.2625 64.8125Q52.2625 65.015625 52.3875 65.171875Q52.528126 65.34375 52.79375 65.453125Q52.95 65.515625 53.73125 65.71875Q54.85625 66.03125 55.29375 66.21875Q55.73125 66.40625 55.98125 66.765625Q56.23125 67.125 56.23125 67.671875Q56.23125 68.203125 55.91875 68.671875Q55.621876 69.125 55.04375 69.390625Q54.465626 69.640625 53.73125 69.640625Q52.5125 69.640625 51.871876 69.140625Q51.246876 68.625 51.075 67.640625ZM58.6375 69.5L56.73125 63.28125L57.825 63.28125L58.809376 66.875L59.184376 68.203125Q59.215626 68.109375 59.5125 66.921875L60.496876 63.28125L61.575 63.28125L62.5125 66.890625L62.825 68.078125L63.184376 66.875L64.24687 63.28125L65.27812 63.28125L63.325 69.5L62.23125 69.5L61.246876 65.765625L60.996876 64.71875L59.746876 69.5L58.6375 69.5ZM70.74687 67.5L71.84062 67.625Q71.59062 68.578125 70.8875 69.109375Q70.18437 69.640625 69.10625 69.640625Q67.74687 69.640625 66.93437 68.796875Q66.1375 67.953125 66.1375 66.4375Q66.1375 64.875 66.95 64.015625Q67.7625 63.140625 69.04375 63.140625Q70.29375 63.140625 71.075 63.984375Q71.87187 64.828125 71.87187 66.375Q71.87187 66.46875 71.87187 66.65625L67.23125 66.65625Q67.29375 67.6875 67.80937 68.234375Q68.325 68.765625 69.10625 68.765625Q69.68437 68.765625 70.09062 68.46875Q70.5125 68.15625 70.74687 67.5ZM67.29375 65.796875L70.7625 65.796875Q70.7 65.0 70.37187 64.609375Q69.85625 64.0 69.05937 64.0Q68.325 64.0 67.825 64.484375Q67.34062 64.96875 67.29375 65.796875ZM73.48125 69.5L73.48125 63.28125L74.43437 63.28125L74.43437 64.21875Q74.79375 63.5625 75.09062 63.359375Q75.40312 63.140625 75.77812 63.140625Q76.30937 63.140625 76.85625 63.46875L76.49687 64.453125Q76.10625 64.21875 75.73125 64.21875Q75.37187 64.21875 75.09062 64.4375Q74.825 64.640625 74.71562 65.015625Q74.52812 65.578125 74.52812 66.234375L74.52812 69.5L73.48125 69.5ZM81.74687 67.5L82.84062 67.625Q82.59062 68.578125 81.8875 69.109375Q81.18437 69.640625 80.10625 69.640625Q78.74687 69.640625 77.93437 68.796875Q77.1375 67.953125 77.1375 66.4375Q77.1375 64.875 77.95 64.015625Q78.7625 63.140625 80.04375 63.140625Q81.29375 63.140625 82.075 63.984375Q82.87187 64.828125 82.87187 66.375Q82.87187 66.46875 82.87187 66.65625L78.23125 66.65625Q78.29375 67.6875 78.80937 68.234375Q79.325 68.765625 80.10625 68.765625Q80.68437 68.765625 81.09062 68.46875Q81.5125 68.15625 81.74687 67.5ZM78.29375 65.796875L81.7625 65.796875Q81.7 65.0 81.37187 64.609375Q80.85625 64.0 80.05937 64.0Q79.325 64.0 78.825 64.484375Q78.34062 64.96875 78.29375 65.796875ZM88.52812 69.5L88.52812 68.71875Q87.93437 69.640625 86.79375 69.640625Q86.04375 69.640625 85.41875 69.234375Q84.79375 68.8125 84.45 68.078125Q84.10625 67.34375 84.10625 66.390625Q84.10625 65.46875 84.41875 64.703125Q84.73125 63.9375 85.35625 63.546875Q85.98125 63.140625 86.74687 63.140625Q87.30937 63.140625 87.74687 63.375Q88.18437 63.609375 88.46562 63.984375L88.46562 60.90625L89.5125 60.90625L89.5125 69.5L88.52812 69.5ZM85.2 66.390625Q85.2 67.59375 85.7 68.1875Q86.2 68.765625 86.8875 68.765625Q87.575 68.765625 88.05937 68.203125Q88.54375 67.640625 88.54375 66.484375Q88.54375 65.203125 88.04375 64.609375Q87.55937 64.015625 86.84062 64.015625Q86.1375 64.015625 85.66875 64.59375Q85.2 65.15625 85.2 66.390625Z" fill-rule="nonzero"/><path fill="#9e9e9e" d="M26.746876 85.484375L26.746876 86.5L21.059376 86.5Q21.059376 86.125 21.184376 85.765625Q21.403126 85.1875 21.871876 84.625Q22.35625 84.0625 23.2625 83.328125Q24.66875 82.171875 25.153126 81.5Q25.653126 80.828125 25.653126 80.234375Q25.653126 79.609375 25.2 79.1875Q24.746876 78.75 24.028126 78.75Q23.2625 78.75 22.809376 79.203125Q22.35625 79.65625 22.340626 80.46875L21.2625 80.359375Q21.371876 79.140625 22.090626 78.515625Q22.825 77.875 24.059376 77.875Q25.29375 77.875 26.0125 78.5625Q26.73125 79.25 26.73125 80.265625Q26.73125 80.78125 26.5125 81.28125Q26.309376 81.765625 25.809376 82.328125Q25.325 82.875 24.2 83.828125Q23.246876 84.625 22.965626 84.921875Q22.7 85.203125 22.528126 85.484375L26.746876 85.484375ZM28.79375 86.5L28.79375 85.296875L29.996876 85.296875L29.996876 86.5L28.79375 86.5ZM35.16875 86.5L34.121876 86.5L34.121876 79.78125Q33.73125 80.140625 33.10625 80.515625Q32.496876 80.875 32.0125 81.046875L32.0125 80.03125Q32.8875 79.609375 33.54375 79.03125Q34.215626 78.4375 34.496876 77.875L35.16875 77.875L35.16875 86.5ZM38.403126 79.96875Q38.403126 79.046875 38.85625 78.40625Q39.325 77.765625 40.2 77.765625Q41.0125 77.765625 41.54375 78.34375Q42.075 78.921875 42.075 80.03125Q42.075 81.125 41.528126 81.71875Q40.996876 82.296875 40.215626 82.296875Q39.434376 82.296875 38.91875 81.71875Q38.403126 81.140625 38.403126 79.96875ZM40.23125 78.484375Q39.840626 78.484375 39.575 78.828125Q39.325 79.171875 39.325 80.078125Q39.325 80.90625 39.575 81.25Q39.840626 81.578125 40.23125 81.578125Q40.6375 81.578125 40.8875 81.234375Q41.153126 80.890625 41.153126 80.0Q41.153126 79.15625 40.8875 78.828125Q40.621876 78.484375 40.23125 78.484375ZM40.23125 86.8125L44.934376 77.765625L45.79375 77.765625L41.10625 86.8125L40.23125 86.8125ZM43.95 84.484375Q43.95 83.5625 44.403126 82.921875Q44.871876 82.28125 45.7625 82.28125Q46.575 82.28125 47.10625 82.859375Q47.6375 83.421875 47.6375 84.546875Q47.6375 85.640625 47.090626 86.234375Q46.559376 86.8125 45.7625 86.8125Q44.996876 86.8125 44.465626 86.234375Q43.95 85.65625 43.95 84.484375ZM45.79375 83.0Q45.3875 83.0 45.121876 83.34375Q44.871876 83.6875 44.871876 84.59375Q44.871876 85.40625 45.1375 85.75Q45.403126 86.09375 45.79375 86.09375Q46.184376 86.09375 46.45 85.75Q46.715626 85.40625 46.715626 84.5Q46.715626 83.671875 46.45 83.34375Q46.184376 83.0 45.79375 83.0Z" fill-rule="nonzero"/><path stroke="#757575" stroke-width="1.0" stroke-linecap="butt" d="M20.7 74.0L94.6 74.0L257.6349 67.208145" fill-rule="nonzero"/><path fill="#9e9e9e" d="M259.6349 67.208145C259.6349 66.10358 258.73944 65.208145 257.6349 65.208145C256.5303 65.208145 255.63487 66.10358 255.63487 67.208145C255.63487 68.31271 256.5303 69.208145 257.6349 69.208145C258.73944 69.208145 259.6349 68.31271 259.6349 67.208145" fill-rule="nonzero"/><path fill="#1a1a1a" d="M21.621876 140.64067L21.621876 132.04692L22.778126 132.04692L27.29375 138.79692L27.29375 132.04692L28.3875 132.04692L28.3875 140.64067L27.215626 140.64067L22.7 133.89067L22.7 140.64067L21.621876 140.64067ZM30.10625 137.5313Q30.10625 135.79692 31.059376 134.9688Q31.85625 134.2813 33.0125 134.2813Q34.29375 134.2813 35.10625 135.12505Q35.934376 135.95317 35.934376 137.43755Q35.934376 138.64067 35.575 139.32817Q35.215626 140.01567 34.5125 140.4063Q33.825 140.7813 33.0125 140.7813Q31.715626 140.7813 30.903126 139.95317Q30.10625 139.10942 30.10625 137.5313ZM31.184376 137.5313Q31.184376 138.7188 31.7 139.31255Q32.23125 139.9063 33.0125 139.9063Q33.809376 139.9063 34.325 139.31255Q34.840626 138.7188 34.840626 137.50005Q34.840626 136.3438 34.309376 135.75005Q33.79375 135.1563 33.0125 135.1563Q32.23125 135.1563 31.7 135.75005Q31.184376 136.32817 31.184376 137.5313ZM39.79375 139.70317L39.95 140.62505Q39.496876 140.7188 39.153126 140.7188Q38.575 140.7188 38.2625 140.54692Q37.95 140.35942 37.809376 140.06255Q37.684376 139.76567 37.684376 138.81255L37.684376 135.23442L36.91875 135.23442L36.91875 134.42192L37.684376 134.42192L37.684376 132.87505L38.73125 132.25005L38.73125 134.42192L39.79375 134.42192L39.79375 135.23442L38.73125 135.23442L38.73125 138.87505Q38.73125 139.32817 38.778126 139.45317Q38.840626 139.57817 38.965626 139.6563Q39.090626 139.73442 39.325 139.73442Q39.5125 139.73442 39.79375 139.70317ZM47.746876 138.64067L48.840626 138.76567Q48.590626 139.7188 47.8875 140.25005Q47.184376 140.7813 46.10625 140.7813Q44.746876 140.7813 43.934376 139.93755Q43.1375 139.0938 43.1375 137.57817Q43.1375 136.01567 43.95 135.1563Q44.7625 134.2813 46.04375 134.2813Q47.29375 134.2813 48.075 135.12505Q48.871876 135.9688 48.871876 137.51567Q48.871876 137.60942 48.871876 137.79692L44.23125 137.79692Q44.29375 138.82817 44.809376 139.37505Q45.325 139.9063 46.10625 139.9063Q46.684376 139.9063 47.090626 139.60942Q47.5125 139.29692 47.746876 138.64067ZM44.29375 136.93755L47.7625 136.93755Q47.7 136.14067 47.371876 135.75005Q46.85625 135.14067 46.059376 135.14067Q45.325 135.14067 44.825 135.62505Q44.340626 136.10942 44.29375 136.93755ZM49.79375 140.64067L52.059376 137.4063L49.965626 134.42192L51.278126 134.42192L52.23125 135.87505Q52.496876 136.29692 52.66875 136.57817Q52.91875 136.18755 53.1375 135.89067L54.184376 134.42192L55.45 134.42192L53.29375 137.3438L55.60625 140.64067L54.325 140.64067L53.04375 138.70317L52.7 138.18755L51.059376 140.64067L49.79375 140.64067ZM60.559376 138.35942L61.590626 138.50005Q61.41875 139.56255 60.715626 140.17192Q60.0125 140.7813 58.996876 140.7813Q57.715626 140.7813 56.934376 139.95317Q56.16875 139.10942 56.16875 137.54692Q56.16875 136.54692 56.496876 135.79692Q56.840626 135.0313 57.5125 134.6563Q58.2 134.2813 59.0125 134.2813Q60.0125 134.2813 60.653126 134.79692Q61.309376 135.29692 61.496876 136.25005L60.465626 136.4063Q60.325 135.7813 59.95 135.4688Q59.575 135.14067 59.04375 135.14067Q58.246876 135.14067 57.746876 135.7188Q57.246876 136.2813 57.246876 137.51567Q57.246876 138.7813 57.73125 139.3438Q58.215626 139.9063 58.98125 139.9063Q59.60625 139.9063 60.0125 139.5313Q60.434376 139.1563 60.559376 138.35942ZM62.496876 133.26567L62.496876 132.04692L63.559376 132.04692L63.559376 133.26567L62.496876 133.26567ZM62.496876 140.64067L62.496876 134.42192L63.559376 134.42192L63.559376 140.64067L62.496876 140.64067ZM67.79375 139.70317L67.95 140.62505Q67.49687 140.7188 67.15312 140.7188Q66.575 140.7188 66.2625 140.54692Q65.95 140.35942 65.80937 140.06255Q65.68437 139.76567 65.68437 138.81255L65.68437 135.23442L64.91875 135.23442L64.91875 134.42192L65.68437 134.42192L65.68437 132.87505L66.73125 132.25005L66.73125 134.42192L67.79375 134.42192L67.79375 135.23442L66.73125 135.23442L66.73125 138.87505Q66.73125 139.32817 66.77812 139.45317Q66.84062 139.57817 66.96562 139.6563Q67.09062 139.73442 67.325 139.73442Q67.5125 139.73442 67.79375 139.70317ZM72.74687 138.64067L73.84062 138.76567Q73.59062 139.7188 72.8875 140.25005Q72.18437 140.7813 71.10625 140.7813Q69.74687 140.7813 68.93437 139.93755Q68.1375 139.0938 68.1375 137.57817Q68.1375 136.01567 68.95 135.1563Q69.7625 134.2813 71.04375 134.2813Q72.29375 134.2813 73.075 135.12505Q73.87187 135.9688 73.87187 137.51567Q73.87187 137.60942 73.87187 137.79692L69.23125 137.79692Q69.29375 138.82817 69.80937 139.37505Q70.325 139.9063 71.10625 139.9063Q71.68437 139.9063 72.09062 139.60942Q72.5125 139.29692 72.74687 138.64067ZM69.29375 136.93755L72.7625 136.93755Q72.7 136.14067 72.37187 135.75005Q71.85625 135.14067 71.05937 135.14067Q70.325 135.14067 69.825 135.62505Q69.34062 136.10942 69.29375 136.93755ZM79.52812 140.64067L79.52812 139.85942Q78.93437 140.7813 77.79375 140.7813Q77.04375 140.7813 76.41875 140.37505Q75.79375 139.95317 75.45 139.2188Q75.10625 138.48442 75.10625 137.5313Q75.10625 136.60942 75.41875 135.8438Q75.73125 135.07817 76.35625 134.68755Q76.98125 134.2813 77.74687 134.2813Q78.30937 134.2813 78.74687 134.51567Q79.18437 134.75005 79.46562 135.12505L79.46562 132.04692L80.5125 132.04692L80.5125 140.64067L79.52812 140.64067ZM76.2 137.5313Q76.2 138.73442 76.7 139.32817Q77.2 139.9063 77.8875 139.9063Q78.575 139.9063 79.05937 139.3438Q79.54375 138.7813 79.54375 137.62505Q79.54375 136.3438 79.04375 135.75005Q78.55937 135.1563 77.84062 135.1563Q77.1375 135.1563 76.66875 135.73442Q76.2 136.29692 76.2 137.5313Z" fill-rule="nonzero"/><path fill="#9e9e9e" d="M26.746876 156.62505L26.746876 157.64067L21.059376 157.64067Q21.059376 157.26567 21.184376 156.9063Q21.403126 156.32817 21.871876 155.76567Q22.35625 155.20317 23.2625 154.4688Q24.66875 153.31255 25.153126 152.64067Q25.653126 151.9688 25.653126 151.37505Q25.653126 150.75005 25.2 150.32817Q24.746876 149.89067 24.028126 149.89067Q23.2625 149.89067 22.809376 150.3438Q22.35625 150.79692 22.340626 151.60942L21.2625 151.50005Q21.371876 150.2813 22.090626 149.6563Q22.825 149.01567 24.059376 149.01567Q25.29375 149.01567 26.0125 149.70317Q26.73125 150.39067 26.73125 151.4063Q26.73125 151.92192 26.5125 152.42192Q26.309376 152.9063 25.809376 153.4688Q25.325 154.01567 24.2 154.9688Q23.246876 155.76567 22.965626 156.06255Q22.7 156.3438 22.528126 156.62505L26.746876 156.62505ZM29.825 152.98442Q29.16875 152.73442 28.840626 152.29692Q28.528126 151.8438 28.528126 151.23442Q28.528126 150.29692 29.2 149.6563Q29.8875 149.01567 30.996876 149.01567Q32.121876 149.01567 32.809376 149.67192Q33.496876 150.32817 33.496876 151.26567Q33.496876 151.85942 33.184376 152.29692Q32.871876 152.73442 32.23125 152.98442Q33.028126 153.23442 33.434376 153.81255Q33.840626 154.39067 33.840626 155.18755Q33.840626 156.2813 33.059376 157.0313Q32.29375 157.7813 31.0125 157.7813Q29.746876 157.7813 28.965626 157.0313Q28.184376 156.2813 28.184376 155.1563Q28.184376 154.31255 28.60625 153.75005Q29.04375 153.18755 29.825 152.98442ZM29.60625 151.18755Q29.60625 151.79692 29.996876 152.18755Q30.403126 152.57817 31.028126 152.57817Q31.6375 152.57817 32.028126 152.20317Q32.41875 151.81255 32.41875 151.25005Q32.41875 150.67192 32.0125 150.2813Q31.60625 149.87505 31.0125 149.87505Q30.403126 149.87505 29.996876 150.26567Q29.60625 150.6563 29.60625 151.18755ZM29.278126 155.1563Q29.278126 155.60942 29.48125 156.0313Q29.7 156.45317 30.121876 156.68755Q30.54375 156.92192 31.028126 156.92192Q31.778126 156.92192 32.2625 156.43755Q32.7625 155.95317 32.7625 155.20317Q32.7625 154.43755 32.2625 153.93755Q31.7625 153.43755 30.996876 153.43755Q30.246876 153.43755 29.7625 153.93755Q29.278126 154.42192 29.278126 155.1563ZM35.79375 157.64067L35.79375 156.43755L36.996876 156.43755L36.996876 157.64067L35.79375 157.64067ZM38.35625 155.6563L39.371876 155.56255Q39.496876 156.2813 39.85625 156.60942Q40.23125 156.92192 40.79375 156.92192Q41.278126 156.92192 41.6375 156.70317Q42.0125 156.4688 42.246876 156.10942Q42.48125 155.73442 42.6375 155.10942Q42.79375 154.4688 42.79375 153.81255Q42.79375 153.73442 42.79375 153.5938Q42.48125 154.0938 41.934376 154.42192Q41.3875 154.73442 40.746876 154.73442Q39.66875 154.73442 38.934376 153.9688Q38.2 153.18755 38.2 151.92192Q38.2 150.60942 38.965626 149.81255Q39.746876 149.01567 40.903126 149.01567Q41.73125 149.01567 42.41875 149.4688Q43.121876 149.92192 43.48125 150.76567Q43.840626 151.5938 43.840626 153.17192Q43.840626 154.81255 43.48125 155.79692Q43.1375 156.76567 42.41875 157.2813Q41.715626 157.7813 40.778126 157.7813Q39.7625 157.7813 39.121876 157.23442Q38.48125 156.67192 38.35625 155.6563ZM42.66875 151.85942Q42.66875 150.95317 42.184376 150.42192Q41.715626 149.89067 41.028126 149.89067Q40.325 149.89067 39.79375 150.4688Q39.278126 151.0313 39.278126 151.95317Q39.278126 152.76567 39.778126 153.2813Q40.278126 153.79692 40.996876 153.79692Q41.73125 153.79692 42.2 153.2813Q42.66875 152.76567 42.66875 151.85942ZM45.403126 151.10942Q45.403126 150.18755 45.85625 149.54692Q46.325 148.9063 47.2 148.9063Q48.0125 148.9063 48.54375 149.48442Q49.075 150.06255 49.075 151.17192Q49.075 152.26567 48.528126 152.85942Q47.996876 153.43755 47.215626 153.43755Q46.434376 153.43755 45.91875 152.85942Q45.403126 152.2813 45.403126 151.10942ZM47.23125 149.62505Q46.840626 149.62505 46.575 149.9688Q46.325 150.31255 46.325 151.2188Q46.325 152.04692 46.575 152.39067Q46.840626 152.7188 47.23125 152.7188Q47.6375 152.7188 47.8875 152.37505Q48.153126 152.0313 48.153126 151.14067Q48.153126 150.29692 47.8875 149.9688Q47.621876 149.62505 47.23125 149.62505ZM47.23125 157.95317L51.934376 148.9063L52.79375 148.9063L48.10625 157.95317L47.23125 157.95317ZM50.95 155.62505Q50.95 154.70317 51.403126 154.06255Q51.871876 153.42192 52.7625 153.42192Q53.575 153.42192 54.10625 154.00005Q54.6375 154.56255 54.6375 155.68755Q54.6375 156.7813 54.090626 157.37505Q53.559376 157.95317 52.7625 157.95317Q51.996876 157.95317 51.465626 157.37505Q50.95 156.79692 50.95 155.62505ZM52.79375 154.14067Q52.3875 154.14067 52.121876 154.48442Q51.871876 154.82817 51.871876 155.73442Q51.871876 156.54692 52.1375 156.89067Q52.403126 157.23442 52.79375 157.23442Q53.184376 157.23442 53.45 156.89067Q53.715626 156.54692 53.715626 155.64067Q53.715626 154.81255 53.45 154.48442Q53.184376 154.14067 52.79375 154.14067Z" fill-rule="nonzero"/><path stroke="#757575" stroke-width="1.0" stroke-linecap="butt" d="M20.7 145.14067L94.6 145.14067L131.00194 145.14067" fill-rule="nonzero"/><path fill="#9e9e9e" d="M133.00194 145.14067C133.00194 144.0361 132.1065 143.14067 131.00194 143.14067C129.89737 143.14067 129.00194 144.0361 129.00194 145.14067C129.00194 146.24524 129.89737 147.14067 131.00194 147.14067C132.1065 147.14067 133.00194 146.24524 133.00194 145.14067" fill-rule="nonzero"/><path fill="#1a1a1a" d="M21.621876 372.85876L21.621876 364.265L22.778126 364.265L27.29375 371.015L27.29375 364.265L28.3875 364.265L28.3875 372.85876L27.215626 372.85876L22.7 366.10876L22.7 372.85876L21.621876 372.85876ZM34.746876 370.85876L35.840626 370.98376Q35.590626 371.9369 34.8875 372.46814Q34.184376 372.9994 33.10625 372.9994Q31.746876 372.9994 30.934376 372.15564Q30.1375 371.3119 30.1375 369.79626Q30.1375 368.23376 30.95 367.3744Q31.7625 366.4994 33.04375 366.4994Q34.29375 366.4994 35.075 367.34314Q35.871876 368.1869 35.871876 369.73376Q35.871876 369.8275 35.871876 370.015L31.23125 370.015Q31.29375 371.04626 31.809376 371.59314Q32.325 372.1244 33.10625 372.1244Q33.684376 372.1244 34.090626 371.8275Q34.5125 371.515 34.746876 370.85876ZM31.29375 369.15564L34.7625 369.15564Q34.7 368.35876 34.371876 367.96814Q33.85625 367.35876 33.059376 367.35876Q32.325 367.35876 31.825 367.84314Q31.340626 368.3275 31.29375 369.15564ZM41.575 372.85876L41.575 371.9369Q40.840626 372.9994 39.590626 372.9994Q39.04375 372.9994 38.559376 372.79626Q38.090626 372.5775 37.85625 372.265Q37.621876 371.9369 37.528126 371.46814Q37.465626 371.17126 37.465626 370.48376L37.465626 366.64L38.528126 366.64L38.528126 370.09314Q38.528126 370.90564 38.590626 371.2025Q38.684376 371.60876 38.996876 371.85876Q39.325 372.09314 39.809376 372.09314Q40.278126 372.09314 40.684376 371.85876Q41.10625 371.60876 41.278126 371.1869Q41.465626 370.765 41.465626 369.96814L41.465626 366.64L42.5125 366.64L42.5125 372.85876L41.575 372.85876ZM46.79375 371.92126L46.95 372.84314Q46.496876 372.9369 46.153126 372.9369Q45.575 372.9369 45.2625 372.765Q44.95 372.5775 44.809376 372.28064Q44.684376 371.98376 44.684376 371.03064L44.684376 367.4525L43.91875 367.4525L43.91875 366.64L44.684376 366.64L44.684376 365.09314L45.73125 364.46814L45.73125 366.64L46.79375 366.64L46.79375 367.4525L45.73125 367.4525L45.73125 371.09314Q45.73125 371.54626 45.778126 371.67126Q45.840626 371.79626 45.965626 371.8744Q46.090626 371.9525 46.325 371.9525Q46.5125 371.9525 46.79375 371.92126ZM47.48125 372.85876L47.48125 366.64L48.434376 366.64L48.434376 367.5775Q48.79375 366.92126 49.090626 366.71814Q49.403126 366.4994 49.778126 366.4994Q50.309376 366.4994 50.85625 366.8275L50.496876 367.8119Q50.10625 367.5775 49.73125 367.5775Q49.371876 367.5775 49.090626 367.79626Q48.825 367.9994 48.715626 368.3744Q48.528126 368.9369 48.528126 369.59314L48.528126 372.85876L47.48125 372.85876ZM55.559376 372.09314Q54.965626 372.59314 54.41875 372.79626Q53.8875 372.9994 53.2625 372.9994Q52.23125 372.9994 51.684376 372.4994Q51.1375 371.9994 51.1375 371.21814Q51.1375 370.765 51.340626 370.39Q51.54375 369.9994 51.8875 369.78064Q52.23125 369.54626 52.653126 369.4369Q52.95 369.34314 53.590626 369.265Q54.85625 369.1244 55.465626 368.90564Q55.465626 368.6869 55.465626 368.64Q55.465626 367.98376 55.16875 367.71814Q54.7625 367.3744 53.965626 367.3744Q53.23125 367.3744 52.871876 367.64Q52.5125 367.89 52.340626 368.54626L51.309376 368.40564Q51.45 367.7494 51.778126 367.34314Q52.10625 366.9369 52.715626 366.71814Q53.325 366.4994 54.121876 366.4994Q54.91875 366.4994 55.41875 366.6869Q55.91875 366.8744 56.153126 367.15564Q56.3875 367.4369 56.48125 367.8744Q56.528126 368.14 56.528126 368.84314L56.528126 370.2494Q56.528126 371.71814 56.590626 372.10876Q56.66875 372.4994 56.871876 372.85876L55.7625 372.85876Q55.60625 372.53064 55.559376 372.09314ZM55.465626 369.73376Q54.8875 369.96814 53.746876 370.14Q53.090626 370.23376 52.825 370.35876Q52.559376 370.46814 52.403126 370.6869Q52.2625 370.90564 52.2625 371.1869Q52.2625 371.60876 52.575 371.89Q52.903126 372.17126 53.5125 372.17126Q54.121876 372.17126 54.590626 371.90564Q55.075 371.64 55.29375 371.17126Q55.465626 370.8119 55.465626 370.1244L55.465626 369.73376ZM58.465626 372.85876L58.465626 364.265L59.528126 364.265L59.528126 372.85876L58.465626 372.85876Z" fill-rule="nonzero"/><path fill="#9e9e9e" d="M26.746876 388.84314L26.746876 389.85876L21.059376 389.85876Q21.059376 389.48376 21.184376 389.1244Q21.403126 388.54626 21.871876 387.98376Q22.35625 387.42126 23.2625 386.6869Q24.66875 385.53064 25.153126 384.85876Q25.653126 384.1869 25.653126 383.59314Q25.653126 382.96814 25.2 382.54626Q24.746876 382.10876 24.028126 382.10876Q23.2625 382.10876 22.809376 382.5619Q22.35625 383.015 22.340626 383.8275L21.2625 383.71814Q21.371876 382.4994 22.090626 381.8744Q22.825 381.23376 24.059376 381.23376Q25.29375 381.23376 26.0125 381.92126Q26.73125 382.60876 26.73125 383.6244Q26.73125 384.14 26.5125 384.64Q26.309376 385.1244 25.809376 385.6869Q25.325 386.23376 24.2 387.1869Q23.246876 387.98376 22.965626 388.28064Q22.7 388.5619 22.528126 388.84314L26.746876 388.84314ZM29.825 385.2025Q29.16875 384.9525 28.840626 384.515Q28.528126 384.0619 28.528126 383.4525Q28.528126 382.515 29.2 381.8744Q29.8875 381.23376 30.996876 381.23376Q32.121876 381.23376 32.809376 381.89Q33.496876 382.54626 33.496876 383.48376Q33.496876 384.0775 33.184376 384.515Q32.871876 384.9525 32.23125 385.2025Q33.028126 385.4525 33.434376 386.03064Q33.840626 386.60876 33.840626 387.40564Q33.840626 388.4994 33.059376 389.2494Q32.29375 389.9994 31.0125 389.9994Q29.746876 389.9994 28.965626 389.2494Q28.184376 388.4994 28.184376 387.3744Q28.184376 386.53064 28.60625 385.96814Q29.04375 385.40564 29.825 385.2025ZM29.60625 383.40564Q29.60625 384.015 29.996876 384.40564Q30.403126 384.79626 31.028126 384.79626Q31.6375 384.79626 32.028126 384.42126Q32.41875 384.03064 32.41875 383.46814Q32.41875 382.89 32.0125 382.4994Q31.60625 382.09314 31.0125 382.09314Q30.403126 382.09314 29.996876 382.48376Q29.60625 382.8744 29.60625 383.40564ZM29.278126 387.3744Q29.278126 387.8275 29.48125 388.2494Q29.7 388.67126 30.121876 388.90564Q30.54375 389.14 31.028126 389.14Q31.778126 389.14 32.2625 388.65564Q32.7625 388.17126 32.7625 387.42126Q32.7625 386.65564 32.2625 386.15564Q31.7625 385.65564 30.996876 385.65564Q30.246876 385.65564 29.7625 386.15564Q29.278126 386.64 29.278126 387.3744ZM35.79375 389.85876L35.79375 388.65564L36.996876 388.65564L36.996876 389.85876L35.79375 389.85876ZM43.746876 388.84314L43.746876 389.85876L38.059376 389.85876Q38.059376 389.48376 38.184376 389.1244Q38.403126 388.54626 38.871876 387.98376Q39.35625 387.42126 40.2625 386.6869Q41.66875 385.53064 42.153126 384.85876Q42.653126 384.1869 42.653126 383.59314Q42.653126 382.96814 42.2 382.54626Q41.746876 382.10876 41.028126 382.10876Q40.2625 382.10876 39.809376 382.5619Q39.35625 383.015 39.340626 383.8275L38.2625 383.71814Q38.371876 382.4994 39.090626 381.8744Q39.825 381.23376 41.059376 381.23376Q42.29375 381.23376 43.0125 381.92126Q43.73125 382.60876 43.73125 383.6244Q43.73125 384.14 43.5125 384.64Q43.309376 385.1244 42.809376 385.6869Q42.325 386.23376 41.2 387.1869Q40.246876 387.98376 39.965626 388.28064Q39.7 388.5619 39.528126 388.84314L43.746876 388.84314ZM45.403126 383.3275Q45.403126 382.40564 45.85625 381.765Q46.325 381.1244 47.2 381.1244Q48.0125 381.1244 48.54375 381.7025Q49.075 382.28064 49.075 383.39Q49.075 384.48376 48.528126 385.0775Q47.996876 385.65564 47.215626 385.65564Q46.434376 385.65564 45.91875 385.0775Q45.403126 384.4994 45.403126 383.3275ZM47.23125 381.84314Q46.840626 381.84314 46.575 382.1869Q46.325 382.53064 46.325 383.4369Q46.325 384.265 46.575 384.60876Q46.840626 384.9369 47.23125 384.9369Q47.6375 384.9369 47.8875 384.59314Q48.153126 384.2494 48.153126 383.35876Q48.153126 382.515 47.8875 382.1869Q47.621876 381.84314 47.23125 381.84314ZM47.23125 390.17126L51.934376 381.1244L52.79375 381.1244L48.10625 390.17126L47.23125 390.17126ZM50.95 387.84314Q50.95 386.92126 51.403126 386.28064Q51.871876 385.64 52.7625 385.64Q53.575 385.64 54.10625 386.21814Q54.6375 386.78064 54.6375 387.90564Q54.6375 388.9994 54.090626 389.59314Q53.559376 390.17126 52.7625 390.17126Q51.996876 390.17126 51.465626 389.59314Q50.95 389.015 50.95 387.84314ZM52.79375 386.35876Q52.3875 386.35876 52.121876 386.7025Q51.871876 387.04626 51.871876 387.9525Q51.871876 388.765 52.1375 389.10876Q52.403126 389.4525 52.79375 389.4525Q53.184376 389.4525 53.45 389.10876Q53.715626 388.765 53.715626 387.85876Q53.715626 387.03064 53.45 386.7025Q53.184376 386.35876 52.79375 386.35876Z" fill-rule="nonzero"/><path stroke="#757575" stroke-width="1.0" stroke-linecap="butt" d="M20.7 377.35876L94.6 377.35876L219.51514 377.35876" fill-rule="nonzero"/><path fill="#9e9e9e" d="M221.51514 377.35876C221.51514 376.2542 220.61972 375.35876 219.51514 375.35876C218.41057 375.35876 217.51514 376.2542 217.51514 377.35876C217.51514 378.46335 218.41057 379.35876 219.51514 379.35876C220.61972 379.35876 221.51514 378.46335 221.51514 377.35876" fill-rule="nonzero"/><path fill="#1a1a1a" d="M476.2531 176.21922L476.2531 167.62547L482.45624 167.62547L482.45624 168.6411L477.39374 168.6411L477.39374 171.2661L482.14374 171.2661L482.14374 172.28172L477.39374 172.28172L477.39374 175.2036L482.65936 175.2036L482.65936 176.21922L476.2531 176.21922ZM483.39374 176.21922L485.65936 172.98485L483.5656 170.00047L484.8781 170.00047L485.83124 171.4536Q486.09686 171.87547 486.26874 172.15672Q486.51874 171.7661 486.7375 171.46922L487.78436 170.00047L489.05 170.00047L486.89374 172.92235L489.20624 176.21922L487.925 176.21922L486.64374 174.28172L486.3 173.7661L484.65936 176.21922L483.39374 176.21922ZM494.15936 173.93797L495.1906 174.0786Q495.01874 175.1411 494.3156 175.75047Q493.6125 176.35985 492.59686 176.35985Q491.3156 176.35985 490.53436 175.53172Q489.76874 174.68797 489.76874 173.12547Q489.76874 172.12547 490.09686 171.37547Q490.4406 170.60985 491.1125 170.23485Q491.8 169.85985 492.6125 169.85985Q493.6125 169.85985 494.2531 170.37547Q494.90936 170.87547 495.09686 171.8286L494.0656 171.98485Q493.925 171.35985 493.55 171.04735Q493.175 170.71922 492.64374 170.71922Q491.84686 170.71922 491.34686 171.29735Q490.84686 171.85985 490.84686 173.09422Q490.84686 174.35985 491.33124 174.92235Q491.8156 175.48485 492.58124 175.48485Q493.20624 175.48485 493.6125 175.10985Q494.03436 174.73485 494.15936 173.93797ZM496.09686 168.84422L496.09686 167.62547L497.15936 167.62547L497.15936 168.84422L496.09686 168.84422ZM496.09686 176.21922L496.09686 170.00047L497.15936 170.00047L497.15936 176.21922L496.09686 176.21922ZM501.39374 175.28172L501.55 176.2036Q501.09686 176.29735 500.7531 176.29735Q500.175 176.29735 499.8625 176.12547Q499.55 175.93797 499.40936 175.6411Q499.28436 175.34422 499.28436 174.3911L499.28436 170.81297L498.51874 170.81297L498.51874 170.00047L499.28436 170.00047L499.28436 168.4536L500.33124 167.8286L500.33124 170.00047L501.39374 170.00047L501.39374 170.81297L500.33124 170.81297L500.33124 174.4536Q500.33124 174.90672 500.3781 175.03172Q500.4406 175.15672 500.5656 175.23485Q500.6906 175.31297 500.925 175.31297Q501.1125 175.31297 501.39374 175.28172ZM506.34686 174.21922L507.4406 174.34422Q507.1906 175.29735 506.4875 175.8286Q505.78436 176.35985 504.70624 176.35985Q503.34686 176.35985 502.53436 175.5161Q501.7375 174.67235 501.7375 173.15672Q501.7375 171.59422 502.55 170.73485Q503.3625 169.85985 504.64374 169.85985Q505.89374 169.85985 506.675 170.7036Q507.47186 171.54735 507.47186 173.09422Q507.47186 173.18797 507.47186 173.37547L502.83124 173.37547Q502.89374 174.40672 503.40936 174.9536Q503.925 175.48485 504.70624 175.48485Q505.28436 175.48485 505.6906 175.18797Q506.1125 174.87547 506.34686 174.21922ZM502.89374 172.5161L506.3625 172.5161Q506.3 171.71922 505.97186 171.3286Q505.45624 170.71922 504.65936 170.71922Q503.925 170.71922 503.425 171.2036Q502.9406 171.68797 502.89374 172.5161ZM513.1281 176.21922L513.1281 175.43797Q512.53436 176.35985 511.39374 176.35985Q510.64374 176.35985 510.01874 175.9536Q509.39374 175.53172 509.05 174.79735Q508.70624 174.06297 508.70624 173.10985Q508.70624 172.18797 509.01874 171.42235Q509.33124 170.65672 509.95624 170.2661Q510.58124 169.85985 511.34686 169.85985Q511.90936 169.85985 512.34686 170.09422Q512.78436 170.3286 513.0656 170.7036L513.0656 167.62547L514.1125 167.62547L514.1125 176.21922L513.1281 176.21922ZM509.8 173.10985Q509.8 174.31297 510.3 174.90672Q510.8 175.48485 511.4875 175.48485Q512.175 175.48485 512.65936 174.92235Q513.14374 174.35985 513.14374 173.2036Q513.14374 171.92235 512.64374 171.3286Q512.15936 170.73485 511.4406 170.73485Q510.7375 170.73485 510.26874 171.31297Q509.8 171.87547 509.8 173.10985Z" fill-rule="nonzero"/><path fill="#9e9e9e" d="M484.175 193.21922L484.175 191.15672L480.45624 191.15672L480.45624 190.18797L484.3781 184.62547L485.2375 184.62547L485.2375 190.18797L486.39374 190.18797L486.39374 191.15672L485.2375 191.15672L485.2375 193.21922L484.175 193.21922ZM484.175 190.18797L484.175 186.3286L481.4875 190.18797L484.175 190.18797ZM487.8 188.98485Q487.8 187.4536 488.1125 186.53172Q488.425 185.59422 489.03436 185.09422Q489.65936 184.59422 490.59686 184.59422Q491.28436 184.59422 491.8 184.87547Q492.33124 185.15672 492.675 185.68797Q493.01874 186.2036 493.20624 186.9536Q493.39374 187.7036 493.39374 188.98485Q493.39374 190.50047 493.08124 191.42235Q492.78436 192.34422 492.15936 192.85985Q491.55 193.35985 490.59686 193.35985Q489.3625 193.35985 488.64374 192.46922Q487.8 191.40672 487.8 188.98485ZM488.8781 188.98485Q488.8781 191.09422 489.3781 191.79735Q489.8781 192.50047 490.59686 192.50047Q491.33124 192.50047 491.8156 191.79735Q492.3156 191.09422 492.3156 188.98485Q492.3156 186.85985 491.8156 186.17235Q491.33124 185.46922 490.58124 185.46922Q489.8625 185.46922 489.425 186.0786Q488.8781 186.85985 488.8781 188.98485ZM495.39374 193.21922L495.39374 192.0161L496.59686 192.0161L496.59686 193.21922L495.39374 193.21922ZM499.425 188.56297Q498.76874 188.31297 498.4406 187.87547Q498.1281 187.42235 498.1281 186.81297Q498.1281 185.87547 498.8 185.23485Q499.4875 184.59422 500.59686 184.59422Q501.72186 184.59422 502.40936 185.25047Q503.09686 185.90672 503.09686 186.84422Q503.09686 187.43797 502.78436 187.87547Q502.47186 188.31297 501.83124 188.56297Q502.6281 188.81297 503.03436 189.3911Q503.4406 189.96922 503.4406 190.7661Q503.4406 191.85985 502.65936 192.60985Q501.89374 193.35985 500.6125 193.35985Q499.34686 193.35985 498.5656 192.60985Q497.78436 191.85985 497.78436 190.73485Q497.78436 189.8911 498.20624 189.3286Q498.64374 188.7661 499.425 188.56297ZM499.20624 186.7661Q499.20624 187.37547 499.59686 187.7661Q500.0031 188.15672 500.6281 188.15672Q501.2375 188.15672 501.6281 187.78172Q502.01874 187.3911 502.01874 186.8286Q502.01874 186.25047 501.6125 185.85985Q501.20624 185.4536 500.6125 185.4536Q500.0031 185.4536 499.59686 185.84422Q499.20624 186.23485 499.20624 186.7661ZM498.8781 190.73485Q498.8781 191.18797 499.08124 191.60985Q499.3 192.03172 499.72186 192.2661Q500.14374 192.50047 500.6281 192.50047Q501.3781 192.50047 501.8625 192.0161Q502.3625 191.53172 502.3625 190.78172Q502.3625 190.0161 501.8625 189.5161Q501.3625 189.0161 500.59686 189.0161Q499.84686 189.0161 499.3625 189.5161Q498.8781 190.00047 498.8781 190.73485ZM505.0031 186.68797Q505.0031 185.7661 505.45624 185.12547Q505.925 184.48485 506.8 184.48485Q507.6125 184.48485 508.14374 185.06297Q508.675 185.6411 508.675 186.75047Q508.675 187.84422 508.1281 188.43797Q507.59686 189.0161 506.8156 189.0161Q506.03436 189.0161 505.51874 188.43797Q505.0031 187.85985 505.0031 186.68797ZM506.83124 185.2036Q506.4406 185.2036 506.175 185.54735Q505.925 185.8911 505.925 186.79735Q505.925 187.62547 506.175 187.96922Q506.4406 188.29735 506.83124 188.29735Q507.2375 188.29735 507.4875 187.9536Q507.7531 187.60985 507.7531 186.71922Q507.7531 185.87547 507.4875 185.54735Q507.22186 185.2036 506.83124 185.2036ZM506.83124 193.53172L511.53436 184.48485L512.39374 184.48485L507.70624 193.53172L506.83124 193.53172ZM510.55 191.2036Q510.55 190.28172 511.0031 189.6411Q511.47186 189.00047 512.3625 189.00047Q513.175 189.00047 513.70624 189.5786Q514.2375 190.1411 514.2375 191.2661Q514.2375 192.35985 513.6906 192.9536Q513.15936 193.53172 512.3625 193.53172Q511.59686 193.53172 511.0656 192.9536Q510.55 192.37547 510.55 191.2036ZM512.39374 189.71922Q511.9875 189.71922 511.72186 190.06297Q511.47186 190.40672 511.47186 191.31297Q511.47186 192.12547 511.7375 192.46922Q512.0031 192.81297 512.39374 192.81297Q512.78436 192.81297 513.05 192.46922Q513.3156 192.12547 513.3156 191.21922Q513.3156 190.3911 513.05 190.06297Q512.78436 189.71922 512.39374 189.71922Z" fill-rule="nonzero"/><path stroke="#757575" stroke-width="1.0" stroke-linecap="butt" d="M515.3 180.71922L441.4 180.71922L420.47702 180.71922" fill-rule="nonzero"/><path fill="#9e9e9e" d="M422.47702 180.71922C422.47702 179.61465 421.58157 178.71922 420.47702 178.71922C419.37244 178.71922 418.47702 179.61465 418.47702 180.71922C418.47702 181.82379 419.37244 182.71922 420.47702 182.71922C421.58157 182.71922 422.47702 181.82379 422.47702 180.71922" fill-rule="nonzero"/><path fill="#757575" d="M71.609375 39.7L71.609375 25.3875L73.5 25.3875L73.5 31.2625L80.9375 31.2625L80.9375 25.3875L82.828125 25.3875L82.828125 39.7L80.9375 39.7L80.9375 32.95L73.5 32.95L73.5 39.7L71.609375 39.7ZM84.671875 34.5125Q84.671875 31.6375 86.265625 30.246876Q87.609375 29.090626 89.53125 29.090626Q91.671875 29.090626 93.015625 30.496876Q94.375 31.903126 94.375 34.371876Q94.375 36.371876 93.78125 37.528126Q93.1875 38.66875 92.03125 39.309376Q90.890625 39.934376 89.53125 39.934376Q87.34375 39.934376 86.0 38.54375Q84.671875 37.1375 84.671875 34.5125ZM86.46875 34.5125Q86.46875 36.5125 87.328125 37.496876Q88.203125 38.48125 89.53125 38.48125Q90.84375 38.48125 91.703125 37.496876Q92.578125 36.496876 92.578125 34.45Q92.578125 32.528126 91.703125 31.54375Q90.828125 30.54375 89.53125 30.54375Q88.203125 30.54375 87.328125 31.54375Q86.46875 32.528126 86.46875 34.5125ZM98.234375 39.7L95.0625 29.325L96.875 29.325L98.53125 35.309376L99.140625 37.54375Q99.1875 37.371876 99.671875 35.403126L101.328125 29.325L103.140625 29.325L104.6875 35.340626L105.203125 37.325L105.796875 35.325L107.578125 29.325L109.28125 29.325L106.046875 39.7L104.21875 39.7L102.5625 33.48125L102.171875 31.715626L100.0625 39.7L98.234375 39.7ZM123.421875 36.35625L125.234375 36.590626Q124.8125 38.16875 123.640625 39.059376Q122.484375 39.934376 120.671875 39.934376Q118.40625 39.934376 117.0625 38.54375Q115.734375 37.1375 115.734375 34.60625Q115.734375 31.98125 117.078125 30.54375Q118.421875 29.090626 120.578125 29.090626Q122.65625 29.090626 123.96875 30.5125Q125.296875 31.91875 125.296875 34.496876Q125.296875 34.653126 125.28125 34.965626L117.546875 34.965626Q117.640625 36.66875 118.515625 37.575Q119.390625 38.48125 120.6875 38.48125Q121.65625 38.48125 122.328125 37.98125Q123.015625 37.465626 123.421875 36.35625ZM117.640625 33.5125L123.4375 33.5125Q123.328125 32.215626 122.78125 31.559376Q121.9375 30.54375 120.59375 30.54375Q119.390625 30.54375 118.5625 31.35625Q117.734375 32.153126 117.640625 33.5125ZM126.140625 39.7L129.9375 34.309376L126.4375 29.325L128.625 29.325L130.21875 31.7625Q130.67188 32.45 130.9375 32.91875Q131.375 32.278126 131.73438 31.778126L133.48438 29.325L135.57812 29.325L132.0 34.215626L135.85938 39.7L133.70312 39.7L131.5625 36.48125L131.0 35.60625L128.28125 39.7L126.140625 39.7ZM144.09375 35.903126L145.8125 36.121876Q145.53125 37.91875 144.35938 38.934376Q143.20312 39.934376 141.5 39.934376Q139.375 39.934376 138.07812 38.54375Q136.78125 37.153126 136.78125 34.559376Q136.78125 32.871876 137.32812 31.621876Q137.89062 30.35625 139.03125 29.73125Q140.17188 29.090626 141.51562 29.090626Q143.20312 29.090626 144.26562 29.95Q145.34375 30.809376 145.65625 32.371876L143.9375 32.6375Q143.70312 31.590626 143.07812 31.075Q142.45312 30.54375 141.57812 30.54375Q140.25 30.54375 139.42188 31.496876Q138.59375 32.45 138.59375 34.496876Q138.59375 36.590626 139.39062 37.54375Q140.1875 38.48125 141.48438 38.48125Q142.51562 38.48125 143.20312 37.85625Q143.90625 37.215626 144.09375 35.903126ZM147.32812 27.403126L147.32812 25.3875L149.09375 25.3875L149.09375 27.403126L147.32812 27.403126ZM147.32812 39.7L147.32812 29.325L149.09375 29.325L149.09375 39.7L147.32812 39.7ZM155.15625 38.121876L155.40625 39.684376Q154.67188 39.840626 154.07812 39.840626Q153.125 39.840626 152.59375 39.54375Q152.07812 39.23125 151.85938 38.746876Q151.64062 38.246876 151.64062 36.66875L151.64062 30.7L150.35938 30.7L150.35938 29.325L151.64062 29.325L151.64062 26.7625L153.39062 25.7L153.39062 29.325L155.15625 29.325L155.15625 30.7L153.39062 30.7L153.39062 36.7625Q153.39062 37.5125 153.48438 37.73125Q153.57812 37.934376 153.78125 38.075Q154.0 38.2 154.39062 38.2Q154.67188 38.2 155.15625 38.121876ZM164.42188 36.35625L166.23438 36.590626Q165.8125 38.16875 164.64062 39.059376Q163.48438 39.934376 161.67188 39.934376Q159.40625 39.934376 158.0625 38.54375Q156.73438 37.1375 156.73438 34.60625Q156.73438 31.98125 158.07812 30.54375Q159.42188 29.090626 161.57812 29.090626Q163.65625 29.090626 164.96875 30.5125Q166.29688 31.91875 166.29688 34.496876Q166.29688 34.653126 166.28125 34.965626L158.54688 34.965626Q158.64062 36.66875 159.51562 37.575Q160.39062 38.48125 161.6875 38.48125Q162.65625 38.48125 163.32812 37.98125Q164.01562 37.465626 164.42188 36.35625ZM158.64062 33.5125L164.4375 33.5125Q164.32812 32.215626 163.78125 31.559376Q162.9375 30.54375 161.59375 30.54375Q160.39062 30.54375 159.5625 31.35625Q158.73438 32.153126 158.64062 33.5125ZM175.04688 39.7L175.04688 38.3875Q174.0625 39.934376 172.14062 39.934376Q170.90625 39.934376 169.85938 39.246876Q168.82812 38.559376 168.25 37.340626Q167.6875 36.121876 167.6875 34.528126Q167.6875 32.965626 168.20312 31.7Q168.71875 30.434376 169.75 29.7625Q170.79688 29.090626 172.0625 29.090626Q173.0 29.090626 173.73438 29.496876Q174.46875 29.8875 174.9375 30.5125L174.9375 25.3875L176.67188 25.3875L176.67188 39.7L175.04688 39.7ZM169.48438 34.528126Q169.48438 36.5125 170.32812 37.496876Q171.17188 38.48125 172.3125 38.48125Q173.46875 38.48125 174.26562 37.54375Q175.07812 36.60625 175.07812 34.66875Q175.07812 32.54375 174.25 31.54375Q173.4375 30.54375 172.23438 30.54375Q171.0625 30.54375 170.26562 31.5125Q169.48438 32.465626 169.48438 34.528126ZM192.09375 38.41875Q191.10938 39.246876 190.20312 39.590626Q189.29688 39.934376 188.26562 39.934376Q186.5625 39.934376 185.64062 39.10625Q184.71875 38.2625 184.71875 36.965626Q184.71875 36.2 185.0625 35.575Q185.42188 34.95 185.98438 34.575Q186.54688 34.184376 187.25 33.98125Q187.76562 33.85625 188.8125 33.715626Q190.9375 33.465626 191.9375 33.121876Q191.95312 32.7625 191.95312 32.653126Q191.95312 31.590626 191.45312 31.1375Q190.78125 30.54375 189.45312 30.54375Q188.20312 30.54375 187.60938 30.98125Q187.03125 31.41875 186.75 32.528126L185.03125 32.29375Q185.26562 31.184376 185.79688 30.5125Q186.32812 29.825 187.34375 29.465626Q188.35938 29.090626 189.70312 29.090626Q191.03125 29.090626 191.85938 29.403126Q192.6875 29.715626 193.07812 30.2Q193.46875 30.66875 193.625 31.3875Q193.71875 31.840626 193.71875 33.0125L193.71875 35.35625Q193.71875 37.809376 193.82812 38.465626Q193.9375 39.10625 194.28125 39.7L192.4375 39.7Q192.17188 39.153126 192.09375 38.41875ZM191.9375 34.496876Q190.98438 34.8875 189.0625 35.153126Q187.98438 35.309376 187.53125 35.5125Q187.09375 35.7 186.84375 36.075Q186.59375 36.45 186.59375 36.91875Q186.59375 37.621876 187.125 38.090626Q187.65625 38.559376 188.6875 38.559376Q189.70312 38.559376 190.48438 38.121876Q191.28125 37.66875 191.65625 36.903126Q191.9375 36.29375 191.9375 35.1375L191.9375 34.496876ZM196.29688 39.7L196.29688 29.325L197.875 29.325L197.875 30.903126Q198.48438 29.79375 199.0 29.45Q199.51562 29.090626 200.125 29.090626Q201.01562 29.090626 201.9375 29.653126L201.32812 31.29375Q200.6875 30.903126 200.04688 30.903126Q199.46875 30.903126 199.0 31.2625Q198.54688 31.60625 198.34375 32.215626Q198.0625 33.153126 198.0625 34.2625L198.0625 39.7L196.29688 39.7ZM210.42188 36.35625L212.23438 36.590626Q211.8125 38.16875 210.64062 39.059376Q209.48438 39.934376 207.67188 39.934376Q205.40625 39.934376 204.0625 38.54375Q202.73438 37.1375 202.73438 34.60625Q202.73438 31.98125 204.07812 30.54375Q205.42188 29.090626 207.57812 29.090626Q209.65625 29.090626 210.96875 30.5125Q212.29688 31.91875 212.29688 34.496876Q212.29688 34.653126 212.28125 34.965626L204.54688 34.965626Q204.64062 36.66875 205.51562 37.575Q206.39062 38.48125 207.6875 38.48125Q208.65625 38.48125 209.32812 37.98125Q210.01562 37.465626 210.42188 36.35625ZM204.64062 33.5125L210.4375 33.5125Q210.32812 32.215626 209.78125 31.559376Q208.9375 30.54375 207.59375 30.54375Q206.39062 30.54375 205.5625 31.35625Q204.73438 32.153126 204.64062 33.5125ZM220.23438 43.7L220.04688 42.04375Q220.625 42.2 221.04688 42.2Q221.64062 42.2 221.98438 41.996876Q222.34375 41.809376 222.5625 41.465626Q222.73438 41.2 223.10938 40.153126Q223.15625 39.996876 223.26562 39.715626L219.32812 29.325L221.21875 29.325L223.375 35.340626Q223.79688 36.48125 224.125 37.73125Q224.4375 36.528126 224.84375 35.371876L227.0625 29.325L228.82812 29.325L224.875 39.871876Q224.25 41.590626 223.89062 42.23125Q223.42188 43.10625 222.8125 43.496876Q222.21875 43.903126 221.375 43.903126Q220.85938 43.903126 220.23438 43.7ZM229.67188 34.5125Q229.67188 31.6375 231.26562 30.246876Q232.60938 29.090626 234.53125 29.090626Q236.67188 29.090626 238.01562 30.496876Q239.375 31.903126 239.375 34.371876Q239.375 36.371876 238.78125 37.528126Q238.1875 38.66875 237.03125 39.309376Q235.89062 39.934376 234.53125 39.934376Q232.34375 39.934376 231.0 38.54375Q229.67188 37.1375 229.67188 34.5125ZM231.46875 34.5125Q231.46875 36.5125 232.32812 37.496876Q233.20312 38.48125 234.53125 38.48125Q235.84375 38.48125 236.70312 37.496876Q237.57812 36.496876 237.57812 34.45Q237.57812 32.528126 236.70312 31.54375Q235.82812 30.54375 234.53125 30.54375Q233.20312 30.54375 232.32812 31.54375Q231.46875 32.528126 231.46875 34.5125ZM248.10938 39.7L248.10938 38.16875Q246.90625 39.934376 244.82812 39.934376Q243.90625 39.934376 243.10938 39.590626Q242.3125 39.23125 241.92188 38.7Q241.54688 38.16875 241.39062 37.3875Q241.28125 36.871876 241.28125 35.746876L241.28125 29.325L243.03125 29.325L243.03125 35.075Q243.03125 36.45 243.14062 36.934376Q243.3125 37.621876 243.84375 38.028126Q244.39062 38.41875 245.17188 38.41875Q245.96875 38.41875 246.65625 38.0125Q247.35938 37.60625 247.64062 36.91875Q247.9375 36.215626 247.9375 34.8875L247.9375 29.325L249.6875 29.325L249.6875 39.7L248.10938 39.7ZM265.09375 38.41875Q264.10938 39.246876 263.20312 39.590626Q262.29688 39.934376 261.26562 39.934376Q259.5625 39.934376 258.64062 39.10625Q257.71875 38.2625 257.71875 36.965626Q257.71875 36.2 258.0625 35.575Q258.42188 34.95 258.98438 34.575Q259.54688 34.184376 260.25 33.98125Q260.76562 33.85625 261.8125 33.715626Q263.9375 33.465626 264.9375 33.121876Q264.95312 32.7625 264.95312 32.653126Q264.95312 31.590626 264.45312 31.1375Q263.78125 30.54375 262.45312 30.54375Q261.20312 30.54375 260.60938 30.98125Q260.03125 31.41875 259.75 32.528126L258.03125 32.29375Q258.26562 31.184376 258.79688 30.5125Q259.32812 29.825 260.34375 29.465626Q261.35938 29.090626 262.70312 29.090626Q264.03125 29.090626 264.85938 29.403126Q265.6875 29.715626 266.07812 30.2Q266.46875 30.66875 266.625 31.3875Q266.71875 31.840626 266.71875 33.0125L266.71875 35.35625Q266.71875 37.809376 266.82812 38.465626Q266.9375 39.10625 267.28125 39.7L265.4375 39.7Q265.17188 39.153126 265.09375 38.41875ZM264.9375 34.496876Q263.98438 34.8875 262.0625 35.153126Q260.98438 35.309376 260.53125 35.5125Q260.09375 35.7 259.84375 36.075Q259.59375 36.45 259.59375 36.91875Q259.59375 37.621876 260.125 38.090626Q260.65625 38.559376 261.6875 38.559376Q262.70312 38.559376 263.48438 38.121876Q264.28125 37.66875 264.65625 36.903126Q264.9375 36.29375 264.9375 35.1375L264.9375 34.496876ZM270.9375 39.7L269.3125 39.7L269.3125 25.3875L271.0625 25.3875L271.0625 30.496876Q272.1875 29.090626 273.90625 29.090626Q274.85938 29.090626 275.71875 29.48125Q276.57812 29.871876 277.125 30.575Q277.67188 31.2625 277.98438 32.246876Q278.29688 33.23125 278.29688 34.35625Q278.29688 37.028126 276.98438 38.48125Q275.67188 39.934376 273.82812 39.934376Q271.98438 39.934376 270.9375 38.403126L270.9375 39.7ZM270.92188 34.434376Q270.92188 36.29375 271.42188 37.1375Q272.26562 38.48125 273.67188 38.48125Q274.82812 38.48125 275.65625 37.48125Q276.5 36.48125 276.5 34.496876Q276.5 32.465626 275.6875 31.5125Q274.89062 30.54375 273.75 30.54375Q272.59375 30.54375 271.75 31.54375Q270.92188 32.54375 270.92188 34.434376ZM279.67188 34.5125Q279.67188 31.6375 281.26562 30.246876Q282.60938 29.090626 284.53125 29.090626Q286.67188 29.090626 288.01562 30.496876Q289.375 31.903126 289.375 34.371876Q289.375 36.371876 288.78125 37.528126Q288.1875 38.66875 287.03125 39.309376Q285.89062 39.934376 284.53125 39.934376Q282.34375 39.934376 281.0 38.54375Q279.67188 37.1375 279.67188 34.5125ZM281.46875 34.5125Q281.46875 36.5125 282.32812 37.496876Q283.20312 38.48125 284.53125 38.48125Q285.84375 38.48125 286.70312 37.496876Q287.57812 36.496876 287.57812 34.45Q287.57812 32.528126 286.70312 31.54375Q285.82812 30.54375 284.53125 30.54375Q283.20312 30.54375 282.32812 31.54375Q281.46875 32.528126 281.46875 34.5125ZM298.10938 39.7L298.10938 38.16875Q296.90625 39.934376 294.82812 39.934376Q293.90625 39.934376 293.10938 39.590626Q292.3125 39.23125 291.92188 38.7Q291.54688 38.16875 291.39062 37.3875Q291.28125 36.871876 291.28125 35.746876L291.28125 29.325L293.03125 29.325L293.03125 35.075Q293.03125 36.45 293.14062 36.934376Q293.3125 37.621876 293.84375 38.028126Q294.39062 38.41875 295.17188 38.41875Q295.96875 38.41875 296.65625 38.0125Q297.35938 37.60625 297.64062 36.91875Q297.9375 36.215626 297.9375 34.8875L297.9375 29.325L299.6875 29.325L299.6875 39.7L298.10938 39.7ZM306.15625 38.121876L306.40625 39.684376Q305.67188 39.840626 305.07812 39.840626Q304.125 39.840626 303.59375 39.54375Q303.07812 39.23125 302.85938 38.746876Q302.64062 38.246876 302.64062 36.66875L302.64062 30.7L301.35938 30.7L301.35938 29.325L302.64062 29.325L302.64062 26.7625L304.39062 25.7L304.39062 29.325L306.15625 29.325L306.15625 30.7L304.39062 30.7L304.39062 36.7625Q304.39062 37.5125 304.48438 37.73125Q304.57812 37.934376 304.78125 38.075Q305.0 38.2 305.39062 38.2Q305.67188 38.2 306.15625 38.121876ZM313.96875 32.73125Q313.96875 29.16875 315.875 27.153126Q317.79688 25.121876 320.82812 25.121876Q322.8125 25.121876 324.39062 26.075Q325.98438 27.028126 326.8125 28.73125Q327.65625 30.41875 327.65625 32.559376Q327.65625 34.73125 326.78125 36.45Q325.90625 38.16875 324.28125 39.059376Q322.67188 39.95 320.8125 39.95Q318.79688 39.95 317.20312 38.98125Q315.60938 37.996876 314.78125 36.309376Q313.96875 34.60625 313.96875 32.73125ZM315.92188 32.7625Q315.92188 35.340626 317.3125 36.840626Q318.70312 38.325 320.79688 38.325Q322.9375 38.325 324.3125 36.825Q325.70312 35.309376 325.70312 32.54375Q325.70312 30.809376 325.10938 29.5125Q324.53125 28.2 323.39062 27.48125Q322.25 26.7625 320.82812 26.7625Q318.82812 26.7625 317.375 28.153126Q315.92188 29.528126 315.92188 32.7625ZM330.3125 43.66875L330.3125 29.325L331.92188 29.325L331.92188 30.66875Q332.48438 29.8875 333.1875 29.496876Q333.90625 29.090626 334.92188 29.090626Q336.25 29.090626 337.26562 29.778126Q338.28125 30.465626 338.79688 31.715626Q339.32812 32.95 339.32812 34.434376Q339.32812 36.028126 338.75 37.309376Q338.1875 38.575 337.09375 39.2625Q336.0 39.934376 334.79688 39.934376Q333.92188 39.934376 333.21875 39.559376Q332.53125 39.184376 332.07812 38.621876L332.07812 43.66875L330.3125 43.66875ZM331.90625 34.575Q331.90625 36.575 332.71875 37.528126Q333.53125 38.48125 334.6875 38.48125Q335.85938 38.48125 336.6875 37.496876Q337.53125 36.5125 337.53125 34.41875Q337.53125 32.45 336.70312 31.465626Q335.89062 30.465626 334.76562 30.465626Q333.64062 30.465626 332.76562 31.528126Q331.90625 32.575 331.90625 34.575ZM345.15625 38.121876L345.40625 39.684376Q344.67188 39.840626 344.07812 39.840626Q343.125 39.840626 342.59375 39.54375Q342.07812 39.23125 341.85938 38.746876Q341.64062 38.246876 341.64062 36.66875L341.64062 30.7L340.35938 30.7L340.35938 29.325L341.64062 29.325L341.64062 26.7625L343.39062 25.7L343.39062 29.325L345.15625 29.325L345.15625 30.7L343.39062 30.7L343.39062 36.7625Q343.39062 37.5125 343.48438 37.73125Q343.57812 37.934376 343.78125 38.075Q344.0 38.2 344.39062 38.2Q344.67188 38.2 345.15625 38.121876ZM347.32812 27.403126L347.32812 25.3875L349.09375 25.3875L349.09375 27.403126L347.32812 27.403126ZM347.32812 39.7L347.32812 29.325L349.09375 29.325L349.09375 39.7L347.32812 39.7ZM350.67188 34.5125Q350.67188 31.6375 352.26562 30.246876Q353.60938 29.090626 355.53125 29.090626Q357.67188 29.090626 359.01562 30.496876Q360.375 31.903126 360.375 34.371876Q360.375 36.371876 359.78125 37.528126Q359.1875 38.66875 358.03125 39.309376Q356.89062 39.934376 355.53125 39.934376Q353.34375 39.934376 352.0 38.54375Q350.67188 37.1375 350.67188 34.5125ZM352.46875 34.5125Q352.46875 36.5125 353.32812 37.496876Q354.20312 38.48125 355.53125 38.48125Q356.84375 38.48125 357.70312 37.496876Q358.57812 36.496876 358.57812 34.45Q358.57812 32.528126 357.70312 31.54375Q356.82812 30.54375 355.53125 30.54375Q354.20312 30.54375 353.32812 31.54375Q352.46875 32.528126 352.46875 34.5125ZM362.3125 39.7L362.3125 29.325L363.90625 29.325L363.90625 30.809376Q365.04688 29.090626 367.20312 29.090626Q368.14062 29.090626 368.92188 29.434376Q369.71875 29.7625 370.10938 30.309376Q370.5 30.85625 370.65625 31.60625Q370.75 32.10625 370.75 33.325L370.75 39.7L368.98438 39.7L368.98438 33.3875Q368.98438 32.309376 368.78125 31.778126Q368.57812 31.246876 368.04688 30.934376Q367.53125 30.621876 366.82812 30.621876Q365.70312 30.621876 364.89062 31.340626Q364.07812 32.04375 364.07812 34.028126L364.07812 39.7L362.3125 39.7ZM380.09375 38.41875Q379.10938 39.246876 378.20312 39.590626Q377.29688 39.934376 376.26562 39.934376Q374.5625 39.934376 373.64062 39.10625Q372.71875 38.2625 372.71875 36.965626Q372.71875 36.2 373.0625 35.575Q373.42188 34.95 373.98438 34.575Q374.54688 34.184376 375.25 33.98125Q375.76562 33.85625 376.8125 33.715626Q378.9375 33.465626 379.9375 33.121876Q379.95312 32.7625 379.95312 32.653126Q379.95312 31.590626 379.45312 31.1375Q378.78125 30.54375 377.45312 30.54375Q376.20312 30.54375 375.60938 30.98125Q375.03125 31.41875 374.75 32.528126L373.03125 32.29375Q373.26562 31.184376 373.79688 30.5125Q374.32812 29.825 375.34375 29.465626Q376.35938 29.090626 377.70312 29.090626Q379.03125 29.090626 379.85938 29.403126Q380.6875 29.715626 381.07812 30.2Q381.46875 30.66875 381.625 31.3875Q381.71875 31.840626 381.71875 33.0125L381.71875 35.35625Q381.71875 37.809376 381.82812 38.465626Q381.9375 39.10625 382.28125 39.7L380.4375 39.7Q380.17188 39.153126 380.09375 38.41875ZM379.9375 34.496876Q378.98438 34.8875 377.0625 35.153126Q375.98438 35.309376 375.53125 35.5125Q375.09375 35.7 374.84375 36.075Q374.59375 36.45 374.59375 36.91875Q374.59375 37.621876 375.125 38.090626Q375.65625 38.559376 376.6875 38.559376Q377.70312 38.559376 378.48438 38.121876Q379.28125 37.66875 379.65625 36.903126Q379.9375 36.29375 379.9375 35.1375L379.9375 34.496876ZM384.28125 39.7L384.28125 25.3875L386.03125 25.3875L386.03125 39.7L384.28125 39.7ZM394.46875 39.7L394.46875 25.3875L399.84375 25.3875Q401.48438 25.3875 402.46875 25.825Q403.45312 26.246876 404.01562 27.153126Q404.57812 28.059376 404.57812 29.04375Q404.57812 29.965626 404.07812 30.778126Q403.59375 31.590626 402.57812 32.075Q403.875 32.465626 404.57812 33.3875Q405.28125 34.29375 405.28125 35.54375Q405.28125 36.559376 404.84375 37.41875Q404.42188 38.278126 403.79688 38.746876Q403.17188 39.215626 402.23438 39.465626Q401.29688 39.7 399.92188 39.7L394.46875 39.7ZM396.35938 31.403126L399.45312 31.403126Q400.71875 31.403126 401.26562 31.23125Q401.98438 31.0125 402.34375 30.528126Q402.71875 30.028126 402.71875 29.2625Q402.71875 28.559376 402.375 28.0125Q402.03125 27.465626 401.39062 27.278126Q400.76562 27.075 399.21875 27.075L396.35938 27.075L396.35938 31.403126ZM396.35938 38.0125L399.92188 38.0125Q400.84375 38.0125 401.21875 37.934376Q401.875 37.825 402.3125 37.559376Q402.75 37.278126 403.03125 36.7625Q403.3125 36.23125 403.3125 35.54375Q403.3125 34.746876 402.90625 34.153126Q402.5 33.559376 401.76562 33.325Q401.03125 33.090626 399.67188 33.090626L396.35938 33.090626L396.35938 38.0125ZM407.29688 39.7L407.29688 29.325L408.875 29.325L408.875 30.903126Q409.48438 29.79375 410.0 29.45Q410.51562 29.090626 411.125 29.090626Q412.01562 29.090626 412.9375 29.653126L412.32812 31.29375Q411.6875 30.903126 411.04688 30.903126Q410.46875 30.903126 410.0 31.2625Q409.54688 31.60625 409.34375 32.215626Q409.0625 33.153126 409.0625 34.2625L409.0625 39.7L407.29688 39.7ZM421.09375 38.41875Q420.10938 39.246876 419.20312 39.590626Q418.29688 39.934376 417.26562 39.934376Q415.5625 39.934376 414.64062 39.10625Q413.71875 38.2625 413.71875 36.965626Q413.71875 36.2 414.0625 35.575Q414.42188 34.95 414.98438 34.575Q415.54688 34.184376 416.25 33.98125Q416.76562 33.85625 417.8125 33.715626Q419.9375 33.465626 420.9375 33.121876Q420.95312 32.7625 420.95312 32.653126Q420.95312 31.590626 420.45312 31.1375Q419.78125 30.54375 418.45312 30.54375Q417.20312 30.54375 416.60938 30.98125Q416.03125 31.41875 415.75 32.528126L414.03125 32.29375Q414.26562 31.184376 414.79688 30.5125Q415.32812 29.825 416.34375 29.465626Q417.35938 29.090626 418.70312 29.090626Q420.03125 29.090626 420.85938 29.403126Q421.6875 29.715626 422.07812 30.2Q422.46875 30.66875 422.625 31.3875Q422.71875 31.840626 422.71875 33.0125L422.71875 35.35625Q422.71875 37.809376 422.82812 38.465626Q422.9375 39.10625 423.28125 39.7L421.4375 39.7Q421.17188 39.153126 421.09375 38.41875ZM420.9375 34.496876Q419.98438 34.8875 418.0625 35.153126Q416.98438 35.309376 416.53125 35.5125Q416.09375 35.7 415.84375 36.075Q415.59375 36.45 415.59375 36.91875Q415.59375 37.621876 416.125 38.090626Q416.65625 38.559376 417.6875 38.559376Q418.70312 38.559376 419.48438 38.121876Q420.28125 37.66875 420.65625 36.903126Q420.9375 36.29375 420.9375 35.1375L420.9375 34.496876ZM432.09375 35.903126L433.8125 36.121876Q433.53125 37.91875 432.35938 38.934376Q431.20312 39.934376 429.5 39.934376Q427.375 39.934376 426.07812 38.54375Q424.78125 37.153126 424.78125 34.559376Q424.78125 32.871876 425.32812 31.621876Q425.89062 30.35625 427.03125 29.73125Q428.17188 29.090626 429.51562 29.090626Q431.20312 29.090626 432.26562 29.95Q433.34375 30.809376 433.65625 32.371876L431.9375 32.6375Q431.70312 31.590626 431.07812 31.075Q430.45312 30.54375 429.57812 30.54375Q428.25 30.54375 427.42188 31.496876Q426.59375 32.45 426.59375 34.496876Q426.59375 36.590626 427.39062 37.54375Q428.1875 38.48125 429.48438 38.48125Q430.51562 38.48125 431.20312 37.85625Q431.90625 37.215626 432.09375 35.903126ZM442.42188 36.35625L444.23438 36.590626Q443.8125 38.16875 442.64062 39.059376Q441.48438 39.934376 439.67188 39.934376Q437.40625 39.934376 436.0625 38.54375Q434.73438 37.1375 434.73438 34.60625Q434.73438 31.98125 436.07812 30.54375Q437.42188 29.090626 439.57812 29.090626Q441.65625 29.090626 442.96875 30.5125Q444.29688 31.91875 444.29688 34.496876Q444.29688 34.653126 444.28125 34.965626L436.54688 34.965626Q436.64062 36.66875 437.51562 37.575Q438.39062 38.48125 439.6875 38.48125Q440.65625 38.48125 441.32812 37.98125Q442.01562 37.465626 442.42188 36.35625ZM436.64062 33.5125L442.4375 33.5125Q442.32812 32.215626 441.78125 31.559376Q440.9375 30.54375 439.59375 30.54375Q438.39062 30.54375 437.5625 31.35625Q436.73438 32.153126 436.64062 33.5125ZM445.60938 36.60625L447.35938 36.325Q447.5 37.371876 448.17188 37.934376Q448.84375 38.48125 450.04688 38.48125Q451.25 38.48125 451.82812 37.996876Q452.42188 37.496876 452.42188 36.840626Q452.42188 36.246876 451.90625 35.903126Q451.54688 35.66875 450.10938 35.309376Q448.17188 34.809376 447.42188 34.465626Q446.6875 34.10625 446.29688 33.48125Q445.90625 32.840626 445.90625 32.075Q445.90625 31.3875 446.21875 30.79375Q446.54688 30.2 447.09375 29.809376Q447.5 29.5125 448.20312 29.309376Q448.92188 29.090626 449.73438 29.090626Q450.95312 29.090626 451.875 29.45Q452.79688 29.79375 453.23438 30.403126Q453.67188 30.996876 453.84375 31.996876L452.125 32.23125Q452.0 31.434376 451.4375 30.996876Q450.875 30.54375 449.85938 30.54375Q448.64062 30.54375 448.125 30.95Q447.60938 31.340626 447.60938 31.871876Q447.60938 32.215626 447.82812 32.496876Q448.03125 32.778126 448.5 32.965626Q448.76562 33.059376 450.04688 33.403126Q451.92188 33.903126 452.65625 34.23125Q453.39062 34.54375 453.8125 35.153126Q454.23438 35.746876 454.23438 36.653126Q454.23438 37.528126 453.71875 38.309376Q453.20312 39.090626 452.23438 39.5125Q451.26562 39.934376 450.04688 39.934376Q448.03125 39.934376 446.96875 39.090626Q445.90625 38.246876 445.60938 36.60625ZM459.60938 36.16875Q459.59375 35.825 459.59375 35.653126Q459.59375 34.60625 459.89062 33.85625Q460.10938 33.29375 460.59375 32.715626Q460.9375 32.29375 461.84375 31.496876Q462.76562 30.684376 463.03125 30.215626Q463.3125 29.73125 463.3125 29.16875Q463.3125 28.1375 462.5 27.371876Q461.70312 26.590626 460.54688 26.590626Q459.42188 26.590626 458.67188 27.29375Q457.92188 27.996876 457.6875 29.48125L455.875 29.2625Q456.125 27.2625 457.32812 26.2Q458.53125 25.1375 460.51562 25.1375Q462.625 25.1375 463.875 26.278126Q465.125 27.41875 465.125 29.04375Q465.125 29.98125 464.67188 30.778126Q464.23438 31.559376 462.95312 32.7Q462.09375 33.465626 461.82812 33.825Q461.57812 34.184376 461.4375 34.653126Q461.3125 35.121876 461.29688 36.16875L459.60938 36.16875ZM459.5 39.7L459.5 37.7L461.5 37.7L461.5 39.7L459.5 39.7Z" fill-rule="nonzero"/></svg>