<svg xmlns="http://www.w3.org/2000/svg" xmlns:xlink="http://www.w3.org/1999/xlink" viewBox="0 0 156.5 76"><defs><path id="g" d="M0 0c.06.107 0 .141-.048.141-.034 0-.152-.021-.353 0C-.978.203-1.8.47-2.19.635a.843.843 0 0 1-.178.06c-.023 0-.059-.025-.059-.072 0-.034.023-.057.082-.091C-1.921.24-.825-.423-.743-.469c.199-.119.271-.154.329-.154.035 0 .061.023.117.106z"/><path id="c" d="M0 0c-.034 0-.059-.023-.034-.084l1.036-3.18c.058-.178.116-.178.175 0l1.119 3.18c.012.049.012.084-.048.084H0zm-1.646 2.597c-.213.588-.448 1.037-.989 1.109-.095.012-.26.023-.343.023-.058 0-.105.023-.105.07 0 .072.071.094.225.094.553 0 1.2-.033 1.329-.033.131 0 .636.033.919.033.105 0 .177-.021.177-.094 0-.047-.035-.07-.118-.07h-.117c-.2 0-.448-.107-.448-.344 0-.213.06-.49.165-.789L-.245.512C-.221.455-.185.42-.127.42h2.53c.06 0 .083.021.106.068l1.095 2.896c.071.189 0 .295-.07.32-.048.012-.082.035-.082.082 0 .072.128.072.353.084.812.021 1.672.021 1.848.021.13 0 .235-.021.235-.094 0-.059-.046-.07-.118-.07-.117 0-.293-.012-.471-.07-.247-.072-.588-.262-1.011-1.311C3.57.559 1.721-4.304 1.544-4.75c-.141-.365-.188-.424-.259-.424-.07 0-.117.072-.258.459z"/><path id="h" d="M0 0c-1.142-1.027-1.424-2.363-1.424-3.482 0-.789.271-2.168 1.318-3.217.706-.703 1.777-1.258 3.589-1.258.472 0 1.131.036 1.707.142.448.081.825.153 1.202.175.129.012.151.061.151.131 0 .096-.034.236-.058.659-.023.389-.023 1.034-.035 1.212-.013.178-.036.25-.106.25-.082 0-.095-.084-.095-.25 0-.459-.188-.941-.494-1.201-.412-.35-1.317-.67-2.354-.67-1.564 0-2.295.46-2.706.857-.86.824-1.061 1.873-1.061 3.074 0 2.25 1.731 4.311 4.25 4.311.883 0 1.577-.105 2.048-.592.247-.26.4-.775.436-.988.024-.131.047-.18.118-.18.058 0 .082.084.082.18 0 .084-.142 1.105-.26 1.51-.069.219-.093.242-.306.336-.47.189-1.365.273-2.118.273C2.119 1.271.931.834 0 0z"/><path id="f" d="M0 0c0-.908 0-2.104.012-2.506 0-.131.034-.189.14-.236.096-.047.531-.084.766-.084 1.401 0 2.744.166 3.849 1.334.483.506 1.131 1.471 1.131 2.965 0 1.084-.329 2.215-.941 2.812-.694.693-1.707 1.096-2.802 1.096-1.389 0-1.849-.248-2.002-.471-.094-.131-.117-.6-.128-.896a92.714 92.714 0 0 1-.023-2.553zm-.989 2.262c0 1.129 0 2.059-.06 2.555-.046.34-.105.6-.342.646a1.696 1.696 0 0 1-.353.049c-.07 0-.094.035-.094.07 0 .072.059.094.188.094.353 0 1.095-.033 1.153-.033.117 0 1.601.139 2.613.139 2.001 0 3.06-.826 3.567-1.354.658-.693 1.27-1.836 1.27-3.32 0-1.398-.553-2.375-1.141-2.992-1.401-1.445-3.555-1.338-4.72-1.338-.707 0-1.448.037-1.59.037-.06 0-.801-.037-1.33-.037-.129 0-.188.023-.188.096 0 .047.048.07.095.07.105 0 .306.012.399.035.389.082.482.266.507.668.023.379.023.707.023 2.541z"/><path id="a" d="M0 0c0-1.836 0-2.168-.023-2.544-.023-.399-.117-.589-.506-.671a2.236 2.236 0 0 0-.4-.037c-.047 0-.094-.021-.094-.07 0-.07.059-.096.188-.096.529 0 1.271.037 1.329.037.083 0 2.426 0 2.696-.012.224-.012.412-.037.506-.06.06-.012.105-.057.165-.057.035 0 .046.045.046.104 0 .082-.058.224-.093.555-.013.117-.035.635-.059.776-.013.06-.036.132-.083.132-.07 0-.094-.061-.094-.154a1.29 1.29 0 0 0-.07-.426c-.084-.188-.2-.328-.837-.396-.2-.025-1.482-.037-1.611-.037-.048 0-.072.037-.072.119V.407c0 .084.013.119.072.119.151 0 1.601 0 1.87-.023.283-.023.448-.049.554-.164.083-.092.13-.15.176-.15.036 0 .06.023.06.094 0 .064-.06.268-.093.658-.024.238-.048.668-.048.75 0 .098 0 .227-.082.227-.06 0-.083-.047-.083-.107 0-.119 0-.236-.047-.389-.048-.162-.153-.361-.612-.408C2.437.977 1.272.953 1.072.953c-.06 0-.084.035-.084.082v1.037c0 .396-.011 1.764 0 2.014.036.811.213.965 1.366.965.307 0 .823 0 1.13-.131.308-.129.447-.367.53-.846.024-.131.047-.178.106-.178.069 0 .069.094.069.178 0 .092-.094.893-.151 1.137-.083.309-.178.309-.638.309-1.776 0-2.564-.072-2.907-.072-.059 0-.8.035-1.152.035-.13 0-.188-.023-.188-.094 0-.035.024-.072.094-.072.106 0 .248-.023.354-.047.234-.047.294-.303.341-.645.059-.492.059-1.424.059-2.553z"/><path id="e" d="M0 0c0 1.729.047 2.482.259 2.695.188.188.495.271 1.412.271.624 0 1.142-.012 1.424-.355.153-.189.271-.484.307-.705.012-.094.035-.152.106-.152.059 0 .069.047.069.178 0 .127-.082.834-.176 1.174-.083.271-.117.318-.741.318-1.695 0-2.473-.072-3.155-.072-.105 0-.8.035-1.153.035-.129 0-.188-.023-.188-.094 0-.035.023-.072.095-.072.106 0 .247-.023.354-.047.235-.047.293-.303.341-.645.059-.492.059-1.424.059-2.553v-2.072c0-1.836 0-2.168-.023-2.544-.024-.399-.118-.589-.506-.671a2.262 2.262 0 0 0-.4-.037c-.047 0-.095-.021-.095-.07 0-.07.06-.096.189-.096.529 0 1.27.037 1.329.037s.918-.037 1.272-.037c.128 0 .188.025.188.096 0 .049-.047.07-.094.07-.083 0-.248.014-.389.037-.342.059-.436.26-.459.671-.023.376-.023.708-.023 2.544z"/><path id="b" d="M0 0c.023.967.137 1.271.457 1.363.225.061.484.07.588.07.059 0 .092.023.092.072 0 .07-.068.094-.207.094-.674 0-1.141-.035-1.248-.035s-.602.035-1.131.035c-.119 0-.189-.01-.189-.094 0-.049.035-.072.094-.072.096 0 .309-.01.486-.07.291-.08.35-.42.35-1.492l.014-6.744c0-.462.035-.59.129-.59s.297.258.414.377c.176.199 1.93 2.096 3.742 4.037C4.757-1.799 6.038-.367 6.415.025l-.131-5.981c-.01-.763-.096-1.024-.457-1.118a3.178 3.178 0 0 0-.578-.061c-.082 0-.096-.033-.096-.082 0-.07.096-.084.236-.084.529 0 1.096.037 1.227.037s.518-.037 1-.037c.129 0 .211.014.211.084 0 .049-.047.082-.127.082-.061 0-.143 0-.285.037-.389.082-.438.344-.438 1.047L6.954.847c0 .777-.023.834-.105.834-.092 0-.23-.129-.859-.752A137.792 137.792 0 0 1 2.922-2.26 201.816 201.816 0 0 1-.15-5.639z"/><path id="i" d="M0 0c0-2.576 1.472-3.874 3.437-3.874 1.86 0 3.579 1.521 3.579 4.347 0 3.424-2.189 4.035-3.249 4.035C1.647 4.508 0 2.74 0 0zm-1.119.332c0 2.117 1.343 4.623 4.567 4.623 2.837 0 4.697-2.18 4.697-4.814 0-2.74-1.978-4.414-4.626-4.414-3.247 0-4.638 2.697-4.638 4.605z"/><path id="d" d="M0 0c0-1.836 0-2.168-.023-2.544-.023-.399-.117-.589-.51-.671a2.23 2.23 0 0 0-.398-.037c-.045 0-.094-.021-.094-.07 0-.07.061-.096.188-.096.531 0 1.248.037 1.355.037.105 0 .809-.037 1.164-.037.133 0 .189.025.189.096 0 .049-.049.07-.092.07-.086 0-.156.014-.299.037-.318.046-.41.26-.434.671-.023.376-.023.708-.023 2.544v1.646c0 1.693.375 2.428.885 2.906.574.545 1.105.648 1.775.648.717 0 1.422-.34 1.848-.85.541-.668.682-1.67.682-2.883V-.002c0-1.836 0-2.168-.023-2.544-.023-.399-.117-.589-.504-.671a2.258 2.258 0 0 0-.402-.037c-.049 0-.094-.021-.094-.07 0-.07.057-.096.188-.096.531 0 1.18.037 1.25.037.082 0 .633-.037.99-.037.129 0 .186.025.186.096 0 .049-.045.07-.092.07-.082 0-.154 0-.297.037-.32.059-.412.26-.436.671-.025.376-.025.708-.025 2.544v1.26c0 1.268-.139 2.684-1.082 3.52-.846.752-1.729.869-2.426.869-.396 0-1.586-.047-2.422-.836C.446 4.256.001 3.432.001 1.715z"/></defs><use xlink:href="#a" x="152.108" y="69.339"/><use xlink:href="#b" x="141.277" y="73.224"/><use xlink:href="#b" x="130.133" y="73.224"/><use xlink:href="#c" x="122.247" y="70.929"/><path d="M114.109 74.671c-.164-.082-.176-.131-.176-.449 0-.588.047-1.061.061-1.246.012-.127.035-.188.094-.188.07 0 .082.035.082.129 0 .105 0 .268.035.434.178.871.955 1.201 1.742 1.201 1.131 0 1.682-.811 1.682-1.564 0-.814-.338-1.283-1.352-2.117l-.531-.439c-1.244-1.023-1.529-1.752-1.529-2.551 0-1.262.943-2.121 2.436-2.121.461 0 .803.047 1.096.119.223.047.318.059.412.059s.121.025.121.084-.049.443-.049 1.242c0 .191-.023.273-.084.273-.07 0-.082-.061-.094-.154-.012-.141-.084-.457-.154-.588-.07-.129-.387-.623-1.467-.623-.816 0-1.453.506-1.453 1.365 0 .67.332 1.07 1.441 1.977l.324.262c1.391 1.096 1.721 1.824 1.721 2.764 0 .484-.186 1.381-1 1.955-.508.355-1.141.494-1.777.494-.555-.002-1.094-.084-1.581-.318z"/><use xlink:href="#d" x="104.414" y="69.339"/><use xlink:href="#c" x="97.526" y="70.929"/><use xlink:href="#e" x="90.642" y="71.435"/><g><use xlink:href="#a" x="78.646" y="69.339"/><use xlink:href="#f" x="68.843" y="69.147"/></g><g><use xlink:href="#a" x="56.847" y="69.339"/><use xlink:href="#e" x="50.868" y="71.435"/><use xlink:href="#c" x="42.31" y="70.929"/><path d="M33.706 66.511c0-.07.035-.119.095-.141.116-.037.435-.072.788-.072 1.26 0 2.036.887 2.036 2.355 0 .895-.307 1.529-.719 1.812-.271.191-.6.225-.882.225-.519 0-1.06-.082-1.236-.188-.06-.037-.082-.082-.082-.143zm-.942 4.898c0 1.129 0 2.059-.059 2.555-.047.34-.105.6-.341.646a1.714 1.714 0 0 1-.354.049c-.07 0-.094.035-.094.07 0 .072.059.094.188.094.353 0 1.095-.033 1.106-.033.058 0 .8.033 1.447.033.13 0 .188-.033.188-.094 0-.035-.022-.07-.093-.07a4.62 4.62 0 0 1-.531-.049c-.352-.047-.422-.307-.458-.646-.059-.496-.059-1.426-.059-2.555v-.283c0-.057.022-.094.082-.094l1.447.023c.071 0 .106.025.153.07.236.307.789 1.094 1.283 1.744.671.883 1.084 1.457 1.589 1.73.307.166.601.223 1.26.223h.836c.212 0 .282-.021.282-.094 0-.035-.047-.07-.106-.07-.07 0-.235 0-.459-.037-.293-.047-.8-.178-1.436-.844-.682-.732-1.483-1.779-2.449-3.016 1.061-.977 1.425-1.846 1.425-2.719 0-.814-.518-1.391-.812-1.604-.624-.443-1.413-.516-2.154-.516-.365 0-1.259.037-1.39.037-.058 0-.8-.037-1.329-.037-.13 0-.188.023-.188.096 0 .047.046.07.094.07.106 0 .307.012.4.035.39.082.482.266.506.668.023.379.023.707.023 2.541z"/><use xlink:href="#a" x="25.586" y="69.339"/><use xlink:href="#g" x="28.999" y="64.323"/><use xlink:href="#f" x="16.251" y="69.147"/><use xlink:href="#a" x="8.082" y="69.339"/><use xlink:href="#g" x="11.495" y="64.323"/><path d="M1.112 69.335c0-1.834 0-2.162-.023-2.541-.023-.402-.117-.586-.506-.668a2.247 2.247 0 0 0-.4-.035c-.047 0-.094-.023-.094-.07 0-.072.06-.096.188-.096.529 0 1.271.037 1.33.037.235 0 2.624 0 2.896-.014.224-.012.412-.012.518-.047.072-.023.118-.07.165-.07.048 0 .071.047.071.105 0 .084-.06.225-.095.551-.011.119-.035.639-.06.775-.01.059-.034.131-.093.131-.06 0-.082-.059-.082-.143a1.27 1.27 0 0 0-.106-.443c-.071-.154-.343-.367-.801-.379l-1.813-.037c-.069 0-.105.037-.105.133v3.25c0 .072.013.105.082.105l1.508-.012c.199 0 .365 0 .529-.012.282-.023.436-.059.541-.213.048-.061.083-.119.13-.119s.058.039.058.097c0 .07-.059.273-.095.656a15.78 15.78 0 0 0-.046.793c0 .102 0 .221-.083.221-.059 0-.082-.047-.082-.105-.012-.115-.024-.279-.07-.422-.06-.166-.247-.379-.612-.426-.295-.035-1.577-.035-1.778-.035-.059 0-.082.021-.082.105v1.002c0 1.129 0 2.059.06 2.555.035.34.105.6.459.646.164.025.424.049.529.049.07 0 .093.035.093.07 0 .061-.058.094-.188.094-.646 0-1.388-.033-1.447-.033s-.801.033-1.153.033c-.131 0-.188-.021-.188-.094 0-.035.023-.07.094-.07.106 0 .247-.023.354-.049.234-.047.293-.307.34-.646.059-.496.059-1.426.059-2.555z"/></g><g><use xlink:href="#a" x="152.196" y="55.214"/><use xlink:href="#d" x="141.744" y="55.214"/><path d="M131.371 55.907c0-2.576 1.475-3.874 3.439-3.874 1.859 0 3.578 1.521 3.578 4.347 0 3.424-2.191 4.035-3.25 4.035-2.118 0-3.767-1.768-3.767-4.508zm7.313 5.649c1.906 1.049 3.422 1.58 4.85 1.58a9.008 9.008 0 0 0 3.73-.812c.072-.037.096-.07.096-.117a.068.068 0 0 0-.072-.07c-.035 0-.094.023-.166.049a6.75 6.75 0 0 1-2.318.455c-.588 0-2.375-.061-4.955-1.385l-2.414-1.25c.777-.512 2.086-1.885 2.086-3.957 0-2.729-1.979-4.414-4.625-4.414-3.25 0-4.641 2.697-4.641 4.605 0 2.117 1.342 4.623 4.605 4.623.621 0 1.422-.176 1.846-.402l1.978 1.095zM127.404 57.286c0 1.129 0 2.061.061 2.553.035.342.105.598.461.645.164.023.422.047.527.047.07 0 .094.037.094.072 0 .059-.059.094-.188.094-.648 0-1.389-.035-1.447-.035s-.799.035-1.154.035c-.131 0-.189-.023-.189-.094 0-.035.023-.072.094-.072.107 0 .25-.023.355-.047.234-.047.295-.303.34-.645.057-.492.057-1.424.057-2.553v-2.072c0-1.836 0-2.168-.021-2.544-.021-.399-.141-.601-.398-.659a1.593 1.593 0 0 0-.367-.049c-.047 0-.094-.021-.094-.07 0-.07.059-.096.188-.096.393 0 1.133.037 1.191.037s.799-.037 1.156-.037c.127 0 .186.025.186.096 0 .049-.049.07-.094.07-.082 0-.152.014-.293.037-.322.059-.416.26-.439.671-.023.376-.023.708-.023 2.544z"/><use xlink:href="#b" x="115.59" y="59.097"/><path d="M111.08 57.286c0 1.129 0 2.061.059 2.553.035.342.107.598.461.645.162.023.42.047.527.047.072 0 .094.037.094.072 0 .059-.059.094-.188.094-.646 0-1.387-.035-1.445-.035s-.803.035-1.156.035c-.129 0-.188-.023-.188-.094 0-.035.021-.072.094-.072.107 0 .25-.023.355-.047.232-.047.291-.303.338-.645.061-.492.061-1.424.061-2.553v-1.238c0-.047-.037-.07-.072-.07h-4.992c-.035 0-.068.012-.068.07v1.238c0 1.129 0 2.061.057 2.553.035.342.107.598.463.645.166.023.422.047.525.047.072 0 .098.037.098.072 0 .059-.061.094-.189.094-.646 0-1.389-.035-1.447-.035s-.799.035-1.152.035c-.131 0-.191-.023-.191-.094 0-.035.025-.072.096-.072.105 0 .246-.023.354-.047.238-.047.297-.303.344-.645.057-.492.057-1.424.057-2.553v-2.072c0-1.836 0-2.168-.023-2.544-.023-.399-.115-.589-.506-.671a2.258 2.258 0 0 0-.402-.037c-.047 0-.092-.021-.092-.07 0-.07.057-.096.186-.096.533 0 1.273.037 1.332.037s.801-.037 1.154-.037c.133 0 .189.025.189.096 0 .049-.047.07-.094.07-.082 0-.154.014-.297.037-.318.059-.412.26-.438.671-.021.376-.021.708-.021 2.544v.248c0 .057.033.066.068.066h4.992c.035 0 .072-.01.072-.066v-.248c0-1.836 0-2.168-.025-2.544-.023-.399-.117-.589-.502-.671a2.312 2.312 0 0 0-.402-.037c-.049 0-.098-.021-.098-.07 0-.07.061-.096.191-.096.529 0 1.273.037 1.332.037s.799-.037 1.15-.037c.129 0 .188.025.188.096 0 .049-.047.07-.094.07-.082 0-.15.014-.289.037-.322.059-.418.26-.439.671-.023.376-.023.708-.023 2.544z"/><use xlink:href="#h" x="94.574" y="59.591"/><use xlink:href="#a" x="87.313" y="55.214"/><path d="M81.689 57.286c0 1.129 0 2.061.057 2.553.035.342.107.598.461.645.166.023.424.047.527.047.072 0 .094.037.094.072 0 .059-.059.094-.185.094-.648 0-1.388-.035-1.446-.035-.061 0-.801.035-1.156.035-.131 0-.189-.023-.189-.094 0-.035.023-.072.094-.072.107 0 .25-.023.355-.047.234-.047.295-.303.34-.645.061-.492.061-1.424.061-2.553v-4.98l-1.744.023c-.729.014-1.011.096-1.198.377a1.92 1.92 0 0 0-.201.364c-.035.095-.07.118-.118.118-.035 0-.06-.035-.06-.106 0-.118.236-1.132.26-1.226.023-.072.071-.223.119-.223.081 0 .199.116.519.142.339.034.786.058.929.058h4.414c.753 0 1.067-.116 1.163-.116.061 0 .061.067.061.14 0 .354-.035 1.167-.035 1.297 0 .105-.035.154-.084.154-.059 0-.082-.035-.096-.201l-.011-.131c-.044-.352-.313-.621-1.444-.646l-1.484-.023zM72.556 57.647c0-.635-.117-.893-.271-1.232-.082-.188-1.659-2.78-2.07-3.392-.296-.436-.59-.728-.802-.871-.176-.119-.399-.19-.507-.19-.059 0-.116-.021-.116-.082 0-.047.046-.084.152-.084.224 0 1.106.037 1.165.037.083 0 .53-.037.988-.037.131 0 .154.037.154.084 0 .049-.071.061-.178.107-.093.046-.151.118-.151.211 0 .145.059.283.151.461.188.34 1.955 3.377 2.166 3.721.224-.496 1.719-3.072 1.954-3.463.154-.247.199-.447.199-.6 0-.165-.045-.295-.188-.33-.104-.037-.176-.059-.176-.119 0-.047.071-.072.188-.072.306 0 .682.037.776.037.071 0 .918-.037 1.141-.037.083 0 .155.025.155.072 0 .061-.06.094-.155.094a1.12 1.12 0 0 0-.541.168c-.235.141-.364.283-.623.597-.388.474-2.037 3.239-2.249 3.747-.176.422-.176.789-.176 1.174v1.014c0 .188 0 .686.035 1.178.024.342.129.598.483.645.164.023.423.047.529.047.069 0 .094.037.094.072 0 .059-.058.094-.188.094-.646 0-1.388-.035-1.447-.035s-.802.035-1.153.035c-.131 0-.188-.023-.188-.094 0-.035.023-.072.093-.072.107 0 .247-.023.354-.047.235-.047.341-.303.364-.645.036-.492.036-.99.036-1.178z"/><use xlink:href="#e" x="65.505" y="57.31"/><use xlink:href="#i" x="53.758" y="55.907"/><path d="M46.424 55.214c0-1.836 0-2.168-.023-2.544-.023-.399-.118-.589-.507-.671a2.222 2.222 0 0 0-.398-.037c-.048 0-.096-.021-.096-.07 0-.07.06-.096.188-.096.53 0 1.236.037 1.331.037.258 0 .94-.037 1.482-.037 1.473 0 2.001.5 2.189.674.26.246.589.777.589 1.398 0 1.674-1.224 2.803-2.896 2.803-.06 0-.188 0-.247-.014-.06 0-.13-.021-.13-.082 0-.09.07-.102.317-.102 1.142 0 2.037-.84 2.037-1.922 0-.387-.035-1.174-.659-1.812-.625-.635-1.342-.588-1.613-.588-.199 0-.4.024-.506.071-.07.023-.095.105-.095.223v4.84c0 1.129 0 2.061.06 2.553.035.342.105.598.459.645.165.023.423.047.53.047.07 0 .094.037.094.072 0 .059-.06.094-.188.094-.647 0-1.389-.035-1.448-.035-.035 0-.776.035-1.129.035-.13 0-.189-.023-.189-.094 0-.035.024-.072.094-.072.106 0 .247-.023.354-.047.235-.047.295-.303.342-.645.059-.492.059-1.424.059-2.553z"/></g><g><use xlink:href="#a" x="35.418" y="55.214"/><use xlink:href="#e" x="29.439" y="57.31"/><use xlink:href="#i" x="17.457" y="55.907"/><use xlink:href="#h" x="8.287" y="59.591"/><use xlink:href="#a" x="1.025" y="55.214"/><use xlink:href="#g" x="4.438" y="50.198"/></g><g><path d="M61.177 0s-5.778 10.086-5.996 19.572h5.342v4.578h-5.561s-.437 9.487 6.215 20.062H55.78S42.697 26.169 55.78 0h5.397zM81.404 44.22h5.09V24.16h5.432v-4.58H86.58C86.799 10.095 92.578.009 92.578.009h-5.395c-4.15 8.296-5.668 15.777-5.805 22.125l.026 22.086zM99.967 24.16s-.439 9.485 6.213 20.062h-5.398s-6.103-8.416-5.801-22.089V0h4.959l.027 24.16zM64.512 0h5.015v44.22h-5.015zM76.287 0h-5.342s8.396 11.013 0 22.134h5.342s7.91-10.455 0-22.134z"/><path fill="#e2001a" d="M50.637 44.198S37.553 26.169 50.637 0H.319v44.198h50.318zM111.367 44.222c-6.65-10.576-6.215-20.062-6.215-20.062L105.125 0h51.139l-.041 44.218-44.856.004z"/></g></svg>