<svg width="354" height="176" viewBox="0 0 354 176" fill="none" xmlns="http://www.w3.org/2000/svg">
<path d="M255.846 175.466L243.459 143.481H167.059H167.05L136.163 64.3995L120.234 23.6155C116.169 10.4395 103.558 0.423518 89.3288 0.423518V0.528844H0.543457L12.9301 32.5142H89.3288L89.3541 32.4702L101.83 64.4142L58.4861 175.466L92.7875 175.456L118.994 108.36L136.183 152.368C140.277 165.497 152.865 175.466 167.059 175.466H255.846Z" fill="#EE452B"/>
<path d="M328.539 111.257L294.238 111.277L306.759 143.481H243.122H243.051L199.654 32.3686L199.67 32.4099H263.527V32.4993H263.563L275.947 64.6566L310.246 64.5926L294.356 23.4513C290.212 10.4113 277.684 0.531264 263.563 0.513931L263.56 0.508601L152.839 0.423274L212.632 153.517C217.086 166.074 229.346 175.466 243.122 175.466H353.503L328.539 111.257Z" fill="#CB3527"/>
</svg>
