<?xml version="1.0" encoding="UTF-8"?>
<!-- Generator: Adobe Illustrator 26.2.1, SVG Export Plug-In . SVG Version: 6.00 Build 0)  -->
<svg enable-background="new 0 0 1740 1076" version="1.1" viewBox="0 0 1740 1076" xml:space="preserve" xmlns="http://www.w3.org/2000/svg">
<style type="text/css">
	.st0{fill:#002B36;}
	.st1{fill:#A9E6C3;}
	.st2{fill:#D3F2E1;}
	.st3{fill:#15414C;}
	.st4{fill:#FFFFFF;}
	.st5{fill:#7F1620;}
	.st6{fill:url(#SVGID_1_);}
	.st7{fill:url(#SVGID_00000054241552525095698080000000727692942462414761_);}
	.st8{fill:url(#SVGID_00000034075584556786677080000012844293240282670491_);}
	.st9{fill:url(#SVGID_00000139272078624808106370000012415646724467870867_);}
	.st10{fill:url(#SVGID_00000048476320630349547820000007672165533289885318_);}
	.st11{fill:url(#SVGID_00000045582431637317747360000006920468458167019415_);}
	.st12{fill:url(#SVGID_00000127751950852090854650000006354939278803980971_);}
	.st13{fill:url(#SVGID_00000049911381556973500750000010242846069893299866_);}
	.st14{fill:url(#SVGID_00000172440443513300318050000006480705863851771563_);}
	.st15{fill:url(#SVGID_00000073696675743198646390000005859431671577880254_);}
	.st16{fill:url(#SVGID_00000138572255767720578630000002404850962172496558_);}
	.st17{fill:url(#SVGID_00000145751075152536731640000017483461594254445708_);}
	.st18{fill:url(#SVGID_00000019654892124267560150000003823708741069029505_);}
	.st19{fill:url(#SVGID_00000177457113231948153090000001439247795021092247_);}
	.st20{fill:url(#SVGID_00000058589639338869688690000012421579982356067506_);}
	.st21{fill:url(#SVGID_00000078019737555163541210000005539169430682734470_);}
	.st22{fill:url(#SVGID_00000095307778224062847850000001393959025290635438_);}
	.st23{fill:url(#SVGID_00000034069042621093806540000004674848609394523289_);}
	.st24{fill:#54CD88;}
	.st25{fill:#E32D2B;}
	.st26{fill:url(#SVGID_00000075851751355151169730000007147783578245514384_);}
	.st27{fill:url(#SVGID_00000097498151053011451310000011644142331955436952_);}
	.st28{fill:url(#SVGID_00000038382679739919972470000015019216183809321869_);}
	.st29{fill:url(#SVGID_00000101091909497641717360000001057386464909039015_);}
	.st30{fill:url(#SVGID_00000081649149172310691000000012061216692494631314_);}
	.st31{fill:url(#SVGID_00000130648527602359154890000011967489930154897040_);}
</style>

	<path class="st0" d="m923.4 787.6h-234c-3.3 0-6 2.7-6 6v9.2l-41.2-16.4-2.1-0.9-13-5.2 56.3 46v22.7c0 3.3 2.7 6 6 6h234c3.3 0 6-2.6 6-6v-55.4c0-3.3-2.7-6-6-6z"/>
	<polygon class="st1" points="825.5 436.3 825.5 620.6 803 624.2 803 658.6 129.2 658.6 129.2 436.3"/>
	<path class="st1" d="m825.5 631.8v24.1c-0.7-0.1-1.4-0.2-2.1-0.3-6-0.8-10.2-1.4-10.2-1.9v-19.8c0-0.5 5.2-1.2 12.3-2.1z"/>
	<path class="st1" d="m822.6 658.6c0.9-0.1 1.9-0.2 3-0.4v0.4h-3z"/>
	<polygon class="st2" transform="matrix(1 0 0 .79884 0 87.768)" points="420.6 231 420.6 436.3 825.5 436.3 825.5 231"/>
	<path d="m540.4 345h-3.4l-8.4 18.6h3.6l1.8-4.3h9.3l1.9 4.3h3.6zm-5.2 11.6 3.5-8.2 3.5 8.2zm23.3 3.9c-0.5 0.4-1.2 0.6-1.9 0.6-1.3 0-2-0.8-2-2.1v-6.8h3.8v-2.7h-3.8v-3.2h-3.3v3.2h-2.3v2.7h2.3v6.8c0 3.1 1.8 4.8 4.9 4.8 1.2 0 2.4-0.3 3.2-1zm11.3-16.6v19.7h3.3v-19.7zm21.2 12.7c0-4.5-3-7.4-7.2-7.4s-7.3 3-7.3 7.3 3.1 7.3 7.9 7.3c2.4 0 4.4-0.8 5.7-2.3l-1.8-2c-1 1-2.3 1.5-3.9 1.5-2.5 0-4.2-1.3-4.6-3.4h11.2c-0.1-0.3 0-0.7 0-1zm-11.3-1.2c0.3-2.1 1.9-3.5 4-3.5 2.2 0 3.8 1.4 4 3.5zm19.6-6.2c-2.3 0-4.5 0.6-6 1.8l1.3 2.4c1.1-0.9 2.7-1.4 4.3-1.4 2.4 0 3.5 1.1 3.5 3.1v0.2h-3.7c-4.3 0-5.9 1.9-5.9 4.2 0 2.5 2 4.3 5.3 4.3 2.1 0 3.7-0.7 4.5-1.9v1.7h3.1v-8.3c0.1-4.1-2.3-6.1-6.4-6.1zm3.1 10c-0.6 1.5-2 2.2-3.6 2.2-1.7 0-2.7-0.8-2.7-2 0-1 0.6-1.9 2.9-1.9h3.4zm9.8-5.7c0-0.9 1-1.6 3-1.6 1.4 0 2.7 0.3 4.1 1.1l1.3-2.5c-1.3-0.8-3.4-1.2-5.3-1.2-3.8 0-6.3 1.8-6.3 4.5 0 5.7 8.8 3.1 8.8 5.8 0 1-0.9 1.6-3 1.6-1.8 0-3.7-0.6-4.9-1.4l-1.3 2.5c1.3 0.9 3.6 1.6 6 1.6 4 0 6.4-1.7 6.4-4.4 0-5.6-8.8-3.1-8.8-6zm19.4 7c-0.5 0.4-1.2 0.6-1.9 0.6-1.3 0-2-0.8-2-2.1v-6.8h3.8v-2.7h-3.8v-3.2h-3.3v3.2h-2.3v2.7h2.3v6.8c0 3.1 1.8 4.8 4.9 4.8 1.2 0 2.4-0.3 3.2-1zm9.3-15.5v2.9h3.9v15.7h3.5v-18.6zm29.9 4.4-4.5 10.5-4.5-10.5h-3.5l6.2 14.3-0.2 0.5c-0.6 1.4-1.3 2-2.5 2-0.9 0-1.8-0.4-2.4-1l-1.3 2.4c0.9 0.8 2.4 1.3 3.8 1.3 2.4 0 4.2-1 5.5-4.2l6.7-15.4h-3.3zm18.3 7.2c0-4.5-3-7.4-7.2-7.4s-7.3 3-7.3 7.3 3.1 7.3 7.8 7.3c2.5 0 4.5-0.8 5.7-2.3l-1.8-2c-1 1-2.3 1.5-3.9 1.5-2.5 0-4.2-1.3-4.6-3.4h11.2c0.1-0.3 0.1-0.7 0.1-1zm-11.2-1.2c0.3-2.1 1.9-3.5 4-3.5 2.2 0 3.8 1.4 4 3.5zm19.6-6.2c-2.3 0-4.5 0.6-6 1.8l1.3 2.4c1.1-0.9 2.7-1.4 4.3-1.4 2.4 0 3.5 1.1 3.5 3.1v0.2h-3.6c-4.3 0-5.9 1.9-5.9 4.2 0 2.5 2.1 4.3 5.3 4.3 2.1 0 3.7-0.7 4.5-1.9v1.7h3.1v-8.3c-0.1-4.1-2.4-6.1-6.5-6.1zm3.1 10c-0.6 1.5-2 2.2-3.6 2.2-1.7 0-2.7-0.8-2.7-2 0-1 0.6-1.9 2.9-1.9h3.4zm10.9-7.7v-2.1h-3.2v14.2h3.3v-6.9c0-2.9 1.6-4.4 4.1-4.4 0.2 0 0.5 0 0.8 0.1v-3.2c-2.3 0-4 0.8-5 2.3z"/>
	<path d="m94 437.3h6c0.6 0 1-0.4 1-1s-0.4-1-1-1h-6c-0.6 0-1 0.4-1 1 0 0.5 0.5 1 1 1z"/>
	<path d="m124.1 435.3h-12.1c-0.5 0-1 0.4-1 1s0.5 1 1 1h12.1c0.5 0 1-0.4 1-1s-0.4-1-1-1zm24.1 0h-12.1c-0.5 0-1 0.4-1 1s0.5 1 1 1h12.1c0.6 0 1-0.4 1-1s-0.4-1-1-1zm24.1 0h-12.1c-0.5 0-1 0.4-1 1s0.5 1 1 1h12.1c0.6 0 1-0.4 1-1s-0.4-1-1-1zm24.2 0h-12.1c-0.6 0-1 0.4-1 1s0.4 1 1 1h12.1c0.5 0 1-0.4 1-1s-0.5-1-1-1zm24.1 0h-12.1c-0.6 0-1 0.4-1 1s0.4 1 1 1h12.1c0.5 0 1-0.4 1-1s-0.5-1-1-1zm24.1 0h-12.1c-0.5 0-1 0.4-1 1s0.5 1 1 1h12.1c0.5 0 1-0.4 1-1s-0.5-1-1-1zm24.1 0h-12c-0.6 0-1 0.4-1 1s0.4 1 1 1h12c0.6 0 1-0.4 1-1s-0.4-1-1-1zm24.1 0h-12.1c-0.5 0-1 0.4-1 1s0.5 1 1 1h12.1c0.5 0 1-0.4 1-1s-0.4-1-1-1zm24.1 0h-12c-0.6 0-1 0.4-1 1s0.4 1 1 1h12c0.5 0 1-0.4 1-1s-0.4-1-1-1zm24.2 0h-12.1c-0.6 0-1 0.4-1 1s0.4 1 1 1h12.1c0.5 0 1-0.4 1-1s-0.5-1-1-1zm24.1 0h-12.1c-0.5 0-1 0.4-1 1s0.5 1 1 1h12.1c0.5 0 1-0.4 1-1s-0.5-1-1-1zm24.1 0h-12.1c-0.5 0-1 0.4-1 1s0.5 1 1 1h12.1c0.5 0 1-0.4 1-1s-0.5-1-1-1zm24.1 0h-12.1c-0.5 0-1 0.4-1 1s0.5 1 1 1h12.1c0.5 0 1-0.4 1-1s-0.5-1-1-1zm24.1 0h-12c-0.6 0-1 0.4-1 1s0.4 1 1 1h12c0.6 0 1-0.4 1-1s-0.4-1-1-1zm24.1 0h-12.1c-0.5 0-1 0.4-1 1s0.5 1 1 1h12.1c0.6 0 1-0.4 1-1s-0.4-1-1-1zm24.1 0h-12c-0.6 0-1 0.4-1 1s0.4 1 1 1h12c0.6 0 1-0.4 1-1s-0.4-1-1-1zm24.2 0h-12.1c-0.5 0-1 0.4-1 1s0.5 1 1 1h12.1c0.5 0 1-0.4 1-1s-0.5-1-1-1zm24.1 0h-12.1c-0.5 0-1 0.4-1 1s0.5 1 1 1h12.1c0.5 0 1-0.4 1-1s-0.5-1-1-1zm24.1 0h-12.1c-0.5 0-1 0.4-1 1s0.5 1 1 1h12.1c0.5 0 1-0.4 1-1s-0.5-1-1-1zm24.1 0h-12.1c-0.5 0-1 0.4-1 1s0.5 1 1 1h12.1c0.6 0 1-0.4 1-1s-0.5-1-1-1zm24.1 0h-12.1c-0.5 0-1 0.4-1 1s0.5 1 1 1h12.1c0.6 0 1-0.4 1-1s-0.4-1-1-1zm24.1 0h-12.1c-0.6 0-1 0.4-1 1s0.4 1 1 1h12.1c0.5 0 1-0.4 1-1s-0.4-1-1-1zm24.1 0h-12c-0.6 0-1 0.4-1 1s0.4 1 1 1h12c0.6 0 1-0.4 1-1s-0.4-1-1-1zm24.2 0h-12.1c-0.5 0-1 0.4-1 1s0.5 1 1 1h12.1c0.5 0 1-0.4 1-1s-0.5-1-1-1zm24.1 0h-12c-0.6 0-1 0.4-1 1s0.4 1 1 1h12c0.5 0 1-0.4 1-1s-0.5-1-1-1zm24.1 0h-12.1c-0.5 0-1 0.4-1 1s0.5 1 1 1h12.1c0.6 0 1-0.4 1-1s-0.5-1-1-1zm24.1 0h-12.1c-0.6 0-1 0.4-1 1s0.4 1 1 1h12.1c0.5 0 1-0.4 1-1s-0.5-1-1-1zm24.1 0h-12.1c-0.6 0-1 0.4-1 1s0.4 1 1 1h12.1c0.5 0 1-0.4 1-1s-0.4-1-1-1zm24.1 0h-12.1c-0.5 0-1 0.4-1 1s0.5 1 1 1h12.1c0.5 0 1-0.4 1-1s-0.4-1-1-1zm24.1 0h-12c-0.5 0-1 0.4-1 1s0.5 1 1 1h12c0.6 0 1-0.4 1-1s-0.4-1-1-1zm24.1 0h-12.1c-0.5 0-1 0.4-1 1s0.5 1 1 1h12.1c0.5 0 1-0.4 1-1s-0.4-1-1-1zm24.2 0h-12c-0.6 0-1 0.4-1 1s0.4 1 1 1h12c0.6 0 1-0.4 1-1s-0.5-1-1-1zm24.1 0h-12.1c-0.5 0-1 0.4-1 1s0.5 1 1 1h12.1c0.5 0 1-0.4 1-1s-0.5-1-1-1zm24.1 0h-12.1c-0.5 0-1 0.4-1 1s0.5 1 1 1h12.1c0.5 0 1-0.4 1-1s-0.5-1-1-1zm24.1 0h-12c-0.5 0-1 0.4-1 1s0.5 1 1 1h12c0.5 0 1-0.4 1-1s-0.4-1-1-1zm24.1 0h-12.1c-0.5 0-1 0.4-1 1s0.5 1 1 1h12.1c0.5 0 1-0.4 1-1s-0.4-1-1-1zm24.1 0h-12.1c-0.5 0-1 0.4-1 1s0.5 1 1 1h12.1c0.5 0 1-0.4 1-1s-0.4-1-1-1zm24.1 0h-12.1c-0.5 0-1 0.4-1 1s0.5 1 1 1h12.1c0.6 0 1-0.4 1-1s-0.4-1-1-1zm24.2 0h-12.1c-0.6 0-1 0.4-1 1s0.4 1 1 1h12.1c0.6 0 1-0.4 1-1s-0.5-1-1-1zm24.1 0h-12.1c-0.6 0-1 0.4-1 1s0.4 1 1 1h12.1c0.5 0 1-0.4 1-1s-0.5-1-1-1zm24.1 0h-12c-0.6 0-1 0.4-1 1s0.4 1 1 1h12c0.6 0 1-0.4 1-1s-0.5-1-1-1zm24.1 0h-12.1c-0.6 0-1 0.4-1 1s0.4 1 1 1h12.1c0.5 0 1-0.4 1-1s-0.4-1-1-1zm24.1 0h-12.1c-0.5 0-1 0.4-1 1s0.5 1 1 1h12.1c0.6 0 1-0.4 1-1s-0.4-1-1-1zm24.1 0h-12c-0.6 0-1 0.4-1 1s0.4 1 1 1h12.1c0.6 0 1-0.4 1-1-0.1-0.6-0.5-1-1.1-1zm24.2 0h-12.1c-0.6 0-1 0.4-1 1s0.4 1 1 1h12.1c0.5 0 1-0.4 1-1s-0.5-1-1-1zm24.1 0h-12.1c-0.6 0-1 0.4-1 1s0.4 1 1 1h12.1c0.6 0 1-0.4 1-1s-0.5-1-1-1zm24.1 0h-12.1c-0.6 0-1 0.4-1 1s0.4 1 1 1h12.1c0.5 0 1-0.4 1-1s-0.5-1-1-1zm24.1 0h-12.1c-0.6 0-1 0.4-1 1s0.4 1 1 1h12.1c0.6 0 1-0.4 1-1s-0.5-1-1-1zm24.1 0h-12.1c-0.6 0-1 0.4-1 1s0.4 1 1 1h12.1c0.5 0 1-0.4 1-1s-0.4-1-1-1z"/>
	<path d="m1324.8 436.3c0 0.4-0.2 0.7-0.6 0.9-0.1 0.1-0.3 0.1-0.4 0.1h-2c-1.7-0.2-3.4-0.5-5-0.7 0-0.1-0.1-0.2-0.1-0.3 0-0.6 0.4-1 1-1h6c0.6 0 1.1 0.4 1.1 1z"/>
	<polygon class="st3" points="94 984.9 314.4 885.4 314.4 915 159.5 984.9"/>
	<path class="st3" d="m333.4 906.4-8.7 3.9v-2.3c-0.1-0.4 3.5-0.9 8.7-1.6z"/>
	<path class="st3" d="m365.8 862.2 11.7-5.3v4.9c0 1.2-1.1 2.3-3 3.3 1.9 1 3 2.1 3 3.3v18l-7.4 3.3-15.3 6.9-15.8 7.1c-8.1-1.1-14.3-1.8-14.3-2.4v-19.8c0-0.7 9.7-1.7 20.8-3.3-4.4-0.6-8.5-1.2-11.9-1.6l10.7-4.8 21.5-9.6z"/>
	<polygon class="st3" points="387.7 852.3 464.4 817.7 464.4 847.3 387.7 881.9"/>
	<path class="st3" d="m482 839.3-7.3 3.3v-1.8c-0.1-0.4 2.8-0.9 7.3-1.5z"/>
	<path class="st3" d="m515.1 794.8 12.3-5.6v5.4c0 1.2-1.1 2.3-3 3.3 1.9 1 3 2.1 3 3.3v17.6l-7.9 3.6-16.2 7.3-15 6.8c-7.8-1-13.6-1.8-13.6-2.3v-19.8c0-0.7 9.7-1.7 20.8-3.3-4.7-0.7-9.1-1.2-12.7-1.7l10-4.5 22.3-10.1z"/>
	<polygon class="st3" points="537.7 784.6 640.1 738.4 640.1 767.9 537.7 814.2"/>
	<path class="st3" d="m703.2 715.8v19.8c0 1.2-1.1 2.3-3 3.3 0.7 0.4 1.3 0.7 1.7 1.1l-24.9 11.3-2.9 1.3-23.8 10.8v-7.9c0-0.7 9.7-1.7 20.9-3.3-11.1-1.6-20.9-2.6-20.9-3.3v-15.1l16.3-7.4 2.1-0.9 21.2-9.6 8.7-3.9 4.3-1.9c-0.3 0.9-1.4 1.8-2.9 2.6 2.1 0.8 3.2 1.9 3.2 3.1z"/>
	<polygon class="st3" points="713.4 705.3 803 664.9 803 694.4 713.4 734.9"/>
	<path class="st3" d="m824.4 684.8-11.2 5v-3c0-0.5 4.6-1.2 11.2-2z"/>
	<path class="st3" d="m863 643.8c1.9 1 3 2.1 3 3.3v18.9l-6.4 2.9-13.4 6.1-17.3 7.8c-8.8-1.2-15.7-2-15.7-2.6v-19.8c0-0.4 3.8-1 9.3-1.8 0.9-0.1 1.9-0.2 3-0.4 2.6-0.4 5.5-0.7 8.5-1.2-3-0.4-5.9-0.8-8.5-1.2-0.7-0.1-1.4-0.2-2.1-0.3l2.1-0.9 9.8-4.4 20.1-9.1 10.6-4.8v4.2c0 1.2-1.1 2.3-3 3.3z"/>
	<polygon class="st3" points="876.3 631.8 965.8 591.3 965.8 620.9 876.3 661.3"/>
	<path class="st3" d="m988.9 610.5-12.8 5.8v-3.6c0-0.5 5.4-1.2 12.8-2.2z"/>
	<path class="st3" d="m1019 567.3 9.9-4.5v3.6c0 1.2-1.1 2.3-3 3.3 1.9 1 3 2.1 3 3.3v19.4l-5.8 2.6-12.1 5.5-18.4 8.3c-9.2-1.2-16.5-2.1-16.5-2.7v-19.4l2.6-1.2c3.6-0.6 10.6-1.5 18.3-2.5-3.5-0.5-6.8-0.9-9.7-1.3l12.6-5.7 19.1-8.7z"/>
	<polygon class="st3" points="1039.1 558.2 1128.7 517.8 1128.7 547.4 1039.1 587.8"/>
	<path class="st3" d="m1140.9 541.9-2 0.9v-0.2c0-0.3 0.7-0.5 2-0.7z"/>
	<path class="st3" d="m1174.3 497.2 17.4-7.9v7c0 1.2-1.1 2.3-3 3.3 1.9 1 3 2.1 3 3.3v16l-10.1 4.5-19.4 8.8-12.4 5.6c-6.4-0.8-10.9-1.5-10.9-2v-19.8c0-0.7 9.7-1.7 20.9-3.3-5.9-0.9-11.5-1.5-15.4-2.1l7.7-3.5 22.2-9.9z"/>
	<polygon class="st3" points="1202 484.7 1291.5 444.3 1291.5 473.9 1202 514.3"/>
	<path class="st3" d="m1310.2 465.5-8.4 3.8v-2.2c0-0.4 3.4-0.9 8.4-1.6z"/>
	<path class="st3" d="m1342.8 421.2 11.8-5.3v5c0 1.2-1.1 2.3-3 3.3 1.9 1 3 2.1 3 3.3v18l-7.5 3.4-15.5 7-15.6 7.1c-8-1.1-14.1-1.8-14.1-2.4v-19.8c0-0.5 5.2-1.2 12.3-2.1 2.6-0.3 5.5-0.7 8.5-1.2-0.3 0-0.6-0.1-0.8-0.1-1.7-0.2-3.4-0.5-5-0.7-0.9-0.1-1.9-0.2-2.8-0.4-1.3-0.2-2.5-0.3-3.6-0.5l3.6-1.6 6.9-3.1 21.3-9.6 0.5-0.3z"/>
	<polygon class="st3" points="1364.8 411.2 1454.4 370.8 1454.4 400.4 1364.8 440.8"/>
	<path class="st3" d="m1511.6 345 5.8-2.6v0.5c0 1.2-1.1 2.3-3 3.3 1.9 1 3 2.1 3 3.3v19.8c0 1.2-1.1 2.3-3 3.3 0.2 0.1 0.5 0.3 0.7 0.4l-27.8 12.6-0.9 0.4-21.8 9.8v-6.7c0-0.7 9.7-1.7 20.8-3.3-11.1-1.6-20.8-2.6-20.8-3.3v-16.3l12.6-5.7 3.8-1.7 18.3-8.2 12.3-5.6z"/>
	<polygon class="st3" points="1647.3 283.7 1647.3 313.3 1527.7 367.3 1527.7 337.7"/>
	<path class="st4" d="m1028.9 546.7v19.8c0 1.2-1.1 2.3-3 3.3 1.9 1 3 2.1 3 3.3v19.8c0 1.2-1.1 2.3-3 3.3 1.9 1 3 2.1 3 3.3v19.8c0 8.2-52.8 11.5-52.8 13.2v-19.8c0-0.5 5.4-1.2 12.8-2.2 2.5-0.3 5.2-0.7 8-1.1-1.5-0.2-2.9-0.4-4.2-0.6-9.2-1.2-16.5-2.1-16.5-2.7v-19.8c0-0.2 0.9-0.5 2.6-0.8 3.6-0.6 10.6-1.5 18.3-2.5-3.5-0.5-6.8-0.9-9.7-1.3-6.5-0.9-11.1-1.5-11.1-2v-19.8c-0.2-1.6 52.6-4.9 52.6-13.2z"/>
	<rect class="st4" x="1039" y="600.6" width=".2" height="2.8"/>
	<path class="st4" d="m1038.2 614.5 0.9-1.9v2.4c-0.3-0.2-0.6-0.3-0.9-0.5z"/>
	<path class="st5" d="m1028.9 599.5v6.6c0 2.7-5.6 4.8-13.2 6.6-5.7-1.3-12.5-2.4-18.8-3.3-1.5-0.2-2.9-0.4-4.2-0.6-9.2-1.2-16.5-2.1-16.5-2.7v-6.6c0-1.1 24-3 39.7-6.6 2.8 0.7 5.3 1.4 7.4 2.1 1 0.4 1.9 0.8 2.7 1.2 1.8 1 2.9 2.1 2.9 3.3z"/>
	<path class="st5" d="m1028.9 573.1v6.6c0 2.7-5.6 4.8-13.2 6.6-5.7-1.3-12.5-2.4-18.8-3.3-3.5-0.5-6.8-0.9-9.7-1.3-6.5-0.9-11.1-1.5-11.1-2v-6.6c0-1.1 24-3 39.7-6.6 1.1 0.3 2.2 0.5 3.3 0.8 2.8 0.8 5.1 1.6 6.8 2.5 1.9 1 3 2.1 3 3.3z"/>
	
		<linearGradient id="SVGID_1_" x1="976.1" x2="1028.9" y1="486.4" y2="486.4" gradientTransform="matrix(1 0 0 -1 0 1076)" gradientUnits="userSpaceOnUse">
		<stop stop-color="#E32D2B" offset="0"/>
		<stop stop-color="#E32D2B" offset=".0092129"/>
		<stop stop-color="#E12E2C" offset=".092526"/>
		<stop stop-color="#DD302E" offset=".4187"/>
		<stop stop-color="#DE3D3B" offset=".8091"/>
		<stop stop-color="#E3322F" offset="1"/>
	</linearGradient>
	<path class="st6" d="m1028.9 573.1v19.8c0 1.2-1.1 2.3-3 3.3-3.2 1.7-8.7 3.1-14.8 4.3-15.3 3-35 4.6-35 5.6v-19.8c0-0.2 0.9-0.5 2.6-0.8 3.6-0.6 10.6-1.5 18.3-2.5 14.7-2.1 31.9-5.2 31.9-9.9z"/>
	
		<linearGradient id="SVGID_00000120524075274577102130000004719199009487935111_" x1="976.1" x2="1028.9" y1="512.8" y2="512.8" gradientTransform="matrix(1 0 0 -1 0 1076)" gradientUnits="userSpaceOnUse">
		<stop stop-color="#E32D2B" offset="0"/>
		<stop stop-color="#E32D2B" offset=".0092129"/>
		<stop stop-color="#E12E2C" offset=".092526"/>
		<stop stop-color="#DD302E" offset=".4187"/>
		<stop stop-color="#DE3D3B" offset=".8091"/>
		<stop stop-color="#E3322F" offset="1"/>
	</linearGradient>
	<path d="m1028.9 546.7v19.8c0 1.2-1.1 2.3-3 3.3-5.1 2.7-15.8 4.7-26 6.2-12.3 1.8-23.8 3-23.8 3.7v-19.8c0-1.6 52.8-4.9 52.8-13.2z" fill="url(#SVGID_00000120524075274577102130000004719199009487935111_)"/>
	
		<linearGradient id="SVGID_00000093881024108569255400000003212980461048726455_" x1="976.1" x2="1028.9" y1="460" y2="460" gradientTransform="matrix(1 0 0 -1 0 1076)" gradientUnits="userSpaceOnUse">
		<stop stop-color="#E32D2B" offset="0"/>
		<stop stop-color="#E32D2B" offset=".0092129"/>
		<stop stop-color="#E12E2C" offset=".092526"/>
		<stop stop-color="#DD302E" offset=".4187"/>
		<stop stop-color="#DE3D3B" offset=".8091"/>
		<stop stop-color="#E3322F" offset="1"/>
	</linearGradient>
	<path d="m1028.9 599.5v19.8c0 8.2-52.8 11.5-52.8 13.2v-19.8c0-0.5 5.4-1.2 12.8-2.2 2.5-0.3 5.2-0.7 8-1.1 14.8-2.1 32-5.2 32-9.9z" fill="url(#SVGID_00000093881024108569255400000003212980461048726455_)"/>
	<path class="st4" d="m1517.5 323.1v19.8c0 1.2-1.1 2.3-3 3.3 1.9 1 3 2.1 3 3.3v19.8c0 1.2-1.1 2.3-3 3.3 0.2 0.1 0.5 0.3 0.7 0.4 1.5 0.9 2.3 1.9 2.3 2.9v19.8c0 8.2-52.8 11.6-52.8 13.2v-19.8c0-0.7 9.7-1.7 20.8-3.3-11.1-1.6-20.8-2.6-20.8-3.3v-19.8c0-0.5 5.3-1.2 12.6-2.2l3.8-1.7c-9.2-1.2-16.4-2.1-16.4-2.7v-19.8c-0.1-1.7 52.8-5 52.8-13.2z"/>
	<path class="st5" d="m1517.5 375.9v6.6c0 2.7-5.6 4.9-13.2 6.6-5.4-1.2-11.8-2.3-17.9-3.2-0.3 0-0.6-0.1-0.9-0.1-11.1-1.6-20.8-2.6-20.8-3.3v-6.6c0-1.1 24-3 39.7-6.6 4.2 1 7.8 2.1 10.1 3.3 0.2 0.1 0.5 0.3 0.7 0.4 1.4 0.9 2.3 1.8 2.3 2.9z"/>
	<path class="st5" d="m1517.5 349.5v6.6c0 2.7-5.6 4.8-13.2 6.6-5.7-1.3-12.5-2.4-18.8-3.3-1.5-0.2-3-0.4-4.4-0.6-9.2-1.2-16.4-2.1-16.4-2.7v-6.6c0-1.1 24-3 39.7-6.6 2.8 0.6 5.3 1.3 7.3 2.1 1 0.4 2 0.8 2.8 1.2 1.8 1 3 2.1 3 3.3z"/>
	
		<linearGradient id="SVGID_00000016051417656387754700000007674329314588354968_" x1="1464.6" x2="1517.4" y1="710" y2="710" gradientTransform="matrix(1 0 0 -1 0 1076)" gradientUnits="userSpaceOnUse">
		<stop stop-color="#E32D2B" offset="0"/>
		<stop stop-color="#E32D2B" offset=".0092129"/>
		<stop stop-color="#E12E2C" offset=".092526"/>
		<stop stop-color="#DD302E" offset=".4187"/>
		<stop stop-color="#DE3D3B" offset=".8091"/>
		<stop stop-color="#E3322F" offset="1"/>
	</linearGradient>
	<path d="m1517.5 349.5v19.8c0 1.2-1.1 2.3-3 3.3-11.2 5.9-49.8 8.5-49.8 9.9v-19.8c0-0.5 5.3-1.2 12.6-2.2 2.6-0.3 5.4-0.7 8.2-1.1 14.7-2.1 32-5.2 32-9.9z" fill="url(#SVGID_00000016051417656387754700000007674329314588354968_)"/>
	
		<linearGradient id="SVGID_00000137839811864033401160000008835485391579804857_" x1="1464.6" x2="1517.4" y1="736.4" y2="736.4" gradientTransform="matrix(1 0 0 -1 0 1076)" gradientUnits="userSpaceOnUse">
		<stop stop-color="#E32D2B" offset="0"/>
		<stop stop-color="#E32D2B" offset=".0092129"/>
		<stop stop-color="#E12E2C" offset=".092526"/>
		<stop stop-color="#DD302E" offset=".4187"/>
		<stop stop-color="#DE3D3B" offset=".8091"/>
		<stop stop-color="#E3322F" offset="1"/>
	</linearGradient>
	<path d="m1517.5 323.1v19.8c0 1.2-1.1 2.3-3 3.3-3.3 1.7-8.8 3.1-15.1 4.3-15.3 2.9-34.7 4.6-34.7 5.6v-19.8c-0.1-1.7 52.8-5 52.8-13.2z" fill="url(#SVGID_00000137839811864033401160000008835485391579804857_)"/>
	
		<linearGradient id="SVGID_00000085948146073053645580000002433302716788505534_" x1="1464.6" x2="1517.4" y1="683.6" y2="683.6" gradientTransform="matrix(1 0 0 -1 0 1076)" gradientUnits="userSpaceOnUse">
		<stop stop-color="#E32D2B" offset="0"/>
		<stop stop-color="#E32D2B" offset=".0092129"/>
		<stop stop-color="#E12E2C" offset=".092526"/>
		<stop stop-color="#DD302E" offset=".4187"/>
		<stop stop-color="#DE3D3B" offset=".8091"/>
		<stop stop-color="#E3322F" offset="1"/>
	</linearGradient>
	<path d="m1517.5 375.9v19.8c0 8.2-52.8 11.6-52.8 13.2v-19.8c0-0.7 9.7-1.7 20.8-3.3l1.8-0.3c14.3-2 30.2-5.1 30.2-9.6z" fill="url(#SVGID_00000085948146073053645580000002433302716788505534_)"/>
	<path class="st4" d="m1191.8 476.5v19.8c0 1.2-1.1 2.3-3 3.3 1.9 1 3 2.1 3 3.3v19.8c0 1.2-1.1 2.3-3.1 3.3 1.9 1 3.1 2.1 3.1 3.3v19.8c0 8.2-52.8 11.5-52.8 13.2v-19.8c0-0.2 0.7-0.4 2-0.6 3.4-0.7 10.8-1.5 18.8-2.6-3.6-0.5-7-1-10-1.4-6.4-0.8-10.9-1.5-10.9-2v-19.8c0-0.7 9.7-1.7 20.9-3.3-5.9-0.9-11.5-1.5-15.4-2.1-3.4-0.5-5.5-0.9-5.5-1.2v-19.8c0-1.6 52.9-4.9 52.9-13.2z"/>
	<path class="st5" d="m1191.8 529.3v6.6c0 2.7-5.6 4.9-13.2 6.6-5.7-1.3-12.5-2.4-18.8-3.3-3.6-0.5-7-1-10-1.4-6.4-0.8-10.9-1.5-10.9-2v-6.6c0-1.1 24-3 39.7-6.6 1.1 0.2 2.1 0.5 3.1 0.8 2.8 0.8 5.3 1.6 7 2.5 1.9 1.1 3.1 2.2 3.1 3.4z"/>
	<path class="st5" d="m1191.8 502.9v6.6c0 2.7-5.6 4.8-13.2 6.6-5.7-1.3-12.5-2.4-18.8-3.3-5.9-0.9-11.5-1.5-15.4-2.1-3.4-0.5-5.5-0.9-5.5-1.2v-6.6c0-1 20-2.6 35.4-5.7 1.5-0.3 2.9-0.6 4.2-0.9 4.2 1 7.8 2.1 10.1 3.3 2 1 3.2 2.1 3.2 3.3z"/>
	
		<linearGradient id="SVGID_00000033337975375197653910000002758575308464108472_" x1="1138.9" x2="1191.7" y1="556.65" y2="556.65" gradientTransform="matrix(1 0 0 -1 0 1076)" gradientUnits="userSpaceOnUse">
		<stop stop-color="#E32D2B" offset="0"/>
		<stop stop-color="#E32D2B" offset=".0092129"/>
		<stop stop-color="#E12E2C" offset=".092526"/>
		<stop stop-color="#DD302E" offset=".4187"/>
		<stop stop-color="#DE3D3B" offset=".8091"/>
		<stop stop-color="#E3322F" offset="1"/>
	</linearGradient>
	<path d="m1191.8 502.9v19.8c0 1.2-1.1 2.3-3.1 3.3-5.2 2.7-16.2 4.7-26.5 6.2-12.1 1.8-23.3 2.9-23.3 3.6v-19.8c0-0.7 9.7-1.7 20.9-3.3 14.8-2 32-5.1 32-9.8z" fill="url(#SVGID_00000033337975375197653910000002758575308464108472_)"/>
	
		<linearGradient id="SVGID_00000018203295077978400500000008320271202970559150_" x1="1138.9" x2="1191.7" y1="583" y2="583" gradientTransform="matrix(1 0 0 -1 0 1076)" gradientUnits="userSpaceOnUse">
		<stop stop-color="#E32D2B" offset="0"/>
		<stop stop-color="#E32D2B" offset=".0092129"/>
		<stop stop-color="#E12E2C" offset=".092526"/>
		<stop stop-color="#DD302E" offset=".4187"/>
		<stop stop-color="#DE3D3B" offset=".8091"/>
		<stop stop-color="#E3322F" offset="1"/>
	</linearGradient>
	<path d="m1191.8 476.5v19.8c0 1.2-1.1 2.3-3 3.3-6.9 3.7-24.4 6-36.6 7.7-7.6 1-13.2 1.7-13.2 2.2v-19.8c-0.1-1.6 52.8-4.9 52.8-13.2z" fill="url(#SVGID_00000018203295077978400500000008320271202970559150_)"/>
	
		<linearGradient id="SVGID_00000119104146564771022820000014156740490944568214_" x1="1138.9" x2="1191.7" y1="530.2" y2="530.2" gradientTransform="matrix(1 0 0 -1 0 1076)" gradientUnits="userSpaceOnUse">
		<stop stop-color="#E32D2B" offset="0"/>
		<stop stop-color="#E32D2B" offset=".0092129"/>
		<stop stop-color="#E12E2C" offset=".092526"/>
		<stop stop-color="#DD302E" offset=".4187"/>
		<stop stop-color="#DE3D3B" offset=".8091"/>
		<stop stop-color="#E3322F" offset="1"/>
	</linearGradient>
	<path d="m1191.8 529.3v19.8c0 8.2-52.8 11.5-52.8 13.2v-19.8c0-0.2 0.7-0.4 2-0.6 3.4-0.7 10.8-1.5 18.8-2.6 14.7-2.2 32-5.3 32-10z" fill="url(#SVGID_00000119104146564771022820000014156740490944568214_)"/>
	<polygon class="st4" points="640.1 785.5 642.2 786.4 640.1 786.4"/>
	<path class="st4" d="m700.1 712.5c1.9 1 3 2.1 3 3.3v19.8c0 1.2-1.1 2.3-3 3.3 0.7 0.4 1.3 0.7 1.7 1.1 0.8 0.7 1.3 1.4 1.3 2.2v19.8c0 8.3-52.8 11.6-52.8 13.2v-19.8c0-0.7 9.7-1.7 20.9-3.3-11.1-1.6-20.9-2.6-20.9-3.3v-19.8c0-0.6 7.2-1.4 16.3-2.7l2.1-0.9c-10.1-1.4-18.5-2.3-18.5-3v-19.8c0-1.6 47.2-4.6 52.4-11.9h0.5v18.5c0 0.2 0 0.5-0.1 0.7-0.3 1-1.3 1.8-2.9 2.6z"/>
	<path class="st5" d="m703.2 742.2v6.6c0 2.7-5.6 4.9-13.2 6.6-4.8-1.1-10.4-2.1-15.9-2.9-1-0.1-2-0.3-2.9-0.4-11.1-1.6-20.9-2.6-20.9-3.3v-6.6c0-1.1 24-3 39.7-6.6 4.2 1 7.8 2.1 10.1 3.3 0.7 0.4 1.3 0.7 1.7 1.1 0.9 0.8 1.4 1.5 1.4 2.2z"/>
	<path class="st5" d="m703.2 715.8v6.6c0 2.7-5.6 4.9-13.2 6.6-5.7-1.3-12.5-2.4-18.8-3.3l-2.4-0.3c-10.1-1.4-18.5-2.3-18.5-3v-6.6c0-1.1 24-3 39.7-6.6 3.4 0.8 6.5 1.7 8.8 2.7 0.5 0.2 1 0.4 1.4 0.6 1.9 1 3 2.1 3 3.3z"/>
	
		<linearGradient id="SVGID_00000111895128438083450650000002911157645565634449_" x1="650.4" x2="703.2" y1="343.7" y2="343.7" gradientTransform="matrix(1 0 0 -1 0 1076)" gradientUnits="userSpaceOnUse">
		<stop stop-color="#E32D2B" offset="0"/>
		<stop stop-color="#E32D2B" offset=".0092129"/>
		<stop stop-color="#E12E2C" offset=".092526"/>
		<stop stop-color="#DD302E" offset=".4187"/>
		<stop stop-color="#DE3D3B" offset=".8091"/>
		<stop stop-color="#E3322F" offset="1"/>
	</linearGradient>
	<path d="m703.2 715.8v19.8c0 1.2-1.1 2.3-3 3.3-11.2 5.9-49.8 8.5-49.8 9.9v-19.8c0-0.6 7.2-1.4 16.3-2.7 1.5-0.2 3-0.4 4.5-0.6 14.8-2.1 32-5.2 32-9.9z" fill="url(#SVGID_00000111895128438083450650000002911157645565634449_)"/>
	
		<linearGradient id="SVGID_00000026156071531025411200000009274233413184413323_" x1="650.4" x2="703.2" y1="370.1" y2="370.1" gradientTransform="matrix(1 0 0 -1 0 1076)" gradientUnits="userSpaceOnUse">
		<stop stop-color="#E32D2B" offset="0"/>
		<stop stop-color="#E32D2B" offset=".0092129"/>
		<stop stop-color="#E12E2C" offset=".092526"/>
		<stop stop-color="#DD302E" offset=".4187"/>
		<stop stop-color="#DE3D3B" offset=".8091"/>
		<stop stop-color="#E3322F" offset="1"/>
	</linearGradient>
	<path d="m703.2 689.4v19.8c0 0.2 0 0.5-0.1 0.7-0.3 0.9-1.4 1.8-2.9 2.6-2.4 1.2-5.9 2.3-10.1 3.3-15.7 3.6-39.7 5.5-39.7 6.6v-19.8c0-1.6 47.2-4.6 52.4-11.9 0.2-0.4 0.4-0.8 0.4-1.3z" fill="url(#SVGID_00000026156071531025411200000009274233413184413323_)"/>
	
		<linearGradient id="SVGID_00000026844569678666266760000015230504757612430213_" x1="650.4" x2="703.2" y1="317.3" y2="317.3" gradientTransform="matrix(1 0 0 -1 0 1076)" gradientUnits="userSpaceOnUse">
		<stop stop-color="#E32D2B" offset="0"/>
		<stop stop-color="#E32D2B" offset=".0092129"/>
		<stop stop-color="#E12E2C" offset=".092526"/>
		<stop stop-color="#DD302E" offset=".4187"/>
		<stop stop-color="#DE3D3B" offset=".8091"/>
		<stop stop-color="#E3322F" offset="1"/>
	</linearGradient>
	<path d="m703.2 742.2v19.8c0 8.3-52.8 11.6-52.8 13.2v-19.8c0-0.7 9.7-1.7 20.9-3.3 1.9-0.3 3.9-0.6 5.8-0.9 13.1-2 26.1-4.9 26.1-9z" fill="url(#SVGID_00000026844569678666266760000015230504757612430213_)"/>
	<path class="st4" d="m527.5 774.8v19.8c0 1.2-1.1 2.3-3 3.3 1.9 1 3 2.1 3 3.3v19.8c0 1.2-1.1 2.3-3 3.3 1.9 1 3 2.1 3 3.3v19.8c0 8.2-52.8 11.5-52.8 13.2v-19.8c0-0.4 2.9-0.9 7.3-1.5 3.7-0.5 8.5-1.1 13.5-1.8-2.5-0.4-5-0.7-7.3-1-7.8-1-13.6-1.8-13.6-2.3v-19.8c0-0.7 9.7-1.7 20.8-3.3-4.7-0.7-9.1-1.2-12.7-1.7-4.9-0.7-8.1-1.2-8.1-1.6v-19.8c0-1.7 52.9-5 52.9-13.2z"/>
	<path class="st4" d="m537.6 844 0.1-0.2-0.1 0.2c0.1 0.1 0 0.1 0 0z"/>
	<path class="st5" d="m527.5 827.6v6.6c0 2.7-5.6 4.8-13.2 6.6-5.7-1.3-12.5-2.4-18.8-3.3-2.5-0.4-5-0.7-7.3-1-7.8-1-13.6-1.8-13.6-2.3v-6.6c0-1.1 24-3 39.7-6.6 1.9 0.4 3.6 0.9 5.2 1.4 1.9 0.6 3.6 1.2 4.9 1.9 1.9 1 3.1 2.1 3.1 3.3z"/>
	<path class="st5" d="m527.5 801.2v6.6c0 2.7-5.6 4.8-13.2 6.6-5.7-1.3-12.5-2.4-18.8-3.3-4.7-0.7-9.1-1.2-12.7-1.7-4.9-0.7-8.1-1.2-8.1-1.6v-6.6c0-1.1 24-3 39.7-6.6 0.3 0.1 0.6 0.1 0.8 0.2 3.8 0.9 7.1 1.9 9.3 3.1 1.8 1 3 2.1 3 3.3z"/>
	
		<linearGradient id="SVGID_00000142173971273782638890000001755042846388255643_" x1="474.64" x2="527.47" y1="258.3" y2="258.3" gradientTransform="matrix(1 0 0 -1 0 1076)" gradientUnits="userSpaceOnUse">
		<stop stop-color="#E32D2B" offset="0"/>
		<stop stop-color="#E32D2B" offset=".0092129"/>
		<stop stop-color="#E12E2C" offset=".092526"/>
		<stop stop-color="#DD302E" offset=".4187"/>
		<stop stop-color="#DE3D3B" offset=".8091"/>
		<stop stop-color="#E3322F" offset="1"/>
	</linearGradient>
	<path d="m527.5 801.2v19.8c0 1.2-1.1 2.3-3 3.3-4.3 2.3-12.6 4-21.1 5.4-13.9 2.3-28.6 3.6-28.6 4.5v-19.8c0-0.7 9.7-1.7 20.8-3.3 14.6-2.1 31.9-5.2 31.9-9.9z" fill="url(#SVGID_00000142173971273782638890000001755042846388255643_)"/>
	
		<linearGradient id="SVGID_00000000182901961962080800000001774221893216225459_" x1="474.64" x2="527.47" y1="284.7" y2="284.7" gradientTransform="matrix(1 0 0 -1 0 1076)" gradientUnits="userSpaceOnUse">
		<stop stop-color="#E32D2B" offset="0"/>
		<stop stop-color="#E32D2B" offset=".0092129"/>
		<stop stop-color="#E12E2C" offset=".092526"/>
		<stop stop-color="#DD302E" offset=".4187"/>
		<stop stop-color="#DE3D3B" offset=".8091"/>
		<stop stop-color="#E3322F" offset="1"/>
	</linearGradient>
	<path d="m527.5 774.8v19.8c0 1.2-1.1 2.3-3 3.3-6.1 3.2-20 5.4-31.6 7-9.9 1.4-18.1 2.3-18.1 2.9v-19.8c-0.2-1.7 52.7-5 52.7-13.2z" fill="url(#SVGID_00000000182901961962080800000001774221893216225459_)"/>
	
		<linearGradient id="SVGID_00000047774603040646469780000014925414537107424426_" x1="474.64" x2="527.44" y1="231.9" y2="231.9" gradientTransform="matrix(1 0 0 -1 0 1076)" gradientUnits="userSpaceOnUse">
		<stop stop-color="#E32D2B" offset="0"/>
		<stop stop-color="#E32D2B" offset=".0092129"/>
		<stop stop-color="#E12E2C" offset=".092526"/>
		<stop stop-color="#DD302E" offset=".4187"/>
		<stop stop-color="#DE3D3B" offset=".8091"/>
		<stop stop-color="#E3322F" offset="1"/>
	</linearGradient>
	<path d="m527.5 827.6v19.8c0 8.2-52.8 11.5-52.8 13.2v-19.8c0-0.4 2.9-0.9 7.3-1.5 3.7-0.5 8.5-1.1 13.5-1.8 14.7-2.1 32-5.2 32-9.9z" fill="url(#SVGID_00000047774603040646469780000014925414537107424426_)"/>
	<path class="st4" d="m377.5 842v19.8c0 1.2-1.1 2.3-3 3.3 1.9 1 3 2.1 3 3.3v19.8c0 1.2-1.1 2.3-3 3.3 1.9 1 3 2.1 3 3.3v19.8c0 8.3-52.8 11.6-52.8 13.2v-19.8c0-0.4 3.5-1 8.7-1.7 3.5-0.5 7.7-1 12.1-1.6-2.2-0.3-4.4-0.6-6.5-0.9-8.1-1.1-14.3-1.8-14.3-2.4v-19.8c0-0.7 9.7-1.7 20.8-3.3-4.4-0.6-8.5-1.2-11.9-1.6-5.3-0.7-8.9-1.3-8.9-1.7v-19.8c-0.1-1.6 52.8-4.9 52.8-13.2z"/>
	<path class="st4" d="m387.5 911.2 0.3-0.5v0.7c-0.2-0.1-0.3-0.1-0.3-0.2z"/>
	<path class="st5" d="m377.5 894.9v6.6c0 2.7-5.6 4.8-13.2 6.6-5.7-1.3-12.5-2.4-18.8-3.3-2.2-0.3-4.4-0.6-6.5-0.9-8.1-1.1-14.3-1.8-14.3-2.4v-6.6c0-1.1 24-3 39.7-6.6 2.1 0.5 4.1 1 5.8 1.6 1.7 0.5 3.2 1.1 4.3 1.7 1.8 1 3 2.1 3 3.3z"/>
	<path class="st5" d="m377.5 868.4v6.6c0 2.7-5.6 4.9-13.2 6.6-5.7-1.3-12.5-2.4-18.8-3.3-4.4-0.6-8.5-1.2-11.9-1.6-5.3-0.7-8.9-1.3-8.9-1.7v-6.6c0-1.1 24-3 39.7-6.6l1.5 0.3c3.5 0.9 6.6 1.9 8.7 3 1.7 1 2.9 2.1 2.9 3.3z"/>
	
		<linearGradient id="SVGID_00000035505346666566485160000008581818290924027317_" x1="324.64" x2="377.44" y1="191.1" y2="191.1" gradientTransform="matrix(1 0 0 -1 0 1076)" gradientUnits="userSpaceOnUse">
		<stop stop-color="#E32D2B" offset="0"/>
		<stop stop-color="#E32D2B" offset=".0092129"/>
		<stop stop-color="#E12E2C" offset=".092526"/>
		<stop stop-color="#DD302E" offset=".4187"/>
		<stop stop-color="#DE3D3B" offset=".8091"/>
		<stop stop-color="#E3322F" offset="1"/>
	</linearGradient>
	<path d="m377.5 868.4v19.8c0 1.2-1.1 2.3-3 3.3-4 2.1-11.6 3.8-19.6 5.2-14.3 2.4-30.2 3.8-30.2 4.7v-19.8c0-0.7 9.7-1.7 20.8-3.3 14.8-2 32-5.1 32-9.9z" fill="url(#SVGID_00000035505346666566485160000008581818290924027317_)"/>
	
		<linearGradient id="SVGID_00000145018278437916773250000004375405455497208193_" x1="324.64" x2="377.44" y1="217.5" y2="217.5" gradientTransform="matrix(1 0 0 -1 0 1076)" gradientUnits="userSpaceOnUse">
		<stop stop-color="#E32D2B" offset="0"/>
		<stop stop-color="#E32D2B" offset=".0092129"/>
		<stop stop-color="#E12E2C" offset=".092526"/>
		<stop stop-color="#DD302E" offset=".4187"/>
		<stop stop-color="#DE3D3B" offset=".8091"/>
		<stop stop-color="#E3322F" offset="1"/>
	</linearGradient>
	<path d="m377.5 842v19.8c0 1.2-1.1 2.3-3 3.3-5.8 3-18.9 5.2-30.2 6.8-10.6 1.5-19.6 2.4-19.6 3.1v-19.8c-0.1-1.6 52.8-4.9 52.8-13.2z" fill="url(#SVGID_00000145018278437916773250000004375405455497208193_)"/>
	
		<linearGradient id="SVGID_00000164498581949655819250000004813726425766403725_" x1="324.64" x2="377.44" y1="164.6" y2="164.6" gradientTransform="matrix(1 0 0 -1 0 1076)" gradientUnits="userSpaceOnUse">
		<stop stop-color="#E32D2B" offset="0"/>
		<stop stop-color="#E32D2B" offset=".0092129"/>
		<stop stop-color="#E12E2C" offset=".092526"/>
		<stop stop-color="#DD302E" offset=".4187"/>
		<stop stop-color="#DE3D3B" offset=".8091"/>
		<stop stop-color="#E3322F" offset="1"/>
	</linearGradient>
	<path d="m377.5 894.9v19.8c0 8.3-52.8 11.6-52.8 13.2v-19.8c0-0.4 3.5-1 8.7-1.7 3.5-0.5 7.7-1 12.1-1.6 14.8-2.1 32-5.2 32-9.9z" fill="url(#SVGID_00000164498581949655819250000004813726425766403725_)"/>
	<path class="st24" d="m1342.3 104.1v291.9l-28.2 4.4v-296.3s1.8 3.2 4.7 3.2c1.4 0 2.6-1.6 3.7-3.2 1.2-1.6 2.3-3.3 3.9-3.4 1.4-0.1 2.7 1.5 4 3.4 1.7 2.4 3.4 5.1 5.3 5.1 3.4 0.1 6.6-5.1 6.6-5.1z"/>
	<path class="st24" d="m1314.1 412.1c8.5-1.1 19.7-2.6 28.2-4.7v43h-28.2v-12c2.6-0.3 5.5-0.7 8.5-1.2-0.3 0-0.6-0.1-0.8-0.1-1.7-0.2-3.4-0.5-5-0.7-0.9-0.1-1.9-0.2-2.8-0.4v-23.9h0.1z"/>
	<polygon class="st24" transform="matrix(1 0 0 .89282 0 66.515)" points="806.6 221 806.6 240.7 825.5 240.7 825.5 620.6 853.7 616.2 853.7 240.7 872.6 240.7 872.6 221"/>
	<path d="m94 659.5h6c0.6 0 1-0.4 1-1s-0.4-1-1-1h-6c-0.6 0-1 0.4-1 1 0 0.5 0.5 1 1 1z"/>
	<path d="m123.7 657.5h-11.8c-0.6 0-1 0.5-1 1s0.4 1 1 1h11.8c0.5 0 1-0.5 1-1s-0.5-1-1-1zm23.7 0h-11.8c-0.6 0-1 0.5-1 1v0.1c0 0.5 0.5 0.9 1 0.9h11.8c0.5 0 0.9-0.4 1-0.9v-0.1c0-0.6-0.5-1-1-1zm23.6 0h-11.8c-0.5 0-1 0.5-1 1v0.1c0 0.5 0.5 0.9 1 0.9h11.8c0.5 0 0.9-0.4 1-0.9v-0.1c0-0.6-0.4-1-1-1zm23.7 0h-11.8c-0.6 0-1 0.5-1 1v0.1c0 0.5 0.5 0.9 1 0.9h11.8c0.5 0 0.9-0.4 1-0.9v-0.1c0-0.6-0.4-1-1-1zm23.7 0h-11.8c-0.5 0-1 0.5-1 1v0.1c0 0.5 0.5 0.9 1 0.9h11.8c0.5 0 0.9-0.4 1-0.9v-0.1c0-0.6-0.5-1-1-1zm23.7 0h-11.8c-0.5 0-1 0.5-1 1v0.1c0 0.5 0.5 0.9 1 0.9h11.8c0.5 0 0.9-0.4 1-0.9v-0.1c0-0.6-0.5-1-1-1zm23.7 0h-11.8c-0.5 0-1 0.5-1 1v0.1c0 0.5 0.5 0.9 1 0.9h11.8c0.5 0 0.9-0.4 1-0.9v-0.1c0-0.6-0.5-1-1-1zm23.6 0h-11.8c-0.6 0-1 0.5-1 1v0.1c0.1 0.5 0.5 0.9 1 0.9h11.8c0.5 0 0.9-0.4 1-0.9v-0.1c0-0.6-0.4-1-1-1zm23.7 0h-11.8c-0.5 0-1 0.5-1 1v0.1c0 0.5 0.5 0.9 1 0.9h11.8c0.5 0 0.9-0.4 1-0.9v-0.1c0-0.6-0.4-1-1-1zm23.7 0h-11.8c-0.5 0-1 0.5-1 1v0.1c0 0.5 0.5 0.9 1 0.9h11.8c0.5 0 0.9-0.4 1-0.9v-0.1c0-0.6-0.5-1-1-1zm23.7 0h-11.8c-0.5 0-1 0.5-1 1v0.1c0 0.5 0.5 0.9 1 0.9h11.8c0.5 0 0.9-0.4 1-0.9v-0.1c0-0.6-0.5-1-1-1zm23.6 0h-11.8c-0.5 0-1 0.5-1 1v0.1c0 0.5 0.5 0.9 1 0.9h11.8c0.5 0 0.9-0.4 1-0.9v-0.1c0-0.6-0.4-1-1-1zm23.7 0h-11.8c-0.6 0-1 0.5-1 1v0.1c0 0.5 0.5 0.9 1 0.9h11.8c0.5 0 0.9-0.4 1-0.9v-0.1c0-0.6-0.4-1-1-1zm23.7 0h-11.8c-0.6 0-1 0.5-1 1v0.1c0.1 0.5 0.5 0.9 1 0.9h11.8c0.5 0 0.9-0.4 1-0.9v-0.1c0-0.6-0.5-1-1-1zm23.7 0h-11.8c-0.5 0-1 0.5-1 1v0.1c0 0.5 0.5 0.9 1 0.9h11.8c0.5 0 0.9-0.4 1-0.9v-0.1c0-0.6-0.5-1-1-1zm23.6 0h-11.8c-0.5 0-1 0.5-1 1v0.1c0 0.5 0.5 0.9 1 0.9h11.8c0.5 0 0.9-0.4 1-0.9v-0.1c0-0.6-0.4-1-1-1zm23.7 0h-11.8c-0.6 0-1 0.5-1 1v0.1c0 0.5 0.5 0.9 1 0.9h11.8c0.5 0 0.9-0.4 1-0.9v-0.1c0-0.6-0.4-1-1-1zm23.7 0h-11.8c-0.5 0-1 0.5-1 1v0.1c0 0.5 0.5 0.9 1 0.9h11.8c0.5 0 0.9-0.4 1-0.9v-0.1c0-0.6-0.4-1-1-1zm23.7 0h-11.9c-0.5 0-1 0.5-1 1v0.1c0 0.5 0.5 0.9 1 0.9h11.8c0.5 0 0.9-0.4 1-0.9v-0.1c0.1-0.6-0.4-1-0.9-1zm23.7 0h-11.8c-0.5 0-1 0.5-1 1v0.1c0.1 0.5 0.5 0.9 1 0.9h11.8c0.5 0 0.9-0.4 1-0.9v-0.1c0-0.6-0.5-1-1-1zm23.6 0h-11.8c-0.6 0-1 0.5-1 1v0.1c0.1 0.5 0.5 0.9 1 0.9h11.8c0.5 0 0.9-0.4 1-0.9v-0.1c0-0.6-0.4-1-1-1zm23.7 0h-11.8c-0.6 0-1 0.5-1 1v0.1c0 0.5 0.5 0.9 1 0.9h11.8c0.5 0 0.9-0.4 1-0.9v-0.1c0-0.6-0.4-1-1-1zm23.7 0h-11.8c-0.5 0-1 0.5-1 1v0.1c0 0.5 0.5 0.9 1 0.9h11.8c0.5 0 0.9-0.4 1-0.9v-0.1c0-0.6-0.5-1-1-1zm23.7 0h-11.8c-0.5 0-1 0.5-1 1v0.1c0 0.5 0.5 0.9 1 0.9h11.8c0.5 0 0.9-0.4 1-0.9v-0.1c0-0.6-0.5-1-1-1zm23.7 0h-11.8c-0.5 0-1 0.5-1 1v0.1c0 0.5 0.5 0.9 1 0.9h11.8c0.5 0 0.9-0.4 1-0.9v-0.1c0-0.6-0.5-1-1-1zm23.6 0h-11.8c-0.6 0-1 0.5-1 1v0.1c0 0.5 0.5 0.9 1 0.9h11.8c0.5 0 0.9-0.4 1-0.9v-0.1c0-0.6-0.4-1-1-1zm23.7 0h-11.8c-0.6 0-1 0.5-1 1v0.1c0.1 0.5 0.5 0.9 1 0.9h11.8c0.5 0 0.9-0.4 1-0.9v-0.1c0-0.6-0.4-1-1-1zm23.7 0h-11.8c-0.5 0-1 0.5-1 1v0.1c0 0.5 0.5 0.9 1 0.9h11.8c0.5 0 0.9-0.4 1-0.9v-0.1c0-0.6-0.5-1-1-1zm23.7 0h-11.8c-0.5 0-1 0.5-1 1v0.1c0 0.5 0.5 0.9 1 0.9h11.8c0.5 0 0.9-0.4 1-0.9v-0.1c0-0.6-0.5-1-1-1z"/>
	<path d="m803 657.5v2h-4.5c-0.5 0-0.9-0.4-1-0.9v-0.1c0-0.5 0.5-1 1-1h4.5z"/>
	<path d="m387.7 273.12h6c0.6 0 1-0.4 1-1s-0.4-1-1-1h-6c-0.6 0-1 0.4-1 1 0 0.5 0.5 1 1 1z"/>
	<path d="m418.4 271.12h-12.4c-0.5 0-1 0.4-1 1 0 0.5 0.5 1 1 1h12.3c0.5 0 1-0.5 1-1 0.1-0.6-0.4-1-0.9-1zm24.6 0h-12.3c-0.5 0-1 0.4-1 1v0.1c0 0.5 0.5 0.9 1 0.9h12.3c0.5 0 0.9-0.4 1-0.9v-0.1c0-0.6-0.4-1-1-1zm24.7 0h-12.3c-0.5 0-1 0.4-1 1v0.1c0 0.5 0.5 0.9 1 0.9h12.3c0.5 0 0.9-0.4 1-0.9v-0.1c0-0.6-0.5-1-1-1zm24.7 0h-12.4c-0.6 0-1 0.4-1 1v0.1c0.1 0.5 0.5 0.9 1 0.9h12.3c0.5 0 0.9-0.4 1-0.9v-0.1c0.1-0.6-0.4-1-0.9-1zm24.6 0h-12.3c-0.6 0-1 0.4-1 1v0.1c0 0.5 0.5 0.9 1 0.9h12.3c0.5 0 0.9-0.4 1-0.9v-0.1c0-0.6-0.4-1-1-1zm24.7 0h-12.3c-0.5 0-1 0.4-1 1v0.1c0 0.5 0.5 0.9 1 0.9h12.3c0.5 0 0.9-0.4 1-0.9v-0.1c0-0.6-0.5-1-1-1zm24.6 0h-12.3c-0.5 0-1 0.4-1 1v0.1c0 0.5 0.5 0.9 1 0.9h12.3c0.5 0 0.9-0.4 1-0.9v-0.1c0-0.6-0.4-1-1-1zm24.7 0h-12.3c-0.5 0-1 0.4-1 1v0.1c0 0.5 0.5 0.9 1 0.9h12.3c0.5 0 0.9-0.4 1-0.9v-0.1c0-0.6-0.4-1-1-1zm24.7 0h-12.3c-0.5 0-1 0.4-1 1v0.1c0 0.5 0.5 0.9 1 0.9h12.3c0.5 0 0.9-0.4 1-0.9v-0.1c0-0.6-0.5-1-1-1zm24.6 0h-12.3c-0.6 0-1 0.4-1 1v0.1c0 0.5 0.5 0.9 1 0.9h12.3c0.5 0 0.9-0.4 1-0.9v-0.1c0-0.6-0.4-1-1-1zm24.7 0h-12.3c-0.5 0-1 0.4-1 1v0.1c0 0.5 0.5 0.9 1 0.9h12.3c0.5 0 0.9-0.4 1-0.9v-0.1c0-0.6-0.5-1-1-1zm24.7 0h-12.3c-0.5 0-1 0.4-1 1v0.1c0 0.5 0.5 0.9 1 0.9h12.3c0.5 0 0.9-0.4 1-0.9v-0.1c0-0.6-0.5-1-1-1zm24.6 0h-12.3c-0.5 0-1 0.4-1 1v0.1c0 0.5 0.5 0.9 1 0.9h12.3c0.5 0 0.9-0.4 1-0.9v-0.1c0-0.6-0.4-1-1-1zm24.7 0h-12.3c-0.5 0-1 0.4-1 1v0.1c0 0.5 0.5 0.9 1 0.9h12.3c0.5 0 0.9-0.4 1-0.9v-0.1c0-0.6-0.5-1-1-1zm24.6 0h-12.3c-0.6 0-1 0.4-1 1v0.1c0 0.5 0.5 0.9 1 0.9h12.3c0.5 0 0.9-0.4 1-0.9v-0.1c0-0.6-0.4-1-1-1zm24.7 0h-12.3c-0.6 0-1 0.4-1 1v0.1c0.1 0.5 0.5 0.9 1 0.9h12.3c0.5 0 0.9-0.4 1-0.9v-0.1c0-0.6-0.5-1-1-1z"/>
	<path d="m800.6 273.12h6c0.6 0 1-0.4 1-1s-0.4-1-1-1h-6c-0.6 0-1 0.4-1 1 0 0.5 0.5 1 1 1z"/>
	<path d="m380.9 536.6h-3.4l-8.4 18.6h3.6l1.8-4.3h9.3l1.9 4.3h3.6l-8.4-18.6zm-5.2 11.6 3.5-8.1 3.5 8.1h-7zm23.8 3.9c-0.5 0.4-1.2 0.6-1.9 0.6-1.3 0-2-0.7-2-2.1v-6.8h3.8v-2.7h-3.8v-3.2h-3.3v3.2h-2.3v2.7h2.3v6.8c0 3.1 1.8 4.8 4.9 4.8 1.2 0 2.4-0.3 3.2-1l-0.9-2.3zm12.4-16.6v19.8h3.3v-19.8h-3.3zm21.7 12.7c0-4.4-3-7.3-7.2-7.3s-7.3 3-7.3 7.3c0 4.2 3.1 7.3 7.8 7.3 2.5 0 4.4-0.8 5.7-2.3l-1.8-2.1c-1 1-2.3 1.5-3.9 1.5-2.5 0-4.2-1.3-4.6-3.4h11.2c0.1-0.3 0.1-0.7 0.1-1zm-11.2-1.2c0.3-2.1 1.9-3.5 4-3.5 2.2 0 3.8 1.4 4 3.5h-8zm20.1-6.1c-2.3 0-4.5 0.6-6 1.8l1.3 2.4c1.1-0.9 2.7-1.4 4.3-1.4 2.4 0 3.5 1.2 3.5 3.1v0.2h-3.7c-4.3 0-5.9 1.9-5.9 4.2 0 2.5 2.1 4.2 5.3 4.2 2.1 0 3.7-0.7 4.5-1.9v1.7h3.1v-8.3c0-4.1-2.3-6-6.4-6zm3.1 9.9c-0.6 1.5-2 2.2-3.6 2.2-1.7 0-2.7-0.8-2.7-2 0-1 0.6-1.9 2.9-1.9h3.4v1.7zm10.3-5.7c0-0.9 1-1.6 3-1.6 1.3 0 2.7 0.3 4.1 1.1l1.3-2.5c-1.3-0.8-3.4-1.2-5.3-1.2-3.8 0-6.2 1.8-6.2 4.4 0 5.7 8.8 3.1 8.8 5.8 0 1-0.9 1.6-3 1.6-1.8 0-3.7-0.6-4.9-1.4l-1.3 2.5c1.3 0.9 3.7 1.6 6 1.6 4 0 6.4-1.7 6.4-4.4-0.1-5.5-8.9-3-8.9-5.9zm19.9 7c-0.5 0.4-1.2 0.6-1.9 0.6-1.3 0-2-0.7-2-2.1v-6.8h3.8v-2.7h-3.7v-3.2h-3.3v3.2h-2.3v2.7h2.3v6.8c0 3.1 1.8 4.8 4.9 4.8 1.2 0 2.4-0.3 3.2-1l-1-2.3zm16.1 0.2 5-4.7c2.6-2.4 3.1-4.1 3.1-5.9 0-3.3-2.6-5.3-6.7-5.3-3.1 0-5.6 1.1-7.1 3.1l2.4 1.9c1-1.3 2.6-1.9 4.4-1.9 2.3 0 3.5 1 3.5 2.7 0 1-0.3 2.1-2.1 3.9l-7.4 7v2.3h13.7v-2.9h-8.8v-0.2zm30.6-11.3-4.5 10.5-4.5-10.5h-3.5l6.2 14.3-0.2 0.6c-0.6 1.4-1.3 2-2.5 2-0.9 0-1.8-0.4-2.5-1l-1.3 2.5c0.9 0.8 2.4 1.3 3.8 1.3 2.4 0 4.2-1 5.5-4.2l6.6-15.3h-3.1v-0.2zm18.9 7.2c0-4.4-3-7.3-7.2-7.3s-7.3 3-7.3 7.3c0 4.2 3.1 7.3 7.8 7.3 2.5 0 4.4-0.8 5.7-2.3l-1.8-2.1c-1 1-2.3 1.5-3.9 1.5-2.5 0-4.2-1.3-4.6-3.4h11.2c0-0.3 0.1-0.7 0.1-1zm-11.3-1.2c0.3-2.1 1.9-3.5 4-3.5 2.2 0 3.8 1.4 4 3.5h-8zm20.2-6.1c-2.3 0-4.5 0.6-6 1.8l1.3 2.4c1.1-0.9 2.7-1.4 4.3-1.4 2.4 0 3.5 1.2 3.5 3.1v0.2h-3.7c-4.3 0-5.9 1.9-5.9 4.2 0 2.5 2 4.2 5.3 4.2 2.1 0 3.7-0.7 4.5-1.9v1.7h3.1v-8.3c0-4.1-2.3-6-6.4-6zm3.1 9.9c-0.6 1.5-2 2.2-3.6 2.2-1.7 0-2.7-0.8-2.7-2 0-1 0.6-1.9 2.9-1.9h3.4v1.7zm11.4-7.7v-2.1h-3.2v14.2h3.3v-6.9c0-2.9 1.6-4.4 4.1-4.4 0.2 0 0.5 0 0.8 0.1v-3.2c-2.3 0.1-4 0.8-5 2.3zm10.7 2c0-0.9 1-1.6 3-1.6 1.4 0 2.7 0.3 4.1 1.1l1.3-2.5c-1.3-0.8-3.4-1.2-5.3-1.2-3.8 0-6.2 1.8-6.2 4.4 0 5.7 8.8 3.1 8.8 5.8 0 1-0.9 1.6-3 1.6-1.8 0-3.7-0.6-5-1.4l-1.3 2.5c1.3 0.9 3.7 1.6 6 1.6 4 0 6.4-1.7 6.4-4.4-0.1-5.5-8.8-3-8.8-5.9z"/>
	<path d="m95.7 684.4v-12.8h-2.8v15.2h10.8v-2.4h-8zm15.1-9.4c-1.9 0-3.7 0.5-4.9 1.4l1.1 2c0.9-0.7 2.2-1.1 3.5-1.1 1.9 0 2.9 0.9 2.9 2.5v0.2h-3c-3.5 0-4.8 1.5-4.8 3.5s1.7 3.5 4.3 3.5c1.8 0 3-0.6 3.7-1.6v1.4h2.6v-6.8c-0.1-3.4-2.1-5-5.4-5zm2.5 8.1c-0.5 1.2-1.6 1.8-2.9 1.8-1.4 0-2.2-0.6-2.2-1.6 0-0.8 0.5-1.5 2.4-1.5h2.8v1.3h-0.1zm13 1.1c-0.4 0.3-1 0.5-1.5 0.5-1 0-1.6-0.6-1.6-1.7v-5.5h3.1v-2.2h-3.1v-2.7h-2.7v2.7h-1.9v2.2h1.9v5.6c0 2.6 1.5 3.9 4 3.9 1 0 2-0.3 2.6-0.8l-0.8-2zm14.1-3.2c0-3.6-2.5-6-5.9-6-3.5 0-6 2.5-6 5.9s2.5 6 6.4 6c2 0 3.6-0.7 4.7-1.9l-1.5-1.7c-0.8 0.8-1.8 1.3-3.2 1.3-2 0-3.4-1.1-3.8-2.8h9.1c0.2-0.2 0.2-0.6 0.2-0.8zm-9.2-1c0.3-1.7 1.5-2.8 3.3-2.8s3.1 1.2 3.3 2.8h-6.6zm21.9 4.4 4.1-3.9c2.1-2 2.5-3.3 2.5-4.8 0-2.7-2.1-4.4-5.4-4.4-2.5 0-4.6 0.9-5.8 2.5l2 1.5c0.9-1.1 2.1-1.6 3.6-1.6 1.9 0 2.8 0.8 2.8 2.2 0 0.8-0.3 1.8-1.7 3.2l-6.1 5.8v1.9h11.2v-2.4h-7.2zm15.7-13.1c-3.6 0-6.4 2.8-6.4 7.8s2.7 7.8 6.4 7.8c3.6 0 6.4-2.8 6.4-7.8s-2.8-7.8-6.4-7.8zm0 13.2c-2.1 0-3.5-1.7-3.5-5.4s1.4-5.4 3.5-5.4 3.5 1.7 3.5 5.4-1.4 5.4-3.5 5.4zm12.6-0.1 4.1-3.9c2.1-2 2.5-3.3 2.5-4.8 0-2.7-2.1-4.4-5.4-4.4-2.5 0-4.6 0.9-5.8 2.5l2 1.5c0.8-1.1 2.1-1.6 3.6-1.6 1.9 0 2.8 0.8 2.8 2.2 0 0.8-0.3 1.8-1.8 3.2l-6 5.8v1.9h11.2v-2.4h-7.2zm13.2 0 4.1-3.9c2.1-2 2.5-3.3 2.5-4.8 0-2.7-2.1-4.4-5.4-4.4-2.5 0-4.6 0.9-5.8 2.5l2 1.5c0.9-1.1 2.1-1.6 3.6-1.6 1.9 0 2.8 0.8 2.8 2.2 0 0.8-0.3 1.8-1.7 3.2l-6.1 5.8v1.9h11.2v-2.4h-7.2z"/>
	<path class="st4" d="m742.4 815.5-7.2 12.8-2.5-12.8h-2.5l-7.3 12.8-2.4-12.8h-2.7l3.1 16.2h2.8l7-12.3 2.5 12.3h2.9l9.1-16.2h-2.8zm18.1 9c0.1-0.7 0.2-1.4 0.2-2.2 0-4.4-2.9-7-7.2-7-5.3 0-9.1 4-9.1 9.5 0 4.3 3 7 7.8 7 2.5 0 4.9-0.8 6.5-2.3l-1.2-2.1c-1.2 1.1-3 1.9-5 1.9-3.5 0-5.1-1.6-5.1-4.6v-0.2h13.1zm-7.1-6.7c2.9 0 4.8 1.6 4.6 4.6h-10.5c0.8-2.9 2.9-4.6 5.9-4.6zm33.4-2.3-0.5 2.8c-1-1.9-3.1-2.9-5.8-2.9-5.3 0-9.2 4-9.2 9.5 0 4.4 3 7 7.2 7 2.3 0 4.3-0.8 5.7-2.2l-0.4 2h2.8l3.2-16.2h-3zm-7.8 13.8c-3.1 0-4.8-1.7-4.8-4.5 0-4 2.7-6.8 6.3-6.8 3.1 0 4.8 1.7 4.8 4.6 0.1 3.9-2.6 6.7-6.3 6.7zm18.7-11.4 0.5-2.4h-2.8l-3.2 16.2h2.9l1.6-8.1c0.7-3.7 2.9-5.4 6.1-5.4h0.8l0.5-2.8c-2.9-0.1-4.9 0.7-6.4 2.5zm22.7 6.6c0.1-0.7 0.2-1.4 0.2-2.2 0-4.4-2.9-7-7.2-7-5.3 0-9.1 4-9.1 9.5 0 4.3 3 7 7.8 7 2.5 0 4.9-0.8 6.5-2.3l-1.2-2.1c-1.2 1.1-3 1.9-5 1.9-3.5 0-5.1-1.6-5.1-4.6v-0.2h13.1zm-7.1-6.7c2.9 0 4.8 1.6 4.6 4.6h-10.5c0.8-2.9 2.9-4.6 5.9-4.6zm29.4-2.5c-2.3 0-4.2 0.6-5.7 2l1.7-8.4h-2.9l-4.5 22.7h2.9l1.7-8.6c0.7-3.5 2.8-5.2 6-5.2 2.5 0 3.8 1.2 3.8 3.3 0 0.4-0.1 0.8-0.2 1.3l-1.8 9.1h2.9l1.8-9.1c0.1-0.7 0.2-1.3 0.2-1.9-0.1-3.2-2.3-5.2-5.9-5.2zm25.5 9.2c0.1-0.7 0.2-1.4 0.2-2.2 0-4.4-2.9-7-7.2-7-5.3 0-9.1 4-9.1 9.5 0 4.3 3 7 7.8 7 2.5 0 4.9-0.8 6.5-2.3l-1.2-2.1c-1.2 1.1-3 1.9-5 1.9-3.5 0-5.1-1.6-5.1-4.6v-0.2h13.1zm-7.1-6.7c2.9 0 4.8 1.6 4.6 4.6h-10.5c0.8-2.9 2.9-4.6 5.9-4.6zm15.2 0.1 0.5-2.4h-2.8l-3.2 16.2h2.9l1.6-8.1c0.7-3.7 2.9-5.4 6.1-5.4h0.8l0.5-2.8c-2.9-0.1-4.9 0.7-6.4 2.5zm22.8 6.6c0.1-0.7 0.2-1.4 0.2-2.2 0-4.4-2.9-7-7.2-7-5.3 0-9.1 4-9.1 9.5 0 4.3 3 7 7.8 7 2.5 0 4.9-0.8 6.5-2.3l-1.2-2.1c-1.2 1.1-3 1.9-5 1.9-3.5 0-5.1-1.6-5.1-4.6v-0.2h13.1zm-7.2-6.7c2.9 0 4.8 1.6 4.6 4.6h-10.5c0.8-2.9 3-4.6 5.9-4.6z"/>
	<path class="st25" d="m883.1 685.8 3.4-3.9v-2.3h-10.7v2.8h6.5l-3.1 3.5v2.3h1.6c2 0 2.9 0.7 2.9 1.9s-1.1 2-2.9 2c-1.6 0-3.2-0.5-4.3-1.4l-0.2 0.3-1.2 2.4c0.4 0.3 0.8 0.5 1.2 0.7 1.3 0.6 3 1 4.6 1 4.3 0 6.3-2.3 6.3-4.9 0-2.3-1.4-3.9-4.1-4.4zm7.7 5c-1.2 0-2.1 0.8-2.1 2.1 0 1.2 0.9 2.1 2.1 2.1s2.1-0.9 2.1-2.1c0-1.3-0.9-2.1-2.1-2.1zm11.1-5 3.4-3.9v-2.3h-10.7v2.8h6.5l-3.1 3.6v2.3h1.6c2 0 2.9 0.7 2.9 1.9s-1.1 2-2.9 2c-1.6 0-3.2-0.5-4.3-1.4l-1.4 2.7c1.5 1.1 3.7 1.6 5.8 1.6 4.3 0 6.3-2.3 6.3-4.9 0-2.3-1.4-3.9-4.1-4.4z"/>
	<path class="st25" d="m1046.2 606.8 3.4-3.9v-2.3h-10.6v2.8h6.5l-3.1 3.6v2.3h1.6c2 0 2.9 0.7 2.9 1.9s-1.1 2-2.9 2c-1.6 0-3.2-0.5-4.4-1.4l-0.4 0.8-0.9 1.9c0.3 0.2 0.6 0.4 0.9 0.5 1.4 0.7 3.2 1.1 4.9 1.1 4.3 0 6.3-2.4 6.3-4.9-0.1-2.3-1.5-4-4.2-4.4zm7.8 5c-1.2 0-2.1 0.8-2.1 2.1 0 1.2 0.9 2.1 2.1 2.1s2.1-0.9 2.1-2.1c0-1.3-1-2.1-2.1-2.1zm15.1-2.1v-2.8h-3.3v2.8h-4.1l6.7-9.2h-3.7l-7.2 9.7v2.4h8.2v3.2h3.4v-3.2h2.5v-2.9h-2.5z"/>
	<path class="st25" d="m1373.1 464.1 3.4-3.9v-2.3h-10.7v2.8h6.5l-3.1 3.5v2.3h1.6c2 0 2.8 0.7 2.8 1.9s-1.1 2-2.8 2c-1.6 0-3.2-0.5-4.4-1.4l-1.4 2.7c1.5 1.1 3.7 1.6 5.8 1.6 4.3 0 6.3-2.3 6.3-4.9 0.1-2.2-1.3-3.9-4-4.3zm7.7 5c-1.2 0-2.1 0.8-2.1 2.1 0 1.2 0.9 2.1 2.1 2.1s2.1-0.9 2.1-2.1c0-1.3-0.9-2.1-2.1-2.1zm12.7-3.9 5.3-7.4h-3.8l-3.4 4.9-3.5-4.9h-4l5.3 7.5-5.6 7.8h4.1l3.6-5.3 3.7 5.3h4.1l-5.8-7.9z"/>
	<path class="st3" d="m1256.1 613.4c-3.6-8.7-16.4 1-18.6-4.4-0.8-1.9 0.2-4 3.9-5.6 2.2-0.9 4.8-1.5 7.4-0.9l0.1-3.8c-2.7-0.5-6 0.1-8.8 1.3-5.9 2.5-8.3 6.8-6.6 11 3.7 8.9 16.4-0.9 18.7 4.5 0.8 1.8-0.1 3.9-4 5.5-3.1 1.3-6.6 1.5-9 0.8l-0.2 3.8c2.7 0.9 6.9 0.4 10.5-1.1 5.9-2.6 8.3-6.8 6.6-11.1zm27.2-10.6c-1 2.7-2.8 4.5-5.4 5.6-5.1 2.1-10.4 0-12.4-4.9-2.1-5 0.1-10.2 5.2-12.3 2.6-1.1 5.1-1.1 7.8 0.1l1.5-3.7c-3.2-1.6-6.8-1.5-10.8 0.2-7.3 3.1-10.6 10.5-7.7 17.5s10.6 9.8 17.9 6.8c4-1.7 6.6-4.2 7.7-7.6l-3.8-1.7zm14.8-26.8-4 1.7-0.9 28.1 3.9-1.7 0.2-6.6 12.6-5.3 4.8 4.6 4.1-1.7-20.7-19.1zm-0.7 17.6 0.3-13.2 9.5 9.1-9.8 4.1zm44.8-12.4-12.6 5.3-8.5-20.2-4 1.7 9.9 23.6 16.7-7-1.5-3.4zm10.9-28.3-4 1.7-0.9 28.1 3.9-1.7 0.2-6.6 12.6-5.3 4.8 4.6 4.1-1.7-20.7-19.1zm-0.8 17.7 0.3-13.2 9.5 9.1-9.8 4.1zm65.9-17.2-9.9-23.6-4 1.7 7 16.7-20.6-11-3.3 1.4 9.9 23.6 4-1.7-7-16.6 20.6 10.9 3.3-1.4zm28.4-15.9-13.7 5.7-2.9-7 11.7-4.9-1.4-3.3-11.7 4.9-2.8-6.6 13.2-5.5-1.4-3.3-17.2 7.2 9.9 23.6 17.7-7.4-1.4-3.4zm16.2-17.1 3.8-15-4.5 1.9-2.7 11.2-9.9-5.9-4.5 1.9 13.4 7.9-4.1 15.9 4.6-1.9 3-11.9 10.5 6.3 4.7-2-14.3-8.4zm21.4-18.5 8.1-3.4-1.4-3.3-20.1 8.4 1.4 3.3 8-3.4 8.5 20.2 4-1.7-8.5-20.1z"/>
	<path class="st4" d="m1075.4 557.4c-0.6-1.3-2-1.7-3.2-1.2s-1.7 1.9-1.2 3.2c0.6 1.3 2 1.8 3.2 1.3 1.2-0.6 1.7-2 1.2-3.3zm8.6-3.9c-0.6-1.3-2-1.7-3.2-1.2s-1.7 1.9-1.2 3.2c0.6 1.3 2 1.8 3.2 1.3 1.2-0.6 1.8-2.1 1.2-3.3zm8.7-4c-0.6-1.3-2-1.7-3.2-1.2s-1.7 1.9-1.2 3.2c0.6 1.3 2 1.8 3.2 1.3 1.2-0.6 1.8-2 1.2-3.3z"/>
	<path class="st4" d="m1242.2 481c-0.6-1.3-2-1.8-3.2-1.2-1.2 0.5-1.8 1.9-1.2 3.2s2 1.8 3.2 1.3c1.2-0.6 1.8-2.1 1.2-3.3zm8.7-3.9c-0.6-1.3-2-1.8-3.2-1.2-1.2 0.5-1.8 1.9-1.2 3.2s2 1.8 3.2 1.3c1.2-0.6 1.7-2.1 1.2-3.3zm8.7-4c-0.6-1.3-2-1.8-3.2-1.2-1.2 0.5-1.8 1.9-1.2 3.2s2 1.8 3.2 1.3c1.2-0.6 1.7-2 1.2-3.3z"/>
	<path class="st4" d="m1580.3 328.5c-0.6-1.3-2-1.8-3.2-1.2-1.2 0.5-1.8 1.9-1.2 3.2s2 1.8 3.2 1.3c1.1-0.6 1.7-2 1.2-3.3zm8.7-3.8c-0.6-1.3-2-1.8-3.2-1.2-1.2 0.5-1.8 1.9-1.2 3.2s2 1.8 3.2 1.3c1.1-0.6 1.7-2.1 1.2-3.3zm8.7-3.9c-0.6-1.3-2-1.8-3.2-1.2-1.2 0.5-1.8 1.9-1.2 3.2s2 1.8 3.2 1.3c1.2-0.6 1.8-2 1.2-3.3z"/>
	<path class="st3" d="m1292 293.8c-2.3 0-4 1.5-4.4 4.3l-4.4-3.7h-1.9v10.4h2.4v-6.9l4.1 3.5h1.9v-1.4c0-2.3 0.9-3.3 2.3-3.3s2.3 1.2 2.3 3.2c0 1.7-0.6 3.4-1.5 4.5l2.2 1.2c1.1-1.4 1.8-3.6 1.8-5.7 0-4.1-2.3-6.1-4.8-6.1zm2.9-5.3c-1.1 0-1.8 0.8-1.8 1.8s0.7 1.8 1.8 1.8c1 0 1.8-0.8 1.8-1.8s-0.8-1.8-1.8-1.8zm1.7-15.8-7.9 5.7-7.4-5.3v3.1l5.4 3.9-5.4 3.9v3.2l7.5-5.4 7.8 5.7v-3.2l-5.8-4.1 5.8-4.1v-3.4zm-2.4-19v8h-12.8v2.8h15.2v-10.8h-2.4zm-10.5-6.8v-5h-2.4v12.9h2.4v-5h12.9v-2.8l-12.9-0.1zm8.5-17.9c-5.6 0-3.5 9-6.7 9-1.2 0-2.1-1-2.1-3.3 0-1.3 0.4-2.8 1.2-4.2l-2.2-0.9c-0.9 1.3-1.3 3.2-1.3 5.1 0 4.2 2.1 6.1 4.5 6.1 5.7 0 3.5-9.1 6.8-9.1 1.1 0 2 1 2 3.4 0 1.9-0.7 3.8-1.7 5l2.2 1c1.1-1.3 1.8-3.6 1.8-6 0.1-4.1-2-6.1-4.5-6.1z"/><path class="st3" d="m878.4 530.52c-2.3 0-4 1.5-4.4 4.3l-4.4-3.7h-1.9v10.4h2.4v-6.9l4.1 3.5h1.9v-1.4c0-2.3 0.9-3.3 2.3-3.3s2.3 1.2 2.3 3.2c0 1.7-0.6 3.4-1.5 4.5l2.2 1.2c1.1-1.4 1.8-3.6 1.8-5.7 0-4.1-2.3-6.1-4.8-6.1zm2.9-5.3c-1.1 0-1.8 0.8-1.8 1.8s0.7 1.8 1.8 1.8c1 0 1.8-0.8 1.8-1.8s-0.8-1.8-1.8-1.8zm-0.7-34.8v8h-12.8v2.8h15.2v-10.8zm-10.5-6.8v-5h-2.4v12.9h2.4v-5h12.9v-2.8zm8.5-17.9c-5.6 0-3.5 9-6.7 9-1.2 0-2.1-1-2.1-3.3 0-1.3 0.4-2.8 1.2-4.2l-2.2-0.9c-0.9 1.3-1.3 3.2-1.3 5.1 0 4.2 2.1 6.1 4.5 6.1 5.7 0 3.5-9.1 6.8-9.1 1.1 0 2 1 2 3.4 0 1.9-0.7 3.8-1.7 5l2.2 1c1.1-1.3 1.8-3.6 1.8-6 0.1-4.1-2-6.1-4.5-6.1zm-0.25859 44.559c-2.3 0-4 1.5-4.4 4.3l-4.4-3.7h-1.9v10.4h2.4v-6.9l4.1 3.5h1.9v-1.4c0-2.3 0.9-3.3 2.3-3.3s2.3 1.2 2.3 3.2c0 1.7-0.6 3.4-1.5 4.5l2.2 1.2c1.1-1.4 1.8-3.6 1.8-5.7 0-4.1-2.3-6.1-4.8-6.1z" fill="#15414c"/>
	<path class="st25" d="m721.5 752.9 3.4-3.9v-2.3h-10.7v2.8h6.5l-3.1 3.5v2.3h1.6c2 0 2.9 0.7 2.9 1.9s-1.1 2-2.9 2c-1.6 0-3.2-0.5-4.3-1.4l-1.4 2.7c1.5 1 3.7 1.6 5.8 1.6 4.3 0 6.3-2.3 6.3-4.9 0-2.1-1.4-3.8-4.1-4.3zm7.7 5c-1.2 0-2.1 0.8-2.1 2.1 0 1.2 0.9 2.1 2.1 2.1s2.1-0.9 2.1-2.1-0.9-2.1-2.1-2.1zm8.8 1.2 3.5-3.3c2.1-2 2.5-3.3 2.5-4.8 0-2.8-2.3-4.5-5.7-4.5-2.7 0-4.9 1.1-6 2.8l2.6 1.7c0.7-1 1.8-1.5 3.2-1.5 1.6 0 2.4 0.7 2.4 1.9 0 0.7-0.2 1.5-1.6 2.8l-5.9 5.5v2.3h11.5v-2.9h-6.5z"/>
	<path class="st25" d="m545.6 836.4 3.4-3.9v-2.3h-10.7v2.8h6.5l-3.1 3.5v2.3h1.6c2 0 2.8 0.7 2.8 1.9s-1.1 2-2.8 2c-1.6 0-3.2-0.5-4.4-1.4l-1.3 2.5-0.1 0.2s0.1 0 0.1 0.1c1.5 1 3.6 1.6 5.7 1.6 4.3 0 6.3-2.3 6.3-4.9 0.1-2.3-1.3-4-4-4.4zm7.8 5c-1.2 0-2.1 0.8-2.1 2.1 0 1.2 0.9 2.1 2.1 2.1s2.1-0.9 2.1-2.1c0-1.3-1-2.1-2.1-2.1zm2.6-11.2v2.8h3v12.4h3.5v-15.2h-6.5z"/>
	<path class="st25" d="m395.4 903.5 3.4-3.9v-2.3h-10.7v2.8h6.5l-3.1 3.6v2.3h1.6c2 0 2.9 0.7 2.9 1.9s-1.1 2-2.9 2c-1.6 0-3.2-0.5-4.4-1.4l-1.1 2.2-0.3 0.5c0.1 0.1 0.2 0.1 0.3 0.2 1.5 0.9 3.5 1.5 5.5 1.5 4.3 0 6.3-2.3 6.3-4.9 0.2-2.3-1.2-4-4-4.5zm7.8 5c-1.2 0-2.1 0.8-2.1 2.1 0 1.2 0.9 2.1 2.1 2.1s2.1-0.9 2.1-2.1-0.9-2.1-2.1-2.1zm10-11.4c-3.7 0-6.5 2.9-6.5 7.9s2.8 7.9 6.5 7.9c3.8 0 6.5-2.8 6.5-7.9s-2.8-7.9-6.5-7.9zm0 12.8c-1.7 0-3-1.4-3-4.9s1.2-4.9 3-4.9 3 1.4 3 4.9c-0.1 3.4-1.3 4.9-3 4.9z"/>
	<path class="st4" d="m866 620.7v19.8c0 1.2-1.1 2.3-3 3.3 1.9 1 3 2.1 3 3.3v19.8c0 1.2-1.1 2.3-3.1 3.3 1.9 1 3.1 2.1 3.1 3.3v19.8c0 8.2-52.8 11.5-52.8 13.2v-19.8c0-0.5 4.6-1.1 11.2-2 2.9-0.4 6.2-0.8 9.7-1.3-1.8-0.3-3.5-0.5-5.2-0.7-8.8-1.2-15.7-2-15.7-2.6v-19.8c0-0.4 3.8-1 9.3-1.8 0.9-0.1 1.9-0.2 3-0.4 2.6-0.4 5.5-0.7 8.5-1.2-3-0.4-5.9-0.8-8.5-1.2-0.7-0.1-1.4-0.2-2.1-0.3-6-0.8-10.2-1.4-10.2-1.9v-19.8c0-0.5 5.2-1.2 12.3-2.1 15.6-1.9 40.5-5.2 40.5-10.9z"/>
	<rect class="st4" x="875.8" y="679.6" width=".5" height="2.8"/>
	<path class="st4" d="m875.1 693.5 1.2-2.4v3.1c-0.5-0.2-0.9-0.5-1.2-0.7z"/>
	<path class="st5" d="m866 673.6v6.6c0 2.7-5.6 4.8-13.2 6.6-5.7-1.3-12.5-2.4-18.8-3.3-1.8-0.3-3.5-0.5-5.2-0.7-8.8-1.2-15.7-2-15.7-2.6v-6.6c0-1.1 24-3 39.7-6.6 2.5 0.6 4.8 1.2 6.8 1.9 1.3 0.4 2.4 0.9 3.3 1.4 2 0.9 3.1 2.1 3.1 3.3z"/>
	<path class="st5" d="m866 647.1v6.6c0 2.7-5.6 4.9-13.2 6.6-5.7-1.3-12.5-2.4-18.8-3.3-3-0.4-5.9-0.8-8.5-1.2-0.7-0.1-1.4-0.2-2.1-0.3-6-0.8-10.2-1.4-10.2-1.9v-6.6c0-0.5 5.2-1.2 12.3-2.1 8.2-1.1 19-2.5 27.3-4.5 0.9 0.2 1.7 0.4 2.5 0.6 3.1 0.8 5.7 1.7 7.6 2.7 2 1.1 3.1 2.2 3.1 3.4z"/>
	
		<linearGradient id="SVGID_00000142174733964708185740000003323421117107706039_" x1="813.2" x2="866" y1="412.4" y2="412.4" gradientTransform="matrix(1 0 0 -1 0 1076)" gradientUnits="userSpaceOnUse">
		<stop stop-color="#E32D2B" offset="0"/>
		<stop stop-color="#E32D2B" offset=".0092129"/>
		<stop stop-color="#E12E2C" offset=".092526"/>
		<stop stop-color="#DD302E" offset=".4187"/>
		<stop stop-color="#DE3D3B" offset=".8091"/>
		<stop stop-color="#E3322F" offset="1"/>
	</linearGradient>
	<path d="m866 647.1v19.8c0 1.2-1.1 2.3-3.1 3.3-3.5 1.9-9.8 3.4-16.7 4.7-15 2.8-33 4.3-33 5.2v-19.8c0-0.4 3.8-1 9.3-1.8 0.9-0.1 1.9-0.2 3-0.4 2.6-0.4 5.5-0.7 8.5-1.2 14.8-1.9 32-5 32-9.8z" fill="url(#SVGID_00000142174733964708185740000003323421117107706039_)"/>
	
		<linearGradient id="SVGID_00000012431720235097974270000003784448517354589063_" x1="813.2" x2="866" y1="438.85" y2="438.85" gradientTransform="matrix(1 0 0 -1 0 1076)" gradientUnits="userSpaceOnUse">
		<stop stop-color="#E32D2B" offset="0"/>
		<stop stop-color="#E32D2B" offset=".0092129"/>
		<stop stop-color="#E12E2C" offset=".092526"/>
		<stop stop-color="#DD302E" offset=".4187"/>
		<stop stop-color="#DE3D3B" offset=".8091"/>
		<stop stop-color="#E3322F" offset="1"/>
	</linearGradient>
	<path d="m866 620.7v19.8c0 1.2-1.1 2.3-3 3.3-5.4 2.8-17 4.9-27.7 6.4-3.4 0.5-6.8 0.9-9.8 1.3-7.1 0.9-12.3 1.6-12.3 2.1v-19.8c0-0.5 5.2-1.2 12.3-2.1 15.6-2 40.5-5.3 40.5-11z" fill="url(#SVGID_00000012431720235097974270000003784448517354589063_)"/>
	
		<linearGradient id="SVGID_00000058586981191766428360000000359129315827845256_" x1="813.2" x2="866" y1="385.9" y2="385.9" gradientTransform="matrix(1 0 0 -1 0 1076)" gradientUnits="userSpaceOnUse">
		<stop stop-color="#E32D2B" offset="0"/>
		<stop stop-color="#E32D2B" offset=".0092129"/>
		<stop stop-color="#E12E2C" offset=".092526"/>
		<stop stop-color="#DD302E" offset=".4187"/>
		<stop stop-color="#DE3D3B" offset=".8091"/>
		<stop stop-color="#E3322F" offset="1"/>
	</linearGradient>
	<path d="m866 673.6v19.8c0 8.2-52.8 11.5-52.8 13.2v-19.8c0-0.5 4.6-1.1 11.2-2 2.9-0.4 6.2-0.8 9.7-1.3 14.7-2.1 31.9-5.2 31.9-9.9z" fill="url(#SVGID_00000058586981191766428360000000359129315827845256_)"/>
	<path class="st4" d="m1354.6 401.1v19.8c0 1.2-1.1 2.3-3 3.3 1.9 1 3 2.1 3 3.3v19.8c0 1.2-1.1 2.3-3 3.3 1.9 1 3 2.1 3 3.3v19.8c0 8.3-52.8 11.6-52.8 13.2v-19.8c0-0.4 3.4-0.9 8.4-1.6 3.5-0.5 7.8-1 12.4-1.7-2.3-0.3-4.5-0.6-6.7-0.9-8-1.1-14.1-1.8-14.1-2.4v-19.8c0-0.5 5.2-1.2 12.3-2.1 2.6-0.3 5.5-0.7 8.5-1.2-0.3 0-0.6-0.1-0.8-0.1-1.7-0.2-3.4-0.5-5-0.7-0.9-0.1-1.9-0.2-2.8-0.4-1.3-0.2-2.5-0.3-3.6-0.5-5.2-0.7-8.7-1.2-8.7-1.7v-19.8c0-0.5 5.2-1.2 12.3-2.2 8.5-1.1 19.7-2.6 28.2-4.7 7.2-1.5 12.4-3.6 12.4-6.2z"/>
	<path class="st5" d="m1354.6 453.9v6.6c0 2.7-5.6 4.8-13.2 6.6-5.7-1.3-12.5-2.4-18.8-3.3-2.3-0.3-4.5-0.6-6.7-0.9-8-1.1-14.1-1.8-14.1-2.4v-6.6c0-0.7 10.1-1.8 21.4-3.4 6.2-0.9 12.7-1.9 18.2-3.2 0.3 0.1 0.6 0.1 0.9 0.2 1.7 0.4 3.4 0.9 4.8 1.3 1.8 0.5 3.3 1.1 4.5 1.8 1.9 1 3 2.1 3 3.3z"/>
	<path class="st5" d="m1354.6 427.5v6.6c0 2.6-5.2 4.7-12.3 6.4-0.3 0.1-0.6 0.1-0.9 0.2-5.7-1.3-12.5-2.4-18.8-3.3-0.3 0-0.6-0.1-0.8-0.1-1.7-0.2-3.4-0.5-5-0.7-0.9-0.1-1.9-0.2-2.8-0.4-1.3-0.2-2.5-0.3-3.6-0.5-5.2-0.7-8.7-1.2-8.7-1.7v-6.6c0-0.5 5.2-1.2 12.3-2.1 8.2-1.1 19-2.5 27.3-4.5 0.3 0.1 0.6 0.1 0.9 0.2 0.2 0 0.3 0.1 0.5 0.1 3.6 0.9 6.7 1.9 8.8 3 2 1.1 3.1 2.2 3.1 3.4z"/>
	
		<linearGradient id="SVGID_00000163069406626047866540000005851517801675355812_" x1="1301.8" x2="1354.6" y1="632" y2="632" gradientTransform="matrix(1 0 0 -1 0 1076)" gradientUnits="userSpaceOnUse">
		<stop stop-color="#E32D2B" offset="0"/>
		<stop stop-color="#E32D2B" offset=".0092129"/>
		<stop stop-color="#E12E2C" offset=".092526"/>
		<stop stop-color="#DD302E" offset=".4187"/>
		<stop stop-color="#DE3D3B" offset=".8091"/>
		<stop stop-color="#E3322F" offset="1"/>
	</linearGradient>
	<path d="m1354.6 427.5v19.8c0 1.2-1.1 2.3-3 3.3-4.1 2.1-11.8 3.9-20 5.2-14.2 2.4-29.8 3.8-29.8 4.7v-19.8c0-0.5 5.2-1.2 12.3-2.1 2.6-0.3 5.5-0.7 8.5-1.2 0.3 0 0.5-0.1 0.8-0.1 0.2 0 0.5-0.1 0.8-0.1 6.2-0.9 12.7-2 18.1-3.3 7.1-1.7 12.3-3.8 12.3-6.4z" fill="url(#SVGID_00000163069406626047866540000005851517801675355812_)"/>
	
		<linearGradient id="SVGID_00000122001918451604441920000012982354041882600379_" x1="1301.8" x2="1354.6" y1="658.45" y2="658.45" gradientTransform="matrix(1 0 0 -1 0 1076)" gradientUnits="userSpaceOnUse">
		<stop stop-color="#E32D2B" offset="0"/>
		<stop stop-color="#E32D2B" offset=".0092129"/>
		<stop stop-color="#E12E2C" offset=".092526"/>
		<stop stop-color="#DD302E" offset=".4187"/>
		<stop stop-color="#DE3D3B" offset=".8091"/>
		<stop stop-color="#E3322F" offset="1"/>
	</linearGradient>
	<path d="m1354.6 401.1v19.8c0 1.2-1.1 2.3-3 3.3-2.2 1.2-5.5 2.2-9.3 3.1-6.3 1.5-14.2 2.8-21.3 3.7-2.4 0.3-4.8 0.6-6.9 0.9-7.1 0.9-12.3 1.6-12.3 2.1v-19.8c0-0.5 5.2-1.2 12.3-2.2 8.5-1.1 19.7-2.6 28.2-4.7 7.1-1.5 12.3-3.6 12.3-6.2z" fill="url(#SVGID_00000122001918451604441920000012982354041882600379_)"/>
	
		<linearGradient id="SVGID_00000176016517528128120810000004800047278915399587_" x1="1301.8" x2="1354.6" y1="605.6" y2="605.6" gradientTransform="matrix(1 0 0 -1 0 1076)" gradientUnits="userSpaceOnUse">
		<stop stop-color="#E32D2B" offset="0"/>
		<stop stop-color="#E32D2B" offset=".0092129"/>
		<stop stop-color="#E12E2C" offset=".092526"/>
		<stop stop-color="#DD302E" offset=".4187"/>
		<stop stop-color="#DE3D3B" offset=".8091"/>
		<stop stop-color="#E3322F" offset="1"/>
	</linearGradient>
	<path d="m1354.6 453.9v19.8c0 8.3-52.8 11.6-52.8 13.2v-19.8c0-0.4 3.4-0.9 8.4-1.6 3.5-0.5 7.8-1 12.4-1.7 14.8-2.1 32-5.2 32-9.9z" fill="url(#SVGID_00000176016517528128120810000004800047278915399587_)"/>
	<path class="st4" d="m555.8 788.3v3.3c0-0.3 8.8-0.8 8.8-2.2v-3.3c0 1.4-8.8 2-8.8 2.2z"/>
	<path class="st4" d="m555.8 783.9v3.3c0-0.3 8.8-0.8 8.8-2.2v-3.3c0 1.4-8.8 1.9-8.8 2.2z"/>
	<path class="st4" d="m555.8 792.7v3.3c0-0.3 8.8-0.8 8.8-2.2v-3.3c0 1.4-8.8 2-8.8 2.2z"/>
	<path class="st4" d="m435.9 842v3.3c0-0.3 8.8-0.8 8.8-2.2v-3.3c0 1.4-8.8 2-8.8 2.2z"/>
	<path class="st4" d="m435.9 837.6v3.3c0-0.3 8.8-0.8 8.8-2.2v-3.3c0 1.4-8.8 1.9-8.8 2.2z"/>
	<path class="st4" d="m435.9 846.4v3.3c0-0.3 8.8-0.8 8.8-2.2v-3.3c0 1.4-8.8 2-8.8 2.2z"/>
	<path class="st4" d="m407.7 855.4v3.3c0-0.3 8.8-0.8 8.8-2.2v-3.3c0 1.3-8.8 1.9-8.8 2.2z"/>
	<path class="st4" d="m407.7 850.9v3.3c0-0.3 8.8-0.8 8.8-2.2v-3.3c0 1.4-8.8 2-8.8 2.2z"/>
	<path class="st4" d="m407.7 859.8v3.3c0-0.3 8.8-0.8 8.8-2.2v-3.3c0 1.3-8.8 1.9-8.8 2.2z"/>
	<path class="st4" d="m583.6 775.2v3.3c0-0.3 8.8-0.8 8.8-2.2v-3.3c0 1.3-8.8 1.9-8.8 2.2z"/>
	<path class="st4" d="m583.6 770.7v3.3c0-0.3 8.8-0.8 8.8-2.2v-3.3c0 1.4-8.8 2-8.8 2.2z"/>
	<path class="st4" d="m583.6 779.6v3.3c0-0.3 8.8-0.8 8.8-2.2v-3.3c0 1.3-8.8 1.9-8.8 2.2z"/>
	<path class="st4" d="m611.4 762v3.3c0-0.3 8.8-0.8 8.8-2.2v-3.3c0 1.4-8.8 1.9-8.8 2.2z"/>
	<path class="st4" d="m611.4 757.6v3.3c0-0.3 8.8-0.8 8.8-2.2v-3.3c0 1.3-8.8 1.9-8.8 2.2z"/>
	<path class="st4" d="m611.4 766.4v3.3c0-0.3 8.8-0.8 8.8-2.2v-3.3c0 1.4-8.8 1.9-8.8 2.2z"/>
	<path class="st4" d="m753.8 698.8v3.3c0-0.3 8.8-0.8 8.8-2.2v-3.3c0 1.4-8.8 2-8.8 2.2z"/>
	<path class="st4" d="m753.8 694.4v3.3c0-0.3 8.8-0.8 8.8-2.2v-3.3c0 1.4-8.8 2-8.8 2.2z"/>
	<path class="st4" d="m753.8 703.3v3.3c0-0.3 8.8-0.8 8.8-2.2v-3.3c0 1.3-8.8 1.9-8.8 2.2z"/>
	
	
	
	<path class="st4" d="m834.9 592.4v3.3c0-0.3 8.8-0.8 8.8-2.2v-3.3c0 1.3-8.8 1.9-8.8 2.2z"/>
	<path class="st4" d="m834.9 588v3.3c0-0.3 8.8-0.8 8.8-2.2v-3.3c0 1.3-8.8 1.9-8.8 2.2z"/>
	<path class="st4" d="m834.9 596.8v3.3c0-0.3 8.8-0.8 8.8-2.2v-3.3c0 1.4-8.8 1.9-8.8 2.2z"/>
	<path class="st4" d="m834.9 524.2v3.3c0-0.3 8.8-0.8 8.8-2.2v-3.3c0 1.4-8.8 1.9-8.8 2.2z"/>
	<path class="st4" d="m834.9 519.8v3.3c0-0.3 8.8-0.8 8.8-2.2v-3.3c0 1.4-8.8 1.9-8.8 2.2z"/>
	<path class="st4" d="m834.9 528.6v3.3c0-0.3 8.8-0.8 8.8-2.2v-3.3c0 1.4-8.8 1.9-8.8 2.2z"/>
	<path class="st4" d="m834.9 456v3.3c0-0.3 8.8-0.8 8.8-2.2v-3.3c0 1.4-8.8 2-8.8 2.2z"/>
	<path class="st4" d="m834.9 451.6v3.3c0-0.3 8.8-0.8 8.8-2.2v-3.3c0 1.4-8.8 2-8.8 2.2z"/>
	<path class="st4" d="m834.9 460.5v3.3c0-0.3 8.8-0.8 8.8-2.2v-3.3c0 1.3-8.8 1.9-8.8 2.2z"/>
	<path class="st4" d="m834.9 387.9v3.3c0-0.3 8.8-0.8 8.8-2.2v-3.3c0 1.4-8.8 1.9-8.8 2.2z"/>
	<path class="st4" d="m834.9 383.5v3.3c0-0.3 8.8-0.8 8.8-2.2v-3.3c0 1.3-8.8 1.9-8.8 2.2z"/>
	<path class="st4" d="m834.9 392.3v3.3c0-0.3 8.8-0.8 8.8-2.2v-3.3c0 1.4-8.8 1.9-8.8 2.2z"/>
	<path class="st4" d="m834.9 319.7v3.3c0-0.3 8.8-0.8 8.8-2.2v-3.3c0 1.4-8.8 1.9-8.8 2.2z"/>
	<path class="st4" d="m834.9 315.3v3.3c0-0.3 8.8-0.8 8.8-2.2v-3.3c0 1.4-8.8 1.9-8.8 2.2z"/>
	<path class="st4" d="m834.9 324.1v3.3c0-0.3 8.8-0.8 8.8-2.2v-3.3c0 1.4-8.8 2-8.8 2.2z"/>
	<path class="st4" d="m1323.8 326.1v3.6c0-0.3 8.8-0.9 8.8-2.4v-3.6c0 1.5-8.8 2.1-8.8 2.4z"/>
	<path class="st4" d="m1323.8 321.3v3.6c0-0.3 8.8-0.9 8.8-2.4v-3.5c0 1.4-8.8 2-8.8 2.3z"/>
	<path class="st4" d="m1323.8 330.8v3.6c0-0.3 8.8-0.9 8.8-2.4v-3.6c0 1.5-8.8 2.1-8.8 2.4z"/>
	<path class="st4" d="m1323.8 252.6v3.6c0-0.3 8.8-0.9 8.8-2.4v-3.6c0 1.5-8.8 2.1-8.8 2.4z"/>
	<path class="st4" d="m1323.8 247.9v3.6c0-0.3 8.8-0.9 8.8-2.4v-3.6c0 1.5-8.8 2.1-8.8 2.4z"/>
	<path class="st4" d="m1323.8 257.4v3.6c0-0.3 8.8-0.9 8.8-2.4v-3.6c0 1.5-8.8 2.1-8.8 2.4z"/>
	<path class="st4" d="m1323.8 179.2v3.6c0-0.3 8.8-0.9 8.8-2.4v-3.6c0 1.5-8.8 2.1-8.8 2.4z"/>
	<path class="st4" d="m1323.8 174.4v3.6c0-0.3 8.8-0.9 8.8-2.4v-3.6c0 1.5-8.8 2.1-8.8 2.4z"/>
	<path class="st4" d="m1323.8 183.9v3.6c0-0.3 8.8-0.9 8.8-2.4v-3.6c0 1.5-8.8 2.1-8.8 2.4z"/>

</svg>
