<?xml version="1.0" encoding="utf-8"?>
<!-- Generator: Adobe Illustrator 26.2.1, SVG Export Plug-In . SVG Version: 6.00 Build 0)  -->
<svg version="1.1" id="Layer_1" xmlns="http://www.w3.org/2000/svg" xmlns:xlink="http://www.w3.org/1999/xlink" x="0px" y="0px"
	 viewBox="0 0 1740 1076" style="enable-background:new 0 0 1740 1076;" xml:space="preserve">
<style type="text/css">
	.st0{fill:#002B36;}
	.st1{fill:#A9E6C3;}
	.st2{fill:#D3F2E1;}
	.st3{fill:#15414C;}
	.st4{fill:#FFFFFF;}
	.st5{fill:#7F1620;}
	.st6{fill:url(#SVGID_1_);}
	.st7{fill:url(#SVGID_00000054241552525095698080000000727692942462414761_);}
	.st8{fill:url(#SVGID_00000034075584556786677080000012844293240282670491_);}
	.st9{fill:url(#SVGID_00000139272078624808106370000012415646724467870867_);}
	.st10{fill:url(#SVGID_00000048476320630349547820000007672165533289885318_);}
	.st11{fill:url(#SVGID_00000045582431637317747360000006920468458167019415_);}
	.st12{fill:url(#SVGID_00000127751950852090854650000006354939278803980971_);}
	.st13{fill:url(#SVGID_00000049911381556973500750000010242846069893299866_);}
	.st14{fill:url(#SVGID_00000172440443513300318050000006480705863851771563_);}
	.st15{fill:url(#SVGID_00000073696675743198646390000005859431671577880254_);}
	.st16{fill:url(#SVGID_00000138572255767720578630000002404850962172496558_);}
	.st17{fill:url(#SVGID_00000145751075152536731640000017483461594254445708_);}
	.st18{fill:url(#SVGID_00000019654892124267560150000003823708741069029505_);}
	.st19{fill:url(#SVGID_00000177457113231948153090000001439247795021092247_);}
	.st20{fill:url(#SVGID_00000058589639338869688690000012421579982356067506_);}
	.st21{fill:url(#SVGID_00000078019737555163541210000005539169430682734470_);}
	.st22{fill:url(#SVGID_00000095307778224062847850000001393959025290635438_);}
	.st23{fill:url(#SVGID_00000034069042621093806540000004674848609394523289_);}
	.st24{fill:#54CD88;}
	.st25{fill:#E32D2B;}
	.st26{fill:url(#SVGID_00000075851751355151169730000007147783578245514384_);}
	.st27{fill:url(#SVGID_00000097498151053011451310000011644142331955436952_);}
	.st28{fill:url(#SVGID_00000038382679739919972470000015019216183809321869_);}
	.st29{fill:url(#SVGID_00000101091909497641717360000001057386464909039015_);}
	.st30{fill:url(#SVGID_00000081649149172310691000000012061216692494631314_);}
	.st31{fill:url(#SVGID_00000130648527602359154890000011967489930154897040_);}
</style>
<g>
	<path class="st0" d="M923.4,787.6h-234c-3.3,0-6,2.7-6,6v9.2l-41.2-16.4l-2.1-0.9l-13-5.2l56.3,46V849c0,3.3,2.7,6,6,6h234
		c3.3,0,6-2.6,6-6v-55.4C929.4,790.3,926.7,787.6,923.4,787.6z"/>
	<polygon class="st1" points="825.5,436.3 825.5,620.6 803,624.2 803,658.6 129.2,658.6 129.2,436.3 	"/>
	<path class="st1" d="M825.5,631.8v24.1c-0.7-0.1-1.4-0.2-2.1-0.3c-6-0.8-10.2-1.4-10.2-1.9v-19.8
		C813.2,633.4,818.4,632.7,825.5,631.8z"/>
	<path class="st1" d="M822.6,658.6c0.9-0.1,1.9-0.2,3-0.4v0.4H822.6z"/>
	<polygon class="st2" points="825.5,231 420.6,231 420.6,436.3 825.5,436.3 	"/>
	<path d="M540.4,323H537l-8.4,18.6h3.6l1.8-4.3h9.3l1.9,4.3h3.6L540.4,323z M535.2,334.6l3.5-8.2l3.5,8.2H535.2z M558.5,338.5
		c-0.5,0.4-1.2,0.6-1.9,0.6c-1.3,0-2-0.8-2-2.1v-6.8h3.8v-2.7h-3.8v-3.2h-3.3v3.2H549v2.7h2.3v6.8c0,3.1,1.8,4.8,4.9,4.8
		c1.2,0,2.4-0.3,3.2-1L558.5,338.5z M569.8,321.9v19.7h3.3v-19.7H569.8z M591,334.6c0-4.5-3-7.4-7.2-7.4s-7.3,3-7.3,7.3
		s3.1,7.3,7.9,7.3c2.4,0,4.4-0.8,5.7-2.3l-1.8-2c-1,1-2.3,1.5-3.9,1.5c-2.5,0-4.2-1.3-4.6-3.4H591C590.9,335.3,591,334.9,591,334.6z
		 M579.7,333.4c0.3-2.1,1.9-3.5,4-3.5c2.2,0,3.8,1.4,4,3.5H579.7z M599.3,327.2c-2.3,0-4.5,0.6-6,1.8l1.3,2.4
		c1.1-0.9,2.7-1.4,4.3-1.4c2.4,0,3.5,1.1,3.5,3.1v0.2h-3.7c-4.3,0-5.9,1.9-5.9,4.2c0,2.5,2,4.3,5.3,4.3c2.1,0,3.7-0.7,4.5-1.9v1.7
		h3.1v-8.3C605.8,329.2,603.4,327.2,599.3,327.2z M602.4,337.2c-0.6,1.5-2,2.2-3.6,2.2c-1.7,0-2.7-0.8-2.7-2c0-1,0.6-1.9,2.9-1.9
		h3.4L602.4,337.2L602.4,337.2z M612.2,331.5c0-0.9,1-1.6,3-1.6c1.4,0,2.7,0.3,4.1,1.1l1.3-2.5c-1.3-0.8-3.4-1.2-5.3-1.2
		c-3.8,0-6.3,1.8-6.3,4.5c0,5.7,8.8,3.1,8.8,5.8c0,1-0.9,1.6-3,1.6c-1.8,0-3.7-0.6-4.9-1.4l-1.3,2.5c1.3,0.9,3.6,1.6,6,1.6
		c4,0,6.4-1.7,6.4-4.4C621,331.9,612.2,334.4,612.2,331.5z M631.6,338.5c-0.5,0.4-1.2,0.6-1.9,0.6c-1.3,0-2-0.8-2-2.1v-6.8h3.8v-2.7
		h-3.8v-3.2h-3.3v3.2h-2.3v2.7h2.3v6.8c0,3.1,1.8,4.8,4.9,4.8c1.2,0,2.4-0.3,3.2-1L631.6,338.5z M640.9,323v2.9h3.9v15.7h3.5V323
		H640.9z M670.8,327.4l-4.5,10.5l-4.5-10.5h-3.5l6.2,14.3l-0.2,0.5c-0.6,1.4-1.3,2-2.5,2c-0.9,0-1.8-0.4-2.4-1l-1.3,2.4
		c0.9,0.8,2.4,1.3,3.8,1.3c2.4,0,4.2-1,5.5-4.2l6.7-15.4h-3.3V327.4z M689.1,334.6c0-4.5-3-7.4-7.2-7.4s-7.3,3-7.3,7.3
		s3.1,7.3,7.8,7.3c2.5,0,4.5-0.8,5.7-2.3l-1.8-2c-1,1-2.3,1.5-3.9,1.5c-2.5,0-4.2-1.3-4.6-3.4H689
		C689.1,335.3,689.1,334.9,689.1,334.6z M677.9,333.4c0.3-2.1,1.9-3.5,4-3.5c2.2,0,3.8,1.4,4,3.5H677.9z M697.5,327.2
		c-2.3,0-4.5,0.6-6,1.8l1.3,2.4c1.1-0.9,2.7-1.4,4.3-1.4c2.4,0,3.5,1.1,3.5,3.1v0.2H697c-4.3,0-5.9,1.9-5.9,4.2
		c0,2.5,2.1,4.3,5.3,4.3c2.1,0,3.7-0.7,4.5-1.9v1.7h3.1v-8.3C703.9,329.2,701.6,327.2,697.5,327.2z M700.6,337.2
		c-0.6,1.5-2,2.2-3.6,2.2c-1.7,0-2.7-0.8-2.7-2c0-1,0.6-1.9,2.9-1.9h3.4L700.6,337.2L700.6,337.2z M711.5,329.5v-2.1h-3.2v14.2h3.3
		v-6.9c0-2.9,1.6-4.4,4.1-4.4c0.2,0,0.5,0,0.8,0.1v-3.2C714.2,327.2,712.5,328,711.5,329.5z"/>
	<path d="M94,437.3h6c0.6,0,1-0.4,1-1s-0.4-1-1-1h-6c-0.6,0-1,0.4-1,1C93,436.8,93.5,437.3,94,437.3L94,437.3z"/>
	<path d="M124.1,435.3H112c-0.5,0-1,0.4-1,1s0.5,1,1,1h12.1c0.5,0,1-0.4,1-1C125.1,435.7,124.7,435.3,124.1,435.3z M148.2,435.3
		h-12.1c-0.5,0-1,0.4-1,1s0.5,1,1,1h12.1c0.6,0,1-0.4,1-1C149.2,435.7,148.8,435.3,148.2,435.3z M172.3,435.3h-12.1
		c-0.5,0-1,0.4-1,1s0.5,1,1,1h12.1c0.6,0,1-0.4,1-1C173.3,435.7,172.9,435.3,172.3,435.3z M196.5,435.3h-12.1c-0.6,0-1,0.4-1,1
		s0.4,1,1,1h12.1c0.5,0,1-0.4,1-1C197.5,435.7,197,435.3,196.5,435.3z M220.6,435.3h-12.1c-0.6,0-1,0.4-1,1s0.4,1,1,1h12.1
		c0.5,0,1-0.4,1-1C221.6,435.7,221.1,435.3,220.6,435.3z M244.7,435.3h-12.1c-0.5,0-1,0.4-1,1s0.5,1,1,1h12.1c0.5,0,1-0.4,1-1
		C245.7,435.7,245.2,435.3,244.7,435.3z M268.8,435.3h-12c-0.6,0-1,0.4-1,1s0.4,1,1,1h12c0.6,0,1-0.4,1-1
		C269.8,435.7,269.4,435.3,268.8,435.3z M292.9,435.3h-12.1c-0.5,0-1,0.4-1,1s0.5,1,1,1h12.1c0.5,0,1-0.4,1-1
		C293.9,435.7,293.5,435.3,292.9,435.3z M317,435.3h-12c-0.6,0-1,0.4-1,1s0.4,1,1,1h12c0.5,0,1-0.4,1-1
		C318,435.7,317.6,435.3,317,435.3z M341.2,435.3h-12.1c-0.6,0-1,0.4-1,1s0.4,1,1,1h12.1c0.5,0,1-0.4,1-1
		C342.2,435.7,341.7,435.3,341.2,435.3z M365.3,435.3h-12.1c-0.5,0-1,0.4-1,1s0.5,1,1,1h12.1c0.5,0,1-0.4,1-1
		C366.3,435.7,365.8,435.3,365.3,435.3z M389.4,435.3h-12.1c-0.5,0-1,0.4-1,1s0.5,1,1,1h12.1c0.5,0,1-0.4,1-1
		C390.4,435.7,389.9,435.3,389.4,435.3z M413.5,435.3h-12.1c-0.5,0-1,0.4-1,1s0.5,1,1,1h12.1c0.5,0,1-0.4,1-1
		C414.5,435.7,414,435.3,413.5,435.3z M437.6,435.3h-12c-0.6,0-1,0.4-1,1s0.4,1,1,1h12c0.6,0,1-0.4,1-1
		C438.6,435.7,438.2,435.3,437.6,435.3z M461.7,435.3h-12.1c-0.5,0-1,0.4-1,1s0.5,1,1,1h12.1c0.6,0,1-0.4,1-1
		C462.7,435.7,462.3,435.3,461.7,435.3z M485.8,435.3h-12c-0.6,0-1,0.4-1,1s0.4,1,1,1h12c0.6,0,1-0.4,1-1
		C486.8,435.7,486.4,435.3,485.8,435.3z M510,435.3h-12.1c-0.5,0-1,0.4-1,1s0.5,1,1,1H510c0.5,0,1-0.4,1-1
		C511,435.7,510.5,435.3,510,435.3z M534.1,435.3H522c-0.5,0-1,0.4-1,1s0.5,1,1,1h12.1c0.5,0,1-0.4,1-1
		C535.1,435.7,534.6,435.3,534.1,435.3z M558.2,435.3h-12.1c-0.5,0-1,0.4-1,1s0.5,1,1,1h12.1c0.5,0,1-0.4,1-1
		C559.2,435.7,558.7,435.3,558.2,435.3z M582.3,435.3h-12.1c-0.5,0-1,0.4-1,1s0.5,1,1,1h12.1c0.6,0,1-0.4,1-1
		C583.3,435.7,582.8,435.3,582.3,435.3z M606.4,435.3h-12.1c-0.5,0-1,0.4-1,1s0.5,1,1,1h12.1c0.6,0,1-0.4,1-1
		C607.4,435.7,607,435.3,606.4,435.3z M630.5,435.3h-12.1c-0.6,0-1,0.4-1,1s0.4,1,1,1h12.1c0.5,0,1-0.4,1-1
		C631.5,435.7,631.1,435.3,630.5,435.3z M654.6,435.3h-12c-0.6,0-1,0.4-1,1s0.4,1,1,1h12c0.6,0,1-0.4,1-1
		C655.6,435.7,655.2,435.3,654.6,435.3z M678.8,435.3h-12.1c-0.5,0-1,0.4-1,1s0.5,1,1,1h12.1c0.5,0,1-0.4,1-1
		C679.8,435.7,679.3,435.3,678.8,435.3z M702.9,435.3h-12c-0.6,0-1,0.4-1,1s0.4,1,1,1h12c0.5,0,1-0.4,1-1
		C703.9,435.7,703.4,435.3,702.9,435.3z M727,435.3h-12.1c-0.5,0-1,0.4-1,1s0.5,1,1,1H727c0.6,0,1-0.4,1-1
		C728,435.7,727.5,435.3,727,435.3z M751.1,435.3H739c-0.6,0-1,0.4-1,1s0.4,1,1,1h12.1c0.5,0,1-0.4,1-1
		C752.1,435.7,751.6,435.3,751.1,435.3z M775.2,435.3h-12.1c-0.6,0-1,0.4-1,1s0.4,1,1,1h12.1c0.5,0,1-0.4,1-1
		C776.2,435.7,775.8,435.3,775.2,435.3z M799.3,435.3h-12.1c-0.5,0-1,0.4-1,1s0.5,1,1,1h12.1c0.5,0,1-0.4,1-1
		C800.3,435.7,799.9,435.3,799.3,435.3z M823.4,435.3h-12c-0.5,0-1,0.4-1,1s0.5,1,1,1h12c0.6,0,1-0.4,1-1
		C824.4,435.7,824,435.3,823.4,435.3z M847.5,435.3h-12.1c-0.5,0-1,0.4-1,1s0.5,1,1,1h12.1c0.5,0,1-0.4,1-1
		C848.5,435.7,848.1,435.3,847.5,435.3z M871.7,435.3h-12c-0.6,0-1,0.4-1,1s0.4,1,1,1h12c0.6,0,1-0.4,1-1
		C872.7,435.7,872.2,435.3,871.7,435.3z M895.8,435.3h-12.1c-0.5,0-1,0.4-1,1s0.5,1,1,1h12.1c0.5,0,1-0.4,1-1
		C896.8,435.7,896.3,435.3,895.8,435.3z M919.9,435.3h-12.1c-0.5,0-1,0.4-1,1s0.5,1,1,1h12.1c0.5,0,1-0.4,1-1
		C920.9,435.7,920.4,435.3,919.9,435.3z M944,435.3h-12c-0.5,0-1,0.4-1,1s0.5,1,1,1h12c0.5,0,1-0.4,1-1
		C945,435.7,944.6,435.3,944,435.3z M968.1,435.3H956c-0.5,0-1,0.4-1,1s0.5,1,1,1h12.1c0.5,0,1-0.4,1-1
		C969.1,435.7,968.7,435.3,968.1,435.3z M992.2,435.3h-12.1c-0.5,0-1,0.4-1,1s0.5,1,1,1h12.1c0.5,0,1-0.4,1-1
		C993.2,435.7,992.8,435.3,992.2,435.3z M1016.3,435.3h-12.1c-0.5,0-1,0.4-1,1s0.5,1,1,1h12.1c0.6,0,1-0.4,1-1
		C1017.3,435.7,1016.9,435.3,1016.3,435.3z M1040.5,435.3h-12.1c-0.6,0-1,0.4-1,1s0.4,1,1,1h12.1c0.6,0,1-0.4,1-1
		C1041.5,435.7,1041,435.3,1040.5,435.3z M1064.6,435.3h-12.1c-0.6,0-1,0.4-1,1s0.4,1,1,1h12.1c0.5,0,1-0.4,1-1
		C1065.6,435.7,1065.1,435.3,1064.6,435.3z M1088.7,435.3h-12c-0.6,0-1,0.4-1,1s0.4,1,1,1h12c0.6,0,1-0.4,1-1
		C1089.7,435.7,1089.2,435.3,1088.7,435.3z M1112.8,435.3h-12.1c-0.6,0-1,0.4-1,1s0.4,1,1,1h12.1c0.5,0,1-0.4,1-1
		C1113.8,435.7,1113.4,435.3,1112.8,435.3z M1136.9,435.3h-12.1c-0.5,0-1,0.4-1,1s0.5,1,1,1h12.1c0.6,0,1-0.4,1-1
		C1137.9,435.7,1137.5,435.3,1136.9,435.3z M1161,435.3h-12c-0.6,0-1,0.4-1,1s0.4,1,1,1h12.1c0.6,0,1-0.4,1-1
		C1162,435.7,1161.6,435.3,1161,435.3z M1185.2,435.3h-12.1c-0.6,0-1,0.4-1,1s0.4,1,1,1h12.1c0.5,0,1-0.4,1-1
		C1186.2,435.7,1185.7,435.3,1185.2,435.3z M1209.3,435.3h-12.1c-0.6,0-1,0.4-1,1s0.4,1,1,1h12.1c0.6,0,1-0.4,1-1
		C1210.3,435.7,1209.8,435.3,1209.3,435.3z M1233.4,435.3h-12.1c-0.6,0-1,0.4-1,1s0.4,1,1,1h12.1c0.5,0,1-0.4,1-1
		C1234.4,435.7,1233.9,435.3,1233.4,435.3z M1257.5,435.3h-12.1c-0.6,0-1,0.4-1,1s0.4,1,1,1h12.1c0.6,0,1-0.4,1-1
		C1258.5,435.7,1258,435.3,1257.5,435.3z M1281.6,435.3h-12.1c-0.6,0-1,0.4-1,1s0.4,1,1,1h12.1c0.5,0,1-0.4,1-1
		C1282.6,435.7,1282.2,435.3,1281.6,435.3z"/>
	<path d="M1324.8,436.3c0,0.4-0.2,0.7-0.6,0.9c-0.1,0.1-0.3,0.1-0.4,0.1h-2c-1.7-0.2-3.4-0.5-5-0.7c0-0.1-0.1-0.2-0.1-0.3
		c0-0.6,0.4-1,1-1h6C1324.3,435.3,1324.8,435.7,1324.8,436.3z"/>
	<polygon class="st3" points="94,984.9 314.4,885.4 314.4,915 159.5,984.9 	"/>
	<path class="st3" d="M333.4,906.4l-8.7,3.9V908C324.6,907.6,328.2,907.1,333.4,906.4z"/>
	<path class="st3" d="M365.8,862.2l11.7-5.3v4.9c0,1.2-1.1,2.3-3,3.3c1.9,1,3,2.1,3,3.3v18l-7.4,3.3l-15.3,6.9l-15.8,7.1
		c-8.1-1.1-14.3-1.8-14.3-2.4v-19.8c0-0.7,9.7-1.7,20.8-3.3c-4.4-0.6-8.5-1.2-11.9-1.6l10.7-4.8L365.8,862.2z"/>
	<polygon class="st3" points="387.7,852.3 464.4,817.7 464.4,847.3 387.7,881.9 	"/>
	<path class="st3" d="M482,839.3l-7.3,3.3v-1.8C474.6,840.4,477.5,839.9,482,839.3z"/>
	<path class="st3" d="M515.1,794.8l12.3-5.6v5.4c0,1.2-1.1,2.3-3,3.3c1.9,1,3,2.1,3,3.3v17.6l-7.9,3.6l-16.2,7.3l0,0l-15,6.8
		c-7.8-1-13.6-1.8-13.6-2.3v-19.8c0-0.7,9.7-1.7,20.8-3.3c-4.7-0.7-9.1-1.2-12.7-1.7l10-4.5l0,0L515.1,794.8z"/>
	<polygon class="st3" points="537.7,784.6 640.1,738.4 640.1,767.9 537.7,814.2 	"/>
	<path class="st3" d="M703.2,715.8v19.8c0,1.2-1.1,2.3-3,3.3c0.7,0.4,1.3,0.7,1.7,1.1L677,751.3l0,0l-2.9,1.3l-23.8,10.8v-7.9
		c0-0.7,9.7-1.7,20.9-3.3c-11.1-1.6-20.9-2.6-20.9-3.3v-15.1l16.3-7.4l0,0l2.1-0.9l21.2-9.6l0,0l8.7-3.9l4.3-1.9
		c-0.3,0.9-1.4,1.8-2.9,2.6C702.1,713.5,703.2,714.6,703.2,715.8z"/>
	<polygon class="st3" points="713.4,705.3 803,664.9 803,694.4 713.4,734.9 	"/>
	<path class="st3" d="M824.4,684.8l-11.2,5v-3C813.2,686.3,817.8,685.6,824.4,684.8z"/>
	<path class="st3" d="M863,643.8c1.9,1,3,2.1,3,3.3V666l-6.4,2.9l-13.4,6.1l0,0l-17.3,7.8l0,0c-8.8-1.2-15.7-2-15.7-2.6v-19.8
		c0-0.4,3.8-1,9.3-1.8c0.9-0.1,1.9-0.2,3-0.4c2.6-0.4,5.5-0.7,8.5-1.2c-3-0.4-5.9-0.8-8.5-1.2c-0.7-0.1-1.4-0.2-2.1-0.3l2.1-0.9
		l9.8-4.4l0,0l20.1-9.1l0,0l10.6-4.8v4.2C866,641.7,864.9,642.8,863,643.8z"/>
	<polygon class="st3" points="876.3,631.8 965.8,591.3 965.8,620.9 876.3,661.3 	"/>
	<path class="st3" d="M988.9,610.5l-12.8,5.8v-3.6C976.1,612.2,981.5,611.5,988.9,610.5z"/>
	<path class="st3" d="M1019,567.3l9.9-4.5v3.6c0,1.2-1.1,2.3-3,3.3c1.9,1,3,2.1,3,3.3v19.4l-5.8,2.6l-12.1,5.5l0,0l-18.4,8.3l0,0
		c-9.2-1.2-16.5-2.1-16.5-2.7v-19.4l2.6-1.2c3.6-0.6,10.6-1.5,18.3-2.5c-3.5-0.5-6.8-0.9-9.7-1.3l12.6-5.7l0,0L1019,567.3
		L1019,567.3z"/>
	<polygon class="st3" points="1039.1,558.2 1128.7,517.8 1128.7,547.4 1039.1,587.8 	"/>
	<path class="st3" d="M1140.9,541.9l-2,0.9v-0.2C1138.9,542.3,1139.6,542.1,1140.9,541.9z"/>
	<path class="st3" d="M1174.3,497.2l17.4-7.9v7c0,1.2-1.1,2.3-3,3.3c1.9,1,3,2.1,3,3.3v16l-10.1,4.5l-19.4,8.8l0,0l-12.4,5.6
		c-6.4-0.8-10.9-1.5-10.9-2V516c0-0.7,9.7-1.7,20.9-3.3c-5.9-0.9-11.5-1.5-15.4-2.1l7.7-3.5l0,0L1174.3,497.2z"/>
	<polygon class="st3" points="1202,484.7 1291.5,444.3 1291.5,473.9 1202,514.3 	"/>
	<path class="st3" d="M1310.2,465.5l-8.4,3.8v-2.2C1301.8,466.7,1305.2,466.2,1310.2,465.5z"/>
	<path class="st3" d="M1342.8,421.2l11.8-5.3v5c0,1.2-1.1,2.3-3,3.3c1.9,1,3,2.1,3,3.3v18l-7.5,3.4l-15.5,7L1316,463l0,0
		c-8-1.1-14.1-1.8-14.1-2.4v-19.8c0-0.5,5.2-1.2,12.3-2.1c2.6-0.3,5.5-0.7,8.5-1.2c-0.3,0-0.6-0.1-0.8-0.1c-1.7-0.2-3.4-0.5-5-0.7
		c-0.9-0.1-1.9-0.2-2.8-0.4c-1.3-0.2-2.5-0.3-3.6-0.5l3.6-1.6l6.9-3.1l0,0l21.3-9.6L1342.8,421.2z"/>
	<polygon class="st3" points="1364.8,411.2 1454.4,370.8 1454.4,400.4 1364.8,440.8 	"/>
	<path class="st3" d="M1511.6,345l5.8-2.6v0.5c0,1.2-1.1,2.3-3,3.3c1.9,1,3,2.1,3,3.3v19.8c0,1.2-1.1,2.3-3,3.3
		c0.2,0.1,0.5,0.3,0.7,0.4l-27.8,12.6l-0.9,0.4l-21.8,9.8v-6.7c0-0.7,9.7-1.7,20.8-3.3c-11.1-1.6-20.8-2.6-20.8-3.3v-16.3l12.6-5.7
		l0,0l3.8-1.7l18.3-8.2l0,0L1511.6,345z"/>
	<polygon class="st3" points="1647.3,283.7 1647.3,313.3 1527.7,367.3 1527.7,337.7 	"/>
	<path class="st4" d="M1028.9,546.7v19.8c0,1.2-1.1,2.3-3,3.3c1.9,1,3,2.1,3,3.3v19.8c0,1.2-1.1,2.3-3,3.3c1.9,1,3,2.1,3,3.3v19.8
		c0,8.2-52.8,11.5-52.8,13.2v-19.8c0-0.5,5.4-1.2,12.8-2.2c2.5-0.3,5.2-0.7,8-1.1c-1.5-0.2-2.9-0.4-4.2-0.6l0,0
		c-9.2-1.2-16.5-2.1-16.5-2.7v-19.8c0-0.2,0.9-0.5,2.6-0.8c3.6-0.6,10.6-1.5,18.3-2.5c-3.5-0.5-6.8-0.9-9.7-1.3l0,0
		c-6.5-0.9-11.1-1.5-11.1-2v-19.8C976.1,558.3,1028.9,555,1028.9,546.7z"/>
	<rect x="1039" y="600.6" class="st4" width="0.2" height="2.8"/>
	<path class="st4" d="M1038.2,614.5l0.9-1.9v2.4C1038.8,614.8,1038.5,614.7,1038.2,614.5z"/>
	<path class="st5" d="M1028.9,599.5v6.6c0,2.7-5.6,4.8-13.2,6.6c-5.7-1.3-12.5-2.4-18.8-3.3c-1.5-0.2-2.9-0.4-4.2-0.6l0,0
		c-9.2-1.2-16.5-2.1-16.5-2.7v-6.6c0-1.1,24-3,39.7-6.6c2.8,0.7,5.3,1.4,7.4,2.1c1,0.4,1.9,0.8,2.7,1.2
		C1027.8,597.2,1028.9,598.3,1028.9,599.5z"/>
	<path class="st5" d="M1028.9,573.1v6.6c0,2.7-5.6,4.8-13.2,6.6c-5.7-1.3-12.5-2.4-18.8-3.3c-3.5-0.5-6.8-0.9-9.7-1.3l0,0
		c-6.5-0.9-11.1-1.5-11.1-2v-6.6c0-1.1,24-3,39.7-6.6c1.1,0.3,2.2,0.5,3.3,0.8l0,0c2.8,0.8,5.1,1.6,6.8,2.5
		C1027.8,570.8,1028.9,571.9,1028.9,573.1z"/>
	
		<linearGradient id="SVGID_1_" gradientUnits="userSpaceOnUse" x1="976.1" y1="486.4001" x2="1028.9" y2="486.4001" gradientTransform="matrix(1 0 0 -1 0 1076)">
		<stop  offset="0" style="stop-color:#E32D2B"/>
		<stop  offset="9.212934e-03" style="stop-color:#E32D2B"/>
		<stop  offset="9.252559e-02" style="stop-color:#E12E2C"/>
		<stop  offset="0.4187" style="stop-color:#DD302E"/>
		<stop  offset="0.8091" style="stop-color:#DE3D3B"/>
		<stop  offset="1" style="stop-color:#E3322F"/>
	</linearGradient>
	<path class="st6" d="M1028.9,573.1v19.8c0,1.2-1.1,2.3-3,3.3c-3.2,1.7-8.7,3.1-14.8,4.3l0,0c-15.3,3-35,4.6-35,5.6v-19.8
		c0-0.2,0.9-0.5,2.6-0.8c3.6-0.6,10.6-1.5,18.3-2.5C1011.7,580.9,1028.9,577.8,1028.9,573.1z"/>
	
		<linearGradient id="SVGID_00000120524075274577102130000004719199009487935111_" gradientUnits="userSpaceOnUse" x1="976.1" y1="512.8" x2="1028.9" y2="512.8" gradientTransform="matrix(1 0 0 -1 0 1076)">
		<stop  offset="0" style="stop-color:#E32D2B"/>
		<stop  offset="9.212934e-03" style="stop-color:#E32D2B"/>
		<stop  offset="9.252559e-02" style="stop-color:#E12E2C"/>
		<stop  offset="0.4187" style="stop-color:#DD302E"/>
		<stop  offset="0.8091" style="stop-color:#DE3D3B"/>
		<stop  offset="1" style="stop-color:#E3322F"/>
	</linearGradient>
	<path style="fill:url(#SVGID_00000120524075274577102130000004719199009487935111_);" d="M1028.9,546.7v19.8c0,1.2-1.1,2.3-3,3.3
		c-5.1,2.7-15.8,4.7-26,6.2l0,0c-12.3,1.8-23.8,3-23.8,3.7v-19.8C976.1,558.3,1028.9,555,1028.9,546.7z"/>
	
		<linearGradient id="SVGID_00000093881024108569255400000003212980461048726455_" gradientUnits="userSpaceOnUse" x1="976.1" y1="460" x2="1028.9" y2="460" gradientTransform="matrix(1 0 0 -1 0 1076)">
		<stop  offset="0" style="stop-color:#E32D2B"/>
		<stop  offset="9.212934e-03" style="stop-color:#E32D2B"/>
		<stop  offset="9.252559e-02" style="stop-color:#E12E2C"/>
		<stop  offset="0.4187" style="stop-color:#DD302E"/>
		<stop  offset="0.8091" style="stop-color:#DE3D3B"/>
		<stop  offset="1" style="stop-color:#E3322F"/>
	</linearGradient>
	<path style="fill:url(#SVGID_00000093881024108569255400000003212980461048726455_);" d="M1028.9,599.5v19.8
		c0,8.2-52.8,11.5-52.8,13.2v-19.8c0-0.5,5.4-1.2,12.8-2.2c2.5-0.3,5.2-0.7,8-1.1C1011.7,607.3,1028.9,604.2,1028.9,599.5z"/>
	<path class="st4" d="M1517.5,323.1v19.8c0,1.2-1.1,2.3-3,3.3c1.9,1,3,2.1,3,3.3v19.8c0,1.2-1.1,2.3-3,3.3c0.2,0.1,0.5,0.3,0.7,0.4
		c1.5,0.9,2.3,1.9,2.3,2.9v19.8c0,8.2-52.8,11.6-52.8,13.2v-19.8c0-0.7,9.7-1.7,20.8-3.3c-11.1-1.6-20.8-2.6-20.8-3.3v-19.8
		c0-0.5,5.3-1.2,12.6-2.2l0,0l3.8-1.7c-9.2-1.2-16.4-2.1-16.4-2.7v-19.8C1464.6,334.6,1517.5,331.3,1517.5,323.1z"/>
	<path class="st5" d="M1517.5,375.9v6.6c0,2.7-5.6,4.9-13.2,6.6c-5.4-1.2-11.8-2.3-17.9-3.2c-0.3,0-0.6-0.1-0.9-0.1
		c-11.1-1.6-20.8-2.6-20.8-3.3v-6.6c0-1.1,24-3,39.7-6.6c4.2,1,7.8,2.1,10.1,3.3c0.2,0.1,0.5,0.3,0.7,0.4
		C1516.6,373.9,1517.5,374.8,1517.5,375.9z"/>
	<path class="st5" d="M1517.5,349.5v6.6c0,2.7-5.6,4.8-13.2,6.6c-5.7-1.3-12.5-2.4-18.8-3.3c-1.5-0.2-3-0.4-4.4-0.6
		c-9.2-1.2-16.4-2.1-16.4-2.7v-6.6c0-1.1,24-3,39.7-6.6c2.8,0.6,5.3,1.3,7.3,2.1c1,0.4,2,0.8,2.8,1.2
		C1516.3,347.2,1517.5,348.3,1517.5,349.5z"/>
	
		<linearGradient id="SVGID_00000016051417656387754700000007674329314588354968_" gradientUnits="userSpaceOnUse" x1="1464.64" y1="710" x2="1517.4401" y2="710" gradientTransform="matrix(1 0 0 -1 0 1076)">
		<stop  offset="0" style="stop-color:#E32D2B"/>
		<stop  offset="9.212934e-03" style="stop-color:#E32D2B"/>
		<stop  offset="9.252559e-02" style="stop-color:#E12E2C"/>
		<stop  offset="0.4187" style="stop-color:#DD302E"/>
		<stop  offset="0.8091" style="stop-color:#DE3D3B"/>
		<stop  offset="1" style="stop-color:#E3322F"/>
	</linearGradient>
	<path style="fill:url(#SVGID_00000016051417656387754700000007674329314588354968_);" d="M1517.5,349.5v19.8c0,1.2-1.1,2.3-3,3.3
		c-11.2,5.9-49.8,8.5-49.8,9.9v-19.8c0-0.5,5.3-1.2,12.6-2.2l0,0c2.6-0.3,5.4-0.7,8.2-1.1C1500.2,357.3,1517.5,354.2,1517.5,349.5z"
		/>
	
		<linearGradient id="SVGID_00000137839811864033401160000008835485391579804857_" gradientUnits="userSpaceOnUse" x1="1464.64" y1="736.4" x2="1517.4401" y2="736.4" gradientTransform="matrix(1 0 0 -1 0 1076)">
		<stop  offset="0" style="stop-color:#E32D2B"/>
		<stop  offset="9.212934e-03" style="stop-color:#E32D2B"/>
		<stop  offset="9.252559e-02" style="stop-color:#E12E2C"/>
		<stop  offset="0.4187" style="stop-color:#DD302E"/>
		<stop  offset="0.8091" style="stop-color:#DE3D3B"/>
		<stop  offset="1" style="stop-color:#E3322F"/>
	</linearGradient>
	<path style="fill:url(#SVGID_00000137839811864033401160000008835485391579804857_);" d="M1517.5,323.1v19.8c0,1.2-1.1,2.3-3,3.3
		c-3.3,1.7-8.8,3.1-15.1,4.3l0,0c-15.3,2.9-34.7,4.6-34.7,5.6v-19.8C1464.6,334.6,1517.5,331.3,1517.5,323.1z"/>
	
		<linearGradient id="SVGID_00000085948146073053645580000002433302716788505534_" gradientUnits="userSpaceOnUse" x1="1464.64" y1="683.6" x2="1517.4401" y2="683.6" gradientTransform="matrix(1 0 0 -1 0 1076)">
		<stop  offset="0" style="stop-color:#E32D2B"/>
		<stop  offset="9.212934e-03" style="stop-color:#E32D2B"/>
		<stop  offset="9.252559e-02" style="stop-color:#E12E2C"/>
		<stop  offset="0.4187" style="stop-color:#DD302E"/>
		<stop  offset="0.8091" style="stop-color:#DE3D3B"/>
		<stop  offset="1" style="stop-color:#E3322F"/>
	</linearGradient>
	<path style="fill:url(#SVGID_00000085948146073053645580000002433302716788505534_);" d="M1517.5,375.9v19.8
		c0,8.2-52.8,11.6-52.8,13.2v-19.8c0-0.7,9.7-1.7,20.8-3.3c0.6-0.1,1.2-0.2,1.8-0.3C1501.6,383.5,1517.5,380.4,1517.5,375.9z"/>
	<path class="st4" d="M1191.8,476.5v19.8c0,1.2-1.1,2.3-3,3.3c1.9,1,3,2.1,3,3.3v19.8c0,1.2-1.1,2.3-3.1,3.3c1.9,1,3.1,2.1,3.1,3.3
		v19.8c0,8.2-52.8,11.5-52.8,13.2v-19.8c0-0.2,0.7-0.4,2-0.6l0,0c3.4-0.7,10.8-1.5,18.8-2.6c-3.6-0.5-7-1-10-1.4
		c-6.4-0.8-10.9-1.5-10.9-2v-19.8c0-0.7,9.7-1.7,20.9-3.3c-5.9-0.9-11.5-1.5-15.4-2.1c-3.4-0.5-5.5-0.9-5.5-1.2v-19.8
		C1138.9,488.1,1191.8,484.8,1191.8,476.5z"/>
	<path class="st5" d="M1191.8,529.3v6.6c0,2.7-5.6,4.9-13.2,6.6c-5.7-1.3-12.5-2.4-18.8-3.3c-3.6-0.5-7-1-10-1.4
		c-6.4-0.8-10.9-1.5-10.9-2v-6.6c0-1.1,24-3,39.7-6.6c1.1,0.2,2.1,0.5,3.1,0.8c2.8,0.8,5.3,1.6,7,2.5
		C1190.6,527,1191.8,528.1,1191.8,529.3z"/>
	<path class="st5" d="M1191.8,502.9v6.6c0,2.7-5.6,4.8-13.2,6.6c-5.7-1.3-12.5-2.4-18.8-3.3c-5.9-0.9-11.5-1.5-15.4-2.1
		c-3.4-0.5-5.5-0.9-5.5-1.2v-6.6c0-1,20-2.6,35.4-5.7c1.5-0.3,2.9-0.6,4.2-0.9c4.2,1,7.8,2.1,10.1,3.3
		C1190.6,500.6,1191.8,501.7,1191.8,502.9z"/>
	
		<linearGradient id="SVGID_00000033337975375197653910000002758575308464108472_" gradientUnits="userSpaceOnUse" x1="1138.9" y1="556.65" x2="1191.7301" y2="556.65" gradientTransform="matrix(1 0 0 -1 0 1076)">
		<stop  offset="0" style="stop-color:#E32D2B"/>
		<stop  offset="9.212934e-03" style="stop-color:#E32D2B"/>
		<stop  offset="9.252559e-02" style="stop-color:#E12E2C"/>
		<stop  offset="0.4187" style="stop-color:#DD302E"/>
		<stop  offset="0.8091" style="stop-color:#DE3D3B"/>
		<stop  offset="1" style="stop-color:#E3322F"/>
	</linearGradient>
	<path style="fill:url(#SVGID_00000033337975375197653910000002758575308464108472_);" d="M1191.8,502.9v19.8c0,1.2-1.1,2.3-3.1,3.3
		c-5.2,2.7-16.2,4.7-26.5,6.2l0,0c-12.1,1.8-23.3,2.9-23.3,3.6V516c0-0.7,9.7-1.7,20.9-3.3C1174.6,510.7,1191.8,507.6,1191.8,502.9z
		"/>
	
		<linearGradient id="SVGID_00000018203295077978400500000008320271202970559150_" gradientUnits="userSpaceOnUse" x1="1138.9199" y1="583" x2="1191.72" y2="583" gradientTransform="matrix(1 0 0 -1 0 1076)">
		<stop  offset="0" style="stop-color:#E32D2B"/>
		<stop  offset="9.212934e-03" style="stop-color:#E32D2B"/>
		<stop  offset="9.252559e-02" style="stop-color:#E12E2C"/>
		<stop  offset="0.4187" style="stop-color:#DD302E"/>
		<stop  offset="0.8091" style="stop-color:#DE3D3B"/>
		<stop  offset="1" style="stop-color:#E3322F"/>
	</linearGradient>
	<path style="fill:url(#SVGID_00000018203295077978400500000008320271202970559150_);" d="M1191.8,476.5v19.8c0,1.2-1.1,2.3-3,3.3
		c-6.9,3.7-24.4,6-36.6,7.7l0,0c-7.6,1-13.2,1.7-13.2,2.2v-19.8C1138.9,488.1,1191.8,484.8,1191.8,476.5z"/>
	
		<linearGradient id="SVGID_00000119104146564771022820000014156740490944568214_" gradientUnits="userSpaceOnUse" x1="1138.9199" y1="530.2" x2="1191.72" y2="530.2" gradientTransform="matrix(1 0 0 -1 0 1076)">
		<stop  offset="0" style="stop-color:#E32D2B"/>
		<stop  offset="9.212934e-03" style="stop-color:#E32D2B"/>
		<stop  offset="9.252559e-02" style="stop-color:#E12E2C"/>
		<stop  offset="0.4187" style="stop-color:#DD302E"/>
		<stop  offset="0.8091" style="stop-color:#DE3D3B"/>
		<stop  offset="1" style="stop-color:#E3322F"/>
	</linearGradient>
	<path style="fill:url(#SVGID_00000119104146564771022820000014156740490944568214_);" d="M1191.8,529.3v19.8
		c0,8.2-52.8,11.5-52.8,13.2v-19.8c0-0.2,0.7-0.4,2-0.6l0,0c3.4-0.7,10.8-1.5,18.8-2.6C1174.5,537.1,1191.8,534,1191.8,529.3z"/>
	<polygon class="st4" points="640.1,785.5 642.2,786.4 640.1,786.4 	"/>
	<path class="st4" d="M700.1,712.5c1.9,1,3,2.1,3,3.3v19.8c0,1.2-1.1,2.3-3,3.3c0.7,0.4,1.3,0.7,1.7,1.1c0.8,0.7,1.3,1.4,1.3,2.2
		V762c0,8.3-52.8,11.6-52.8,13.2v-19.8c0-0.7,9.7-1.7,20.9-3.3c-11.1-1.6-20.9-2.6-20.9-3.3V729c0-0.6,7.2-1.4,16.3-2.7l0,0l2.1-0.9
		c-10.1-1.4-18.5-2.3-18.5-3v-19.8c0-1.6,47.2-4.6,52.4-11.9h0.5v18.5c0,0.2,0,0.5-0.1,0.7C702.7,710.9,701.7,711.7,700.1,712.5z"/>
	<path class="st5" d="M703.2,742.2v6.6c0,2.7-5.6,4.9-13.2,6.6c-4.8-1.1-10.4-2.1-15.9-2.9c-1-0.1-2-0.3-2.9-0.4
		c-11.1-1.6-20.9-2.6-20.9-3.3v-6.6c0-1.1,24-3,39.7-6.6c4.2,1,7.8,2.1,10.1,3.3c0.7,0.4,1.3,0.7,1.7,1.1
		C702.7,740.8,703.2,741.5,703.2,742.2z"/>
	<path class="st5" d="M703.2,715.8v6.6c0,2.7-5.6,4.9-13.2,6.6c-5.7-1.3-12.5-2.4-18.8-3.3c-0.8-0.1-1.6-0.2-2.4-0.3
		c-10.1-1.4-18.5-2.3-18.5-3v-6.6c0-1.1,24-3,39.7-6.6c3.4,0.8,6.5,1.7,8.8,2.7c0.5,0.2,1,0.4,1.4,0.6
		C702.1,713.5,703.2,714.6,703.2,715.8z"/>
	
		<linearGradient id="SVGID_00000111895128438083450650000002911157645565634449_" gradientUnits="userSpaceOnUse" x1="650.4" y1="343.7" x2="703.2" y2="343.7" gradientTransform="matrix(1 0 0 -1 0 1076)">
		<stop  offset="0" style="stop-color:#E32D2B"/>
		<stop  offset="9.212934e-03" style="stop-color:#E32D2B"/>
		<stop  offset="9.252559e-02" style="stop-color:#E12E2C"/>
		<stop  offset="0.4187" style="stop-color:#DD302E"/>
		<stop  offset="0.8091" style="stop-color:#DE3D3B"/>
		<stop  offset="1" style="stop-color:#E3322F"/>
	</linearGradient>
	<path style="fill:url(#SVGID_00000111895128438083450650000002911157645565634449_);" d="M703.2,715.8v19.8c0,1.2-1.1,2.3-3,3.3
		c-11.2,5.9-49.8,8.5-49.8,9.9V729c0-0.6,7.2-1.4,16.3-2.7l0,0c1.5-0.2,3-0.4,4.5-0.6C686,723.6,703.2,720.5,703.2,715.8z"/>
	
		<linearGradient id="SVGID_00000026156071531025411200000009274233413184413323_" gradientUnits="userSpaceOnUse" x1="650.4" y1="370.1" x2="703.2" y2="370.1" gradientTransform="matrix(1 0 0 -1 0 1076)">
		<stop  offset="0" style="stop-color:#E32D2B"/>
		<stop  offset="9.212934e-03" style="stop-color:#E32D2B"/>
		<stop  offset="9.252559e-02" style="stop-color:#E12E2C"/>
		<stop  offset="0.4187" style="stop-color:#DD302E"/>
		<stop  offset="0.8091" style="stop-color:#DE3D3B"/>
		<stop  offset="1" style="stop-color:#E3322F"/>
	</linearGradient>
	<path style="fill:url(#SVGID_00000026156071531025411200000009274233413184413323_);" d="M703.2,689.4v19.8c0,0.2,0,0.5-0.1,0.7
		c-0.3,0.9-1.4,1.8-2.9,2.6c-2.4,1.2-5.9,2.3-10.1,3.3l0,0c-15.7,3.6-39.7,5.5-39.7,6.6v-19.8c0-1.6,47.2-4.6,52.4-11.9
		C703,690.3,703.2,689.9,703.2,689.4z"/>
	
		<linearGradient id="SVGID_00000026844569678666266760000015230504757612430213_" gradientUnits="userSpaceOnUse" x1="650.4" y1="317.3" x2="703.2" y2="317.3" gradientTransform="matrix(1 0 0 -1 0 1076)">
		<stop  offset="0" style="stop-color:#E32D2B"/>
		<stop  offset="9.212934e-03" style="stop-color:#E32D2B"/>
		<stop  offset="9.252559e-02" style="stop-color:#E12E2C"/>
		<stop  offset="0.4187" style="stop-color:#DD302E"/>
		<stop  offset="0.8091" style="stop-color:#DE3D3B"/>
		<stop  offset="1" style="stop-color:#E3322F"/>
	</linearGradient>
	<path style="fill:url(#SVGID_00000026844569678666266760000015230504757612430213_);" d="M703.2,742.2V762
		c0,8.3-52.8,11.6-52.8,13.2v-19.8c0-0.7,9.7-1.7,20.9-3.3c1.9-0.3,3.9-0.6,5.8-0.9l0,0C690.2,749.2,703.2,746.3,703.2,742.2z"/>
	<path class="st4" d="M527.5,774.8v19.8c0,1.2-1.1,2.3-3,3.3c1.9,1,3,2.1,3,3.3V821c0,1.2-1.1,2.3-3,3.3c1.9,1,3,2.1,3,3.3v19.8
		c0,8.2-52.8,11.5-52.8,13.2v-19.8c0-0.4,2.9-0.9,7.3-1.5l0,0c3.7-0.5,8.5-1.1,13.5-1.8c-2.5-0.4-5-0.7-7.3-1
		c-7.8-1-13.6-1.8-13.6-2.3v-19.8c0-0.7,9.7-1.7,20.8-3.3c-4.7-0.7-9.1-1.2-12.7-1.7l0,0c-4.9-0.7-8.1-1.2-8.1-1.6V788
		C474.6,786.3,527.5,783,527.5,774.8z"/>
	<path class="st4" d="M537.6,844l0.1-0.2L537.6,844C537.7,844.1,537.6,844.1,537.6,844z"/>
	<path class="st5" d="M527.5,827.6v6.6c0,2.7-5.6,4.8-13.2,6.6c-5.7-1.3-12.5-2.4-18.8-3.3c-2.5-0.4-5-0.7-7.3-1
		c-7.8-1-13.6-1.8-13.6-2.3v-6.6c0-1.1,24-3,39.7-6.6c1.9,0.4,3.6,0.9,5.2,1.4c1.9,0.6,3.6,1.2,4.9,1.9
		C526.3,825.3,527.5,826.4,527.5,827.6z"/>
	<path class="st5" d="M527.5,801.2v6.6c0,2.7-5.6,4.8-13.2,6.6c-5.7-1.3-12.5-2.4-18.8-3.3c-4.7-0.7-9.1-1.2-12.7-1.7l0,0
		c-4.9-0.7-8.1-1.2-8.1-1.6v-6.6c0-1.1,24-3,39.7-6.6c0.3,0.1,0.6,0.1,0.8,0.2c3.8,0.9,7.1,1.9,9.3,3.1
		C526.3,798.9,527.5,800,527.5,801.2z"/>
	
		<linearGradient id="SVGID_00000142173971273782638890000001755042846388255643_" gradientUnits="userSpaceOnUse" x1="474.64" y1="258.3" x2="527.47" y2="258.3" gradientTransform="matrix(1 0 0 -1 0 1076)">
		<stop  offset="0" style="stop-color:#E32D2B"/>
		<stop  offset="9.212934e-03" style="stop-color:#E32D2B"/>
		<stop  offset="9.252559e-02" style="stop-color:#E12E2C"/>
		<stop  offset="0.4187" style="stop-color:#DD302E"/>
		<stop  offset="0.8091" style="stop-color:#DE3D3B"/>
		<stop  offset="1" style="stop-color:#E3322F"/>
	</linearGradient>
	<path style="fill:url(#SVGID_00000142173971273782638890000001755042846388255643_);" d="M527.5,801.2V821c0,1.2-1.1,2.3-3,3.3
		c-4.3,2.3-12.6,4-21.1,5.4l0,0c-13.9,2.3-28.6,3.6-28.6,4.5v-19.8c0-0.7,9.7-1.7,20.8-3.3C510.2,809,527.5,805.9,527.5,801.2z"/>
	
		<linearGradient id="SVGID_00000000182901961962080800000001774221893216225459_" gradientUnits="userSpaceOnUse" x1="474.64" y1="284.7" x2="527.47" y2="284.7" gradientTransform="matrix(1 0 0 -1 0 1076)">
		<stop  offset="0" style="stop-color:#E32D2B"/>
		<stop  offset="9.212934e-03" style="stop-color:#E32D2B"/>
		<stop  offset="9.252559e-02" style="stop-color:#E12E2C"/>
		<stop  offset="0.4187" style="stop-color:#DD302E"/>
		<stop  offset="0.8091" style="stop-color:#DE3D3B"/>
		<stop  offset="1" style="stop-color:#E3322F"/>
	</linearGradient>
	<path style="fill:url(#SVGID_00000000182901961962080800000001774221893216225459_);" d="M527.5,774.8v19.8c0,1.2-1.1,2.3-3,3.3
		c-6.1,3.2-20,5.4-31.6,7l0,0c-9.9,1.4-18.1,2.3-18.1,2.9V788C474.6,786.3,527.5,783,527.5,774.8z"/>
	
		<linearGradient id="SVGID_00000047774603040646469780000014925414537107424426_" gradientUnits="userSpaceOnUse" x1="474.64" y1="231.9" x2="527.44" y2="231.9" gradientTransform="matrix(1 0 0 -1 0 1076)">
		<stop  offset="0" style="stop-color:#E32D2B"/>
		<stop  offset="9.212934e-03" style="stop-color:#E32D2B"/>
		<stop  offset="9.252559e-02" style="stop-color:#E12E2C"/>
		<stop  offset="0.4187" style="stop-color:#DD302E"/>
		<stop  offset="0.8091" style="stop-color:#DE3D3B"/>
		<stop  offset="1" style="stop-color:#E3322F"/>
	</linearGradient>
	<path style="fill:url(#SVGID_00000047774603040646469780000014925414537107424426_);" d="M527.5,827.6v19.8
		c0,8.2-52.8,11.5-52.8,13.2v-19.8c0-0.4,2.9-0.9,7.3-1.5l0,0c3.7-0.5,8.5-1.1,13.5-1.8C510.2,835.4,527.5,832.3,527.5,827.6z"/>
	<path class="st4" d="M377.5,842v19.8c0,1.2-1.1,2.3-3,3.3c1.9,1,3,2.1,3,3.3v19.8c0,1.2-1.1,2.3-3,3.3c1.9,1,3,2.1,3,3.3v19.8
		c0,8.3-52.8,11.6-52.8,13.2V908c0-0.4,3.5-1,8.7-1.7l0,0c3.5-0.5,7.7-1,12.1-1.6c-2.2-0.3-4.4-0.6-6.5-0.9
		c-8.1-1.1-14.3-1.8-14.3-2.4v-19.8c0-0.7,9.7-1.7,20.8-3.3c-4.4-0.6-8.5-1.2-11.9-1.6c-5.3-0.7-8.9-1.3-8.9-1.7v-19.8
		C324.6,853.6,377.5,850.3,377.5,842z"/>
	<path class="st4" d="M387.5,911.2l0.3-0.5v0.7C387.6,911.3,387.5,911.3,387.5,911.2z"/>
	<path class="st5" d="M377.5,894.9v6.6c0,2.7-5.6,4.8-13.2,6.6c-5.7-1.3-12.5-2.4-18.8-3.3c-2.2-0.3-4.4-0.6-6.5-0.9
		c-8.1-1.1-14.3-1.8-14.3-2.4v-6.6c0-1.1,24-3,39.7-6.6c2.1,0.5,4.1,1,5.8,1.6c1.7,0.5,3.2,1.1,4.3,1.7
		C376.3,892.6,377.5,893.7,377.5,894.9z"/>
	<path class="st5" d="M377.5,868.4v6.6c0,2.7-5.6,4.9-13.2,6.6c-5.7-1.3-12.5-2.4-18.8-3.3l0,0c-4.4-0.6-8.5-1.2-11.9-1.6
		c-5.3-0.7-8.9-1.3-8.9-1.7v-6.6c0-1.1,24-3,39.7-6.6c0.5,0.1,1,0.2,1.5,0.3c3.5,0.9,6.6,1.9,8.7,3
		C376.3,866.1,377.5,867.2,377.5,868.4z"/>
	
		<linearGradient id="SVGID_00000035505346666566485160000008581818290924027317_" gradientUnits="userSpaceOnUse" x1="324.64" y1="191.1" x2="377.44" y2="191.1" gradientTransform="matrix(1 0 0 -1 0 1076)">
		<stop  offset="0" style="stop-color:#E32D2B"/>
		<stop  offset="9.212934e-03" style="stop-color:#E32D2B"/>
		<stop  offset="9.252559e-02" style="stop-color:#E12E2C"/>
		<stop  offset="0.4187" style="stop-color:#DD302E"/>
		<stop  offset="0.8091" style="stop-color:#DE3D3B"/>
		<stop  offset="1" style="stop-color:#E3322F"/>
	</linearGradient>
	<path style="fill:url(#SVGID_00000035505346666566485160000008581818290924027317_);" d="M377.5,868.4v19.8c0,1.2-1.1,2.3-3,3.3
		c-4,2.1-11.6,3.8-19.6,5.2c-14.3,2.4-30.2,3.8-30.2,4.7v-19.8c0-0.7,9.7-1.7,20.8-3.3l0,0C360.3,876.3,377.5,873.2,377.5,868.4z"/>
	
		<linearGradient id="SVGID_00000145018278437916773250000004375405455497208193_" gradientUnits="userSpaceOnUse" x1="324.64" y1="217.5" x2="377.4402" y2="217.5" gradientTransform="matrix(1 0 0 -1 0 1076)">
		<stop  offset="0" style="stop-color:#E32D2B"/>
		<stop  offset="9.212934e-03" style="stop-color:#E32D2B"/>
		<stop  offset="9.252559e-02" style="stop-color:#E12E2C"/>
		<stop  offset="0.4187" style="stop-color:#DD302E"/>
		<stop  offset="0.8091" style="stop-color:#DE3D3B"/>
		<stop  offset="1" style="stop-color:#E3322F"/>
	</linearGradient>
	<path style="fill:url(#SVGID_00000145018278437916773250000004375405455497208193_);" d="M377.5,842v19.8c0,1.2-1.1,2.3-3,3.3
		c-5.8,3-18.9,5.2-30.2,6.8c-10.6,1.5-19.6,2.4-19.6,3.1v-19.8C324.6,853.6,377.5,850.3,377.5,842z"/>
	
		<linearGradient id="SVGID_00000164498581949655819250000004813726425766403725_" gradientUnits="userSpaceOnUse" x1="324.64" y1="164.6" x2="377.44" y2="164.6" gradientTransform="matrix(1 0 0 -1 0 1076)">
		<stop  offset="0" style="stop-color:#E32D2B"/>
		<stop  offset="9.212934e-03" style="stop-color:#E32D2B"/>
		<stop  offset="9.252559e-02" style="stop-color:#E12E2C"/>
		<stop  offset="0.4187" style="stop-color:#DD302E"/>
		<stop  offset="0.8091" style="stop-color:#DE3D3B"/>
		<stop  offset="1" style="stop-color:#E3322F"/>
	</linearGradient>
	<path style="fill:url(#SVGID_00000164498581949655819250000004813726425766403725_);" d="M377.5,894.9v19.8
		c0,8.3-52.8,11.6-52.8,13.2v-19.8c0-0.4,3.5-1,8.7-1.7l0,0c3.5-0.5,7.7-1,12.1-1.6C360.3,902.7,377.5,899.6,377.5,894.9z"/>
	<path class="st24" d="M1342.3,104.1V396l-28.2,4.4V104.1c0,0,1.8,3.2,4.7,3.2c1.4,0,2.6-1.6,3.7-3.2c1.2-1.6,2.3-3.3,3.9-3.4
		c1.4-0.1,2.7,1.5,4,3.4c1.7,2.4,3.4,5.1,5.3,5.1C1339.1,109.3,1342.3,104.1,1342.3,104.1z"/>
	<path class="st24" d="M1314.1,412.1c8.5-1.1,19.7-2.6,28.2-4.7v43h-28.2v-12c2.6-0.3,5.5-0.7,8.5-1.2c-0.3,0-0.6-0.1-0.8-0.1
		c-1.7-0.2-3.4-0.5-5-0.7c-0.9-0.1-1.9-0.2-2.8-0.4v-23.9H1314.1z"/>
	<polygon class="st24" points="872.6,221 806.6,221 806.6,240.7 825.5,240.7 825.5,620.6 853.7,616.2 853.7,240.7 872.6,240.7 	"/>
	<path d="M94,659.5h6c0.6,0,1-0.4,1-1s-0.4-1-1-1h-6c-0.6,0-1,0.4-1,1C93,659,93.5,659.5,94,659.5L94,659.5z"/>
	<path d="M123.7,657.5h-11.8c-0.6,0-1,0.5-1,1s0.4,1,1,1h11.8c0.5,0,1-0.5,1-1S124.2,657.5,123.7,657.5z M147.4,657.5h-11.8
		c-0.6,0-1,0.5-1,1v0.1c0,0.5,0.5,0.9,1,0.9h11.8c0.5,0,0.9-0.4,1-0.9v-0.1C148.4,657.9,147.9,657.5,147.4,657.5z M171,657.5h-11.8
		c-0.5,0-1,0.5-1,1v0.1c0,0.5,0.5,0.9,1,0.9H171c0.5,0,0.9-0.4,1-0.9v-0.1C172,657.9,171.6,657.5,171,657.5z M194.7,657.5h-11.8
		c-0.6,0-1,0.5-1,1v0.1c0,0.5,0.5,0.9,1,0.9h11.8c0.5,0,0.9-0.4,1-0.9v-0.1C195.7,657.9,195.3,657.5,194.7,657.5z M218.4,657.5
		h-11.8c-0.5,0-1,0.5-1,1v0.1c0,0.5,0.5,0.9,1,0.9h11.8c0.5,0,0.9-0.4,1-0.9v-0.1C219.4,657.9,218.9,657.5,218.4,657.5z
		 M242.1,657.5h-11.8c-0.5,0-1,0.5-1,1v0.1c0,0.5,0.5,0.9,1,0.9h11.8c0.5,0,0.9-0.4,1-0.9v-0.1C243.1,657.9,242.6,657.5,242.1,657.5
		z M265.8,657.5H254c-0.5,0-1,0.5-1,1v0.1c0,0.5,0.5,0.9,1,0.9h11.8c0.5,0,0.9-0.4,1-0.9v-0.1C266.8,657.9,266.3,657.5,265.8,657.5z
		 M289.4,657.5h-11.8c-0.6,0-1,0.5-1,1v0.1c0.1,0.5,0.5,0.9,1,0.9h11.8c0.5,0,0.9-0.4,1-0.9v-0.1C290.4,657.9,290,657.5,289.4,657.5
		z M313.1,657.5h-11.8c-0.5,0-1,0.5-1,1v0.1c0,0.5,0.5,0.9,1,0.9h11.8c0.5,0,0.9-0.4,1-0.9v-0.1
		C314.1,657.9,313.7,657.5,313.1,657.5z M336.8,657.5H325c-0.5,0-1,0.5-1,1v0.1c0,0.5,0.5,0.9,1,0.9h11.8c0.5,0,0.9-0.4,1-0.9v-0.1
		C337.8,657.9,337.3,657.5,336.8,657.5z M360.5,657.5h-11.8c-0.5,0-1,0.5-1,1v0.1c0,0.5,0.5,0.9,1,0.9h11.8c0.5,0,0.9-0.4,1-0.9
		v-0.1C361.5,657.9,361,657.5,360.5,657.5z M384.1,657.5h-11.8c-0.5,0-1,0.5-1,1v0.1c0,0.5,0.5,0.9,1,0.9h11.8c0.5,0,0.9-0.4,1-0.9
		v-0.1C385.1,657.9,384.7,657.5,384.1,657.5z M407.8,657.5H396c-0.6,0-1,0.5-1,1v0.1c0,0.5,0.5,0.9,1,0.9h11.8c0.5,0,0.9-0.4,1-0.9
		v-0.1C408.8,657.9,408.4,657.5,407.8,657.5z M431.5,657.5h-11.8c-0.6,0-1,0.5-1,1v0.1c0.1,0.5,0.5,0.9,1,0.9h11.8
		c0.5,0,0.9-0.4,1-0.9v-0.1C432.5,657.9,432,657.5,431.5,657.5z M455.2,657.5h-11.8c-0.5,0-1,0.5-1,1v0.1c0,0.5,0.5,0.9,1,0.9h11.8
		c0.5,0,0.9-0.4,1-0.9v-0.1C456.2,657.9,455.7,657.5,455.2,657.5z M478.8,657.5H467c-0.5,0-1,0.5-1,1v0.1c0,0.5,0.5,0.9,1,0.9h11.8
		c0.5,0,0.9-0.4,1-0.9v-0.1C479.8,657.9,479.4,657.5,478.8,657.5z M502.5,657.5h-11.8c-0.6,0-1,0.5-1,1v0.1c0,0.5,0.5,0.9,1,0.9
		h11.8c0.5,0,0.9-0.4,1-0.9v-0.1C503.5,657.9,503.1,657.5,502.5,657.5z M526.2,657.5h-11.8c-0.5,0-1,0.5-1,1v0.1
		c0,0.5,0.5,0.9,1,0.9h11.8c0.5,0,0.9-0.4,1-0.9v-0.1C527.2,657.9,526.8,657.5,526.2,657.5z M549.9,657.5H538c-0.5,0-1,0.5-1,1v0.1
		c0,0.5,0.5,0.9,1,0.9h11.8c0.5,0,0.9-0.4,1-0.9v-0.1C550.9,657.9,550.4,657.5,549.9,657.5z M573.6,657.5h-11.8c-0.5,0-1,0.5-1,1
		v0.1c0.1,0.5,0.5,0.9,1,0.9h11.8c0.5,0,0.9-0.4,1-0.9v-0.1C574.6,657.9,574.1,657.5,573.6,657.5z M597.2,657.5h-11.8
		c-0.6,0-1,0.5-1,1v0.1c0.1,0.5,0.5,0.9,1,0.9h11.8c0.5,0,0.9-0.4,1-0.9v-0.1C598.2,657.9,597.8,657.5,597.2,657.5z M620.9,657.5
		h-11.8c-0.6,0-1,0.5-1,1v0.1c0,0.5,0.5,0.9,1,0.9h11.8c0.5,0,0.9-0.4,1-0.9v-0.1C621.9,657.9,621.5,657.5,620.9,657.5z
		 M644.6,657.5h-11.8c-0.5,0-1,0.5-1,1v0.1c0,0.5,0.5,0.9,1,0.9h11.8c0.5,0,0.9-0.4,1-0.9v-0.1C645.6,657.9,645.1,657.5,644.6,657.5
		z M668.3,657.5h-11.8c-0.5,0-1,0.5-1,1v0.1c0,0.5,0.5,0.9,1,0.9h11.8c0.5,0,0.9-0.4,1-0.9v-0.1
		C669.3,657.9,668.8,657.5,668.3,657.5z M692,657.5h-11.8c-0.5,0-1,0.5-1,1v0.1c0,0.5,0.5,0.9,1,0.9H692c0.5,0,0.9-0.4,1-0.9v-0.1
		C693,657.9,692.5,657.5,692,657.5z M715.6,657.5h-11.8c-0.6,0-1,0.5-1,1v0.1c0,0.5,0.5,0.9,1,0.9h11.8c0.5,0,0.9-0.4,1-0.9v-0.1
		C716.6,657.9,716.2,657.5,715.6,657.5z M739.3,657.5h-11.8c-0.6,0-1,0.5-1,1v0.1c0.1,0.5,0.5,0.9,1,0.9h11.8c0.5,0,0.9-0.4,1-0.9
		v-0.1C740.3,657.9,739.9,657.5,739.3,657.5z M763,657.5h-11.8c-0.5,0-1,0.5-1,1v0.1c0,0.5,0.5,0.9,1,0.9H763c0.5,0,0.9-0.4,1-0.9
		v-0.1C764,657.9,763.5,657.5,763,657.5z M786.7,657.5h-11.8c-0.5,0-1,0.5-1,1v0.1c0,0.5,0.5,0.9,1,0.9h11.8c0.5,0,0.9-0.4,1-0.9
		v-0.1C787.7,657.9,787.2,657.5,786.7,657.5z"/>
	<path d="M803,657.5v2h-4.5c-0.5,0-0.9-0.4-1-0.9v-0.1c0-0.5,0.5-1,1-1H803z"/>
	<path d="M387.7,231.9h6c0.6,0,1-0.4,1-1s-0.4-1-1-1h-6c-0.6,0-1,0.4-1,1C386.7,231.4,387.2,231.9,387.7,231.9L387.7,231.9z"/>
	<path d="M418.4,229.9H406c-0.5,0-1,0.4-1,1c0,0.5,0.5,1,1,1h12.3c0.5,0,1-0.5,1-1C419.4,230.3,418.9,229.9,418.4,229.9z M443,229.9
		h-12.3c-0.5,0-1,0.4-1,1v0.1c0,0.5,0.5,0.9,1,0.9H443c0.5,0,0.9-0.4,1-0.9v-0.1C444,230.3,443.6,229.9,443,229.9z M467.7,229.9
		h-12.3c-0.5,0-1,0.4-1,1v0.1c0,0.5,0.5,0.9,1,0.9h12.3c0.5,0,0.9-0.4,1-0.9v-0.1C468.7,230.3,468.2,229.9,467.7,229.9z
		 M492.4,229.9H480c-0.6,0-1,0.4-1,1v0.1c0.1,0.5,0.5,0.9,1,0.9h12.3c0.5,0,0.9-0.4,1-0.9v-0.1C493.4,230.3,492.9,229.9,492.4,229.9
		z M517,229.9h-12.3c-0.6,0-1,0.4-1,1v0.1c0,0.5,0.5,0.9,1,0.9H517c0.5,0,0.9-0.4,1-0.9v-0.1C518,230.3,517.6,229.9,517,229.9z
		 M541.7,229.9h-12.3c-0.5,0-1,0.4-1,1v0.1c0,0.5,0.5,0.9,1,0.9h12.3c0.5,0,0.9-0.4,1-0.9v-0.1C542.7,230.3,542.2,229.9,541.7,229.9
		z M566.3,229.9H554c-0.5,0-1,0.4-1,1v0.1c0,0.5,0.5,0.9,1,0.9h12.3c0.5,0,0.9-0.4,1-0.9v-0.1C567.3,230.3,566.9,229.9,566.3,229.9z
		 M591,229.9h-12.3c-0.5,0-1,0.4-1,1v0.1c0,0.5,0.5,0.9,1,0.9H591c0.5,0,0.9-0.4,1-0.9v-0.1C592,230.3,591.6,229.9,591,229.9z
		 M615.7,229.9h-12.3c-0.5,0-1,0.4-1,1v0.1c0,0.5,0.5,0.9,1,0.9h12.3c0.5,0,0.9-0.4,1-0.9v-0.1C616.7,230.3,616.2,229.9,615.7,229.9
		z M640.3,229.9H628c-0.6,0-1,0.4-1,1v0.1c0,0.5,0.5,0.9,1,0.9h12.3c0.5,0,0.9-0.4,1-0.9v-0.1C641.3,230.3,640.9,229.9,640.3,229.9z
		 M665,229.9h-12.3c-0.5,0-1,0.4-1,1v0.1c0,0.5,0.5,0.9,1,0.9H665c0.5,0,0.9-0.4,1-0.9v-0.1C666,230.3,665.5,229.9,665,229.9z
		 M689.7,229.9h-12.3c-0.5,0-1,0.4-1,1v0.1c0,0.5,0.5,0.9,1,0.9h12.3c0.5,0,0.9-0.4,1-0.9v-0.1C690.7,230.3,690.2,229.9,689.7,229.9
		z M714.3,229.9H702c-0.5,0-1,0.4-1,1v0.1c0,0.5,0.5,0.9,1,0.9h12.3c0.5,0,0.9-0.4,1-0.9v-0.1C715.3,230.3,714.9,229.9,714.3,229.9z
		 M739,229.9h-12.3c-0.5,0-1,0.4-1,1v0.1c0,0.5,0.5,0.9,1,0.9H739c0.5,0,0.9-0.4,1-0.9v-0.1C740,230.3,739.5,229.9,739,229.9z
		 M763.6,229.9h-12.3c-0.6,0-1,0.4-1,1v0.1c0,0.5,0.5,0.9,1,0.9h12.3c0.5,0,0.9-0.4,1-0.9v-0.1C764.6,230.3,764.2,229.9,763.6,229.9
		z M788.3,229.9H776c-0.6,0-1,0.4-1,1v0.1c0.1,0.5,0.5,0.9,1,0.9h12.3c0.5,0,0.9-0.4,1-0.9v-0.1
		C789.3,230.3,788.8,229.9,788.3,229.9z"/>
	<path d="M800.6,231.9h6c0.6,0,1-0.4,1-1s-0.4-1-1-1h-6c-0.6,0-1,0.4-1,1C799.6,231.4,800.1,231.9,800.6,231.9L800.6,231.9z"/>
	<path d="M380.9,536.6h-3.4l-8.4,18.6h3.6l1.8-4.3h9.3l1.9,4.3h3.6L380.9,536.6z M375.7,548.2l3.5-8.1l3.5,8.1H375.7z M399.5,552.1
		c-0.5,0.4-1.2,0.6-1.9,0.6c-1.3,0-2-0.7-2-2.1v-6.8h3.8v-2.7h-3.8v-3.2h-3.3v3.2H390v2.7h2.3v6.8c0,3.1,1.8,4.8,4.9,4.8
		c1.2,0,2.4-0.3,3.2-1L399.5,552.1z M411.9,535.5v19.8h3.3v-19.8H411.9z M433.6,548.2c0-4.4-3-7.3-7.2-7.3s-7.3,3-7.3,7.3
		c0,4.2,3.1,7.3,7.8,7.3c2.5,0,4.4-0.8,5.7-2.3l-1.8-2.1c-1,1-2.3,1.5-3.9,1.5c-2.5,0-4.2-1.3-4.6-3.4h11.2
		C433.6,548.9,433.6,548.5,433.6,548.2z M422.4,547c0.3-2.1,1.9-3.5,4-3.5c2.2,0,3.8,1.4,4,3.5H422.4z M442.5,540.9
		c-2.3,0-4.5,0.6-6,1.8l1.3,2.4c1.1-0.9,2.7-1.4,4.3-1.4c2.4,0,3.5,1.2,3.5,3.1v0.2h-3.7c-4.3,0-5.9,1.9-5.9,4.2
		c0,2.5,2.1,4.2,5.3,4.2c2.1,0,3.7-0.7,4.5-1.9v1.7h3.1v-8.3C448.9,542.8,446.6,540.9,442.5,540.9z M445.6,550.8
		c-0.6,1.5-2,2.2-3.6,2.2c-1.7,0-2.7-0.8-2.7-2c0-1,0.6-1.9,2.9-1.9h3.4L445.6,550.8L445.6,550.8z M455.9,545.1c0-0.9,1-1.6,3-1.6
		c1.3,0,2.7,0.3,4.1,1.1l1.3-2.5c-1.3-0.8-3.4-1.2-5.3-1.2c-3.8,0-6.2,1.8-6.2,4.4c0,5.7,8.8,3.1,8.8,5.8c0,1-0.9,1.6-3,1.6
		c-1.8,0-3.7-0.6-4.9-1.4l-1.3,2.5c1.3,0.9,3.7,1.6,6,1.6c4,0,6.4-1.7,6.4-4.4C464.7,545.5,455.9,548,455.9,545.1z M475.8,552.1
		c-0.5,0.4-1.2,0.6-1.9,0.6c-1.3,0-2-0.7-2-2.1v-6.8h3.8v-2.7H472v-3.2h-3.3v3.2h-2.3v2.7h2.3v6.8c0,3.1,1.8,4.8,4.9,4.8
		c1.2,0,2.4-0.3,3.2-1L475.8,552.1z M491.9,552.3l5-4.7c2.6-2.4,3.1-4.1,3.1-5.9c0-3.3-2.6-5.3-6.7-5.3c-3.1,0-5.6,1.1-7.1,3.1
		l2.4,1.9c1-1.3,2.6-1.9,4.4-1.9c2.3,0,3.5,1,3.5,2.7c0,1-0.3,2.1-2.1,3.9l-7.4,7v2.3h13.7v-2.9h-8.8V552.3z M522.5,541l-4.5,10.5
		l-4.5-10.5H510l6.2,14.3l-0.2,0.6c-0.6,1.4-1.3,2-2.5,2c-0.9,0-1.8-0.4-2.5-1l-1.3,2.5c0.9,0.8,2.4,1.3,3.8,1.3
		c2.4,0,4.2-1,5.5-4.2l6.6-15.3h-3.1V541z M541.4,548.2c0-4.4-3-7.3-7.2-7.3s-7.3,3-7.3,7.3c0,4.2,3.1,7.3,7.8,7.3
		c2.5,0,4.4-0.8,5.7-2.3l-1.8-2.1c-1,1-2.3,1.5-3.9,1.5c-2.5,0-4.2-1.3-4.6-3.4h11.2C541.3,548.9,541.4,548.5,541.4,548.2z
		 M530.1,547c0.3-2.1,1.9-3.5,4-3.5c2.2,0,3.8,1.4,4,3.5H530.1z M550.3,540.9c-2.3,0-4.5,0.6-6,1.8l1.3,2.4c1.1-0.9,2.7-1.4,4.3-1.4
		c2.4,0,3.5,1.2,3.5,3.1v0.2h-3.7c-4.3,0-5.9,1.9-5.9,4.2c0,2.5,2,4.2,5.3,4.2c2.1,0,3.7-0.7,4.5-1.9v1.7h3.1v-8.3
		C556.7,542.8,554.4,540.9,550.3,540.9z M553.4,550.8c-0.6,1.5-2,2.2-3.6,2.2c-1.7,0-2.7-0.8-2.7-2c0-1,0.6-1.9,2.9-1.9h3.4
		L553.4,550.8L553.4,550.8z M564.8,543.1V541h-3.2v14.2h3.3v-6.9c0-2.9,1.6-4.4,4.1-4.4c0.2,0,0.5,0,0.8,0.1v-3.2
		C567.5,540.9,565.8,541.6,564.8,543.1z M575.5,545.1c0-0.9,1-1.6,3-1.6c1.4,0,2.7,0.3,4.1,1.1l1.3-2.5c-1.3-0.8-3.4-1.2-5.3-1.2
		c-3.8,0-6.2,1.8-6.2,4.4c0,5.7,8.8,3.1,8.8,5.8c0,1-0.9,1.6-3,1.6c-1.8,0-3.7-0.6-5-1.4l-1.3,2.5c1.3,0.9,3.7,1.6,6,1.6
		c4,0,6.4-1.7,6.4-4.4C584.2,545.5,575.5,548,575.5,545.1z"/>
	<path d="M95.7,684.4v-12.8h-2.8v15.2h10.8v-2.4H95.7z M110.8,675c-1.9,0-3.7,0.5-4.9,1.4l1.1,2c0.9-0.7,2.2-1.1,3.5-1.1
		c1.9,0,2.9,0.9,2.9,2.5v0.2h-3c-3.5,0-4.8,1.5-4.8,3.5s1.7,3.5,4.3,3.5c1.8,0,3-0.6,3.7-1.6v1.4h2.6V680
		C116.1,676.6,114.1,675,110.8,675z M113.3,683.1c-0.5,1.2-1.6,1.8-2.9,1.8c-1.4,0-2.2-0.6-2.2-1.6c0-0.8,0.5-1.5,2.4-1.5h2.8v1.3
		H113.3z M126.3,684.2c-0.4,0.3-1,0.5-1.5,0.5c-1,0-1.6-0.6-1.6-1.7v-5.5h3.1v-2.2h-3.1v-2.7h-2.7v2.7h-1.9v2.2h1.9v5.6
		c0,2.6,1.5,3.9,4,3.9c1,0,2-0.3,2.6-0.8L126.3,684.2z M140.4,681c0-3.6-2.5-6-5.9-6c-3.5,0-6,2.5-6,5.9s2.5,6,6.4,6
		c2,0,3.6-0.7,4.7-1.9l-1.5-1.7c-0.8,0.8-1.8,1.3-3.2,1.3c-2,0-3.4-1.1-3.8-2.8h9.1C140.4,681.6,140.4,681.2,140.4,681z M131.2,680
		c0.3-1.7,1.5-2.8,3.3-2.8s3.1,1.2,3.3,2.8H131.2z M153.1,684.4l4.1-3.9c2.1-2,2.5-3.3,2.5-4.8c0-2.7-2.1-4.4-5.4-4.4
		c-2.5,0-4.6,0.9-5.8,2.5l2,1.5c0.9-1.1,2.1-1.6,3.6-1.6c1.9,0,2.8,0.8,2.8,2.2c0,0.8-0.3,1.8-1.7,3.2l-6.1,5.8v1.9h11.2v-2.4H153.1
		z M168.8,671.3c-3.6,0-6.4,2.8-6.4,7.8s2.7,7.8,6.4,7.8c3.6,0,6.4-2.8,6.4-7.8S172.4,671.3,168.8,671.3z M168.8,684.5
		c-2.1,0-3.5-1.7-3.5-5.4s1.4-5.4,3.5-5.4s3.5,1.7,3.5,5.4S170.9,684.5,168.8,684.5z M181.4,684.4l4.1-3.9c2.1-2,2.5-3.3,2.5-4.8
		c0-2.7-2.1-4.4-5.4-4.4c-2.5,0-4.6,0.9-5.8,2.5l2,1.5c0.8-1.1,2.1-1.6,3.6-1.6c1.9,0,2.8,0.8,2.8,2.2c0,0.8-0.3,1.8-1.8,3.2l-6,5.8
		v1.9h11.2v-2.4H181.4z M194.6,684.4l4.1-3.9c2.1-2,2.5-3.3,2.5-4.8c0-2.7-2.1-4.4-5.4-4.4c-2.5,0-4.6,0.9-5.8,2.5l2,1.5
		c0.9-1.1,2.1-1.6,3.6-1.6c1.9,0,2.8,0.8,2.8,2.2c0,0.8-0.3,1.8-1.7,3.2l-6.1,5.8v1.9h11.2v-2.4H194.6z"/>
	<path class="st4" d="M742.4,815.5l-7.2,12.8l-2.5-12.8h-2.5l-7.3,12.8l-2.4-12.8h-2.7l3.1,16.2h2.8l7-12.3l2.5,12.3h2.9l9.1-16.2
		H742.4z M760.5,824.5c0.1-0.7,0.2-1.4,0.2-2.2c0-4.4-2.9-7-7.2-7c-5.3,0-9.1,4-9.1,9.5c0,4.3,3,7,7.8,7c2.5,0,4.9-0.8,6.5-2.3
		l-1.2-2.1c-1.2,1.1-3,1.9-5,1.9c-3.5,0-5.1-1.6-5.1-4.6v-0.2L760.5,824.5L760.5,824.5z M753.4,817.8c2.9,0,4.8,1.6,4.6,4.6h-10.5
		C748.3,819.5,750.4,817.8,753.4,817.8z M786.8,815.5l-0.5,2.8c-1-1.9-3.1-2.9-5.8-2.9c-5.3,0-9.2,4-9.2,9.5c0,4.4,3,7,7.2,7
		c2.3,0,4.3-0.8,5.7-2.2l-0.4,2h2.8l3.2-16.2L786.8,815.5L786.8,815.5z M779,829.3c-3.1,0-4.8-1.7-4.8-4.5c0-4,2.7-6.8,6.3-6.8
		c3.1,0,4.8,1.7,4.8,4.6C785.4,826.5,782.7,829.3,779,829.3z M797.7,817.9l0.5-2.4h-2.8l-3.2,16.2h2.9l1.6-8.1
		c0.7-3.7,2.9-5.4,6.1-5.4c0.3,0,0.5,0,0.8,0l0.5-2.8C801.2,815.3,799.2,816.1,797.7,817.9z M820.4,824.5c0.1-0.7,0.2-1.4,0.2-2.2
		c0-4.4-2.9-7-7.2-7c-5.3,0-9.1,4-9.1,9.5c0,4.3,3,7,7.8,7c2.5,0,4.9-0.8,6.5-2.3l-1.2-2.1c-1.2,1.1-3,1.9-5,1.9
		c-3.5,0-5.1-1.6-5.1-4.6v-0.2L820.4,824.5L820.4,824.5z M813.3,817.8c2.9,0,4.8,1.6,4.6,4.6h-10.5
		C808.2,819.5,810.3,817.8,813.3,817.8z M842.7,815.3c-2.3,0-4.2,0.6-5.7,2l1.7-8.4h-2.9l-4.5,22.7h2.9l1.7-8.6
		c0.7-3.5,2.8-5.2,6-5.2c2.5,0,3.8,1.2,3.8,3.3c0,0.4-0.1,0.8-0.2,1.3l-1.8,9.1h2.9l1.8-9.1c0.1-0.7,0.2-1.3,0.2-1.9
		C848.5,817.3,846.3,815.3,842.7,815.3z M868.2,824.5c0.1-0.7,0.2-1.4,0.2-2.2c0-4.4-2.9-7-7.2-7c-5.3,0-9.1,4-9.1,9.5
		c0,4.3,3,7,7.8,7c2.5,0,4.9-0.8,6.5-2.3l-1.2-2.1c-1.2,1.1-3,1.9-5,1.9c-3.5,0-5.1-1.6-5.1-4.6v-0.2L868.2,824.5L868.2,824.5z
		 M861.1,817.8c2.9,0,4.8,1.6,4.6,4.6h-10.5C856,819.5,858.1,817.8,861.1,817.8z M876.3,817.9l0.5-2.4H874l-3.2,16.2h2.9l1.6-8.1
		c0.7-3.7,2.9-5.4,6.1-5.4c0.3,0,0.5,0,0.8,0l0.5-2.8C879.8,815.3,877.8,816.1,876.3,817.9z M899.1,824.5c0.1-0.7,0.2-1.4,0.2-2.2
		c0-4.4-2.9-7-7.2-7c-5.3,0-9.1,4-9.1,9.5c0,4.3,3,7,7.8,7c2.5,0,4.9-0.8,6.5-2.3l-1.2-2.1c-1.2,1.1-3,1.9-5,1.9
		c-3.5,0-5.1-1.6-5.1-4.6v-0.2L899.1,824.5L899.1,824.5z M891.9,817.8c2.9,0,4.8,1.6,4.6,4.6H886C886.8,819.5,889,817.8,891.9,817.8
		z"/>
	<path class="st25" d="M883.1,685.8l3.4-3.9v-2.3h-10.7v2.8h6.5l-3.1,3.5v2.3h1.6c2,0,2.9,0.7,2.9,1.9s-1.1,2-2.9,2
		c-1.6,0-3.2-0.5-4.3-1.4l-0.2,0.3l-1.2,2.4c0.4,0.3,0.8,0.5,1.2,0.7c1.3,0.6,3,1,4.6,1c4.3,0,6.3-2.3,6.3-4.9
		C887.2,687.9,885.8,686.3,883.1,685.8z M890.8,690.8c-1.2,0-2.1,0.8-2.1,2.1c0,1.2,0.9,2.1,2.1,2.1c1.2,0,2.1-0.9,2.1-2.1
		C892.9,691.6,892,690.8,890.8,690.8z M901.9,685.8l3.4-3.9v-2.3h-10.7v2.8h6.5L898,686v2.3h1.6c2,0,2.9,0.7,2.9,1.9s-1.1,2-2.9,2
		c-1.6,0-3.2-0.5-4.3-1.4l-1.4,2.7c1.5,1.1,3.7,1.6,5.8,1.6c4.3,0,6.3-2.3,6.3-4.9C906,687.9,904.6,686.3,901.9,685.8z"/>
	<path class="st25" d="M1046.2,606.8l3.4-3.9v-2.3H1039v2.8h6.5l-3.1,3.6v2.3h1.6c2,0,2.9,0.7,2.9,1.9s-1.1,2-2.9,2
		c-1.6,0-3.2-0.5-4.4-1.4l-0.4,0.8l-0.9,1.9c0.3,0.2,0.6,0.4,0.9,0.5c1.4,0.7,3.2,1.1,4.9,1.1c4.3,0,6.3-2.4,6.3-4.9
		C1050.3,608.9,1048.9,607.2,1046.2,606.8z M1054,611.8c-1.2,0-2.1,0.8-2.1,2.1c0,1.2,0.9,2.1,2.1,2.1s2.1-0.9,2.1-2.1
		C1056.1,612.6,1055.1,611.8,1054,611.8z M1069.1,609.7v-2.8h-3.3v2.8h-4.1l6.7-9.2h-3.7l-7.2,9.7v2.4h8.2v3.2h3.4v-3.2h2.5v-2.9
		H1069.1z"/>
	<path class="st25" d="M1373.1,464.1l3.4-3.9v-2.3h-10.7v2.8h6.5l-3.1,3.5v2.3h1.6c2,0,2.8,0.7,2.8,1.9c0,1.2-1.1,2-2.8,2
		c-1.6,0-3.2-0.5-4.4-1.4l-1.4,2.7c1.5,1.1,3.7,1.6,5.8,1.6c4.3,0,6.3-2.3,6.3-4.9C1377.2,466.2,1375.8,464.5,1373.1,464.1z
		 M1380.8,469.1c-1.2,0-2.1,0.8-2.1,2.1c0,1.2,0.9,2.1,2.1,2.1s2.1-0.9,2.1-2.1C1382.9,469.9,1382,469.1,1380.8,469.1z
		 M1393.5,465.2l5.3-7.4h-3.8l-3.4,4.9l-3.5-4.9h-4l5.3,7.5l-5.6,7.8h4.1l3.6-5.3l3.7,5.3h4.1L1393.5,465.2z"/>
	<path class="st3" d="M1256.1,613.4c-3.6-8.7-16.4,1-18.6-4.4c-0.8-1.9,0.2-4,3.9-5.6c2.2-0.9,4.8-1.5,7.4-0.9l0.1-3.8
		c-2.7-0.5-6,0.1-8.8,1.3c-5.9,2.5-8.3,6.8-6.6,11c3.7,8.9,16.4-0.9,18.7,4.5c0.8,1.8-0.1,3.9-4,5.5c-3.1,1.3-6.6,1.5-9,0.8
		l-0.2,3.8c2.7,0.9,6.9,0.4,10.5-1.1C1255.4,621.9,1257.8,617.7,1256.1,613.4z M1283.3,602.8c-1,2.7-2.8,4.5-5.4,5.6
		c-5.1,2.1-10.4,0-12.4-4.9c-2.1-5,0.1-10.2,5.2-12.3c2.6-1.1,5.1-1.1,7.8,0.1l1.5-3.7c-3.2-1.6-6.8-1.5-10.8,0.2
		c-7.3,3.1-10.6,10.5-7.7,17.5s10.6,9.8,17.9,6.8c4-1.7,6.6-4.2,7.7-7.6L1283.3,602.8z M1298.1,576l-4,1.7l-0.9,28.1l3.9-1.7
		l0.2-6.6l12.6-5.3l4.8,4.6l4.1-1.7L1298.1,576z M1297.4,593.6l0.3-13.2l9.5,9.1L1297.4,593.6z M1342.2,581.2l-12.6,5.3l-8.5-20.2
		l-4,1.7l9.9,23.6l16.7-7L1342.2,581.2z M1353.1,552.9l-4,1.7l-0.9,28.1l3.9-1.7l0.2-6.6l12.6-5.3l4.8,4.6l4.1-1.7L1353.1,552.9z
		 M1352.3,570.6l0.3-13.2l9.5,9.1L1352.3,570.6z M1418.2,553.4l-9.9-23.6l-4,1.7l7,16.7l-20.6-11l-3.3,1.4l9.9,23.6l4-1.7l-7-16.6
		l20.6,10.9L1418.2,553.4z M1446.6,537.5l-13.7,5.7l-2.9-7l11.7-4.9l-1.4-3.3l-11.7,4.9l-2.8-6.6l13.2-5.5l-1.4-3.3l-17.2,7.2
		l9.9,23.6l17.7-7.4L1446.6,537.5z M1462.8,520.4l3.8-15l-4.5,1.9l-2.7,11.2l-9.9-5.9l-4.5,1.9l13.4,7.9l-4.1,15.9l4.6-1.9l3-11.9
		l10.5,6.3l4.7-2L1462.8,520.4z M1484.2,501.9l8.1-3.4l-1.4-3.3l-20.1,8.4l1.4,3.3l8-3.4l8.5,20.2l4-1.7L1484.2,501.9z"/>
	<path class="st4" d="M1075.4,557.4c-0.6-1.3-2-1.7-3.2-1.2s-1.7,1.9-1.2,3.2c0.6,1.3,2,1.8,3.2,1.3
		C1075.4,560.1,1075.9,558.7,1075.4,557.4z M1084,553.5c-0.6-1.3-2-1.7-3.2-1.2s-1.7,1.9-1.2,3.2c0.6,1.3,2,1.8,3.2,1.3
		C1084,556.2,1084.6,554.7,1084,553.5z M1092.7,549.5c-0.6-1.3-2-1.7-3.2-1.2s-1.7,1.9-1.2,3.2c0.6,1.3,2,1.8,3.2,1.3
		C1092.7,552.2,1093.3,550.8,1092.7,549.5z"/>
	<path class="st4" d="M1242.2,481c-0.6-1.3-2-1.8-3.2-1.2c-1.2,0.5-1.8,1.9-1.2,3.2c0.6,1.3,2,1.8,3.2,1.3
		C1242.2,483.7,1242.8,482.2,1242.2,481z M1250.9,477.1c-0.6-1.3-2-1.8-3.2-1.2c-1.2,0.5-1.8,1.9-1.2,3.2c0.6,1.3,2,1.8,3.2,1.3
		C1250.9,479.8,1251.4,478.3,1250.9,477.1z M1259.6,473.1c-0.6-1.3-2-1.8-3.2-1.2c-1.2,0.5-1.8,1.9-1.2,3.2c0.6,1.3,2,1.8,3.2,1.3
		C1259.6,475.8,1260.1,474.4,1259.6,473.1z"/>
	<path class="st4" d="M1580.3,328.5c-0.6-1.3-2-1.8-3.2-1.2c-1.2,0.5-1.8,1.9-1.2,3.2c0.6,1.3,2,1.8,3.2,1.3
		C1580.2,331.2,1580.8,329.8,1580.3,328.5z M1589,324.7c-0.6-1.3-2-1.8-3.2-1.2c-1.2,0.5-1.8,1.9-1.2,3.2c0.6,1.3,2,1.8,3.2,1.3
		C1588.9,327.4,1589.5,325.9,1589,324.7z M1597.7,320.8c-0.6-1.3-2-1.8-3.2-1.2c-1.2,0.5-1.8,1.9-1.2,3.2c0.6,1.3,2,1.8,3.2,1.3
		C1597.7,323.5,1598.3,322.1,1597.7,320.8z"/>
	<path class="st3" d="M1292,293.8c-2.3,0-4,1.5-4.4,4.3l-4.4-3.7h-1.9v10.4h2.4v-6.9l4.1,3.5h1.9V300c0-2.3,0.9-3.3,2.3-3.3
		s2.3,1.2,2.3,3.2c0,1.7-0.6,3.4-1.5,4.5l2.2,1.2c1.1-1.4,1.8-3.6,1.8-5.7C1296.8,295.8,1294.5,293.8,1292,293.8z M1294.9,288.5
		c-1.1,0-1.8,0.8-1.8,1.8s0.7,1.8,1.8,1.8c1,0,1.8-0.8,1.8-1.8C1296.7,289.3,1295.9,288.5,1294.9,288.5z M1296.6,272.7l-7.9,5.7
		l-7.4-5.3v3.1l5.4,3.9l-5.4,3.9v3.2l7.5-5.4l7.8,5.7v-3.2l-5.8-4.1l5.8-4.1V272.7z M1294.2,253.7v8h-12.8v2.8h15.2v-10.8H1294.2z
		 M1283.7,246.9v-5h-2.4v12.9h2.4v-5h12.9V247L1283.7,246.9L1283.7,246.9z M1292.2,229c-5.6,0-3.5,9-6.7,9c-1.2,0-2.1-1-2.1-3.3
		c0-1.3,0.4-2.8,1.2-4.2l-2.2-0.9c-0.9,1.3-1.3,3.2-1.3,5.1c0,4.2,2.1,6.1,4.5,6.1c5.7,0,3.5-9.1,6.8-9.1c1.1,0,2,1,2,3.4
		c0,1.9-0.7,3.8-1.7,5l2.2,1c1.1-1.3,1.8-3.6,1.8-6C1296.8,231,1294.7,229,1292.2,229z"/>
	<path class="st25" d="M721.5,752.9l3.4-3.9v-2.3h-10.7v2.8h6.5l-3.1,3.5v2.3h1.6c2,0,2.9,0.7,2.9,1.9s-1.1,2-2.9,2
		c-1.6,0-3.2-0.5-4.3-1.4l-1.4,2.7c1.5,1,3.7,1.6,5.8,1.6c4.3,0,6.3-2.3,6.3-4.9C725.6,755.1,724.2,753.4,721.5,752.9z M729.2,757.9
		c-1.2,0-2.1,0.8-2.1,2.1c0,1.2,0.9,2.1,2.1,2.1c1.2,0,2.1-0.9,2.1-2.1C731.3,758.8,730.4,757.9,729.2,757.9z M738,759.1l3.5-3.3
		c2.1-2,2.5-3.3,2.5-4.8c0-2.8-2.3-4.5-5.7-4.5c-2.7,0-4.9,1.1-6,2.8l2.6,1.7c0.7-1,1.8-1.5,3.2-1.5c1.6,0,2.4,0.7,2.4,1.9
		c0,0.7-0.2,1.5-1.6,2.8l-5.9,5.5v2.3h11.5v-2.9H738z"/>
	<path class="st25" d="M545.6,836.4l3.4-3.9v-2.3h-10.7v2.8h6.5l-3.1,3.5v2.3h1.6c2,0,2.8,0.7,2.8,1.9s-1.1,2-2.8,2
		c-1.6,0-3.2-0.5-4.4-1.4l-1.3,2.5l-0.1,0.2c0,0,0.1,0,0.1,0.1c1.5,1,3.6,1.6,5.7,1.6c4.3,0,6.3-2.3,6.3-4.9
		C549.7,838.5,548.3,836.8,545.6,836.4z M553.4,841.4c-1.2,0-2.1,0.8-2.1,2.1c0,1.2,0.9,2.1,2.1,2.1c1.2,0,2.1-0.9,2.1-2.1
		C555.5,842.2,554.5,841.4,553.4,841.4z M556,830.2v2.8h3v12.4h3.5v-15.2H556z"/>
	<path class="st25" d="M395.4,903.5l3.4-3.9v-2.3h-10.7v2.8h6.5l-3.1,3.6v2.3h1.6c2,0,2.9,0.7,2.9,1.9s-1.1,2-2.9,2
		c-1.6,0-3.2-0.5-4.4-1.4l-1.1,2.2l-0.3,0.5c0.1,0.1,0.2,0.1,0.3,0.2c1.5,0.9,3.5,1.5,5.5,1.5c4.3,0,6.3-2.3,6.3-4.9
		C399.6,905.7,398.2,904,395.4,903.5z M403.2,908.5c-1.2,0-2.1,0.8-2.1,2.1c0,1.2,0.9,2.1,2.1,2.1s2.1-0.9,2.1-2.1
		C405.3,909.4,404.4,908.5,403.2,908.5z M413.2,897.1c-3.7,0-6.5,2.9-6.5,7.9s2.8,7.9,6.5,7.9c3.8,0,6.5-2.8,6.5-7.9
		C419.7,899.9,416.9,897.1,413.2,897.1z M413.2,909.9c-1.7,0-3-1.4-3-4.9s1.2-4.9,3-4.9s3,1.4,3,4.9
		C416.1,908.4,414.9,909.9,413.2,909.9z"/>
	<path class="st4" d="M866,620.7v19.8c0,1.2-1.1,2.3-3,3.3c1.9,1,3,2.1,3,3.3v19.8c0,1.2-1.1,2.3-3.1,3.3c1.9,1,3.1,2.1,3.1,3.3
		v19.8c0,8.2-52.8,11.5-52.8,13.2v-19.8c0-0.5,4.6-1.1,11.2-2l0,0c2.9-0.4,6.2-0.8,9.7-1.3c-1.8-0.3-3.5-0.5-5.2-0.7l0,0
		c-8.8-1.2-15.7-2-15.7-2.6v-19.8c0-0.4,3.8-1,9.3-1.8c0.9-0.1,1.9-0.2,3-0.4c2.6-0.4,5.5-0.7,8.5-1.2c-3-0.4-5.9-0.8-8.5-1.2
		c-0.7-0.1-1.4-0.2-2.1-0.3c-6-0.8-10.2-1.4-10.2-1.9v-19.8c0-0.5,5.2-1.2,12.3-2.1C841.1,629.7,866,626.4,866,620.7z"/>
	<rect x="875.8" y="679.6" class="st4" width="0.5" height="2.8"/>
	<path class="st4" d="M875.1,693.5l1.2-2.4v3.1C875.8,694,875.4,693.7,875.1,693.5z"/>
	<path class="st5" d="M866,673.6v6.6c0,2.7-5.6,4.8-13.2,6.6c-5.7-1.3-12.5-2.4-18.8-3.3c-1.8-0.3-3.5-0.5-5.2-0.7l0,0
		c-8.8-1.2-15.7-2-15.7-2.6v-6.6c0-1.1,24-3,39.7-6.6c2.5,0.6,4.8,1.2,6.8,1.9c1.3,0.4,2.4,0.9,3.3,1.4
		C864.9,671.2,866,672.4,866,673.6z"/>
	<path class="st5" d="M866,647.1v6.6c0,2.7-5.6,4.9-13.2,6.6c-5.7-1.3-12.5-2.4-18.8-3.3c-3-0.4-5.9-0.8-8.5-1.2
		c-0.7-0.1-1.4-0.2-2.1-0.3c-6-0.8-10.2-1.4-10.2-1.9V647c0-0.5,5.2-1.2,12.3-2.1c8.2-1.1,19-2.5,27.3-4.5c0.9,0.2,1.7,0.4,2.5,0.6
		l0,0c3.1,0.8,5.7,1.7,7.6,2.7C864.9,644.8,866,645.9,866,647.1z"/>
	
		<linearGradient id="SVGID_00000142174733964708185740000003323421117107706039_" gradientUnits="userSpaceOnUse" x1="813.2" y1="412.4" x2="866" y2="412.4" gradientTransform="matrix(1 0 0 -1 0 1076)">
		<stop  offset="0" style="stop-color:#E32D2B"/>
		<stop  offset="9.212934e-03" style="stop-color:#E32D2B"/>
		<stop  offset="9.252559e-02" style="stop-color:#E12E2C"/>
		<stop  offset="0.4187" style="stop-color:#DD302E"/>
		<stop  offset="0.8091" style="stop-color:#DE3D3B"/>
		<stop  offset="1" style="stop-color:#E3322F"/>
	</linearGradient>
	<path style="fill:url(#SVGID_00000142174733964708185740000003323421117107706039_);" d="M866,647.1v19.8c0,1.2-1.1,2.3-3.1,3.3
		c-3.5,1.9-9.8,3.4-16.7,4.7l0,0c-15,2.8-33,4.3-33,5.2v-19.8c0-0.4,3.8-1,9.3-1.8c0.9-0.1,1.9-0.2,3-0.4c2.6-0.4,5.5-0.7,8.5-1.2
		C848.8,655,866,651.9,866,647.1z"/>
	
		<linearGradient id="SVGID_00000012431720235097974270000003784448517354589063_" gradientUnits="userSpaceOnUse" x1="813.2" y1="438.85" x2="866" y2="438.85" gradientTransform="matrix(1 0 0 -1 0 1076)">
		<stop  offset="0" style="stop-color:#E32D2B"/>
		<stop  offset="9.212934e-03" style="stop-color:#E32D2B"/>
		<stop  offset="9.252559e-02" style="stop-color:#E12E2C"/>
		<stop  offset="0.4187" style="stop-color:#DD302E"/>
		<stop  offset="0.8091" style="stop-color:#DE3D3B"/>
		<stop  offset="1" style="stop-color:#E3322F"/>
	</linearGradient>
	<path style="fill:url(#SVGID_00000012431720235097974270000003784448517354589063_);" d="M866,620.7v19.8c0,1.2-1.1,2.3-3,3.3
		c-5.4,2.8-17,4.9-27.7,6.4l0,0c-3.4,0.5-6.8,0.9-9.8,1.3c-7.1,0.9-12.3,1.6-12.3,2.1v-19.8c0-0.5,5.2-1.2,12.3-2.1
		C841.1,629.7,866,626.4,866,620.7z"/>
	
		<linearGradient id="SVGID_00000058586981191766428360000000359129315827845256_" gradientUnits="userSpaceOnUse" x1="813.2" y1="385.9" x2="866" y2="385.9" gradientTransform="matrix(1 0 0 -1 0 1076)">
		<stop  offset="0" style="stop-color:#E32D2B"/>
		<stop  offset="9.212934e-03" style="stop-color:#E32D2B"/>
		<stop  offset="9.252559e-02" style="stop-color:#E12E2C"/>
		<stop  offset="0.4187" style="stop-color:#DD302E"/>
		<stop  offset="0.8091" style="stop-color:#DE3D3B"/>
		<stop  offset="1" style="stop-color:#E3322F"/>
	</linearGradient>
	<path style="fill:url(#SVGID_00000058586981191766428360000000359129315827845256_);" d="M866,673.6v19.8
		c0,8.2-52.8,11.5-52.8,13.2v-19.8c0-0.5,4.6-1.1,11.2-2l0,0c2.9-0.4,6.2-0.8,9.7-1.3C848.8,681.4,866,678.3,866,673.6z"/>
	<path class="st4" d="M1354.6,401.1v19.8c0,1.2-1.1,2.3-3,3.3c1.9,1,3,2.1,3,3.3v19.8c0,1.2-1.1,2.3-3,3.3c1.9,1,3,2.1,3,3.3v19.8
		c0,8.3-52.8,11.6-52.8,13.2v-19.8c0-0.4,3.4-0.9,8.4-1.6l0,0c3.5-0.5,7.8-1,12.4-1.7c-2.3-0.3-4.5-0.6-6.7-0.9l0,0
		c-8-1.1-14.1-1.8-14.1-2.4v-19.8c0-0.5,5.2-1.2,12.3-2.1c2.6-0.3,5.5-0.7,8.5-1.2c-0.3,0-0.6-0.1-0.8-0.1c-1.7-0.2-3.4-0.5-5-0.7
		c-0.9-0.1-1.9-0.2-2.8-0.4c-1.3-0.2-2.5-0.3-3.6-0.5c-5.2-0.7-8.7-1.2-8.7-1.7v-19.8c0-0.5,5.2-1.2,12.3-2.2
		c8.5-1.1,19.7-2.6,28.2-4.7C1349.4,405.8,1354.6,403.7,1354.6,401.1z"/>
	<path class="st5" d="M1354.6,453.9v6.6c0,2.7-5.6,4.8-13.2,6.6c-5.7-1.3-12.5-2.4-18.8-3.3c-2.3-0.3-4.5-0.6-6.7-0.9l0,0
		c-8-1.1-14.1-1.8-14.1-2.4v-6.6c0-0.7,10.1-1.8,21.4-3.4c6.2-0.9,12.7-1.9,18.2-3.2c0.3,0.1,0.6,0.1,0.9,0.2
		c1.7,0.4,3.4,0.9,4.8,1.3c1.8,0.5,3.3,1.1,4.5,1.8C1353.5,451.6,1354.6,452.7,1354.6,453.9z"/>
	<path class="st5" d="M1354.6,427.5v6.6c0,2.6-5.2,4.7-12.3,6.4c-0.3,0.1-0.6,0.1-0.9,0.2c-5.7-1.3-12.5-2.4-18.8-3.3
		c-0.3,0-0.6-0.1-0.8-0.1c-1.7-0.2-3.4-0.5-5-0.7c-0.9-0.1-1.9-0.2-2.8-0.4c-1.3-0.2-2.5-0.3-3.6-0.5c-5.2-0.7-8.7-1.2-8.7-1.7v-6.6
		c0-0.5,5.2-1.2,12.3-2.1c8.2-1.1,19-2.5,27.3-4.5c0.3,0.1,0.6,0.1,0.9,0.2c0.2,0,0.3,0.1,0.5,0.1c3.6,0.9,6.7,1.9,8.8,3
		C1353.5,425.2,1354.6,426.3,1354.6,427.5z"/>
	
		<linearGradient id="SVGID_00000163069406626047866540000005851517801675355812_" gradientUnits="userSpaceOnUse" x1="1301.7999" y1="632" x2="1354.6" y2="632" gradientTransform="matrix(1 0 0 -1 0 1076)">
		<stop  offset="0" style="stop-color:#E32D2B"/>
		<stop  offset="9.212934e-03" style="stop-color:#E32D2B"/>
		<stop  offset="9.252559e-02" style="stop-color:#E12E2C"/>
		<stop  offset="0.4187" style="stop-color:#DD302E"/>
		<stop  offset="0.8091" style="stop-color:#DE3D3B"/>
		<stop  offset="1" style="stop-color:#E3322F"/>
	</linearGradient>
	<path style="fill:url(#SVGID_00000163069406626047866540000005851517801675355812_);" d="M1354.6,427.5v19.8c0,1.2-1.1,2.3-3,3.3
		c-4.1,2.1-11.8,3.9-20,5.2c-14.2,2.4-29.8,3.8-29.8,4.7v-19.8c0-0.5,5.2-1.2,12.3-2.1c2.6-0.3,5.5-0.7,8.5-1.2
		c0.3,0,0.5-0.1,0.8-0.1c0.2,0,0.5-0.1,0.8-0.1c6.2-0.9,12.7-2,18.1-3.3C1349.4,432.2,1354.6,430.1,1354.6,427.5z"/>
	
		<linearGradient id="SVGID_00000122001918451604441920000012982354041882600379_" gradientUnits="userSpaceOnUse" x1="1301.7998" y1="658.45" x2="1354.6" y2="658.45" gradientTransform="matrix(1 0 0 -1 0 1076)">
		<stop  offset="0" style="stop-color:#E32D2B"/>
		<stop  offset="9.212934e-03" style="stop-color:#E32D2B"/>
		<stop  offset="9.252559e-02" style="stop-color:#E12E2C"/>
		<stop  offset="0.4187" style="stop-color:#DD302E"/>
		<stop  offset="0.8091" style="stop-color:#DE3D3B"/>
		<stop  offset="1" style="stop-color:#E3322F"/>
	</linearGradient>
	<path style="fill:url(#SVGID_00000122001918451604441920000012982354041882600379_);" d="M1354.6,401.1v19.8c0,1.2-1.1,2.3-3,3.3
		c-2.2,1.2-5.5,2.2-9.3,3.1c-6.3,1.5-14.2,2.8-21.3,3.7l0,0c-2.4,0.3-4.8,0.6-6.9,0.9c-7.1,0.9-12.3,1.6-12.3,2.1v-19.8
		c0-0.5,5.2-1.2,12.3-2.2c8.5-1.1,19.7-2.6,28.2-4.7C1349.4,405.8,1354.6,403.7,1354.6,401.1z"/>
	
		<linearGradient id="SVGID_00000176016517528128120810000004800047278915399587_" gradientUnits="userSpaceOnUse" x1="1301.7999" y1="605.6" x2="1354.6" y2="605.6" gradientTransform="matrix(1 0 0 -1 0 1076)">
		<stop  offset="0" style="stop-color:#E32D2B"/>
		<stop  offset="9.212934e-03" style="stop-color:#E32D2B"/>
		<stop  offset="9.252559e-02" style="stop-color:#E12E2C"/>
		<stop  offset="0.4187" style="stop-color:#DD302E"/>
		<stop  offset="0.8091" style="stop-color:#DE3D3B"/>
		<stop  offset="1" style="stop-color:#E3322F"/>
	</linearGradient>
	<path style="fill:url(#SVGID_00000176016517528128120810000004800047278915399587_);" d="M1354.6,453.9v19.8
		c0,8.3-52.8,11.6-52.8,13.2v-19.8c0-0.4,3.4-0.9,8.4-1.6l0,0c3.5-0.5,7.8-1,12.4-1.7C1337.4,461.7,1354.6,458.6,1354.6,453.9z"/>
	<path class="st4" d="M555.8,788.3v3.3c0-0.3,8.8-0.8,8.8-2.2v-3.3C564.6,787.5,555.8,788.1,555.8,788.3L555.8,788.3z"/>
	<path class="st4" d="M555.8,783.9v3.3c0-0.3,8.8-0.8,8.8-2.2v-3.3C564.6,783.1,555.8,783.6,555.8,783.9L555.8,783.9z"/>
	<path class="st4" d="M555.8,792.7v3.3c0-0.3,8.8-0.8,8.8-2.2v-3.3C564.6,791.9,555.8,792.5,555.8,792.7L555.8,792.7z"/>
	<path class="st4" d="M435.9,842v3.3c0-0.3,8.8-0.8,8.8-2.2v-3.3C444.7,841.2,435.9,841.8,435.9,842L435.9,842z"/>
	<path class="st4" d="M435.9,837.6v3.3c0-0.3,8.8-0.8,8.8-2.2v-3.3C444.7,836.8,435.9,837.3,435.9,837.6L435.9,837.6z"/>
	<path class="st4" d="M435.9,846.4v3.3c0-0.3,8.8-0.8,8.8-2.2v-3.3C444.7,845.6,435.9,846.2,435.9,846.4L435.9,846.4z"/>
	<path class="st4" d="M407.7,855.4v3.3c0-0.3,8.8-0.8,8.8-2.2v-3.3C416.5,854.5,407.7,855.1,407.7,855.4L407.7,855.4z"/>
	<path class="st4" d="M407.7,850.9v3.3c0-0.3,8.8-0.8,8.8-2.2v-3.3C416.5,850.1,407.7,850.7,407.7,850.9L407.7,850.9z"/>
	<path class="st4" d="M407.7,859.8v3.3c0-0.3,8.8-0.8,8.8-2.2v-3.3C416.5,858.9,407.7,859.5,407.7,859.8L407.7,859.8z"/>
	<path class="st4" d="M583.6,775.2v3.3c0-0.3,8.8-0.8,8.8-2.2V773C592.4,774.3,583.6,774.9,583.6,775.2L583.6,775.2z"/>
	<path class="st4" d="M583.6,770.7v3.3c0-0.3,8.8-0.8,8.8-2.2v-3.3C592.4,769.9,583.6,770.5,583.6,770.7L583.6,770.7z"/>
	<path class="st4" d="M583.6,779.6v3.3c0-0.3,8.8-0.8,8.8-2.2v-3.3C592.4,778.7,583.6,779.3,583.6,779.6L583.6,779.6z"/>
	<path class="st4" d="M611.4,762v3.3c0-0.3,8.8-0.8,8.8-2.2v-3.3C620.2,761.2,611.4,761.7,611.4,762L611.4,762z"/>
	<path class="st4" d="M611.4,757.6v3.3c0-0.3,8.8-0.8,8.8-2.2v-3.3C620.2,756.7,611.4,757.3,611.4,757.6L611.4,757.6z"/>
	<path class="st4" d="M611.4,766.4v3.3c0-0.3,8.8-0.8,8.8-2.2v-3.3C620.2,765.6,611.4,766.1,611.4,766.4L611.4,766.4z"/>
	<path class="st4" d="M753.8,698.8v3.3c0-0.3,8.8-0.8,8.8-2.2v-3.3C762.6,698,753.8,698.6,753.8,698.8L753.8,698.8z"/>
	<path class="st4" d="M753.8,694.4v3.3c0-0.3,8.8-0.8,8.8-2.2v-3.3C762.6,693.6,753.8,694.2,753.8,694.4L753.8,694.4z"/>
	<path class="st4" d="M753.8,703.3v3.3c0-0.3,8.8-0.8,8.8-2.2v-3.3C762.6,702.4,753.8,703,753.8,703.3L753.8,703.3z"/>
	<path class="st4" d="M918,625.5v3.3c0-0.3,8.8-0.8,8.8-2.2v-3.3C926.8,624.7,918,625.2,918,625.5L918,625.5z"/>
	<path class="st4" d="M918,621.1v3.3c0-0.3,8.8-0.8,8.8-2.2v-3.3C926.8,620.2,918,620.8,918,621.1L918,621.1z"/>
	<path class="st4" d="M918,629.9v3.3c0-0.3,8.8-0.8,8.8-2.2v-3.3C926.8,629.1,918,629.6,918,629.9L918,629.9z"/>
	<path class="st4" d="M834.9,592.4v3.3c0-0.3,8.8-0.8,8.8-2.2v-3.3C843.7,591.5,834.9,592.1,834.9,592.4L834.9,592.4z"/>
	<path class="st4" d="M834.9,588v3.3c0-0.3,8.8-0.8,8.8-2.2v-3.3C843.7,587.1,834.9,587.7,834.9,588L834.9,588z"/>
	<path class="st4" d="M834.9,596.8v3.3c0-0.3,8.8-0.8,8.8-2.2v-3.3C843.7,596,834.9,596.5,834.9,596.8L834.9,596.8z"/>
	<path class="st4" d="M834.9,524.2v3.3c0-0.3,8.8-0.8,8.8-2.2V522C843.7,523.4,834.9,523.9,834.9,524.2L834.9,524.2z"/>
	<path class="st4" d="M834.9,519.8v3.3c0-0.3,8.8-0.8,8.8-2.2v-3.3C843.7,519,834.9,519.5,834.9,519.8L834.9,519.8z"/>
	<path class="st4" d="M834.9,528.6v3.3c0-0.3,8.8-0.8,8.8-2.2v-3.3C843.7,527.8,834.9,528.3,834.9,528.6L834.9,528.6z"/>
	<path class="st4" d="M834.9,456v3.3c0-0.3,8.8-0.8,8.8-2.2v-3.3C843.7,455.2,834.9,455.8,834.9,456L834.9,456z"/>
	<path class="st4" d="M834.9,451.6v3.3c0-0.3,8.8-0.8,8.8-2.2v-3.3C843.7,450.8,834.9,451.4,834.9,451.6L834.9,451.6z"/>
	<path class="st4" d="M834.9,460.5v3.3c0-0.3,8.8-0.8,8.8-2.2v-3.3C843.7,459.6,834.9,460.2,834.9,460.5L834.9,460.5z"/>
	<path class="st4" d="M834.9,387.9v3.3c0-0.3,8.8-0.8,8.8-2.2v-3.3C843.7,387.1,834.9,387.6,834.9,387.9L834.9,387.9z"/>
	<path class="st4" d="M834.9,383.5v3.3c0-0.3,8.8-0.8,8.8-2.2v-3.3C843.7,382.6,834.9,383.2,834.9,383.5L834.9,383.5z"/>
	<path class="st4" d="M834.9,392.3v3.3c0-0.3,8.8-0.8,8.8-2.2v-3.3C843.7,391.5,834.9,392,834.9,392.3L834.9,392.3z"/>
	<path class="st4" d="M834.9,319.7v3.3c0-0.3,8.8-0.8,8.8-2.2v-3.3C843.7,318.9,834.9,319.4,834.9,319.7L834.9,319.7z"/>
	<path class="st4" d="M834.9,315.3v3.3c0-0.3,8.8-0.8,8.8-2.2v-3.3C843.7,314.5,834.9,315,834.9,315.3L834.9,315.3z"/>
	<path class="st4" d="M834.9,324.1v3.3c0-0.3,8.8-0.8,8.8-2.2v-3.3C843.7,323.3,834.9,323.9,834.9,324.1L834.9,324.1z"/>
	<path class="st4" d="M1323.8,326.1v3.6c0-0.3,8.8-0.9,8.8-2.4v-3.6C1332.6,325.2,1323.8,325.8,1323.8,326.1L1323.8,326.1z"/>
	<path class="st4" d="M1323.8,321.3v3.6c0-0.3,8.8-0.9,8.8-2.4V319C1332.6,320.4,1323.8,321,1323.8,321.3L1323.8,321.3z"/>
	<path class="st4" d="M1323.8,330.8v3.6c0-0.3,8.8-0.9,8.8-2.4v-3.6C1332.6,329.9,1323.8,330.5,1323.8,330.8L1323.8,330.8z"/>
	<path class="st4" d="M1323.8,252.6v3.6c0-0.3,8.8-0.9,8.8-2.4v-3.6C1332.6,251.7,1323.8,252.3,1323.8,252.6L1323.8,252.6z"/>
	<path class="st4" d="M1323.8,247.9v3.6c0-0.3,8.8-0.9,8.8-2.4v-3.6C1332.6,247,1323.8,247.6,1323.8,247.9L1323.8,247.9z"/>
	<path class="st4" d="M1323.8,257.4v3.6c0-0.3,8.8-0.9,8.8-2.4V255C1332.6,256.5,1323.8,257.1,1323.8,257.4L1323.8,257.4z"/>
	<path class="st4" d="M1323.8,179.2v3.6c0-0.3,8.8-0.9,8.8-2.4v-3.6C1332.6,178.3,1323.8,178.9,1323.8,179.2L1323.8,179.2z"/>
	<path class="st4" d="M1323.8,174.4v3.6c0-0.3,8.8-0.9,8.8-2.4V172C1332.6,173.5,1323.8,174.1,1323.8,174.4L1323.8,174.4z"/>
	<path class="st4" d="M1323.8,183.9v3.6c0-0.3,8.8-0.9,8.8-2.4v-3.6C1332.6,183,1323.8,183.6,1323.8,183.9L1323.8,183.9z"/>
</g>
</svg>
