<svg width="1324" height="1495" viewBox="0 0 1324 1495" fill="none" xmlns="http://www.w3.org/2000/svg">
<path fill-rule="evenodd" clip-rule="evenodd" d="M398.125 408.215C400.076 426.904 466.312 498.272 571.569 593.547C678.466 685.981 750.951 849.113 864.356 877.191C941.086 896.146 1110.21 767.958 1124.73 742.803L1126.22 740.22C1136.36 722.658 1131.33 700.952 1115.73 676.313C1051.1 576.529 1043.7 549.256 1004.32 538.983C799.746 485.819 502.597 281.064 398.125 408.215Z" fill="black" fill-opacity="0.6"/>
<path fill-rule="evenodd" clip-rule="evenodd" d="M199.567 752.125C201.399 771.021 267.754 842.182 372.981 937.509C493.145 1039.53 563.858 1186.76 677.345 1214.82C754.075 1233.77 911.619 1111.92 926.173 1086.71L927.604 1084.23C937.714 1066.72 932.713 1044.96 917.087 1020.38C868.62 942.808 799.861 848.495 760.526 838.251C555.705 784.805 313.268 659.09 199.567 752.125Z" fill="black" fill-opacity="0.6"/>
<path fill-rule="evenodd" clip-rule="evenodd" d="M1153.53 389.453C963.917 342.585 690.815 220.241 551.919 140.049L398.781 405.29C398.299 406.228 398.141 407.299 398.331 408.336C493.116 463.06 803.627 601.011 1008.21 654.389C1043.53 664.329 1079.51 671.731 1115.88 676.537C1143.08 679.292 1162.93 677.117 1169.07 666.476L1323.52 398.962C1308.76 424.05 1230.23 408.46 1153.53 389.453Z" fill="#C02313"/>
<path fill-rule="evenodd" clip-rule="evenodd" d="M954.942 733.414C841.485 705.307 698.185 650.396 571.569 593.548C486.557 555.417 409.081 516.403 353.243 484.165L200.225 749.2C199.743 750.137 199.584 751.209 199.775 752.246C294.56 806.97 605.071 944.92 809.626 998.35C844.948 1008.26 880.928 1015.66 917.295 1020.5C944.523 1023.2 964.344 1021.08 970.488 1010.44L1124.94 742.923C1110.21 767.959 1031.67 752.369 954.942 733.414Z" fill="#C02313"/>
<path fill-rule="evenodd" clip-rule="evenodd" d="M756.236 1077.58C642.779 1049.48 499.509 994.513 372.862 937.717C287.748 899.526 210.168 860.452 154.33 828.214L0.000216156 1095.52C93.8033 1149.68 405.663 1288.75 610.833 1342.19C686.449 1361.88 758.9 1376.44 771.724 1354.23L926.173 1086.71C911.501 1112.13 833.085 1096.33 756.236 1077.58Z" fill="#C02313"/>
</svg>
