<svg xmlns="http://www.w3.org/2000/svg" xmlns:xlink="http://www.w3.org/1999/xlink" viewBox="0 0 600 195.03"><defs><style>.cls-1{fill:url(#linear-gradient);}.cls-2{fill:url(#linear-gradient-2);}.cls-3{fill:url(#linear-gradient-3);}.cls-4{fill:url(#linear-gradient-4);}.cls-5{fill:url(#linear-gradient-5);}.cls-6{fill:url(#linear-gradient-6);}.cls-7{fill:url(#linear-gradient-7);}</style><linearGradient id="linear-gradient" x1="496.46" y1="-52.29" x2="366.29" y2="306.82" gradientUnits="userSpaceOnUse"><stop offset="0" stop-color="#700000"/><stop offset="0.13" stop-color="#860000"/><stop offset="0.4" stop-color="#bd0000"/><stop offset="0.55" stop-color="#e00000"/><stop offset="0.59" stop-color="#e10700"/><stop offset="0.65" stop-color="#e31a00"/><stop offset="0.72" stop-color="#e73900"/><stop offset="0.79" stop-color="#ec6400"/><stop offset="0.87" stop-color="#f39b00"/><stop offset="0.96" stop-color="#fbde00"/><stop offset="1" stop-color="#ff0"/></linearGradient><linearGradient id="linear-gradient-2" x1="485.29" y1="-56.34" x2="355.12" y2="302.77" xlink:href="#linear-gradient"/><linearGradient id="linear-gradient-3" x1="398.51" y1="-87.8" x2="268.34" y2="271.31" xlink:href="#linear-gradient"/><linearGradient id="linear-gradient-4" x1="429.69" y1="-76.49" x2="299.53" y2="282.62" xlink:href="#linear-gradient"/><linearGradient id="linear-gradient-5" x1="528.79" y1="-40.57" x2="398.63" y2="318.54" xlink:href="#linear-gradient"/><linearGradient id="linear-gradient-6" x1="268.97" y1="-134.75" x2="138.81" y2="224.36" xlink:href="#linear-gradient"/><linearGradient id="linear-gradient-7" x1="352.2" y1="-104.58" x2="222.04" y2="254.53" xlink:href="#linear-gradient"/></defs><g id="Layer_2" data-name="Layer 2"><g id="Layer_1-2" data-name="Layer 1"><path class="cls-1" d="M485.26,105a58.16,58.16,0,0,1-21.33,27.12,51.35,51.35,0,0,1-13.67,7.11,50.37,50.37,0,0,1-12,2.33,54.09,54.09,0,0,1-12.09-.48c.25.19-.66.17-2.13,0-.73-.1-1.6-.25-2.52-.4s-1.9-.43-2.86-.65-1.87-.55-2.71-.79-1.57-.44-2.12-.64c-1.12-.37-1.58-.46-.78,0-1.15-.5-2.45-1-3.7-1.68l-1.88-1-1.74-1c-.55-.32-1.08-.61-1.54-.89l-1.22-.79a13.9,13.9,0,0,0-1.26-.76,7.24,7.24,0,0,1-1.31-.71c-.32-.2-.68-.43-1.11-.72l-.69-.47-.77-.61a43.54,43.54,0,0,1-9.33-10,52.25,52.25,0,0,1-4.32-7.6c-.33-.63-.58-1.28-.84-1.87s-.51-1.14-.68-1.65-.28-.72-.39-1l.22.6c.27.8.61,1.56.78,2,0,.07.05.14.07.19l0,.08v0h0a54,54,0,0,0,17.17,22.23,61.87,61.87,0,0,0,12.52,7.34,59,59,0,0,0,14,4.38,58.15,58.15,0,0,0,14.86.66,60.58,60.58,0,0,0,14.69-3.2,63.83,63.83,0,0,0,13.65-6.71,67,67,0,0,0,11.92-9.8c.58-.67,1.42-1.54,2.35-2.69.47-.58,1-1.19,1.54-1.89l1.7-2.26a68.85,68.85,0,0,0,7.29-12.8c.19-.42.37-.86.55-1.3H485.35A2.5,2.5,0,0,1,485.26,105Z"/><path class="cls-2" d="M386.44,35.81c1,0,3.63-1.17,5.82-1.82.7-.34,1.09-.34,1.35-.21a1.65,1.65,0,0,1,.54.63c.32.44.81.77,2.82-.27-1.26,1-2.24,1.7-3.11,2.54l-1.38,1.26a20.84,20.84,0,0,0-1.56,1.49c.09.22.5-.18,1.17-.74s1.48-1.41,2.29-2.19q.3-.3.6-.57l.59-.48a10.3,10.3,0,0,1,1-.71c.55-.33.83-.33.6.27-.64.42-1.27.89-1.9,1.4s-1.15,1.13-1.72,1.72-1.14,1.17-1.68,1.78-1,1.25-1.57,1.82a4.11,4.11,0,0,0,1.85-1.21c.38-.37.86-.72,1.33-1.12l1.42-1.23c.49-.41.92-.84,1.39-1.16s.89-.63,1.25-.85c.74-.45,1.24-.65,1.31-.36-.55.65-2.53,1.63-4.13,2.92a17.64,17.64,0,0,0-2.14,1.8c-.49.61-.74,1.12-.58,1.47.06.14.61-.35,1.27-1s1.56-1.4,2.13-1.92l-1.19,1.25a14.4,14.4,0,0,0-1.05,1.21c-.62.82-1.17,1.59-1.65,2.27-.24.36-.46.68-.65,1s-.32.63-.46.91a8.36,8.36,0,0,0-.53,1.4c-.18.73,0,1,.62.81a5.59,5.59,0,0,0,1.24-.75,9.27,9.27,0,0,0,.86-.69l1.12-.85c-.24.27-.49.53-.76.8s-.5.6-.77.91c-.54.61-1.1,1.26-1.66,1.91l-.43.49-.38.52q-.36.54-.72,1.05c-.47.69-.9,1.38-1.26,2h0c.41-.61,1-1.43,1.62-2.23.29-.4.58-.8.86-1.17s.56-.66.76-.93c-.25.33-.52.66-.75,1L389.59,51l-1.36,2.12c.31-.11.64-.25,1-.41.41-.49.79-1,1.17-1.47.19-.25.38-.5.56-.76s.4-.5.59-.76l-.5.66-.44.69-.89,1.39c.85-.43,1.67-1,2.59-1.58a43.15,43.15,0,0,1,4.39-3.33c.7-.46,1.31-.9,1.84-1.32a10.09,10.09,0,0,0,1.4-1.08l1.1-1,.56-.52.59-.46,2.35-1.91A58.76,58.76,0,0,1,409.6,38l1.31-.78c.43-.25.91-.45,1.36-.67l1.36-.66a10.74,10.74,0,0,1,1.38-.64l2.83-1.13a12.88,12.88,0,0,1,1.45-.47l1.45-.46a51.38,51.38,0,0,1,24.32-1.22c.13-.41-.67-1,.76-.92a7.63,7.63,0,0,1,1.61.27q.76.18,1.5.42c1,.34,1.89.74,2.79,1.14a61.66,61.66,0,0,0,5.63,2.52l.58-.42a53.8,53.8,0,0,1,8.62,6.24A54.28,54.28,0,0,1,480.34,56c.07-.25.18-.4.61.15a44,44,0,0,1,4.42,10L486,67.9c.24.43.43.51.55.56a49.86,49.86,0,0,1,1.05,5,51.93,51.93,0,0,1,1.31,10.84h11.63a67.21,67.21,0,0,0,.21-7,66.25,66.25,0,0,0-1.16-10.89,68.19,68.19,0,0,0-2.94-10.73,72.16,72.16,0,0,0-4.63-10,67.05,67.05,0,0,0-6-9,64.79,64.79,0,0,0-6.93-7.58l-.9-.85-.92-.81c-.61-.52-1.21-1.07-1.83-1.56-1.24-1-2.45-2-3.7-2.82a70.62,70.62,0,0,0-19.12-9.71,23.53,23.53,0,0,0-2.28-.65,64.5,64.5,0,0,0-22.59-2.52,57.44,57.44,0,0,0-20.51,5.14,63.06,63.06,0,0,0-13.75,9.52,49.49,49.49,0,0,1,6.66-2.38l-1.82.95c-.58.34-1.15.7-1.7,1.05-1.11.72-2.2,1.38-3.13,2.06a23.86,23.86,0,0,0-3.93,3.53c-1,1.08-1.74,2-2.31,2.7a7.54,7.54,0,0,0-1.14,1.77C385.71,35.46,385.91,35.8,386.44,35.81Z"/><path class="cls-3" d="M354,13.88c-.69,1.12-1.37,2.16-2,3.06.22-2.45.45-4.91-.19-5.85-1.37-5.23-3.53-2.27-6.13-.26-1.14,1.45-2.89-.51-4,1.76,0-1.63.05-2.45.09-4.09-1.1-.19.62,5-1.16,3.9.38-1.57-.31-3.34-.3-5-1.48.56-.41,5.67-1.84,5.41-.38-.88,1.82-4.59,0-4.91C338,7.87,338,9.5,338,10.32c-.72-5-2.73-7.81-4.46-3.21-.06-1.6.6-3.86.24-5.54h0c0,.84-.31,2.29-.29,3.07,0-1-.05-1.91-.08-2.87a9,9,0,0,0-.76.5,7.65,7.65,0,0,0-.3,2.18c0-.63,0-1.27-.07-1.91a13.28,13.28,0,0,0-1.64,1.63c-1,2.27-2.54,4.44-2.45,5.67.16,9.9.76,19.85,1.79,29.75.54,0,1-.51,1.36.32.75,2.58-.78,4.65,0,7.24l.84.18c-.15,2-.37,4.08-.49,6.21.55,3.92,1.16,7.81,1.8,11.69.24-.1.47-.15.6.24a53.61,53.61,0,0,1,.5,6.16l.22,1a.86.86,0,0,0,.53.38c.08,1,.11,2,.13,2.84.56,2.8,1.12,5.61,1.65,8.44h0c.59,3.17,1.16,6.38,1.69,9.62.87,5.29,1.65,10.7,2.31,16.3,0,.35.09.71.12,1.06.39,2.18.72,4.36.94,6.49l4.54-.57-4.54.57c.05.45.1.9.13,1.35.23,3.77.21,8.59.33,12.28.37-.29.7,1.82,1,3.77s.43,3.74.74,2.85c-.09,2.45-.19,6.14-.08,6.32.33.58.66,2.46.14,9-.2,2.16-.49,5.24-.63,6.72,0-.09,0-.19,0-.29.09-.83.19-1.66.12-1,1.09-9.48,2.17-18.78,3.25-28.11q.74-6.84,1.48-13.73h0c.28-2.6.56-5.2.85-7.82q.36-3.3.72-6.65c0-1.47.25-4.85.59-9.34.21-2.62.45-5.63.72-8.85h0c.29-3.43.6-7.1.92-10.82,1.14-13.17,2.45-26.95,3.32-32.58l.06-1c.79-6.14,1.35-13.6.46-18.8C355.68,18.72,354.84,16.3,354,13.88Z"/><path class="cls-4" d="M343.74,160.38l0,.33C343.71,161.24,343.7,160.92,343.74,160.38Z"/><path class="cls-5" d="M592.13,96.87l-26-2c-8.62-.65-17.21-1.43-25.8-1.76l-25.74-1.26-5.74-.27h0l-7.11-.34-2.14-.06c-3.57-.09-7.15-.15-10.72-.24h-.3q-6.09-.11-12.19-.25c-13-.28-26-.57-39.12-.34l-26,.17c-2.18,0-4.35.07-6.54.14l-6.55.2-13.15.39c-3,.21-8.13.46-14.92.77-1.69.09-3.5.14-5.39.25s-3.72.26-5.72.4l-1.5,15.5c3.44-.45,6.89-.88,10.37-1.27l16.36-1.61,16.63-1.59,8.44-.78,8.52-.57c9.65-.85,19.33-1.66,28.65-2.18,6.91-.43,14.79-.38,22.61-.4l8.37,0h14c-.52-.36,1.15-.7,3.85-1l2.58-.27,2.07-.18c1.72-.13,3.54-.2,5.33-.29l.86,0,2.21-5.11-2.21,5.11c6.81-.34,12.75-.64,9.62-1.38,9,.3,22.51.74,23.22.43,1.06-.48,3.33-1,8.34-1.25s12.72-.07,24.68.49c9.36.55,23.7,1.9,27,2C604.22,98.29,586.93,96.75,592.13,96.87Z"/><path class="cls-6" d="M330.05,94.55c-15.82,1.16-33.62,2.8-51.7,4.59l-18.18,2.07c-3,.34-6.05.67-9.05,1-1.5.16-3,.34-4.49.51s-3,.4-4.46.59c-11.83,1.67-23.31,3.18-33.92,4.71l-28.68,4.63c-4.19.6-8,1.41-11.44,2l-9,1.61-3.71.75c-11.23,1.9-23.54,4.8-35.4,7.59-5.14,1.15-10.13,2.59-14.92,4l5.26-2.83c3.07-1.91,10.89-6,21.12-11.4s23.13-11.72,36.42-18c8.57-4.06,17.32-8,25.64-11.74q3.28-.54,6.56-1.13c-.09-.24-.14-.47.22-.6a45.23,45.23,0,0,1,5.66-.5l.94-.22a.85.85,0,0,0,.34-.53c1-.08,1.81-.11,2.61-.13,10.44-2.31,21-4.34,32.53-5.78,2.43-.46,4.86-.85,7.2-1.06,3.47-.23,7.9-.21,11.28-.33-.26-.37,1.67-.7,3.46-1s3.44-.43,2.62-.74c2.25.08,5.64.19,5.81.08.53-.33,2.26-.66,8.25-.14l6.17.63-.27,0c-.76-.09-1.52-.19-.87-.12L260.2,69.87,235.4,67l1.12-.48c6.39-2.52,13.4-5.42,20.11-8.36s13.12-5.92,18.22-8.72c4.6-2.75,9.2-5.75,13.77-8.75-2.57.39-5,.73-7.07,1,5.1-2.06,10.2-4.1,11.87-5.54,7-4.16,5.86-5.1,2.78-5.46,1.68-.5,3.65-1.24,5.68-1.8a17.33,17.33,0,0,0,2.57-1.61l-2.92-.12a18.62,18.62,0,0,0,3.35-.23c.29-.25.56-.49.81-.74l-4.4-.19c1.19,0,3.43-.2,4.72-.18l0,0c-2.57-.42-6.06.16-8.5.05,6.62-1.48,3.49-3.4-3.17-4.46a1.21,1.21,0,0,0,.05-.18c1.08,0,2.11-.05,2.06-.3-.15-.68-1-.84-2.09-.8l.54-.33c1.16-.08,2.11-.27,2.4-.73-.38,0-.76,0-1.15-.08,4.75-3.16,5.35-5-2-3.06,3.24-1.51,8.13-3,11.44-4.84l0,0c-1.73.76-4.83,1.82-6.41,2.55L305,10.8c-.41-.09-.86-.17-1.34-.23a36.57,36.57,0,0,0-4.58,1.73l3.88-1.81a27.89,27.89,0,0,0-4,0c-1.34.3-2.68.57-4,.82,2.15-1.63,3-3-2.82-4.39-1.43-.74-5.25-.69-9.07-.66,1.42-.61,3.05-1.23,4.82-1.85-3.72-1.11-7.46-2.22-11.15-3.12A105.23,105.23,0,0,0,262.67.06c-5.12-.14-10.42,0-15.21.2h-1.59c-8.78.62-30.23,1.32-50.71,2.44l-28.33,1.6c-8.07.53-14.22.8-16.76.78-14.79,1.49-29.24,3-43.63,4.75s-28.71,3.92-43.2,6.62c2.23.2-4.93,1.95-2.69,2.14,1.42.12,7.34-1.5,11.28-1.87C82,16.22,85.1,18,86.17,19.7c.36.57,6-.2,9.77-.63-2.52,2.5,11.38,2.24,10.72,4.67,5.65-.51,13-1.56,18.83-1.69,3.94,0,8.06.43,12.17.86,19.33.62,37.14,2.05,54.6,3.75,1.32-.09,2.74-.18,4.34-.21a1.11,1.11,0,0,0,.59.69l1.57.15a91.12,91.12,0,0,1,9.43-.06c.59.13.53.43.38.76,5.94.36,11.89.77,17.88,1.06,3.24-.37,6.42-.78,9.47-1.1l.29,1c3.94.74,7.12-1.24,11.06-.48,1.25.34.44.93.46,1.55l3.34.12q-12.52,6.17-24.89,12.63c.19.51,1.48.45-.06,1.53-4.94,3.14-9.81,3.78-14.74,7,0,.31,0,.63,0,.94L205,54.92c-2.14.93-4.31,1.9-6.49,2.89l-8.72,5c-5.2-.57-9.56-1.1-12.1-1.53l-.94-.07c-5.64-.78-12.49-1.34-17.26-.45-2.19.62-4.42,1.46-6.64,2.33,1,.69,2,1.37,2.82,2-2.26-.22-4.52-.45-5.38.19-4.81,1.37-2.09,3.53-.24,6.13,1.33,1.14-.46,2.89,1.62,4l-3.76-.09c-.18,1.1,4.63-.62,3.58,1.16-1.44-.38-3.06.31-4.56.3.52,1.48,5.2.41,5,1.84-.81.38-4.22-1.82-4.51,0-.06.37,1.44.37,2.2.36-4.63.72-7.18,2.73-3,4.46-1.46.06-3.54-.6-5.09-.24,0,0,0,0,0,0,.78,0,2.11.31,2.83.29l-2.64.08a6.68,6.68,0,0,0,.46.76,6.42,6.42,0,0,0,2,.3l-1.75.07A12.07,12.07,0,0,0,144,86.4c1.49.73,2.92,1.7,4,2.17-19.21,12.51-38.61,25.49-59.14,39.71-4.77,3.57-9.57,7.09-14.29,10.33l-2.31,1.56-9.54,4,4.61-.61-2.92,2c-.92.27-1.81.55-2.65.86a57.07,57.07,0,0,0-8.15,3.26c-14.68,6.29-9.79,6.35-3.23,6.23-1.26,1.1-3.07,2.57-4.83,4-3.41,2.74-6.59,5.21-4.77,4.3l-3.68,2.54c-1.27.9-2.51,1.85-3.64,2.68-2.25,1.67-4,3-4.12,3.15A24.8,24.8,0,0,1,25.55,176c-2.37,1.91-6.23,4.6-12,9L.25,194.82,0,195,.08,195c.38-.32,1.14-.86,1.88-1.41,1.5-1.09,3-2.18,1.73-1.24L16.54,183c2.11-1.57,4.31-3,6.48-4.49s4.34-3,6.51-4.41c8.58-6,17.48-11.41,26.22-17.06l1.35-.82h0c.68.84-.9,2.59,5,1.44l-14.19,4.77c-.28,1.26,17.24-6.56,13.89-3.51-5.57,1.49-11.44,4.24-17.08,6.14,2.46.75,19.7-6.26,19.28-4.58-2.91,1.38-16.44,3.63-16.92,5.75-.08.43,5.55-1.49,8.36-2.45-4.26,1.67-8.05,3.15-11,4.59a43.73,43.73,0,0,0-6.21,3.54c-2.24,1.71-.35,2,7.68-.12-5.34,2.1-13.18,4.36-18.73,6.86l.05,0c2.84-1.07,7.84-2.65,10.45-3.67l-9.64,3.76c.6,0,1.27.06,2,.06,2.47-.74,4.94-1.53,7.44-2.5l-6.39,2.49c1.82-.06,3.86-.24,6.06-.53,4-1,7.91-1.76,11.36-2.52a61.94,61.94,0,0,0,8.58-2c33.56-11.53,68.26-21.05,103.09-29.48-.07-.58-2.05-.7.79-1.64A91.21,91.21,0,0,1,173.84,140c2.09-.32,4.18-.64,6.3-1.06s4.33-.8,6.6-1.42c.15-.33.32-.68.49-1l22.29-3.37,5.21-1.12,5.23-1,10.44-2c6.95-1.35,13.87-2.8,20.82-4.09-.41-.23-.62-.46.76-.78,5.77-1.1,13.85-2.06,22.19-3.26l3.66-.69c.93-.31,1.14-.6,1.27-.79,3.78-.53,7.14-1,10.27-1.31l30.89-4.94c4.27-.73,8.57-1.28,12.89-1.84L331,99.68ZM75.82,144.93l-4.15,2.5,4.14-2.5L82.63,141l1.3-.74-1.3.75Z"/><path class="cls-7" d="M287.44,73.31l.31,0C288.23,73.34,287.94,73.35,287.44,73.31Z"/></g></g></svg>